<?xml version="1.0" encoding="UTF-8"?>
<svg id="Layer_1" data-name="Layer 1" xmlns="http://www.w3.org/2000/svg" viewBox="0 0 1000 1000">
  <defs>
    <style>
      .cls-1 {
        fill: #af6849;
      }

      .cls-2 {
        fill: #c0a969;
      }

      .cls-3 {
        fill: #fff;
      }

      .cls-4 {
        fill: #ad4625;
      }

      .cls-5 {
        fill: #11123d;
      }

      .cls-6 {
        fill: #d6dbef;
      }

      .cls-7 {
        fill: #1a1a1a;
      }

      .cls-8 {
        fill: #d37d59;
      }

      .cls-9 {
        fill: #dd835c;
      }

      .cls-10 {
        fill: #f69266;
      }

      .cls-11 {
        fill: #9c8b56;
      }
    </style>
  </defs>
  <g>
    <path class="cls-2" d="M541.65,373.57l9.05-305.27c56.32,1.67,111.1,18.9,158.24,49.76,47.14,30.87,84.83,74.19,108.89,125.14l-276.18,130.36Z"/>
    <path class="cls-5" d="M472.64,120.14l.63,344.64-10.89,344.46c-183.83-5.82-333.41-158.62-333.75-343.83-.34-189.06,154.95-344.92,344.01-345.26Z"/>
    <path class="cls-2" d="M789.28,327.27c18.79,43.19,28.54,89.79,28.61,136.87.06,28.88-3.52,56.99-10.29,83.89-.42,1.66-.86,3.32-1.3,4.98-4.05,15.13-9.13,29.84-15.13,44.11-.29.7-.59,1.39-.88,2.09-2.64,6.14-5.45,12.18-8.42,18.13-.33.68-.67,1.34-1.01,2.01-9.56,18.81-20.8,36.66-33.52,53.33-.46.61-.93,1.22-1.4,1.82-4.55,5.89-9.28,11.64-14.2,17.21-.53.61-1.07,1.22-1.61,1.83-16.8,18.82-35.6,35.81-56.09,50.61-.72.53-1.46,1.05-2.2,1.57-8.9,6.34-18.11,12.26-27.6,17.74-.85.49-1.71.99-2.56,1.47-26.36,14.94-54.84,26.5-84.84,34.09-1.72.44-3.43.86-5.16,1.26-25.03,5.92-51.08,9.08-77.8,9.13-1.13,0-2.27,0-3.4-.02-.61,0-1.21,0-1.82,0-.17,0-.36,0-.55-.01l-3.07-.07c-.89-.02-1.79-.04-2.69-.07l.84-26.55.06-2.13,1.7-53.58.06-1.95.89-28.05.06-2.11,1.56-49.35.08-2.25.79-25.03.07-2.2,1.66-52.35.07-2.17.92-29.07.08-2.24,1.66-52.82.08-2.31.32-10.31,316.03-137.51Z"/>
    <path class="cls-5" d="M818.93,601.67c-1.31-.4-1.87,1.64-.56,2.05.8.25.96,1.15.84,1.9-.19,1.15-1,1.81-2.15,1.93-2.7.27-5.14-2.11-6.53-4.16-2.88-4.28-3.36-9.73-3.47-14.74-.12-5.41.08-11.07-1.83-16.23-1.86-5.03-5.7-8.47-10.32-11-4.59-2.51-9.64-4.19-13.88-7.32-2.07-1.52-3.91-3.43-5.02-5.77-1.32-2.77-1.34-5.89-1.32-8.89.02-2.92.08-5.87-.65-8.72-.63-2.47-1.77-4.8-3.23-6.88-3.07-4.38-7.38-7.69-11.98-10.34-10.8-6.24-25.17-10.5-29.11-23.83-.29-.98-1.72-.57-1.52.42,2.42,12.32,15.58,17.95,25.5,23.1,5.41,2.81,10.78,6.06,14.55,10.97,1.72,2.24,3.03,4.79,3.66,7.55.75,3.28.39,6.68.48,10.01.08,2.99.55,5.96,2.05,8.6,1.3,2.28,3.18,4.12,5.27,5.67,4.6,3.43,10.15,5.13,15.06,8.01,2.39,1.4,4.66,3.1,6.29,5.37,1.77,2.47,2.67,5.41,3.14,8.39.89,5.72.23,11.55,1.05,17.28.81,5.61,3.39,12.53,9.35,14.43,2.49.8,5.47.12,6.46-2.51.78-2.06.11-4.59-2.14-5.28Z"/>
    <path class="cls-6" d="M739.65,246.21c-.54.07-1.09.14-1.63.2-5.92.75-11.85,1.36-17.81,1.81-.43,13.8-.77,27.6-1.07,41.41-.69,32.75-1.06,65.5-1.09,98.27-.03,29.09.47,58.16.68,87.25.01.72.01,1.43.02,2.15-.56-.38-1.12-.75-1.67-1.13-2.44-1.67-4.84-3.38-7.3-5.02-3.58-2.38-7.2-4.7-10.83-6.97-.28-.17-.56-.36-.84-.53-.23-.14-.48-.29-.71-.44,0-.67,0-1.34,0-2.01.09-13.39.53-26.79.91-40.17.88-30.04,2.13-60.07,3.75-90.09,1.47-27.36,3.41-54.68,5.37-82.01-4.68.18-9.37.25-14.07.22-.53,0-1.06,0-1.58-.01.21-.53.44-1.07.66-1.59,1.57-3.85,3.18-7.69,4.77-11.52,7.01-16.77,14.08-33.49,21.13-50.23.3-.7,1.26-.79,1.52,0,1.59,4.88,3.21,9.77,4.81,14.64,4.84,14.72,9.71,29.44,14.46,44.19.17.53.34,1.06.51,1.58Z"/>
    <path class="cls-8" d="M527.65,392.09c-.25,12.46-.26,24.93-.26,37.39.01,23.1.28,46.19.92,69.28.64,23.08,1.54,46.16,2.72,69.23.03.49-.41.8-.84.84-3.79.31-7.64.13-11.37-.56-.49-.09-.97-.18-1.46-.3,0-.57-.02-1.14-.04-1.72-.25-11.35-.36-22.72-.41-34.08-.11-23.55.04-47.11.45-70.66.2-11.82.56-23.63.77-35.45.21-11.06.47-22.14,1.03-33.19-2.06.18-4.11.36-6.17.52-.5.04-1,.08-1.49.12.19-.6.38-1.21.56-1.81,1.14-3.72,2.23-7.29,3.32-10.87,2.18-7.17,4.42-14.3,6.6-21.47.23-.77,1.05-.77,1.28,0,2.28,7.56,4.68,15.08,7.19,22.54.88,2.63,1.79,5.26,2.7,7.87.19.57.39,1.14.59,1.7-.47.05-.93.1-1.41.15-1.55.16-3.11.31-4.66.47Z"/>
    <path class="cls-5" d="M823.87,675.04c-8.92,6.12-20.05,8.37-30.66,9.28-12.84,1.11-25.75-.09-38.51-1.51-12.97-1.44-25.9-3.01-38.97-3.23-13.3-.23-26.6.54-39.85,1.62-26.38,2.17-52.68,5.45-79.2,5.07-26.63-.38-53.1-3.6-79.45-7.19-6.08-.82-12.22-1.47-18.25-2.62-4.96-.94-9.98-2.55-13.81-5.98-4.87-4.39-6.64-13.3-2.04-18.24-3.12-5.04-6.23-10.06-9.33-15.1-3.19-5.16-7.02-10.39-8.58-16.34-3.01-11.38,5.51-20.57,13.51-27.34,4.14-3.51,8.52-6.96,11.75-11.39,1.6-2.19,2.87-4.59,3.65-7.2.84-2.86,1.18-5.84,1.57-8.78.72-5.3,1.91-10.31,5.16-14.67,2.61-3.48,5.93-6.29,9.37-8.91,7.28-5.53,15.82-10.54,19.43-19.41,2.32-5.65,2.97-11.81,5.15-17.51,2.05-5.37,4.93-10.36,8.1-15.14,3.31-4.98,6.91-9.76,10.28-14.69,3.34-4.88,6.48-9.89,9.64-14.88,6.26-9.88,12.64-19.79,20.62-28.41,13.08-14.13,33.76-25.72,53.37-20.56,4.91-.96,9.72-1.39,14.54-1.29,19.77.41,39.35,8.93,53.03,23.23,8.99,9.4,14.61,21.24,19.44,33.17,4.75,11.71,8.14,24.72,16.09,34.95,7.79,10.03,20.61,14.74,27.71,25.48,3.68,5.56,3.88,11.48,6.3,17.43.77,1.89,1.91,3.6,3.05,5.29,4.71,7.02,11.1,11.48,16.52,17.77,5.23,6.06,5.47,15.27,9.09,22.35,3.2,6.27,7.55,11.97,12.79,16.68,5.32,4.78,10.85,9.64,14.04,16.19,2.22,4.57,3.23,9.78,2.14,14.68,1.92,3.98,3.45,8.16,4.05,12.56,1.38,10.15-3.49,18.97-11.75,24.64Z"/>
    <path class="cls-5" d="M553.01,480.73c-8.71,3.77-15.8,10.96-19.75,19.57-1.94,4.23-3.15,8.76-3.46,13.41-.37,5.49.93,11.47-2.67,16.19-3.46,4.52-9.12,6.4-14.21,8.39-4.75,1.86-9.25,4.16-13.12,7.53-3.89,3.39-6.77,7.71-8.22,12.68-1.65,5.65-1.64,11.59-2.38,17.39-.76,5.93-2.54,12.18-7.47,16-2.13,1.65-4.9,2.77-7.64,2.46-2.75-.32-5.56-2.99-3.81-5.84.53-.86-.77-1.92-1.43-1.11-1.44,1.77-1.44,4.16-.21,6.07,1.34,2.09,3.82,3,6.22,3.04,4.95.08,9.29-3.16,12.01-7.06,7.18-10.3,2.81-24.01,8.53-34.83,2.49-4.71,6.58-8.34,11.13-11,5.14-3,11.03-4.33,16.18-7.29,4.67-2.69,8.19-6.73,8.91-12.2.39-2.97.12-5.95.19-8.93.06-2.51.4-5.01,1-7.45,2.74-11.12,10.68-20.73,21.19-25.32,1.16-.51.16-2.2-1-1.71Z"/>
    <path class="cls-10" d="M746.11,584.11c-4.7,8.44-10.63,16.19-17.58,23.03-13.36,13.14-30.01,22.45-47.82,28.08-18.91,6-39.32,8.27-59.1,6.77-19.12-1.45-38.34-7.4-52.88-20.29-12.19-10.81-19.96-26.29-19.71-42.56,23.73-7.27,47.46-9.11,89.64-8.73,44.37.41,79.43,5.33,107.45,13.71Z"/>
    <path class="cls-9" d="M694.24,600.31c.06.5-.12,1.04-.67,1.17-10.57,2.56-21.14,5.1-31.71,7.62-9.35,2.23-18.69,4.47-28.04,6.7-3.34.8-7.56,2.14-9.75-1.47-1.79-2.94-1.23-7.03-1.33-10.29-.54-18.33-3.95-36.51-10-53.81-.17-.48.19-1.1.69-1.21,5.22-1.19,10.48-2.27,15.75-3.24,9.25-1.7,18.57-3.04,27.92-4.01,4.67-.49,9.36-.88,14.05-1.19,4.36-.27,8.74-.58,13.12-.43-.21-1.62-.43-3.25-.64-4.86-.1-.81,1.31-1,1.43-.19.26,1.83.53,3.65.8,5.48.05.11.06.24.05.37.43,2.89.85,5.79,1.27,8.68,2.39,16.88,4.71,33.79,7.06,50.68Z"/>
    <path class="cls-8" d="M918.8,779.85c-5.65-.02-11.31-.01-16.97-.05-.5,0-.99,0-1.49-.01-.12-.62-.23-1.23-.36-1.85-2.63-13.91-4.95-27.87-6.96-41.89-3.9-27.31-6.58-54.8-8.13-82.35-1.42-25.22-2.06-50.56-1.37-75.83-4.5-.02-9.01-.13-13.5-.36-.59-.02-1.18-.05-1.77-.08.17-.61.36-1.21.55-1.82,4.67-15.44,9.38-30.86,13.98-46.33.25-.83,1.33-.74,1.61,0,1.86,4.89,3.78,9.76,5.77,14.6,3.48,8.49,7.21,16.88,11.14,25.17,1.02,2.13,2.05,4.25,3.11,6.38.3.61.6,1.21.91,1.82-.65.05-1.3.08-1.95.11-3.49.2-6.99.34-10.48.43.64,12.45,1.48,24.88,2.51,37.3,2.26,27.58,5.44,55.09,9.51,82.46,4.04,27.2,8.97,54.28,14.77,81.16.12.57-.25,1.14-.87,1.14Z"/>
    <path class="cls-5" d="M448.74,699.74c.07.54-.6.99-1.08.82-5.52-1.95-11.24-3.33-17.05-4.04-2.57-.31-5.14-.48-7.71-.54-.55-.01-1.1-.02-1.64-.02-.01-.6-.02-1.19-.03-1.78-.25-11.6-.45-23.22-.82-34.82-.92-27.89-2.39-55.76-4.42-83.57-1.02-14-2.18-27.99-3.48-41.96-.97-10.48-1.9-20.99-3.09-31.45-3.96.4-7.92.83-11.88,1.29-.67.08-1.35.16-2.02.24.26-.59.52-1.18.76-1.77,9.89-23.07,16.35-47.69,19-72.64.09-.92,1.36-1.18,1.65-.22,2.12,6.76,4.25,13.51,6.38,20.27,5.12,16.25,10.22,32.51,15.33,48.76.18.57.37,1.15.54,1.72-.59.03-1.18.06-1.77.1-4.92.29-9.84.64-14.75,1.05,1.33,9.87,2.64,19.74,3.94,29.61,3.71,28.15,7.4,56.32,11.09,84.47,3.69,28.16,7.34,56.33,11.05,84.48Z"/>
    <path class="cls-2" d="M934.98,938.94c-46.7,2.82-74.58-39.34-86.7-54.11-12.12-14.76-56-56.15-56-56.15l5.73,96.58-301.08-7.79-14.33-93.53s-100.6,104-149.34,98.23c-22.82-2.71-65.57-32.03-15.57-100.14,50.01-68.12,124.52-193.16,178-219.93,20.71-10.37,36.24-17.54,51.61-22.43.57-.18,1.15-.36,1.72-.53-.25,16.26,7.51,31.75,19.71,42.56,14.55,12.89,33.77,18.84,52.88,20.29,19.78,1.5,40.18-.77,59.1-6.77,17.81-5.63,34.46-14.94,47.82-28.08,6.95-6.83,12.88-14.59,17.58-23.03.59.17,1.18.34,1.76.53,29.09,8.92,50.5,21.59,66.84,36.74,32.26,29.9,132.06,193.2,155.13,229.94,23.07,36.74,11.84,84.8-34.86,87.62Z"/>
    <path class="cls-10" d="M710.51,501.21c0,42.42-32.49,76.82-72.57,76.82s-72.57-34.39-72.57-76.82,16.31-86.62,72.57-85.06c55.76,1.55,72.57,42.64,72.57,85.06Z"/>
    <path class="cls-5" d="M717.12,529.72c-.5,7.62-1.21,15.32-2.48,22.84-.2,1.11-1.99.85-1.87-.26.06-.48.1-.96.16-1.44-.21-.08-.4-.24-.5-.54-1.55-4.9-3.19-9.68-5.56-14.24-2.34-4.52-5.15-8.77-8.22-12.79-11.2-14.62-25.58-25.94-37.83-39.49-10.05-11.11-19.42-24.39-22.37-39.6-2.38,4.67-5.24,9.07-8.37,13.22-11.54,15.24-26.72,26.68-39.46,40.71-11.26,12.39-21.07,28.14-21.76,45.64.36,1.8.73,3.61,1.14,5.39.3,1.31-1.62,1.86-1.91.55-.31-.2-.55-.42-.58-.81-.07-.79-.09-1.57-.11-2.36-2.98-14.2-4-28.83-3.01-43.33.94-13.87.26-26.6,4.77-39.68,4.02-11.65,10.26-24.52,18.83-33.23,11.41-11.58,29.45-17.5,44.6-17.06,9.48-2.37,19.08.97,28.43,3.74,11.28,3.34,21.47,9.85,29.69,18.61,8.37,8.91,14.64,19.81,18.97,31.43,4.76,12.76,7.07,26.39,7.72,40.05.36,7.55.21,15.12-.27,22.66Z"/>
    <path class="cls-10" d="M565.99,850.48c-.7.48-1.46,1-2.24,1.49,3.65,4.56,6.86,9.54,8.59,15.12,1.92,6.19,1.83,12.9-1.28,18.69-2.82,5.25-7.62,9.39-12.87,12.09-5.4,2.77-12.15,4.27-17.83,1.39-2.74-1.39-4.86-3.7-6.63-6.17-1.88-2.63-3.48-5.48-5.05-8.3-3.16-5.75-5.91-11.73-8.23-17.87-.13-.34-.25-.7-.38-1.04-5.18-10.69-8.7-22.19-10.43-33.94-1.03-6.97-1.4-14.03-1.15-21.07-1.26-10.04-.9-20.28,1.49-30.08,3.74-15.32,12.65-29.3,26.02-37.93,3.09-2.01,6.4-3.68,9.85-4.99,3.65-1.39,8.03-2.9,11.92-1.59,3.29,1.11,5.69,4.15,4.9,7.71-.81,3.66-4.18,6.17-7.14,8.09-6.34,4.09-13.89,6.91-17.77,13.83-2.53,4.53-3.42,9.7-3.82,14.91,1.78-.53,3.59-.99,5.41-1.37,5.12-1.09,10.69-1.73,15.72.14,6.95,2.59,11,9.29,11.79,16.37.92.38,1.76.95,2.49,1.81,1.78,2.11,2.7,4.99,3.43,7.6.84,2.98,1.23,6.1.77,9.17-.38,2.47-2.36,5.25-4.08,7.22,2.42,1.16,5.04,3.66,6.25,6.11,1.31,2.64,1.91,4.72,1.46,7.6-1,6.56-5.93,11.43-11.18,15Z"/>
    <g>
      <path class="cls-5" d="M602.3,777.91c-.13-3.02-.3-6.05-.5-9.07-.19-2.9-.24-5.91-.75-8.78.31-.38-.08-1.12-.61-.92-5.64,2.04-5.15,9.31-5.22,14.16-.05,3.35-.08,6.69-.05,10.04.03,2.93-.2,6.16.68,9,.81,2.6,3.1,5.03,6.03,4.69.41-.05.75-.31.76-.76.02-6.13-.08-12.25-.35-18.36Z"/>
      <path class="cls-5" d="M601.36,805.26c-1.75-.29-3.38.65-4.31,2.13-1.17,1.87-1.04,4.24-1.06,6.36-.04,3.49-.63,9.86,4.37,10.19.43.03.74-.38.77-.77.34-5.75.68-11.5,1-17.25.03-.5-.38-.71-.77-.66Z"/>
    </g>
    <path class="cls-2" d="M979.62,904.35c-3.53,30.49-32.83,39.39-92.15,39.7-.74,0-1.48,0-2.23,0,.8-2.74,1.47-5.52,2.01-8.33,4.03-21.3.19-43.62-11.25-62.06-8.77-14.14-21.52-25.8-36.43-33.16,1.34-.08,2.68-.16,4.01-.23,39.98-2.21,77.17-2.32,92.07,3.33,38.25,14.53,47.22,32.69,43.97,60.75Z"/>
    <path class="cls-10" d="M887.24,935.72c-.54,2.81-1.21,5.59-2.01,8.33-4.87,0-9.95-.04-15.23-.14-71.07-1.3-157.07-19.99-166.07-31.5-9-11.52-13.58-32.82-13.58-32.82l19.64-27.68c1.38.42,68-7.82,129.58-11.41,14.9,7.36,27.66,19.02,36.43,33.16,11.44,18.45,15.28,40.76,11.25,62.06Z"/>
    <path class="cls-10" d="M725.32,904.75c-2.45,1.95-5.82,2.16-8.82,2.04-7.47-.31-15.25-1.68-21.57-5.9-2.83-1.88-5.3-4.29-7.11-7.18-1.77-2.84-2.89-6.03-3.69-9.27-1.4-5.58-2.01-11.35-3.65-16.86-.34.58-1.44.45-1.44-.39,0-1.91.31-3.81.85-5.64,1.09-3.7,2.96-7.14,4.81-10.51,1.8-3.29,3.73-6.49,5.79-9.62,4.15-6.31,8.8-12.29,13.9-17.87,1.24-1.36,2.51-2.7,3.81-4.01,1.19-1.2,2.43-2.48,4-3.19,3.22-1.47,6.13.76,7.1,3.85.6,1.88.67,3.93.9,5.87.25,2.14.49,4.3.73,6.44.49,4.3.97,8.59,1.46,12.89.98,8.58,1.96,17.15,2.94,25.72.48,4.27.97,8.52,1.46,12.79.46,4.03,1.06,8.06,1.35,12.1.23,3.16-.16,6.62-2.81,8.72Z"/>
    <path class="cls-5" d="M881.27,463.44c-.7.11-1.4.22-2.1.36-.65.1-1.29.21-1.94.33-5.75,1.02-11.46,2.25-17.12,3.69-2.65,20.41-7.85,40.49-15.42,59.63-8.78,22.22-20.75,42.98-35.38,61.86-15.25,19.69-32.78,37.4-49.7,55.62-16.25,17.5-31.97,35.62-44.36,56.12-10.58,17.49-18.62,36.67-21.67,56.9.95.34.84,1.34.07,1.39-.83.04-1.41.03-1.98-.01-2.26-.12-4.56-.64-6.78-.96-2.84-.42-5.68-.83-8.51-1.25-1.8-.26-3.58-.53-5.38-.79-.59-.09-1.17-.17-1.76-.26.1-.65.22-1.29.34-1.92,3.77-20.1,12.58-38.99,23.77-56.05,13.1-19.96,29.41-37.44,46.39-54.14,17.82-17.53,36.37-34.4,52.9-53.18,16.16-18.36,29.79-38.71,40.12-60.89,8.86-19.03,15.29-39.17,19.08-59.8-5.01,1.44-9.97,3.06-14.88,4.82-.88.31-1.77.64-2.65.96.49-.8.94-1.61,1.39-2.43.97-1.69,1.9-3.4,2.8-5.12,7.29-13.87,12.87-28.61,16.66-43.81.18-.73,1.29-.9,1.64-.21,4.08,7.93,8.55,15.66,13.36,23.17,2.36,3.69,4.81,7.32,7.34,10.89.83,1.17,1.69,2.33,2.54,3.48.41.54.81,1.08,1.21,1.61Z"/>
    <path class="cls-3" d="M633.52,757.73c.19,1.03-1.35,1.47-1.58.43-.14-.65-.29-1.29-.46-1.93-.16.01-.31.03-.48.05-5.37.62-10.67,1.75-15.84,3.3-.68.2-1.18-.34-1.25-.95-1.51-11.83-6.95-22.66-14.18-32.03-13.28-17.24-31.55-29.28-48.22-42.88-13.28-10.83-26.55-23.43-33.69-39.2-3.17,2.23-6.22,4.62-9.17,7.14-.63.54-1.25,1.08-1.87,1.63.03-.86.07-1.74.1-2.6.2-4.6.43-9.19.62-13.79.41-9.42.83-18.84,1.25-28.26.03-.7.89-1.11,1.42-.58,8.13,8.13,16.36,16.18,24.47,24.36.46.46.91.91,1.36,1.37-.11.05-.22.11-.33.16-.42.2-.84.41-1.26.63-2.7,1.32-5.34,2.76-7.92,4.29,3.14,3.83,6.29,7.59,9.78,11.16,4.39,4.48,9.04,8.69,13.82,12.75,16.87,14.31,35.45,26.61,51.37,42.05,13.96,13.54,26.65,30.02,31.28,49.23.16.66.31,1.33.45,2.01.12.55.23,1.11.33,1.66Z"/>
    <path class="cls-5" d="M698.41,900.31c-.54,1.04-1.24,1.98-2.13,2.8-3.29,2.99-8.18,3.17-12.63,3.19-22.26.08-44.51.15-66.77.23-5.35.02-11.31-.2-15.11-3.97-4.01-3.97-4.06-10.33-3.87-15.97.93-28,1.24-56.03.91-84.05-.17-14.24-.49-28.47-.98-42.7-.18-5.26-.37-10.87,1.86-15.77,2.22-4.88,8.14-5.25,12.84-5.23,24.41.07,48.81.14,73.22.21,2.61,0,5.36.05,7.6,1.4,4.2,2.53,4.74,8.3,4.82,13.2.68,45.02,1.35,90.04,2.03,135.06.06,3.92-.04,8.24-1.79,11.6Z"/>
    <path class="cls-10" d="M713.39,878.97c-4.48,1.49-9.44.08-13.43-2.15-3.98-2.23-7.34-5.4-10.94-8.18-3.68-2.85-7.67-5.3-11.86-7.31-3.76-1.8-8.16-3.12-10.59-6.76-2.05-3.08-1.8-6.97,1.13-9.37,3.27-2.67,7.65-2.29,11.48-1.25,4.07,1.1,8,2.72,11.76,4.63-2.65-2.21-5.38-4.31-8.27-6.24-4.8-3.21-10.44-5.7-14.23-10.19-3.08-3.64-4.72-8.59-2.54-13.1.99-2.04,2.75-3.67,4.95-4.32.33-.1.67-.16,1.01-.22-4.45-2.6-8.92-6.7-8.19-12.13.75-5.6,6.86-7.81,11.82-7.37,5.99.53,11.5,3.46,16.25,7,4.94,3.69,9.38,8.04,13.98,12.11.12.11.26.22.38.33-1.99-2.73-4.19-5.3-6.64-7.68-4.7-4.57-9.94-8.52-14.84-12.87-1.22-1.08-2.43-2.19-3.59-3.34-.94-.93-1.88-1.95-2.39-3.19-1.15-2.76.64-5.39,2.96-6.84,5.55-3.45,12.51-1.69,17.7,1.53,4.96,3.08,9.09,7.4,12.28,12.26,7,10.64,9.3,23.48,9.95,35.98.13,2.39.21,4.78.26,7.18.16,1.19.22,2.42.16,3.69,0,.14-.06.25-.13.33,0,.69,0,1.38-.02,2.06-.29,4.21-.48,8.43-.55,12.64-.34,4.54-.84,9.05-1.52,13.52.46-.23,1.11-.05,1.05.59-.38,4.15-3.54,7.39-7.41,8.68Z"/>
    <path class="cls-10" d="M650.87,785.18c-3.21,1.26-6.88.07-8.65-2.9-1.3-2.18-1.41-5.22.06-7.26,1.15-1.88,3.18-3.25,5.45-3.42,3.35-.24,6.62,2.03,7.37,5.32.79,3.43-.93,6.95-4.24,8.26Z"/>
    <path class="cls-5" d="M641.29,406.8c-1.33-.34-2.24.9-2.45,2.06-.09.48-.14.98-.17,1.47-1.15-1.46-2.19-3-3.09-4.63-.25-.44-.86-.59-1.29-.34-.48.28-.54.82-.34,1.29,1.03,2.39,2.14,4.73,3.37,7.02.2.38.73.5,1.1.29.19-.11.31-.28.35-.47.08.08.15.18.23.26.43.46,1.28.29,1.58-.23.31-.07.64-.3.69-.63.11-.61.13-.9.49-1.45.35-.54.73-1.02.95-1.63.42-1.17-.13-2.68-1.42-3Z"/>
    <path class="cls-1" d="M562.14,783.12c-3.33-3.4-7.95-5.12-12.63-5.54-5.15-.46-10.29.72-15.07,2.57-4.81,1.86-9.5,4.25-13.9,6.93-4.5,2.75-8.84,6.09-11.67,10.61-.44.7.6,1.24,1.07.62,5.6-7.29,13.97-11.77,22.23-15.42,8.29-3.66,19.02-5.99,26.93-.12,1.9,1.41,3.46,3.28,4.52,5.39,1.08,2.15,1.39,4.38,1.35,6.76-.02.92,1.5,1.18,1.65.22.7-4.39-1.45-8.96-4.48-12.04Z"/>
    <path class="cls-1" d="M574.27,807.11c-.33-2.76-.81-5.64-2.31-8.04-1.37-2.19-3.5-3.65-5.95-4.39-2.52-.76-5.23-.81-7.83-.6-3.2.27-6.37.84-9.47,1.66-6.21,1.65-12.13,4.29-17.71,7.46-6.36,3.62-12.27,7.91-17.97,12.49-.54.43.18,1.38.75.97,9.74-6.95,19.64-14,31.07-17.91,5.3-1.81,11.11-3.21,16.74-2.97,2.4.1,4.94.61,6.9,2.08,2.15,1.62,3.08,4.22,3.58,6.77,1.05,5.31,1.37,11.97-2.42,16.33-.74.85.49,2.1,1.25,1.25,3.64-4.13,3.99-9.88,3.37-15.11Z"/>
    <path class="cls-1" d="M575.98,827.07c-3.26-5.57-9.91-7.61-16.03-7.49-6.77.13-13.55,2.06-19.78,4.61-7.02,2.87-13.84,6.64-20.01,11.06-.74.53-.09,1.72.72,1.24,5.36-3.15,10.61-6.43,16.27-9.05,5.62-2.6,11.54-4.61,17.67-5.56,5.98-.92,13.01-.81,17.65,3.67,3.8,3.67,4.57,9.53,2.96,14.41-1.94,5.86-7.24,10.08-12.81,12.3-1.05.42-.59,2.13.47,1.71,5.35-2.14,10.28-5.77,12.97-10.98,2.52-4.88,2.74-11.09-.07-15.9Z"/>
    <path class="cls-1" d="M557.53,839.95c1.07-.53,2.22-.9,3.39-1.14,1.08-.22,2.53,0,3.42-.71.22-.18.21-.61,0-.79-.8-.68-1.96-.41-2.92-.28-1.17.16-2.31.46-3.41.89-1.95.76-3.93,1.88-5.27,3.54-1.36,1.68-1.73,3.73-.83,5.72.85,1.89,2.53,3.42,4.21,4.58.99.68,2.06,1.23,3.18,1.66,1.07.41,2.32.84,3.48.73.8-.08.91-1.06.18-1.36-1.07-.44-2.25-.6-3.33-1.06-1-.42-1.97-.96-2.85-1.6-1.67-1.2-3.89-3.23-3.69-5.49.2-2.27,2.62-3.8,4.45-4.71Z"/>
    <path class="cls-1" d="M565.92,841.32c-.07-.48-.16-.95-.28-1.42-.27-1.02-.69-2.02-1.21-2.94-1.04-1.83-2.54-3.37-4.34-4.45-.89-.53-1.7.85-.81,1.39,1.57.94,2.85,2.29,3.75,3.88.44.78.78,1.61,1.02,2.48.11.42.21.84.27,1.27.07.48-.02,1.06.17,1.51.29.72,1.21.75,1.49,0,.19-.51.03-1.2-.04-1.73Z"/>
    <path class="cls-1" d="M556.91,735.48c-1.28-.87-3.03-1.03-4.53-.88-1.73.17-3.42.75-4.87,1.72-.43.29-.88.63-1.31,1.01-2.31,1.61-4.25,4.36-3.79,7.21.25,1.54,1.41,2.67,2.94,2.93,1.65.27,3.31-.29,4.81-.93,1.66-.71,3.2-1.66,4.59-2.81,1.3-1.07,2.65-2.36,3.31-3.93.68-1.6.32-3.32-1.16-4.31ZM556.76,738.53c-.23,1.38-1.5,2.54-2.48,3.44-1.01.92-2.12,1.7-3.32,2.36-1.53.83-5.63,2.9-6.78.5-.6-1.24.03-2.81.68-3.92.15,0,.31-.04.42-.14.96-.8,1.58-1.92,2.59-2.7.94-.73,2.03-1.26,3.18-1.58,1.57-.43,6.17-.74,5.72,2.03Z"/>
    <path class="cls-1" d="M678.75,844.89c-2.44-1.68-5.83-2.5-8.72-1.62-1.55.48-2.93,1.52-3.43,3.11-.44,1.4-.13,3.07,1.13,3.92,1.63,1.81,4.06,3.08,6.27,3.71,2.44.69,6.65,1.24,8.16-1.43,1.64-2.9-1.14-6.13-3.41-7.69ZM680.69,851.85c-.59.94-1.89,1.06-2.89,1.07-1.18.01-2.34-.15-3.48-.47-1.28-.36-2.5-.92-3.62-1.65-.8-.52-1.48-1.15-2.16-1.8-.52-.71-.61-1.6-.25-2.42.46-1.03,1.56-1.57,2.61-1.82,2.28-.53,4.8.13,6.73,1.37,1.57,1.01,4.36,3.63,3.05,5.72Z"/>
    <path class="cls-1" d="M680.91,818.49c-2.34-2.79-5.88-4.79-9.61-3.96-1.87.42-3.52,1.64-4.32,3.4-.72,1.57-.78,3.35.12,4.83.96,2.75,2.91,5.08,5.61,6.38,2.99,1.44,7.86,2.07,10.26-.83,2.56-3.08.08-7.29-2.05-9.82ZM681.89,826.93c-1.58,2.46-5.71,1.89-7.97.94-2.96-1.24-5.05-3.89-5.85-6.94-.18-2.05,1.31-4.08,3.35-4.64,2.91-.81,5.75.7,7.71,2.78,1.67,1.77,4.38,5.34,2.76,7.87Z"/>
    <path class="cls-1" d="M680.79,796.47c-3.03-2.21-7.47-2.82-10.71-.6-1.66,1.14-2.64,3.02-2.7,4.87-.07.14-.1.29-.05.48.19,1.39.7,2.51,1.69,3.37,1.36,1.8,3.3,3.2,5.57,4.02,3.29,1.18,8.53,1.12,10.22-2.34,1.68-3.45-1.13-7.69-4.02-9.8ZM683.35,804.89c-.7,3.09-5.24,3.03-7.76,2.26-2.7-.82-5.05-2.74-6.24-5.14-.39-1.55.06-3.28,1.35-4.4,2.31-2,5.91-1.72,8.39-.18,2.36,1.46,4.9,4.67,4.27,7.45Z"/>
    <path class="cls-1" d="M693.55,779.97c-2.52-1.86-6.1-2.59-8.77-.58-1.3.99-2.06,2.51-1.92,4.16.1,1.18.61,2.4,1.6,3.03,1.25,1.7,3.03,3.04,4.98,3.82,2.84,1.14,6.97,1.34,8.14-2.15,1.1-3.29-1.56-6.44-4.03-8.27ZM696.1,787.26c-.5,2.89-3.89,2.4-5.95,1.64-2.31-.85-4.08-2.53-5.35-4.59-.45-1.18-.26-2.5.88-3.45,1.91-1.58,4.58-1.02,6.49.22,1.91,1.25,4.36,3.66,3.92,6.18Z"/>
    <path class="cls-1" d="M720.5,828.68c-4.97-6.14-10.35-12.09-16.13-17.47-5.43-5.05-11.45-9.61-18.17-12.79-3.75-1.78-7.67-3.15-11.78-3.82-.84-.14-1.23,1.09-.36,1.31,7.03,1.75,13.59,4.8,19.56,8.9,6.29,4.33,11.81,9.66,16.97,15.26,2.97,3.22,5.77,6.59,8.72,9.81.75.82,1.86-.37,1.19-1.19Z"/>
    <path class="cls-1" d="M721.79,847.3c-.96-1.59-2.35-2.99-3.58-4.38-1.28-1.43-2.6-2.83-3.96-4.19-2.72-2.72-5.58-5.28-8.59-7.66-5.91-4.69-12.31-8.78-19.11-12.06-3.9-1.88-7.91-3.51-12.02-4.87-.96-.32-1.35,1.17-.41,1.5,14.13,4.95,27.15,12.94,37.9,23.35,1.49,1.44,2.94,2.93,4.34,4.47,1.42,1.56,2.68,3.34,4.21,4.79.63.6,1.7-.17,1.23-.95Z"/>
    <path class="cls-1" d="M719.26,865.74c-5.24-4.86-11.19-9.09-17.27-12.82-6.12-3.75-12.68-7.38-19.66-9.21-3.82-1-8.12-1.61-12-.59-.66.17-.54,1.25.16,1.21,3.54-.17,6.91-.08,10.37.78,3.51.88,6.85,2.26,10.1,3.83,6.24,3.02,12.2,6.65,17.84,10.69,3.21,2.3,6.22,4.8,9.25,7.32.84.7,2.04-.45,1.22-1.22Z"/>
    <path class="cls-1" d="M705.95,880.64c-3.19-2.31-6.39-4.59-9.57-6.91-.68-.5-1.31.63-.66,1.12,2.8,2.11,5.57,4.25,8.37,6.38,1.31,1,2.69,1.94,3.92,3.02,1.27,1.11,1.99,2.28,2.12,3.96.07.85,1.4,1.16,1.59.21.72-3.59-3.35-6.03-5.77-7.79Z"/>
    <path class="cls-2" d="M401.28,911.88c1.33,5.25,3.09,10.39,5.24,15.36-.69.03-1.39.06-2.08.08-6.43.26-12.8.46-19.06.59-64.16,1.35-88.25-12.87-90.95-46.12-2.71-33.26,44.19-48.44,77.92-49.99,7.82-.37,21.73,1.39,36.84,2.22.68.04,3.75.39,4.44.43-2.12,3.73-6,10.92-7.63,14.88-8.14,19.76-10,41.79-4.72,62.54Z"/>
    <path class="cls-10" d="M571.06,885.78s-9.7,13.52-27.38,23.03c-15.78,8.48-78.3,15.95-137.16,18.43-2.15-4.97-3.91-10.11-5.24-15.36-5.28-20.75-3.42-42.78,4.72-62.54,1.62-3.96,3.51-7.83,5.63-11.55l1.99-3.33c50.06,2.85,121.75,13.54,126.83,14.01l30.6,37.32Z"/>
    <path class="cls-11" d="M479.61,774.34c-1.35-18.22-2.47-36.45-3.41-54.69-.53-10.26-1.02-20.52-1.5-30.78-.05-.96-1.52-.97-1.5,0,.45,18.26,1.32,36.51,2.41,54.73,1.1,18.23,2.42,36.45,3.96,54.65.87,10.23,1.81,20.46,2.81,30.68.12,1.23,2.06,1.24,1.94,0-1.79-18.18-3.36-36.38-4.71-54.59Z"/>
    <path class="cls-11" d="M793.23,827.42c-.14.21-.28.42-.42.63-1.2-15.34-2.36-30.66-3.14-46.03-.81-16.11-1.33-32.25-1.57-48.38-.14-9.08-.07-18.15-.23-27.23-.02-.98-1.49-.98-1.52,0-.51,16.27-.07,32.63.41,48.9.48,16.13,1.26,32.25,2.33,48.35.6,9.05,1.23,18.12,2.09,27.15.08.85,1.23,1.32,1.71.46.57-1.02,1.07-2.07,1.57-3.12.4-.83-.72-1.49-1.24-.72Z"/>
    <path class="cls-5" d="M789.46,806.07c-.65,0-.65,1.02,0,1.02s.65-1.02,0-1.02Z"/>
    <path class="cls-11" d="M839.79,751.05c-17.06,12.63-31.1,29.65-41.18,48.27-2.87,5.3-5.35,10.78-7.48,16.41-.27.71.93,1.22,1.23.52,8.25-19.46,19.95-37.31,34.99-52.21,4.23-4.19,8.71-8.09,13.31-11.86.62-.51-.21-1.61-.87-1.13Z"/>
    <path class="cls-11" d="M855.56,775.78c-17.82,8.77-34.75,19.62-50.64,31.49-4.46,3.33-8.83,6.79-13.14,10.31-.78.64.33,1.74,1.11,1.11,15.34-12.41,31.75-23.59,48.83-33.47,4.83-2.79,9.72-5.45,14.62-8.12.88-.48.1-1.76-.78-1.33Z"/>
    <path class="cls-11" d="M933.69,839.95c-13.77-7.71-30.56-6.69-45.73-5.42-18.05,1.52-36.1,3.1-54.15,4.69-10.25.9-20.52,1.67-30.74,2.87-1.04.12-1.09,1.72,0,1.67,8.92-.48,17.81-1.33,26.71-2.07,8.99-.75,17.98-1.5,26.96-2.27,8.9-.76,17.81-1.52,26.71-2.28,7.94-.68,15.9-1.41,23.88-1.19,8.8.24,17.38,1.83,25.26,5.88,1.24.64,2.33-1.19,1.1-1.88Z"/>
    <path class="cls-11" d="M932.94,816.43c-4.76-.21-9.6.29-14.31.91-4.69.61-9.35,1.46-13.94,2.59-9.24,2.26-18.23,5.57-26.74,9.81-2.37,1.18-4.7,2.45-6.99,3.79-2.33,1.36-4.74,2.75-6.8,4.5-.7.59.19,1.6.94,1.22,2.09-1.07,4.06-2.41,6.08-3.59,1.97-1.15,3.98-2.24,6.01-3.29,4.18-2.15,8.47-4.08,12.86-5.75,8.67-3.3,17.7-5.66,26.88-7.01,5.32-.78,10.66-1,16.01-1.41,1.12-.09,1.14-1.71,0-1.76Z"/>
    <path class="cls-11" d="M469.5,839.46c-4.44-1.21-10.39-.78-14.92-1.59-4.46-.8-8.93-1.54-13.4-2.23-8.98-1.38-17.98-2.54-27.02-3.47-18.1-1.86-36.3-2.83-54.5-2.89-5.11-.02-10.21.04-15.32.16-5.08.12-10.29.07-15.33.76-1.17.16-.82,1.95.27,1.99,4.51.15,9.07-.27,13.58-.39,4.53-.12,9.06-.19,13.59-.2,8.98-.02,17.95.18,26.92.6,18.07.85,36.11,2.59,54.01,5.19,5.05.74,10.1,1.54,15.13,2.42,5.03.88,11.75.82,16.81,1.51,1.16.16,1.38-1.53.17-1.86Z"/>
    <path class="cls-11" d="M432.81,833.63c-2.66-3.25-6.22-5.93-9.54-8.48-3.37-2.58-6.9-4.96-10.56-7.12-7.33-4.32-15.18-7.78-23.31-10.28-2.26-.7-4.55-1.32-6.85-1.86-2.31-.54-4.84-1.31-7.23-1.25-.95.02-1.06,1.28-.22,1.6,1.93.72,4.1.93,6.1,1.38,2.04.46,4.06.99,6.06,1.57,4.06,1.18,8.06,2.6,11.95,4.26,7.68,3.28,14.99,7.46,21.72,12.4,3.81,2.81,7.19,6.12,10.94,8.99.75.57,1.46-.59.94-1.22Z"/>
    <path class="cls-1" d="M529.66,883c-4.46-6.83-8.31-14.08-11.41-21.63-3.08-7.51-5.36-15.25-7.23-23.15-.2-.83-1.4-.47-1.26.35,2.67,16.12,9.34,31.76,18.24,45.4.67,1.03,2.33.07,1.66-.97Z"/>
    <path class="cls-5" d="M698.18,515.53c-.8-1.4-1.78-2.71-2.87-3.9-5.19-5.66-12.53-8.28-19.24-11.61-12.21-6.06-21.78-16.48-27.04-29.05-2.93-7.01-4.44-14.56-4.32-22.16.02-1.24-1.89-1.24-1.92,0-.24,12.08,3.56,24.12,10.43,34.04,3.36,4.86,7.42,9.22,12.08,12.85,5.33,4.16,11.35,6.77,17.39,9.72,6.3,3.07,12.98,7.34,15.15,14.39-1.89,1.78-4.19,3.01-6.67,3.76-1.26.38-.73,2.33.54,1.97,1.7-.48,3.35-1.2,4.82-2.18.96-.64,3.42-2.1,3.36-3.4-.07-1.43-1.02-3.21-1.71-4.43Z"/>
    <path class="cls-5" d="M632.32,445.06c-3.57,16.23-14.56,29.4-26.14,40.75-6.21,6.08-12.7,11.87-18.78,18.09-3,3.07-5.89,6.24-8.58,9.58-2.51,3.12-5.51,6.54-6.78,10.4-1.13,3.41-.03,8.3,4,9.16,3.26.7,6.64-2.96,4.88-6.05-.63-1.11-2.27-.13-1.7.99.66,1.29-.71,2.8-1.97,3.03-1.61.29-2.88-1.28-3.35-2.63-1.29-3.73,1.84-7.55,3.9-10.37,4.61-6.34,10.09-12,15.71-17.44,10.79-10.46,22.39-20.33,30.8-32.93,4.52-6.77,7.93-14.16,9.36-22.2.16-.88-1.16-1.27-1.35-.37Z"/>
  </g>
  <path class="cls-7" d="M615.06,502c-3.31-1.86-7.79.02-8.52,3.8-.39,2.03.36,4.07,2.05,5.28,1.61,1.14,3.42,1.17,5.17.38.05-.02.08-.05.13-.08.31-.09.62-.2.9-.35,3.42-1.81,3.71-7.09.27-9.03Z"/>
  <path class="cls-7" d="M664.1,502.72c-3.4-.31-6.36,3.08-4.83,6.3.22,1.79,1.52,3.49,3.26,4.03,2.74.86,5.85-.97,6.43-3.78.65-3.15-1.67-6.25-4.86-6.55Z"/>
  <path class="cls-4" d="M637.8,525.61c-.38-.14-.73-.49-1.08-.69-.45-.26-.94-.5-1.41-.71-1.07-.48-2.11-.8-3.27-.93-1.82-.2-2.52,2.66-.93,3.44.96.47,1.93.74,2.98.9.48.07.97.12,1.46.17.52.05,1.15-.07,1.64.04,1.46.33,2-1.72.61-2.22Z"/>
  <path class="cls-3" d="M619.44,540.01s26.41,0,28.5.7c2.09.7-8.34,11.12-14.6,10.43-6.26-.7-13.9-11.12-13.9-11.12Z"/>
</svg>