<?xml version="1.0" encoding="UTF-8"?>
<svg id="Layer_1" data-name="Layer 1" xmlns="http://www.w3.org/2000/svg" viewBox="0 0 1000 1000">
  <defs>
    <style>
      .cls-1 {
        fill: none;
        stroke: #000;
        stroke-linejoin: round;
        stroke-width: 4.57px;
      }

      .cls-2 {
        fill: #fff;
        fill-rule: evenodd;
      }
    </style>
  </defs>
  <path class="cls-2" d="M194.98,686.95c-12.8,4.92-27.45,20.59-43.02,21.51-15.57.92-43.13-9.01-50.4-15.98-7.27-6.97,5.12-15.06,6.76-25.81,1.64-10.76,4.81-27.25,3.07-38.72-1.74-11.47-10.24-18.95-13.52-30.12-3.28-11.17-.82-21.82-6.15-36.88-5.33-15.06-23.87-43.02-25.81-53.47-1.95-10.45,14.03-2.77,14.14-9.22.1-6.45-12.7-15.47-13.52-29.5-.82-14.03-.1-40.98,8.61-54.7,8.71-13.73,26.12-19.57,43.64-27.66,17.52-8.09,44.56-15.16,61.46-20.9,16.9-5.74,29.3-4,39.95-13.52,10.65-9.53,13.11-30.94,23.97-43.64,10.86-12.7,28.27-20.59,41.18-32.58,12.91-11.99,25.4-32.47,36.26-39.34,10.86-6.86,19.98-4.41,28.89-1.84,8.91,2.56,18.03,15.16,24.58,17.21,6.56,2.05,9.73,1.43,14.75-4.92,5.02-6.35,5.53-24.07,15.37-33.19,9.83-9.12,23.25-18.85,43.64-21.51,20.38-2.66,63.61,2.15,78.67,5.53,15.06,3.38,13.42,5.53,11.68,14.75-1.74,9.22-21.51,30.73-22.13,40.57-.62,9.83,8.91,11.68,18.44,18.44,9.53,6.76,27.56,14.85,38.72,22.13,11.17,7.27,20.28,18.85,28.27,21.51,7.99,2.66,14.44,1.74,19.67-5.53,5.22-7.27,9.53-23.77,11.68-38.11,2.15-14.34-.92-31.65,1.23-47.94,2.15-16.29,6.97-43.13,11.68-49.79,4.71-6.66,10.86-1.33,16.59,9.83,5.74,11.17,12.29,47.33,17.82,57.16,5.53,9.83,10.04-1.64,15.37,1.84,5.33,3.48,13.62,11.06,16.59,19.05,2.97,7.99-3.07,15.06,1.23,28.89,4.3,13.83,12.8,40.67,24.59,54.09,11.78,13.42,35.65,15.26,46.1,26.43,10.45,11.17,8.4,28.38,16.6,40.57,8.2,12.19,20.69,18.85,32.58,32.57,11.88,13.73,31.35,31.86,38.72,49.79,7.38,17.93,7.68,33.5,5.53,57.77-2.15,24.28-10.96,67.3-18.44,87.89-7.48,20.59-18.13,19.26-26.43,35.65-8.3,16.39-18.75,47.43-23.36,62.69-4.61,15.26,2.87,22.02-4.3,28.89-7.17,6.86-26.63,6.35-38.72,12.29-12.09,5.94-21.82,21.2-33.81,23.36-11.99,2.15-28.27-10.45-38.11-10.45s-12.29,10.35-20.9,10.45c-8.6.1-19.05-5.02-30.73-9.83-11.68-4.81-31.65-10.65-39.34-19.05-7.68-8.4-2.15-22.43-6.76-31.35-4.61-8.91-14.75-13.42-20.9-22.13-6.15-8.71-9.63-23.77-15.98-30.12-6.35-6.35-15.06-10.24-22.13-7.99-7.07,2.25-14.65,20.9-20.28,21.51-5.63.61-7.48-8.71-13.52-17.82-6.04-9.12-11.68-27.76-22.74-36.88-11.06-9.12-29.4-13.93-43.64-17.82-14.24-3.89-24.58-7.27-41.79-5.53-17.21,1.74-43.02,9.63-61.46,15.98-18.44,6.35-38.72,15.57-49.17,22.13-10.45,6.56-3.99,14.65-13.52,17.21-9.53,2.56-30.73-2.87-43.64-1.84-12.91,1.02-21,3.07-33.8,7.99h0ZM194.98,686.95"/>
  <path class="cls-2" d="M694.06,854.74c1.33,10.04,12.91,39.85,19.67,52.24,6.76,12.39,13.22,19.87,20.9,22.13,7.68,2.25,18.85.51,25.2-8.61,6.35-9.12,11.47-34.93,12.91-46.1,1.44-11.17,2.36-18.85-4.3-20.9-6.66-2.05-25.2,9.73-35.65,8.6-10.45-1.13-20.59-14.14-27.04-15.37-6.45-1.23-13.01-2.05-11.68,7.99h0ZM694.06,854.74"/>
  <path class="cls-1" d="M230.04,662.56c-12.8,4.92-27.45,20.59-43.02,21.51-15.57.92-43.13-9.01-50.4-15.98-7.27-6.97,5.12-15.06,6.76-25.81,1.64-10.76,4.81-27.25,3.07-38.72-1.74-11.47-10.24-18.95-13.52-30.12-3.28-11.17-.82-21.82-6.15-36.88-5.33-15.06-23.87-43.02-25.81-53.47-1.95-10.45,14.03-2.77,14.14-9.22.1-6.45-12.7-15.47-13.52-29.5-.82-14.03-.1-40.98,8.61-54.7,8.71-13.73,26.12-19.57,43.64-27.66,17.52-8.09,44.56-15.16,61.46-20.9,16.9-5.74,29.3-4,39.95-13.52,10.65-9.53,13.11-30.94,23.97-43.64,10.86-12.7,28.27-20.59,41.18-32.58,12.91-11.99,25.4-32.47,36.26-39.34,10.86-6.86,19.98-4.41,28.89-1.84,8.91,2.56,18.03,15.16,24.58,17.21,6.56,2.05,9.73,1.43,14.75-4.92,5.02-6.35,5.53-24.07,15.37-33.19,9.83-9.12,23.25-18.85,43.64-21.51,20.38-2.66,63.61,2.15,78.67,5.53,15.06,3.38,13.42,5.53,11.68,14.75-1.74,9.22-21.51,30.73-22.13,40.57-.62,9.83,8.91,11.68,18.44,18.44,9.53,6.76,27.56,14.85,38.72,22.13,11.17,7.27,20.28,18.85,28.27,21.51,7.99,2.66,14.44,1.74,19.67-5.53,5.22-7.27,9.53-23.77,11.68-38.11,2.15-14.34-.92-31.65,1.23-47.94,2.15-16.29,6.97-43.13,11.68-49.79,4.71-6.66,10.86-1.33,16.59,9.83,5.74,11.17,12.29,47.33,17.82,57.16,5.53,9.83,10.04-1.64,15.37,1.84,5.33,3.48,13.62,11.06,16.59,19.05,2.97,7.99-3.07,15.06,1.23,28.89,4.3,13.83,12.8,40.67,24.59,54.09,11.78,13.42,35.65,15.26,46.1,26.43,10.45,11.17,8.4,28.38,16.6,40.57,8.2,12.19,20.69,18.85,32.58,32.57,11.88,13.73,31.35,31.86,38.72,49.79,7.38,17.93,7.68,33.5,5.53,57.77-2.15,24.28-10.96,67.3-18.44,87.89-7.48,20.59-18.13,19.26-26.43,35.65-8.3,16.39-18.75,47.43-23.36,62.69-4.61,15.26,2.87,22.02-4.3,28.89-7.17,6.86-26.63,6.35-38.72,12.29-12.09,5.94-21.82,21.2-33.81,23.36-11.99,2.15-28.27-10.45-38.11-10.45s-12.29,10.35-20.9,10.45c-8.6.1-19.05-5.02-30.73-9.83-11.68-4.81-31.65-10.65-39.34-19.05-7.68-8.4-2.15-22.43-6.76-31.35-4.61-8.91-14.75-13.42-20.9-22.13-6.15-8.71-9.63-23.77-15.98-30.12-6.35-6.35-15.06-10.24-22.13-7.99-7.07,2.25-14.65,20.9-20.28,21.51-5.63.61-7.48-8.71-13.52-17.82-6.04-9.12-11.68-27.76-22.74-36.88-11.06-9.12-29.4-13.93-43.64-17.82-14.24-3.89-24.58-7.27-41.79-5.53-17.21,1.74-43.02,9.63-61.46,15.98-18.44,6.35-38.72,15.57-49.17,22.13-10.45,6.56-3.99,14.65-13.52,17.21-9.53,2.56-30.73-2.87-43.64-1.84-12.91,1.02-21,3.07-33.8,7.99h0ZM230.04,662.56,729.11,830.35c1.33,10.04,12.91,39.85,19.67,52.24,6.76,12.39,13.22,19.87,20.9,22.13,7.68,2.25,18.85.51,25.2-8.61,6.35-9.12,11.47-34.93,12.91-46.1,1.44-11.17,2.36-18.85-4.3-20.9-6.66-2.05-25.2,9.73-35.65,8.6-10.45-1.13-20.59-14.14-27.04-15.37-6.45-1.23-13.01-2.05-11.68,7.99h0ZM729.11,830.35"/>
</svg>