<?xml version="1.0" encoding="UTF-8"?>
<svg id="Layer_1" data-name="Layer 1" xmlns="http://www.w3.org/2000/svg" viewBox="0 0 3000 2000">
  <defs>
    <style>
      .cls-1 {
        fill: #f79876;
      }

      .cls-2 {
        fill: #c0a969;
      }

      .cls-3 {
        fill: #dfa895;
      }

      .cls-4 {
        fill: #e3a189;
      }

      .cls-5 {
        fill: #2b273b;
      }

      .cls-6 {
        fill: #fece92;
      }

      .cls-7 {
        fill: #231f20;
      }

      .cls-8 {
        fill: #f79b7a;
      }

      .cls-9 {
        fill: #fff;
      }

      .cls-10 {
        fill: #978753;
      }

      .cls-11 {
        fill: #f4b48c;
      }

      .cls-12 {
        fill: #141221;
      }

      .cls-13 {
        fill: #ab3a26;
      }

      .cls-14 {
        fill: #c97b5e;
      }

      .cls-15 {
        fill: #e56146;
      }

      .cls-16 {
        fill: #373359;
      }

      .cls-17 {
        fill: #dcdbe9;
      }

      .cls-18 {
        fill: #5e2a17;
      }

      .cls-19 {
        fill: #f0e0d9;
      }

      .cls-20 {
        fill: #242424;
      }

      .cls-21 {
        fill: #fcdccd;
      }

      .cls-22 {
        fill: #d57552;
      }

      .cls-23 {
        fill: #8b4121;
      }

      .cls-24 {
        fill: #a44d2c;
      }

      .cls-25 {
        fill: #534f66;
      }

      .cls-26 {
        fill: #faac70;
      }

      .cls-27 {
        fill: #d96d43;
      }

      .cls-28 {
        fill: #e68765;
      }

      .cls-29 {
        fill: #c76e3e;
      }

      .cls-30 {
        fill: #9d492b;
      }

      .cls-31 {
        fill: #92472b;
      }

      .cls-32 {
        fill: #b14c2c;
      }

      .cls-33 {
        fill: #807a99;
      }

      .cls-34 {
        fill: #414042;
      }

      .cls-35 {
        fill: #d16135;
      }
    </style>
  </defs>
  <rect class="cls-9" width="3000" height="2000"/>
  <g>
    <path class="cls-20" d="M2765.94,1525c-10.34,38.72-26.04,75.08-49.85,107.13-7.63,10.3-15.88,19.72-24.65,28.42-.81.8-1.61,1.6-2.46,2.36-.11.17-.22.25-.37.34-1.69,1.65-3.41,3.25-5.13,4.81-1.72,1.6-3.49,3.17-5.25,4.69-1.65,1.39-3.3,2.79-4.95,4.18-.26.25-.51.46-.77.63-1.69,1.39-3.37,2.74-5.1,4.05-1.83,1.44-3.67,2.83-5.54,4.22-1.61,1.18-3.23,2.36-4.88,3.55-2.49,1.82-5.06,3.55-7.63,5.24-1.54,1.01-3.12,2.03-4.7,3.04-1.94,1.22-3.89,2.45-5.87,3.63-1.98,1.22-3.96,2.41-5.98,3.55-3.3,1.94-6.64,3.8-10.01,5.57-1.61.89-3.3,1.77-4.95,2.58-1.1.59-2.2,1.18-3.34,1.69-1.87.97-3.74,1.86-5.61,2.79-6.46,3.08-12.99,6-19.59,8.74-2.13.89-4.25,1.77-6.42,2.62-6.05,2.41-12.14,4.69-18.23,6.84-1.87.68-3.74,1.31-5.61,1.94-4.84,1.65-9.68,3.25-14.53,4.73-.92.3-1.83.55-2.75.84-1.58.51-3.15.97-4.73,1.44-2.2.68-4.4,1.31-6.6,1.94-1.43.42-2.86.8-4.26,1.18-.81.25-1.58.46-2.38.68-.44.13-.92.25-1.36.38-6.16,1.69-12.36,3.34-18.52,4.86-4.44,1.1-8.88,2.2-13.31,3.21-28.06,6.59-56.23,12.41-84.48,17.61-3.26.59-6.49,1.14-9.76,1.73-2.86.51-5.72,1.01-8.58,1.48-1.5.25-3.04.51-4.55.76-.11,0-.18.04-.29.04-6.16,1.06-12.29,2.07-18.49,3.04-1.61.3-3.26.55-4.91.8-15.48,2.45-31,4.69-46.51,6.71-7.08.93-14.2,1.82-21.27,2.66-2.64.3-5.25.63-7.89.93-7.01.89-14.05,1.69-21.09,2.41l-1.32.13c-1.36.17-2.68.34-4.04.46-4.66.51-9.32.97-13.94,1.39-7.37.76-14.71,1.48-22.05,2.11-10.89.97-21.75,1.9-32.65,2.74-.59.04-1.17.08-1.76.13-2.46.21-4.88.38-7.34.55-5.72.42-11.41.84-17.13,1.18-212.13,14.23-425.32,3.88-637.85,5.95-149.04,1.44-298.18-.21-446.96-11.57-68.56-5.24-136.82-11.99-205.01-21.87-58.25-8.44-122.48-7.14-176-38.04-38-21.91-67.71-59.66-89.72-101.51-.4-.76-.77-1.48-1.17-2.24-3.01-5.78-5.98-11.65-8.91-17.69-.99-2.03-1.98-4.05-2.93-6.08-1.94-4.05-3.85-8.19-5.72-12.37-.95-2.07-1.87-4.18-2.79-6.29-.92-2.07-1.83-4.22-2.71-6.33-1.14-2.62-2.24-5.24-3.26-7.85-1.36-3.34-2.68-6.63-3.93-9.97-6.35-16.51-11.81-33.44-15.99-50.46-.44-1.73-.84-3.5-1.25-5.24-1.65-7.09-3.04-14.19-4.14-21.32-.26-1.65-.51-3.29-.73-4.94-.15-.84-.26-1.69-.33-2.53-.18-1.35-.37-2.66-.51-4.01-.15-1.35-.29-2.66-.44-4.01-.48-4.9-.95-9.8-1.36-14.74-.33-3.93-.66-7.85-.95-11.78-.44-5.91-.81-11.91-1.17-17.86-.59-9.92-1.03-19.85-1.43-29.81-.4-9.97-.66-19.97-.88-29.98-.29-12.88-.48-25.76-.59-38.64-.07-7.14-.11-14.27-.15-21.41-.07-8.91-.11-17.82-.15-26.73-.07-16.05-.15-32.01-.33-47.93h323.53l635.02-242.2,78.24-29.85,722.62,342.15,5.65,2.66,42.48,20.14,16.91,7.98,9.79,4.64,8.36,3.97,9.68,4.56,8.66,4.1,76.55,36.27h.04l33.01,15.62,10.45,4.94,7.59,3.59,10.75,5.11,98.93,46.83.07.04,122.41,57.98Z"/>
    <path class="cls-2" d="M2799.04,834.74c-.21,44.59-1.48,89.1-3.12,133.64-.21,6.08-.42,12.16-.68,18.24v.38c-.63,16.38-1.31,32.81-1.94,49.19l-3.8,5.03-2.96,3.93-50.59,67.05-380.2-118.48-4.01-1.27-16.81-5.24-4.31-1.35-289.16-90.11-40.45-12.58-188.41-58.73,4.9-33.53,86.6-590.98c177.18,1.82,354.23,5.66,531.11,12.88,112.87,4.6,203.82,24.83,270.11,122.33,1.27,1.86,2.49,3.72,3.72,5.62,2.03,3.08,4.01,6.21,5.91,9.37,51.64,84.58,70.73,192.38,78.41,296.34.51,7.14,1.01,14.23,1.43,21.32,1.14,19,1.94,37.79,2.53,56.29.25,7.14.46,14.23.63,21.24.3,11.02.51,21.87.72,32.51.34,18.96.46,37.96.34,56.92Z"/>
    <path class="cls-9" d="M1904.12,199.93v719.22l-147.79,317.32H582.98c-1.01,0-1.98-.34-2.79-.97l-29.85-24.11c-1.06-.84-1.65-2.07-1.65-3.42V204.91c6.25-.08,12.46-.13,18.62-.13,4.18,0,8.36,0,12.54-.04h4.22c297.1-.76,594.66-4.73,892.13-5.87,142.68-.51,285.32-.42,427.91,1.06Z"/>
    <g>
      <g>
        <path class="cls-25" d="M732.38,1283.98c-.42,0-.85-.13-1.21-.38l-61.23-42.86c-.56-.39-.9-1.04-.9-1.73v-334.83c0-1.17.94-2.11,2.11-2.11s2.11.94,2.11,2.11v333.73l57,39.9v-337.66c0-1.17.94-2.11,2.11-2.11s2.11.94,2.11,2.11v341.71c0,.79-.44,1.51-1.14,1.87-.31.16-.64.24-.97.24Z"/>
        <path class="cls-25" d="M1227.59,1283.98c-.42,0-.85-.13-1.21-.38l-61.23-42.86c-.56-.39-.9-1.04-.9-1.73v-334.83c0-1.17.94-2.11,2.11-2.11s2.11.94,2.11,2.11v333.73l57,39.9v-337.66c0-1.17.94-2.11,2.11-2.11s2.11.94,2.11,2.11v341.71c0,.79-.44,1.51-1.14,1.87-.31.16-.64.24-.97.24Z"/>
        <path class="cls-11" d="M1185.25,887.5l-518.16,3.04c-3.59,0-6.04-.35-6.47,3.21l-.4,3.32c-.2,1.67.2,3.35,1.13,4.75l62.97,37.96c1.31,1.98,3.53,3.18,5.91,3.18h378.09c1.53,0,3.01-.49,4.23-1.4l10.7-7.97c1.22-.91,2.71-1.4,4.23-1.4h78.87c3.92,0,7.09-3.17,7.09-7.09l-21.11-30.5c0-3.92-3.17-7.09-7.09-7.09Z"/>
        <path class="cls-14" d="M1110.29,935.64h-373.99c-2.94,0-5.83-.79-8.37-2.27l-62.77-36.75c-1.01-.59-1.34-1.88-.75-2.89.59-1.01,1.88-1.34,2.89-.75l62.77,36.75c1.89,1.11,4.05,1.69,6.23,1.69h373.99c1.17,0,2.11.94,2.11,2.11s-.94,2.11-2.11,2.11Z"/>
        <path class="cls-2" d="M1160.66,708.87c-2.91-15.54-8.4-30.49-16.81-43.87-25.25-40.24-70.81-60.47-108.86-86.01-19.3-12.96-38.21-27.78-51.22-47.38-15.12-22.8-13.72-52.32-8.91-78.24,1.82-9.92,3.88-22-3.84-28.46-6.5-5.49-16.3-3.42-24.45-.89-14.53,4.48-29.22,9.58-41.3,18.83-12.03,9.29-21.24,23.48-20.86,38.72.34,11.87,6.25,22.84,8.15,34.58,3.72,23.27-9.25,46.62-26.98,62.11-17.78,15.54-39.86,24.91-61.1,35.17-21.24,10.26-42.61,22.17-56.79,41-25.93,34.33-21.75,82.68-9.84,124.02,10.64,36.9,26.43,72.33,46.74,104.93,1.31,2.15,2.7,4.31,4.18,6.42,4.39,6.33,9.5,12.16,16.21,15.79,9.08,4.9,19.89,5.11,30.19,5.19,70.35.51,140.69,1.01,211,1.52,16.93.13,34.92,0,49.28-9.04,6.29-3.97,11.4-9.33,15.75-15.37,4.31-5.91,7.94-12.41,11.36-18.83,16.89-31.67,32.09-64.82,38.17-100.16,3.38-19.76,3.67-40.41-.08-60.04ZM823.03,729.01c2.24-10.85,6.71-21.62,14.57-29.47,7.64-7.6,17.86-11.99,27.87-15.96,16.47-6.54,34.37-18.03,53.16-19.09.76-.04,1.52-.08,2.32-.08,7.18-.08,13.51,1.9,19.47,4.9,1.94.97,3.84,2.07,5.74,3.25h.04c7.52,4.64,14.53,10.47,22.04,15.12,16.93,10.51,33.53,21.66,49.19,34.03,2.79,2.2,5.62,4.52,7.35,7.64,2.45,4.52,2.15,10.13.42,14.95-6.16,16.93-21.24,36.86-35.55,47.5-14.74,10.98-33.36,15.12-51.51,17.73-19.21,2.79-38.64,4.14-58.06,5.07-8.99.42-18.33.72-26.6-2.87-8.7-3.8-15.16-11.44-19.97-19.68-11.02-18.79-14.82-41.68-10.47-63.04Z"/>
      </g>
      <path class="cls-3" d="M950.72,430.55c-.24-.05-.49-.09-.73-.13-3.98-.52-7.97.72-11.69,2.2-11.62,4.6-22.24,11.7-30.93,20.67-4.29,4.43-9.2,13.02,1.32,11.07,16.08-2.99,29.96-12.73,43.28-22.22,2.08-1.48,4.37-3.33,4.48-5.89.12-2.94-2.79-5.07-5.73-5.7Z"/>
      <path class="cls-3" d="M963.17,446.17c-15.84,21.4-40.93,33.24-67.49,32.21-2.72-.11-2.71,4.12,0,4.22,28.16,1.1,54.4-11.69,71.14-34.3,1.62-2.19-2.05-4.29-3.65-2.13Z"/>
      <path class="cls-3" d="M946.16,672.56c-1.9-1.18-3.8-2.28-5.74-3.25-.08-.17-.17-.3-.25-.46-6.46-10.94-23.14-15.54-34.29-19.59-13.77-5.02-27.91-8.15-42.56-5.66-2.66.42-3.8-3.63-1.1-4.1,13.43-2.24,26.22-.42,39.18,3.72,10.85,3.5,23.65,7.81,33.27,14.1,6.08,4.01,9.16,9.25,11.49,15.24Z"/>
    </g>
    <rect class="cls-17" x="544.47" y="204.75" width="4.22" height="384.98"/>
    <path class="cls-17" d="M584.08,204.75v1028.05c0,1.14-.97,2.11-2.11,2.11s-2.11-.97-2.11-2.11V204.75h4.22Z"/>
    <path class="cls-19" d="M2240.13,1634.45H603.34c-23.69-47.33-46.29-104.08-51.58-159.1-4.51-46.91-5.71-94.88-6.13-142.81h728.14c3.77,0,7.51.59,11.14,1.77,52.56,17.19,740.69,227.21,844.16,261.08,12.94,4.26,127.36,39.06,111.05,39.06Z"/>
    <g>
      <g>
        <path class="cls-25" d="M2600.84,342.23v452.1c0,4.26-3.76,7.52-7.9,6.8l-47.71-8.19-4.22-.72-53.46-9.16-4.22-.72-55.86-9.59-4.22-.72-55.53-9.54-2.11-.34-2.11-.38-53.08-9.08-2.45-.42-4.22-.76-51.26-8.78-4.22-.72-55.53-9.5-4.22-.76-55.48-9.5-4.22-.72-55.53-9.54-4.22-.72-55.48-9.5-4.22-.72-42.31-7.26c-3.97-.68-6.84-4.14-6.84-8.19v-424.66c0-4.98,4.26-8.87,9.12-8.28l40.03,5.28,4.22.59,55.48,7.3,4.22.59,55.53,7.3,4.22.59,55.48,7.3,4.22.59,55.53,7.3,4.22.59,51.26,6.76,4.22.55,55.53,7.35,4.22.59,55.53,7.3,4.22.59,55.86,7.39,4.22.55,53.46,7.05,4.22.55,49.7,6.59c3.38.42,5.91,3.38,5.91,6.84Z"/>
        <g>
          <polygon class="cls-5" points="2600.84 412.92 2600.84 417.18 1960.2 323.48 1960.2 319.22 2600.84 412.92"/>
          <polygon class="cls-5" points="2600.84 726.23 2600.84 730.53 1960.2 625.48 1960.2 621.17 2600.84 726.23"/>
          <polygon class="cls-5" points="2600.84 646.21 2600.84 650.43 1960.2 551.88 1960.2 547.61 2600.84 646.21"/>
          <polygon class="cls-5" points="2600.84 566.7 2600.84 570.96 1960.2 477.27 1960.2 473 2600.84 566.7"/>
          <polygon class="cls-5" points="2600.84 486.34 2600.84 490.61 1960.2 396.91 1960.2 392.65 2600.84 486.34"/>
        </g>
        <g>
          <polygon class="cls-5" points="2013.57 258.54 2013.57 701.78 2009.35 701.06 2009.35 257.95 2013.57 258.54"/>
          <polygon class="cls-5" points="2073.28 266.44 2073.28 712 2069.05 711.28 2069.05 265.85 2073.28 266.44"/>
          <polygon class="cls-5" points="2133.02 274.33 2133.02 722.26 2128.8 721.54 2128.8 273.74 2133.02 274.33"/>
          <polygon class="cls-5" points="2192.73 282.23 2192.73 732.52 2188.51 731.76 2188.51 281.64 2192.73 282.23"/>
          <polygon class="cls-5" points="2252.48 290.12 2252.48 742.74 2248.26 742.02 2248.26 289.53 2252.48 290.12"/>
          <polygon class="cls-5" points="2307.96 297.43 2307.96 752.28 2303.74 751.52 2303.74 296.88 2307.96 297.43"/>
          <polygon class="cls-5" points="2367.71 305.37 2367.71 762.5 2363.49 761.78 2363.49 304.78 2367.71 305.37"/>
          <polygon class="cls-5" points="2427.46 313.26 2427.46 772.76 2423.24 772.04 2423.24 312.67 2427.46 313.26"/>
          <polygon class="cls-5" points="2487.55 321.2 2487.55 783.06 2483.32 782.34 2483.32 320.65 2487.55 321.2"/>
          <polygon class="cls-5" points="2545.23 328.8 2545.23 792.94 2541 792.22 2541 328.25 2545.23 328.8"/>
        </g>
      </g>
      <path class="cls-33" d="M2201.11,599.89v53.63c0,1.47,1.06,2.73,2.51,2.98l32.27,5.51c1.84.31,3.53-1.11,3.53-2.98v-53.73c0-1.47-1.07-2.73-2.52-2.98l-32.27-5.41c-1.84-.31-3.52,1.11-3.52,2.98Z"/>
      <path class="cls-33" d="M2375.81,468.43v53.63c0,1.47,1.06,2.73,2.51,2.98l32.27,5.51c1.84.31,3.53-1.11,3.53-2.98v-53.73c0-1.47-1.07-2.73-2.52-2.98l-32.27-5.41c-1.84-.31-3.52,1.11-3.52,2.98Z"/>
      <path class="cls-33" d="M2020.42,339.95v53.63c0,1.47,1.06,2.73,2.51,2.98l32.27,5.51c1.84.31,3.53-1.11,3.53-2.98v-53.73c0-1.47-1.07-2.73-2.52-2.98l-32.27-5.41c-1.84-.31-3.52,1.11-3.52,2.98Z"/>
      <path class="cls-33" d="M2435.98,634.69v53.63c0,1.47,1.06,2.73,2.51,2.98l32.27,5.51c1.84.31,3.53-1.11,3.53-2.98v-53.73c0-1.47-1.07-2.73-2.52-2.98l-32.27-5.41c-1.84-.31-3.52,1.11-3.52,2.98Z"/>
      <path class="cls-33" d="M2375.81,702.95v53.63c0,1.47,1.06,2.73,2.51,2.98l32.27,5.51c1.84.31,3.53-1.11,3.53-2.98v-53.73c0-1.47-1.07-2.73-2.52-2.98l-32.27-5.41c-1.84-.31-3.52,1.11-3.52,2.98Z"/>
      <path class="cls-33" d="M2496.15,643.92v53.63c0,1.47,1.06,2.73,2.51,2.98l32.27,5.51c1.84.31,3.53-1.11,3.53-2.98v-53.73c0-1.47-1.07-2.73-2.52-2.98l-32.27-5.41c-1.84-.31-3.52,1.11-3.52,2.98Z"/>
      <path class="cls-33" d="M2140.93,513.14v53.63c0,1.47,1.06,2.73,2.51,2.98l32.27,5.51c1.84.31,3.53-1.11,3.53-2.98v-53.73c0-1.47-1.07-2.73-2.52-2.98l-32.27-5.41c-1.84-.31-3.52,1.11-3.52,2.98Z"/>
      <path class="cls-33" d="M2081.29,504.17v53.63c0,1.47,1.06,2.73,2.51,2.98l32.27,5.51c1.84.31,3.53-1.11,3.53-2.98v-53.73c0-1.47-1.07-2.73-2.52-2.98l-32.27-5.41c-1.84-.31-3.52,1.11-3.52,2.98Z"/>
    </g>
    <rect class="cls-17" x="544.47" y="544.16" width="4.22" height="689.91"/>
    <g>
      <path class="cls-16" d="M1876.79,635.94c-32.51,2.28-45.52,30.02-51.89,58.02-2.74,12.12-9.97,21.62-17.06,31.29-1.22-2.36-2.41-4.77-3.97-6.92-3.38-4.64-7.35-6.88-12.96-8.07-4.39-.97-9.58-1.01-13.51-3.46-4.01-2.49-6.17-7.01-9.12-10.51-3.08-3.76-6.42-6.76-11.49-7.09-.13-.04-.3-.04-.42-.04-12.24-.46-21.07,14.53-27.15,23.14-6.5,9.25-11.7,18.87-9.63,29.22.59,2.66,1.6,5.36,3.25,8.11,8.95,15.2,26.77,22.38,37.12,36.57,8.57,11.74,15.24,22.51,30.4,25.84,12.41,2.74,31.29,4.31,42.82-2.2,10.35-5.87,13.72-18.2,15.12-29.22,2.66-21.37,1.73-43.45.04-64.86-1.01-13.13-1.65-25.55,1.27-38.51,2.2-9.92,5.11-19.04,4.86-29.26,6.5-4.43,14.02-7.26,22.34-7.81,2.7-.21,2.7-4.43,0-4.22Z"/>
      <path class="cls-12" d="M1813.93,736.59c-.73-.83-1.65-.8-2.37-.37-.78-2.55-1.65-5.09-2.68-7.6-1.02-2.48-5.11-1.39-4.07,1.12,5.86,14.21,7.71,29.07,5.26,44.26-.43,2.66,3.64,3.8,4.07,1.12,1.8-11.16,1.48-22.13-.96-32.85,14.38,17.15,23.35,37.65,25.95,59.99.31,2.67,4.54,2.7,4.22,0-2.88-24.71-12.87-47.1-29.41-65.68Z"/>
      <path class="cls-16" d="M1908.06,624.44s-44.85,6.36-58.93,23.54c-14.07,17.18-23.73,56.94-20.16,86.32,4.62,38.06,15.18,75.16,15.18,75.16h34.68l7.42-16.57,9.6-2.1,12.22-166.35Z"/>
      <g>
        <path class="cls-31" d="M1987.26,571.39c-2.44-5.98,2.29-9.51,1.73-15.8-.46-5.06-4.3-8.16-6.54-12.44-1.24-3.41-2.51-6.87-3.79-10.33.67-3.43,1.46-6.85,2.29-10.23.34-2.22.68-4.36.64-6.56-.12-10.96-6.06-21.34-14.24-28.33-15.87-13.54-45.14-19.95-64.54-9.5-.61.26-1.18.61-1.75.95-1.05-.19-2.13-.38-3.23-.53-18.46-2.52-40.88,1.83-44.65,22.71-.94,5.23-1.05,10.68-.43,15.96.54,4.43,2.53,7.97-.38,12.29-.88,1.3-3.28,2.6-4.32,3.72-2.57,2.77-4.36,5.79-4.92,9.52-.69,4.61,2.55,8.44,1.47,12.44-.88,3.46-3.93,4.21-5.79,7.19-2.14,3.38-2.81,8.89-2.02,12.74,1.07,5.52,3.71,7.32,7.7,7.85,1.18.15,2.48.23,3.92.23,8.63,0,6.65-.16,11.87,3.87,1.7,1.28,3.06,2.59,5.13,3.35,4.47,1.62,8.07-.54,12.44-.75.25.01.55-.01.8,0,7.78.03,13.05,4.66,18.35,1.59,4.05-.48,7.74-.01,11.63.68,1.3.25,1.94.75,3.63.81,2.02.12,3.93-.57,5.86-1.05,4.68-1.12,8.13-1.64,12.04-.52,1.54.43,3.15,1.12,4.91,2.11,2.82,1.6,5.51,3.45,8.54,4.44.37.15.75.26,1.17.32.92.27,1.88.41,2.89.42.63,0,1.23-.01,1.82-.1,1.15-.1,2.26-.37,3.47-.77.65-.22,1.25-.39,1.77-.57,2.59-.95,3.56-1.61,5.06-1.94,1.07-.28,2.47-.36,4.96-.22,1.18.07,2.61.2,4.38.34,8.67.72,18.52-3.44,20.82-13.03,1.11-4.54-1.08-6.87-2.7-10.86Z"/>
        <path class="cls-18" d="M1875.2,575.97c-1.52-3.68-3.54-7.48-4.24-11.42-.75-4.49.21-9.25.18-13.78.04-7.82-1.42-14.68,1.04-22.06,0-.04,0-.08.05-.17.21-.62.41-1.29.71-1.95.54-1.28-.2-2.25-1.24-2.57-.05-.6-.23-1.2-.23-1.83-.04-.09-.07-.17-.07-.26,1.59-1.13,3.51-2.08,5.87-2.78,2.58-.78,1.73-4.93-.9-4.11-9.3,2.75-14.76,12.24-17.28,21.19-1.45,5.24-.99,10.35-1.59,15.6-1.03,8.95-7.92,12.48-11.41,19.89-1.69,3.58-2.22,7.57-1.6,11.33,1.18.15,2.48.23,3.92.23,8.63,0,6.65-.16,11.87,3.87,1.7,1.28,3.06,2.59,5.13,3.35,4.47,1.62,8.07-.54,12.44-.75.25.01.55-.01.8,0-.01-4.78-1.91-9.88-3.46-13.78Z"/>
        <path class="cls-8" d="M1962.27,626.65s-6.54,19.11-16.46,20.47c-49.76,6.84-38.71-19.72-38.71-19.72,0,0-.02,1.77-.22-7.36-.18-9.21-.16-19.32-.2-24,.04-1.67.04-2.65.04-2.65l36.2-31.32,19.34,64.58Z"/>
        <path class="cls-27" d="M1922.58,592.45c-5.61-.26-10.79,1.4-15.89,3.59.03,4.68.01,14.79.2,24,6.77-2.2,12.99-6.59,17.18-12.11,3.75-5,7.58-15.05-1.48-15.48Z"/>
        <path class="cls-8" d="M1953.19,570.32c-.93,2.91-1.99,5.72-3.21,8.48-5.63,12.32-15.6,20.78-27.29,25.3-10.69,4.19-31.32,11.86-41.08,3-2.85-2.58-4.76-6.16-6.53-9.73-.53-1.05-1.06-2.13-1.59-3.18-6.19-12.67-7.2-26.48-6.91-41.44.12-4.9.16-9.85.35-14.61.06-1.81.13-3.63.23-5.36.13-2.19.3-4.3.59-6.39.08-.71.17-1.43.29-2.1,2.14-14.76,8.09-26.81,25.78-31.98,15.49-4.5,53.5-3.41,59.1,18.53,4.78,18.72,6.12,40.46.27,59.49Z"/>
        <path class="cls-12" d="M1874.64,541.59c.3-.45.67-.84,1.15-1.12,4.23-2.51,5.31,6.04,5.12,8.36-.16,1.94-1.22,4.22-3.17,4.31-4.8.23-4.94-8.76-3.1-11.55Z"/>
        <path class="cls-12" d="M1907.73,544.82c.31-.47.7-.87,1.19-1.16,4.4-2.61,5.52,6.28,5.32,8.69-.17,2.02-1.27,4.38-3.29,4.48-4.99.24-5.13-9.11-3.22-12.01Z"/>
        <path class="cls-27" d="M1888.36,569.98c-4.83-2.51-2.95-7.62-1.88-11.86.88-3.45,1.92-6.86,3.05-10.23.86-2.58-3.14-3.94-4-1.36-2.56,7.63-9.29,21.88.49,26.96,2.39,1.24,4.75-2.26,2.34-3.51Z"/>
        <path class="cls-31" d="M1923.36,533.33c-.2-.38-.46-.72-.73-1.04-2.2-2.64-5.21-4.42-8.4-5.35-3.19-.93-6.56-1.05-9.88-.69-1.23.13-2.5.35-3.55,1.07-2.31,1.58-2.27,5.54-.14,7.16,1.08.83,2.45,1.11,3.78,1.22,3.83.33,7.73-.55,11.54.02,1.89.29,3.75.93,5.67.85.56-.02,1.17-.13,1.59-.55.48-.49.59-1.3.42-1.98-.07-.26-.17-.5-.29-.73Z"/>
        <path class="cls-31" d="M1880.88,533.33c-1.18.69-2.59.82-3.94.78-3.29-.11-6.53-1.1-9.78-1.34.13-2.19.3-4.3.59-6.39.08-.71.17-1.43.29-2.1.08,0,.13-.03.21-.03,3.29-.57,6.66-.29,9.91.46,1.17.28,2.41.65,3.38,1.47,2.09,1.86,1.6,5.8-.67,7.15Z"/>
        <path class="cls-9" d="M1881.88,577.81c-.66-1.39.64-2.89,2.12-2.51,2.6.67,6.24.61,8.4.74,2.41.14,7.78.08,11.43-.62,1.52-.29,2.7,1.33,1.92,2.68-2.02,3.5-6.02,8.42-12.46,8.21-6.37-.2-9.79-5.05-11.42-8.5Z"/>
        <path class="cls-31" d="M1976.88,573.82c-.92,4.81-3.94,8.82-6.88,12.71-1.74,2.31-3.58,4.7-6,6.29-.22.16-.48.27-.7.42-1.18.65-2.47,1.04-3.72,1.47-.99.32-1.98.64-2.9,1.14-.66.38-1.32.81-1.93,1.24-1.41.97-2.78,1.95-4.39,2.66-.04,0-.04.04-.09.04-1.34.56-2.76.85-4.2.94-3.31.19-6.77-.69-9.94-1.51-2.54-.66-4.44-2.97-5.35-5.47-.29-.82-.5-1.64-.62-2.49-.41-3.03.2-6.21,1.82-8.73,1.96-3.1,5.27-5.4,6.32-8.93,1.11-3.78-.65-7.65-2-11.33-2.87-7.95-3.72-16.63-2.46-25.02.55-3.56,1.44-7.28.29-10.68-1.18-3.62-4.55-6.15-8.06-7.58-3.51-1.43-7.32-2.04-10.94-3.18-4.61-1.5-8.91-3.91-12.61-7.04-1.49-1.31-2.93-2.75-4.69-3.7-1.52-.81-3.23-1.2-4.95-1.39-3.03-.3-5.97.03-8.81.88-1.81.53-3.59,1.27-5.29,2.18-5.01,2.54-9.6,6.41-13.64,10.41-.9.92-1.89,1.88-3.12,2.02-4.94.6.31-5.23,1.18-6.36,1.47-1.9,2.93-3.76,4.39-5.62,1.28-1.62,2.56-3.28,4-4.8,4.24-4.53,9.55-7.73,15.27-10.14,2.78-1.23,5.67-2.2,8.56-3.09.34-.11.73-.21,1.07-.27,13.43-3.91,27.55-5.32,41.37-3.66,11.85,1.42,23.96,5.47,31.76,14.56,2.73,3.21,4.88,6.97,5.52,11.15,1.56,10.2-6.04,19.36-9.04,29.29-1.11,3.83-1.39,8.51,1.41,11.33,1.56,1.53,3.76,2.21,5.37,3.7,2.05,1.9,2.81,4.78,3.37,7.52.76,3.68,1.34,7.44.62,11.08Z"/>
        <path class="cls-18" d="M1902.82,478.19c-2.28,3.46-4,7.55-6.3,10.67-.37.53-.78,1.01-1.19,1.45-4.47,4.86-9.04,9.11-11.24,14.23-1.81.53-3.59,1.27-5.29,2.18.75-4.78,3-9.26,6.78-13.22.41-.44.86-.88,1.3-1.28,2.82-2.67,5.88-4.98,8.14-8.28,1.11-1.67,1.94-3.52,2.81-5.33,1.09.15,2.18.34,3.23.53.57-.35,1.14-.69,1.75-.95Z"/>
        <path class="cls-18" d="M1953.23,575.44c-1.79,5.22-5.79,5.75-6.45,12.65-.34,3.58.94,7.08,2.73,10.35.23.44.5.92.77,1.36-1.34.56-2.76.85-4.2.94-.46-.87-.87-1.74-1.28-2.61-1.64-3.73-2.59-7.72-1.96-11.96.41-2.64,1.58-4.56,2.69-6.91,1.69-3.58,2.43-2.44,2.8-7.28.36-4.63-.31-3.32-.96-6.7-1.71-8.98.05-16.7.16-25.79.09-7.31-1.09-13.05-5.31-19.05-1.91-2.69-3.76-5.13-5.32-8.01-1.3-2.4,2.49-4.3,3.79-1.89,3.51,6.47,8.89,11.31,10.44,18.76,1.76,8.18-.29,16.48-.73,24.66-.39,7.42,5.33,14.36,2.84,21.49Z"/>
        <path class="cls-18" d="M1967.69,573.41c-1.92,5.39-4.63,6.03-4.71,12.41-.02,2.45.31,4.8,1.03,7,.17.73.42,1.42.76,2.12-2.49-.15-3.89-.06-4.96.22-.12-.13-.15-.26-.23-.44-1.13-2.39-1.91-4.89-2.23-7.32-.42-2.9.22-5.23,1.56-7.82,1.01-2.01,2.88-3.6,3.8-5.61,3.42-7.88-.94-14.27-4.21-20.42-1.3-2.4,2.49-4.29,3.75-1.89,3.51,6.55,8.19,14.02,5.45,21.77Z"/>
      </g>
      <path class="cls-9" d="M1960.4,621.55s-36.16,22.01-46.32,20.45c-10.16-1.56-6.98-14.59-6.98-14.59,0,0-45.41,67.74-47.82,113.3-2.41,45.56,21.64,63.58,21.64,63.58l59.8,12.86,10.81-100.61,8.86-94.99Z"/>
      <path class="cls-16" d="M1960.4,621.55s-6.76,26.29-15.16,56.61c-5.39,19.45-12.43,43.56-15.06,63.65-4.97,38.07-3.15,80.08-3.15,80.08l112.14,10.85s-2.72-22.93,1.25-44.33c3.98-21.39,16.18-87.36,2.85-119.9-13.32-32.54-82.88-46.95-82.88-46.95Z"/>
      <path class="cls-9" d="M1946.65,699.79l1.58-4.94c.36-1.14,1.47-1.86,2.66-1.75l29.86,2.93c1.59.16,2.64,1.72,2.17,3.25l-1.41,4.65c-.35,1.15-1.45,1.89-2.64,1.79l-30.03-2.64c-1.62-.14-2.68-1.75-2.19-3.29Z"/>
      <path class="cls-16" d="M2036.22,656.82s20.64,21.06,27.67,64.62c7.04,43.56-9.31,118.18-14.55,128.04-5.24,9.85-41.77,10.13-41.77,10.13l7.41-55.33,21.24-147.46Z"/>
      <path class="cls-12" d="M2019.82,681.91c-8.88,18.82-24.59,57.99-25.11,59.78-5.22,18.12-11.87,35.74-20.26,52.63-2.64,5.32-7.77,11.86-8.03,18.03-.27,6.37,3.59,13.62,5.46,19.56.61,1.93,3.54,2.09,4.07,0,3.02-11.78,11.93-19.65,18.47-29.42,6.81-10.18,7.77-20.49,7.08-32.52-1.82-31.45,8.74-57.93,21.96-85.93,1.15-2.44-2.49-4.59-3.65-2.13Z"/>
      <path class="cls-12" d="M1756.37,689.14c-12.24-.46-21.07,14.53-27.15,23.14-.38.51-.72,1.06-1.06,1.56-6,8.78-10.51,17.9-8.57,27.66,1.94-.93,3.72-1.98,5.36-3.17,4.35-3.12,8.7-6.76,12.75-10.85,10.51-10.51,18.87-23.86,19.09-38.3-.13-.04-.3-.04-.42-.04Z"/>
      <path class="cls-8" d="M1756.79,689.19c-.21,14.44-8.57,27.78-19.09,38.3-2.87-4.14-6.21-8.91-9.54-13.64-9.25-13.17-18.41-26.35-18.62-26.9-.34-1.06,2.11-10.89,2.11-10.89l24.28-9.5,20.86,22.63Z"/>
      <g>
        <path class="cls-8" d="M1745.02,678.19c1.51,9.36.71,20.85-9.01,24.75-9.14,3.66-24.45.09-34.02-1.76-8.43-1.65-22.66-4.47-27.44-13.11-.01-.04-.04-.11-.1-.17-.88-1.65-1.25-2.89-1.4-3.95-2.87-1.31-5.61-2.96-7.66-5.17-1.56-1.71-3.89-5.6-4.13-8.82-.09-.63-.09-1.25.02-1.78-.99-.5-2.19-1.38-3.28-2.42-3.19-2.9-2.03-9.34,3.1-9.41,2.55-.04,5.3.3,7.78.92-.75-.78-1.41-1.64-1.88-2.55-1.44-2.7-1.97-4.33,1.43-5.64,3.43-1.32,13.05,2.51,17.83,3.85,5.73,1.6,12.96,3.87,18.85,4.59,5.2.62,8.48.75,13.53,1.67-1.46-7.97-5.06-14.69-2.26-22.39,2.78-7.66,8.92-2.38,9.23,3.91.42,8.36,6.9,12.96,11.69,19.8,3.63,5.19,5.32,9.98,5.82,15.96.84.05,1.7.63,1.89,1.72Z"/>
        <path class="cls-27" d="M1728.89,683.46c-4.45-2.57-6.68-5-7.55-10.21-.47-2.78-1.77-7.19-.58-9.91,1-2.3-2.49-4.07-3.5-1.75-1.84,4.23-.34,9.63.53,13.96,1.16,5.77,4.43,8.56,9.35,11.41,2.18,1.27,3.93-2.24,1.75-3.5Z"/>
        <path class="cls-27" d="M1695.7,694.65c-3.5-.61-6.93-1.49-10.23-2.83-.85-.34-7.02-2.99-10.99-3.89v-.04c-.89-1.65-1.26-2.89-1.31-3.9t-.1-.05c1.23-.04,2.5.08,3.52.27,6.91,1.29,12.86,5.42,19.95,6.61,2.49.41,1.67,4.27-.83,3.83Z"/>
        <path class="cls-27" d="M1692.84,681.74c-5.8-.92-11.42-2.43-16.83-4.67-3.79-1.59-9.51-5.87-14.75-7.1-.09-.63-.09-1.25.02-1.78-.99-.5-2.19-1.38-3.28-2.42,2.48-.12,5.08.5,7.6,1.64,9.5,4.23,17.58,8.8,28.02,10.52,2.49.41,1.7,4.22-.79,3.81Z"/>
        <path class="cls-27" d="M1696.53,668.41c-6.7-.41-13.23-1.66-19.48-4.2-5.45-2.23-10.44-5.94-15.95-7.86,2.54-.19,5.3.3,7.78.92-.75-.78-1.41-1.64-1.88-2.55,1.24.62,2.45,1.29,3.71,1.98,8.11,4.4,16.36,7.23,25.62,7.77,2.49.16,2.72,4.09.2,3.94Z"/>
      </g>
    </g>
    <g>
      <path class="cls-29" d="M1916.87,827.02l-198.88-41.93c-1.6-.34-2.91-1.44-3.55-2.91l-10.98-27.19-.63-1.56c-.42-1.06-.51-2.03-.3-2.83.51-2.58,3.55-3.88,6.38-3.93,15.24-.13,31.04,3.97,46.02,6.38,22.21,3.55,44.46,7.09,66.67,10.64,19.17,3.04,67.18,10.72,72.04,11.48,7.94,1.27,14.53,6.71,17.31,14.23l11.49,31.2c1.35,3.59-1.82,7.22-5.57,6.42Z"/>
      <path class="cls-23" d="M1914,822.96l-3.93,1.52-12.96-33.74c-.72-1.77-2.28-3.08-4.18-3.42l-189.46-32.34-.63-1.56c-.42-1.06-.51-2.03-.3-2.83l191.11,32.6c3.34.55,6.16,2.87,7.39,6.04l12.96,33.74Z"/>
    </g>
    <g>
      <path class="cls-12" d="M2779.28,1466.94c-.17,1.06-.34,2.11-.51,3.17-1.73,10.3-3.76,20.52-6.21,30.57-.17.72-.34,1.44-.51,2.15-.08.38-.17.76-.3,1.14-1.73,7.09-3.67,14.1-5.83,21.03-11.91,38.72-29.98,75.08-57.38,107.13-8.78,10.3-18.28,19.72-28.38,28.42-.93.8-1.86,1.6-2.83,2.36-.13.17-.25.25-.42.34l-1247.41-304.49c-5.03-1.22-8.57-5.74-8.57-10.89v-185.24l1018.93,228.27h.04l339.36,76.05Z"/>
      <path class="cls-30" d="M2795.92,968.39c-.21,6.08-.42,12.16-.68,18.24v.38c-.63,16.38-1.31,32.81-1.94,49.19-.08,1.9-.17,3.84-.25,5.74-.04,1.48-.08,3-.17,4.48-2.91,72.84-5.66,145.68-5.02,218.56v.63c.55,64.9,2.28,134.91-8.57,201.33-.17,1.06-.34,2.11-.51,3.17-1.73,10.3-3.76,20.52-6.21,30.57l-147.53-33.65-.08-.04-162.1-36.99-4.22-.93-207.66-47.38-4.22-.97-205.13-46.79-4.22-.97-190.56-43.45-4.22-.97-187.61-42.77-4.22-.97-229.83-52.4-98.05-22.38c-5.83-1.35-9.92-6.54-9.92-12.5v-404.47c0-1.14.13-2.24.42-3.25.42-1.52,1.06-2.87,1.94-4.1,2.32-3.29,12.67-3.59,16.97-3.59l104.17-.97,65.11-.59,26.86-.25c6.59,0,13.22.59,19.72,1.77l269.35,48.85,978.4,177.47Z"/>
      <path class="cls-18" d="M1534.4,760.93c-2.57-9.25-11.99-15.24-20.61-17.65-3.97-1.14-8.06-2.03-12.2-2.74l-65.11.59c-7.94,3.46-12.12,7.94-4.05,13.13,7.94,5.11,12.29,9.25,16.05,18.24,1.77,4.31,3.25,9.92,6.54,13.39,6.25,6.59,17.82,4.22,25.8,2.87,13.55-2.28,28.33-5.95,41.13-11.02,7.22-2.87,14.91-8.15,12.46-16.81Z"/>
      <path class="cls-18" d="M2793.05,1041.94c-.04,1.48-.08,3-.17,4.48l-6.33-1.27-745.06-149.39-728.09-145.97c.42-1.52,1.06-2.87,1.94-4.1l685.69,137.48,788.47,158.05,3.55.72Z"/>
      <path class="cls-18" d="M1466.45,1226.01c-1.17,0-2.11-.94-2.11-2.11v-443.45c0-1.17.94-2.11,2.11-2.11s2.11.94,2.11,2.11v443.45c0,1.17-.94,2.11-2.11,2.11Z"/>
      <path class="cls-18" d="M1654.99,815.45v430.32l-4.22-.97v-429.34c0-1.14.93-2.11,2.11-2.11s2.11.97,2.11,2.11Z"/>
      <path class="cls-18" d="M1846.82,854.25v435.26l-4.22-.97v-434.29c0-1.14.97-2.11,2.11-2.11s2.11.97,2.11,2.11Z"/>
      <path class="cls-18" d="M2041.61,895.13v438.8l-4.22-.97v-437.83c0-1.18.93-2.11,2.11-2.11s2.11.93,2.11,2.11Z"/>
      <path class="cls-18" d="M2250.96,936.68v445.01l-4.22-.97v-444.04c0-1.14.93-2.11,2.11-2.11s2.11.97,2.11,2.11Z"/>
      <path class="cls-18" d="M2462.85,977.72v452.27l-4.22-.93v-451.34c0-1.18.93-2.11,2.11-2.11s2.11.93,2.11,2.11Z"/>
      <path class="cls-18" d="M2663.15,1475.84c-1.17,0-2.11-.94-2.11-2.11v-454.8c0-1.17.94-2.11,2.11-2.11s2.11.94,2.11,2.11v454.8c0,1.17-.94,2.11-2.11,2.11Z"/>
    </g>
    <g>
      <g>
        <polygon class="cls-24" points="1082.32 1375.56 1077.96 1448.08 1098.48 1462.65 1113.85 1449.82 1128.69 1388.95 1082.32 1375.56"/>
        <path class="cls-31" d="M1121.06,1512.93c-.34,4.8-56.46,2.57-61.18-1.29-1.14-.9-1.18-3.3-.63-6.48.21-1.29.55-2.66.97-4.16.93-3.6,2.32-7.68,3.76-11.71.67-1.8,1.35-3.6,1.98-5.32,2.07-5.49,3.93-10.29,4.43-12.61,1.56-7.03,8.61-40.79,8.61-40.79,0,0,9.12,1.42,17.57,2.7,8.49,1.29,20.35-.73,21.16.69.76,1.42-.13,32.12.97,45.51.17,2.23.38,4.46.55,6.73.17,1.5.3,3,.42,4.46.38,4.63.8,9.09,1.06,12.87.13,1.63.21,3.13.3,4.46.08,2.1.13,3.82.04,4.93Z"/>
        <path class="cls-18" d="M1119.66,1490.67c-1.39-.43-2.62-.86-3.67-1.2-7.39-2.49-15.03-3.3-22.8-3.43-9.75-.21-20.31-.43-29.22,3.26.67-1.8,1.35-3.6,1.98-5.32,9.88-3,21.15-2.62,31.2-2.1,7.77.39,14.95,1.76,22.08,4.33.17,1.5.3,3,.42,4.46Z"/>
        <path class="cls-18" d="M1105.06,1461.49c-6.41-1.01-12.82-1.44-19.31-1.21-2.71.1-2.72,4.39,0,4.29,6.1-.22,12.15.11,18.18,1.06,2.66.42,3.8-3.71,1.12-4.14Z"/>
        <path class="cls-18" d="M1105.01,1451.36c-5.17-.86-10.33-1.73-15.5-2.59-2.66-.44-3.8,3.69-1.12,4.14,5.17.86,10.33,1.73,15.5,2.59,2.66.44,3.8-3.69,1.12-4.14Z"/>
        <path class="cls-18" d="M1121.02,1508c-20.52,5.15-40.87,2.1-61.78-2.83.21-1.29.55-2.66.97-4.16,20.52,4.8,40.41,7.81,60.51,2.53.13,1.63.21,3.13.3,4.46Z"/>
      </g>
      <path class="cls-24" d="M1121.09,816.78s-17.73,37.83-38.55,57.17c-7.47,6.93-41.42,37.88-66.72,60.93-6.59,6-12.58,11.44-17.35,15.79-6.93,6.29-11.32,10.3-11.32,10.3l-25.84-22.97,2.62-3.29,15.37-19.34,62.96-90.66,24.83-47.93,54.01,39.99Z"/>
      <path class="cls-31" d="M1327.03,1499.42s-95.68-1.8-96.74-6.82c-.13-.73-.25-2.66-.34-5.49-.04-1.29-.04-2.74-.08-4.37-.25-19.21.42-59.1.42-59.1,0,0,80.99,28.01,80.99,28.09,0,.13,7.14,21.74,11.82,35.81.51,1.54.97,2.96,1.39,4.25,1.52,4.59,2.53,7.63,2.53,7.63Z"/>
      <path class="cls-18" d="M1329.06,1491.66c-1.52.04-3.04.09-4.56.13-18.96.47-37.83-.6-56.79-1.42-12.71-.56-25.34-1.12-37.75-3.26-.04-1.29-.04-2.74-.08-4.37,13.81,2.49,27.87,2.87,41.93,3.52,17.1.77,34.2,1.63,51.3,1.29,1.98-.04,3.97-.09,5.95-.17,2.74-.09,2.7,4.2,0,4.29Z"/>
      <path class="cls-26" d="M1333.94,963.15c-.25-9.78,1.98-25.3-5.83-32.77-6.42-6.09-18.41-7.25-26.48-8.19-23.31-2.66-46.57,3.17-66.55,15.83.04-.26.08-.47.08-.73.42-2.83-3.63-3.99-4.1-1.12-.21,1.63-.46,3.26-.72,4.89-.04.04-.13.04-.17.13-1.27.86-1.14,2.44-.34,3.43-5.78,38.77-11.23,77.89-10.39,117.26.08,3.6.21,7.21.46,10.76,1.01,16.6,3.38,33.07,4.26,49.71,1.1,21.62-3.38,40.7-10.05,60.77-4.94,14.84-10.26,29.85-11.27,45.63-.13,1.46-.17,2.96-.21,4.46-.17,17.16,6.5,32.72,9.8,49.19,2.79,13.98,1.1,24.96-3.72,38-2.2,5.88-4.56,11.84-4.73,18.23-.38,16.26,9.33,26.85,6.04,44.69-3.72,20.07-7.6,41.34,16.64,43.79,13.77,1.41,27.66,1.89,41.47,2.32,6.46.17,20.77,3.52,26.52-.9,1.98-1.54,2.11-3.22,2.7-5.53,1.82-6.99.89-15.65,2.11-22.99,4.77-28.99,15.07-56.83,20.94-85.61,5.53-26.98,9.08-54.38,9.84-82,.76-29.34-.93-58.71-.72-88.09.51-60.43,5.7-120.73,4.39-181.16Z"/>
      <path class="cls-22" d="M1249.24,1068.62c-4.73,46.11-5.78,59.02-3.17,87.66,1.98,21.27-27.74,55.97-43.2,72.48,1.01-15.78,6.33-30.8,11.27-45.63,6.67-20.07,11.15-39.16,10.05-60.77-.89-16.64-3.25-33.11-4.26-49.71l12.29-62.45s21.75,12.31,17.02,58.42Z"/>
      <g>
        <path class="cls-24" d="M1521.82,758.32c-.63-1.65-2.07-2.96-3.93-3.93-.04,0-.04-.04-.04-.04-.8-.42-1.69-.76-2.62-1.06-3.55-2.58-8.7-3.72-12.79-5.11-.51-.13-.97-.25-1.44-.42-1.22-1.1-2.66-2.03-4.22-2.74-5.11-2.49-11.61-3.25-16.55-3.88-12.71-1.56-19.85.21-31.12,6.12-.76.38-1.01,1.06-1.01,1.69-1.56-.17-3.29,1.39-2.15,3.08,3.72,5.7,6.25,11.4,9.46,17.27,1.94,3.5,3.25,5.53,7.01,7.3,10.56,4.94,26.31,2.87,37.2.08,3.46-.89,12.29-3.17,11.78-8.23,0-.21-.04-.46-.08-.72-.08-.34-.25-.63-.42-.93,2.15.08,4.52.13,6.5-.42,1.73-.46,3.17-1.35,3.97-3,.04-.08.08-.21.13-.3.84-1.82.89-3.42.34-4.77Z"/>
        <path class="cls-18" d="M1510.88,766.8c.17.3.34.59.42.93.04.25.08.51.08.72-2.03-.72-4.05-1.35-6.16-1.77-7.22-1.52-15.24-.42-22.51-.25-2.7.08-2.7-4.14,0-4.22,7.73-.21,15.96-1.27,23.6.38,3.8.84,7.47,2.15,11.06,3.8-1.98.55-4.35.51-6.5.42Z"/>
        <path class="cls-18" d="M1521.48,763.09c-12.92-4.77-24.83-9.37-39.95-6.63-2.66.46-3.76-3.59-1.1-4.05,8.02-1.48,15.96-1.73,23.98-.08,6.04,1.22,11.7,3.59,17.4,6,.55,1.35.51,2.96-.34,4.77Z"/>
        <path class="cls-18" d="M1517.85,754.35c-15.41-4.86-31.16-7.98-47.55-5.53-2.66.42-3.8-3.63-1.14-4.05,9.42-1.44,18.58-1.14,27.62.25,1.56.72,3,1.65,4.22,2.74.46.17.93.3,1.44.42,4.1,1.39,9.25,2.53,12.79,5.11.93.3,1.82.63,2.62,1.06Z"/>
      </g>
      <g>
        <path class="cls-16" d="M1243.9,458.17c-.16,1.19-.36,2.34-.68,3.46-1.07,4.13-3.06,7.79-5.28,11.52-1.35,1.59-2.26,3.26-2.74,5.09.32,1.15.64,2.3.91,3.5.2.68.36,1.31.52,1.99.24.95-.24,1.59-.91,1.91.52.64,1.07,1.31,1.55,1.99.64.83.44,1.75-.08,2.38.12.79.24,1.59,0,2.46-.52,2.11-1.67,3.22-3.69,3.89-1.75.6-6.95-.64-10.33-1.23-1.07-.2-1.99-.32-2.5-.32-3.42.12-6.83.79-10.21,1.15-4.37.44-10.65,1.47-16.77,1.59-6.2.08-12.24-.79-15.93-4.25-4.93-4.65-3.62-8.74,1.91-12.28,4.57-2.94,29.72-4.25,29.72-4.25,0,0-19.83-6.44-25.51-10.41-9.18-6.44-4.61-12.36,1.67-13.95,5.4-1.35,11.44-1.31,17.32-.24,1.55.24,3.1.6,4.61.99-.24-.56-.4-1.15-.6-1.75v-.04c-.52-1.75-.79-3.58-.83-5.48-.04-4.01,1.51-13.59,7.51-12.95,5.84.68,10.09,14.18,12.12,18.51.08.24.16.4.24.6,2.18-2.94,5.05-5.2,8.9-5.92,7.95-1.39,9.89,5.48,9.1,12.04Z"/>
        <path class="cls-12" d="M1237.94,473.15c-1.35,1.59-2.26,3.26-2.74,5.09.32,1.15.64,2.3.91,3.5-4.01,4.69-8.22,9.34-12.95,13.39-1.07-.2-1.99-.32-2.5-.32-3.42.12-6.83.79-10.21,1.15-4.37.44-10.65,1.47-16.77,1.59.91-.99,1.99-1.83,2.82-2.46,3.77-2.74,8.46-3.69,11.76-7.19,2.9-3.06,4.17-7.35,6.87-10.57,1.35-1.63,2.82-3.06,4.41-4.45-7.15-5.68-12.83-12.71-16.69-20.7,1.55.24,3.1.6,4.61.99-.24-.56-.4-1.15-.6-1.75,3.73,7.31,9.06,13.79,15.81,18.95,6.04-4.37,13.19-7.23,20.54-8.74-1.07,4.13-3.06,7.79-5.28,11.52Z"/>
        <path class="cls-24" d="M1280.63,568.89c-.69.14-1.29.64-1.47,1.61-.46,2.25-.87,4.5-1.29,6.75-3.63.09-6.8-1.56-9.74-3.58-.05-.6-.37-1.19-1.15-1.56-9.32-4.23-18.88-8.59-25.95-15.89-.69-.64-1.29-1.33-1.88-2.02-.09-.78-.55-1.33-1.19-1.56-.55-.64-1.1-1.29-1.61-2.02-1.61-2.43-5.6-.14-3.95,2.3.64.96,1.38,1.84,2.07,2.71-1.1,8.86-2.85,17.59-4.96,26.27-1.88,7.49-4.09,25.4-13.78,27.23-.92.18-1.42.78-1.56,1.47-1.75.41-3.44,1.19-4.96,2.48-.64.55-.73,1.47-.6,2.25,3.9,20.02,40.09,26.68,56.17,22.78,7.49-1.84,13.37-4.27,12.4-12.22-.69-5.6-1.75-8.91-1.01-14.42.32-2.57.78-5.1,1.29-7.58.37-1.97.78-3.9,1.15-5.88,1.65-8.77,3.31-17.5,4.96-26.27.05-.32.05-.6,0-.87-.23-1.42-1.74-2.2-2.94-1.98Z"/>
        <path class="cls-18" d="M1280.63,568.89c-10.47-6.48-23.52-9.23-35.13-11.8-.05-.23-.09-.46-.14-.69-.51-2.34-3.54-1.98-4.32-.18-.18.41-.23.87-.14,1.42,2.85,13.73,7.72,27.79,18,37.84,5.1,4.91,11.8,8.36,18.55,8.4.37-1.97.78-3.9,1.15-5.88,1.65-8.77,3.31-17.5,4.96-26.27.05-.32.05-.6,0-.87-.96-.69-1.93-1.38-2.94-1.98Z"/>
        <path class="cls-24" d="M1319.55,546.04c-.35,4.02-.7,8.04-.94,12.06-.62,10.64-.31,23.4-5.73,32.92-6.52,11.4-21.61,9.18-32.38,7.47-13.83-2.19-37.45-15.96-44.4-29.19-4.05-7.75-7.15-16.09-9.18-24.75-4.65-19.67-4.01-40.96,2.22-60.19,7.51-23.08,80.16-2.95,82.84,1.95,3.19,5.84,2.26,2.02,5.24,17.44,1.03,5.13,1.59,10.45,1.75,15.81.35,7.97,1.25,18.55.57,26.48Z"/>
        <path class="cls-12" d="M1280.49,524.31c.28-.47.64-.87,1.11-1.13,1.17-.64,2.72-.15,3.64.83,1.86,1.96,2.18,5.48,1.76,8.02-.24,1.46-.94,2.9-2.17,3.72-1.23.82-3.03.85-4.09-.18-.58-.56-.88-1.34-1.09-2.12-.71-2.6-.61-5.42.3-7.96.14-.4.32-.81.54-1.18Z"/>
        <path class="cls-12" d="M1311.17,524.31c.28-.47.64-.87,1.11-1.13,1.17-.64,2.72-.15,3.64.83,1.86,1.96,2.18,5.48,1.76,8.02-.24,1.46-.94,2.9-2.17,3.72-1.23.82-3.03.85-4.09-.18-.58-.56-.88-1.34-1.09-2.12-.71-2.6-.61-5.42.3-7.96.14-.4.32-.81.54-1.18Z"/>
        <path class="cls-16" d="M1314.22,490.87c-5.28-.87-9.26-1.19-13.83-1.31-1.31-.04-2.7-.08-4.17-.08-1.23,0-2.54-.04-3.97-.04-7.83-.08-16.09-1.43-23.64,1.27-5.52,1.99-10.45,5.28-14.38,9.57-.99,1.07-1.91,2.19-2.7,3.38-.32.4-.6.76-.83,1.15-.99,1.51-1.83,3.06-2.46,4.65-.52,1.27-.95,2.58-1.31,3.89-1.75,6.63-1.47,13.67-1.83,20.7-.32,6.64-1.35,13.63-5.4,19.11-3.26,4.45-5.8,10.61-5.84,11.84-.52-.48-1.07-.95-1.63-1.43-5.56-4.89-10.61-10.49-14.66-16.73-8.34-12.79-12.24-28.41-8.22-43.42,4.33-16.33,17.24-28.72,31.98-36.35,4.13-2.19,8.58-3.77,13.11-4.85h.04c1.43-.32,2.82-.6,4.25-.83,3.46-.52,6.91-.76,10.37-.64h.04c6.71.16,13.39,1.51,19.63,3.97,7.91,3.14,15.93,8.26,20.98,15.38.95,1.35,1.79,2.78,2.5,4.29.24.44,2.9,6.6,1.99,6.48Z"/>
        <path class="cls-24" d="M1248.81,524.63s0-.01,0-.02c-1.56-8.23-10.8-12.53-17.57-6.86-9.34,7.82-3.64,20.84,2.03,28.93,4.35,6.21,13.24,16.44,20.1,7.08,6.35-8.67.08-20.29-4.55-29.13Z"/>
        <path class="cls-16" d="M1293.13,506.21c-3.55-2.99-9.04-3.56-13.89-2.88-4.73.67-9.3,3.18-11.92,7.18-.83,1.28-1.48,2.84-1.08,4.31.35,1.29,1.44,2.26,2.62,2.9,2.4,1.31,5.23,1.56,7.97,1.7,4.16.2,8.33.2,12.49-.01,2.03-.1,4.22-.32,5.72-1.7,1.62-1.48,1.96-3.98,1.42-6.1-.6-2.33-1.78-4.1-3.33-5.4Z"/>
        <path class="cls-16" d="M1317.24,503.74c-1.83.48-3.54,1.31-4.93,2.46-1.55,1.31-2.74,3.06-3.34,5.4-.56,2.15-.2,4.61,1.43,6.12,1.47,1.35,3.69,1.59,5.72,1.67.95.04,1.91.08,2.86.16-.16-5.36-.71-10.69-1.75-15.81Z"/>
        <path class="cls-18" d="M1304.12,527.57c-1.63-1.97-4.43.85-2.81,2.81,3.09,3.75,6.9,7.44,8.94,11.87,3.28,7.08-.57,11.59-6.51,14.93-2.23,1.25-.23,4.69,2.01,3.43,5.46-3.07,10.29-7.43,9.85-14.2-.48-7.44-7.01-13.42-11.48-18.83Z"/>
        <path class="cls-18" d="M1307.53,564.32c-7.48,1.04-14.66-.84-20.84-5.1-2.11-1.45-4.1,1.99-2,3.43,7.13,4.91,15.36,6.69,23.91,5.5,2.52-.35,1.45-4.18-1.06-3.83Z"/>
        <path class="cls-12" d="M1248.23,509.46c-.52,1.27-.95,2.58-1.31,3.89-4.53-2.15-8.62-5.36-12.51-8.46-5.64-4.49-10.25-9.85-11.36-17.16-.4-2.5,3.42-3.58,3.81-1.07,1.11,7.15,5.88,12.04,11.4,16.21,3.18,2.42,6.44,4.89,9.97,6.59Z"/>
        <path class="cls-12" d="M1254.23,500.29c-.99,1.07-1.91,2.19-2.7,3.38-6.91-2.42-13.03-6.64-17.88-12.28-1.67-1.95,1.15-4.77,2.78-2.82,4.85,5.64,10.89,9.61,17.8,11.72Z"/>
        <path class="cls-12" d="M1300.39,489.56c-1.31-.04-2.7-.08-4.17-.08-6.36-16.93-23.6-26.22-41.76-27.25,1.43-.32,2.82-.6,4.25-.83,3.46-.52,6.91-.76,10.37-.64h.04c14.42,4.41,26.34,14.22,31.27,28.8Z"/>
        <path class="cls-18" d="M1243.67,537.71c-1.08-3.16-1.03-6.12-.77-9.42.2-2.55-3.77-2.54-3.97,0-.19,2.35-.34,4.68,0,7.03.29,1.98,2.29,5.06,1.11,6.81-1.44,2.12,2,4.11,3.43,2.01,1.42-2.1.97-4.18.2-6.43Z"/>
      </g>
      <path class="cls-26" d="M1235.23,933.67c-17.99-2.1-38.3,2.53-55.86,6.05-18.03,3.65-43.49,6.99-56.54-7.25,2.66-8.41,5.66-16.73,9.08-24.88,1.1-2.66-2.91-4.89-4.05-2.19-3.08,7.42-5.83,14.97-8.36,22.56-1.06-1.8-2.03-3.73-2.79-5.96-.93-2.74-5.36-1.46-4.43,1.29,1.35,3.95.49-8.69,2.77-5.86-7.26,23.5-17.46,63.67-18.77,88.29-.93,18.01,1.61,35.64,1.44,53.57-.17,18.79-6.92,33.71-11.99,51.3-5.19,18.01-7.22,36.63-8.66,55.28-1.6,21.23-7.77,41.95-8.99,63.13-.97,16.94,3.8,33.97,5.07,50.91.38,4.72.8,9.48.84,14.2,0,2.14-.08,4.29-.34,6.43-.25,2.62-.72,5.23-1.48,7.81-2.58,8.71-7.98,16.56-11.44,24.96-5.7,13.81-8.66,28.65-8.87,43.53-.13,7.16.42,14.37,1.61,21.44.84,5.06-.46,27.28,3.08,31.27,2.7,3.09,11.99,5.19,15.96,6.39,7.73,2.36,15.75,3.95,23.86,4.72,7.85.81,15.83.86,23.73.13,6.46-.64,18.66-.82,23.9-4.63,3.42-2.53,4.56-8.71,6.12-12.52,18.16-44.26,13.98-100.32,23.06-145.95,3.67-18.44,8.82-36.5,14.31-54.47,9.8-32.17,20.65-64.03,25.67-97.44,2.66-17.58,4.6-35.21,6.76-52.88l.04-.26c2.36-19.3,4.9-38.56,8.74-57.64,3.93-19.56,10.6-38.21,15.33-57.51,2.58-10.59,5.28-22.22-8.78-23.8Z"/>
      <path class="cls-28" d="M1390.06,710.24c-4.52-20.73-9.88-42.06-13.01-50.16-.59-1.52-1.06-2.58-1.48-3.08-.63-.8-1.22-1.56-1.86-2.28-1.06-1.22-2.11-2.41-3.21-3.51-9.12-9.42-20.14-15.54-32.89-19.97-14.1-4.94-28.67-8.78-43.28-12.16-2.03-.46-4.01-.93-6-1.35-.25-.04-.46-.13-.72-.17-.46-1.9-1.1-3.76-1.98-5.53-.34-.72-.89-1.01-1.48-1.01-.25-.25-.59-.46-1.01-.51-19.59-3.21-43.2-3.72-61.14-12.84-3.97-2.03-6.29-4.6-10.51-2.15-2.36,1.35-4.43,4.26-6.33,7.43-.17.3-.34.55-.51.84-1.48-.04-3-.04-4.52-.04-27.07-.17-55.91,1.35-77.82,18.87-8.11,6.5-14.31,14.82-19.85,23.52-1.1,1.65-2.11,3.29-3.12,4.94-1.06,1.73-1.9,3.59-3.17,5.24-24.79,32.26-29.39,72.21-34.84,86.43-5.11,13.26-21.91,24.32-19.55,40.07,1.86,11.82,16.72,24.49,24.91,32.26,2.96,2.79,6.16,5.83,9.54,8.78,7.52,6.67,15.96,13.13,24.45,16.51,3.38,1.31,6.16.8,8.53-.72-.21,4.14-.68,8.28-1.65,12.46,0,.08-.04.17-.08.3-2.15,9.12-20.9,89.01-11.74,93.78,13.55,7.05,44,12.88,58.82,16.09,31.88,6.88,64.98,7.18,97.45,7.81,29.94.59,60-.42,89.01-7.64-2.03,8.19-3.84,16.38-5.24,24.74-.46,2.66,3.63,3.8,4.05,1.1,1.56-9.12,3.59-18.11,5.83-27.02,4.35-1.18,8.66-2.53,12.92-4.01,2.58-.89,1.48-4.98-1.1-4.05-3.5,1.22-7.05,2.28-10.56,3.29,7.47-28.25,17.31-55.86,23.56-84.41,8.91-40.71,9.92-82.17,22.68-122.11,3.04-9.54,1.31,17.44,4.73,8.07,1.1-2.96-2.91-25-7.85-47.8Z"/>
      <path class="cls-32" d="M1343.93,878c-8.69-14.75-18.29-28.88-26.83-43.72-6.78-11.78-14.94-16.57-27.42-19.41,0,0,0-.01,0-.02.47-2.66-3.6-3.8-4.07-1.12-.03.16-.06.33-.09.49-1.71.46-2.27,2.97-.69,3.8-6.41,35.37-14.59,73.76-10.33,109.6,3.25,27.38,46.02,22.9,65.08,16.86,11.25-3.56,20.06-6.69,19.98-19.54-.11-16.73-7.31-32.78-15.64-46.93Z"/>
      <path class="cls-28" d="M1372.85,689.62c-.84-1.22-1.6-2.36-2.36-3.46-.38-.55-.84-.8-1.35-.89.13-.34.25-.68.38-1.01.72-1.98,1.39-3.93,2.07-5.91.84-2.62-3.21-3.72-4.05-1.14-.42,1.18-.8,2.36-1.22,3.55-3.17,8.82-6.93,17.48-12.12,25.29-5.11,7.6-12.79,12.71-17.82,20.06-8.19,11.82,3.84,19.25,14.57,20.52,9.5,1.14,27.07,1.31,34.92-6.84-4.52-20.73-9.88-42.06-13.01-50.16Z"/>
      <path class="cls-9" d="M1365.86,729.24c-1.31.76-2.62,1.52-3.93,2.32-1.44.84-2.83,1.73-4.18,2.62-3-2.03-6.04-3.97-9.16-5.78-5.62-3.29-11.44-6.21-17.48-8.7-10.94-4.48-26.9-11.4-38.97-7.64-9.46,2.91-11.78,11.74-12.29,20.65-.51,8.99-.17,18.11-8.66,23.65-5.45,3.55-12.12,4.86-17.4,8.66-17.31,12.37-13.72,39.48,6.25,46.79,4.48,1.65,8.61,1.65,12.92,3.93,3.5,1.86,5.28,4.14,8.36,6.38.8.59,1.65,1.14,2.49,1.6,4.39,2.49,9.42,3.72,14.36,4.48,3.04.46,6.76,1.1,10.68,1.52,8.91.97,18.92.8,24.53-4.9,10.22-10.35,8.28-30.11,7.94-43.15,0-.3,0-.59-.04-.89-.21-9.58-.3-20.01,4.31-28.67,2.91-5.36,7.26-9.42,12.12-12.84.34.25.68.46,1.01.72,1.98,1.39,3.93,2.83,5.79,4.31,2.11,1.65,5.11-1.31,3-3-1.98-1.56-4.05-3.04-6.08-4.48,2.15-1.39,4.35-2.66,6.54-3.93,2.36-1.35.25-4.98-2.11-3.63Z"/>
      <path class="cls-17" d="M1361.94,731.57l-3.21,8.4-12.16,31.75-5.28,9.04-18.92,32.6-13.51,16.34c-3.93-.42-7.64-1.06-10.68-1.52-4.94-.76-9.97-1.98-14.36-4.48,0,0,6.25-48.6,18.92-66.55,12.67-17.99,34.2-25.5,43.83-28.25.68-.21,1.35-.38,2.03-.51,3.12,1.82,6.16,3.76,9.16,5.78,1.35-.89,2.74-1.77,4.18-2.62Z"/>
      <path class="cls-9" d="M1176.48,692.15c-5.88-8.33-6.5-15.12-6.28-24.97.11-4.66-.26-9.2-2.99-13.13-13.55-19.53-52.91-6.05-62.83,10.64-.02.03-.01.05-.03.08-4.29,5.3-6.05,14.07-8.15,19.52-3.29,8.55-6.78,17.06-9.89,25.69-1.91,5.3-4.06,11.34-1.7,16.88,4.42,10.41,18.82,9.37,24.02,19,5.2,9.64,4.62,17.54,17.78,17.6,10.9.05,23.21-2.89,31.6-10.13,5.08-4.38,7.77-10.12,10.72-16,3.38-6.72,8.42-10.82,12.88-16.56,7.5-9.64.8-20.21-5.14-28.63Z"/>
      <path class="cls-9" d="M1246.72,850.38c-3.71-4.11-8.67-7.19-14.02-8.64-9.14-2.48-18.6.56-26.65-5.69-10.16-7.89-17.61-17.94-31.39-9.9-6.73,3.92-10.34,10.1-12.23,17.01-9.86,1.43-17.11,8.9-18.32,19.16-.77,6.6,2.1,11.67,3.23,17.98,1.67,9.34-4.41,16.83-3.54,26.14,1,10.66,8.64,19.79,19.42,21.43,7.17,1.09,13.53-3.12,20.63-2,7.25,1.14,13.42,5.76,20.72,6.8,10.86,1.54,22.23-3.51,28.66-12.35,3.22-4.43,4.34-9.3,5.7-14.52,2.34-9,8.41-15.34,12.19-23.59,4.8-10.5,3.46-23.13-4.38-31.83Z"/>
      <g>
        <g>
          <g>
            <path class="cls-1" d="M1463.19,645.58c.84,6.27,3.6,21.02,13.03,15.15.12-.07.24-.15.36-.23,2.96-1.94,5.71-4.81,7.18-8.06,2.59-5.72-6.35-11.94-10.4-15.08-3.27-2.53-4.17-3.81-7.77-5.83-.37-.21-.77-.43-1.2-.41-.82.03-1.37.88-1.57,1.68-.06.25-.12.51-.17.77-.74,3.83.03,8.18.54,12.01Z"/>
            <path class="cls-31" d="M1348.7,682.88c-.58,18.48-4.01,19.03-6.3,28.59-2.29,9.55,10.07,18.26,10.07,18.26l17.73-5.16s10.2-4.41,10.95-5.28c.75-.86,9.02-14.94,9.02-15.47s-.35-4.93-.35-4.93c0,0-40.54-34.49-41.12-16.01Z"/>
            <path class="cls-1" d="M1373.04,726.45c.6-.15,1.25-.23,1.85-.3-4.34,3.28-4.83,9.58-2.87,15.17,3.36,9.47,11.4,12.94,20.75,13.81,9.4.91,48.64,1.17,38.57-17.32.08-.23.19-.42.23-.68.64-4.6,1.28-9.21,2-13.81.19-1.36.38-2.72.6-4.04.53-3.62,1.09-7.25,1.7-10.83.19-1.28.42-2.53.64-3.81.83-4.98,1.7-9.96,2.6-14.94.49-2.6-3.51-3.43-4-.83-.3,1.7-.57,3.4-.87,5.06-3.62.38-7.28.57-10.91.53-.91,0-1.43.49-1.66,1.09-5.13-1.58-11.89-10.19-14.68-12.87-4.68-4.49-9.43-8.79-12.57-14.53-1.28-2.3-4.64,0-3.4,2.3.49.91,1.02,1.74,1.58,2.6-1.28,9.25-3.09,18.34-5.77,27.28-1.51,5.09-2.87,11.77-5.81,16.26-2.64,4.08-10.84,7.96-10.84,7.96,0,0,.31,2.53,2.84,1.89Z"/>
            <path class="cls-2" d="M1434.33,725.35c-10.33-3.63-20.53-7.93-31.36-9.89-7.3-1.32-21.08-2.92-27,2.93-3.04,3.01-5.77,6.18-5.77,6.18,0,0,19.17-3.01,34.26,0,15.09,3.01,49.05,15.33,49.05,15.33,0,0,4.14-3.91-19.18-14.55Z"/>
            <path class="cls-1" d="M1478.75,687.97c-.42,6.12-2.7,12.03-8.61,14.69-3.63,1.65-7.85,2.07-11.82,2.28-22.29.97-45.98.72-60.42-17.35-1.9-2.36-3.67-4.94-5.28-7.64-10.77-17.57-15.12-39.69-15.37-59.66-.21-23.48,36.69-34.33,52.99-33.78,8.49.25,16.76,2.96,23.05,8.91,2.87,2.83,5.87,6.63,8.11,10.72.63,1.1,1.22,2.24,1.69,3.42,1.1,2.41,1.82,4.9,2.11,7.22.08.72.13,1.39.13,2.15,0,1.14-.04,2.28-.04,3.38s0,2.07.13,3.12c.93,7.56,6.67,13.51,8.7,20.77.72,2.45,1.35,4.73,1.94,6.88.89,3.25,1.31,6.92,1.65,10.56.13,1.01.21,2.07.3,3.04.08,1.18.17,2.32.3,3.42v.08c.17,1.82.3,3.63.42,5.45.25,4.1.25,8.23.04,12.33Z"/>
            <path class="cls-12" d="M1460.93,628.29c.37-.47.82-.86,1.36-1.13,4.88-2.38,5.3,7.12,4.87,9.65-.36,2.12-1.72,4.52-3.87,4.45-1.94-.07-3.17-2.13-3.61-4.02-.47-2-.47-4.1-.01-6.11.23-1.01.63-2.05,1.26-2.85Z"/>
            <path class="cls-35" d="M1434.17,719.28c.53-3.62,1.09-7.25,1.7-10.83.19-1.28.42-2.53.64-3.81-2.72-.6-9.09-2.04-10.19-1.77-1.21.26.3,12.91,7.85,16.41Z"/>
            <path class="cls-31" d="M1465.19,616.78c-.3-2.32-1.01-4.81-2.11-7.22-3.25-.17-6.46.34-8.91,2.53-3.42,3.08-2.53,7.35,1.69,9.04,2.66,1.1,5.7,1.06,8.57,1.14.3,0,.55.04.84.04,0-1.1.04-2.24.04-3.38,0-.76-.04-1.44-.13-2.15Z"/>
            <path class="cls-31" d="M1451.96,594.24c-8.08-9.82-25.73-14.41-37.91-14.73-16.27-.43-36.27,2.99-49.19,13.52-12.78,10.39-20.85,22.26-23.38,38.1-1.03,6.51-.32,18.95.1,25.79,0,.11.04.25.04.36.57,7.97,4.7,13.52,6.55,20.89,1.6,6.16-1.07,12.17-.18,18.29,1.25,8.43,10.18,8.72,17.26,8.76,6.3,0-1.32,18.96,4.94,19.35,3.03.19,23.95-1.18,39.67-30.95,6.03-11.43,9.91-18.29,19.93-25.86,5.7-8.6,6.87-18.05,5.14-29.77-1.07-7.12-1.32-12.96,2.81-19.08,2.24-3.31,5.16-6.09,7.26-9.5,3.06-4.88,7.87-14.02,6.94-15.16Z"/>
            <path class="cls-18" d="M1420.6,619.26c-11.83,16.85-13.62,35.97-18.96,55.25-6,21.68-23.93,36.19-44.87,42.65-2.57.79-1.47,4.84,1.11,4.04,17.62-5.43,33.89-16.28,42.79-32.82,5.12-9.52,6.58-20.13,8.88-30.55,2.87-13.02,6.94-25.46,14.66-36.45,1.55-2.21-2.08-4.31-3.62-2.11Z"/>
            <path class="cls-18" d="M1385.45,683.88c-6.76,11.08-18.05,18.26-30.99,19.51-2.66.26-2.69,4.45,0,4.19,14.48-1.4,27.02-9.15,34.61-21.58,1.41-2.31-2.21-4.41-3.62-2.11Z"/>
            <path class="cls-9" d="M1478.26,670.19v-.07c-.11-1.1-.18-2.24-.28-3.42-.07-1-.18-2.03-.28-3.06-2.06-.68-4.2-1.25-6.34-1.67-1.39-.25-2.74-.39-3.59,1-2.28,3.67,3.88,8.22,6.26,9.89,1.21.85,2.88,1.99,4.66,2.78-.11-1.82-.25-3.63-.43-5.45Z"/>
            <path class="cls-1" d="M1446.11,649.17c4.44,11.08,2.6,22.23-4.1,24.92-6.7,2.68-15.73-4.12-20.16-15.2-4.44-11.08-2.6-22.23,4.1-24.92,6.7-2.68,15.73,4.12,20.16,15.2Z"/>
            <path class="cls-35" d="M1436.47,659.95c-1.92-2.45-.45-6.18-.44-8.98,0-2.32-.58-4.28-2.08-6.06-1.48-1.75-3.98.77-2.52,2.52,2.03,2.42.6,6.12.56,8.93-.04,2.34.53,4.27,1.97,6.11,1.41,1.8,3.91-.73,2.52-2.52Z"/>
          </g>
          <path class="cls-9" d="M1441.97,689.05c-.72-3.18-1.43-6.35-2.15-9.53-.89-3.95-.41-13.67-7.02-11.54-2.66.85-4.66,3.1-5.97,5.56-1.31,2.46-2.05,5.18-3.02,7.8-1.22,3.29-2.83,6.44-4.78,9.36-1.61,2.41-3.55,5.16-2.72,7.94.54,1.81,2.21,3.11,4,3.72,1.79.6,3.72.62,5.62.63,2.55.01,5.09.03,7.64.04,3.4.02,7.45-.32,9.12-3.28,1.15-2.05.67-4.59.15-6.88-.29-1.27-.57-2.54-.86-3.81ZM1429.46,695.56c-3.9-.17-3.36-.58-2.47-3.52.53-1.76,1.38-3.47,2.07-5.18.69-1.73,1.38-3.45,2.07-5.17.17-.42.43-1.38.75-2.43,1.27,2.68,1.67,6.95,2.18,8.74.35,1.23,1.67,3.96,1.32,5.2-.7,2.46-4.02,2.45-5.92,2.36Z"/>
        </g>
        <path class="cls-1" d="M1331.82,739.4s-20.26,7.28-31.52,41.4c-11.26,34.12-16.19,127.72-11.26,145.31,4.93,17.59,45.74,10.2,54.89-8.09l-12.12-178.62Z"/>
        <path class="cls-35" d="M1333.08,881.99c-6.13-27.37-11.92-54.8-17.38-82.31-.53-2.66-4.6-1.54-4.07,1.12,5.46,27.51,11.26,54.94,17.38,82.31.59,2.65,4.67,1.53,4.07-1.12Z"/>
        <path class="cls-1" d="M1420.27,727.14s30.16,7.94,45.48,20.63c15.31,12.69,29.52,69.01,27.52,95.07-2,26.05-49.08,138.08-49.08,138.08l-103.23-18.38s1.51-40.5-5.84-73.9c-7.35-33.4-30.8-121.81-7.78-145.54,11.02-11.36,42.86-18.53,42.86-18.53l50.07,2.58Z"/>
        <polygon class="cls-1" points="1346.77 1426.87 1341.39 1473.05 1322.74 1487.35 1304.6 1478.86 1304.31 1412.93 1346.77 1426.87"/>
        <g>
          <path class="cls-16" d="M1384.8,1515.46c-1.22,1.1-9.88,2.03-21.2,2.62-24.28,1.27-60.76.97-61.65-2.62-.21-.89-.3-3.04-.3-5.95,0-1.22.04-2.62.13-4.14.42-15.41,2.53-42.39,2.53-42.39,0,0,10.05,5.53,19,3.93,8.99-1.56,19.51-6,19.38-5.15-.08.84,3.84-1.69,7.01,8.87.42,1.35,1.22,2.79,2.41,4.31,7.69,10.22,29.68,22.97,32.68,26.98,3.46,4.6,3.97,10.13,0,13.55Z"/>
          <path class="cls-5" d="M1384.8,1501.9c-3-4.01-25-16.76-32.68-26.98.8,9.37,2.96,18.66,5.45,27.78.3,1.18.67,2.36,1.01,3.55-18.96,1.44-37.92,1.18-56.79-.89-.08,1.52-.13,2.91-.13,4.14,19.42,2.15,38.85,2.45,58.35.89.97,2.66,2.15,5.28,3.59,7.69,11.32-.59,19.97-1.52,21.2-2.62,3.97-3.42,3.46-8.95,0-13.55Z"/>
        </g>
        <path class="cls-34" d="M1379.48,1009.01v127.18l-5.62,86.77-14.95,232.03s-3.21,1.6-39.1,2.62c-3.46.13-7.05.04-10.77-.21-34.58-1.99-76.81-16.68-76.81-16.68,0,0,9.46-64.9,15.29-96.02,5.83-31.16,15.83-48.05,13.72-85.8-2.11-37.71,1.06-77.31,14.23-102.1,13.22-24.83,16.89-35.89,13.77-62.83-3.21-26.94,3.67-60.17,15.96-97.12,12.29-36.95,43.69-70.73,43.69-70.73l18.97,2.66s11.61,78.62,11.61,80.23Z"/>
        <path class="cls-7" d="M1365.58,1184.11c-.42-1.98-3.67-2.03-4.05,0-4.31,23.35-18.54,43.37-22.59,66.72-2.15,12.2-1.18,24.58-.93,36.86.3,14.31-1.65,27.66-5.49,41.42-3.04,10.89-6.46,21.79-7.22,33.15-.89,12.96,1.18,24.66-2.91,37.41-6.08,19.04-10.77,38.09-13.34,57.72,3.72.25,7.3.34,10.77.21,35.89-1.01,39.1-2.62,39.1-2.62l14.95-232.03c-2.7-12.96-5.49-25.93-8.28-38.85Z"/>
        <polygon class="cls-1" points="1491.36 1459.17 1491.36 1505.66 1474.48 1522.02 1455.48 1515.69 1447.56 1450.24 1491.36 1459.17"/>
        <path class="cls-34" d="M1465.64,943.35s28.9,65.94,27.29,157.86c-1.61,91.92-1.57,357.96-1.57,357.96,0,0-39.1,30.15-69.85,32.44-30.75,2.29-72.61-14.03-72.61-14.03,0,0,7.26-50.2,6.3-85.58-.96-35.38,28.87-26.74,7.39-120.69-21.48-93.96,9.71-143.44-1.65-195.49-11.37-52.05-3.98-146.64-3.98-146.64,0,0,85.55-39.3,88.91-35.02,3.36,4.27,19.78,49.19,19.78,49.19Z"/>
        <path class="cls-17" d="M1508.35,999.74c-18.21-32.82-36.22-65.91-46.04-102.36-.7-2.61-4.6-.96-3.9,1.63,9.82,36.45,27.84,69.55,46.04,102.36,1.3,2.35,5.22.75,3.9-1.63Z"/>
        <path class="cls-2" d="M1324.28,839.09s19.59,43.63,37.63,45.63c18.04,2,123.65-85.03,125.82-81.5,2.16,3.53,10.15,19.37,11.64,30.73,1.49,11.36-21.28,62.79-24.88,80.16-3.61,17.37,4.27,37.13-7.21,33.25-11.48-3.88-31.35-16.55-86.06-9.2-54.7,7.35-49.59,4.7-50.92-18.02-1.34-22.71-6-81.06-6-81.06Z"/>
        <path class="cls-3" d="M1461.1,889.17c-6.97,18.44-20.67,32.9-38.54,41.14-2.47,1.14-.32,4.78,2.13,3.65,18.91-8.71,33.13-24.21,40.48-43.66.96-2.54-3.12-3.64-4.07-1.12Z"/>
        <path class="cls-2" d="M1393.2,721.76c-.69-.67-1.51-.7-2.18-.38-.85-.4-1.92-.3-2.45.54-4.06,1.83-8.44,1.68-12.13,4.33-3.54,2.55-5.51,6.64-7.16,10.53-2.2,5.17-4.08,10.71-4.32,16.37-.35,7.96,3.82,14.84-1.66,22.17-1.06,1.41.69,3.45,2.26,2.94,2.91-.94,4.44-2.11,6.36-4.51,3.85-4.82,7.87-9.87,11.58-14.8,4.65-6.19,4.95-13.25,5.48-20.35,1.66,7.28,5.7,13.35,14.47,14.23,1.08.11,2.01-1.01,2-2-.03-11.37-4.13-21.12-12.25-29.07Z"/>
        <path class="cls-1" d="M1437.59,739.4s40.75,4.43,59.06,27.67c9.15,11.62,24.54,75.5,38,111.21,13.46,35.71,24.98,43.26,24.98,43.26,0,0-11.26,30.61-35.54,19.35-24.28-11.26-78.12-125.27-78.12-125.27l-8.39-76.23Z"/>
        <path class="cls-35" d="M1363.63,822.26c.02,16.4-.7,32.75-2.18,49.09-.23,2.57,3.78,2.55,4.01,0,1.47-16.34,2.2-32.69,2.18-49.09,0-2.58-4.01-2.58-4.01,0Z"/>
        <path class="cls-35" d="M1452.29,817.65c-2.21-5.19-5.71-9.46-10.18-12.87-2.05-1.56-4.05,1.92-2.02,3.46,3.91,2.98,6.82,6.92,8.74,11.43,1.01,2.37,4.46.33,3.46-2.02Z"/>
        <path class="cls-1" d="M1528.32,884.85l46.98-83.4,20.58,3.8s-7.92,49.94-17.95,79.6c-10.03,29.66-15.31,51-29.03,58.54-13.72,7.54-30.42-6.4-30.42-6.4l9.84-52.14Z"/>
        <path class="cls-35" d="M1547.77,897.8c-4.31-6.98-8.05-14.24-11.14-21.84-1.01-2.48-5.1-1.4-4.07,1.12,3.23,7.94,7.06,15.56,11.57,22.85,1.43,2.31,5.08.19,3.65-2.13Z"/>
        <g>
          <path class="cls-1" d="M1639.96,783.06c-.42-.68-.93-1.31-1.52-1.77-.04-.04-.04-.08-.04-.13-1.52-3.25-6.08-3.93-9.16-4.48-.68-.13-1.31-.17-1.94-.25-.46-.38-.97-.72-1.48-1.01-.17-.13-.38-.25-.55-.34-2.07-1.14-4.43-2.32-6.97-3.38-1.39-.59-2.91-1.18-4.43-1.69-3.38-1.18-6.93-2.03-10.26-2.37-1.94-.17-3.8-.17-5.53.04-4.65.59-8.83,2.91-12.71,5.78-.42-.3-.84-.59-1.27-.84-1.35-.84-2.66-1.56-3.97-2.07-4.18-1.65-8.15-1.18-11.15,4.48-6.5,12.41-1.86,31.75-1.1,44.97.13,2.7,4.35,2.74,4.22,0-.08-.97-.17-1.98-.21-2.96,1.98,2.07,4.73,3.51,7.98,3.97,11.57,1.69,23.6-7.69,30.49-16,6.46-7.77,12.92-7.94,21.96-11.15,3-1.1,6.5-1.94,7.81-5.32.17-.42.25-.84.34-1.22.38-1.65.13-3.08-.51-4.26Z"/>
          <path class="cls-35" d="M1584.1,772.63c-2.49,2.11-4.77,4.48-6.67,7.22-1.48,2.24-5.15.13-3.63-2.11,1.82-2.7,3.97-5.07,6.33-7.18,1.31.51,2.62,1.22,3.97,2.07Z"/>
          <path class="cls-35" d="M1613.87,770.01c-6.59.72-13.01,2.2-17.44,6.21-2.03,1.82-5.03-1.14-3-3,3-2.7,6.46-4.43,10.18-5.57,3.33.34,6.88,1.18,10.26,2.37Z"/>
          <path class="cls-35" d="M1625.82,775.42c-5.74-.04-11.36.42-16.3,3.63-2.28,1.52-4.39-2.15-2.11-3.63,3.46-2.32,7.14-3.29,10.89-3.72,2.53,1.06,4.9,2.24,6.97,3.38.17.08.38.21.55.34Z"/>
          <path class="cls-35" d="M1640.47,787.33c-9.71-1.1-19.34-.84-28.46,3.67-2.45,1.18-4.56-2.45-2.15-3.67,9.71-4.77,19.85-5.28,30.11-4.26.63,1.18.89,2.62.51,4.26Z"/>
        </g>
        <path class="cls-7" d="M1363,1078.55c-8.83-20.91-14.49-40.75-14.15-63.68.04-2.71-4.18-2.91-4.22-.19-.27,18.15,2.57,36.03,9.13,53,3.6,9.29,9.03,18.3,10.43,28.29,1.72,12.38-3.51,24.9-6.2,36.81-8.89,39.47-10.72,80.06-6.08,120.22.31,2.69,4.26,1.75,4.12-.94-2.35-43.46-1.97-87.17,8.81-129.62,4.13-16.27,4.73-28.31-1.85-43.89Z"/>
        <g>
          <path class="cls-16" d="M1558.34,1528.21c0,1.39-.25,2.79-.8,4.22-.08.34-.21.68-.38,1.01-2.11,4.94-63.68,3.17-80.9,3.55-17.27.34-24.53-1.82-24.53-7.77v-1.31c.04-1.14.08-2.58.13-4.26.3-10.39,1.06-29.22,1.06-29.22l16.85.25h.04l4.69.08c.13-.38.25-.76.38-1.1,1.31-4.05,2.03-7.22,4.18-9.54,1.31-1.44,3.17-2.53,6.04-3.34,6.67-1.86,14.15-1.31,17.9,5.36,3.29,5.78,14.19,12.33,25.25,18.16,1.35.72,2.74,1.44,4.05,2.11,11.48,5.87,22.08,10.77,23.48,12.96,1.82,2.91,2.74,5.83,2.58,8.82Z"/>
          <path class="cls-5" d="M1558.34,1528.21c0,1.39-.25,2.79-.8,4.22-17.99.04-35.98-.08-53.96-.3-11.19-.17-22.59.13-33.7-.97-6.12-.63-12.12-2.24-18.16-3.25.04-1.14.08-2.58.13-4.26,6.59,1.1,13.09,2.91,19.89,3.46,10.56.89,21.24.63,31.84.8,18.24.25,36.52.34,54.77.3Z"/>
          <path class="cls-5" d="M1532.29,1506.42c-3.25,2.7-6.59,5.19-10.05,7.22-5.79,3.38-10.98,2.03-16.89-.42-9.54-3.93-19.68-7.77-28.71-12.67-2.96-1.65-5.36-3.5-6.84-5.87l4.69.08c.13-.38.25-.76.38-1.1,4.43,4.73,13.26,7.39,17.61,9.29,5.28,2.32,11.23,6.08,16.81,7.35,6.59,1.52,13.01-1.6,18.96-6,1.35.72,2.74,1.44,4.05,2.11Z"/>
        </g>
        <g>
          <path class="cls-9" d="M1511.99,999.16l-.27,30.28-.04,4.23-.02,2.07c-.05,4.86-4,8.74-8.87,8.73l-79.86-.71c-4.86-.05-8.74-4.05-8.73-8.91l.33-36.59c.03-2.03.74-3.88,1.93-5.38.92-1.14,2.1-2.05,3.46-2.62,1.08-.48,2.25-.75,3.52-.72l79.81.76c4.86.01,8.78,4,8.73,8.87Z"/>
          <path class="cls-17" d="M1511.72,1029.45l-.04,4.23c-19.57,1.82-39.27,1.87-58.93.11-10.32-.97-16.13.3-20.7-8.99-5.22-10.61-10.36-21.26-15.58-31.9.92-1.14,2.1-2.05,3.46-2.62,4.24,8.71,8.48,17.38,12.71,26.04,1.13,2.35,2.1,4.84,3.44,7.06,3.23,5.38,4.17,4.78,9.4,5.41,5.36.62,10.75,1.11,16.18,1.48,16.71,1.11,33.44.78,50.06-.8Z"/>
        </g>
        <path class="cls-9" d="M1417.48,1003.36c-.76,0-1.49-.41-1.87-1.13-.29-.55-27.81-57.59-50-136.77-22.23-79.31-18.86-134.04-18.82-134.58.08-1.17,1.16-2.07,2.25-1.97,1.16.08,2.05,1.08,1.97,2.25-.04.54-3.35,54.61,18.68,133.17,22.06,78.72,49.38,135.39,49.67,135.94.54,1.04.15,2.31-.88,2.85-.31.16-.65.24-.99.24Z"/>
      </g>
      <path class="cls-32" d="M1294.35,619.06c-6.88,4.1-13.93,7.94-21.41,9.16-10.05,1.6-21.58-.3-31.46-2.45-14.86-3.21-30.99-10.22-41.34-22.04,1.52,0,3.04,0,4.52.04.17-.3.34-.55.51-.84,9.84,10.01,24.15,15.92,37.41,18.79,9.88,2.11,22.67,4.43,32.77,1.69,4.43-1.22,8.74-3.29,13-5.7,1.98.42,3.97.89,6,1.35Z"/>
      <path class="cls-32" d="M1129.83,732.92c-3.55-11.82-8.28-23.43-12.12-34.71-4.1-11.99-7.85-24.2-11.19-36.48-1.44-5.15-2.79-10.39-4.05-15.58-1.1,1.65-2.11,3.29-3.12,4.94,1.27,5.07,2.58,10.13,3.97,15.16,3.97,14.4,8.44,28.67,13.26,42.9.38,7.39-.76,14.48-3.84,21.32-1.94,4.31-4.69,8.15-6.16,12.54-.51,1.48-.89,3.04-1.01,4.73-.55,6.88,2.41,13.64,3.29,20.35,1.39,10.68-1.98,20.99-7.81,29.98-6.63,10.13-15.67,17.99-24.79,25.8,7.52,6.67,15.96,13.13,24.45,16.51,3.38,1.31,6.16.8,8.53-.72,0,0,3.93-2.58,6.76-10.05,6.21-16.34,13.77-32.77,17.61-49.87,1.27-5.66,1.77-11.27,1.6-16.89-.21-10.09-2.36-20.1-5.36-29.94Z"/>
      <path class="cls-17" d="M1129.84,732.9c-3.55-11.82-8.28-23.43-12.12-34.71-4.1-11.99-7.85-24.2-11.19-36.48-.84.97-1.56,1.98-2.15,3,0,0,0,.04-.04.08-.38.46-.72.93-1.01,1.44,3.97,14.4,8.44,28.67,13.26,42.9.38,7.39-.76,14.48-3.84,21.32-1.94,4.31-4.69,8.15-6.16,12.54.8.84,1.48,1.77,2.07,2.87,5.19,9.63,4.6,17.52,17.78,17.61,2.87,0,5.83-.17,8.78-.63-.21-10.09-2.36-20.1-5.36-29.94Z"/>
      <path class="cls-22" d="M1111.73,1242.81c-9.04,22.26-22.29,41.17-38.09,57.73.25-2.14.34-4.29.34-6.43,13.89-15.23,25.55-32.47,33.65-52.45,1.01-2.53,5.11-1.42,4.1,1.16Z"/>
      <g>
        <g>
          <path class="cls-29" d="M1006.82,1125.09c-2.33,0-4.22-1.89-4.22-4.22v-138.1h-103.45v133.35c0,2.33-1.89,4.22-4.22,4.22s-4.22-1.89-4.22-4.22v-137.57c0-2.33,1.89-4.22,4.22-4.22h111.9c2.33,0,4.22,1.89,4.22,4.22v142.32c0,2.33-1.89,4.22-4.22,4.22Z"/>
          <path class="cls-16" d="M997.85,984.88h-92.9c-3.5,0-6.33-2.84-6.33-6.33s2.84-6.33,6.33-6.33h92.9c3.5,0,6.33,2.84,6.33,6.33s-2.84,6.33-6.33,6.33Z"/>
          <path class="cls-29" d="M1006.82,1125.09c-2.33,0-4.22-1.89-4.22-4.22v-138.1h-4.75c-2.33,0-4.22-1.89-4.22-4.22s1.89-4.22,4.22-4.22h8.97c2.33,0,4.22,1.89,4.22,4.22v142.32c0,2.33-1.89,4.22-4.22,4.22Z"/>
        </g>
        <ellipse class="cls-5" cx="997.78" cy="1493.79" rx="12.23" ry="15.74"/>
        <ellipse class="cls-5" cx="954.89" cy="1493.79" rx="12.23" ry="15.74"/>
        <path class="cls-5" d="M882.04,1493.79c0,8.69-5.47,15.74-12.23,15.74s-12.23-7.05-12.23-15.74,5.47-15.74,12.23-15.74,12.23,7.05,12.23,15.74Z"/>
        <ellipse class="cls-5" cx="826.92" cy="1493.79" rx="12.23" ry="15.74"/>
        <path class="cls-15" d="M1022.36,1135c0,110.59-.04,221.17-.04,331.8,0,9.97-8.11,18.03-18.07,18.03h-189.08c-9.97,0-18.07-8.07-18.07-18.03v-249.34c0-59.2,48.01-107.17,107.21-107.17h99.95c3.46,0,6.33.76,8.66,2.15,1.39.76,2.62,1.82,3.67,3,4.31,4.81,5.78,12.33,5.78,19.55Z"/>
        <path class="cls-13" d="M1016.57,1115.45c-24.07,11.99-64.94,37.66-67.81,74.02-3.34,42.14-1.39,222.86-.42,295.36h-4.22c-.97-72.63-2.91-253.39.42-295.7,3.04-38,43.37-64.06,68.36-76.68,1.39.76,2.62,1.82,3.67,3Z"/>
        <path class="cls-13" d="M911.03,1466.91h-82.53c-8.77,0-15.91-7.14-15.91-15.91v-65.77c0-8.77,7.14-15.91,15.91-15.91h82.53c8.77,0,15.91,7.14,15.91,15.91v65.77c0,8.77-7.14,15.91-15.91,15.91ZM828.5,1373.54c-6.44,0-11.69,5.25-11.69,11.69v65.77c0,6.45,5.25,11.69,11.69,11.69h82.53c6.45,0,11.69-5.25,11.69-11.69v-65.77c0-6.44-5.25-11.69-11.69-11.69h-82.53Z"/>
        <rect class="cls-13" x="814.69" y="1397.62" width="111.55" height="4.22"/>
        <rect class="cls-9" x="903.92" y="1398.68" width="11.61" height="20.23" rx="5.47" ry="5.47"/>
      </g>
      <path class="cls-24" d="M990.03,949.26c.38-.13.76-.21,1.14-.38,2.53-.93,1.44-5.03-1.1-4.05-.38.13-.72.25-1.1.38-6.67,2.15-12.54.76-17.73,6.46-1.98,2.15-3.34,4.43-4.94,6.59-1.48,2.11-3.21,4.05-5.83,5.62-4.18,2.49-9.2,3.34-13.93,4.43-.89.21-2.91.72-5.32,1.48-7.6,2.36-19.13,7.14-10.35,11.99,2.96,1.65,6.63,1.73,10.51,1.18,1.94-.21,3.93-.63,5.87-1.06.13,0,.25-.04.34-.08,4.43-.97,8.83-2.07,12.41-1.94,3.25.13,6.46.72,9.71.72,4.35-.04,8.11-1.65,11.57-4.18,6.5-4.77,18.16-20.9,8.74-27.15Z"/>
      <path class="cls-24" d="M988.98,939.38c-2.7-9.46-13.55-8.02-20.35-6.29-1.18.34-1.56,1.48-1.31,2.45-13.17,2.53-26.39,5.36-39.23,9.33-9.08,2.83-16,7.18-17.65,17.9-.93,5.83-.46,20.56,5.36,23.69.04.04.08.04.13.08,1.86.89,3.25.63,4.26-.3.04-.08.13-.13.17-.17.93,1.65,2.07,3.17,3.46,4.48.76.72,1.69,1.31,2.58,1.48,1.1.25,2.24-.08,3.04-1.52.13-.25.21-.59.34-.89,0-.04.04-.13.04-.17,1.6,1.44,3.55,2.03,5.83,1.01.51-.21.93-.51,1.31-.84,1.06-1.06,1.65-2.62,2.07-4.18.04-.13.04-.21.08-.34,1.39,1.31,3.12,1.77,5.19.55.21-.13.38-.25.59-.42t.04,0c1.01-.8,1.82-1.9,2.53-3.21.04-.04.08-.13.13-.21,1.82-3.29,3.08-7.52,5.45-9.75,4.35-4.18,15.16-3.55,20.69-7.52,4.94-3.59,13.3-11.61,15.24-19.34.46-1.98.55-3.97,0-5.83Z"/>
      <path class="cls-16" d="M992.97,916.6c-3.29-1.22-8.36-1.56-13.68-1.22l-15.37,19.34c8.74-.8,17.73.17,24.36,4.22,4.9,2.96,8.15,7.05,10.18,11.74,4.77-4.35,10.77-9.8,17.35-15.79-4.77-8.28-13.26-14.65-22.84-18.28Z"/>
      <path class="cls-18" d="M973.9,956.82c-4.48,5.66-10.64,8.7-17.27,11.19-3.8,1.48-11.11,2.53-13.64,5.78-2.58,3.34.51,6.17,4.26,8.11.04.04.13.08.21.13-.72,1.31-1.52,2.41-2.53,3.21t-.04,0c-1.22-.68-2.45-1.44-3.5-2.28-4.05-3.08-6.46-7.09-2.7-11.11.72-.8,1.56-1.48,2.53-2.07,3.59-2.41,8.53-3.67,12.25-5.07,4.64-1.73,9.04-3.55,12.84-6.46,1.69-1.22,3.21-2.66,4.6-4.43,1.69-2.11,4.65.89,3,3Z"/>
      <path class="cls-18" d="M942.15,959.9c-10.68,6.71-8.95,17.23-3.12,25.55-.42,1.56-1.01,3.12-2.07,4.18-8.11-10.43-10.6-24.79,3.08-33.36,2.28-1.44,4.43,2.2,2.11,3.63Z"/>
      <path class="cls-18" d="M929.78,989.63c-.13.3-.21.63-.34.89-.8,1.44-1.94,1.77-3.04,1.52-7.26-10.26-8.23-23.43-1.86-35.47,1.27-2.41,4.9-.25,3.63,2.15-5.49,10.35-4.77,21.96,1.6,30.91Z"/>
      <path class="cls-18" d="M920.19,986.25c-1.01.93-2.41,1.18-4.26.3-.04-.04-.08-.04-.13-.08-2.91-9.16-3-19.09,0-28.8.8-2.62,4.9-1.48,4.1,1.1-2.87,9.29-2.74,18.79.3,27.49Z"/>
      <path class="cls-9" d="M995.85,926.48c-2.47,6.87-10.29,12.43-17.47,12.43s-11.01-5.57-8.54-12.43c2.47-6.87,10.29-12.43,17.47-12.43s11.01,5.57,8.54,12.43Z"/>
    </g>
    <g>
      <path class="cls-8" d="M2360.88,1062.25c-4.44-9.45-10.09-18.31-16.86-26.56-5.15-6.27-11.27-6.65-18.8-4.41-5.04,1.5-11.96,3.99-13.94,9.44-2.71,7.47,5.01,18.03,8.12,24.22,8.66,17.25,17.25,36.6,39.93,29.99,5.67-1.65,12.02,27.87,13.41,21.67,2.15-9.59-1.21-20.47-3.38-29.83-1.99-8.57-4.83-16.75-8.49-24.53Z"/>
      <g>
        <path class="cls-22" d="M2790.64,723.4v.13l-.8,20.99c-1.48-.04-2.96-.08-4.43-.13-.3-.04-.55-.08-.84-.04-143.52-2.83-263.91,110.17-269.57,254.28l-16.3,416.42-13.05,333.75c-7.09,1.69-14.23,3.34-21.32,4.86l13.6-347.13,16-408.74c4.65-119.37,82.3-218.98,188.2-257.49,32.6-11.91,67.94-17.95,104.63-17.02,1.27.04,2.58.08,3.88.13Z"/>
        <path class="cls-26" d="M2789.51,707.13c.58-14.76-10.92-27.19-25.68-27.77-14.76-.58-27.19,10.92-27.77,25.68-.58,14.76,10.92,27.19,25.68,27.77,14.76.58,27.19-10.92,27.77-25.68Z"/>
        <rect class="cls-22" x="2335.17" y="1086.1" width="171.43" height="21.11" transform="translate(-226.9 867.4) rotate(-19.42)"/>
        <g>
          <path class="cls-26" d="M2797.99,745.31c-4.14-.42-8.36-.76-12.58-.93-.3-.04-.55-.08-.84-.04-1.01-.08-1.98-.13-3-.17l-99.44-3.88-51.47-2.03c-145.85-5.7-269.14,108.27-274.84,254.11l-.04,1.35-13.98,356.8-16.72,427.95c-7.09,1.06-14.14,2.07-21.28,3.04l17.23-439.52,13.72-350.47c.04-1.44.13-2.87.21-4.31,8.4-155.39,140.48-276.19,296.5-270.07l150.91,5.91c1.48.04,2.91.13,4.39.21,1.31.08,2.58.13,3.88.25,2.24.13,4.48.34,6.71.55.25,7.14.46,14.23.63,21.24Z"/>
          <g>
            <path class="cls-6" d="M2789.51,707.13c.58-14.76-10.92-27.19-25.68-27.77-14.76-.58-27.19,10.92-27.77,25.68-.58,14.76,10.92,27.19,25.68,27.77,14.76.58,27.19-10.92,27.77-25.68Z"/>
            <path class="cls-6" d="M2797.99,745.31c-5.41-.55-10.89-.93-16.43-1.14l-150.91-5.91c-145.85-5.7-269.14,108.27-274.84,254.11l-.04,1.35-2.49,63.84-21.11-.8,2.58-65.24c.04-1.44.13-2.87.21-4.31,8.4-155.39,140.48-276.19,296.5-270.07l150.91,5.91c5.02.21,10.01.51,14.99,1.01.25,7.14.46,14.23.63,21.24Z"/>
          </g>
          <path class="cls-22" d="M2354.19,1033.84l-1.29,33.04c-7.28.18-14.73-3.58-20.79-8.63l1.33-34.05c4.53,5.21,10.94,8.8,17.8,9.49,1.01.12,1.98.16,2.95.16Z"/>
          <path class="cls-8" d="M2358.51,1066.47s1.36-16.79-22.95-25.55c-24.31-8.76-21.23,2.63-19.41,10.1,1.82,7.47,14.06,27.67,14.06,27.67l17.96,8.8,10.34-21.02Z"/>
        </g>
      </g>
      <g>
        <path class="cls-8" d="M2249.59,856.76c-.9,25.34-7.17,53.33-21.38,75.23-2.16,3.36-4.54,6.54-7.05,9.58-18.87,22.47-46.4,28.99-74.04,22.78-10.12-2.3-22.32-4.41-27.26-10.53-6.91-8.54-2.97-22.3-1.4-31.97.29-1.76.58-3.43.86-4.96.06-.48.13-.97.19-1.41.19-1.54.48-3.16.76-4.79,1.79-10.76,4.64-22.49,7.61-31.92.51-1.7,1.02-3.41,1.57-5.11,1.33-4.5,2.74-8.95,4.19-13.27.1-.26.15-.52.25-.79,1.56-4.8,3.15-9.38,5.05-13.73,8.04-19.22,19.7-33.57,44.5-33.75,20.78-.16,67.18,14.83,66.14,44.62Z"/>
        <path class="cls-8" d="M2130.06,881.59s-15.45,13.28-17.8,19.49c-2.68,7.09,7.88,14.7,13.41,16.11,5.54,1.42,4.39-35.6,4.39-35.6Z"/>
        <polygon class="cls-8" points="2157.64 957.6 2164.87 1018 2231.31 1020.6 2213.59 922.02 2157.64 957.6"/>
        <path class="cls-12" d="M2130.03,878.45c.37-.5.82-.91,1.38-1.15,1.4-.59,3.09.14,4.02,1.35,1.87,2.42,1.84,6.44,1.08,9.26-.44,1.62-1.39,3.17-2.87,3.96-1.48.79-3.52.61-4.6-.67-.59-.7-.84-1.61-.99-2.51-.51-3.02-.07-6.19,1.24-8.95.21-.44.45-.88.74-1.27Z"/>
        <path class="cls-27" d="M2127.98,919.18c-3.1,1.29-6.27,2.19-9.52,2.68.29-1.76.58-3.43.86-4.96,2.14-.45,4.24-1.12,6.35-1.92,2.83-1.13,5.1,3.07,2.31,4.2Z"/>
        <path class="cls-21" d="M2252.82,824.93c-8.15-5.31-18.14-3.94-25.59-10.28-5.09-4.31-8.46-9.66-14.66-12.69-7.07-3.46-14.84-3.81-21.99-1.74-10.31-6.46-22.18-10.46-33.89-8.27-14.34,2.62-20.21,12.73-21.17,24.81-2.11-.35-4.31-.43-6.41.06-4.42,1.02-8.2,3.97-10,8.1-3.74,8.65,2.21,15.82,9.63,19.29.22,4.47,2.94,8.47,8.08,10.26,4.27,1.49,6.76.18,10.82,4.62.89.96.77,2.81,1.75,3.83,1.96,1.98,2.48,3.28,5.07,4.75,1.95,1.05,5.05.82,6.74,1.81,10.88,6.7,6.58,22.67,1.42,31.57-1.66,2.81-4.94,5.51-4.29,9.07,1.85,10.37,21.45,17.68,27.62,24.99,3.68,4.34,4.28,12.68,8.39,16.06,4.24,3.52,14.71,3.49,20.07,4.54,12.28,2.34,13.65-.88,17.86-12.47,2.68-7.36,4.26-15.04,7.06-22.35,3.45-9.19,8.08-17.85,12.27-26.7,2.7-5.73,5.31-10.22,5.91-14.35.18-1.23.18-2.42-.03-3.63.54-.29,1.08-.62,1.63-.95,7.38-4.53,13.51-10.87,14.44-18.79,1.59-13.42-10.52-24.85-20.73-31.53Z"/>
        <path class="cls-21" d="M2140.57,861.95c-2.08-1.14-4.35-1.89-6.67-2.34-.1.26-.15.52-.25.79-1.45,4.32-2.86,8.77-4.19,13.27,3.04.21,6.13.33,9.14.31,1.77-.02,3.36-.09,4.74-1.41,3.58-3.48.91-8.58-2.77-10.63Z"/>
        <path class="cls-27" d="M2156.71,890.34c.83-2.72-3.38-4.06-4.21-1.34-.58,1.9-.34,3.6.37,5.43.55,1.41.71,1.73-.32,2.96-.68.82-1.66,1.49-2.49,2.14-2.24,1.76.78,4.99,3,3.24,1.73-1.36,4.44-3.25,4.98-5.54.58-2.47-2.06-4.5-1.32-6.9Z"/>
        <path class="cls-4" d="M2257.49,876.21c.22,1.2.21,2.39.03,3.63-8.87-4.9-19.74-4.97-31.68-4.78-11.76.2-24.51-2.82-32.31-12.45-3.29-4.11-4.58-9.46-7.69-13.65-6.8-9.15-19.23-6.63-28.69-8.9-9.2-2.22-16.55-7.37-19.42-16.58-.82-2.73,3.5-3.71,4.33-1.02,6.23,20.4,29.83,9.17,42.8,18.91,4.97-19.74,26.14-25.14,44-20.86,2.76.64,1.4,4.83-1.36,4.19-15.9-3.8-34.55.73-38.66,18.73-.11.57-.43.91-.8,1.16.8,1,1.51,2.09,2.17,3.22,2.7-4.58,6-8.78,10.32-11.93,6.82-4.95,14.38-4.83,22.31-6.6,2.76-.6,3.74,3.68.98,4.28-6.73,1.5-13.75,1.27-19.69,5.15-5.08,3.29-8.64,8.37-11.45,13.61,4.29,7.73,9.58,13.77,18.53,16.64,13.88,4.43,28.53-1.71,42.29,3.56,1.96.74,3.83,1.65,5.59,2.74-.54.33-1.09.66-1.63.95Z"/>
      </g>
      <path class="cls-2" d="M2300.41,1644.45c-6.67,28.29-6.5,37.33-3.08,78.37,1.18,14.27,1.22,36.52.8,59.5-17.82,2.45-35.68,4.69-53.54,6.71-8.15.93-16.34,1.82-24.49,2.66-3.04.3-6.04.63-9.08.93-8.06.89-16.17,1.69-24.28,2.41l-1.52.13c-1.56.17-3.08.34-4.64.46-5.36.51-10.73.97-16.05,1.39-8.49.76-16.93,1.48-25.38,2.11l34.46-375.72,55.91-18.87,49.28-16.55,16.85-5.7s1.06,5.45,2.32,14.44c2.7,19.38,6.25,55.15,1.65,87.79-6.71,47.67,7.43,131.7.8,159.95Z"/>
      <path class="cls-10" d="M2219.84,1760.57c-2.07-15.29-8.66-29.22-12.46-44-8.53-33.53-1.01-68.24-1.9-102.23-.42-18.03-3-35.81-7.47-53.12-1.69-6.63-3.67-13.17-5.91-19.68.42-5.66.68-11.4.55-17.19-.04-2.7-4.26-2.87-4.18-.13,0,2.45-.08,4.86-.13,7.26-.89-2.28-1.77-4.56-2.75-6.8-1.06-2.49-4.81-.51-3.72,1.98,2.15,5.07,4.14,10.18,5.91,15.33-1.9,25.21-8.02,49.95-10.64,75.12-3.21,31.16-3.33,62.62-4.9,93.95-1.39,28.71-3.55,57.47-7.73,85.93,5.32-.42,10.68-.89,16.05-1.39,1.56-.13,3.08-.3,4.64-.46l1.52-.13c8.11-.72,16.21-1.52,24.28-2.41,3.04-.3,6.04-.63,9.08-.93.89-10.35,1.14-20.77-.25-31.12Z"/>
      <path class="cls-10" d="M2237.99,1466.3c-8.39,27.15-25.7,50.32-34.61,77.24-9.53,28.8-5.7,59.57-8.58,89.3-.26,2.71,3.96,2.86,4.22.17,2.96-30.58-1.04-62.05,9.54-91.51,9.17-25.56,25.41-47.86,33.46-73.91.8-2.6-3.22-3.88-4.02-1.28Z"/>
      <path class="cls-2" d="M2232.21,1362.3c-.63.08-1.14,1.39-1.48,3.63-1.44,8.02-1.35,27.49-1.22,38.59.08,3.84.08,6.63.08,7.73-.42,34.54-5.74,65.41-16.17,98.38-5.32,16.72-11.1,33.53-15.41,50.59-3.89,15.2-6.59,30.7-6.88,46.53-.51,29.05,6.97,57.85-4.18,85.46-8.36,20.77-11.95,38.26-6.63,60.64,3.21,13.64,4.65,27.7,4.9,41.3-1.56.17-3.08.34-4.64.46-5.36.51-10.73.97-16.05,1.39-8.49.76-16.93,1.48-25.38,2.11-12.54.97-25.04,1.9-37.58,2.74-.68.04-1.35.08-2.03.13-2.83.21-5.62.38-8.44.55-6.59.42-13.13.84-19.72,1.18-.46-69.29-1.01-172.7-.51-225.27.8-83.44,7.94-202.55,7.94-202.55l145.55-12.88,7.85-.72Z"/>
      <path class="cls-9" d="M2099.33,1790.43c.08,3.84.17,7.69.21,11.57-2.83.21-5.62.38-8.44.55-.04-4.01-.13-7.98-.21-11.95-1.48-73.35-3-149.18-2.03-223.75.08-5.66.17-11.4.21-17.1.51-47.5,1.06-96.65,11.1-143.78l8.28,1.73c-9.92,46.36-10.43,95.01-10.94,142.13-.04,5.74-.08,11.44-.21,17.14-.97,74.44.55,150.19,2.03,223.46Z"/>
      <path class="cls-15" d="M2289.39,1284.85c34.55-100.07,15.26-181.36,21.47-204.15,5.28-19.36,13.98-50.58-.28-68.3-6.61-8.16-18.19-9.12-27.78-11.48-14.32-3.48-28.59-6.95-42.9-10.47-1.07-7.23-2.23-15.3-5.92-20.47-3.89-5.43-10.53-4.05-16.46-3.65-20.76,1.26-66.73,9.77-63.49,35.08.77,6.12-33.67,14.78-44.39,18.76-14.02,5.16-30.19,9.04-43.36,16.39-.39.15-.78.39-1.12.59-.91.56-1.78,1.11-2.6,1.72-1.09.8-2.05,1.65-2.93,2.59l-.04.04c-4.53,4.64-6.8,10.68-7.66,17.62-1.97,15.81.2,32.8.97,48.63,2.75,56.01,9.09,76.55,12.22,132.53,1.2,21.18,1.97,46.9,2.35,70.54.13,8.58.23,16.87.26,24.56.1,15.77-17.68,68.31-4.04,80.6,4.41,3.93,14.31,4.66,19.64,6.6.62.24,1.25.47,1.87.71,7.75,2.88,15.36,6.05,23.43,8.1,2.72.7,5.61,1.32,8.55,1.86,16.02,3.04,34.65,4.4,49.8,5.92,39.95,4.01,102.82-2.23,130.77-35.07,6.29-7.36,5.7-18.33,3.24-27.72-3.49-13.45-16.11-78.43-11.59-91.52Z"/>
      <path class="cls-13" d="M2119.45,1363.05c-.54-12.06,1.13-23.49,3.62-35.31,4.3-20.16,6.1-39.27,4.12-59.89-2.07-21.51-6.27-42.71-7.33-64.26.19-.58.17-1.05-.07-1.48-.11-2.67-.17-5.37-.19-8.12-.02-2.71-4.24-2.87-4.22-.17,0,3,.1,6,.24,8.97-16.03,36.01-32.1,72.02-48.18,108.03.13,8.58.23,16.87.26,24.56.1,15.77-17.68,68.31-4.04,80.6,4.41,3.93,14.31,4.66,19.64,6.6,8.42,3.08,16.6,6.61,25.31,8.81,2.72.7,5.61,1.32,8.55,1.86.33-3.16.58-6.23.95-9.05,1.44-10.89,2.63-21.83,2.72-32.85.12-9.46-.95-18.84-1.39-28.28Z"/>
      <path class="cls-16" d="M2239.89,990.45c-7.2-5.11-17.28-4.91-32.54-2.85-23.85,3.22-53.33,13.82-53.33,13.82-3.23-25.31,42.74-33.82,63.49-35.08,5.93-.4,12.58-1.79,16.46,3.65,3.69,5.17,4.85,13.25,5.92,20.47Z"/>
      <g>
        <path class="cls-8" d="M2063.84,1422.09c-10.68-6.04-26.92-6.39-38.93-6.39.03-.8.06-1.6.05-2.46.05-3.59-5.57-3.81-5.57-.22,0,26.32-6.76,55.45,8.19,79.24.93,1.45,2.51,4.68,4.49,5.89h.05c.88.56,1.82.69,2.83.11.43-.22.73-.44,1.06-.62.48.96,1.06,1.88,1.74,2.71.9,1.07,1.91,1.92,3.22,2.35.33.11.65.21,1.03.28,1.27.24,2.36.05,3.28-.49.92-.48,1.61-1.26,2.12-2.23.3-.56.56-1.16.68-1.82.28.01.52.02.76-.02.95-.01,1.85-.31,2.73-.89.73-.54,1.42-1.22,2.02-2.19.86-1.34,1.39-2.78,1.68-4.23.7-3.42.28-7.13.67-11.08h.14c.38.07.75.13,1.18.05.9-.01,1.9-.3,2.97-.92.14-.09.29-.18.44-.27,3.78-2.31,3.24-8,3.06-11.79-.25-5.73.59-11.46.72-17.22-.03-.38-.02-.76,0-1.13.18-3.4.73-6.68,1.01-10.12.49-6.41,4.57-13.05-1.62-16.56Z"/>
        <path class="cls-27" d="M2055.95,1480.05c-.39,3.95.03,7.66-.67,11.08-3.6-11.81-5.2-23.97-4.76-36.53.07-3.07,4.79-2.88,4.72.18-.29,8.59.37,17.03,2.03,25.32-.43.08-.8.02-1.18-.05h-.14Z"/>
        <path class="cls-27" d="M2048.85,1498.44c-.24.04-.47.03-.76.02-.12.66-.38,1.26-.68,1.82-.51.97-1.2,1.75-2.12,2.23-5.49-15.39-8.27-30.29-6.96-47.86.26-3.01,4.99-3.16,4.73-.1-1.19,16.02,1.05,29.86,5.8,43.89Z"/>
        <path class="cls-27" d="M2037.76,1500.36c-.68-.83-1.26-1.75-1.74-2.71-.34.18-.63.4-1.06.62-1.02.57-1.96.44-2.83-.11h-.05c-4.49-14.54-6.62-28.95-6.2-45.57.07-3.02,4.8-3.12,4.68-.05-.45,17.56,2.04,32.5,7.2,47.82Z"/>
      </g>
      <path class="cls-15" d="M2124.88,1185.49c.06-7.05.09-14.28.04-21.63-.1-22.23-.7-37.09-10.47-57.37-4.33-9.09-10.68-16.39-17.69-23.17-1.39-1.32-2.77-2.64-4.2-3.93-1.31-1.19-2.61-2.43-3.87-3.66-9.37-8.94-17.38-17.96-24.76-29.24.26-.29.49-.57.79-.86,2.15-1.99-2.93-6.07-5.12-4.17l-.04.04c-18.85,17.39-22.08,50.18-26.34,74.78-5.2,30.18-5.55,52.18-1.75,82.54,1.12,9.13,3.13,18.34,2.39,27.56-.7,8.17-3.78,15.53-6.02,23.26-4.05,13.87-5.33,19.57-4.21,34.06.17,2.08.39,4.11.6,6.15-13.31,36.71-13.93,76.28-16.96,114.87-1.61,20.69-1.65,30.23,16.4,35.42,12.29,3.52,22.05,10.03,34.35,6.58,14.78-4.11,16.53-6.75,21.55-10.86,5.63-4.64,4.28-6.85,5.61-12.58.15-.63.35-1.3.59-2.05,3.86-12.36,7.4-24.85,10.51-37.45,6.01-24.02,14.99-48.18,18.65-72.67,4.82-32.43,7.61-61.61,8.96-91.81.52-11.05.83-22.28.99-33.81Z"/>
      <path class="cls-13" d="M2353.16,1113.04s4.17-23.24,21.01-21.36c6.86.76,14.71,8.32,22.04,45.94,7.33,37.61,21.58,64.95,19.59,88.85-2,23.9-58.43-23.11-58.43-23.11l-4.21-90.31Z"/>
      <path class="cls-15" d="M2414.58,1217.28c-2.55-9.23-5.62-18.31-9.04-27.19-13.42-34.88-32.3-67.65-48.48-101.2-15.9-33.08-26.31-80.3-69.16-86.84-1.47-.23-2.79.14-2.75,1.29l-1.39-.22c-1.18-.21-2.24,1.05-2.28,2.11-1.43,40.76-2.85,81.53-4.32,122.29-2.27,4.05-4.09,8.33-5.1,12.73-2.91,12.77,1.48,25.79,8.72,36.26,7.28,10.51,17.3,19.02,27.3,27.06,6.64,14.97,14.06,29.54,26.18,40.45,2.08,1.9,4.29,3.68,6.68,5.29,16.63,11.38,41.63,22.38,61.28,12.84,16.72-8.14,16.73-29.14,12.36-44.86Z"/>
      <path class="cls-27" d="M2166.23,947.94c-2.52,4.2-5.51,7.15-10.47,8.17-3.96.82-7.99.83-11.89,2-2.59.77-1.65,4.89.96,4.11,5.06-1.51,10.58-1.03,15.5-3.05,4.23-1.74,7.15-5.11,9.46-8.96,1.4-2.33-2.16-4.61-3.56-2.27Z"/>
      <path class="cls-13" d="M2340.85,1170.66c-7.89,26.61-2.14,43.74-5.18,66.35-.31,2.4-.82,4.74-1.42,7-12.12-10.91-19.54-25.49-26.18-40.45l22.7-85.57s18,26.06,10.07,52.67Z"/>
      <path class="cls-13" d="M2272.97,1271.03c-21.25,31.18-60.48,41.7-94.72,25.99-2.47-1.13-3.72,2.91-1.28,4.02,35.96,16.5,77.33,4.88,99.56-27.74,1.53-2.25-2.03-4.52-3.56-2.27Z"/>
      <path class="cls-13" d="M2125.19,1271.66c-.27,2.69-4.49,2.53-4.22-.17,1.61-17.3,3.22-34.78,2.93-52.2-.11-8.03-.64-16.13-1.76-24.16-3.13-22.6-9.98-45.14-15.54-67.29-4.38-17.54-9.89-35.63-17.9-52.13-6.69-13.78-15.11-26.5-26.15-36.86.83-.6,1.69-1.16,2.6-1.72.35-.2.74-.44,1.12-.59,13.4,12.91,23.15,29.26,30.5,46.75,4.95,11.69,8.82,23.92,11.99,36.01,5.74,21.65,12.23,43.92,16.13,66.17.52,2.89.95,5.83,1.39,8.72,3.64,25.71,1.27,51.73-1.09,77.46Z"/>
      <path class="cls-13" d="M2076.37,1288.8c-19.52-.04-35.51-11.08-42.63-29.22-.99-2.52-4.71-.52-3.73,1.99,7.62,19.41,25.36,31.42,46.19,31.46,2.71,0,2.89-4.21.17-4.22Z"/>
      <path class="cls-13" d="M2088.65,1271.91c-10.79,2.55-21.37,1.45-31.46-3.12-2.47-1.12-3.73,2.92-1.28,4.02,10.73,4.86,22.25,5.9,33.71,3.2,2.64-.62,1.69-4.74-.96-4.11Z"/>
      <path class="cls-9" d="M2068.69,1429.98c.56,2.73-2.92,5.74-7.75,6.73-4.84.98-9.21-.43-9.76-3.16-.56-2.73,2.92-5.74,7.75-6.73,4.84-.98,9.21.43,9.76,3.16Z"/>
    </g>
    <g>
      <path class="cls-9" d="M1692.29,1162.35h-63.09c-13.58,0-24.63-11.05-24.63-24.63v-148.61c0-13.58,11.05-24.63,24.63-24.63h63.09c13.58,0,24.63,11.05,24.63,24.63v148.61c0,13.58-11.05,24.63-24.63,24.63ZM1629.21,972.92c-8.93,0-16.19,7.26-16.19,16.19v148.61c0,8.93,7.26,16.19,16.19,16.19h63.09c8.93,0,16.19-7.26,16.19-16.19v-148.61c0-8.93-7.26-16.19-16.19-16.19h-63.09Z"/>
      <path class="cls-25" d="M1573.8,1563.3c0,8.69-5.47,15.74-12.23,15.74s-12.23-7.05-12.23-15.74,5.47-15.74,12.23-15.74,12.23,7.05,12.23,15.74Z"/>
      <ellipse class="cls-25" cx="1774.54" cy="1563.3" rx="12.23" ry="15.74"/>
      <path class="cls-9" d="M1823.22,1135.43v405.91c0,12.16-9.84,21.96-21.96,21.96h-267.33c-12.12,0-21.96-9.8-21.96-21.96v-405.91c0-12.12,9.84-21.96,21.96-21.96h267.33c12.12,0,21.96,9.84,21.96,21.96Z"/>
      <path class="cls-9" d="M1768.36,1333.93h.5c2.27,0,4.1,1.84,4.1,4.1v17.32c0,2.27-1.84,4.1-4.1,4.1h-.5c-2.27,0-4.1-1.84-4.1-4.1v-17.32c0-2.27,1.84-4.1,4.1-4.1Z"/>
      <path class="cls-17" d="M1806.16,1145.39h-277.08c-6.67,0-12.71,2.7-17.1,7.09v6.88c3.46-5.83,9.84-9.75,17.1-9.75h277.08c7.26,0,13.64,3.93,17.06,9.75v-6.88c-4.39-4.39-10.43-7.09-17.06-7.09Z"/>
      <path class="cls-17" d="M1772.7,1539.13h-210.07c-11.64,0-21.11-9.47-21.11-21.11v-230.88c0-11.64,9.47-21.11,21.11-21.11h210.07c11.64,0,21.11,9.47,21.11,21.11v230.88c0,11.64-9.47,21.11-21.11,21.11ZM1562.63,1270.25c-9.32,0-16.89,7.57-16.89,16.89v230.88c0,9.31,7.58,16.89,16.89,16.89h210.07c9.32,0,16.89-7.57,16.89-16.89v-230.88c0-9.31-7.57-16.89-16.89-16.89h-210.07Z"/>
      <rect class="cls-17" x="1543.63" y="1331.82" width="248.07" height="4.22"/>
      <path class="cls-16" d="M1692.29,979.25h-63.09c-5.83,0-10.56-4.73-10.56-10.56s4.73-10.56,10.56-10.56h63.09c5.83,0,10.56,4.73,10.56,10.56s-4.73,10.56-10.56,10.56Z"/>
    </g>
    <g>
      <g>
        <circle class="cls-17" cx="1250.24" cy="351.26" r="85.41" transform="translate(623.57 1488.7) rotate(-76.84)"/>
        <circle class="cls-9" cx="1250.24" cy="351.26" r="76.11"/>
        <path class="cls-29" d="M1201.07,377.19c-.79,0-1.55-.45-1.91-1.21-.5-1.06-.05-2.31,1.01-2.81l51.65-24.03h29.48c1.17,0,2.11.94,2.11,2.11s-.94,2.11-2.11,2.11h-29.01l-50.32,23.62c-.29.14-.6.2-.9.2Z"/>
      </g>
      <g>
        <circle class="cls-17" cx="1466.45" cy="351.26" r="85.41" transform="translate(881.67 1741.18) rotate(-80.65)"/>
        <circle class="cls-9" cx="1466.45" cy="351.26" r="76.11"/>
        <path class="cls-29" d="M1417.28,377.19c-.79,0-1.55-.45-1.91-1.21-.5-1.06-.05-2.31,1.01-2.81l48.28-22.66-17.13-20.52c-.75-.9-.63-2.23.27-2.97.89-.75,2.22-.63,2.97.27l18.89,22.62c.42.5.58,1.17.44,1.81-.14.64-.57,1.18-1.16,1.45l-50.75,23.83c-.29.14-.6.2-.9.2Z"/>
      </g>
      <g>
        <circle class="cls-17" cx="1682.66" cy="351.26" r="85.41" transform="translate(615.98 1699.18) rotate(-63.43)"/>
        <circle class="cls-9" cx="1682.66" cy="351.26" r="76.11"/>
        <path class="cls-29" d="M1633.49,377.19c-.79,0-1.55-.45-1.91-1.21-.5-1.06-.05-2.31,1.01-2.81l50.23-23.58,17.59-25.67c.66-.96,1.98-1.2,2.93-.55.96.66,1.21,1.97.55,2.93l-17.91,26.14c-.21.31-.5.56-.84.72l-50.75,23.83c-.29.14-.6.2-.9.2Z"/>
      </g>
    </g>
  </g>
</svg>