<?xml version="1.0" encoding="UTF-8"?>
<svg id="Layer_1" data-name="Layer 1" xmlns="http://www.w3.org/2000/svg" viewBox="0 0 1000 1000">
  <defs>
    <style>
      .cls-1 {
        fill: #9fced8;
      }

      .cls-2 {
        fill: #94df5e;
      }

      .cls-3 {
        fill: #aff7b5;
      }

      .cls-4 {
        fill: #84c98d;
      }

      .cls-5 {
        fill: #96db64;
      }

      .cls-6 {
        fill: #1d1d1b;
      }
    </style>
  </defs>
  <path class="cls-4" d="M616.48,356.1c-1.64,1.45-3.64,2.86-5.81,2.57-5.68-.75-4.94-10.88-10.35-12.77-3.42-1.19-7.05,1.8-10.62,1.25-4.51-.69-7.73-6.76-12.1-5.44-1.78.54-2.95,2.2-3.99,3.75-6.88,10.34-13.77,20.68-20.65,31.02-1.79,2.7-3.64,5.51-4.09,8.72-.45,3.21.92,6.92,3.94,8.09,7.75,3.01,13.01-12.02,21.16-10.4,1.84.37,3.38,1.58,4.81,2.79,4.87,4.12,9.71,10.86,6.38,16.3-1.31,2.14-3.61,3.44-5.81,4.65-5.36,2.93-10.81,5.9-16.8,7.11-5.98,1.21-12.68.42-17.34-3.53-5.23-4.43-8.1-12.67-14.91-13.42-3.38-.37-6.68,1.43-9.07,3.84-3.97,3.99-6.02,10.08-4.37,15.45,1.65,5.37,7.45,9.42,12.96,8.3,3.87-.79,9.35-3.02,10.64.72.54,1.58-.33,3.28-1.31,4.64-6.67,9.25-19.65,14.35-21.99,25.52,3.25,5.07,10.95,2.42,16.51.1,21.09-8.8,45.1-3.95,67.41,1.02,6.12,1.36,13.14,3.46,15.46,9.28,2.34,5.87-1.89,12.84-7.75,15.21-5.86,2.37-12.59,1.11-18.42-1.34s-11.12-6.02-16.95-8.47c-13.74-5.78-30.16-4.74-43.05,2.74-12.89,7.47-21.96,21.21-23.77,36-.94,7.68.26,16.16,5.66,21.7,11.52,11.83,34.2,3.92,45.92,15.55,5.63,5.58,6.94,14.14,7.03,22.06.14,12.28-1.93,24.49-1.89,36.77.03,12.28,2.46,25.16,10.34,34.57,2.34,2.8,5.33,5.33,8.93,5.89,6.34.99,11.84-4.27,15.64-9.44,16.5-22.44,22.86-51.13,39.62-73.38,7.43-9.86,17.2-19.23,18.37-31.52-11.53-3.82-22.15-10.35-30.75-18.92-3.82-3.8-7.42-8.46-7.51-13.85-.09-5.39,5.13-10.95,10.25-9.27,2.45.81,4.19,2.95,5.77,5,7.17,9.3,14.15,18.76,20.91,28.37,5.64-1.92,11.52-3.98,15.64-8.27,4.13-4.3,5.83-11.56,2.14-16.23-2.44-3.09-6.49-4.3-9.84-6.36-3.36-2.06-6.32-6.16-4.62-9.71,1.81-3.76,7.14-3.75,11.2-2.78,23.64,5.63,43.33,25.4,48.87,49.06,2.94-39.94-.79-80.78-14.93-118.25-9.15-24.24-22.78-46.94-40.58-65.82-4.46-4.73-21.11-24.56-28.32-21.14-3.5,1.66-4.47,12.92-6.2,16.57-2.82,5.95-6.81,11.36-11.75,15.72Z"/>
  <path class="cls-2" d="M638.3,607.36c-2.18,2.89-4.47,6.23-3.86,9.79.43,2.56,2.29,4.61,4.08,6.49,5.98-2.36,9.92-8.37,11.47-14.61.99-3.98,2.88-13.36-.21-16.44-4.43,3.96-7.87,9.98-11.48,14.77Z"/>
  <path class="cls-4" d="M370.91,553.18c2.02,3.79,1.37,8.44.15,12.55-1.22,4.12-2.98,8.17-3.06,12.47-.12,6.69,3.87,12.8,8.64,17.5,4.76,4.7,10.41,8.46,14.97,13.35,12.17,13.03,15.02,31.9,21.41,48.54,7.76,20.21,21.3,37.93,37.65,52.12-4.43-13.56-7.55-27.7-7.31-41.97.24-14.26,4.01-28.71,12.35-40.29,3.29-4.58,7.32-8.77,9.3-14.05,1.82-4.86,1.74-10.2,2.45-15.34.56-4.09,1.64-8.14,1.59-12.27-.05-4.13-1.46-8.53-4.84-10.91-2.04-1.43-4.55-1.98-6.99-2.53-5.92-1.35-11.88-3-17.03-6.22-5.21-3.25-9.33-7.94-13.74-12.21-9.08-8.76-20.14-16.1-32.62-17.95-7.74-1.15-31.47,1.69-31.56,12.85,3.4-.11,6.94,1.16,8.63,4.35Z"/>
  <path class="cls-4" d="M288.93,500.1c9.96,14.34,27.62,20.63,43.06,28.79,8.72,4.61,17,10.04,24.7,16.19-2.11-8.59-10.44-13.9-17.95-18.58-7.51-4.68-15.59-10.72-16.57-19.51-.67-5.96,2.36-11.98,7.02-15.76,5.87-4.77,14.84-6.04,21.09-1.79,5.44,3.7,7.76,10.41,10.25,16.5s6.11,12.58,12.42,14.45c1.93.57,4.34.49,5.53-1.12.75-1.02.81-2.38.66-3.64-.59-4.93-3.88-9.08-7.28-12.71-3.39-3.63-7.11-7.19-8.92-11.82-1.81-4.63-1.04-10.73,3.18-13.35,2.05-1.27,4.63-1.58,6.51-3.1,4.11-3.32,2.49-9.86,4.05-14.9,2.28-7.35,10.8-10.39,18.18-12.56,7.38-2.17,15.86-5.66,17.56-13.16.84-3.73.17-8.56,3.48-10.49,2.67-1.55,6.22.26,7.9,2.85s2.13,5.77,3.15,8.69c2.51.66,5.02-1.61,5.6-4.14.58-2.52-.21-5.14-.99-7.61-2.64-8.32-5.28-16.63-7.92-24.95-1.47-4.62-3.01-9.38-6.15-13.08-3.14-3.7-8.32-6.11-12.92-4.57-7.87,2.63-8.64,13.64-14.45,19.55-3.9,3.98-10.29,5.27-15.44,3.12-5.14-2.14-8.72-7.59-8.65-13.16.08-5.52,3.34-10.45,6.77-14.77,5.9-7.43,12.65-14.14,19.51-20.69,4.89-4.67,10.25-9.48,16.91-10.65,4.32-.76,9.91,1.19,10.26,5.57.22,2.79-1.8,5.19-3.57,7.37-2.32,2.85-4.45,6.02-5.12,9.63-.67,3.61.46,7.76,3.53,9.79,5.37,3.54,12.56-1.24,15.74-6.83,5.88-10.33,5.16-23.18,2.26-34.71-2.06-8.23-6.8-17.55-15.25-18.26-6.22-.52-11.69,4.03-15.71,8.81-4.02,4.78-7.64,10.3-13.28,12.98-6.05,2.89-13.82,1.67-18.7-2.94-2.77-2.61-4.87-6.31-8.52-7.39-4.76-1.41-9.41,2.36-12.68,6.11-5.78,6.62-10.54,14.06-15.28,21.47-21.51,33.62-46.61,70.72-50.46,111.53-1.11,11.75-.5,22.78,6.48,32.83Z"/>
  <path class="cls-1" d="M498.03,274.35c7.05.22,14.49,1,20.2,5.14,1.8,1.3,3.43,3.02,4,5.17.5,1.9.12,3.91-.43,5.79-3.05,10.57-11.08,20.25-9.63,31.16.69,5.19,3.02,11.72-1.27,14.73-1.2.84-2.79,1.21-3.61,2.42-2.65,3.9,5.93,8.05,4.35,12.49-.8,2.25-3.66,2.8-6.01,3.21-12.55,2.21-23.2,10.54-31.83,19.92-4.01,4.36-7.7,8.99-11.83,13.24-1.13,1.17-2.38,2.35-3.97,2.69-2.29.49-4.65-.99-5.84-3-1.19-2.01-1.45-4.44-1.5-6.77-.46-20.38,11.97-39.81,9.61-60.06-.43-3.68-1.4-7.41-3.69-10.32-2.29-2.91-6.11-4.82-9.73-4.03-5.69,1.25-9.21,8.45-15.02,8.22-3.89-.16-6.75-3.67-10.39-5.05-4.33-1.64-9.15-.08-13.78-.04-2.98.03-8.57-1.5-9.36-5.01-1.02-4.52,5.29-6.34,8.73-8.21,9.29-5.05,19.04-9.26,29.08-12.6,19.9-6.61,40.96-9.76,61.92-9.11Z"/>
  <path class="cls-3" d="M503.58,366.14c-2.98,1.1-3.66,4.94-3.87,8.11.97.48,1.96.91,2.98,1.29,2.99,1.12,6.15,1.78,9.34,1.95,1.4.08,2.99-.03,3.88-1.11,5.87-7.13-7.08-12.18-12.33-10.25Z"/>
  <path class="cls-5" d="M555.6,311.04c.72,3.23,2.74,6.79,6.04,6.95,1.89.09,3.67-1.04,4.85-2.52,3.17-3.98,9.53-16.17,1.82-17.75-7.75-1.59-14.3,6.18-12.71,13.32Z"/>
  <path class="cls-1" d="M421.1,697.67c-9.17-2.78-17.91-6.82-26.33-11.41-67.86-37-113.21-112.11-114.34-189.4,14.28,19.24,31.49,39.67,53.96,47.98,9.21,3.4,20.52,5.69,24.46,14.68,2.48,5.67,1.03,12.22,1.89,18.35,1.95,13.99,15,23.17,24.25,33.85,21.54,24.85,17.76,58.65,36.1,85.95Z"/>
  <path class="cls-1" d="M456.82,707.77c-11.4-16.69-6.54-39.48,1.64-57.96,8.18-18.48,19.44-36.58,19.85-56.79.11-5.6-.69-11.38-3.55-16.2-3.16-5.34-8.48-8.97-13.63-12.43-12.48-8.38-24.97-16.76-37.45-25.14-5.65-3.79-11.52-7.67-18.24-8.76-8-1.3-16.05,1.54-23.5,4.73-3.07,1.32-6.19,2.72-9.52,2.93-2.83.18-5.64-.52-8.35-1.34-7.86-2.37-15.4-5.79-22.36-10.15-8.54-5.35-17.03-14.95-13.47-24.38.44-1.15,1.07-2.28,2.07-3.01,2.18-1.6,5.41-.76,7.41,1.05,2,1.82,3.13,4.37,4.41,6.75,4.72,8.71,12.59,15.91,22.08,18.73,9.49,2.82,20.54.83,27.74-5.97,1.41-1.34,2.72-2.92,3.14-4.82.84-3.75-1.96-7.38-5.1-9.61-3.14-2.23-6.84-3.79-9.32-6.73-5.27-6.25-2.7-16.23,2.86-22.22,5.57-5.98,13.33-9.3,20.2-13.73,19.63-12.65,32.11-35.68,32-59.03-7.28-8.13-14.58-15.72-22.35-23.38-2.66-2.62-5.55-5.36-9.22-6.03-5.37-.98-10.51,2.86-13.67,7.31-3.16,4.45-5.16,9.7-8.73,13.83-1.05,1.21-2.58,2.41-4.11,1.91-.63-.21-1.13-.68-1.57-1.18-3.63-4.21-2.99-10.86,0-15.55,2.99-4.68,7.8-7.84,12.49-10.82,4.69-2.98,9.54-6.05,12.68-10.63,3.86-5.64,5.49-13.8,11.94-16.06.64,4.56-2.69,8.59-5.43,12.29-2.74,3.7-5.09,8.82-2.59,12.69,1.26,1.95,3.46,3.03,5.44,4.26,2.26,1.4,4.42,3.13,7.01,3.75,3.91.94,8.01-.88,11.11-3.44,10.3-8.51,11.79-23.69,10.58-37-.31-3.44-.79-6.98-2.56-9.94-3.04-5.09-9.22-7.37-15.07-8.33-8.9-1.47-18.15-.72-26.7,2.15-1.91.64-3.87,1.4-5.88,1.24-2.01-.16-4.1-1.57-4.24-3.58-.21-3.01,3.52-4.53,6.51-4.93,10.9-1.46,22.14-.3,32.51,3.35,4.09,1.44,8.37,3.29,12.6,2.32,1.23-.28,2.52-.8,3.72-.4,2.36.79,2.34,4.13,3.76,6.17.92,1.32,2.44,2.07,3.62,3.16,4.26,3.95,2.94,10.86,1.36,16.45-2.96,10.47-5.69,21.15-5.66,32.03.02,5.97.99,12.22,4.57,17.01,3.57,4.79,10.32,7.59,15.77,5.14,4.28-1.92,6.72-6.36,9.28-10.29,6.04-9.28,14.27-17.13,23.84-22.7,1.75,1.54,1.42,4.38.45,6.51s-2.43,4.14-2.53,6.47c-.18,3.95,3.84,7.08,7.79,7.36,3.95.28,7.72-1.5,11.22-3.34,3.97-2.07,8.08-4.48,10.18-8.42,2.11-3.95,1.18-9.83-2.96-11.53-4.18-1.72-10.11,1.12-12.92-2.42,3.35-4.21,8.87-6.24,14.24-6.55,5.37-.31,10.71.88,15.96,2.07,4.99,1.13,10.91,3.16,11.95,8.17,1.43,6.93-7.8,11.59-9.08,18.56-.94,5.13,2.6,10.86,0,15.38-2.79.12-4.51-2.89-6.68-4.64-3.26-2.64-8.14-2.46-11.9-.6-3.76,1.86-6.64,5.1-9.28,8.36-3.04,3.74-6,7.8-6.89,12.54-.88,4.74.92,10.31,5.3,12.34,3.41,1.58,8.74,1.84,8.99,5.59.08,1.21-.51,2.35-1.15,3.38-2.63,4.24-6.24,7.79-8.93,12-2.68,4.21-4.39,9.52-2.63,14.18,2.11,5.59,8.86,9.83,7.63,15.67-1.95,9.28-8.84,17.34-12.61,26.04-5.45,12.57-6.69,26.91-3.48,40.23.77,3.17,1.81,6.35,3.77,8.96,2.24,2.97,5.52,5,8.92,6.51,8.04,3.58,16.93,4.62,25.63,5.92,4.17.62,8.55,1.41,11.75,4.15,6.66,5.7,4.91,16.13,5.75,24.86.67,6.96,3.36,13.6,4.05,20.55.69,6.89-.59,13.85.06,20.74.85,8.98,4.91,17.3,8.9,25.39,4.75,1.12,7.55,8.84,7.63,13.72.08,4.87-2,9.5-4.16,13.87-2.1,4.26-4.39,8.56-7.97,11.68-4.77,4.16-11.23,5.69-17.43,6.94-19.48,3.92-39.26,6.33-59.11,7.21-9.71.43-24.91,3.43-30.39-4.6Z"/>
  <path class="cls-1" d="M580.13,700.8c59.11-25.72,106.33-77.46,126.56-138.66,2.47-7.48,4.58-15.22,4.5-23.1-.15-16.37-10.63-32.2-25.65-38.73-1.89,8.21-7.47,15.5-14.9,19.48-2.36,1.26-5.1,2.42-6.17,4.87-1.12,2.58.09,5.51.41,8.31.55,4.85-1.64,9.54-3.77,13.93-8.64,17.78-17.28,35.56-25.91,53.34-8.11,16.69-16.7,33.99-31.4,45.32-5.14,3.96-10.44,6.21-16.73,7.48-6.81,1.38-8.44.41-6.55,8.22,3.4,14.07,6.68,25.61-.4,39.56Z"/>
  <path class="cls-1" d="M566.76,456.72c5.83,1.04,11.29,3.52,16.73,5.86,5.65,2.43,11.59,4.77,17.73,4.47,1.82-.09,3.73-.4,5.41.33,1.67.73,2.78,3.07,1.55,4.42-.73.81-1.95.91-3.04.91-7.32-.02-14.7-2.69-21.84-1.09-1.95.44-3.93,1.19-5.88.79-2.39-.49-4.07-2.55-5.8-4.27-2.33-2.31-5.08-4.19-8.06-5.55-2.84-1.29-6.91-1.06-9.45-2.44-3.93-2.14.06-2.96,2.96-3.5,3.19-.59,6.51-.48,9.69.09Z"/>
  <path class="cls-1" d="M531.33,299.25c-3.98,11.92-12.21,22.08-16.13,34.02-.78,2.39-1.28,5.32.43,7.17,1.69,1.82,4.58,1.57,7.05,1.35,9.35-.8,18.91,1.05,27.28,5.29,2.06,1.05,4.46,2.26,6.57,1.31,2.55-1.16,2.86-4.54,3.71-7.21,2.66-8.39,12.66-11.69,21.37-12.99,8.71-1.3,18.56-2.36,23.98-9.31,1.56-2,2.63-4.46,2.59-6.99-.05-2.79-1.44-5.4-3.17-7.59-5.75-7.31-14.96-10.82-23.7-14-12.98-4.72-26.27-9.5-40.08-9.6-11.18-.08-7.2,10.48-9.89,18.55Z"/>
  <path class="cls-1" d="M611.66,319.11c1.44-1.88,2.77-3.91,4.69-5.31,1.91-1.4,4.62-2.04,6.66-.83,2.96,1.75,2.92,6.04,4.82,8.91.59.9,1.4,1.7,1.68,2.74.58,2.12-1.2,4.06-2.55,5.8-4.19,5.41-5.09,12.77-8.99,18.4-.47.68-1.01,1.35-1.75,1.69-1.47.67-3.27-.21-4.17-1.55-.89-1.34-1.1-3.02-1.25-4.62-.09-.99-.26-2.13-1.11-2.64-.39-.24-.87-.3-1.33-.33-3.65-.27-22.94,4.64-17.55-5.79,1.65-3.19,7.1-4.43,10.01-6.36,4.13-2.75,7.82-6.16,10.84-10.09Z"/>
  <path class="cls-6" d="M898.04,525.81c-10.73,2.03-21.02,2.77-30.58,2.21-7.96-.47-15.45-1.85-22.36-4.11,4.76-4.95,9.18-10.14,13.28-15.72,9.91-13.46,15.77-25.98,17.91-38.26,2.66-15.23-.91-30.4-9.54-40.58-4.63-5.46-11.06-9.55-18.1-11.52-7.31-2.04-14.8-1.61-21.09,1.22-10.43,4.69-18,12.97-22.5,24.61-3.61,9.36-5.38,21.94-4.5,32.05.87,9.97,4.97,19.79,11.86,28.38,6.51,8.13,15.08,14.7,24.78,19.01,1.35.6,2.72,1.16,4.11,1.69-11.44,11.47-24.78,21.7-40.27,32.58-4.66,3.27-10.76,3.98-17.16,2-6.02-1.86-11.58-5.85-15.28-10.95-6.52-8.99-8.85-20.35-11.1-31.35-.33-1.6-.67-3.26-1.02-4.88-3.34-15.61-8.19-30.98-14.4-45.69-2.76-6.53-6.5-13.53-13.26-15.89-3.55-1.23-7.09-.97-10.46.18-1.39-6.78-3.08-13.44-5-20.43-3.77-13.75-9.15-31.59-17.22-47.67-8.45-16.82-18.59-29.41-31.02-38.51-2.01-1.47-4.13-2.89-6.18-4.25-5.83-3.89-11.85-7.9-15.81-13.61-.75-1.08-1.45-2.23-2.2-3.44-2.92-4.74-5.93-9.64-11.47-10.31-.42-.05-.82.15-1.03.52s-.18.82.07,1.15c4.09,5.38,5.81,12.56,4.61,19.21-.52,2.91-1.51,4.96-3.01,6.27-1.82,1.6-4.32,2.04-6.97,2.52-1.8.32-3.66.65-5.39,1.37-3.73,1.56-6.36,4.69-8.9,7.72-2.62,3.12-5.1,6.08-8.62,7.28-2.58.88-5.45.67-7.91.35-5.99-.78-11.79-2.5-17.24-5.12-1.82-.87-3.17-1.72-3.89-3-.82-1.47-.71-3.59.31-5.68,2.76-5.67,9.52-8.75,20.65-9.43l1.15-.07c8.03-.48,17.12-1.02,22.87-7.07,3.59-3.78,5.1-9.14,4.24-15.09-.78-5.45-3.46-10.78-7.35-14.65-7.24-7.19-17.21-10.42-26.84-13.53l-1.57-.51c-3.04-.99-6.13-2.03-9.12-3.04-9.73-3.28-19.79-6.67-30.03-8.84-24.97-5.28-48.88-6.4-73.1-3.43-22.61,2.78-44.85,9.72-66.1,20.64-20.62,10.6-39.43,24.47-55.91,41.23-15.89,16.16-29.66,34.99-40.91,55.98-10.82,20.17-19.16,42.01-24.79,64.93-1.39,5.65-2.63,11.65-1.26,17.45,1.78,7.54,7.7,13.36,12.46,18.05,6.76,6.66,14.42,14.2,23.87,18.24.32.13.68.11.97-.08.29-.18.47-.49.49-.84.31-6.94,1.51-16.51,8.33-19.39,6.56-2.77,14.14,2.65,17.95,9.16,1.48,2.53,2.7,5.31,3.87,8,1.96,4.47,3.98,9.09,7.31,12.84,4.54,5.12,11.33,8.17,18.17,8.17h.1c1.5,0,3.42-.16,4.97-1.29,2.88-2.11,2.82-6.57.95-9.41-1.66-2.53-4.27-4.06-6.78-5.54l-.42-.25c-4.24-2.5-9-5.65-12.17-10.15-3.27-4.62-4.22-10.19-2.5-14.54,1.94-4.87,6.82-7.96,12.08-10.96l26.97-15.34c2.77-1.58,11.21-6.37,10.14-13.51-.24-1.63-.97-3.16-1.66-4.63-1.04-2.18-1.93-4.07-1.17-5.85,1.03-2.4,3.61-2.4,7.73-2.2,2.5.12,5.08.25,7.34-.54,8.62-3,6.23-15.88,5.29-19.76-1.79-7.42-4.06-14.98-10.3-18.85-.65-.4-1.32-.75-1.98-1.09-1.28-.66-2.49-1.29-3.39-2.23-.94-.99-1.53-2.31-2.15-3.7-.83-1.85-1.68-3.76-3.44-5.03-1.52-1.09-3.39-1.44-5.4-1-2.67.58-5.31,2.56-6.72,5.03-1.57,2.76-2.12,5.87-2.64,8.88-.21,1.19-.42,2.43-.7,3.6-1.64,6.98-5.49,8.44-6.63,8.71-3.03.75-6.14-1.01-7.73-2.13-5.77-4.06-9.27-11.24-8.93-18.28.34-7.05,4.53-13.85,10.66-17.33,2.59-1.47,5.62-2.46,8.54-3.43,5.23-1.72,10.63-3.5,13.95-8.07,1.37-1.89,2.2-4.05,3-6.14.59-1.53,1.14-2.97,1.89-4.33,1.69-3.04,5.14-5.48,8-4.31,1.22.5,2.04,1.42,2.43,2.75.89,3.05-.58,7.4-2.49,10.11l-.31.45c-3.27,4.64-7.34,10.41-4.4,15.68,2.25,4.03,7.62,4.94,11.51,3.49,3.29-1.23,6.2-3.9,8.9-8.17,5.2-8.24,7.56-18.12,6.63-27.82-.51-5.34-1.99-9.35-4.52-12.25-2.98-3.41-7.25-5.24-12.69-5.45-5.49-.21-10.8,1.3-14.28,2.6-1.61.6-3.25,1.27-4.84,1.91-6.79,2.75-13.81,5.59-20.79,4.45-2.86-3.31-2.09-8.82.38-12.34,2.8-4,7.42-6.53,11.5-8.76l35.39-19.39c1.51-.83,9.19-4.75,12.01-.58.87,1.28.96,3.01.98,4.67.02,1.52,0,3.09-.02,4.62-.09,7.72-.18,15.7,4.33,22.02,3.66,5.13,9.77,8,14.68,10.3,1.14.54,2.28,1.07,3.44,1.61-.06.45-.14.91-.23,1.36-.81,4.09-2.56,8.04-4.26,11.85-.54,1.22-1.1,2.48-1.62,3.73-2.82,6.72-4.83,13.79-5.99,20.98-.74,4.59-1.25,9.97.57,14.98.9,2.47,3.63,9.97,10.14,10.07h.02c.48,0,.89-.32,1.01-.78,2.52-9.67,10.61-16.72,16.95-20.93,4.17-2.77,8.71-5.16,13.09-7.47,3.83-2.01,7.78-4.1,11.52-6.44,1.1-.69,2.21-1.42,3.28-2.12,4.8-3.15,9.76-6.41,15.33-7.19,3.65-.51,7.67-.01,12.65,1.58,7.22,2.31,14.15,6.12,20.03,11.04,2.3,1.92,3.64,4.63,3.79,7.63.14,3-.93,5.82-3.03,7.96-.31.32-.62.63-.94.94-.7.71-1.43,1.44-2.11,2.17-4.28,4.56-7.05,11.56-3.03,16.14,1.57,1.79,3.87,2.69,5.72,3.41,3.8,1.49,8.52,3.34,13.23,2.57,2.78-.46,5.49-2.16,7.07-4.45,1.25-1.82,1.71-3.81,1.31-5.77-.13-.65-.35-1.28-.56-1.89-.61-1.77-.91-2.83.08-3.81.22-.22.5-.41.84-.58,3.17-1.59,7.6-3.06,10.7-1.02,2.58,1.7,3.15,5.21,2.59,7.76-.56,2.55-2.11,5.05-4.86,7.88-6.02,6.18-14.06,10.47-22.63,12.08-.54.1-.87-.23-.99-.37-.25-.31-.3-.72-.15-1.08.44-1.02.71-1.98.84-2.92.31-2.42-.59-5.57-3.3-6.76-.09-.04-.19-.07-.29-.08-4.39-.56-7.01,3.77-9.1,7.24-.22.36-.44.72-.65,1.07-.96,1.56-2.15,3.06-3.59,4.52-.97-3.09-2.48-6.01-3.99-8.73-1.83-3.28-5.55-5.1-9.28-4.52-3.95.61-6.97,1.62-9.5,3.19-4.45,2.75-8.1,8.67-6.11,14.21,1.77,4.93,7.34,7.34,11.92,7.17,4.07-.15,8.19-1.81,12.95-5.22.78-.56,1.53-1.13,2.23-1.69-.13.37-.31.72-.53,1.05-1.23,1.78-1.36,4.15-1.49,6.44-.08,1.42-.16,2.89-.51,4.14-.91,3.25-3.92,5.51-6.82,7.69-.63.48-1.29.97-1.91,1.46-5.43,4.31-9.58,10.02-11.99,16.52-.69,1.85-1.4,4.28-.79,6.65,1.15,4.46,6.47,6.53,10.72,5.66,4.23-.87,7.56-3.81,10.34-6.5.24-.23.48-.47.72-.7,2.5-2.43,5.09-4.95,8.24-6.21,2.99-1.2,6.38-1.23,9.87-1.16,7.6.16,15.29.67,22.84,1.49,2.37.26,4.63.6,6.25,1.87,1.06.83,1.81,2.03,2.61,3.3.83,1.32,1.69,2.69,2.96,3.74,3.51,2.89,7.97,2.02,12.28,1.18,3.2-.62,6.51-1.27,9.32-.33,1.53.51,3.06,1.84,2.91,3.32-.09.83-.68,1.6-1.24,2.25-3.82,4.4-9.8,6.89-15.62,6.51-1.87-.12-3.82-.53-5.71-.92-3.8-.79-7.73-1.61-11.54-.29-.71.24-1.39.56-2.05.86-1.17.54-2.28,1.05-3.42,1.12-2.39.14-4.55-1.62-6.65-3.32l-.07-.06c-8.33-6.77-15.9-9.94-23.13-9.68-6.07.21-12.48,2.96-19.06,8.15-14.06,11.11-23.29,28.26-24.69,45.87-.58,7.34.36,13.21,2.88,17.93,2.95,5.53,8.45,10,15.48,12.57,5.36,1.96,11.2,2.71,16.89,2.18,2.14-.2,4.34-.57,6.48-.93,6.55-1.1,12.74-2.14,17.78,1.1.29.19.62.43.71.67.15.4-.28,1.1-.62,1.67-3.31,5.52-4.32,10.27-3.02,14.11,1.01,2.95,3.4,4.59,5.32,5.9.71.49,1.38.94,1.91,1.41,1.78,1.57,4.3,9.33,4.27,10.68-.35,15.37,1.54,30.69,5.61,45.51.57,2.06,1.19,4.04,2.6,5.61,2.49,2.78,6.17,3.05,9.72,3.31.76.06,1.52.11,2.27.2-3.93,1.96-6.91,5.5-8.16,9.78-2.97,10.15-6.61,20.82-13.11,30.1-11.21,16.01-30.92,26.99-54.07,30.11l-.77.1c-21.7,2.93-48.71,6.57-69.19,1.63-23.05-5.56-48.75-19.09-78.55-41.37-14.02-10.48-21.3-19.78-30.53-31.54-3.3-4.2-6.7-8.55-10.75-13.37-7.08-8.45-13.74-16.85-17.35-26.79-.66-1.83-1.27-3.95-.78-5.83.53-2.02,2.34-3.69,3.79-5.03,14.35-13.22,29.11-26.83,45.84-37.42,1.38.26,2.73.34,4.05.24.42-.03.85-.08,1.26-.13,1.49-.17,2.9-.33,3.96.29,1.49.87,1.78,3.12,1.3,4.8-.42,1.44-1.25,2.73-2.13,4.1-.32.5-.66,1.02-.97,1.56-2.96,5-3.91,11.14-2.68,17.29,1.23,6.15,4.47,11.45,9.12,14.93,2.24,1.68,4.68,3.31,7.03,4.89,6.44,4.32,13.1,8.78,17.17,14.96,3.96,6,5.62,13.31,7.22,20.38.13.59.27,1.17.4,1.76,4,17.44,8.67,30.83,14.71,42.14,7.68,14.38,17.98,25.82,29.79,33.08.39.24.9.2,1.25-.12.35-.31.44-.81.24-1.23-4.96-10.18-7.65-18.22-8.71-26.06-2.48-18.32,4.15-36.74,10-53,.65-1.81,1.48-3.78,3.07-4.3.45-.15.98-.18,1.54-.21.49-.03,1-.06,1.52-.16,5.05-1.04,6.11-7.74,6.46-9.95l4.19-26.46c.67-4.23,1.13-8.66-1.16-12.16-2.82-4.3-7.99-5.02-13-5.72-1.65-.23-3.35-.47-4.9-.83-8.28-1.95-14.17-8.27-20.41-14.95-2.27-2.44-4.63-4.97-7.08-7.22-9.13-8.38-19.93-12.9-30.42-12.72-9.89.17-18.94,4.46-25.72,8.17-2.54,1.4-5.04,2.86-7.49,4.4-2.93-.71-6.06-2.32-9.47-4.86-1.19-.89-2.38-1.85-3.54-2.77-2.94-2.36-5.97-4.81-9.47-6.48-4.28-2.05-9-2.84-13.57-3.6-4.82-.81-9.37-1.56-13.5-3.67-6.33-3.23-11.41-9.55-15.53-19.33-1.14-2.69-2.17-5.5-3.16-8.21-1.96-5.35-4-10.88-6.96-15.91-.15-.25-.4-.43-.68-.49-.29-.06-.58,0-.82.17-1.93,1.38-2.27,3.9-2.34,6.18-.73,23.62,3.22,49.29,11.42,74.24,1.28,3.89-.19,8.2-3.56,10.49-4.39,2.98-26.96,18.02-40.11,21.5-17.06,4.52-33.75,2.68-45.78-5.05-2.3-1.48-4.39-3.15-6.21-4.97,5.66-1.24,10.55-3.07,13.72-5.73,3.84-3.22,6.94-7.23,8.74-11.27,2.13-4.8,2.36-9.52.66-13.63-1.57-3.82-4.84-6.75-9.19-8.26-4.8-1.67-10.14-1.28-14.28,1.04-7.56,4.23-11.74,14.12-9.94,23.52.88,4.6,3.06,9.06,6.28,13.02-8.54,1.44-19.63,1.96-32.79,1.46-20.56-.77-39.97-3.84-45.2-6.23-4.08-1.86-8.08-3.76-11.82-5.89,16.49-24.7,25.05-49,25.5-72.5.08-4.21-.09-9.12-1.94-13.57-2.26-5.45-6.96-9.64-13.23-11.8-5.96-2.05-12.59-1.95-18.17.3-10.43,4.19-18.48,14.92-21,28.01-2.42,12.57.16,25.59,2.67,35.53,2.05,8.13,4.7,16.6,10.1,23.51,3.58,4.59,8.09,8.15,13.09,11.19-4.82,7.07-10.3,14.16-16.44,21.29-14.55,16.91-29.2,30.19-44.29,40.12v2.5c15.67-10.12,30.83-23.77,45.87-41.26,6.21-7.22,11.77-14.42,16.66-21.59,3.84,2.2,7.94,4.15,12.12,6.05,5.41,2.47,25.19,5.64,46,6.42,9.26.35,23.06.36,34.45-1.74,2.16,2.31,4.68,4.42,7.52,6.24,8.04,5.16,18.03,7.81,28.83,7.81,6.03,0,12.3-.82,18.61-2.5,13.48-3.57,36.31-18.78,40.75-21.8,4.14-2.81,5.94-8.1,4.37-12.87-8.12-24.72-12.04-50.14-11.32-73.52.04-1.33.16-2.66.67-3.61,2.5,4.53,4.32,9.5,6.09,14.31,1.01,2.74,2.05,5.57,3.2,8.3,4.33,10.25,9.73,16.91,16.51,20.37,4.41,2.25,9.34,3.08,14.1,3.87,4.42.74,9,1.5,13.01,3.42,3.28,1.57,6.22,3.94,9.06,6.22,1.17.94,2.37,1.91,3.6,2.82,2.95,2.2,5.73,3.75,8.38,4.67-16.22,10.52-30.57,23.75-44.53,36.61-1.65,1.52-3.7,3.41-4.39,6.03-.64,2.43.06,4.94.84,7.07,3.72,10.26,10.5,18.82,17.71,27.42,4.02,4.79,7.42,9.13,10.7,13.32,9.32,11.89,16.69,21.28,30.93,31.93,30.03,22.45,55.97,36.1,79.31,41.73,7.48,1.81,15.78,2.49,24.36,2.49,15.34,0,31.57-2.19,45.6-4.08l.77-.1c23.73-3.2,43.96-14.49,55.51-30.98,6.67-9.52,10.38-20.39,13.4-30.71,1.26-4.32,4.55-7.76,8.79-9.21.36-.13.72-.26,1.08-.39.37.13.72.29,1.06.46,6.39,3.32,5.32,13.35,4.84,16.35-1.2,7.53-3.55,13.02-7.18,16.79-2.3,2.39-5.28,4.25-8.17,6.06-4.41,2.76-8.97,5.6-11.34,10.41-.92,1.87-1.34,4.82-.08,6.89.76,1.24,2.03,1.94,3.58,1.96.69.02,1.4-.12,2.11-.39,30.99-11.69,59.51-33.66,82.45-63.54,19.25-25.08,34.61-55.31,46.95-92.44,3.78-11.35,6.84-24.36.91-34.7-4.67-8.15-13.86-12.42-20.37-14.93-1.78-.68-3.61-1.34-5.38-1.97-5.95-2.13-12.1-4.33-17.23-8.02-.62-.44-1.25-.92-1.85-1.39-2.54-1.95-5.16-3.96-8.45-4.47-2.55-.4-5.51.75-7.19,2.79-1.26,1.53-1.62,3.31-1.01,5,.45,1.24,1.42,2.37,2.88,3.35,3.02,2.03,6.59,2.68,10.05,3.32.91.17,1.85.34,2.75.53,3.58.77,8.18,2.48,9.75,6.27,1.6,3.86-.61,8.4-3.52,11.19-2.06,1.98-4.48,3.45-7.05,5-1.37.83-2.78,1.69-4.13,2.63-3.38,2.35-6.35,5.24-9.23,8.03-1.15,1.11-2.33,2.26-3.53,3.36-4.24-.69-8.02-2.83-11.38-5.66,0-.06.02-.12.03-.18.08-.55.16-1.11.23-1.67,1.52-12.34-3.83-25.23-13.62-32.83-.43-.33-.88-.57-1.36-.7-.83-.23-1.64-.14-2.33.27-1.26.75-1.78,2.29-1.98,3.14-1.69,7.23,2.17,14.18,6.58,20.62,2.84,4.15,6.22,8.6,10.22,12.18-.19,1.48-.32,2.99-.13,4.53.29,2.4,1.7,5.53,4.7,6.47,2.55.8,5.4-.2,8.7-3.06.34-.3.68-.6,1.02-.9.45.05.91.09,1.38.11.28.01.57.02.86.03,2.47.08,5.02.17,5.89,1.89.64,1.26.06,2.95-.58,4.43-3.62,8.26-9.19,15.7-16.1,21.5-.38.32-.76.63-1.14.94-1.99,1.63-4.06,3.32-5.51,5.57-3.08,4.76-2.67,10.56-2.28,16.17.39,5.57.76,10.82-2.05,14.99-1.23,1.82-2.95,3.22-4.77,4.71-1.76,1.43-3.57,2.92-4.95,4.83-2.02,2.8-2.84,6.14-3.64,9.37-.29,1.17-.58,2.37-.93,3.52-2.53,8.34-9.4,15.32-18.53,18.96-1.86-.54-3.84-.69-5.77-.83-3.29-.24-6.39-.48-8.32-2.63-1.1-1.23-1.64-2.96-2.14-4.77-4.01-14.63-5.87-29.75-5.53-44.92.04-1.83-2.63-10.2-4.98-12.28-.63-.56-1.35-1.05-2.12-1.58-1.84-1.26-3.74-2.56-4.52-4.85-1.1-3.23-.15-7.39,2.83-12.36.54-.9,1.28-2.14.78-3.48-.3-.81-.95-1.31-1.54-1.69-5.72-3.68-12.6-2.52-19.26-1.4-2.1.35-4.26.72-6.32.91-5.38.51-10.9-.21-15.97-2.06-6.55-2.39-11.65-6.51-14.35-11.59-2.32-4.36-3.19-9.85-2.64-16.79,1.35-17.04,10.28-33.64,23.9-44.39,6.22-4.92,12.22-7.51,17.84-7.71,6.72-.23,13.82,2.78,21.74,9.22l.07.06c2.29,1.86,4.89,3.97,8.09,3.79,1.54-.09,2.88-.71,4.18-1.31.64-.29,1.24-.57,1.85-.78,3.27-1.13,6.75-.4,10.44.36,1.95.41,3.98.83,6,.96,6.45.42,13.09-2.34,17.33-7.22.73-.84,1.59-1.99,1.74-3.41.27-2.59-1.97-4.73-4.33-5.52-3.33-1.11-6.92-.41-10.38.26-4.01.78-7.8,1.52-10.56-.74-1.01-.84-1.75-2-2.52-3.23-.86-1.36-1.74-2.78-3.09-3.83-2.06-1.61-4.63-2.01-7.31-2.31-7.62-.84-15.36-1.34-23.03-1.51-3.72-.08-7.33-.04-10.69,1.31-3.53,1.41-6.27,4.08-8.91,6.65-.24.23-.48.47-.72.7-2.57,2.49-5.63,5.21-9.31,5.96-3.24.66-7.44-.87-8.28-4.14-.46-1.8.15-3.83.73-5.4,2.28-6.14,6.19-11.54,11.32-15.6.6-.48,1.24-.96,1.87-1.43,3.18-2.39,6.48-4.86,7.58-8.8.41-1.46.5-3.05.58-4.58.12-2.1.23-4.08,1.12-5.37.87-1.26,1.27-2.77,1.15-4.26,1.97-1.86,3.56-3.78,4.81-5.81.22-.35.44-.72.66-1.09,1.84-3.06,3.93-6.52,6.9-6.27,1.55.78,2.14,2.83,1.93,4.52-.1.75-.32,1.52-.68,2.36-.46,1.07-.3,2.3.43,3.22.72.9,1.87,1.33,3.01,1.12,8.99-1.68,17.42-6.18,23.74-12.67,3.04-3.12,4.75-5.94,5.4-8.89.87-3.94-.56-8.03-3.48-9.96-3.94-2.59-9.13-.94-12.79.9-.54.27-1.01.6-1.38.97-1.96,1.96-1.2,4.18-.58,5.97.2.57.38,1.11.49,1.63.36,1.75-.34,3.24-.98,4.17-1.27,1.83-3.44,3.2-5.69,3.57-4.14.68-8.38-.98-12.13-2.45-1.72-.68-3.67-1.44-4.91-2.85-3.37-3.85-.06-10.09,2.99-13.34.66-.71,1.38-1.43,2.07-2.12.32-.32.63-.63.94-.95,2.48-2.52,3.8-5.99,3.63-9.52-.17-3.54-1.82-6.86-4.54-9.13-6.08-5.09-13.25-9.04-20.73-11.43-5.29-1.69-9.61-2.22-13.58-1.66-6.03.85-11.19,4.24-16.18,7.52-1.06.7-2.16,1.42-3.24,2.1-3.67,2.3-7.59,4.37-11.38,6.37-4.43,2.33-9.01,4.74-13.27,7.57-9.2,6.11-15.26,13.45-17.58,21.3-3.07-.44-5.44-3.21-7.41-8.63-1.66-4.57-1.17-9.61-.48-13.94,1.14-7.04,3.1-13.94,5.86-20.51.52-1.23,1.07-2.48,1.61-3.68,1.74-3.92,3.54-7.97,4.4-12.3.06-.28.11-.57.15-.85,5.9,2.73,11.95,5.38,18.15,7.48,4.8,1.63,9.17,2.45,13,2.46h.01c4.96,0,9.02-1.39,12.06-4.13,4.84-4.35,5.85-10.85,6.83-17.14.56-3.62,1.15-7.37,2.46-10.64,1.19-2.98,2.98-5.62,4.88-8.41,1.77-2.6,3.6-5.29,4.87-8.27,1.75-4.09,1.86-9.12.27-12.81-1.1-2.57-2.96-4.4-5.35-5.29-2.29-.85-4.76-.71-7.08-.49-11.52,1.07-22.83,3.72-33.62,7.87-12.66,4.87-20.9,11.08-25.2,18.98-1.19,2.19-3.64,7.76-.65,12.16.71,1.04,1.62,1.84,2.51,2.62.45.4.88.78,1.28,1.18,2.62,2.65,3.95,6.72,3.79,11.3-.92-.43-1.83-.86-2.74-1.29-4.94-2.32-10.53-4.95-13.87-9.63-4.11-5.76-4.02-13.4-3.94-20.79.02-1.54.04-3.13.02-4.67-.03-1.89-.15-4.05-1.34-5.81-3.74-5.53-12.23-1.46-14.75-.09l-35.39,19.39c-4.28,2.34-9.12,5-12.21,9.39-2.97,4.24-3.97,11.01.04,15.23.15.16.35.27.57.31,1.34.24,2.68.35,4,.35,6.27,0,12.37-2.47,18.29-4.87,1.57-.64,3.2-1.3,4.78-1.89,4.02-1.5,17.67-5.77,24.67,2.27,2.24,2.56,3.55,6.19,4.02,11.08.89,9.24-1.36,18.66-6.31,26.51-2.44,3.87-5.02,6.27-7.86,7.33-3,1.11-7.28.46-8.96-2.55-2.3-4.12,1.2-9.08,4.28-13.46l.32-.45c2.13-3.03,3.91-8.05,2.78-11.9-.57-1.94-1.83-3.36-3.64-4.1-4.08-1.66-8.52,1.45-10.62,5.23-.82,1.48-1.43,3.06-2.02,4.59-.79,2.05-1.53,3.99-2.74,5.66-2.92,4.03-7.77,5.62-12.91,7.31-3.02.99-6.14,2.02-8.92,3.6-6.74,3.83-11.34,11.3-11.72,19.04-.38,7.74,3.48,15.63,9.81,20.09,2.29,1.61,5.78,3.35,9.43,2.45,5.52-1.35,7.55-7.63,8.17-10.26.29-1.23.51-2.5.72-3.72.52-2.96,1.01-5.76,2.4-8.2,1.14-1.98,3.24-3.57,5.36-4.03.99-.21,2.44-.27,3.74.66,1.3.94,2.01,2.52,2.75,4.19.67,1.49,1.36,3.04,2.54,4.29,1.14,1.2,2.57,1.94,3.94,2.65.65.33,1.26.65,1.84,1.01,5.56,3.45,7.68,10.57,9.37,17.57.83,3.44,3.01,14.87-3.95,17.29-1.88.65-4.26.54-6.55.43-3.98-.19-8.09-.39-9.75,3.46-1.13,2.64.05,5.15,1.2,7.57.63,1.34,1.29,2.72,1.49,4.05.57,3.85-2.41,7.57-9.11,11.39l-26.97,15.34c-5.6,3.18-10.81,6.5-12.99,12-1.98,5-.94,11.32,2.73,16.51,3.41,4.82,8.39,8.14,12.82,10.75l.43.25c2.31,1.36,4.7,2.76,6.1,4.88,1.31,2,1.45,5.19-.44,6.57-1.07.78-2.56.88-3.74.89h-.09c-6.25,0-12.46-2.79-16.61-7.47-3.11-3.51-4.97-7.78-6.95-12.3-1.2-2.75-2.44-5.59-3.99-8.22-2.16-3.69-5.37-6.92-8.79-8.86-4.06-2.3-8.13-2.7-11.77-1.17-7.39,3.12-9.06,12.36-9.52,19.69-8.48-4.01-15.56-10.99-21.86-17.19-4.56-4.49-10.24-10.09-11.89-17.04-1.27-5.35-.07-11.07,1.25-16.47,5.59-22.75,13.87-44.43,24.61-64.44,11.16-20.81,24.8-39.48,40.56-55.5,16.33-16.6,34.96-30.34,55.38-40.83,21.03-10.81,43.03-17.68,65.4-20.42,23.99-2.95,47.67-1.83,72.41,3.4,10.12,2.14,20.12,5.51,29.79,8.77,2.99,1.01,6.09,2.05,9.14,3.04l1.57.51c9.4,3.04,19.13,6.19,26.02,13.03,3.57,3.55,6.04,8.45,6.75,13.46.76,5.3-.55,10.04-3.69,13.35-5.18,5.45-13.46,5.94-21.48,6.42l-1.16.07c-11.95.73-19.28,4.2-22.4,10.6-1.34,2.74-1.43,5.52-.26,7.61,1.04,1.87,2.93,2.96,4.81,3.87,5.65,2.72,11.66,4.5,17.88,5.31,2.7.35,5.87.58,8.86-.45,4.08-1.39,6.86-4.71,9.55-7.92,2.49-2.97,4.84-5.77,8.1-7.13,1.52-.63,3.19-.93,4.96-1.24,2.81-.5,5.72-1.02,7.98-3,1.87-1.63,3.07-4.08,3.68-7.47,1.12-6.23-.12-12.9-3.34-18.36,3.06,1.59,5.21,5.09,7.31,8.51.73,1.19,1.48,2.41,2.26,3.54,4.19,6.04,10.38,10.17,16.37,14.16,2.03,1.35,4.13,2.75,6.11,4.2,12.15,8.9,22.09,21.25,30.39,37.76,7.99,15.92,13.32,33.63,17.07,47.29,1.94,7.07,3.64,13.8,5.04,20.66-4.48,2.01-8.55,5.45-11.75,8.73-3.31,3.4-5.81,6.59-7.65,9.74-2.28,3.91-2.88,8.64-1.66,12.99,1.2,4.29,4.01,7.81,7.89,9.91.62.33,1.24.63,1.86.88,4.27,1.76,10.23,1.8,13.91-2.07,3.35-3.52,3.48-8.71,3.12-13.79-.64-9.06-1.79-17.19-3.33-25.11,3.04-1.09,6.22-1.36,9.36-.27,6,2.09,9.45,8.62,12.03,14.73,6.16,14.59,10.96,29.83,14.28,45.31.34,1.61.68,3.27,1.01,4.87,2.3,11.21,4.68,22.8,11.46,32.15,3.95,5.46,9.91,9.73,16.35,11.72,7.03,2.18,13.77,1.36,18.98-2.29,15.9-11.16,29.55-21.66,41.24-33.51,7.34,2.51,15.34,4.04,23.85,4.54,9.73.57,20.19-.18,31.09-2.24,24.28-4.58,46.9-14.4,68.68-25.45v-2.35c-21.94,11.18-44.7,21.15-69.06,25.75ZM367.88,545.46c6.57-3.6,15.33-7.76,24.75-7.92,9.96-.17,20.24,4.15,28.98,12.17,2.4,2.2,4.72,4.7,6.97,7.11,6.17,6.62,12.56,13.47,21.46,15.56,1.64.39,3.39.63,5.09.87,4.76.66,9.25,1.29,11.54,4.79,1.89,2.88,1.48,6.7.85,10.69l-4.19,26.46c-.8,5.03-2.37,7.72-4.82,8.23-.38.08-.79.1-1.22.13-.67.04-1.36.08-2.07.31-2.7.88-3.8,3.94-4.39,5.59-5.93,16.48-12.66,35.16-10.11,53.99.97,7.18,3.25,14.49,7.31,23.33-10.21-7.09-19.14-17.49-25.96-30.27-5.95-11.15-10.56-24.37-14.52-41.63-.13-.58-.27-1.17-.4-1.75-1.65-7.25-3.35-14.75-7.51-21.07-4.31-6.53-11.14-11.12-17.75-15.55-2.33-1.56-4.74-3.18-6.94-4.83-8.77-6.56-11.47-20.06-5.89-29.49.29-.5.62-1,.93-1.49.92-1.43,1.88-2.92,2.38-4.65.73-2.5.19-5.77-2.25-7.19-.97-.56-2.02-.73-3.06-.73-.75,0-1.49.08-2.19.16-.41.05-.8.09-1.18.12-.32.02-.65.04-.97.03,1.7-1.03,3.43-2.02,5.17-2.98ZM100.46,572.23c-4.85-2.95-9.2-6.37-12.62-10.75-5.16-6.6-7.72-14.83-9.72-22.74-2.46-9.73-4.99-22.46-2.64-34.62,2.39-12.4,9.94-22.54,19.73-26.46,2.68-1.08,5.62-1.62,8.61-1.62,2.72,0,5.48.45,8.11,1.35,5.7,1.96,9.95,5.74,11.99,10.63,1.7,4.1,1.85,8.73,1.78,12.73-.44,23.13-8.91,47.08-25.22,71.48ZM194.45,583.51c-3.41-3.91-5.71-8.38-6.59-12.98-1.64-8.54,2.11-17.5,8.91-21.3,2.13-1.19,4.63-1.8,7.19-1.8,1.8,0,3.63.3,5.38.91,3.78,1.31,6.6,3.83,7.94,7.09,1.48,3.57,1.26,7.72-.64,11.99-1.67,3.76-4.57,7.5-8.17,10.52-2.88,2.42-7.63,4.29-14.03,5.58ZM635.54,521.42c-.02.14-.03.28-.05.42-3.41-3.27-6.35-7.19-8.86-10.85-4.14-6.04-7.77-12.52-6.27-18.96.2-.88.59-1.57,1.01-1.82.09-.05.21-.11.39-.11.09,0,.2.01.32.05.21.06.42.17.64.34,9.23,7.16,14.26,19.3,12.83,30.93ZM640.32,533.36c-1.92-.6-3.02-2.8-3.25-4.73-.11-.88-.09-1.76-.02-2.66,2.92,2.29,6.16,4.07,9.74,4.95-2.6,2.19-4.72,2.98-6.47,2.44ZM617.58,620.06c.36-1.2.67-2.43.96-3.63.78-3.18,1.52-6.17,3.3-8.64,1.22-1.69,2.85-3.02,4.58-4.43,1.86-1.52,3.78-3.09,5.18-5.16,3.21-4.76,2.8-10.63,2.4-16.3-.38-5.51-.75-10.72,1.95-14.89,1.28-1.98,3.13-3.49,5.08-5.09.39-.32.78-.64,1.16-.96,7.16-6.01,12.92-13.71,16.67-22.26.8-1.82,1.58-4.17.53-6.22-1.44-2.82-4.9-2.93-7.68-3.03-.06,0-.13,0-.19,0,.74-.7,1.47-1.41,2.19-2.11,2.82-2.73,5.73-5.56,8.97-7.82,1.29-.9,2.67-1.74,4.02-2.55,2.55-1.55,5.19-3.15,7.41-5.28,3.42-3.28,5.98-8.73,4-13.5-1.52-3.66-5.4-6.26-11.24-7.51-.93-.2-1.89-.38-2.81-.55-3.4-.62-6.6-1.21-9.26-3-1.08-.73-1.78-1.51-2.08-2.33-.45-1.25.11-2.3.66-2.97,1.22-1.47,3.43-2.34,5.26-2.06,2.76.43,5.06,2.19,7.5,4.06.62.47,1.26.97,1.9,1.43,5.37,3.86,11.66,6.11,17.75,8.29,1.75.63,3.57,1.28,5.33,1.95,6.21,2.39,14.98,6.45,19.31,14.02,5.5,9.6,2.73,21.53-1.08,33-12.27,36.9-27.52,66.94-46.63,91.83-22.71,29.57-50.9,51.31-81.53,62.86-.46.17-.91.26-1.34.25-.85-.01-1.45-.33-1.83-.97-.7-1.15-.63-3.25.17-4.87,2.11-4.27,6.22-6.84,10.57-9.56,3-1.88,6.1-3.81,8.57-6.38,3.93-4.09,6.47-9.95,7.74-17.91.43-2.66.75-6.62-.16-10.41-.86-3.62-2.61-6.24-5.23-7.81,8.79-4.05,15.35-11.13,17.89-19.49ZM539.8,417.85c-4.42,3.16-8.17,4.7-11.82,4.83-3.82.14-8.44-1.81-9.87-5.79-1.62-4.51,1.49-9.41,5.24-11.73,2.29-1.41,5.06-2.34,8.72-2.9.36-.06.71-.08,1.06-.08,2.49,0,4.85,1.34,6.07,3.55,1.62,2.91,3.24,6.05,4.11,9.33-1.06.94-2.23,1.87-3.52,2.79ZM459.5,315.16c-.45-.45-.93-.88-1.39-1.28-.82-.72-1.6-1.4-2.16-2.22-1.62-2.39-1.34-6.12.76-9.99,4.05-7.44,11.93-13.34,24.11-18.03,10.61-4.08,21.74-6.69,33.06-7.74,2.17-.2,4.28-.32,6.16.37,1.88.7,3.28,2.1,4.16,4.16,1.37,3.19,1.26,7.57-.27,11.16-1.19,2.79-2.97,5.4-4.68,7.92-1.88,2.76-3.82,5.62-5.09,8.81-1.4,3.49-2,7.36-2.58,11.09-.97,6.2-1.88,12.05-6.17,15.91-6.04,5.43-15.85,3.67-23.01,1.24-6.33-2.14-12.52-4.88-18.57-7.69.4-5.5-1.14-10.48-4.34-13.72ZM720.04,478.11c.33,4.61.24,9.27-2.55,12.21-2.98,3.13-8.1,3.01-11.6,1.57-.55-.23-1.11-.49-1.66-.79-3.38-1.83-5.82-4.9-6.88-8.64-1.07-3.8-.53-7.94,1.46-11.37,1.75-3,4.15-6.06,7.34-9.33,2.94-3.02,6.65-6.18,10.67-8.09,1.49,7.71,2.6,15.64,3.22,24.44ZM842.92,523.15c-1.66-.6-3.28-1.25-4.87-1.96-9.4-4.18-17.7-10.55-24-18.41-6.63-8.27-10.57-17.7-11.4-27.26-.85-9.82.86-22.03,4.36-31.12,4.29-11.11,11.49-19,21.4-23.46,3.41-1.53,7.2-2.3,11.13-2.3,2.81,0,5.69.4,8.55,1.19,6.65,1.86,12.71,5.72,17.07,10.86,8.24,9.72,11.63,24.25,9.08,38.87-2.08,11.95-7.82,24.18-17.53,37.38-4.24,5.76-8.83,11.11-13.78,16.21Z"/>
</svg>