<?xml version="1.0" encoding="UTF-8"?>
<svg id="_Ñëîé_2" data-name="Ñëîé 2" xmlns="http://www.w3.org/2000/svg" viewBox="0 0 1000 1000">
  <defs>
    <style>
      .cls-1 {
        fill: #cb2328;
      }

      .cls-2 {
        fill: #cd6b9b;
      }

      .cls-3 {
        fill: #f46170;
      }

      .cls-4 {
        fill: #9c649b;
      }

      .cls-5 {
        fill: #3c464e;
      }

      .cls-6 {
        fill: #a1434a;
      }

      .cls-7 {
        fill: #7a4d7a;
      }

      .cls-8 {
        fill: #fff;
      }

      .cls-9 {
        fill: #fa694f;
      }

      .cls-10 {
        fill: #121b4b;
      }

      .cls-11 {
        fill: #ffb198;
      }

      .cls-12 {
        fill: #616b81;
      }

      .cls-13 {
        fill: #29d8f4;
      }

      .cls-14 {
        fill: #935c00;
      }
    </style>
  </defs>
  <g id="_1" data-name="1">
    <g id="girl">
      <g id="car">
        <g id="rope">
          <path class="cls-4" d="M225.71,809.2c16.49-3.66,17.67-47.68,18.82-90.27.82-30.53,1.67-62.09,9.04-64.56.72-.24,1.11-1.02.87-1.74-.24-.72-1.05-1.08-1.73-.86-8.74,2.93-9.84,27.4-10.91,67.08-1.01,37.67-2.27,84.47-16.68,87.67-.13.03-.25.05-.38.07-.77.16-1.25.83-1.13,1.58.12.75.83,1.25,1.58,1.13.18-.03.36-.07.53-.1Z"/>
          <path class="cls-4" d="M230.23,809.5c10.66-2.37,20-20.01,26.33-35.7,17.47-43.33,28.98-114.36,16.16-120.74-.68-.34-1.5-.06-1.84.62-.34.68-.06,1.5.62,1.84,10.44,5.2.31,73.14-17.48,117.27-9.9,24.55-20.08,36.57-28.66,33.87-.72-.23-1.49.17-1.72.9-.23.72.17,1.49.9,1.72,1.93.61,3.83.66,5.69.25Z"/>
        </g>
        <g id="bear">
          <path id="body" class="cls-4" d="M49.23,651.3c0-4.81,3.9-8.72,8.72-8.72,2.92,0,5.5,1.45,7.08,3.66,7.33-5.44,17.97-6.92,25.65-6.34,1.09.08,2.1.34,3.08.68,1.44-2.84,4.35-4.81,7.75-4.81,4.81,0,8.72,3.9,8.72,8.72,0,3.57-2.15,6.63-5.23,7.98,3.33,6.88,4.63,14,4.63,14l.05.21c5.44,1.83,9.29,6.32,9.29,11.59s-4.04,9.94-9.66,11.69c-1.1.79-2.27,1.49-3.48,2.11.94,1.26,1.87,2.61,2.76,4.07.73-.28,1.5-.51,2.32-.6,5.21-.62,10.01,3.16,10.62,8.42,1.09,9.46,15.71,9.04,16.4,9.01,5.28-.22,9.74,3.83,10,9.1.26,5.29-3.81,9.78-9.1,10.05-.59.03-1.2.04-1.84.04-4.88,0-11.18-.92-17.08-3.42,2.56,16.83-.06,31.27-8.34,36.16-9.99,5.89-25.55-6.72-32.42-30.81-.83-2.89-1.47-5.77-1.95-8.62-.54,4.89,1.2,10.09,1.35,10.51,1.78,4.97-.79,10.44-5.75,12.24-1.08.39-2.18.58-3.27.58-3.92,0-7.6-2.42-9.01-6.32-3.91-10.8-6-33.55,14.14-42.38.95-.42,1.92-.62,2.9-.72.48-2.09,1.07-4.05,1.77-5.83-10.15-3.35-18.95-11.07-21.71-22.76-.97-4.12-1.16-7.74-.73-10.91-4.3-.53-7.65-4.16-7.65-8.61Z"/>
          <g id="add">
            <path class="cls-14" d="M89.03,664.92c.65,2.45,1.93,4.23,2.87,3.98s1.16-2.43.52-4.88c-.65-2.45-1.93-4.23-2.86-3.98-.93.25-1.16,2.43-.52,4.88Z"/>
            <path class="cls-14" d="M100.72,661.78c.65,2.45,1.93,4.23,2.87,3.98.93-.25,1.16-2.43.52-4.88-.65-2.45-1.93-4.23-2.87-3.98-.93.25-1.16,2.43-.52,4.88Z"/>
            <path class="cls-14" d="M104.43,650.09c.27,0,.54-.08.78-.24,1.43-.99,2.39-2.48,2.7-4.19.31-1.71-.07-3.44-1.06-4.87-.99-1.43-2.48-2.39-4.19-2.69-1.71-.31-3.44.07-4.87,1.06-.62.43-.77,1.29-.34,1.91.43.62,1.28.78,1.91.34.83-.57,1.82-.79,2.82-.61.99.18,1.85.73,2.43,1.56.58.83.79,1.83.61,2.82-.18.99-.73,1.85-1.56,2.43-.62.43-.78,1.29-.35,1.91.27.38.69.59,1.13.59Z"/>
            <path class="cls-14" d="M55.01,656.9c.43,0,.86-.21,1.13-.59.43-.62.28-1.47-.34-1.91-1.71-1.18-2.13-3.54-.95-5.25.58-.83,1.44-1.38,2.43-1.56,1-.18,2,.04,2.82.61.62.43,1.47.28,1.91-.34.43-.62.28-1.47-.34-1.91-1.43-.99-3.16-1.37-4.87-1.06-1.71.31-3.2,1.27-4.19,2.69-2.05,2.95-1.31,7.01,1.64,9.06.24.16.51.24.78.24Z"/>
            <path class="cls-14" d="M108.82,689.44c.31,0,.63-.11.89-.32,4.9-4.15,2.87-12.91,2.78-13.28-.17-.74-.92-1.19-1.65-1.01-.74.17-1.19.91-1.02,1.65.02.07,1.72,7.5-1.89,10.56-.58.49-.65,1.35-.16,1.93.27.32.66.48,1.04.48Z"/>
            <path class="cls-14" d="M107.88,676.15h4.67c.94,0,1.73-.67,1.89-1.59l.63-3.68c.09-.56-.06-1.13-.43-1.56-.36-.43-.9-.68-1.46-.68h-5.93c-.57,0-1.1.25-1.46.68-.37.43-.52,1-.43,1.56l.63,3.68c.16.92.95,1.59,1.89,1.59Z"/>
            <path class="cls-14" d="M149.69,723.32c.25,0,.51-.07.74-.21.64-.41.83-1.25.42-1.89-1.73-2.72-4.24-4.79-7.25-5.97-.7-.28-1.5.07-1.78.77-.28.7.07,1.5.77,1.78,2.46.97,4.52,2.66,5.94,4.9.26.41.7.63,1.16.63Z"/>
            <path class="cls-14" d="M148.28,728.53c.25,0,.51-.07.74-.22.64-.41.83-1.25.42-1.89-1.74-2.72-4.24-4.79-7.25-5.97-.7-.28-1.5.07-1.78.77-.28.7.07,1.5.77,1.78,2.46.97,4.52,2.66,5.94,4.9.26.41.71.63,1.16.63Z"/>
          </g>
          <g id="scarf">
            <path class="cls-2" d="M91.68,701.34c5.69,0,11.16-1.29,15.91-3.84,1.86-1,2.56-3.33,1.56-5.19-1-1.86-3.32-2.56-5.19-1.56-6.36,3.42-14.91,3.84-22.88,1.12-2-.69-4.18.38-4.87,2.39-.69,2,.39,4.18,2.39,4.87,4.34,1.48,8.78,2.22,13.08,2.22Z"/>
            <path class="cls-2" d="M38.37,720.34c1.61,0,3.1-1.01,3.64-2.62.4-1.15,4.27-11.28,15.52-8.17,17.14,4.72,31.37-9.09,31.96-9.68,1.51-1.49,1.52-3.92.03-5.42-1.49-1.5-3.91-1.52-5.41-.04h0c-.12.11-11.68,11.28-24.54,7.74-14.8-4.08-22.72,6.81-24.83,13.13-.67,2.01.41,4.18,2.42,4.85.4.13.82.2,1.22.2Z"/>
          </g>
        </g>
        <g id="car-2" data-name="car">
          <path class="cls-12" d="M173.11,744.51c-2.9,14.66-7.76,41.81-6.93,55.54h1.71c3.68,0,7.23-1.24,10.12-3.51,4.25-3.34,12.48-7.61,25.53-5.71,8.51,1.23,11.76,6.61,14.14,11.74,2.56,5.5,7.5,9.52,13.43,10.84l.56.13s5.67-54.15-8.51-66.44c-9.35-8.1-26.44-10.96-37.51-11.98-5.97-.55-11.39,3.52-12.55,9.4Z"/>
          <path class="cls-8" d="M195.97,767l19.4,4.17c2.18.47,4.09-1.51,3.54-3.67l-3.23-12.85c-.89-3.53-4.06-6-7.7-6h-21.32c-1.69,0-3.05,1.37-3.05,3.05h0c0,7.38,5.15,13.75,12.37,15.3Z"/>
          <rect class="cls-12" x="94.23" y="791.59" width="96.6" height="18.1" transform="translate(285.07 1601.29) rotate(180)"/>
          <path class="cls-12" d="M176.58,810.37c0,11.7,9.49,21.19,21.19,21.19s21.19-9.49,21.19-21.19-9.49-21.19-21.19-21.19-21.19,9.49-21.19,21.19Z"/>
          <path class="cls-12" d="M231.68,813.37h0c2.61,0,4.73-2.12,4.73-4.73v-31.69c0-2.61-2.12-4.73-4.73-4.73h0c-2.61,0-4.73,2.12-4.73,4.73v31.69c0,2.61,2.12,4.73,4.73,4.73Z"/>
          <circle class="cls-4" cx="197.77" cy="810.37" r="11.94"/>
          <path class="cls-12" d="M61.1,810.37c0,11.7,9.49,21.19,21.19,21.19s21.19-9.49,21.19-21.19-9.49-21.19-21.19-21.19-21.19,9.49-21.19,21.19Z"/>
          <path class="cls-4" d="M61.1,812.2c1.01,0,1.83-.82,1.83-1.83,0-10.68,8.69-19.37,19.36-19.37s19.37,8.69,19.37,19.37c0,1.01.82,1.83,1.83,1.83s1.83-.82,1.83-1.83c0-12.69-10.33-23.02-23.02-23.02s-23.02,10.33-23.02,23.02c0,1.01.82,1.83,1.83,1.83Z"/>
          <circle class="cls-4" cx="82.29" cy="810.37" r="11.94"/>
          <path class="cls-4" d="M231.69,815.35c.84,0,1.59-.58,1.78-1.43.22-.98-.4-1.96-1.38-2.18l-.56-.13c-5.31-1.18-9.86-4.85-12.16-9.81-2.38-5.12-6.29-11.31-15.48-13.86-13.87-3.83-21.23,2.35-25.64,6.04-.48.4-.93.78-1.36,1.12-.79.62-.93,1.77-.3,2.57.62.8,1.77.93,2.57.31.45-.36.93-.76,1.44-1.19,4.11-3.44,10.31-8.65,22.32-5.32,7.71,2.13,10.97,7.2,13.15,11.88,2.78,5.98,8.27,10.41,14.68,11.83l.56.13c.13.03.27.04.4.04Z"/>
          <path class="cls-7" d="M38.37,791.59h106.89c7.15,0,13.47-4.67,15.56-11.51l11.9-38.9c1.24-4.05-2.7-7.77-6.67-6.3h0c-3.75,1.39-7.72,2.12-11.72,2.18l-84.68,1.15c-8.25.11-15.51,5.45-18.09,13.28l-13.19,40.11Z"/>
        </g>
      </g>
      <g id="girl-2" data-name="girl">
        <g id="hand-2">
          <path class="cls-11" d="M252.07,662.58c.93.72,2.09.76,3.11.33-.37,1.24-.05,2.56.91,3.32,1.11.84,2.6.68,3.72-.23-.62,1.46-.27,3.11.95,3.83.69.42,1.51.48,2.29.24.18.68.58,1.28,1.22,1.63,1.03.57,2.32.39,3.33-.32-.27.94.02,1.99.83,2.65.99.81,2.41.74,3.31-.11l.14-.13c1.07-1,2.67-2.15,4.04-3.2.28-.21.5-.48.66-.77l.11-.21,4.43-8.12c.39-.72.46-1.53.24-2.26l-.08-.26c-.7-2.33-1.45-4.64-2.26-6.93l16.15-34.35-14.36-6.75-16.59,35.28.06.04c-1.03.74-5.68,2.58-6.63,3.81l-6.06,7.9c-1.13,1.47-.92,3.54.46,4.61ZM269.73,668.59l2.21-3.49c.19-.1.37-.2.55-.32l-.8,1.86c-.68.62-1.32,1.26-1.96,1.95Z"/>
          <path class="cls-2" d="M273.1,618.93c3.44-8.16,7.03-16.25,10.53-24.38l.25-.58.55-.86c3.88-6.09,7.68-12.23,11.62-18.28,1.82-2.82,3.67-5.63,5.53-8.43,3.55-5.33,10.71-6.85,16.07-3.35l9.7,6.32c-3.79,6.15-7.65,12.25-11.62,18.28-3.84,5.88-7.8,11.68-11.7,17.52-3.78,7.61-7.5,15.26-11.35,22.84-3.99,7.9-8.09,15.76-12.27,23.57l-17.39-8.07c3.27-8.24,6.62-16.44,10.08-24.59Z"/>
        </g>
        <g id="legs">
          <g id="_2" data-name="2">
            <path class="cls-7" d="M352.56,816.33s21.19,4.35,24.2,9.96c3.01,5.61,0,5.61,0,5.61h-42.61c-3.04,0-5.58-1.89-5.94-4.41-.52-3.64-.51-8.61,2.66-11.16,5.37-4.32,21.69,0,21.69,0Z"/>
            <path class="cls-11" d="M330.88,816.33c1.07-10.91,3.85-19.84,5.34-30.66.68-5.43,1.6-10.8,2.4-16.2l2.21-14.41c-.23-8.35-.46-16.71-.43-25.06-.01-8.63.03-17.25.45-25.88h26.84c.42,8.63.46,17.25.45,25.88.03,8.63-.21,17.25-.45,25.88l-.05,1.75-.2.85-3.84,15.92c-1.31,5.3-2.49,10.63-3.92,15.9-1.92,7.47-3.92,14.92-6.01,22.35l7.32,6.73c.56.39.99.77,1.22,1.12l.04.03h-.02c.65,1.03-.37,1.89-4.65,2.22-11.36.86-22.12-4.16-25.98-6.21l-.73-.2Z"/>
          </g>
          <g id="_1-2" data-name="1">
            <path class="cls-7" d="M296.69,815.3s19.11,4.64,21.82,10.62c2.71,5.98,0,5.98,0,5.98h-38.42c-2.74,0-5.03-2.02-5.36-4.7-.47-3.88-.46-9.18,2.4-11.9,4.85-4.6,19.56,0,19.56,0Z"/>
            <path class="cls-11" d="M284.43,784.54c1.26-5.32,2.75-10.57,4.13-15.85l3.75-14.08c.67-8.33,1.34-16.66,2.26-24.97.92-8.58,1.89-17.15,3.23-25.68l26.68,2.88c-.51,8.62-1.39,17.2-2.33,25.78-.9,8.58-2.07,17.13-3.23,25.68l-.24,1.73-.29.82-5.53,15.42c-1.87,5.13-3.62,10.3-5.61,15.39-2.58,6.85-4.99,13.22-7.57,19.71l8.76,8.52c.27.2.47.39.59.58l.02.02h-.01c.52.81-.6,1.41-4.92,1.45-9.52.1-27.17-5.45-27.17-5.45,2.24-10.73,4.83-21.34,7.48-31.95Z"/>
          </g>
        </g>
        <path id="dress" class="cls-2" d="M305.33,563.29l20.53-7.35,31.4.14,8.12,22.16-.02,48.68,28.49,83.15-2.76,1.2c-35.34,15.32-75.34,15.82-111.05,1.39h0l23.51-85.53.49-30.19,1.28-33.66Z"/>
        <g id="head">
          <g id="hair_add">
            <path class="cls-6" d="M362.13,514.41c.66,5.95,2.63,10.61,4.41,10.41s2.69-5.17,2.03-11.12c-.66-5.95-2.63-10.61-4.41-10.41-1.78.2-2.69,5.17-2.03,11.12Z"/>
            <path class="cls-6" d="M292.89,490.8c0-5.91,4.79-10.69,10.69-10.69s10.69,4.79,10.69,10.69c0,.4-.08.78-.12,1.18,11.13-7.77,25.42-6.16,25.42-6.16l8.37,60.28c-42.85,11.41-52.17-24.98-41.72-44.97-.85.22-1.73.37-2.65.37-5.9,0-10.69-4.79-10.69-10.69Z"/>
          </g>
          <g id="neck">
            <path class="cls-11" d="M325.81,556.51l.28-16.22,24.25,1.88-.03,14.58c-.01,6.68-5.38,12.13-12.06,12.23h0c-6.92.11-12.56-5.54-12.44-12.46Z"/>
            <path class="cls-3" d="M349.46,561.17c-9.12-1.72-17.96-8.51-23.4-18.68l.03-1.79v-.41s24.25,1.88,24.25,1.88l-.03,14.58c0,1.56-.32,3.05-.86,4.42Z"/>
          </g>
          <path id="face" class="cls-11" d="M314.84,530.52c7.17,17.68,24.24,27.45,38.13,21.82,13.89-5.63,19.34-24.53,12.18-42.21-7.17-17.68-24.24-27.45-38.13-21.82-13.89,5.63-19.34,24.53-12.18,42.21Z"/>
          <path id="face-2" data-name="face" class="cls-11" d="M314.84,530.52c7.17,17.68,24.24,27.45,38.13,21.82,13.89-5.63,19.34-24.53,12.18-42.21-7.17-17.68-24.24-27.45-38.13-21.82-13.89,5.63-19.34,24.53-12.18,42.21Z"/>
          <g id="nose">
            <path class="cls-11" d="M349.2,532.51c2.56,2.1,5.44,2.83,6.43,1.62.99-1.21-.29-3.89-2.85-5.99l-3.58,4.37Z"/>
          </g>
          <path id="hair" class="cls-6" d="M311.47,503.1c4.46-7.72,10.51-13.22,15.9-15.12,2.93-5.25,12.29-6.65,22.03-3.29.95-4.94,5.28-8.67,10.49-8.67,5.91,0,10.69,4.79,10.69,10.69,0,4.09-2.33,7.61-5.71,9.41,1.65,2.83,2.16,5.71,1.16,8.22-2.48,6.25-13.24,7.84-24.03,3.55-1.33-.53-2.6-1.12-3.8-1.77-.91,3.23-2.31,6.62-4.24,9.96-6.82,11.81-17.38,18.48-23.6,14.89-6.21-3.59-5.72-16.07,1.1-27.88Z"/>
          <g id="ear">
            <path class="cls-11" d="M307.52,528.13c.04,5.48,4.5,9.89,9.98,9.85,5.48-.03,9.89-4.5,9.85-9.98-.03-5.48-4.5-9.89-9.98-9.85-5.48.03-9.89,4.5-9.85,9.98Z"/>
            <path class="cls-3" d="M314.74,532.27c.19,0,.37-.05.54-.16l5.43-3.54c.3-.19.47-.53.45-.88-.02-.35-.22-.67-.54-.83l-5.47-2.83c-.49-.25-1.09-.06-1.34.43-.25.49-.06,1.09.43,1.34l3.95,2.05-4,2.61c-.46.3-.59.92-.29,1.38.19.3.51.45.84.45Z"/>
          </g>
        </g>
        <path id="dress_add" class="cls-1" d="M338.56,671.36v-12.65c0-.76.61-1.37,1.37-1.37h25.29c.76,0,1.37.61,1.37,1.37v12.65c0,7.73-6.29,14.02-14.02,14.02s-14.02-6.29-14.02-14.02ZM341.3,660.09v11.28c0,6.22,5.06,11.28,11.28,11.28s11.28-5.06,11.28-11.28v-11.28h-22.55Z"/>
        <g id="hand_1">
          <g>
            <path class="cls-11" d="M429.36,511.45l-.45-3.79c-.48-1.14-.51-2.49.04-3.7l3.55-7.81h0s.34-.62.34-.62c.49-.88,1.33-1.56,2.38-1.83l4.56-1.17,2.21-.62.89-.27c.55-.39,1.18-.7,1.9-.75l.6-.02c.13,0,.74.07,1.08.19l.29.1.14.06c.17.08.48.24.74.44.55.4,1.1,1.11,1.34,1.86.26.71.22,1.53.17,1.8-.07.5-.27,1.05-.56,1.51-.29.48-.76.9-.7.84-.13.12-.28.24-.43.35l-.45.3-.86.47-1.23.61-2.28,1.05-2.49,1.09-2,4.39.89,2.08c2.47-.05,4.86,1.31,5.99,3.69l4.05,3.18-11.11,16.68-15.64-9.06,7.04-11.03Z"/>
            <path class="cls-11" d="M465.15,510.76c1.12-1.41.88-3.46-.53-4.58l-4.09-3.24c-1.41-1.12-3.46-.88-4.58.53-1.12,1.41-.88,3.46.53,4.58l4.09,3.24c1.41,1.12,3.46.88,4.58-.53Z"/>
            <path class="cls-11" d="M465.4,516.12c1.12-1.41.88-3.46-.53-4.58l-4.09-3.24c-1.41-1.12-3.46-.88-4.58.53-1.12,1.41-.88,3.46.53,4.58l4.09,3.24c1.41,1.12,3.46.88,4.58-.53Z"/>
            <path class="cls-11" d="M465.37,519.81c.16-.2.3-.42.41-.66.75-1.64.04-3.57-1.6-4.32l-3.58-1.65c-1.63-.75-3.58-.04-4.32,1.6-.75,1.64-.04,3.57,1.6,4.32l3.58,1.65c1.39.64,3,.22,3.91-.93Z"/>
          </g>
          <path class="cls-2" d="M399.54,550.73l23.31-30.28,15.69,11.01-23.41,36.69h0c-1.67,2.62-4.42,4.36-7.5,4.74l-.48.06-47.05,5.93-2.88-22.82,42.32-5.33Z"/>
        </g>
      </g>
    </g>
    <g id="teacher">
      <g id="boots">
        <path class="cls-12" d="M576.8,782.88l28.13,5.38,10.15,19.74c3.43,6.68,9.78,11.38,17.18,12.73l6.81,1.24c7.45,1.36,12.81,7.91,12.65,15.47h0l-46.84.23c-5.1.02-9.25-4.1-9.25-9.19h0c0-2.58-2.12-4.66-4.71-4.62l-4.42.08c-3.29.06-5.92,2.74-5.92,6.02v7.7h-19.97l.21-20.5c.04-3.41,2.68-6.23,6.08-6.5h0l9.9-27.79Z"/>
        <path class="cls-12" d="M426.83,759.94l21.55,18.86-1.22,22.16c-.41,7.5.2,8.05,5.9,12.96,0,0,22.4,13.18,18.74,23.76h-11.84c-10.22,0-20.15-3.42-28.2-9.71l-8.4-6.56c-4.41-2.56-5.91-8.21-3.33-12.6h0c1.31-2.23.53-5.1-1.73-6.36l-3.85-2.16c-2.87-1.61-6.5-.63-8.16,2.21l-3.89,6.64-17.23-10.09,10.54-17.58c1.76-2.93,5.46-4.04,8.54-2.54h0l22.59-18.97Z"/>
      </g>
      <path id="hand_2" class="cls-11" d="M562.45,332.52c3.74,7.55,7.2,15.23,10.81,22.84l10.36,23.04c6.9,15.36,13.39,34.08,13.39,34.08,7.5,12.17,20.46,34.63,27.68,46.98,3.63,6.16,10.43,19.11,10.43,19.11l1.01.82,7.79,1.64h0c.48.02.96.09,1.43.26l14.26,5.03.48.17c.71.25,1.27.72,1.65,1.31,1.13,1.76,2.32,3.56,3.51,5.3l1.8,2.57c.59.83,1.24,1.67,1.74,2.28l.2.25c1.14,1.39.94,3.45-.45,4.59-1.16.95-2.78.97-3.95.14-1.12-.79-1.98-1.49-2.87-2.22l-2.56-2.18c-1.23-1.08-2.42-2.17-3.61-3.27l-4.83-1.71,8.44,9.82-2.68.55,6.32,8.59c1.07,1.45.75,3.49-.7,4.56-.65.48-1.43.66-2.18.6-.21.35-.49.66-.85.91-.93.63-2.12.7-3.15.27-.49-.2-.93-.53-1.28-.95.61,1.44.24,3.16-1.07,4.14-1,.75-2.26.87-3.32.43-.54-.23-1.04-.61-1.41-1.12l-.58-.8c-.08.9-.5,1.77-1.28,2.35-.96.7-2.17.81-3.19.38-.53-.22-1-.58-1.36-1.07l-9.85-13.4-10.67-7.15c-2.85-1.79-4.44-5.04-4.09-8.39l-47.7-66.2c-7.17-15.24-8.83-20.23-15.66-35.62l-10.23-23.09c-3.25-7.77-6.66-15.47-9.78-23.3l28-12.5Z"/>
      <path id="hand_1-2" data-name="hand_1" class="cls-11" d="M425.55,507.53l.11-.31c.26-.75.57-1.76.84-2.74l.8-3.03c.51-2.04,1.01-4.14,1.46-6.18.15-.68.52-1.32,1.09-1.8l.39-.32,11.64-9.66c.39-.32.82-.55,1.26-.73h0s6.74-4.24,6.74-4.24l.66-1.11.09-.4c.91-6.96,2.1-13.87,3.14-20.81,1.17-7.06,2.37-14.12,3.66-21.15,2.52-14.08,5.32-28.11,8.16-42.12.16-.77.41-1.61.73-2.36l.26-.6c6-14.09,12-28.17,18.34-42.11l9.52-20.89c3.33-6.89,6.51-13.85,9.98-20.69l27.95,12.63c-2.84,7.11-5.97,14.1-8.94,21.16l-9.4,20.95c-6.1,13.59-12.53,27.03-18.97,40.47-3.26,13.27-6.58,26.52-10.15,39.72-1.84,6.91-3.77,13.8-5.72,20.69-.43,1.43-.91,2.99-1.41,4.6h.03s-1.21,3.78-1.21,3.78c-1.62,5.14-3.36,10.57-4.75,14.89,1.48,3.02,1.12,6.62-.94,9.29,0,0-7.6,10.21-8.01,12.06l-4.12,14.32c-.17.59-.49,1.09-.91,1.48-.81.75-1.98,1.08-3.12.75-.94-.27-1.63-.94-2.02-1.76l-.26.95c-.17.61-.5,1.14-.93,1.54-.84.78-2.06,1.11-3.26.75-1.57-.47-2.51-1.95-2.43-3.51-.19.52-.49.98-.88,1.34-.81.75-1.96,1.11-3.05.83-.43-.11-.8-.31-1.11-.56-.68.31-1.47.41-2.25.19-1.73-.5-2.73-2.3-2.23-4.03l2.97-10.3,1.8-11.66-3.95,3.27c-.74,1.44-1.48,2.88-2.26,4.31l-1.64,2.93c-.58.99-1.14,1.95-1.92,3.08-.81,1.18-2.34,1.72-3.76,1.23-1.7-.59-2.6-2.45-2.01-4.15Z"/>
      <path id="trousers" class="cls-13" d="M422.58,739.45l16.23-37.35,31-72.35,15.36-70.16,5.29-24.79c-2.58-4.68-4.57-8.47-5.66-10.92-8.25-18.49,3.23-45.97,3.23-45.97l54.01,10.58,11.66,2.36,44.82,128.54.39,1c.75,2.01,1.24,4.15,1.41,6.39l12.57,167.63-46.34,3.98-15.77-163.05s-9.53-15.35-21.39-34.81l-11.22,42.77-.26,1c-.31,1.14-.71,2.26-1.23,3.36l-34.36,73.86-16.99,37.01-16.75,37.12-42.47-18.97,16.47-37.25Z"/>
      <g>
        <path id="shirt" class="cls-4" d="M468.73,363.83l24.69-49.33c2.4-5.23,7.08-8.75,12.36-9.85,3.83-4.93,12.89-13.7,26.57-9.47,0,0,5.37,11.6,19.84,11.08l.19-.85,33.51,59.3-15.02,16.28-6.29,17.33-3.37,76.52c-.15,3.34-1.26,6.56-3.21,9.28l-4.43,8.72s-60.15-1.85-65.54-14.94l-1.44-15.79,9.63-87-27.5-11.29Z"/>
        <g id="shirt_add">
          <path class="cls-14" d="M564.59,399.7c.56,0,1.09-.35,1.29-.9l8.9-24.54c2.27-6.26,2.35-13.18.21-19.49-.24-.72-1.02-1.1-1.74-.86-.72.24-1.1,1.02-.86,1.74,1.94,5.72,1.87,12-.19,17.68l-8.9,24.54c-.26.71.11,1.5.82,1.76.15.06.31.08.47.08Z"/>
          <path class="cls-14" d="M552.23,340.23c.17,0,.34-.01.5-.04.73-.13,2.03-.65,2.5-2.63l2.31-9.82c.17-.74-.28-1.47-1.02-1.65-.74-.19-1.47.28-1.65,1.02l-2.31,9.82c-.06.24-.16.54-.31.56-4.57.88-26.33-25.46-33.1-35.63-1.1-1.66-1.45-3-1.02-3.98.62-1.43,2.85-2.1,3.58-2.23.75-.13,1.25-.83,1.12-1.58-.13-.74-.82-1.25-1.58-1.12-.17.03-4.31.76-5.64,3.84-.82,1.89-.4,4.11,1.25,6.59.25.38,26.52,36.85,35.36,36.86Z"/>
          <path class="cls-14" d="M562.36,336.48h.02c.67,0,1.27-.34,1.64-.9,2.07-3.17-4.87-20.6-9.19-30.7-.3-.7-1.1-1.02-1.8-.72-.7.3-1.02,1.1-.72,1.8,4.71,11,9.36,23.91,9.45,27.49-1.12-.9-2.98-3.7-4.33-6.61-.32-.69-1.13-.99-1.82-.67-.69.32-.99,1.13-.67,1.82,1.18,2.56,4.26,8.5,7.4,8.5Z"/>
          <path class="cls-14" d="M508.43,381.5c.46,0,.9-.23,1.16-.64l16.51-26.09c.4-.64.21-1.48-.43-1.89-.64-.4-1.49-.22-1.89.43l-15.9,25.12-1.64-.67c-.7-.29-1.5.04-1.79.75-.29.7.05,1.5.75,1.79l2.7,1.11c.17.07.35.1.52.1Z"/>
        </g>
      </g>
      <g id="head-2" data-name="head">
        <g id="neck-2" data-name="neck">
          <polygon class="cls-11" points="521.57 294.35 521.49 294.29 533.33 262.71 564.96 272.14 553.46 302.61 552.39 305.42 556.21 327.41 521.57 294.35"/>
          <path class="cls-3" d="M530.92,270.76c2.84,15.64,11.23,27.87,22.54,31.86l11.5-30.48-31.63-9.43-2.42,8.05Z"/>
        </g>
        <path id="face-3" data-name="face" class="cls-11" d="M594.21,256.47c-7.16,26.72-27.88,44.38-46.26,39.46-18.39-4.92-27.48-30.57-20.32-57.29,7.16-26.72,27.88-44.38,46.26-39.46,18.39,4.92,27.48,30.57,20.32,57.29Z"/>
        <path id="hair-2" data-name="hair" class="cls-6" d="M486.94,237.73c7.49-9.81,18.86-14.38,28.51-12.42,1.39-11.27,11.24-23.05,25.95-29.4,19.47-8.41,40.05-4.15,45.97,9.52.2.46.33.94.49,1.41,3.7,2.18,7.57,6.49,10.44,12.09,4.99,9.73,5.07,19.63.18,22.13-4.39,2.24-11.28-2.27-16.26-10.26-4.56,5.87-11.21,11.08-19.39,14.62-10.86,4.69-22.07,5.43-30.88,2.8-.26,6.23-2.55,12.81-6.94,18.57-9.8,12.84-26.26,16.74-36.77,8.72-10.51-8.02-11.09-24.93-1.3-37.77Z"/>
        <g id="ear-2" data-name="ear">
          <path class="cls-11" d="M519.85,242.15c-3.83,6.69-1.5,15.23,5.21,19.06,6.71,3.83,15.24,1.51,19.07-5.19,3.83-6.69,1.5-15.23-5.21-19.06-6.7-3.83-15.24-1.51-19.07,5.19Z"/>
          <path class="cls-3" d="M525.99,252.17c-.42-.16-.72-.56-.75-1.04-.03-.65.47-1.21,1.12-1.24l7.1-.37-3.58-5.61c-.35-.55-.19-1.28.36-1.63.55-.35,1.29-.19,1.63.36l4.67,7.32c.23.35.25.8.05,1.18-.19.37-.57.62-.99.64l-9.13.47c-.18,0-.34-.02-.5-.08Z"/>
        </g>
      </g>
    </g>
    <g id="boy">
      <g id="boots-2" data-name="boots">
        <path id="_2-2" data-name="2" class="cls-12" d="M791.1,833.1c-1-2.64-4.07-7.02-13.43-6.86-13.37.22-10.57-11.62-10.57-11.62l-17.65-.32-1.77,9.03c-1.3,1.58-2.07,4.89-1.65,7.16.16.89.36,1.82.68,2.65-.98.35-1.69,1.28-1.69,2.39,0,1.4,1.14,2.54,2.54,2.54h42.81c1.4,0,2.54-1.14,2.54-2.54,0-1.15-.77-2.11-1.82-2.42Z"/>
        <path id="_1-3" data-name="1" class="cls-12" d="M719.74,833.5c-.35-1.68-2.2-4.97-10.45-8.97-7.08-3.43-4.77-12.3-4.77-12.3l-15.8-7.87-5.47,7.4c-1.85.87-3.97,3.53-4.57,5.76-.24.88-.45,1.8-.52,2.68-1.04-.11-2.08.43-2.55,1.43-.6,1.27-.06,2.78,1.2,3.39l14.86,7.45c4.95,2.48,10.33,4.02,15.85,4.54l9.77.92c1.79.37,2.78.06,3.39-1.2.56-1.17.13-2.54-.93-3.22Z"/>
      </g>
      <path id="trousers-2" data-name="trousers" class="cls-4" d="M708.8,739.06l27.21-73.73h0c19.67,7.87,40.85,11.25,62,9.89l14.73-.95-17.14,89.22-.22,1.16c-.05.25-.11.49-.18.74l-21.11,56.85-33.52-1.34,14.34-64.34,6.87-49.53-14.27,47.76c-5.12,12.09-10.76,23.99-16.11,35.99l-13.33,29.21-34-14.09,24.75-66.83Z"/>
      <g id="hand">
        <path id="shovel" class="cls-4" d="M917.96,667.98v30.44h0c12.49,4.19,26.01,4.19,38.5,0h0v-30.44c0-7.95-6.44-14.4-14.4-14.4h-1.2v-81.51c4.48-1.03,8.33-3.89,10.31-7.9l4.43-8.99c1.27-2.12,1.33-4.65.15-6.82-1.46-2.67-4.49-4.33-7.91-4.33h-21.26c-3.43,0-6.46,1.66-7.91,4.33-1.18,2.17-1.12,4.7.15,6.82l4.43,8.99c1.98,4.01,5.83,6.87,10.31,7.9v81.51h-1.2c-7.95,0-14.4,6.44-14.4,14.4ZM937.21,565.22c-3.22,0-6.13-1.68-7.41-4.27l-4.56-9.24c.22-.16.65-.36,1.33-.36h21.26c.69,0,1.12.2,1.33.36l-4.56,9.24c-1.28,2.59-4.19,4.27-7.41,4.27Z"/>
        <path class="cls-11" d="M926.55,625.96c.43.53,1,.97,1.73,1.17l9.6,2.64c1.79.49,3.63-.47,4.1-2.16.32-1.13-.08-2.22-.86-3,1.29-.12,2.39-.91,2.73-2.1.36-1.34-.35-2.66-1.62-3.36,1.59.02,2.98-.92,3.19-2.32.13-.8-.13-1.58-.64-2.21.56-.43.97-1.01,1.06-1.74.1-.83-.2-1.64-.75-2.29.92-.14,1.74-.77,2.03-1.73.38-1.22-.22-2.51-1.35-3.03l-.18-.08c-1.33-.61-2.99-1.67-4.48-2.54-.3-.18-.63-.28-.96-.32l-.24-.03-9.19-1.06c-.82-.09-1.59.15-2.19.63l-.21.17c-1.78,1.44-3.53,2.91-5.25,4.42l.02-.38-38.93-2.1-.85,15.85,35.12,1.89c1.89,2.06,4.81,3.42,8.11,3.67Z"/>
      </g>
      <path id="hand-3" data-name="hand" class="cls-11" d="M656.79,499.49l-.02-3.82c.34-1.19.2-2.53-.5-3.67l-4.49-7.31h0s-.42-.57-.42-.57c-.6-.81-1.51-1.39-2.59-1.53l-4.66-.61-2.27-.34-.92-.16c-.6-.32-1.25-.55-1.98-.51l-.59.05c-.13.01-.73.16-1.05.32l-.28.14-.13.07c-.16.1-.45.3-.68.53-.49.46-.95,1.23-1.1,2.01-.17.73-.03,1.55.05,1.81.13.48.39,1,.74,1.43.35.45.86.8.8.75.15.1.3.2.46.29l.49.24.91.36,1.3.45,2.39.76,2.6.77,2.52,4.11-.63,2.17c-2.46.25-4.66,1.9-5.49,4.4l-3.63,3.65,13.07,15.19,14.41-10.91-8.34-10.08Z"/>
      <g id="shirt_add_down">
        <path class="cls-13" d="M817.21,677.89l-3.07,21.89s-15.89,7.15-42.63-1.24l2.54-20.99,43.16.34Z"/>
        <path class="cls-13" d="M772.47,683.69l-5.62,14.19s-38.94-11.79-41.1-25.69l7.19-17.73,39.53,29.23Z"/>
      </g>
      <g id="head-3" data-name="head">
        <g id="neck-3" data-name="neck">
          <polygon class="cls-11" points="777.92 580.33 782.85 549.41 806.59 554.67 802.81 581.02 777.92 580.33"/>
          <path class="cls-3" d="M804.04,572.47c-6.56-3.61-11.77-11.54-14.13-21.49l16.68,3.7-2.55,17.8Z"/>
        </g>
        <path id="face-4" data-name="face" class="cls-11" d="M776.61,542.12c7.17,17.68,24.24,27.45,38.13,21.82,13.89-5.63,19.34-24.53,12.18-42.21-7.17-17.68-24.24-27.45-38.13-21.82-13.89,5.63-19.34,24.53-12.18,42.21Z"/>
        <path class="cls-5" d="M768.15,506.33c2.49-1.84,5.17-3.17,7.85-4.18,4.05-6.55,13.76-11.85,24.93-9.57,24.04,4.91,24.53,2.16,24.53,2.16,0,0-2.3,25-29.63,25.58,0,.33.01.67,0,1-.22,6.61-2.96,12.8-7.12,17.17,2.8-5.39,3.45-11.42,2.1-16.76-.13-.55-.29-1.08-.46-1.61-.09,0-.17-.02-.25-.03-.12,1.79-.33,3.65-.69,5.55-1.93,10.4-6.88,18.38-11.55,19.15,2.26,4.65,5.19,8.68,8.58,11.91-34.07-.46-35.11-37.95-18.29-50.37Z"/>
        <g id="ear-3" data-name="ear">
          <path class="cls-11" d="M769.45,534.68c-.81,5.42,2.93,10.46,8.34,11.27,5.42.81,10.46-2.93,11.27-8.34.81-5.42-2.93-10.46-8.34-11.27-5.42-.81-10.46,2.93-11.27,8.34Z"/>
          <path class="cls-3" d="M775.95,539.88c.18.03.37,0,.56-.08l5.91-2.66c.32-.15.54-.45.58-.8.04-.35-.12-.7-.4-.91l-4.97-3.64c-.45-.33-1.07-.23-1.39.22-.33.44-.23,1.07.22,1.39l3.59,2.63-4.35,1.96c-.5.23-.72.82-.5,1.32.14.32.44.53.76.58Z"/>
        </g>
      </g>
      <path id="sweater" class="cls-7" d="M663.1,498.22c8.51,6.24,16.78,12.75,25.01,19.3,4.16,3.22,8.16,6.63,12.24,9.94l10.18,8.36c8.04,4.04,40.74,21.31,48.93,26.14l20.21,3.25,13.25,14.97,16.92-11.5s42.28,20.69,50.82,23.53l13.11,1.29c5.23.54,10.47.97,15.69,1.63,10.45,1.2,20.9,2.44,31.33,4.05l-1.66,27.55c-10.54.35-21.07.33-31.59.27-5.26.03-10.51-.17-15.77-.26l-15.76-.35c-.98-.03-2.03-.17-3.01-.44l-.98-.27c-7.48-2.08-14.96-4.2-22.4-6.41l-8.99,59.4c-23,21.56-82.9,4.07-93.68-18.93l16.28-67.33c-8.57-4.11-16.96-8.54-25.33-13.02-8.39-4.44-16.65-9.12-24.92-13.79l-.94-.53c-.85-.49-1.65-1.08-2.39-1.79l-11.39-10.91c-3.78-3.65-7.63-7.22-11.33-10.97-7.48-7.39-14.93-14.83-22.14-22.53l18.32-20.65Z"/>
      <g id="shirt_add_UP">
        <polygon class="cls-13" points="809.48 566.35 820.47 573.84 802.48 588.81 792.92 580.19 809.48 566.35"/>
        <polygon class="cls-13" points="792.92 580.19 785.52 587.97 767.43 570.12 780.13 564.13 792.92 580.19"/>
      </g>
    </g>
  </g>
  <path class="cls-9" d="M583.15,265.68c-.17,1.25-.91,2.37-2.06,2.72l-2.8.86c-.96.3-1.83-.22-2.33-1.06l-.06.31c-.38,1.89,1.1,3.55,2.72,3.06l2.8-.86c1.68-.51,2.58-2.62,1.93-4.48l-.19-.56Z"/>
  <path class="cls-10" d="M566.42,253.86c-1.03-.02-1.88,1.25-1.91,2.83-.02,1.58.79,2.87,1.82,2.89,1.03.02,1.88-1.25,1.91-2.83,0-.48-.08-.92-.22-1.32l1.57-1.52-3.17-.05Z"/>
  <path class="cls-10" d="M588.8,254.21c-1.03-.02-1.88,1.25-1.91,2.83-.02,1.58.79,2.87,1.82,2.89,1.03.02,1.88-1.25,1.91-2.83,0-.48-.08-.92-.22-1.32l1.57-1.52-3.17-.05Z"/>
  <path class="cls-8" d="M564.39,279.52c.2,1.75.36,3.49,4.16,4.07,0,0,6.35,1.01,5.81-3.12l-9.98-.94Z"/>
  <path class="cls-9" d="M821.8,538.58c-.17,1.25-.91,2.37-2.06,2.72l-2.8.86c-.96.3-1.83-.22-2.33-1.06l-.06.31c-.38,1.89,1.1,3.55,2.72,3.06l2.8-.86c1.68-.51,2.58-2.62,1.93-4.48l-.19-.56Z"/>
  <path class="cls-10" d="M806.35,525.92c-1.03-.02-1.88,1.25-1.91,2.83-.02,1.58.79,2.87,1.82,2.89,1.03.02,1.88-1.25,1.91-2.83,0-.48-.08-.92-.22-1.32l1.57-1.52-3.17-.05Z"/>
  <path class="cls-10" d="M824.51,526.27c-1.03-.02-1.88,1.25-1.91,2.83-.02,1.58.79,2.87,1.82,2.89,1.03.02,1.88-1.25,1.91-2.83,0-.48-.08-.92-.22-1.32l1.57-1.52-3.17-.05Z"/>
  <path class="cls-8" d="M805.99,552c.2,1.75.36,3.49,4.16,4.07,0,0,6.35,1.01,5.81-3.12l-9.98-.94Z"/>
  <path class="cls-9" d="M356.68,531.04c-.17,1.25-.91,2.37-2.06,2.72l-2.8.86c-.96.3-1.83-.22-2.33-1.06l-.06.31c-.38,1.89,1.1,3.55,2.72,3.06l2.8-.86c1.68-.51,2.58-2.62,1.93-4.48l-.19-.56Z"/>
  <path class="cls-10" d="M341.65,519.63c-1.03-.02-1.88,1.25-1.91,2.83-.02,1.58.79,2.87,1.82,2.89,1.03.02,1.88-1.25,1.91-2.83,0-.48-.08-.92-.22-1.32l1.57-1.52-3.17-.05Z"/>
  <path class="cls-10" d="M359.81,519.98c-1.03-.02-1.88,1.25-1.91,2.83-.02,1.58.79,2.87,1.82,2.89,1.03.02,1.88-1.25,1.91-2.83,0-.48-.08-.92-.22-1.32l1.57-1.52-3.17-.05Z"/>
  <path class="cls-8" d="M344.09,543.61c.2,1.75.36,3.49,4.16,4.07,0,0,6.35,1.01,5.81-3.12l-9.98-.94Z"/>
</svg>