<?xml version="1.0" encoding="UTF-8"?>
<svg id="_Ñëîé_2" data-name="Ñëîé 2" xmlns="http://www.w3.org/2000/svg" viewBox="0 0 1000 1000">
  <defs>
    <style>
      .cls-1 {
        opacity: .6;
      }

      .cls-2 {
        fill: #d8d6d6;
      }

      .cls-3 {
        fill: #9c649b;
      }

      .cls-4 {
        fill: #ffd593;
      }

      .cls-5 {
        fill: #3f5f99;
      }

      .cls-6 {
        fill: #f3ddb7;
      }

      .cls-7 {
        fill: #3a2232;
      }

      .cls-8 {
        fill: #bfbbbb;
      }

      .cls-9 {
        fill: #fff;
      }

      .cls-10 {
        fill: #151f51;
      }

      .cls-11 {
        fill: #23121e;
      }

      .cls-12 {
        fill: #fc9465;
      }

      .cls-13 {
        fill: #999898;
      }

      .cls-14 {
        fill: #f28161;
      }

      .cls-15 {
        fill: #43c4db;
      }

      .cls-16 {
        fill: #313871;
      }

      .cls-17 {
        fill: #c069a9;
      }

      .cls-18 {
        fill: #89497a;
      }

      .cls-19 {
        fill: #b47e6a;
      }

      .cls-20 {
        fill: #e65a28;
      }

      .cls-21 {
        fill: #f08d60;
      }

      .cls-22 {
        fill: #3f59a8;
      }

      .cls-23 {
        fill: #eae4e4;
      }

      .cls-24 {
        fill: #a56a58;
      }
    </style>
  </defs>
  <g>
    <path class="cls-13" d="M732.1,779.78c-89.79,0-162.58-1.3-162.58-2.91s72.79-2.91,162.58-2.91,162.58,1.3,162.58,2.91-72.79,2.91-162.58,2.91Z"/>
    <path class="cls-13" d="M751.98,776.87c0,10.98-8.9,19.88-19.88,19.88s-19.88-8.9-19.88-19.88,8.9-19.88,19.88-19.88,19.88,8.9,19.88,19.88Z"/>
    <path class="cls-13" d="M735.01,776.87c0,89.79-1.3,162.58-2.91,162.58s-2.91-72.79-2.91-162.58,1.3-162.58,2.91-162.58,2.91,72.79,2.91,162.58Z"/>
    <path class="cls-13" d="M734.15,778.93c-63.49,63.49-115.88,114.04-117.02,112.9-1.14-1.14,49.41-53.53,112.9-117.02,63.49-63.49,115.88-114.04,117.02-112.9,1.14,1.14-49.41,53.53-112.9,117.02Z"/>
    <path class="cls-13" d="M730.04,778.93c-63.49-63.49-114.04-115.88-112.9-117.02,1.14-1.14,53.53,49.41,117.02,112.9,63.49,63.49,114.04,115.88,112.9,117.02s-53.53-49.41-117.02-112.9Z"/>
    <path class="cls-13" d="M740.04,776.87c0,4.39-3.56,7.94-7.94,7.94s-7.94-3.55-7.94-7.94,3.56-7.94,7.94-7.94,7.94,3.55,7.94,7.94Z"/>
    <path class="cls-13" d="M732.67,941.59c-94.59,0-171.53-76.95-171.53-171.53s76.95-171.53,171.53-171.53,171.53,76.95,171.53,171.53-76.95,171.53-171.53,171.53ZM732.67,622.5c-81.37,0-147.56,66.2-147.56,147.56s66.2,147.56,147.56,147.56,147.56-66.2,147.56-147.56-66.2-147.56-147.56-147.56Z"/>
  </g>
  <rect class="cls-24" x="790.68" y="720.02" width="47.34" height="201.35"/>
  <path class="cls-12" d="M874.1,684.35c6.19,4.57,21.42,26.87,18.26,36.48-9.94,30.23-15.73,41.13-19.74,57.82-7.75,32.38-17.69,56.85-23.71,90.33-1.1,6.32-2.25,13.03-3.31,20.3-.85,5.46-13.35,3.66-13.82,2.27-1.4-3.89-3.95-9.66-6.58-15.18-2.2-4.63-4.46-9.12-6.1-12.2-4.49-8.38-9.13-16.78-11.35-26.13-2.42-10.17-2.78-21.48-2.08-31.87,2.15-31.91,2.76-62.16,26.14-89.04,8.11-9.33,4.8-21.7,15.53-20.71,19.52,1.79,6.9-26.75,26.75-12.08Z"/>
  <path class="cls-12" d="M900.46,724.41c-1.67-8.68-5.76-16.81-13.95-24-4.97,3.48-8.86,9.79-14.1,15.81-23.38,26.88-32.38,55.74-34.53,87.65-.7,10.39-.34,21.7,2.08,31.87,2.22,9.35,6.86,17.75,11.35,26.13,1.64,3.08,3.9,7.57,6.1,12.2,2.63,5.53,5.18,11.29,6.58,15.18.47,1.4,12.97,3.19,13.82-2.27,1.07-7.27,2.21-13.98,3.31-20.3,5.09-29.26,9.73-58.59,14.01-87.98,2.68-18.41,8.58-37.41,5.33-54.29Z"/>
  <path class="cls-14" d="M850.36,861.32c-.13,0-.26-.01-.4-.04-.96-.22-1.57-1.18-1.36-2.15l12.08-53.5c.22-.97,1.16-1.56,2.15-1.36.96.22,1.57,1.18,1.36,2.15l-12.08,53.5c-.19.83-.93,1.4-1.76,1.4Z"/>
  <path class="cls-12" d="M764.5,501.41c-5.18-6.04-13.38-17.79-15.53-22.44-3.07-6.52-6.66-14.14-11.36-22.15-3.79-6.42-8.25-13.09-13.71-19.7-.34-.43-.62-.77-.86-1.1-11.17-13.57-22.1-26.85-27.28-37.01-4.65-9.16-5.85-20.71-3.5-30.54,4.36-18.46,21.24-30.87,51.11-10.31,11.7,8.05,20.57,31.55,27.42,45.16.58,1.05,1.05,2.11,1.58,3.16,3.07,6.09,5.61,12.08,7.72,17.35.86,2.16,1.92,4.75,3.16,7.58,8.49,20.23,23.97,55.51,26.99,69.13,3.12,14.09-38.06,9.83-45.74.86Z"/>
  <path class="cls-17" d="M783.25,431.41c-11.12,8.2-24.11,17.83-24.79,18.79l-20.85,6.62-4.46,1.44-10.12-22.24-30.78-67.55c4.36-18.46,21.24-30.87,51.11-10.31,11.7,8.05,20.57,31.55,27.42,45.16.58,1.05,1.05,2.11,1.58,3.16,3.07,6.09,5.61,12.08,7.72,17.35.86,2.16,1.92,4.75,3.16,7.58Z"/>
  <polygon class="cls-22" points="752.42 385.77 761.05 556.63 709.27 547.14 729.98 359.02 752.42 385.77"/>
  <path class="cls-6" d="M761.01,285.89c-9.04-8.44-23.63-9.92-33.96-2.77-3.17,2.19-5.38,5.45-8.5,7.7-3.14,2.26-6.21,3.95-8.24,7.39-3.84,6.49-3.05,14.71-.3,21.48-2.18,3.52-3.87,7.34-4.02,11.54-.17,4.89,2.1,9.68,5.87,12.77,5.98,4.9,9.4,10.35,15.04,5.92,1.62,8.31,13.19,9.53,22.04,10.03,9.34.53,17.45-6.48,19.57-15.2,6.41,3.1,14.86.74,19.39-4.81,6.04-7.4,4.37-17.88-.09-25.7,4.53-3.15,8.21-7.79,8.86-13.41.72-6.2-2.02-11.72-7.39-14.86-8.31-4.87-20.57-6.73-28.27-.09Z"/>
  <path class="cls-6" d="M697.29,307.56c5.18-11.22,2.03-25.54-7.99-33.12-3.08-2.33-6.86-3.4-9.97-5.66-3.13-2.27-5.7-4.66-9.6-5.52-7.36-1.61-14.92,1.71-20.49,6.44-4.03-.97-8.18-1.38-12.22-.21-4.7,1.37-8.53,5.02-10.29,9.57-2.79,7.21.26,14.79,6.23,18.76-7.39,4.14-12.08,12.88-9.78,21.45,2.41,9.04,11.61,14.54,20.56,13.83-.94,7.06,3.94,14.35,10.63,16.91,8.92,3.42,18.93,2.38,24.95-4.3,4.41,3.32,9.39,1.53,14.93.4,6.11-1.26,10.5-5.58,11.8-11.67,2.02-9.41-.04-21.64-8.76-26.88Z"/>
  <rect class="cls-24" x="547.91" y="456.42" width="56.05" height="293.88"/>
  <path class="cls-22" d="M847.57,666.4c-54.59-35.98-103.2-71.13-162.84-95.59-19.82-14.85-45.46-21.88-69.53-12.82-27,10.17-42.85,37.66-44.3,65.75-1.04,20.24,5.87,36.65,16.58,53.45,16.76,26.31,41.74,31.46,70.87,34.32,30.94,3.04,62.07,4.21,93.15,3.36,19.27-.52,40.4-2.14,60.38-1.08,14.88.79,38.88,11.11,48.04-5.61,9.65-17.61,2.22-32.18-12.35-41.78Z"/>
  <path class="cls-17" d="M789.9,601.99c-.39,1.07-1.12,2.14-2.32,3.23-11.58,10.61-38.73,11.4-53.38,13.01-21.08,2.33-42.85,2.63-63.9-.21-20.15-2.72-39.62-9.21-59.85-11.56-13.93-1.62-27.44-5.28-40.51-10.22-2.62-13.79,13.79-74.23,17.74-91.63,6.04-26.63,13.27-52.78,21.54-78.79,6.61-20.64,5.04-43.13,18.26-60.44,9.37-12.27,26.3-16.74,40.8-19.31,17.74-3.14,35.09-3.28,52.54,1.76,7.75,2.28,16.74,4.61,23.06,10.08,1.24,1.05,2.38,2.23,3.38,3.57,1.81,2.38,3.14,5.04,4.18,7.89,2.09,5.23,3.38,10.89,5.66,15.74.76,1.62,1.52,3.23,2.23,4.9,2.62,5.8,4.99,11.84,6.13,17.88.95,4.8,1.14,9.65.14,14.46-2.33,10.94-10.37,19.64-17.31,28.44-6.23,7.89-11.98,16.78-12.65,26.82-.62,9.07-4.87,32.69-1.35,41.05,12.43,29.56,25.89,43.15,51.95,70.67,4.03,4.26,4.94,9.07,3.65,12.65Z"/>
  <path class="cls-10" d="M907.03,790.2c-.05,11.22-.43,22.53-1.29,33.37l-7.48-1.29-7.91-1.39-1.53-.29-7.91-1.34-13.23-2.3-9.06-1.58-.77-.14-9.11-1.58-17.55-3.02-1.63-.29-8.2-1.44-1.63-.29-14.05-2.45-6.18-17.11-3.21-8.87-.53-1.39-3.26-9.11-4.7-13.09-2.06-5.61-1.2-3.36-2.01-5.61s-7.96-22.01-7.96-22.01l-22.05-1.1-5.9-.29-7.86-.38-4.79-.24-48.04-2.35-7.67-.38-3.55-.19-7.72-.38-39.6-1.97-7.77-.38-3.07-.14-7.57-.38-20.81-1.01-9.2-2.3s4.36-15.58,13.85-36.67c1.29-2.88,2.68-5.9,4.22-8.97,1.39-2.92,2.88-5.8,4.41-8.68,6.9-13.09,15.48-27.04,25.94-40.13,2.01-2.54,4.08-4.99,6.23-7.38.14-.14.29-.34.43-.48,2.21-2.49,4.51-4.94,6.86-7.33,14.48-14.57,31.74-26.7,52.06-33.27,3.98-1.34,8.1-2.4,12.37-3.21,4.89-.96,9.68-1.58,14.67-1.87,13.33-.77,27.61.81,43.05,5.32,0,0,3.74,2.01,10.07,5.8,1.1.62,2.3,1.34,3.6,2.11,2.78,1.68,5.94,3.6,9.35,5.75.67.43,1.34.86,2.06,1.29,7.38,4.7,16.01,10.45,25.12,17.02,2.4,1.68,4.84,3.45,7.29,5.27.96.67,1.87,1.39,2.83,2.11,2.16,1.63,4.22,3.21,6.33,4.84,8.49,6.62,17.12,13.86,25.26,21.43,2.06,1.92,4.08,3.88,6.09,5.85.43.43.81.81,1.25,1.25,2.01,1.97,3.93,4.03,5.9,6.09,10.54,11.19,19.76,23.07,26.36,35.26,4.4,8.14,6.93,17.16,7.88,26.37.19,1.88.4,3.95.62,6.2.19,1.77.34,3.6.53,5.56.14,1.25.24,2.54.38,3.88.14,1.77.29,3.69.43,5.61.91,11.36,1.82,24.93,2.3,39.31.1,3.26.19,6.47.24,9.78,0,1.2.05,2.35.05,3.55.05,3.31.05,6.66.05,10.02Z"/>
  <g class="cls-1">
    <path class="cls-6" d="M906.93,776.63c-36.82-7-74.69-6.33-111.18,2.16l-3.26-9.11c37.49-8.77,76.37-9.73,114.2-2.83.1,3.26.19,6.47.24,9.78Z"/>
  </g>
  <g class="cls-1">
    <path class="cls-6" d="M903.96,721.93c-40.85,1.01-80.16,14.48-118.22,29.05l-1.2-3.36-2.01-5.61c38.83-14.91,78.86-28.38,120.52-29.53.19,1.77.34,3.6.53,5.56.14,1.25.24,2.54.38,3.88Z"/>
  </g>
  <g class="cls-1">
    <path class="cls-6" d="M823.37,605.2c-29.2,6.14-56.91,18.84-80.59,37.11-25.89,19.99-45.69,46.41-64.53,72.97l-3.55-.19-7.72-.38c20.61-29.29,42.09-58.44,70.71-80.49,22.39-17.31,48.28-29.53,75.55-36.39,2.4,1.68,4.84,3.45,7.29,5.27.96.67,1.87,1.39,2.83,2.11Z"/>
  </g>
  <g class="cls-1">
    <path class="cls-6" d="M786.08,579.5c-37.54,3.5-71,24.07-97.85,49.71-14.38,13.76-27.33,29-39.74,44.58-9.83,12.37-20.81,24.74-28.86,38.54l-3.07-.14-7.57-.38c8.44-16.11,21.24-30.35,32.36-44.39,13.28-16.68,27.13-32.94,42.81-47.46,25.07-23.25,55.28-42.04,88.98-48.32,1.1.62,2.3,1.34,3.6,2.11,2.78,1.68,5.94,3.6,9.35,5.75Z"/>
  </g>
  <g class="cls-1">
    <path class="cls-6" d="M831.19,810.62l-1.63-.29-8.2-1.44c-2.16-19.42-5.23-38.69-9.3-57.82-2.49-11.84-5.27-23.63-8.53-35.28-2.59-9.2-5.7-19.27-12.9-25.98-8.01-7.58-20.61-8.73-31.07-10.31-11.7-1.77-23.49-2.78-35.28-3.45-42.62-2.4-86.15-.67-127.24-13.18,1.39-2.92,2.88-5.8,4.41-8.68,23.11,6.76,47.17,9.16,71.19,10.26,24.21,1.15,48.52,1.25,72.68,3.64,20.57,2.06,46.31,3.36,58.34,22.72,5.56,8.87,8.25,19.13,10.83,29.15,3.21,12.27,6.04,24.59,8.49,37.01,3.5,17.74,6.23,35.67,8.2,53.65Z"/>
  </g>
  <g class="cls-1">
    <path class="cls-6" d="M867.67,816.95l-9.06-1.58-.77-.14c-2.4-22.48-5.85-44.82-10.36-66.97-4.65-22.92-9.35-48.13-24.07-67.02-12.9-16.49-32.65-25.51-51.97-32.22-23.54-8.2-47.7-14.86-71.58-22.15-22.05-6.76-44.15-13.47-66.25-20.18.14-.14.29-.34.43-.48,2.21-2.49,4.51-4.94,6.86-7.33,25.17,7.72,50.34,15.39,75.51,23.06,23.54,7.19,47.7,13.38,70.47,22.68,20.04,8.2,38.69,20.33,49.91,39.31,12.37,20.85,16.78,45.74,21.38,69.18,4.12,21.14,7.24,42.43,9.49,63.86Z"/>
  </g>
  <g class="cls-1">
    <path class="cls-6" d="M898.26,822.27l-7.91-1.39-1.53-.29c3.31-22.68,4.55-45.69-.05-68.27-8.96-44.15-38.16-81.55-71.38-110.65-34.33-30.06-73.69-54.32-111.85-79.34,4.7-.91,9.49-1.53,14.48-1.82,19.32,12.7,38.54,25.31,57.48,38.45,38.74,26.89,76.23,57.82,100.15,99.14,11.22,19.32,19.22,40.41,22.24,62.66,2.78,20.47,1.39,41.13-1.63,61.51Z"/>
  </g>
  <g>
    <path class="cls-12" d="M911.03,904.27c-.31.47-1.01.64-1.59.61-4.71-.27-9.36-.54-14.07-.81-10.54-.59-21.03-1.18-31.57-1.77l-1.67-.08c-1.06-3.23-1.57-5.51-1.59-7.57.05-2.79,1.02-5.05,3-8.38,8.68,1.73,13.32-1.73,13.52-1.67,5.41,1.18,9.44,2.45,13.26,4.1,2.18.94,4.3,2.01,6.56,3.3,2.31,1.28,16.28,8.8,14.15,12.27Z"/>
    <path class="cls-11" d="M911.03,904.27c-.31.47-1.01.64-1.59.61-4.71-.27-9.36-.54-14.07-.81-10.54-.59-21.03-1.18-31.57-1.77l-1.67-.08c-1.06-3.23-1.57-5.51-1.59-7.57,0,0,21.24,6.19,29.78-5.96,2.18.94,4.3,2.01,6.56,3.3,2.31,1.28,16.28,8.8,14.15,12.27Z"/>
  </g>
  <path class="cls-12" d="M848.91,868.99c-1.1,6.32-2.25,13.03-3.31,20.3-.85,5.46-13.35,3.66-13.82,2.27-1.4-3.89-3.95-9.66-6.58-15.18l23.71-7.39Z"/>
  <g>
    <path class="cls-12" d="M878.82,906.57c-.31.47-1.01.64-1.59.61-4.7-.27-9.36-.54-14.07-.81-10.54-.59-21.03-1.18-31.57-1.77l-1.67-.08c-1.06-3.23-1.57-5.51-1.59-7.57.05-2.79,1.02-5.05,3-8.38,8.68,1.73,13.32-1.73,13.52-1.67,5.41,1.18,9.44,2.45,13.26,4.1,2.18.94,4.3,2.01,6.56,3.3,2.31,1.28,16.28,8.8,14.15,12.27Z"/>
    <path class="cls-7" d="M878.82,906.57c-.31.47-1.01.64-1.59.61-4.7-.27-9.36-.54-14.07-.81-10.54-.59-21.03-1.18-31.57-1.77l-1.67-.08c-1.06-3.23-1.57-5.51-1.59-7.57,0,0,21.24,6.19,29.78-5.96,2.18.94,4.3,2.01,6.56,3.3,2.31,1.28,16.28,8.8,14.15,12.27Z"/>
  </g>
  <path class="cls-12" d="M289.93,306.01c2.01-44.86,34.06-47.99,42.24-8.84,4.68,22.38,21.98,70.3,32.85,92.68,2.2,4.54,5.96,11.32,7.61,15.98,4.84,13.76-10.22,21.25-22.74,14.66-17.31-9.12-30.15-36.76-39.03-53.07-9.17-16.84-21.8-41.97-20.93-61.42Z"/>
  <path class="cls-12" d="M197.52,744.9c-4.58-18.16-13.95-12.16-31.39-11.47-3.86.15-1.97-18.75-18.03,9.5-8.89,15.64-23.37,29.1-34.21,43.41-15.98,21.08-30.51,42.59-33.09,69.64-1.25,13.13-.29,27.64,3.52,40.32,2.16,7.2,5.49,21.48,6.79,28.83.47,2.66,10.19,9.03,12.06,3.93,15.57-42.61,30.01-69.65,46.51-104.88,7.16-15.29,18.74-30.35,28.27-44.54,5.11-7.62,21.57-26.85,19.58-34.75Z"/>
  <path class="cls-12" d="M357.75,737.13c-11.05-15.13-17.49-6.06-33.4,1.12-3.52,1.59-8.84-16.65-13.16,15.56-2.39,17.83-10.77,35.73-15.47,53.07-6.92,25.53-12.34,50.92-4.6,76.96,3.76,12.64,10.08,25.74,18.36,36.07,4.7,5.87,13.13,17.86,17.09,24.19,1.43,2.29,12.83,4.55,12.65-.87-1.52-45.34,1.75-75.82,3.84-114.66.91-16.86,6.01-35.17,9.53-51.89,1.89-8.98,9.95-32.98,5.14-39.55Z"/>
  <path class="cls-15" d="M116.17,549.33c-2.55,28.4-4.87,90.54,11.47,169.83,1.98,9.61.32,19.63-4.72,28.04-20.22,33.72-69.55,125.03-40.59,169.73l27.8,10.3s73.26-144.36,91.19-177.77c1.22-2.28,2.1-4.69,2.62-7.22l47.86-233.36-115.51-24.73-13.36,35.64c-3.57,9.51-5.84,19.42-6.75,29.54Z"/>
  <path class="cls-15" d="M214.01,580.83s7.21,65.25,69.27,158.54c5.45,8.19,7.7,18.12,6.16,27.85-6.12,38.85-17.66,141.97,25.93,172.57l29.63-.86s13.86-161.29,17.98-198.98c.28-2.57.19-5.14-.28-7.68l-43.01-234.3-112.76,29.92,7.08,52.96Z"/>
  <path class="cls-17" d="M333.42,362.76c3.36-4.17,6.71-8.39,8.63-13.33,5.94-15.44,1.05-32.31-5.08-46.84-7.81-18.46-16.3-36.24-33.22-46.07-3.02-1.82-6.28-3.31-9.88-4.55-9.3-3.12-19.03-5.66-28.86-5.23-8.97.38-16.97,3.84-23.87,8.97-5.8,4.32-10.83,9.78-15.1,15.63-7.81,10.69-14.24,24.11-16.16,37.2-3.16,21.43-2.92,43.43-8.82,64.38-6.33,22.39-22.15,41.18-35.19,60.02-14.05,20.33-28.09,40.65-42.19,60.98,11.51,8.77,23.83,16.49,36.72,23.16,12.9,6.71,26.42,12.27,40.22,16.92,2.2.58,4.36,1.2,6.52,1.73,15.96,4.12,31.98,8.44,48.28,10.88,5.03.77,10.12,1.49,15.2,2.16,21.91,2.01,44.06,1.73,65.87-1.2,1.58-8.53-4.41-62.08-10.26-81.55-5.94-20.09-10.36-33.18-14.09-54.03-3.16-18.07,6.76-31.21,17.26-44.25,1.39-1.63,2.68-3.31,4.03-4.99Z"/>
  <path class="cls-21" d="M794.18,270.77c3.92,4.63,1.85,12.84-4.64,18.33-6.48,5.49-14.92,6.19-18.84,1.56-3.92-4.63-1.85-12.84,4.64-18.33,6.48-5.49,14.92-6.19,18.84-1.56Z"/>
  <path class="cls-6" d="M770.7,212.77c-3.81-2.81-8.11-5.05-12.51-6.82-19.61-7.9-42.47-7.33-61.67,1.52-16.76,7.73-36.95,25.53-40.71,44.67-3.94,20.08,6.44,44.31,20.46,58.22,6.31,6.26,14.68,11.53,23.52,10.58,1.8-.19,3.6-.66,5.1-1.67,2.21-1.49,3.51-3.96,4.83-6.27,12.03-21.21,31.75-37.05,52.69-49.55,7.81-4.67,16.37-9.5,20.05-17.82,3.5-7.93,1.52-17.55-3.52-24.6-2.28-3.19-5.1-5.92-8.25-8.24Z"/>
  <path class="cls-12" d="M786.01,303.6c-1.03,3.55-2.46,6.95-4.25,10.03-6.8,11.48-18.09,18.71-29.67,21.86-19.56,5.34-42.01-1.46-52.72-20.46-9.37-16.65-9.02-40.84-5.4-60.16,3.95-21.17,16.55-32.93,34.44-36.47,11.78-2.29,24.45-1.96,34.49,4.92,10,6.83,16.41,20.13,16.27,33.84-.03,2.94-.34,5.94.01,8.8.14,1.03.32,2.07.7,3.04.88,2.38,2.25,4.17,3.42,6.08.82,1.4,1.54,2.93,2.16,4.48,2.75,7.33,2.73,16.03.54,24.03Z"/>
  <path class="cls-6" d="M707.11,229.96c-.13.23.3.77,1.24,1.42.99.69,2.53,1.64,4.53,2.71,13.01,7.06,45.08,20.49,66.29,23.09,1.42.18-.06-9.14-.81-13.31-.22-1.09-.39-1.81-.44-1.95-.82-2.3-1.86-4.59-3.08-6.79-5.33-9.4-14.21-17.16-24.69-19.01-15.64-2.76-34.28-1.52-43.04,13.84Z"/>
  <path class="cls-6" d="M691.58,270.45s35.89-24.75,39.39-46.68c.13-.8-5.94-2.25-6.44-2.34-19.93-3.68-36.88,22.37-33,40.15.16.75.15,8.79.05,8.87Z"/>
  <path class="cls-12" d="M699.41,288.54c-3.43,5.01-11.89,5.17-18.9.37-7.01-4.8-9.91-12.75-6.48-17.76,3.43-5.01,11.89-5.17,18.9-.37,7.01,4.8,9.91,12.75,6.48,17.76Z"/>
  <path class="cls-9" d="M667.23,446.89c6.23,2.16,12.52,3.8,18.79,5.23,6.29,1.34,12.62,2.33,18.97,2.68,6.35.49,12.69-.03,18.97-.97,6.32-.98,12.35-3.13,18.5-5.59-5.21,3.97-11.15,7.43-17.71,9.06-6.49,1.74-13.3,2.48-20.01,2.05-13.39-.93-26.53-5.06-37.5-12.47Z"/>
  <path d="M733.76,280.9c-.08,2.97.97,5.4,2.34,5.44,1.37.04,2.55-2.34,2.63-5.31.08-2.97-.97-5.4-2.34-5.44-1.37-.04-2.55,2.34-2.63,5.31Z"/>
  <path d="M768.85,277.7c.75,2.87,2.43,4.92,3.76,4.58,1.33-.35,1.8-2.95,1.05-5.83-.75-2.87-2.43-4.92-3.76-4.58-1.33.35-1.8,2.95-1.05,5.83Z"/>
  <path class="cls-20" d="M754.84,299.83c2.04,2.06,5.44,3.13,8.59,1.81,1.59-.74,2.79-2.1,3.24-3.69.5-1.54.24-3.47-1-4.41.23,1.47-.2,2.64-.83,3.6-.68.94-1.51,1.73-2.47,2.13-2.04.96-4.61.8-7.54.57Z"/>
  <path class="cls-9" d="M758.6,311.06c-2.08-.33-4.03-.45-5.94-.68-1.9-.25-3.76-.47-5.53-.94-1.79-.42-3.47-1.04-5.14-1.81-1.66-.82-3.16-1.92-4.86-3.17.59,1.99,1.79,3.87,3.47,5.25,1.67,1.39,3.7,2.31,5.77,2.85,4.19.95,8.54.43,12.22-1.5Z"/>
  <path class="cls-12" d="M781.71,534.04c4.2,8.44,7.79,17.2,11.03,26.01,2.59,7.04,4.75,14.24,6.14,21.63.45,2.39,1.64,24,2.08,24.16,0,0,18.69,6.69,18.83-2.44,0-.5.49-9.7.84-12.04.63-4.26,1.17-8.53,1.62-12.81,4.08-38.74-5.12-76.75-28.38-108.19-4.24-5.73-11.33-16.53-19.41-17.01-4.15-.25-10.82,4.38-13.65,7.44-5.19,5.62-9.87,11.74-8.41,18.62,1.96,9.23,11.98,26.81,17.22,34.22,4.57,6.46,8.54,13.32,12.07,20.41Z"/>
  <path class="cls-4" d="M239.41,94.21c-.25-.14-.49-.19-.73-.23-10.75-11.12-27.32-14.71-42.36-13.45-15.81,1.33-32.08,9.77-35.52,26.51-1.16,5.64-.6,14.61,4.28,18.62-8.31,8.49-7.18,21.89-5.77,32.93.97,7.61,1.34,15.08-.44,22.6-.89,3.73-2.16,7.37-3.86,10.81-1.5,3.04-3.33,7-6.66,8.38-2.11.88-2.42,3.9.03,4.63,9.66,2.86,20.8,3.29,29.71-2.1,6.96-4.21,11.92-11.89,11.87-20.08,16.24-.76,27.66-15.36,28.83-31.06.16-2.1.05-4.17-.02-6.26-.05-1.37-.11-2.52.82-3.66.6-.73,1.49-1.23,2.16-1.9,2.64-2.6,3.68-6.2,4.12-9.79.45-3.74.26-7.77,1.67-11.32,1.61-4.07,5.75-5.61,9.17-7.81,5.35-3.44,10.04-12.68,2.69-16.81Z"/>
  <path class="cls-4" d="M334.3,96.2c-19.13-19.61-55.83-14.49-79.19-7.01-19.69,6.31-35.07,18.88-41.4,38.91-5.5,17.39-5.77,36.46-.38,53.91,2.61,8.45,8.24,19.83,17.88,21.75,4.91.98,10.06-1.04,13.84-4.32,6.74-5.86,8.88-14.32,12.83-21.94,4.19-8.08,10.8-14.35,18.48-19.11,13.93-8.64,26.35-5.72,41.2-12.51,5.44-2.49,16.01.71,20.18-3.67,6.23-6.53,8.03-29.11,3.89-37.13-1.55-3-5.1-6.6-7.33-8.88Z"/>
  <path class="cls-12" d="M372.04,957.66c-.29.48-.96.67-1.53.67-4.6-.04-9.16-.08-13.76-.12-10.31-.08-20.57-.16-30.87-.25h-1.63c-1.15-3.11-1.73-5.32-1.83-7.33-.05-2.73.81-4.99,2.63-8.35,8.53,1.28,12.94-2.32,13.13-2.27,5.32.9,9.3,1.95,13.09,3.39,2.16.81,4.27,1.77,6.52,2.92,2.3,1.15,16.22,7.84,14.25,11.34Z"/>
  <path class="cls-5" d="M372.03,957.66c-.29.48-.96.67-1.53.67-4.6-.05-9.16-.1-13.76-.14-10.31-.05-20.57-.14-30.87-.24h-1.63c-.24-.62-.43-1.2-.62-1.77-.72-2.2-1.1-3.93-1.2-5.56,0,0,20.95,5.08,28.86-7.19,2.16.82,4.27,1.73,6.52,2.88,2.01,1.01,12.85,6.23,14.24,9.88.24.53.24,1.06,0,1.49Z"/>
  <path class="cls-12" d="M374.92,408.31c23.78,13.58,47.74,25.63,75.12,31.38,0,0,1.57,17.19-6.17,22.96-20.45-1.6-41.25-6.29-60.59-10.89-18.53-4.41-33.67-16.53-48.29-28.23-3.77-3.02-7.27-5.15-6.4-10.38.71-4.28,3.83-8.26,6.94-11.13,4.35-4.02,10.21-7.43,16.31-6.01,3.32.77,6.33,2.53,9.27,4.26,4.62,2.71,9.22,5.4,13.82,8.03Z"/>
  <path class="cls-21" d="M351.97,156.1c4.26,5.66,1.3,15.09-6.62,21.06-7.92,5.97-17.8,6.22-22.07.56-4.26-5.66-1.3-15.09,6.62-21.06,7.92-5.97,17.8-6.22,22.07-.56Z"/>
  <path class="cls-12" d="M340.27,193.82c-1.44,4.07-3.32,7.94-5.62,11.4-8.69,12.93-22.33,20.61-36.03,23.5-23.16,4.92-48.87-4.49-60.1-27.35-9.82-20.03-7.8-48.2-2.3-70.49,6.02-24.41,21.48-37.28,42.57-40.22,13.88-1.88,28.63-.66,39.88,8.03,11.2,8.62,17.79,24.56,16.72,40.53-.3,4.67-1.24,9.53.04,13.85.78,2.7,2.3,4.95,3.58,7.32.87,1.69,1.6,3.51,2.22,5.37,2.71,8.72,2.11,18.87-.96,28.05Z"/>
  <path d="M326.5,161.46c.41,3.22-.46,5.99-1.95,6.18-1.49.19-3.03-2.27-3.44-5.49-.41-3.22.46-5.99,1.95-6.18,1.49-.19,3.03,2.27,3.44,5.49Z"/>
  <path d="M286.67,162.82c-.98,3.1-2.93,5.24-4.36,4.79-1.43-.45-1.8-3.33-.82-6.42.98-3.1,2.93-5.24,4.36-4.79,1.43.45,1.8,3.33.82,6.42Z"/>
  <path class="cls-20" d="M304.21,180.25c2.64.41,4.92.76,6.77.23.86-.2,1.64-.71,2.31-1.34.63-.65,1.09-1.48.99-2.63,1.09.83,1.24,2.33.71,3.47-.49,1.18-1.65,2.11-3.13,2.53-2.93.71-5.95-.46-7.64-2.25Z"/>
  <path class="cls-12" d="M287.59,242.67c3.12,6.9,5.99,13.85,8.63,20.9-1.29,7.05-7.19,12.56-14.43,13.09-7.48.58-17.02-.34-25.07-6.33-4.84-3.6-7.19-9.78-5.85-15.73l8.63-39.02,41.76,6.52-2.64,21.91c-.82-1.87-1.63-3.79-2.49-5.66-2.54-5.61-11.07-1.29-8.53,4.31Z"/>
  <path class="cls-12" d="M241.6,170.53c-4.33,5.61-14.21,5.24-22.06-.82-7.85-6.06-10.71-15.53-6.38-21.13,4.33-5.61,14.21-5.24,22.06.82,7.85,6.06,10.71,15.53,6.37,21.13Z"/>
  <path class="cls-4" d="M337.42,142.63s-29.59-20.7-30.31-34.02c0,0-30.92,42.66-76.19,38.67,0,0-4.64-68.43,66.45-62.48,0,0,52,14.31,40.05,57.83Z"/>
  <path class="cls-12" d="M128.18,954.73c-.45.34-1.14.26-1.67.05-4.25-1.76-8.46-3.51-12.71-5.27-9.53-3.94-19.01-7.85-28.54-11.79l-1.51-.61c.1-3.32.38-5.58,1.05-7.49.98-2.55,2.62-4.32,5.56-6.75,7.43,4.39,12.87,2.7,13.03,2.81,4.6,2.83,7.89,5.29,10.87,8.04,1.7,1.56,3.3,3.24,4.96,5.15,1.71,1.93,12.1,13.34,8.97,15.86Z"/>
  <path class="cls-5" d="M128.17,954.73c-.45.34-1.14.26-1.67.05-4.25-1.77-8.45-3.52-12.7-5.29-9.54-3.9-19.02-7.84-28.54-11.78l-1.51-.61c.01-.67.05-1.27.09-1.88.16-2.31.45-4.06.97-5.61,0,0,17.52,12.56,29.45,4.14,1.7,1.56,3.31,3.2,4.97,5.11,1.49,1.69,9.58,10.59,9.5,14.49.02.58-.17,1.07-.56,1.38Z"/>
  <rect class="cls-23" x="288.91" y="446.05" width="61.08" height="39.77" transform="translate(-13.58 9.6) rotate(-1.69)"/>
  <path class="cls-2" d="M333.97,446.07c-.78,6.63-7.27,11.31-14.49,10.45-7.22-.85-12.43-6.92-11.65-13.54.78-6.63,7.27-11.3,14.49-10.45,7.22.85,12.43,6.92,11.65,13.54Z"/>
  <rect class="cls-19" x="515.62" y="456.42" width="34.02" height="293.88"/>
  <rect class="cls-19" x="439.96" y="456.42" width="108.63" height="17.46"/>
  <path class="cls-9" d="M283.34,195.65c3.41,4.18,7.3,5.69,11.75,6.1,2.2.33,4.54.23,6.96.24,2.43-.06,4.91-.23,7.64-.03-2.1,1.7-4.47,2.92-7.03,3.72-1.27.44-2.62.58-3.96.85-1.38.03-2.75.18-4.17-.03-2.77-.33-5.7-1.31-7.86-3.35-2.16-1.96-3.57-4.77-3.33-7.51Z"/>
  <path class="cls-12" d="M455.69,440.22c6.18,1.06,11.63,4.01,17.87,4.94,1.59.23,7.14.07,6.82,3.08-.58,5.45-4.78,6.29-9.01,6.2-2.64-.05-5.35-.19-7.91.53-2.18.61-4.17,1.76-6.14,2.92-.87.51-4.35,3.28-5.3,2.64-.31-.21-.48-.62-.62-.99-2.05-5.48-10.14-13.9-9.21-19.82,3.45-1.29,11.1.1,13.5.51Z"/>
  <path class="cls-12" d="M473.25,473.64c-2.58-3.68-5.45-7.27-8.78-9.95,0,0-4.45,5.49-4.46,5.49-.16.19,1.71,2.88,1.84,3.09,1.43,2.29,2.9,5.23,5.1,6.88,1.8,1.35,4.25,1.05,5.62-.75,1.02-1.34,1.15-3.15.68-4.76Z"/>
  <path class="cls-12" d="M465.92,474.79c-2.58-3.68-5.45-7.28-8.78-9.95,0,0-4.45,5.49-4.46,5.49-.16.19,1.71,2.88,1.84,3.09,1.43,2.29,2.91,5.23,5.1,6.88,1.8,1.35,4.25,1.05,5.62-.75,1.02-1.34,1.15-3.15.68-4.76Z"/>
  <path class="cls-12" d="M481.65,472.92c0-.18-.02-.35-.05-.53-.23-1.7-1.37-3.32-2.17-4.8-1.21-2.25-2.54-4.43-4.1-6.45,0,0-6.91,3.61-6.91,3.61-.77.42,2.04,6.39,2.3,7,1.1,2.57,2.83,6.87,6.15,6.98,3.08.1,4.91-3.01,4.78-5.81Z"/>
  <path class="cls-12" d="M488.25,469.17c-.88-2.18-2.94-4.06-4.33-5.94-1.13-1.54-3.46-4.45-5.05-5.42-1.06,1.09-.38,2.47-1.32,3.67-.25.33-2.33,2.46-2.21,2.85,1.05,3.66,2.56,7.57,4.78,10.69.47.66,1,1.29,1.69,1.71,3.57,2.17,7.35-2.1,6.98-5.57-.07-.67-.26-1.34-.52-1.99Z"/>
  <path class="cls-12" d="M449.95,440.74c10.7,3.86,24.75,11.48,30.75,18.83.4.49,6.63,13.28-20.7,17.88-.4.07-5.5-2.31-8.09-3.56-4.13-1.99-11.31-2.01-15.1-4.73-3.19-2.29-6.15-5.35-7.38-9.22-2.31-7.24-1.38-15.3,5.18-18.98,4.57-2.57,11-1.8,15.35-.23Z"/>
  <path class="cls-12" d="M289.49,291.15c-23.34-1.72-41.23-25.66-48.36-35.44,6.9-5.13,14.91-8.58,23.87-8.97,9.83-.43,19.56,2.11,28.86,5.23,3.6,1.25,6.86,2.73,9.88,4.55,3.5,8.66,4.17,15.34,3.53,20.4-1.13,8.85-8.88,14.88-17.78,14.23Z"/>
  <path class="cls-12" d="M298.61,244.01l-2.25,18.6c-.05.34-.1.67-.14.96-2.64-7.05-5.51-14-8.63-20.9-2.54-5.61,5.99-9.92,8.53-4.31.86,1.87,1.68,3.79,2.49,5.66Z"/>
  <path class="cls-15" d="M325.12,438.22c-.86,6.14-10.07,3.69-9.3-2.35,7.43-58.3.96-117.46-19.61-172.3.05-.29.1-.62.14-.96l2.25-18.6c26.22,60.79,35.81,128.58,26.51,194.21Z"/>
  <path class="cls-12" d="M360.83,422.16c25.44,10.14,50.85,18.73,78.76,20.61,0,0,3.95,16.8-2.91,23.59-20.47,1.26-42.05,1.68-61.52-2.34-15.37-3.18-38.96-13.05-55.07-22.59-4.15-2.46-4.6-2.71-4.47-8.02.11-4.34,2.65-8.72,5.32-11.99,3.75-4.59,9.07-8.78,15.31-8.22,3.4.3,6.62,1.62,9.77,2.92,4.95,2.04,9.88,4.06,14.81,6.03Z"/>
  <path class="cls-14" d="M333.32,404.76c7.33,5.02,14.96,9.51,22.78,13.5,7.92,3.84,15.93,7.34,24.46,9.33,8.63,2.24,17.05,4.85,25.61,7.16,8.54,2.17,17.07,5.07,25.58,6.49l-.44.08c2.6-.98,5.22-1.59,7.89-1.98,2.66-.4,5.38-.44,8.02-.07-5.31.1-10.54,1.45-15.15,3.7-.13.07-.3.09-.44.08-9.07-1-17.64-3.04-26.27-5.21-8.59-2.2-17.24-4.39-25.68-6.95-8.7-2.29-17.08-5.87-24.77-10.44-7.73-4.5-15.03-9.7-21.6-15.7Z"/>
  <path class="cls-15" d="M319.56,428.07c-11.59-33.4-5.88-70.2-18.62-103.32-11.46-29.8-36-52.41-47.3-82.52-.86-2.3-9.89,5.47-8.34,10.64,9.39,31.31,35.23,45.33,46.74,75.45,12.51,32.73,6.69,69.26,18.28,102.32,2.03,5.79,11.26,3.27,9.24-2.58Z"/>
  <path class="cls-12" d="M326.99,444.45c-18.65-5.9-49.33-40.51-60.98-54.99-.81-1.01-1.63-2.06-2.49-3.12-11.7-14.86-26.56-35.62-29-53.65-5.94-44.49,31.26-52.83,46.26-15.77,6.57,16.2,19.08,45.02,32.26,65.78,4.08,6.42,8.2,12.03,12.23,16.3,10.36,10.93,24.74,17.83,31.64,22.44,12.13,8.1-16.44,27.28-29.92,23.01Z"/>
  <path class="cls-17" d="M304.56,364.49c-14.45,8.56-28.69,17.83-41.04,21.86-11.7-14.86-26.56-35.62-29-53.65-5.94-44.49,31.26-52.83,46.26-15.77,6.57,16.2,10.59,26.8,23.78,47.56Z"/>
  <path class="cls-18" d="M303.55,365.42c-.65,0-1.28-.36-1.6-.97-12.51-24.16-31.58-59.74-31.77-60.1-.47-.87-.14-1.96.73-2.43.88-.47,1.96-.15,2.44.74.19.36,19.28,35.96,31.8,60.14.46.88.11,1.97-.77,2.42-.26.14-.54.2-.82.2Z"/>
  <path class="cls-18" d="M263.52,388.15c-.61,0-1.21-.31-1.54-.87l-35.19-58.39c-.51-.85-.24-1.95.61-2.47.84-.51,1.95-.24,2.47.61l35.19,58.39c.51.85.24,1.95-.61,2.47-.29.17-.61.26-.92.26Z"/>
  <rect class="cls-19" x="794.42" y="902.96" width="119.95" height="18.41"/>
  <g class="cls-1">
    <path class="cls-6" d="M862.3,638.56c-.14.1-.29.14-.48.24-43.05,19.18-82.17,46.36-115.2,79.82l-7.86-.38-4.79-.24c34.33-36.39,75.51-65.73,121-86.53,2.06,1.92,4.08,3.88,6.09,5.85.43.43.81.81,1.25,1.25Z"/>
  </g>
  <path class="cls-3" d="M722.79,346.65s34.52,50.63,13.23,188.12c0,0,3.45,20.71,27.04,31.07,0,0,20.76-144.95-10.29-199.94-2.2-3.89-5.46-7.04-9.3-9.32-5.76-3.43-14.81-8.45-20.69-9.92Z"/>
  <path class="cls-12" d="M726.13,364.17l14.19-36.46-31.2-14.52-17.43,35.92c-3.24,6.68-2.21,14.46,2.54,18.56,4.72,4.06,11.53,7.83,19.95,6.72,5.1-.67,9.79-4.68,11.94-10.21Z"/>
  <path class="cls-12" d="M723.51,395.7s-35.38-25.03-44.01-53.07c0,0,24.88-5.71,42.12,1.51.49.21.98.42,1.45.65,17.26,8.2.43,50.91.43,50.91Z"/>
  <path class="cls-3" d="M690.07,340.9s48.94,171.06-39.92,231.61c-9.28,6.32-20.59,9.01-31.73,7.64l-50.96-6.26s.29-243.56,122.61-232.99Z"/>
  <path class="cls-12" d="M674.53,391.69c2.71,11.39,2.97,29.21,3.23,47.26.26,19.27.58,38.94,4,51.5,1.33,4.92,15.72,25.19,17.44,32.24,2.79,11.45-27.27,24.04-39.7,16.68-17.23-10.17-27.23-56.4-33.13-74.12-1.8-5.41-3.75-11.61-5.39-18.22-4.07-15.67-6.71-33.6-2.72-48.37,14.49-53.7,49.42-35.65,56.26-6.98Z"/>
  <path class="cls-17" d="M676.2,385.2c2.71,11.39,7.52,34.28,1.56,53.76l-56.77,8.09c-4.07-15.67-8.91-34.42-4.91-49.19,14.49-53.7,53.28-41.34,60.12-12.66Z"/>
  <path class="cls-16" d="M907.03,790.2c0-3.36,0-6.71-.05-10.02-5.32-1.53-10.74-2.88-16.2-3.93-1.29-15.15-4.22-30.11-9.16-44.78-.14-.43-.29-.86-.43-1.25,5.32-.77,10.69-1.49,16.06-2.01,2.35-.24,4.75-.48,7.14-.67-.24-3.36-.53-6.52-.82-9.49-1.77.1-3.55.29-5.32.43-6.86.62-13.66,1.53-20.47,2.59-8.68-21.67-21.29-41.85-37.11-58.97-.81-.86-1.73-1.73-2.54-2.59,9.59-5.71,19.61-10.98,30.06-14.86-2.35-2.49-4.7-4.94-7.14-7.33-4.94,1.92-9.73,4.12-14.38,6.52-5.27,2.73-10.4,5.66-15.53,8.68-11.17-10.69-23.35-20.23-35.96-29.24,11.22-5.23,22.72-9.68,34.52-13.23-3.07-2.4-6.14-4.75-9.16-6.95-11.7,3.84-23.16,8.53-34.23,13.9-3.55-2.44-7.1-4.89-10.64-7.29-8.49-5.75-17.02-11.46-25.55-17.21,10.07-4.22,20.57-7.53,31.21-10.16,2.25-.58,4.55-1.06,6.81-1.53-4.22-2.68-8.1-5.03-11.41-7.05-12.32,3.12-24.4,7.1-36,12.46-11.79-7.96-23.59-15.92-35.38-23.83-4.27.82-8.39,1.87-12.37,3.21,12.66,8.49,25.31,16.97,37.92,25.5-.72.38-1.44.72-2.16,1.15-14.86,8.29-28.14,19.13-40.51,30.83-18.03-5.61-36.1-11.22-54.17-16.88-2.3,2.54-4.51,5.18-6.66,7.86,17.79,5.47,35.57,10.88,53.36,16.35-11.79,11.89-23.06,24.4-33.56,37.49-16.68-1.73-33.41-3.45-50.1-5.18-1.53,3.12-2.97,6.18-4.27,9.11,15.82,1.63,31.59,3.31,47.37,4.94-.24.34-.53.67-.77,1.01-8.29,11.03-16.06,22.48-22.87,34.42l10.83.53c7.19-12.13,15.34-23.63,24.07-34.76,15.87,1.63,31.74,3.31,47.65,4.94-1.82,2.01-3.64,3.98-5.37,6.09-6.9,8.29-13.28,17.02-19.03,26.08l11.22.58c7.53-11.17,15.96-21.67,25.12-31.5,8.39.86,16.78,1.77,25.17,2.64,12.37,1.29,24.79,2.45,37.15,3.88-9.16,6.52-18.12,13.28-26.66,20.57-2.68,2.3-5.37,4.65-7.96,7l13.76.67c10.79-9.16,22.29-17.64,33.89-25.7,1.82.77,3.45,1.77,4.84,3.26,3.64,3.93,4.89,10.12,6.38,15.1,2.78,9.2,5.27,18.51,7.67,27.85-7,2.49-13.9,5.18-20.76,8.2l3.26,8.97c1.58-.67,3.12-1.29,4.6-1.92,5.03-2.11,10.16-4.07,15.29-5.99,2.21,9.06,4.17,18.17,6.04,27.33-5.85,1.1-11.7,2.49-17.45,4.17l3.21,8.87c5.32-1.49,10.69-2.78,16.11-3.79.14.58.24,1.15.38,1.73,1.34,7.19,2.64,14.38,3.74,21.62l9.83,1.73c-1.34-8.92-2.92-17.79-4.6-26.66,6.76-.91,13.57-1.44,20.37-1.68,0,.19,0,.34.05.48,1.44,10.36,2.54,20.76,3.36,31.16l9.88,1.73c-.81-11.17-1.92-22.34-3.4-33.41,8.87.19,17.74,1.06,26.56,2.45.43,7.57.48,15.2,0,22.92-.24,3.98-.53,7.96-.86,11.94l9.44,1.63c.34-3.4.58-6.76.81-10.12.53-8.25.58-16.44.24-24.59,5.27,1.1,10.5,2.44,15.63,4.03ZM822.7,657.69c-4.79,3.02-9.59,6.09-14.29,9.2-6.76-5.08-14.19-9.16-22.05-12.42-9.4-3.93-19.18-6.95-28.91-9.92,8.96-6.09,18.36-11.55,28-16.54,12.99,9.16,25.65,18.79,37.25,29.68ZM726.34,604.86c4.41-2.83,8.92-5.37,13.57-7.72,6.28,4.27,12.56,8.49,18.84,12.7,5.99,4.03,11.99,8.01,17.93,12.08-10.69,5.7-21,12.03-30.87,19.08-14.53-4.55-29.05-9.06-43.63-13.57-1.15-.38-2.25-.72-3.4-1.05,8.58-7.91,17.69-15.25,27.57-21.53ZM707.17,674.14c-11.22-1.15-22.39-2.3-33.61-3.5-4.99-.48-9.97-1.01-14.91-1.53,7-8.49,14.33-16.68,21.91-24.69,3.45-3.64,6.95-7.29,10.55-10.79,15.2,4.65,30.35,9.4,45.45,14.24-10.36,8.05-20.23,16.83-29.39,26.27ZM784.97,682.57c-8.72-2.4-18.7-2.3-27.18-3.16-12.75-1.34-25.5-2.64-38.26-3.98,8.82-8.63,18.22-16.64,28.14-24.02,6.76,2.16,13.52,4.31,20.23,6.52,11.12,3.64,22.29,7.91,32.02,14.57-1.97,1.34-3.93,2.64-5.9,3.93-3.02,2.01-6.04,4.08-9.06,6.14ZM814.36,736.27c-2.01-7.72-4.08-15.39-6.33-23.06-2.68-9.3-4.99-19.9-12.94-25.94,4.17-2.88,8.44-5.66,12.66-8.44,7.19,6.9,12.61,15.39,16.83,24.59,3.98,8.63,7.19,17.59,9.97,26.7-6.81,1.87-13.52,3.93-20.18,6.14ZM823.18,774.43c-1.97-9.68-4.17-19.32-6.52-28.91,6.71-2.3,13.57-4.31,20.42-6.18,2.83,10.98,5.03,22.15,6.81,33.27-6.9.24-13.86.82-20.71,1.82ZM843.75,727.73c-2.21-7.33-4.75-14.62-7.62-21.77-4.65-11.51-10.69-22.77-19.32-31.74-.29-.29-.62-.58-.91-.86,4.6-2.97,9.25-5.85,13.9-8.72,16.49,16.97,29.2,36.72,37.97,58.06-8.05,1.44-16.06,3.12-24.02,5.03ZM853.77,772.42c-1.87-11.99-4.27-23.83-7.38-35.52,8.2-2.01,16.49-3.74,24.83-5.13,4.84,13.76,8.15,28.14,9.73,42.86-9.01-1.34-18.07-2.11-27.18-2.21Z"/>
  <rect class="cls-19" x="515.62" y="712.48" width="295.34" height="68.38"/>
  <rect class="cls-19" x="790.68" y="720.02" width="19.56" height="201.35"/>
  <g>
    <ellipse class="cls-8" cx="622.79" cy="794.13" rx="162.58" ry="2.91"/>
    <path class="cls-8" d="M642.67,794.13c0,10.98-8.9,19.88-19.88,19.88s-19.88-8.9-19.88-19.88,8.9-19.88,19.88-19.88,19.88,8.9,19.88,19.88Z"/>
    <path class="cls-8" d="M625.7,794.13c0,89.79-1.3,162.58-2.91,162.58s-2.91-72.79-2.91-162.58,1.3-162.58,2.91-162.58,2.91,72.79,2.91,162.58Z"/>
    <path class="cls-8" d="M624.85,796.19c-63.49,63.49-115.88,114.04-117.02,112.9-1.14-1.14,49.41-53.53,112.9-117.02,63.49-63.49,115.88-114.04,117.02-112.9,1.14,1.14-49.41,53.53-112.9,117.02Z"/>
    <path class="cls-8" d="M620.73,796.19c-63.49-63.49-114.04-115.88-112.9-117.02,1.14-1.14,53.53,49.41,117.02,112.9,63.49,63.49,114.04,115.88,112.9,117.02-1.14,1.14-53.53-49.41-117.02-112.9Z"/>
    <path class="cls-13" d="M630.73,794.13c0,4.39-3.56,7.94-7.94,7.94s-7.94-3.56-7.94-7.94,3.56-7.94,7.94-7.94,7.94,3.56,7.94,7.94Z"/>
    <path class="cls-8" d="M622.79,964.03c-94.59,0-171.53-76.95-171.53-171.53s76.95-171.53,171.53-171.53,171.53,76.95,171.53,171.53-76.95,171.53-171.53,171.53ZM622.79,644.93c-81.37,0-147.56,66.2-147.56,147.56s66.2,147.56,147.56,147.56,147.56-66.2,147.56-147.56-66.19-147.56-147.56-147.56Z"/>
  </g>
  <g>
    <path class="cls-12" d="M789.81,588.92c-3.22,4.58-4.85,9.73-8.19,14.27-.85,1.16-4.41,4.66-2.41,6.1,3.61,2.6,6.73.34,9.31-2.45,1.61-1.74,3.22-3.57,5.25-4.83,1.73-1.08,3.65-1.74,5.57-2.38.84-.28,4.67-1.02,4.88-1.99.07-.32-.07-.64-.21-.94-2-4.32-2.21-12.32-6.33-14.95-2.7,1.46-6.62,5.39-7.87,7.17Z"/>
    <path class="cls-14" d="M785.72,596.79c4.97,2.58,8.8,6.38,13.86,8.87,1.29.63,6.07,2.1,4.96,4.3-2,3.97-5.81,3.41-9.39,2.14-2.23-.8-4.5-1.68-6.89-1.86-2.03-.16-4.04.15-6.04.46-.88.14-4.62,1.25-5.24.49-.21-.25-.23-.61-.25-.93-.23-4.75-3.22-11.47-.79-15.71,2.5-.19,7.85,1.25,9.78,2.25Z"/>
    <path class="cls-12" d="M808.08,616.82c1.56.71,2.25,2.55,1.54,4.11-.15.33-.37.59-.6.83-1.25,2.38-2.82,4.3-4.49,5.95-.19.19-.36.42-.56.6-1.69,1.65-3.44,2.94-5.06,3.94-4.21,3.33-5.83,2.99-5.83,2.99-2.09-.59-.93-3.94,2.41-7.79,1.28-1.49,2.71-2.95,4.11-4.35.16-.2.32-.4.52-.56,2.28-2.31,3.26-3.13,3.68-3.45.04-.25.06-.5.17-.74.71-1.56,2.55-2.25,4.11-1.54Z"/>
    <path class="cls-12" d="M805.77,619.83c-1.09,2.25-3.24,5.19-5.05,7.35-.39.77-.82,1.17-1.29,1.48-2.12,2.21-4.17,3.81-6.11,5.02-4.68,3.89-6.15,2.85-6.15,2.85-2.57-1.72-1.24-3.71,2.39-8.16,1.6-1.97,3.36-4.02,5.08-5.83,3.42-3.75,5.98-5.96,5.98-5.96l5.15,3.24Z"/>
    <path class="cls-12" d="M801.92,617.97c-1.57,2.66-3.89,5.62-5.98,7.81-.39.4-.73.78-1.04,1.08-2.78,2.69-5.71,4.74-8.34,6.28-4.53,3.23-6.19,2.75-6.19,2.75-2.75-.91-2.21-3.27,1.7-7.74,2.1-2.42,4.65-5.01,7.08-7.4,4.63-4.58,8.17-7.65,8.17-7.65l4.6,4.86Z"/>
    <path class="cls-12" d="M791.26,623.4c2.18-2.17,4.27-4.7,6-7.77l-3.31-6.01s-4.61,3.52-8.7,8.09c-2.19,2.31-4.09,4.7-5.85,6.77-3.98,4.61-4.3,7.5-1.88,8.03,0,0,1.69.39,6.18-2.98,2.07-1.33,4.33-2.97,6.56-5.06.18-.17.34-.39.52-.56.08-.07.18-.1.25-.17.1-.1.13-.23.22-.34Z"/>
    <path class="cls-12" d="M794.5,585.62c-.95,1.9-1.28,3.93-1.16,5.91-3.71,5.11,1.85,12.74-5.88,24.03-.3.45,16.11,5.63,21.44,6.16.36.04,6.01-10.24,7.27-12.33,2.02-3.33,3.85-7.05,5.25-10.68,1.18-3.05,1.8-6.5.74-9.6-1.4-4.11-5.41-6.41-9.57-7.06-.73-.63-1.51-1.21-2.42-1.66-5.78-2.88-12.79-.54-15.68,5.24Z"/>
    <path class="cls-12" d="M800.72,615.29c.76-1.53,2.63-2.15,4.16-1.39,1.53.76,2.15,2.63,1.39,4.16-.77,1.53-2.63,2.15-4.16,1.39-1.53-.76-2.15-2.63-1.39-4.16Z"/>
    <path class="cls-12" d="M794.83,612.61c.83-1.66,2.84-2.33,4.5-1.5,1.66.83,2.33,2.84,1.5,4.5-.83,1.66-2.84,2.33-4.5,1.5-1.66-.83-2.33-2.84-1.5-4.5Z"/>
    <path class="cls-12" d="M782.41,629.98c-1.05,1.35-.81,3.3.54,4.35.28.22.6.35.92.46,2.21,1.53,4.49,2.51,6.73,3.2.26.08.52.21.77.28,2.26.68,4.41,1.01,6.31,1.16,5.27,1.01,6.55-.05,6.55-.05,1.58-1.49-1-3.92-5.73-5.79-1.82-.73-3.76-1.37-5.66-1.96-.24-.11-.47-.2-.72-.25-3.09-.99-4.34-1.27-4.85-1.36-.16-.2-.29-.42-.5-.58-1.35-1.05-3.3-.81-4.35.54Z"/>
    <path class="cls-12" d="M785.85,631.58c2,1.5,5.27,3.1,7.87,4.18.7.5,1.26.66,1.83.72,2.9.97,5.46,1.45,7.74,1.63,5.94,1.29,6.77-.31,6.77-.31,1.49-2.72-.62-3.86-5.89-6.13-2.32-1.01-4.83-2.01-7.2-2.82-4.76-1.75-8.06-2.52-8.06-2.52l-3.07,5.25Z"/>
    <path class="cls-12" d="M788.4,628.15c2.62,1.63,6.05,3.18,8.91,4.16.53.18,1.01.36,1.42.48,3.71,1.1,7.25,1.56,10.3,1.71,5.51.77,6.77-.42,6.77-.42,2.02-2.08.45-3.92-5.09-6.08-2.98-1.18-6.44-2.29-9.7-3.29-6.22-1.92-10.78-3-10.78-3l-1.83,6.43Z"/>
    <path class="cls-12" d="M800.37,628.04c-2.94-.92-5.96-2.2-8.92-4.12l.16-6.86s5.71.99,11.46,3.15c3.01,1.04,5.79,2.28,8.31,3.3,5.66,2.25,7.28,4.66,5.38,6.25,0,0-1.31,1.13-6.86.22-2.45-.22-5.21-.63-8.16-1.46-.23-.06-.48-.18-.72-.25-.1-.02-.2,0-.3-.03-.13-.04-.22-.14-.35-.2Z"/>
    <path class="cls-12" d="M779.94,596.17c1.64,1.04,3.11,2.4,4.38,3.84,3.44,3.91,4.83,8.96,8.01,12.95,2.11,2.64,4.82,4.78,7.8,6.37.48.25-11.69,12.44-16.16,15.37-.3.2-10.06-6.31-12.15-7.57-4.87-2.94-10.46-6.18-13.23-11.37-2.86-5.38-.57-12.02,3.38-16.25,2.73-2.92,6.63-4.94,10.62-5.31,2.68-.25,5.16.59,7.35,1.98Z"/>
    <path class="cls-12" d="M786.56,624.24c-1.39-1.01-3.33-.7-4.33.69-1,1.39-.7,3.33.69,4.33,1.39,1.01,3.33.7,4.33-.69,1.01-1.39.7-3.33-.69-4.33Z"/>
    <path class="cls-12" d="M790.55,619.14c-1.5-1.09-3.6-.75-4.69.75-1.09,1.5-.75,3.6.75,4.69,1.5,1.09,3.6.75,4.69-.75,1.09-1.5.75-3.6-.75-4.69Z"/>
    <path class="cls-14" d="M808.66,622.47c-1.95-.17-3.92-.45-5.81-1.06-1.9-.59-3.7-1.48-5.4-2.53-1.66-1.11-3.18-2.47-4.41-4.04-1.3-1.53-2.12-3.39-2.8-5.22,1.08,1.65,2.14,3.26,3.5,4.62,1.32,1.37,2.74,2.66,4.37,3.64,3.15,2.17,6.81,3.41,10.56,4.6Z"/>
    <path class="cls-14" d="M776.17,629.93c1.56.37,2.87,1.13,4.2,1.87,1.26.85,2.54,1.67,3.58,2.89-1.56-.37-2.87-1.13-4.2-1.87-1.26-.85-2.54-1.67-3.58-2.89Z"/>
  </g>
  <path class="cls-12" d="M719.16,553.45c5.95,7.31,12.45,14.2,19.13,20.79,5.34,5.27,11.01,10.21,17.16,14.53,1.99,1.4,21.18,11.41,21.14,11.88,0,0-1.62,19.78-10,16.15-.46-.2-9.04-3.56-11.31-4.21-4.14-1.19-8.26-2.46-12.34-3.81-36.96-12.28-67.79-36.35-86.81-70.52-3.47-6.23-10.38-17.14-7.48-24.7,1.49-3.88,8.46-8.05,12.41-9.36,7.26-2.41,23.54.31,29.2,4.48,7.6,5.59,10.71,17.52,15.29,25.36,4,6.83,8.61,13.28,13.61,19.43Z"/>
</svg>