<?xml version="1.0" encoding="UTF-8"?>
<svg id="Layer_1" data-name="Layer 1" xmlns="http://www.w3.org/2000/svg" viewBox="0 0 1000 1000">
  <defs>
    <style>
      .cls-1 {
        fill: #d07555;
      }

      .cls-2 {
        fill: #9c649b;
      }

      .cls-3 {
        fill: #d4dcff;
      }

      .cls-4 {
        fill: #fff;
      }

      .cls-5 {
        fill: #865585;
      }

      .cls-6 {
        fill: #c069a9;
      }

      .cls-7 {
        fill: #ff940a;
      }

      .cls-8 {
        fill: #fbb370;
      }

      .cls-9 {
        fill: #fed770;
      }

      .cls-10 {
        fill: #e4c4ff;
      }

      .cls-11 {
        fill: #fa9265;
      }

      .cls-12 {
        fill: #495ede;
      }

      .cls-13 {
        fill: #3f59a6;
      }
    </style>
  </defs>
  <path class="cls-6" d="M413.88,768.54c-4.23,10.21-10.14,19.67-17.6,27.84-7.54,8.26-16.52,15.2-26.3,20.63-19.71,10.94-42.68,15.87-65.15,14.46-23.12-1.46-47.29-9.54-63.61-26.59-41.13-42.95-9.18-115.76,34.59-143.51,2.66-1.68,5.4-3.26,8.21-4.71.74-13.65,5.01-26.96,12.35-38.4.35-.54,1.23-.34,1.23.34-.03,4.33.73,8.62,2.22,12.69,2.2,6.04,6.02,11.44,11,15.49,22.95-5.3,47.48-3.33,67.97,8.51,9.13,5.28,17.39,12.12,24.05,20.3,6.85,8.43,11.91,18.17,14.98,28.58,6.21,21.03,4.43,44.2-3.93,64.38Z"/>
  <path class="cls-13" d="M382.7,757.21c-3.45,2.55-6.87,5.13-10.3,7.71,1.18-6.39,2.36-12.78,3.54-19.17.12-.64-.59-1.44-1.24-.96-3.55,2.6-7.14,5.23-10.8,7.81-.09-.96-.21-1.91-.34-2.87,1.39-.21,2.73-.73,3.89-1.63,2.61-2.02,3.9-5.32,4.56-8.46.81-3.84.72-7.73.59-11.63-.17-4.91-.49-9.84-1.51-14.66-1.81-8.52-6.37-16.77-14.4-20.82-2.01-1.01-4.15-1.66-6.34-1.92-3.46-4.97-7.99-9.14-13.53-11.82-4.79-2.32-10.12-3.32-15.42-2.61-5.63.76-10.86,3.29-15.29,6.79-5.11,4.03-8.87,9.23-11.74,14.94-4.71,1-9.29,2.57-13.6,4.71-10.02,4.96-19.11,13.23-22.89,23.98-3.55,10.09-1.37,21.24,4.15,30.19,2.14,3.47,4.74,6.57,7.68,9.25.37,3.46,1.45,7.06,3.77,9.73,2.28,2.62,5.9,3.71,9.18,2.37,1.36-.56,2.55-1.46,3.54-2.56.55.18,1.1.36,1.65.52,3.48,1,7.05,1.63,10.65,1.95,1.64,1.67,3.41,3.24,5.35,4.65,8.71,6.37,20.04,9.16,30.42,5.47,2.13-.76,4.15-1.74,6.06-2.9,1.15.22,2.35.33,3.58.29,8.16-.31,14.86-6.74,17.89-13.96,2.27-5.4,2.67-11.22,2.26-17.04,3.31-2.33,6.58-4.71,9.84-7.11-1.16,6.32-2.33,12.64-3.5,18.96-1.89,1.42-3.77,2.85-5.67,4.25-.73.54-.02,1.78.72,1.23,1.55-1.14,3.11-2.27,4.66-3.4.11.43.52.68,1.03.61,5.93-.87,10.97-5.25,12.8-10.93.22-.67-.65-1.41-1.26-.97ZM362.09,751.33c.09.79.16,1.58.23,2.38-1.01.7-2.02,1.4-3.03,2.09.33-2.08.51-4.18.57-6.29.67.18,1.35.3,2.04.33.07.5.14,1,.2,1.5ZM299.24,776.38c-1.72-1.81-3.29-3.77-4.65-5.83-1.06-1.6-1.99-3.27-2.81-4.99.44-.04.88-.09,1.32-.15,1.98-.3,3.82-.9,5.55-1.72.11.96.25,1.92.43,2.87.7,3.67,2.16,7.35,4.85,10-1.56,0-3.12-.06-4.68-.18ZM287.43,770.15c-.32,1.2-.88,2.42-1.64,3.49-3.82-1.32-7.47-3.12-10.81-5.47-1.32-.93-2.57-1.95-3.78-3.03-.12-1.6-.11-3.22-.02-4.83.06-1.07.17-2.14.31-3.21.41.46.82.92,1.27,1.35,4.02,3.92,9.41,6.53,15.01,7.07.13,1.55.05,3.1-.35,4.62ZM286.71,763.79c-5.81-.94-11.26-4.16-14.87-8.82,1.14-6.26,3.62-12.27,7.17-17.54,1.85-2.73,4.06-5.38,6.56-7.73-.97,7.95-1,16,.52,23.87.1.52.22,1.04.34,1.56-.53-.45-1.54-.05-1.25.74.92,2.53,1.93,5.26,2.4,8.03-.29-.03-.57-.06-.86-.11ZM295.52,699.39c10.43-2.08,21.42-1.2,31.22,2.54-4.45.72-8.49,2.9-11.87,5.93-5.23-2.03-10.68-3.43-16.26-4.18-.55-.07-.93.59-.8,1.05.71,2.59,1.53,5.16,2.4,7.7-3.18-.3-6.4-.2-9.55.34,1.22-4.52,2.73-8.98,4.76-13.2.03-.06.06-.12.09-.18ZM349.5,692.18c6.04,8.97,7.78,20.14,7.6,30.84-1.22-2.89-2.68-5.67-4.5-8.26-4.69-6.7-12.05-12.01-20.32-12.94,2.18-3.03,4.82-5.69,8.07-7.52,2.78-1.57,5.97-2.35,9.14-2.12ZM359.87,747.78c-.03-4.21-.58-8.42-1.61-12.49-.07-.27-.15-.54-.22-.81.1-.91.2-1.82.28-2.73.49,1.81.94,3.63,1.34,5.46.78,3.62,1.49,7.28,2.02,10.95-.68-.05-1.26-.19-1.8-.38ZM315.65,777.29c3.04-.51,6.05-1.21,8.99-2.06.55-.16,1.09-.33,1.63-.5-.94.63-1.94,1.22-2.98,1.74-2.58,1.02-5.17,1.24-7.65.81ZM339.98,732.3c1.97,7.21,1.9,14.96-.08,22.16-.52,1.87-1.17,3.74-1.95,5.55-.31-.03-.61-.08-.92-.13.52-3.89.28-7.94-.5-11.79-1.87-9.2-6.57-18.04-13.3-24.64.68-2.82,1.51-5.6,2.48-8.33,3.63,2.24,7.05,4.8,10.22,7.65,1.8,2.96,3.15,6.22,4.06,9.53ZM330.18,771.55c-.97.36-1.95.71-2.93,1.04-1.19-2.12-2.16-4.37-2.93-6.57-1.75-5.02-2.73-10.36-3.16-15.74,1.21,1.45,2.47,2.86,3.8,4.19,2.85,2.85,6.31,5.5,10.21,6.66-.76,3.79-2.35,7.36-4.8,10.24-.06.06-.13.12-.19.18ZM324.62,751.69c-1.26-1.38-2.46-2.82-3.63-4.29-.11-2.46-.13-4.91-.04-7.33.17-4.98.81-9.93,1.86-14.8,1.95,2.01,3.71,4.21,5.24,6.54,4.62,7.03,7.68,15.56,7.66,24.02,0,1.22-.1,2.44-.26,3.65-4.26-1.31-7.9-4.58-10.83-7.8ZM300.05,760.3c-.07-1.7-.07-3.37-.05-4.92.12-9.82,1.86-19.61,5.16-28.86.13-.35.26-.71.39-1.06,2.36,4.94,5.02,9.74,8.02,14.33.62.95,1.26,1.9,1.9,2.85-.41.78-.84,1.54-1.28,2.27-2.17,3.63-4.57,7.21-7.37,10.39-1.93,2.18-4.11,4.19-6.58,5.74-.06-.24-.12-.48-.18-.72ZM306.38,723.35c.24-.58.49-1.15.75-1.72,1.32.27,2.61.69,3.84,1.32,3.37,1.71,6.12,4.67,6.88,8.44.67,3.29-.21,6.58-1.59,9.62-3.8-5.6-7.08-11.58-9.88-17.66ZM304.37,718.77c.39-.59.8-1.18,1.25-1.74.45-.56.94-1.09,1.45-1.6.43.13.86.28,1.29.42-.8,1.31-1.54,2.66-2.22,4.04-.45-.06-.91-.11-1.36-.13-.14-.33-.27-.66-.41-.99ZM315.03,710.9c.74-.15,1.48-.22,2.21-.25,2.39,1.06,4.71,2.27,6.96,3.58-.59,1.67-1.12,3.34-1.61,5-.28.96-.53,1.93-.78,2.9-3.28-2.94-6.99-5.36-11.06-7.06.91-1.35,1.9-2.63,2.97-3.83.42-.13.85-.25,1.29-.34ZM322.67,711.44c.76.25,1.51.56,2.23.91-.81-.13-1.52-.53-2.23-.91ZM309.24,714.47c-.27-.1-.55-.19-.82-.28.65-.53,1.33-1.02,2.04-1.45-.42.57-.83,1.14-1.22,1.73ZM316.65,725.48c-2.21-2.68-5.45-4.51-8.83-5.3.63-1.28,1.32-2.54,2.07-3.76,4.42,1.82,8.22,4.37,11.51,7.46-1.61,6.96-2.35,14.14-2.16,21.28-.68-.9-1.33-1.82-1.98-2.74,2.64-5.59,3.73-11.68-.6-16.94ZM326.29,713.52c.05-.12.09-.25.13-.37,1.86,1.11,3.35,2.28,4.7,3.58-1.57-1.14-3.18-2.21-4.84-3.21ZM318.21,708.98c-.2,0-.4.01-.6.01-.37-.16-.75-.31-1.12-.46.39-.33.79-.65,1.19-.96,3.48-2.64,7.47-4,11.55-4.17-1.44,2.34-2.67,4.83-3.72,7.38-2.28-1.07-4.73-1.74-7.31-1.81ZM312.88,709.81c-2.33.8-4.43,2.13-6.26,3.82-1.23-.35-2.48-.64-3.76-.85-.28-.05-.56-.08-.85-.12-.82-2.35-1.57-4.73-2.25-7.13,4.71.71,9.32,1.93,13.76,3.61-.22.22-.44.45-.66.68ZM305.32,714.94c-.6.66-1.16,1.35-1.68,2.07-.34-.87-.66-1.76-.99-2.64.9.15,1.79.35,2.67.57ZM303.65,721.29c.3.7.6,1.4.92,2.1-1.77,4.31-3.07,8.84-4.06,13.33-.66,2.95-1.15,5.94-1.51,8.94.03-.98.07-1.95.12-2.91.34-7.12.61-14.91,3.8-21.42.25-.01.49-.03.74-.03ZM312.46,750.49c1.34-1.97,2.76-4.15,3.98-6.44.95,1.35,1.92,2.69,2.93,4,.02.32.02.64.05.97.59,8.26,2.15,16.78,6.21,24.1-4.47,1.4-9.07,2.42-13.82,2.97-3.12-1.43-5.89-3.84-7.92-6.81-1.43-2.09-2.46-4.34-3.21-6.68,4.8-2.9,8.63-7.51,11.77-12.11ZM336.77,761.52c.15.03.3.05.46.08-.27.56-.55,1.11-.84,1.65.15-.57.28-1.15.39-1.73ZM339.6,726.34c1.19,1.23,2.34,2.5,3.43,3.82,2.75,3.32,4.94,6.95,7.28,10.55,1.11,1.7,2.33,3.47,3.77,5.01-.93,2.95-2.19,5.81-3.99,8.33-2.47,3.46-6.12,5.89-10.38,6.04,4.44-10.65,4.52-23.18-.12-33.74ZM353.35,742.13c-2.26-3.09-4.06-6.48-6.32-9.58-2.29-3.14-4.83-6.1-7.61-8.82-.78-.76-1.57-1.5-2.39-2.23-2.48-3.93-5.92-7.59-10-9.92,1.09-2.65,2.38-5.32,3.94-7.8,7.55,3.68,14.17,9.21,18.94,16.54,2.87,4.41,5.03,9.32,6.42,14.43-.27,2.2-.62,4.39-1.09,6.54-.18.83-.39,1.67-.61,2.5-.46-.55-.89-1.11-1.29-1.66ZM356.74,742.32c.23-1.03.43-2.06.61-3.1.46,2.55.72,5.14.78,7.72-.77-.48-1.49-1.07-2.15-1.72.29-.98.54-1.95.76-2.9ZM356.77,730.41c-2.92-8.18-7.84-15.69-14.46-21.32-2.27-1.93-4.71-3.63-7.27-5.11,1.53.37,3.05.9,4.53,1.61,7.86,3.78,13.17,10.9,16.35,18.85.38.94.72,1.89,1.04,2.84-.05,1.04-.11,2.08-.19,3.12ZM300.78,714.1c.55,1.53,1.14,3.06,1.75,4.57-.23.38-.45.77-.66,1.16-2.78.28-5.51,1.14-8.03,2.33-2.1,1-4.1,2.23-5.98,3.63.45-2.81,1-5.6,1.65-8.37.23-.98.47-1.96.72-2.94,3.47-.68,7.04-.8,10.56-.38ZM288.33,715.04c-1,4.05-1.85,8.17-2.45,12.33-4.42,3.77-8.09,8.52-10.76,13.55-2.01,3.78-3.59,7.95-4.55,12.25-.2-.32-.39-.64-.58-.97-3.61-6.51-3.33-14.6-.43-21.32,3.11-7.21,9.07-12.75,16.5-15.3.76-.26,1.52-.48,2.3-.68-.01.04-.02.09-.03.13ZM286.75,735.89c.15-2.65.42-5.29.78-7.92,3.38-2.78,7.21-4.96,11.36-6.05.71-.19,1.43-.32,2.15-.43-.23.51-.45,1.02-.64,1.54-1.79,4.77-2.35,9.9-2.68,14.95-.33,5.17-.65,10.39-.31,15.57.15,2.23.46,4.47.96,6.65.03.6.07,1.2.11,1.8-.53.26-1.06.51-1.61.73-1.85.74-3.82,1.14-5.8,1.26-3.8-8.75-4.84-18.65-4.32-28.12ZM300.96,767.52c1.75,3.45,4.22,6.49,7.61,8.76-.06.11-.27.13-.49.15-.56.03-1.12.06-1.67.08-2.97-2.16-4.58-5.41-5.45-8.99ZM311.51,777.86c1.05.45,2.15.79,3.27,1.01-1.86.09-3.7-.15-5.44-.8.73-.06,1.45-.13,2.17-.21ZM330.53,773.63c.17-.17.32-.35.49-.52,9.09-3.41,17.62-8.24,25.74-13.56-1.52,6.04-4.31,11.76-8.51,16.68-2.42,2.84-5.26,5.3-8.37,7.24-.91-.22-1.81-.53-2.71-.94-3.44-1.6-6.18-4.27-8.34-7.39.59-.47,1.16-.96,1.7-1.49ZM333.65,770.18c.38-.46.76-.92,1.11-1.39,1.65-2.19,3.06-4.56,4.22-7.04.24,0,.48.02.72,0,8.39-.24,13.19-7.42,15.72-14.76.84.73,1.73,1.37,2.73,1.87-.04,2.78-.33,5.55-.85,8.27-7.55,5.01-15.39,9.59-23.64,13.05ZM361.28,697.84c6.5,6.24,8.62,15.22,9.32,23.91.33,4.16.61,8.43.4,12.61-.16,3.21-.66,6.61-2.19,9.47-1.18,2.21-3.1,3.85-5.48,4.24-.31-2.07-.68-4.11-1.05-6.11-.93-4.99-2.02-10.06-3.65-14.91.04-.85.08-1.7.1-2.55.21-6.59-.23-13.26-1.89-19.66-1.12-4.34-2.89-8.55-5.26-12.37,3.67.79,7,2.78,9.7,5.36ZM320.48,678c10.55-1.96,20.64,3.58,27.16,11.62.23.29.44.58.66.87-1.08,0-2.16.09-3.24.3-3.83.74-7.26,2.81-10.07,5.46-1.72,1.61-3.22,3.42-4.56,5.36-5.58-2.52-11.59-4.09-17.7-4.7-5.4-.54-10.89-.33-16.25.61,5.03-9.37,13.21-17.52,24-19.51ZM258.5,743.36c-.98-4.84-.86-9.9.51-14.65,1.55-5.38,4.61-10.22,8.44-14.28,6.94-7.34,16.22-12.27,26.01-14.59-1.96,4.28-3.45,8.79-4.65,13.31-3.82.88-7.49,2.41-10.73,4.69-6.48,4.54-10.93,11.87-12.07,19.69-.92,6.34.46,12.74,4.12,17.86-.47,2.72-.68,5.47-.58,8.19-5.51-5.52-9.52-12.59-11.06-20.21ZM279.63,777.2c-3.57-.04-5.95-3.06-7.15-6.13-.44-1.13-.75-2.29-.96-3.47,3.89,3.17,8.32,5.67,13.1,7.43-1.34,1.32-3.05,2.19-4.99,2.17ZM287.31,774.14c.87-1.34,1.5-2.84,1.78-4.36.26-1.39.3-2.78.2-4.16.23,0,.46,0,.68,0,1.77,3.79,4.03,7.33,6.77,10.5-3.2-.38-6.37-1.04-9.44-1.98ZM319.86,787.77c-7.04-1.16-13.52-4.69-18.75-9.54,1.64.07,3.28.08,4.92.03,2.64,1.71,5.79,2.44,8.96,2.25,3.26-.19,6.35-1.14,9.2-2.61,1.16-.48,2.26-1.09,3.31-1.8,2.64,3.76,6.18,6.96,10.42,8.49-5.46,2.9-11.66,4.22-18.04,3.17ZM356.81,776.74c-3.57,4.37-8.83,7.32-14.28,7.08,6.37-4.54,11.27-11.16,14.15-18.4.94-2.36,1.66-4.8,2.18-7.27.25-.17.51-.34.76-.51.95-.64,1.89-1.3,2.83-1.95.34,7.46-.78,15.1-5.63,21.04ZM371.98,767.21c3.04-2.28,6.05-4.48,9.06-6.68-1.97,3.33-5.27,5.76-9.06,6.68Z"/>
  <path class="cls-5" d="M741.3,684.02c-.62,1-1.26,2-1.88,3,3.73,5.25,6.85,10.95,9.17,17.04,6.17,16.23,6.61,34.61,1.36,51.12-1.93,6.05-4.62,11.86-8.08,17.21-31.35,48.6-99.45,38.79-131.47-3.32-17.26-22.69-22.43-54.77-10.69-80.75,23.45-51.87,89.17-48.83,126.61-15.79,11.24-4.04,21.41-10.87,29.38-19.79.38-.42,1.21.03.99.57-1.53,3.81-3.14,7.59-4.88,11.3-3.13,6.66-6.63,13.15-10.51,19.4Z"/>
  <path class="cls-3" d="M727.54,714.96c-4.11-7.14-11.97-11.79-20.01-12.99-1.09-.16-2.18-.26-3.27-.32-1.13-1.56-2.6-2.92-4.45-4-1.3-.76-2.67-1.3-4.07-1.68-4.26-7.88-11.65-13.93-21.01-15.33-8-1.2-16.51.82-22.78,6.03-.8.67-1.57,1.39-2.28,2.17-4.97,2.23-9.63,5.19-13.34,9.07-5.31.41-10.53,1.65-15.43,3.83-7.32,3.26-13.92,8.9-16.52,16.68-2.97,8.9-.08,18.93,5.08,26.44,8.81,12.82,25.27,20.19,40.69,17.6,1.34-.23,2.65-.54,3.93-.92,1.38,5.46,4.2,10.55,8.49,14.5,6.37,5.85,15.09,8.29,23.43,5.59,2.16-.7,4.2-1.66,6.13-2.84,3.78-1.08,7.35-2.92,10.44-5.37,4.15-3.28,7.22-7.62,8.9-12.49,2.35-2.65,4.62-5.37,6.81-8.13,3.06-3.85,5.96-7.89,8.21-12.28,4.09-7.97,5.73-17.44,1.05-25.56ZM701.54,701c.19.18.36.38.54.58-1.29,0-2.58.07-3.87.21-.4-1.27-.87-2.52-1.42-3.73,1.76.65,3.39,1.62,4.76,2.94ZM705.04,718.09c-.75-.84-1.64-1.57-2.68-2.11-.89-.46-1.83-.77-2.79-.97.41-3.88.08-7.8-.89-11.54,1.58-.15,3.16-.21,4.74-.16,1.47,2.26,2.24,4.93,2.37,7.66.12,2.42-.17,4.8-.76,7.12ZM706.17,725.73c0,.66-.06,1.31-.15,1.96-.53-.97-1.11-1.91-1.75-2.82.45-.94.86-1.9,1.23-2.88.45,1.16.67,2.43.66,3.74ZM710.06,759.84c-1.73,1.97-3.51,3.9-5.4,5.72.14-.25.29-.49.42-.74,3.28-6.06,5.07-13.27,5.02-20.38,1.43,5.03,1.52,10.41-.05,15.41ZM708.19,749.42c-.85,7.42-3.81,14.67-8.56,20.45-6.53,4.81-14.78,7.96-22.84,5.67-.39-.11-.77-.24-1.14-.37-.09-.33-.11-.71-.03-1.14.35-2.04,2.08-3.77,3.54-5.1,6.87-6.3,13.09-13.21,18.44-20.85,2.65-3.78,5.24-7.71,7.29-11.85.2-.41.4-.83.59-1.25.96,1.29,1.81,2.66,2.54,4.1.53,3.41.57,6.91.18,10.34ZM690.84,777.37c-2.99.76-6.12,1-9.18.64.77.03,1.55.02,2.34-.04,3.64-.28,7.05-1.3,10.23-2.82-.96.76-1.96,1.46-2.99,2.1-.13.04-.26.08-.4.11ZM659.77,759.22c.51-.26,1.01-.54,1.5-.83,3.91,3.67,9.19,5.95,14.53,5.82,3.11-.08,5.96-1.02,8.44-2.56-.24.25-.48.51-.73.76-1.75,1.79-3.57,3.52-5.42,5.2-1.54,1.39-3.02,2.99-3.8,4.94-.25.63-.39,1.28-.4,1.93-6.4-2.95-11.01-9.07-14.12-15.26ZM654.86,751.63c.7,2.35,1.57,4.64,2.58,6.83-.7.31-1.42.6-2.14.86-.47-2.53-.61-5.12-.44-7.69ZM645.24,699.66c.06.67.19,1.32.39,1.95-.2.22-.4.44-.58.68-2.03,2.76-2.67,6.53-.81,9.54.45.72,1.58.07,1.14-.67-1.57-2.61-.88-5.75.87-8.06.96,1.78,2.54,3.2,4.62,4.02,4.24,1.66,8.74.47,12.63-1.53,1.04,1.44,1.84,3.06,2.38,4.77-3.1,3.87-6.31,7.84-8.78,12.15-1.39,2.41-2.44,5.01-2.91,7.7-.41,1.38-.72,2.79-.92,4.23-6.12,1.42-12.87-.61-17.49-4.8-5.92-5.36-7.03-13.54-4.41-20.87,1.26-3.51,3.25-6.57,5.7-9.22,2.72-.17,5.45-.13,8.16.11ZM650.35,690.46c3.81-1.83,7.72-3.25,11.63-4.03,4.22-.85,9.45-.31,11.7,3.92,2.13,4.02-1.32,7.64-4.39,9.82-1.47,1.05-3.04,2.11-4.67,3.06-.59-.27-1.19-.54-1.79-.8-2.17-2.07-4.88-3.61-7.84-4.08-1.66-.27-3.28-.15-4.78.3-1.13-.2-2.26-.37-3.4-.51.25-2.82,1.8-5.65,3.55-7.68ZM698.13,711.66c0,1.04-.07,2.08-.18,3.11-1.73-.13-3.5.07-5.18.49-4.41-2.03-9.36-3.05-14.24-2.92-.55-.49-1.1-.97-1.66-1.43,2.59-1.49,5.29-2.79,8.02-3.9,3.88-1.58,8.02-2.79,12.21-3.36.68,2.62,1.04,5.32,1.03,8.01ZM683.5,719.89c-1.16.89-2.26,1.87-3.3,2.91-.3.03-.59.07-.89.11-.33-3.02-1.08-5.98-2.26-8.81.31-.03.63-.04.94-.06,1.98,1.81,3.83,3.75,5.51,5.84ZM680.34,714.03c2.27.07,4.53.39,6.71.95,1.12.29,2.21.64,3.28,1.06-1.96.73-3.8,1.72-5.52,2.9-1.39-1.73-2.88-3.36-4.47-4.91ZM687.08,724.97c1.33,2.17,2.49,4.5,3.4,6.92-.26.31-.52.62-.78.91-3.71,4.15-8.58,7.72-13.93,9.72,1.59-3.29,2.72-6.81,3.3-10.46.32-2.02.46-4.05.43-6.06.48-.54.97-1.07,1.47-1.59,1.92-.17,3.86-.17,5.77.03.11.18.23.34.34.52ZM688.87,724.75c1.84.33,3.65.82,5.39,1.51-.75,1.43-1.62,2.8-2.58,4.1-.8-1.94-1.74-3.83-2.8-5.61ZM658.74,741.28c-.34-.33-.65-.68-.93-1.05,2.86-5.92,7.65-10.7,13.76-13.4,2.03-.9,4.16-1.55,6.34-1.97,0,.13,0,.26.01.39-1.18,1.37-2.27,2.79-3.28,4.24-3.13,4.49-5.46,9.49-6.94,14.73-3.24.09-6.58-.63-8.96-2.94ZM656.35,737.5c.13-.88.3-1.76.52-2.63,1.59-.73,3.07-1.68,4.41-2.83-1.81,1.95-3.31,4.11-4.52,6.42-.15-.31-.28-.63-.4-.96ZM663.41,719.3c-1.96,2.14-3.69,4.48-5.1,7.04-1.12,2.02-2.02,4.18-2.69,6.41,0-.43.04-.85.08-1.28,1.3-4.8,3.91-9.08,7.71-12.17ZM666.6,718.52c-.03.2-.04.39-.07.59-.9,5.6-4.14,10.94-9.09,13.72,1.23-3.84,3.21-7.46,5.72-10.56,1.07-1.32,2.22-2.57,3.44-3.75ZM668.97,745.92c1.08-.09,2.17-.26,3.25-.51-1.24,1.98-2.66,3.84-4.23,5.52.23-1.69.56-3.36.98-5.01ZM669.58,744.08c1.62-5.84,4.48-11.36,8.29-16.14-.3,5.32-1.87,10.62-4.42,15.34-1.27.36-2.57.63-3.87.79ZM674.61,744.73c3.9-1.27,7.6-3.35,10.58-5.58,2.15-1.61,4.14-3.44,5.91-5.46.45,1.42.81,2.87,1.05,4.33-4.15,3.87-8.88,7.11-14,9.57-2.45,1.17-4.98,2.13-7.57,2.92,1.51-1.79,2.86-3.73,4.02-5.79ZM682.83,722.63c.54-.49,1.1-.96,1.68-1.41.36.48.72.96,1.07,1.46-.91-.06-1.83-.07-2.74-.05ZM674.65,712.24c-.2.48-.57.54-.94.61.31-.21.62-.41.94-.61ZM675.57,714.26c1.23,2.85,1.95,5.84,2.23,8.89-5.42,1-10.58,3.39-14.73,7.12,1.02-1.15,1.92-2.42,2.67-3.82,1.55-2.9,2.45-6.2,2.6-9.52.5-.43,1-.86,1.52-1.27,1.84-.68,3.76-1.14,5.7-1.39ZM662.01,718.23c1.53-2.07,2.95-3.98,4.41-5.84.18.91.29,1.84.33,2.78-1.68.83-3.27,1.85-4.74,3.06ZM656.24,744.23c.05-.17.1-.34.16-.51.2-.62.44-1.22.68-1.82,1.13,1.26,2.53,2.3,4.19,2.97,1.91.77,3.92,1.11,5.96,1.12-.51,2.11-.89,4.25-1.13,6.41-.01.13.01.24.06.35-1.41,1.29-2.91,2.45-4.51,3.46-2.35-2.54-4.08-5.68-4.91-9.12-.23-.95-.39-1.9-.5-2.86ZM668.38,752.92c8.48-2.14,16.39-6.29,23.04-11.96.34-.29.67-.58,1-.88.33,3.59-.04,7.22-1.42,10.71-2.92,7.4-10.03,12.79-18.19,11.48-3.79-.61-7.2-2.36-9.94-4.86,1.98-1.31,3.83-2.81,5.51-4.49ZM693.1,750c1.22-3.72,1.41-7.57.88-11.35,2.62-2.5,5.06-5.29,7.12-8.3,1.16.97,2.23,2.04,3.21,3.19-.76,1.76-1.67,3.45-2.61,5.06-2.9,4.97-6.16,9.71-9.73,14.21.44-.91.81-1.85,1.13-2.81ZM697.27,732.61c-1.14,1.4-2.37,2.73-3.64,4.01-.32-1.51-.74-2.99-1.25-4.45,1.29-1.64,2.45-3.39,3.44-5.23,1.39.66,2.71,1.46,3.94,2.36-.79,1.15-1.62,2.26-2.49,3.31ZM696.57,725.45c.71-1.49,1.32-3.04,1.8-4.62,1.46,1.25,2.78,2.67,3.95,4.23-.5.96-1.04,1.89-1.62,2.8-1.31-.93-2.69-1.74-4.13-2.41ZM695.05,724.78c-2.35-.95-4.83-1.58-7.35-1.9-.59-.9-1.21-1.78-1.86-2.63.82-.56,1.67-1.09,2.55-1.55,1.29-.67,2.71-1.26,4.17-1.68,1.56.76,3.03,1.66,4.41,2.7-.5,1.74-1.14,3.44-1.93,5.07ZM695.11,716.48c.87-.11,1.74-.14,2.61-.08-.09.52-.19,1.03-.3,1.54-.74-.52-1.51-1.01-2.31-1.47ZM678.44,708.12c-1.01.53-2.02,1.08-3.01,1.67-1.37-1.05-2.79-2.04-4.25-2.96,5.35-5.62,12.1-10.08,20.16-9.81,1.16.04,2.32.2,3.45.46.72,1.45,1.34,2.96,1.83,4.51-6.34.89-12.52,3.19-18.18,6.13ZM673.93,710.69c-1.72,1.08-3.4,2.25-5,3.51-.2.08-.4.17-.6.25-.09-1.24-.29-2.48-.61-3.68.76-.93,1.54-1.85,2.35-2.75,1.33.83,2.61,1.73,3.86,2.66ZM667.11,708.87c-.46-1.21-1.05-2.38-1.78-3.48,1.11.55,2.19,1.14,3.26,1.77-.5.56-1,1.13-1.48,1.71ZM662.06,703.88c.15.16.31.31.45.48-1.65.8-3.36,1.45-5.12,1.78-3.69.69-8.28-.44-9.97-4.12.74-.86,1.63-1.38,2.58-1.73,4.13.74,8.18,1.95,12.06,3.59ZM657.15,753.04c.79,1.48,1.77,2.86,2.91,4.11-.34.19-.68.37-1.03.55-.7-1.51-1.33-3.07-1.89-4.66ZM705.03,731.69c-.99-1.09-1.96-1.98-2.98-2.8.47-.75.92-1.51,1.34-2.28.07.11.15.22.22.33.69,1.12,1.3,2.27,1.84,3.46-.12.43-.26.86-.41,1.29ZM703.15,723.35c-1.03-1.29-2.18-2.51-3.45-3.63-.27-.24-.55-.47-.83-.7.07-.27.14-.54.2-.82.11-.52.21-1.05.3-1.58,2.38.59,4,1.79,5.12,3.39-.37,1.13-.82,2.24-1.32,3.33ZM670.08,681.89c7.66-.03,14.9,3.08,20.07,8.76,1.36,1.5,2.56,3.14,3.59,4.88-6.09-.93-12.64,1.15-17.59,4.68-2.34,1.67-4.45,3.61-6.41,5.7-1.29-.76-2.35-1.34-3.43-1.88,1.21-.72,2.39-1.49,3.54-2.28,1.74-1.21,3.43-2.57,4.64-4.33,2.4-3.46,1.68-7.79-1.52-10.46-3.81-3.19-8.92-2.83-13.44-1.6-1.83.5-3.68,1.07-5.51,1.73,4.58-3.42,10.38-5.17,16.08-5.19ZM647.42,691.81c-1.08,1.75-1.85,3.66-2.13,5.71-.02.16-.03.31-.05.47-2.13-.19-4.26-.26-6.39-.21,2.55-2.35,5.47-4.34,8.56-5.97ZM648.93,760.91c-7.31,1.06-14.94-.29-21.62-3.37-6.74-3.11-12.71-7.98-16.8-14.2-4.87-7.41-7.47-17.17-4.05-25.69,2.96-7.37,9.87-12.44,17.08-15.23,3.58-1.38,7.33-2.24,11.13-2.67-5.55,6.8-8.41,16.63-4.6,24.94,3.1,6.77,10.33,11.18,17.63,11.77,1.84.15,3.65.02,5.38-.35-.32,3.59-.06,7.29.65,10.94-.83,4.21-.85,8.58-.03,12.78-1.55.47-3.15.83-4.78,1.07ZM676.16,780.86c-8.08-1.11-14.95-7.06-18.47-14.24-.88-1.79-1.55-3.67-2.03-5.6.86-.31,1.7-.65,2.52-1.02,1.16,2.31,2.48,4.48,3.89,6.43,3.22,4.43,7.37,8.07,12.24,10.04.2.41.48.79.84,1.13,1.46,1.38,3.72,1.75,5.63,2.03,1.68.24,3.36.3,5.03.22-3.08,1.05-6.34,1.48-9.67,1.02ZM697.34,774.83c1.26-1.16,2.43-2.41,3.52-3.74,2.48-1.86,4.79-3.97,6.94-6.19-2.49,4.19-6.18,7.61-10.46,9.93ZM720.81,746.5c-2.55,3.68-5.42,7.13-8.33,10.54.23-1.27.39-2.57.43-3.89.18-5.09-1.01-10.21-3.31-14.76-.46-2.85-1.26-5.63-2.4-8.25.45-1.77.7-3.59.57-5.4-.12-1.77-.65-3.5-1.52-5,.06-.2.13-.4.18-.61,1.44-5.22,1.38-11.07-1.07-15.7,2.33.22,4.64.69,6.89,1.47,7.45,2.57,14.04,8.42,15.9,16.28,2.14,9.09-2.29,18.04-7.35,25.32Z"/>
  <path class="cls-11" d="M661.2,869.24c-20.13,1.85-40.25,3.7-60.38,5.55-35.76,3.29-71.51,6.56-107.27,9.84-35.76,3.28-71.51,6.56-107.27,9.83-.38.04-.84-.32-.91-.69-.88-4.89-1.75-9.77-2.6-14.66-3.46-19.84-6.67-39.72-9.63-59.65-2.93-19.76-5.63-39.56-8.03-59.4-2.21-18.21-3.96-37.42,2.66-54.96,5.67-15.03,16.74-27.27,29.21-37.09,12.84-10.12,27.27-18.32,42.24-24.82,15.07-6.55,30.84-11.37,46.94-14.63,16.35-3.3,33.02-5.02,49.69-5.4,16.82-.38,33.66.59,50.35,2.73,8.2,1.05,16.36,2.38,24.47,3.97,7.79,1.53,15.94,2.9,23.15,6.39,6.19,2.99,11.39,7.94,12.68,14.92,1.03,5.55-.43,11.75-5.31,14.95-2.86,13.5-4.55,27.23-5.09,41.03-1.07,27.18,1.98,54.36,6.96,81.05,5.01,26.92,11.97,53.44,19.03,79.88.16.63-.3,1.12-.89,1.17Z"/>
  <g>
    <path class="cls-13" d="M479.1,518.13c-.15-12.79-.46-25.59-.95-38.38-.96-25.66-2.6-51.28-4.9-76.85-.14-1.55-.28-3.09-.44-4.63-.04-.52-.09-1.04-.15-1.55-.38-4.09-.78-8.17-1.2-12.26-.06-.59-.58-.86-1.05-.82-.09-.06-.2-.11-.35-.11-25.8-.56-51.62-.67-77.43-.9l-77.43-.65c-6.36-.05-12.72-.11-19.08-.16-3.18-.03-6.35-.05-9.54-.08-3-.03-6.02-.16-9.03,0-4.69.26-9.11,1.89-10.91,6.58-.86,2.25-1.04,4.71-1.11,7.1,0,.18,0,.35-.02.54-.02.56-.03,1.12-.05,1.67-.05,2.43-.09,4.85-.15,7.27-.55,25.76-1.12,51.52-1.68,77.26-.28,12.88-.56,25.76-.85,38.64-.15,6.43-.29,12.87-.43,19.32-.12,5.21-.64,10.86,1.44,15.8,3.83,9.11,14.76,9.55,23.22,8.93,12.7-.92,25.39-2.07,38.09-3.09,25.67-2.08,51.33-4.17,76.99-6.25,12.83-1.04,25.66-2.08,38.5-3.13,6.06-.49,12.17-.79,18.21-1.56,4.72-.59,9.53-1.72,13.29-4.8,8.02-6.57,7.08-18.62,6.98-27.91ZM267.37,395.59c.07-2.41.21-4.95,1.23-7.17,2.29-5.05,8.28-4.94,13.01-4.89,6.21.05,12.41.1,18.62.15,25.28.22,50.56.44,75.84.65,25.2.21,50.41.47,75.62.58,6.02.03,12.06,0,18.09-.02.4,3.94.79,7.88,1.15,11.82-17.2-.05-34.39-.13-51.59-.18-37.65-.14-75.31-.27-112.96-.41-13.01-.05-26.02-.14-39.02-.17,0-.12,0-.25,0-.36ZM477.1,532.04c-.6,4.7-2.17,9.44-5.86,12.63-3.88,3.34-9.26,4.25-14.19,4.75-12.24,1.23-24.54,1.99-36.8,2.97-25.21,2.02-50.42,4.05-75.63,6.08-12.53,1.01-25.07,2.01-37.6,3.02-6.33.5-12.67,1.02-19.02,1.52-4.46.35-9.08.56-13.46-.55-4.57-1.16-8.2-4.05-9.58-8.67-.74-2.49-.88-5.11-.88-7.69,0-2.97.1-5.95.17-8.93.27-12.57.55-25.15.82-37.72.56-25.3,1.11-50.61,1.67-75.91.14-6.21.27-12.42.41-18.63.05-2.42.1-4.83.16-7.25,29.62.23,59.25.13,88.87.23,37.66.13,75.31.26,112.97.38.64,0,1.27,0,1.91,0,1.92,20.44,3.41,40.91,4.48,61.41.65,12.48,1.15,24.97,1.47,37.46.16,6.32.29,12.65.38,18.97.07,5.29.35,10.66-.31,15.93Z"/>
    <path class="cls-13" d="M346.05,414.72c22.29-.83,44.56-1.64,66.86-1.83,6.33-.05,12.66,0,18.98-.32.68-.03.68-1.01,0-1.05-11.11-.72-22.33-.36-33.45-.18-11.15.18-22.29.49-33.44.94-6.33.26-12.65.57-18.96.99-.92.06-.94,1.48,0,1.44Z"/>
    <path class="cls-13" d="M365.31,421.97c-.92-.1-1.85-.18-2.78-.24-1.79-.11-3.58-.15-5.37-.13-1.79.02-3.58.12-5.37.29-1.7.16-3.72.19-5.33.79-.76.28-.67,1.42.2,1.45,1.68.06,3.45-.4,5.13-.55,1.78-.16,3.58-.24,5.37-.27,1.72-.03,3.45,0,5.17.11.86.05,1.72.11,2.58.19.83.07,1.74.31,2.55.06.55-.16.65-.91.16-1.21-.69-.42-1.52-.41-2.31-.49Z"/>
    <path class="cls-13" d="M437.82,424.05c-3.98-.61-8.03-.87-12.04-1.18-4.1-.32-8.21-.56-12.32-.73-8.22-.35-16.45-.46-24.68-.31-4.62.08-9.31.1-13.9.62-.89.1-.94,1.42,0,1.43,4.11.05,8.22-.23,12.33-.32,4.04-.09,8.08-.11,12.12-.08,8.15.07,16.3.4,24.44.92,4.62.3,9.24.83,13.86,1.06.8.04,1-1.29.19-1.42Z"/>
    <path class="cls-13" d="M427.97,429.24c-5.35-.09-10.77.47-16.12.74-5.3.27-10.6.54-15.89.82-10.67.56-21.34,1.12-32.01,1.68-6.06.32-12.11.68-18.16,1.12-.92.07-.94,1.48,0,1.45,21.35-.69,42.69-2.05,64.02-3.19,3.03-.16,6.05-.32,9.08-.49,3.02-.16,6.08-.2,9.08-.57.97-.12,1.03-1.54,0-1.56Z"/>
    <path class="cls-13" d="M413.09,454.28c-16.8-1.04-33.67-.96-50.49-.38-4.81.17-9.61.38-14.41.65-1.25.07-1.26,2.02,0,1.95,16.81-.93,33.64-1.2,50.48-.96,4.81.07,9.62.14,14.42.23.97.02.95-1.43,0-1.49Z"/>
    <path class="cls-13" d="M338.88,426.79c-.2-5.12-.19-10.34-.78-15.42-.03-.22-.12-.38-.24-.52.17-.39-.02-.96-.58-.98-15.95-.64-31.94-.73-47.89,0-4.42.2-8.85.37-13.24.97-.38.05-.48.41-.38.71-.35.04-.66.27-.66.73.3,17.97.6,35.93.9,53.9.04,2.57.09,5.13.14,7.7.05,2.4-.2,5.04.35,7.39.07.29.36.41.62.37.12.08.25.14.42.15,2.39.15,4.79.25,7.19.33.59.02,1.19.04,1.78.05,5.02.12,10.05.14,15.07.25,8.02.17,16.03.35,24.05.52,1.3.03,2.6.05,3.9.08.67,0,1.36.03,2.03.05.22,0,.43,0,.65,0,1.14.03,2.27.05,3.4.07,1.13.02,2.28.15,3.38-.15.71-.19.69-1.14.07-1.4.31-.09.58-.35.59-.78.28-8.99.05-18.03-.05-27.02-.1-9-.35-18.01-.7-27.01ZM327.21,481.1c-4.01-.08-8.02-.17-12.03-.26-8.02-.17-16.02-.35-24.04-.51-1.41-.04-2.82-.07-4.23-.11,1.63-7.73,7.66-14.35,15.33-16.43,8.63-2.34,18.2.88,23.34,8.26,1.95,2.79,3.14,5.85,3.69,9.09-.69-.02-1.37-.03-2.06-.05ZM333.34,481.24c-.65-.02-1.3-.03-1.96-.05-1.1-7.87-6.66-15.11-13.91-18.22-8.87-3.79-19.43-1.86-26.17,5.1-3.25,3.36-5.43,7.55-6.33,12.1-2.42-.05-4.85-.08-7.28-.03.17-1.77-.01-3.62-.03-5.37-.03-2.26-.06-4.53-.1-6.79-.07-4.45-.15-8.91-.22-13.36-.15-8.98-.3-17.97-.44-26.95l-.25-15.4c7.74-.27,15.56-.94,23.36-1.14,7.91-.21,15.81-.3,23.72-.22,4.24.04,8.47.14,12.71.27-.11,4.7.29,9.27.46,13.79.16,4.46.32,8.92.45,13.39.26,9,.46,18.01.54,27.01.04,5.14-.05,10.3.05,15.44,0,.24.09.42.22.55-1.54-.27-3.29-.1-4.8-.13Z"/>
    <path class="cls-13" d="M309.68,422.39c-7.04-1.17-14.82,2.91-17.88,9.39-4.34,5.12-3.31,13.22.82,18.25,4.7,5.73,13.27,8.23,20.21,5.42,6.9-2.79,11.78-10.28,11.04-17.77-.73-7.43-6.78-14.07-14.19-15.3ZM314.33,452.4c-5.63,3.48-13.12,2.52-18.13-1.67-4.03-3.37-6.28-9.42-4.75-14.42.42.09.89-.08,1.05-.64.35-1.24.86-2.43,1.49-3.54.12-.12.22-.25.35-.36.23-.21.3-.44.28-.66,2.73-4.09,7.26-6.88,12.38-6.9,6.54-.03,12.54,4.91,14.33,11.11,1.86,6.46-1.39,13.61-7.01,17.09Z"/>
    <path class="cls-13" d="M332.51,493.08c-4.39,1.53-9.49,2.68-14.16,2.23-.71-.07-1.43-.29-2.01-.65,1.56-.75,3.07-1.61,4.48-2.58.39-.27.53-.72.3-1.15-1.07-2.04-3.87-2.91-5.85-1.62-1.51.98-2.07,2.99-1.56,4.67-1.09.43-2.2.81-3.34,1.12-1.71.46-3.45.77-5.22.93-1.01.09-2.22.2-3.28-.07.57-.56,1.06-1.21,1.27-1.98.5-1.84-1.12-3.31-2.9-2.86-1.86.46-2.55,2.43-1.77,4.1.18.38.42.7.68.98-.55.39-1.06.71-1.37.93-2.51,1.76-5.77,3.23-8.75,1.67-1.06-.56-1.82-1.48-2-2.59,1.4-1.03,2.54-2.38,3.3-4,.26-.55-.04-1.23-.71-1.24-2.48-.01-4.04,2.12-4.21,4.36-.46.28-.94.52-1.46.72-.98.37-.56,1.96.44,1.58.41-.15.8-.34,1.18-.53.15.53.37,1.04.71,1.49,2.91,3.89,8.43,2.61,11.86.31.8-.54,1.57-1.13,2.32-1.74,1.07.51,2.34.67,3.54.63,3.61-.12,7.19-.95,10.54-2.32,1.92,2.07,5.49,1.71,8.02,1.51,3.56-.28,7.02-1.1,10.34-2.4.91-.35.54-1.82-.41-1.49ZM300.45,495.14c-.56-.6-.96-1.54-.38-2.16.47-.51,1.37-.5,1.48.24.09.62-.42,1.3-1.1,1.93ZM315.37,491.74c.66-1.67,2.69-1.69,3.81-.61-1.26.82-2.57,1.54-3.93,2.17-.13-.45-.12-.97.12-1.56Z"/>
  </g>
  <path class="cls-8" d="M528.31,672.85c-11.64,31.91-33.05,61.62-63.44,77.91-29.72,15.93-67.69,17.97-97.24.71.98,18.07,2.22,36.12,3.69,54.16.07.93-1.35.91-1.44,0-1.06-10.75-1.99-21.52-2.76-32.3-.55-7.67-1-15.34-1.43-23.02-.86-.54-.64-1.45-.09-1.77-1.97-36.28-2.63-72.64-1.99-108.98.38-22.13,1.25-44.26,2.59-66.35,1.29-21.2,2.51-42.59,6.1-63.55,3.26-19.11,9.29-37.17,18.25-54.35,8.27-15.86,18.18-30.78,27.35-46.11,9.11-15.21,17.62-31.01,22.53-48.12,2.67-9.34,3.93-18.85,4.62-28.51.73-10.17,1.15-20.44,3.56-30.39,3.57-14.71,13.73-30.43,29.5-33.81,15.69-3.36,29.19,8.38,34.9,22.1,3.88,9.34,4.57,19.68,4.56,29.67-.02,10.73-.48,21.45-.46,32.19.05,22.31,1.06,44.61,3.05,66.83,3.95,44.18,13.37,87.58,18.1,131.66,4.36,40.66,4.24,83.15-9.94,122.04Z"/>
  <path class="cls-8" d="M804.27,551.84c-2.36,9.78-8.33,17.85-15.32,24.87-7.52,7.56-15.78,14.47-23.98,21.27-8.28,6.88-16.74,13.54-25.28,20.1-17.38,13.34-35.09,26.21-52.46,39.56-17.47,13.42-34.58,27.33-50.51,42.56-15.12,14.46-29.22,30.05-45.48,43.28-15.25,12.39-32.41,22.39-51.88,26.22-17.99,3.54-37.49,1.67-52.86-8.98-14.58-10.11-23.36-26.19-28.58-42.79-6.06-19.23-8.24-39.83-9.15-59.9-2.04-44.88,5.34-89.76,21.11-131.79,14.68-39.1,36.35-79.76,30.56-122.79-2.11-1.56-4.15-3.25-6.1-5.1-.77-.73.39-1.88,1.16-1.16,1.48,1.4,3.04,2.72,4.64,3.96-.1-1.12,1.62-1.58,1.8-.42.1.65.18,1.3.27,1.95,4.72,3.36,9.89,6.07,15.37,8.04,16.94,6.11,35.77,5.77,53.13,1.6,15.64-3.76,30.07-10.95,43.64-19.45.68-.43,1.35-.86,2.02-1.29.32-.2.64-.4.95-.61,2.28-1.47,4.54-2.98,6.77-4.51,17.34-11.9,33.54-25.37,50.9-37.22,7.05-4.82,14.58-9.56,22.86-11.96,1.71-.49,3.44-.89,5.21-1.16,9.43-1.46,18.81,1.07,26.8,6.11,17.7,11.16,26.74,32.02,35.17,50.29,9.33,20.21,17.27,41.05,23.76,62.34,6.54,21.44,11.66,43.35,15.16,65.49,1.64,10.36,2.83,21.16.35,31.5Z"/>
  <path class="cls-1" d="M746.17,515.7c-.96,13.44-4.1,26.68-9.33,39.1-.24.57-.98.94-1.48.39-2.66-2.9-5-6.09-6.96-9.51-3.45-6.01-5.74-12.68-6.7-19.54-.41-2.98-.83-6.3-.47-9.34-5.59.98-11.24,1.51-16.9,1.57-.92,3.81-1.93,7.6-3.04,11.35-2.54,8.55-5.3,17.38-9.72,25.18-4.02,7.11-9.9,13.04-17.85,15.48-7.72,2.37-16.37,1.36-23.16-3.07-5.13-3.34-9.09-8.33-11.14-14.07-.76.52-1.78-.54-1.04-1.22.16-.15.33-.31.49-.46-.26-.92-.47-1.86-.64-2.81-.15-.91,1.23-1.31,1.41-.38.13.68.3,1.36.48,2.03,11.26-10.44,22.55-20.84,33.83-31.27,4.98-4.6,9.92-9.26,14.98-13.78,4.42-3.95,9.01-7.74,14-10.95,8.97-5.74,20.44-9.96,31.07-6.64,4.66,1.46,8.93,4.45,10.91,9.03,1.19,2.78,1.48,5.82,1.54,8.81.06,3.37-.06,6.74-.29,10.1Z"/>
  <path class="cls-13" d="M614.32,392.87c.68-.43,1.35-.86,2.02-1.29-.13.38-.25.76-.36,1.15-.26.85-1.35.75-1.66.15Z"/>
  <g>
    <path class="cls-13" d="M853.34,182.79c-.2-4.28-.44-8.55-.71-12.83-.11-1.72-.14-3.54-.32-5.32-.05-.48-.11-.97-.18-1.44-.19-1.18-.47-2.35-.94-3.44-1.28-3.06-4.02-4.39-7.22-4.5-4.07-.15-8.22.35-12.27.56-17.32.92-34.65,1.86-51.96,2.79-17.25.93-34.49,1.86-51.73,2.79-8.7.47-17.4.94-26.09,1.4-3.37.18-7.14,0-10.28,1.39-2.63,1.18-4.05,3.52-4.48,6.23-.05.3-.09.6-.12.9-.03.27-.05.56-.05.83-.13,3.36.65,6.81,1.11,10.1.6,4.34,1.21,8.67,1.81,13.01,1.19,8.53,2.4,17.05,3.61,25.58.59,4.18,1.19,8.37,1.82,12.55.13.85,1.62.65,1.51-.21-2.08-16.56-4.43-33.09-6.72-49.62-.51-3.68-1.35-7.48-1.3-11.21,11.77-.63,23.55-1.13,35.31-1.58,18-.69,35.98-1.47,53.97-2.29,24.18-1.13,48.36-2.37,72.52-3.74.37,2.85.37,5.79.55,8.6,1.02,16.66,1.46,33.34,1.3,50.02-.08,8.27-.31,16.54-.67,24.79-.18,4.09-.36,8.2-.66,12.28-.25,3.41-.75,7.06-2.91,9.84-1.99,2.56-5.05,3.96-8.08,4.88-3.55,1.07-7.24,1.69-10.89,2.35-8.15,1.46-16.37,2.51-24.59,3.46-16.55,1.91-33.1,3.71-49.66,5.57-16.68,1.86-33.36,3.74-50.04,5.61-4.06.45-8.12.91-12.17,1.36-1.11.12-1.12,1.87,0,1.76,17.21-1.93,34.42-3.87,51.62-5.8,17.21-1.93,34.41-3.86,51.62-5.8,8.33-.94,16.65-1.86,24.93-3.08,4.17-.61,8.33-1.3,12.47-2.13,3.38-.67,6.8-1.33,9.97-2.68,2.95-1.26,5.62-3.2,7.19-6.07,1.65-2.99,2.03-6.47,2.25-9.83.56-8.48.86-16.98,1.06-25.47.42-17.2.23-34.43-.56-51.62ZM838.69,163.94c-35.97,1.94-71.94,3.6-107.94,5-13.9.54-27.82.94-41.73,1.43.16-.91.47-1.78.99-2.56.91-1.34,2.37-2.07,3.9-2.45,1.66-.41,3.37-.46,5.05-.56,2.12-.12,4.24-.23,6.36-.35,4.16-.23,8.32-.45,12.47-.68,16.8-.92,33.58-1.83,50.38-2.74,16.71-.91,33.43-1.8,50.14-2.73,4.24-.24,8.48-.46,12.71-.7,4.01-.23,8.03-.59,12.06-.65,1.71-.03,3.57.12,4.96,1.24,1.24.98,1.83,2.49,2.17,3.99.08.36.15.74.22,1.11-3.91.22-7.82.44-11.74.65Z"/>
    <path class="cls-13" d="M844.07,170.14c-8.3,1.06-16.64,1.82-24.99,2.44-8.34.61-16.74.85-25.07,1.64-.74.07-.86,1.03-.29,1.28-.19,2.2.05,4.49.13,6.7.07,2.26.16,4.52.24,6.78.16,4.45.32,8.9.49,13.34l.51,13.34c.09,2.26.17,4.52.26,6.78.08,2.17.05,4.38.37,6.52.06.4.37.54.68.51.08.15.22.27.43.31,1.93.34,4.11-.03,6.06-.12,1.95-.09,3.91-.18,5.86-.28,4.06-.2,8.12-.4,12.17-.6,4.06-.2,8.12-.4,12.17-.6,4.02-.2,8.09-.25,12.09-.65.31.09.72-.07.83-.42.33-1.04.29-2.2.35-3.29.07-1.19.12-2.38.16-3.57.08-2.38.14-4.77.18-7.15.08-4.69.11-9.39-.03-14.08-.28-9.16-.82-18.44-2.31-27.49.62-.36.51-1.5-.32-1.4ZM845.1,199.25c.15,4.62.25,9.24.17,13.86-.04,2.39-.12,4.77-.24,7.15-.06,1.19-.12,2.38-.18,3.57-.04.7-.11,1.4-.11,2.09-3.87.02-7.77.34-11.64.53-4.06.19-8.12.39-12.17.58-4.06.19-8.12.39-12.17.58-1.95.09-3.91.2-5.86.3-1.84.09-3.93-.05-5.74.38.11-2.09-.08-4.22-.16-6.3-.08-2.26-.16-4.52-.24-6.78l-.48-13.34c-.16-4.45-.34-8.9-.51-13.34-.09-2.26-.17-4.52-.27-6.78-.09-2.05-.05-4.15-.35-6.18,7.97.02,16-.69,23.92-1.38,8-.69,15.98-1.55,23.96-2.43.81,9.17,1.76,18.29,2.06,27.5Z"/>
  </g>
  <path class="cls-8" d="M770.45,365.87c-1.33,17.6-3.89,35.06-6.87,52.44-.12.73-.25,1.46-.37,2.19-.71.4-1.41.81-2.1,1.25-1.48.92-2.92,1.91-4.31,2.97-2.38,1.8-4.53,3.81-6.57,5.93,0,.2-.09.41-.29.58-.42.39-.86.75-1.29,1.12-.78.86-1.55,1.72-2.31,2.59-.28.33-.69.26-.97.04-.23.16-.44.35-.66.51-13.71,9.98-31.43,16.64-48.26,11.14-7.2-2.36-13.93-6.74-18.43-12.89-5.3-7.22-6.55-16.02-5.36-24.76,1.31-9.63,4.77-18.82,6.78-28.31,1.86-8.77,2.97-17.71,3.34-26.67.76-17.84-1.38-35.78-6.22-52.96-3.57-12.66-8.63-24.9-15.08-36.38-1.69.05-3.39.13-5.09.21-24.93,1.21-49.86,4.44-74.85,2.76-3.45-.23-6.88-.57-10.31-1.01-.6-.03-1.21-.04-1.81-.07-10.54-.64-21.39-2.68-30.89-7.44-4.14-2.08-8.06-4.83-10.97-8.48-2.77-3.48-4.44-7.58-4.96-11.99-1.05-8.98,2.66-18.26,8.68-24.84,6.67-7.3,15.79-11.77,25.03-14.94,10.64-3.64,21.75-6,32.87-7.54,3.73-.52,7.46-.93,11.2-1.25,9.03-1.66,18.14-2.77,27.18-3.56,23.13-2.01,46.89-.57,68.18,9.44,17.99,8.46,33.27,22.01,45,37.96,13.07,17.79,21.4,38.65,25.96,60.17,5,23.57,5.59,47.83,3.79,71.79Z"/>
  <path class="cls-1" d="M717.46,359.46c-.12,4.67-.5,9.41-1.34,14-.8,4.36-2.18,8.72-4.74,12.37-2.47,3.56-5.93,6.22-9.86,8.02-4.01,1.85-8.35,2.86-12.7,3.54-5.15.8-10.35,1.26-15.55,1.61-11.22.73-22.48.58-33.67-.43-5.29-.47-10.74-.94-15.94-2.06-1.91-.42-3.88-1.14-5.14-2.7-.7-.86-1.07-1.83-1.23-2.86,2.28-1.47,4.54-2.98,6.77-4.51,17.34-11.9,33.54-25.37,50.9-37.22,7.05-4.82,14.58-9.56,22.86-11.96,6.27.9,12.35,3.52,16.18,8.63,2.94,3.92,3.58,8.78,3.47,13.56Z"/>
  <path class="cls-8" d="M787.27,447.79c-13.76,2.69-28.14,2.16-41.66-1.56-7.21-1.98-14.52-5.12-19.01-11.09-8.79-11.68-10.34-19.33-11.52-33.9-.95-11.75-2.18-30.06-9.94-38.77-3.93-4.41-5.94-9.88-10.86-13.16-3.87-2.58-9.22-7.26-14.13-6.89-1.82.13-3.51.95-5.13,1.77-11.91,6-23.38,12.86-34.3,20.53-4.55,3.2-10.88,6.62-14.2,11.07-2.93,3.93-1.85,12.66-2.94,18.93-1.23,7.08-4.15,14.4-6.81,21.08-5.07,12.7-13.32,24.37-25.33,31.32-10.14,5.87-23.5,6.52-32.15-1.38-5.86-5.36-8.54-12.75-9.38-20.64-1.37-12.85-.47-25.82,1.25-38.59,1.55-11.47,2.77-23.63,7.35-34.36,8.38-19.6,25.14-34.19,40.95-47.78,14.75-12.68,30.37-25.8,49.41-29.82,17.24-3.64,35.09.69,52.02,5.6,15.58,4.52,31.19,9.9,46.18,16.11,9.88,4.1,19.5,9.68,25.94,18.23,12.01,15.94,13.67,41.42,15.46,60.63,1.09,11.71,1.43,23.49,1,35.24-.21,5.88-.62,11.74-1.21,17.59-.23,2.31-3.58,16.23-2.35,17.48.72.74,1.44,1.47,2.16,2.21-.27.05-.53.11-.8.16Z"/>
  <path class="cls-8" d="M793.6,458.88c-.03.92-1.46.92-1.44,0,0-.31.02-.61.03-.91-3.16,3.8-7.73,6.21-12.58,7.23-5.66,1.18-11.49.45-16.99-1.15-5.79-1.67-11.4-4.15-16.81-6.8-7.32-3.59-14.36-8.02-20.06-13.82-9.9.06-19.81.11-29.71.46-9.01.31-17.91,1.07-26.81,2.21-2.17,14.52-5.79,28.81-10.46,42.71-2.87,8.53-6.01,17.05-9.76,25.24-3.4,7.42-7.85,14.7-14.74,19.37-6.29,4.25-14.41,6.09-21.58,3.01-6.56-2.8-11.62-6.2-14.01-12.76-3.12-8.56-2.07-20.73-1.4-29.64.75-9.83,1.5-19.64,2.26-29.46.75-9.84,1.49-19.68,2.25-29.52.65-8.48.81-17.21,2.76-25.53,1.72-7.41,5.39-14.13,11.94-18.29,6.41-4.07,14.33-5.64,21.66-7.06,18.8-3.64,38.56-5.83,58.01-6.77,19.3-.93,39.09.52,58.25,3.34,8.02,1.18,17.37,2.88,24.46,6.98,6.75,3.89,11.19,10.9,14.05,18.1,6.73,16.9,1.12,35.57.69,53.08Z"/>
  <path class="cls-8" d="M810.51,499.84c-.73,15.09-2.33,30.11-5.43,44.88-1.42,6.76-3.29,13.74-7.86,18.92-6.44,7.29-16.12,16.37-25.84,16.62-7.02.18-14.35,1.86-20.16-2.09-4.83-3.28-8.95-1.21-11.28-6.56-7.39-16.96-6.77-52.7-6.09-71.19-10.32.77-20.65,1.53-30.97,2.3-5.27,12.99-11.31,25.89-20.38,36.58-9.07,10.69-21.7,20.81-35.62,22.48-10.51,1.27-22.71-4.39-26.47-14.29-1.65-4.36-1.39-9.19-.9-13.82,2.74-25.78,9.59-54.2,21.57-77.35,4.88-9.43,12.14-18.14,21.99-22.09,7.56-3.03,20.89-5,29.04-4.94,30.12.22,55.3,2.42,85.41,2.64,10.32.08,22.14.86,28.43,9.04,4.31,5.61,4.71,13.19,4.87,20.26.28,12.86.3,25.77-.32,38.62Z"/>
  <path class="cls-13" d="M625.62,375.86c-.02.73-.04,1.46-.07,2.18-.11,2.75-.33,5.5-.68,8.22-.09.75-.2,1.49-.32,2.24-.48.19-.96.4-1.42.63.11-.76.2-1.51.29-2.27.29-2.49.49-5,.61-7.51.03-.71.05-1.42.07-2.13.5-.46,1.01-.92,1.52-1.36Z"/>
  <path class="cls-1" d="M680.85,341.38c-.7.33-1.4.66-2.1,1.01-.34.16-.67.33-1.01.49-10.11,5-19.86,10.73-29.16,17.11-4.76,3.27-9.39,6.71-13.9,10.31-3.11,2.49-6.11,5.11-9.13,7.73-.51.44-1.01.87-1.52,1.32.03-.71.05-1.42.07-2.13.5-.46,1.01-.92,1.52-1.36,3.22-2.88,6.59-5.59,9.96-8.24,9.03-7.1,18.57-13.52,28.53-19.23,4.18-2.38,8.42-4.68,12.74-6.83.66-.34,1.33-.66,1.99-.98.67.26,1.35.53,2,.81Z"/>
  <path class="cls-1" d="M711.94,378.26c-.66,0-1.33-.02-2-.02-.03-.15-.07-.28-.11-.43-.15-.51-.29-1.02-.45-1.53-2.5-8.07-6.85-15.51-12.74-21.59-5.17-5.32-11.25-9.25-17.91-12.31-.63-.29-1.26-.57-1.89-.84.66-.34,1.33-.66,1.99-.98.67.26,1.35.53,2,.81,2.92,1.27,5.71,2.87,8.32,4.63,7.4,5,13.58,11.76,17.82,19.63,1.83,3.39,3.31,6.98,4.41,10.67.2.65.38,1.3.55,1.96Z"/>
  <path class="cls-1" d="M619.4,538.85c.06.1.09.23.09.38-.61,0-1.07-.04-1.55-.08-3.97-.36-7.82-1.54-11.4-3.81-8.93-5.69-11.25-16.34-11.29-26.27-.02-5.82.57-11.65,1.02-17.44.51-6.8,1.02-13.59,1.55-20.39.76-9.8,1.44-19.62,2.24-29.42.08-1.06.17-2.11.26-3.18.19-2.29.4-4.59.61-6.89.64-6.94,1.42-14.05,2.86-20.97.68-3.26,1.51-6.48,2.53-9.62.95-1.46,2.05-2.86,3.2-4.15-.86,2.57-1.66,5.15-2.36,7.75-.6,2.2-1.14,4.41-1.59,6.65-.13.56-.25,1.12-.35,1.68-.16.82-.31,1.63-.45,2.45-1.14,6.68-1.78,13.43-2.31,20.18-.03.33-.05.66-.07.99-.07.83-.14,1.66-.19,2.48-.91,11.58-1.72,23.17-2.59,34.76-.49,6.5-.98,12.98-1.47,19.48-.42,5.43-.95,10.88-.87,16.33.07,4.88.61,9.88,2.51,14.41,1.95,4.65,5.4,8.41,9.94,10.63,2.7,1.33,5.5,2.07,8.34,2.34.51.05,1.02.09,1.54.11-.06.53-.13,1.06-.19,1.59Z"/>
  <path class="cls-1" d="M790.69,403.54c-1.97-6.32-6.48-11.34-12.12-14.69-6.4-3.81-13.82-5.41-21.09-6.62-15.05-2.51-30.28-3.76-45.54-3.97-.66,0-1.33-.02-2-.02-13.36-.11-26.73.58-40.01,1.91-7.27.73-14.52,1.66-21.75,2.77-6.71,1.03-13.49,2.06-19.96,4.19-1.25.41-2.47.86-3.68,1.38-.48.19-.96.4-1.42.63-3.97,1.83-7.62,4.29-10.59,7.57-2.11,2.34-4.08,5.1-5.37,8.07-.94,2.13-1.53,4.37-1.59,6.65,0,.35,0,.71,0,1.06,0,.31-.15.52-.35.62-.37.18-.92.03-.96-.52-.06-.63-.26-1.22-.47-1.8.68-3.26,1.51-6.48,2.53-9.62.95-1.46,2.05-2.86,3.2-4.15,1.24-1.38,2.53-2.66,3.77-3.79,2.98-2.72,6.44-4.79,10.13-6.37.48-.21.96-.41,1.45-.6,1.8-.71,3.65-1.31,5.51-1.84,6.86-1.93,13.98-2.92,21.03-3.94,7.55-1.09,15.13-2,22.74-2.68,11.72-1.06,23.47-1.59,35.25-1.51.66,0,1.34,0,2.01.02,2.78.03,5.58.1,8.36.2,7.59.28,15.18.84,22.74,1.67,7.33.82,14.72,1.76,21.94,3.36,11.6,2.57,24.98,8.82,28.03,21.51.28,1.16-1.43,1.63-1.77.49Z"/>
  <path class="cls-1" d="M602.4,436.72c-.07.83-.14,1.66-.19,2.48-.62.93-1.36,1.79-2.15,2.61-.99,1.05-2.09,2.01-3.18,2.92-2.42,2.04-5.08,3.8-7.94,5.14-9.8,4.59-22.32,3.95-30.39-3.81-3.89-3.76-6.24-8.77-7.59-13.96-.7-2.68-1.16-5.41-1.48-8.16-.32-2.77-.66-5.6-.6-8.39.02-.8,1.33-1.05,1.46-.2.44,2.85.53,5.74.91,8.59.38,2.93.9,5.84,1.73,8.68,1.41,4.86,3.8,9.47,7.66,12.82,3.9,3.4,9.07,5.19,14.2,5.45,5.32.27,10.55-1.13,15.19-3.71,2.32-1.29,4.49-2.86,6.46-4.62,1.36-1.23,2.57-2.6,3.84-3.92.58-.61,1.18-1.21,1.81-1.77.08-.07.17-.12.26-.15Z"/>
  <path class="cls-1" d="M582.21,410.32c-.65-7.2-3.15-14.85-9.43-19.07-2.95-1.98-6.64-2.98-10.18-2.5-3.14.43-5.99,2.08-8.15,4.37-5.75,6.1-6.54,15.77-5.39,23.69.12.81,1.33.56,1.37-.19.19-3.73-.15-7.46.41-11.17.48-3.21,1.5-6.3,3.36-8.99,1.63-2.35,3.94-4.4,6.69-5.32,3.02-1,6.3-.57,9.11.86,6.12,3.11,8.98,9.86,9.89,16.34,1.04,7.38.52,15.18-.38,22.55-.49,4.01-1.03,8.25-2.42,12.06-1.25,3.41-4.04,6.72-8,6.44-1.25-.09-1.23,1.83,0,1.93,3.38.28,6.42-1.74,8.26-4.46,2.2-3.25,2.84-7.37,3.48-11.15,1.4-8.29,2.13-17.01,1.37-25.4Z"/>
  <path class="cls-1" d="M622.61,498.76c-.19-3.69-.71-7.44-1.78-10.98-.92-3.05-2.59-5.77-5.75-6.83-5.92-2-12.15,1.87-15.56,6.51-4.72,6.41-5.13,15.27-3.69,22.84.13.7,1.28.54,1.24-.17-.3-6.44-.74-13.14,2.33-19.06,2.41-4.64,7.01-8.76,12.51-8.74,3.31.02,5.62,1.87,6.74,4.92,1.12,3.05,1.63,6.42,1.91,9.64.57,6.61-.12,13.27-1.57,19.73-.82,3.66-1.84,7.31-3.12,10.84-1.08,2.99-3.34,7.04-7.16,6.25-1.23-.25-1.76,1.64-.52,1.89,7.67,1.58,10.04-8.59,11.53-13.96,2.05-7.42,3.29-15.16,2.89-22.88Z"/>
  <path class="cls-1" d="M703.61,503.14c-.22.66-.45,1.3-.7,1.95-2.88,7.8-6.8,15.29-11.3,22.23-4.79,7.4-10.4,14.34-16.77,20.44-6.29,6.01-13.64,11.26-22.12,13.6-8.19,2.26-17.57,1.8-24.75-3.09-5.85-3.99-10.2-10.72-10.09-17.92,0-.36.02-.48.02-.59,0-.17.03-.35.04-.51.14-.86,1.17-.96,1.47-.38.06.1.09.23.09.38-.15,8.4,5.36,16.01,12.91,19.38,7.92,3.52,17.32,2.5,25.08-.96,7.61-3.39,14.01-8.92,19.67-14.92,5.73-6.09,10.79-12.8,15.08-19.98,3.33-5.55,6.09-11.35,8.46-17.32.25-.62.49-1.25.73-1.87.73-.15,1.46-.29,2.18-.42Z"/>
  <path class="cls-1" d="M737.93,501.08c-1.01.53-2.38.5-3.62.49-.4,0-.78,0-1.15.02-.21,0-.43.03-.64.04-1.48.09-2.96.19-4.44.3-3.38.26-6.76.57-10.14.96-5.04.57-10.04,1.41-15.04,2.2-.74.12-1.47.24-2.21.35.25-.62.49-1.25.73-1.87.73-.15,1.46-.29,2.18-.42,4.6-.85,9.27-1.44,13.9-1.97,3.44-.41,6.9-.75,10.35-1,1.58-.12,3.17-.22,4.75-.31.18-.02.36-.03.55-.04.38-.02.79-.06,1.22-.11,1.21-.12,2.52-.24,3.55.21.46.2.41.95,0,1.16Z"/>
  <path class="cls-1" d="M737.21,567.19c-.02,1.04-1.68,1.33-1.87.26-.88-5.07-1.26-10.27-1.73-15.39-1.51-16.76-1.93-33.63-1.08-50.43.03-.59.06-1.18.09-1.77.18-.02.36-.03.55-.04.38-.02.79-.06,1.22-.11-.03.62-.05,1.24-.07,1.86-.14,3.79-.22,7.58-.26,11.37-.09,9.03.11,18.05.64,27.07.26,4.54.6,9.08,1.03,13.61.33,3.56.82,7.1,1.2,10.65.15.14.27.32.28.56.03.78.02,1.57,0,2.36Z"/>
  <path class="cls-1" d="M793.52,434.53c-2.18-.18-4.37-.36-6.56-.55-17.41-1.46-34.82-2.84-52.27-3.66-17.25-.81-34.57-1.19-51.83-.33-7.25.36-14.74,1.13-21.44,4.12-6.79,3.04-11.72,8.42-15.49,14.71-3.93,6.58-6.99,13.75-9.84,20.84-3.02,7.51-5.67,15.17-7.92,22.94-2.23,7.71-4.09,15.52-5.54,23.41-1.31,7.05-2.18,14.14-3.04,21.24-.06.53-.13,1.06-.19,1.59,0,.13-.03.26-.05.39-.04.34-.08.66-.12,1-.1.82-1.3.89-1.36.09,0-.36.02-.48.02-.59,0-.2.02-.4.03-.59.04-.67.07-1.34.13-2,.06-.98.15-1.97.24-2.95,1.53-16.33,4.93-32.48,9.9-48.1,2.47-7.79,5.36-15.44,8.61-22.94,3-6.91,6.14-14.01,10.72-20.05,4.39-5.78,10.08-9.92,17-12.16,7.12-2.3,14.72-2.71,22.15-2.99,17.82-.65,35.67-.25,53.46.71,17.82.97,35.6,2.47,53.39,3.98,1.19.1,1.2,1.97,0,1.87Z"/>
  <path class="cls-1" d="M651.03,516.75c-1.14-7.12-7.53-12.62-14.7-12.96-7.8-.37-15.22,6.26-15.69,14.06-.05.92,1.5,1.16,1.63.22.88-6.14,5.6-11.59,11.93-12.38,6.16-.77,12.6,3.34,14.52,9.24,1.23,3.79.72,7.88-.2,11.68-.91,3.74-2.17,7.41-3.74,10.92-1.49,3.32-3.22,6.61-5.36,9.56-1.93,2.66-4.49,5.29-7.8,6.07-3.75.89-7.47-1.2-9.56-4.26-2.43-3.56-2.61-8.12-2.19-12.27.08-.77-1.21-.95-1.35-.18-.77,4.1-.6,8.4,1.34,12.17,1.63,3.16,4.71,5.78,8.27,6.4,8.08,1.43,13.36-7.03,16.54-13.11,2.05-3.91,3.71-8.02,4.93-12.26,1.2-4.16,2.13-8.57,1.43-12.9Z"/>
  <path class="cls-1" d="M584.12,201.07c-4.47-3.27-10.23-3.94-15.61-3.79-8.07.22-16.43,2.23-23.8,5.92-6.68,3.34-16.1,9.08-17.18,17.26-.63,4.81,2.67,8.49,6.77,10.45,4.73,2.27,10.28,3.03,15.47,3.31,5.75.31,11.56-.25,17.15-1.64,9.65-2.41,21.4-7.79,22.83-18.92.65-5.03-1.58-9.61-5.62-12.58ZM583.73,221.86c-3.33,3.57-7.87,5.78-12.42,7.38-9.91,3.48-20.81,4.1-31.03,1.68-4.14-.98-9.51-2.94-10.73-7.54-3.6-13.65,24.17-22.44,33.1-23.68,4.96-.69,10.34-.92,15.2.49,4.35,1.26,8.53,4.28,9.73,8.85,1.2,4.57-.73,9.48-3.86,12.83Z"/>
  <path class="cls-1" d="M468.44,280.86c-.23-1.91-1.26-3.58-3.17-4.14-1.13-.33-2.39-.19-3.28.5-.25-.31-.73-.46-1.05-.1-4.72,5.41-8.12,12.22-10.61,18.91-2.55,6.87-4.06,14.12-4.47,21.45-.23,4.15-.09,8.32.41,12.45.09.73.71,1.1,1.39.8,3.73-1.65,6.09-5.14,7.9-8.65,2.2-4.26,4.08-8.72,5.78-13.2,1.77-4.65,3.29-9.39,4.57-14.2.63-2.37,1.2-4.76,1.71-7.16.45-2.15,1.09-4.44.82-6.65ZM466.37,284.56c-.79,4.13-1.78,8.22-2.94,12.26-2.32,8.08-5.31,16.01-9.06,23.55-1.55,3.11-3.4,6.27-6.39,8.1-1.37-13.81,1.38-27.88,7.73-40.22,1.64-3.18,3.59-6.13,5.55-9.09.35.47,1.11.63,1.44-.04.62-1.24,2.42-.87,3.21.02,1.25,1.4.77,3.78.46,5.42Z"/>
  <path class="cls-1" d="M539.54,560.38c-.69-15.5-2.42-30.93-4.57-46.29-2.24-16.01-4.94-31.95-7.4-47.93-2.48-16.11-4.68-32.27-6.01-48.52-.16-2.01-.36-4.01-.55-6.01-.09-.91-1.48-.95-1.45,0,.22,8.02,1.08,16.03,2,24,.93,7.99,2.02,15.95,3.2,23.9,2.37,15.99,5.08,31.93,7.45,47.92,2.29,15.47,4.24,31,5.2,46.62.93,15.12.96,30.32-.47,45.41-1.43,15.04-4.41,29.9-9.26,44.22-.6,1.78-1.23,3.54-1.88,5.3-.38,1.04,1.24,1.45,1.64.45,5.54-13.97,8.8-28.85,10.63-43.74,1.85-15.03,2.15-30.21,1.48-45.33Z"/>
  <path class="cls-13" d="M451.22,716.58c-1.41,3.93-2.11,8.33-1.34,12.47.12.62,1.1.47,1.1-.15-.03-2.01-.03-4.04.21-6.04.24-2.02.72-4,1.39-5.91.3-.86-1.05-1.22-1.36-.37Z"/>
  <path class="cls-13" d="M645.49,691.85c-14.85,6.6-27.9,17.75-37.67,30.65-2.83,3.74-5.39,7.67-7.68,11.76-.44.8.78,1.51,1.22.71,7.95-14.15,19.32-26.33,32.88-35.24,3.81-2.5,7.81-4.73,11.87-6.82.72-.37.09-1.39-.63-1.07Z"/>
  <path class="cls-1" d="M770.63,310.07c-12.12-8.51-25.14-15.71-38.78-21.47-13.53-5.72-27.64-10.04-42.05-12.83-8.11-1.57-16.41-2.84-24.67-3.16-.97-.04-.93,1.38,0,1.49,7.33.8,14.62,1.59,21.88,2.92,7.18,1.32,14.3,3.01,21.3,5.07,14.01,4.11,27.58,9.68,40.43,16.6,7.24,3.9,14.25,8.23,20.98,12.95.95.67,1.85-.89.91-1.55Z"/>
  <path class="cls-9" d="M345.13,117.55c-13-8.73-24.73-19.28-34.8-31.27-.44-.52-1.37.04-1.15.67,3.82,11.01,8.13,21.85,12.89,32.48-16.49,5.08-33.13,9.64-49.91,13.63-.55.13-.73,1.03-.17,1.28,11.23,5.03,23.2,7.49,35.46,7.63-5,7.81-10.67,15.14-17.12,21.81-.5.52,0,1.37.7,1.19,15.85-3.95,31.7-7.87,47.52-11.95.79-.2.45-1.41-.34-1.22-15.08,3.65-30.13,7.43-45.18,11.2,6.1-6.55,11.6-13.69,16.24-21.35.26-.44-.07-1.03-.58-1.02-11.63.21-23.41-2.22-34.15-6.71,16.35-3.96,32.57-8.42,48.64-13.41.45-.14.59-.59.41-1-4.35-9.69-8.29-19.55-11.86-29.55,9.61,10.96,20.6,20.66,32.7,28.8.75.5,1.45-.71.71-1.21Z"/>
  <path class="cls-9" d="M591.1,36.57c.43-.37.09-1.16-.47-1.14-17.49.91-35.08,1.85-52.2,5.81-3.04-7.25-4.78-15-5.08-22.86-.03-.83-1.09-.9-1.37-.19-3.88,9.71-7.76,19.43-11.62,29.15-.35.88,1.07,1.26,1.42.39,3.47-8.74,6.93-17.48,10.38-26.23.64,7.18,2.42,14.21,5.29,20.85.12.28.5.37.76.31,16.55-3.96,33.6-4.96,50.55-5.82-9.5,8.27-18.09,17.54-25.65,27.62-.29.39.04.87.41,1.01,7.37,2.8,14.74,5.62,22.11,8.41-11.77,3-23.56,5.96-35.34,8.92-.86.22-.5,1.56.37,1.34,12.48-3.17,24.96-6.34,37.46-9.46.72-.18.6-1.11,0-1.34-7.76-2.97-15.54-5.9-23.31-8.85,7.73-10.23,16.56-19.59,26.29-27.94Z"/>
  <path class="cls-7" d="M555.45,136.83c-4.38,15.69-12.78,30.13-23.09,42.64-10.69,12.98-23.53,24.06-37.3,33.64-.78.54-1.57,1.07-2.35,1.61,1.98,9.68,4.76,19.2,8.86,28.21,5.64,12.41,13.73,23.97,24.67,32.27.79.6.13,1.83-.79,1.36-6.44-3.34-12.89-6.69-19.19-10.3-15.71-8.99-31.24-20.03-41.89-34.77-6,3.02-12.13,5.78-18.36,8.21-17.36,6.75-35.99,10.84-54.7,9.78-16.14-.92-32.28-5.53-45.83-14.49-13.27-8.75-23.28-21.6-28.02-36.82-3.14-10.07-3.86-20.86-1.64-31.06.62-17.55,6.69-34.61,14.91-49.96,7.71-14.38,17.64-27.53,29.22-39.04,11.61-11.55,24.88-21.44,39.26-29.3,14.32-7.81,29.77-13.57,45.75-16.9,15.79-3.28,32.25-4.19,48.19-1.47,15.54,2.65,30.53,8.93,42.19,19.72,11.35,10.52,18.58,24.79,21.8,39.83,3.29,15.42,2.55,31.67-1.69,46.84Z"/>
  <path class="cls-12" d="M716.75,853.96c-6.62,11.13-15.66,20.73-26.09,28.37-10.82,7.9-23.1,13.4-36.04,16.78-13.46,3.51-27.44,4.79-41.33,4.46-14.07-.33-28.08-2.24-41.85-5.11-15.55-3.25-31.11-7.46-45.48-14.35-13.16-6.31-25.12-15.05-34-26.74-7.47-9.84-12.72-21.38-15.46-33.43-2.73-12.02-3.02-24.62-.53-36.71,2.53-12.26,8.02-23.73,15.75-33.57,7.78-9.88,17.75-18.06,28.92-23.84,3.53-1.82,7.18-3.4,10.93-4.71,1.92-1.21,3.87-2.36,5.85-3.45,11.33-6.21,23.67-10.52,36.37-12.85,13.14-2.41,26.58-2.67,39.79-.79,14.93,2.11,29.46,6.87,42.9,13.65,10.17,5.15,19.76,11.46,28.54,18.74.27-.12.54-.23.81-.36,11.53-5.43,21.42-14.24,28.05-25.13.47-.77,1.61-.18,1.24.65-1.76,3.98-3.56,7.93-5.43,11.85-3.29,6.89-6.76,13.7-10.4,20.42-.7,1.28-1.39,2.55-2.09,3.82,8.24,8.47,15.51,17.96,20.95,28.45,6.05,11.68,9.76,24.68,9.4,37.91-.34,12.69-4.35,25.06-10.8,35.94Z"/>
  <path class="cls-2" d="M716.75,853.96c-6.62,11.13-15.66,20.73-26.09,28.37-10.82,7.9-23.1,13.4-36.04,16.78-13.46,3.51-27.44,4.79-41.33,4.46-14.07-.33-28.08-2.24-41.85-5.11-15.55-3.25-31.11-7.46-45.48-14.35-13.16-6.31-25.12-15.05-34-26.74-7.47-9.84-12.72-21.38-15.46-33.43-2.73-12.02-3.02-24.62-.53-36.71,2.53-12.26,8.02-23.73,15.75-33.57,7.78-9.88,17.75-18.06,28.92-23.84,3.53-1.82,7.18-3.4,10.93-4.71,1.92-1.21,3.87-2.36,5.85-3.45,11.33-6.21,23.67-10.52,36.37-12.85,13.14-2.41,26.58-2.67,39.79-.79,14.93,2.11,29.46,6.87,42.9,13.65,10.17,5.15,19.76,11.46,28.54,18.74.27-.12.54-.23.81-.36,11.53-5.43,21.42-14.24,28.05-25.13.47-.77,1.61-.18,1.24.65-1.76,3.98-3.56,7.93-5.43,11.85-3.29,6.89-6.76,13.7-10.4,20.42-.7,1.28-1.39,2.55-2.09,3.82,8.24,8.47,15.51,17.96,20.95,28.45,6.05,11.68,9.76,24.68,9.4,37.91-.34,12.69-4.35,25.06-10.8,35.94Z"/>
  <path class="cls-13" d="M432.51,839.17c-4.87,13.86-13.4,26.28-24.16,36.21-10.93,10.09-24.11,17.69-38.36,21.96-16.4,4.92-33.88,5.58-50.73,2.76-39.55-6.6-77.61-32.48-81.35-75.36-4.59-52.7,40.15-81.8,86.74-87.36,16.76-2,33.96-2.79,50.62.48,1.04.21,2.07.43,3.09.67,5.46-8.41,9.79-17.46,12.72-27.17.22-.72,1.39-.61,1.35.18-.27,4.38-.54,8.76-.8,13.15-.35,5.89-.71,11.77-1.06,17.66,9.54,3.81,18.29,9.41,25.43,17.02,9.69,10.34,16.21,23.5,19.13,37.32,2.97,14.12,2.17,28.85-2.61,42.47Z"/>
  <path class="cls-3" d="M406.31,824.82c-4.22-6.57-10.96-11.34-18.16-14.27,5.09-8.11,6.51-18.71,3.8-27.8-4.7-15.76-21.41-24.59-37.13-24.3-8.42.16-16.67,2.87-23.31,8.1-2.62,2.06-5.02,4.6-6.92,7.44-6.93-3.67-15.98,4.27-20.98,8.59-7.52,6.5-14.03,14.17-19.24,22.63-4.95,8.04-8.91,17.16-9.11,26.73-.09,4.47.74,8.98,2.8,12.98,2.06,3.98,5.28,7.23,9.1,9.53,2.63,1.58,5.43,2.69,8.32,3.4.54.97,1.17,1.91,1.9,2.8,5.01,6.09,13.15,8.12,20.74,7.97,7.45-.15,14.77-2.25,21.61-5.2.31.13.62.27.93.4.22.09.44.17.66.26,1.92,2.48,4.18,4.7,6.8,6.53,6.68,4.68,15.25,5.33,22.45,1.38,2.12-1.17,4.04-2.65,5.74-4.34,2.3-.97,4.47-2.31,6.38-4.1.18-.17.35-.36.52-.53,9.23-1.74,18.14-6.13,23.31-14.27,4.73-7.46,4.54-16.55-.2-23.94ZM344.23,761.6c14.95-4.51,33.27.28,42.38,13.44,7.04,10.17,6.8,24.63.11,34.95-.35-.13-.7-.26-1.06-.39-1.23-.43-2.48-.81-3.73-1.15-1.22-6.46-3.89-12.66-7.87-17.87-.28-.37-.91-.61-1.27-.16-1.32,1.63-2.51,3.35-3.58,5.14-4.5-4.28-10.11-7.26-16.17-8.68-.7-3.42-2.41-6.6-5.14-9-5.91-5.18-14.86-6.13-21.97-3.01,4.17-6.45,11.02-11.07,18.31-13.27ZM382.65,814.95c-.06-1.6-.2-3.2-.44-4.78,1.2.35,2.4.74,3.57,1.17-.89,1.21-1.87,2.37-2.94,3.43-.06.06-.13.12-.19.18ZM380.85,861.78c1.91-3.23,3.25-6.81,3.95-10.44,1.35-6.96.83-14.16-.56-21.16.14.43.28.85.41,1.28,1.36,4.34,2.45,8.82,2.74,13.37.28,4.38-.19,8.92-2.25,12.85-.75,1.43-1.69,2.71-2.77,3.86-.51.09-1.02.18-1.53.25ZM375.52,866.2c-9.92,3.98-20.33,1.13-29.66-2.18-1.16-.41-2.33-.84-3.49-1.29-.09-.12-.18-.25-.27-.37.29-.14.59-.27.88-.41.55-.26,1.08-.55,1.62-.82,2.12.62,4.27,1.15,6.44,1.57,8.59,1.66,17.73,2.11,26.52,1.14-.63.83-1.31,1.61-2.03,2.36ZM295.82,854.8c-1.62-4.14-1.62-8.74-.69-13.04.95-4.4,2.74-8.38,5.04-12.08,1.33,1.97,3.25,3.49,5.54,4.21.81.26,1.16-1.02.35-1.27-2.17-.69-3.93-2.25-5.09-4.19.55-.83,1.13-1.65,1.73-2.46,1.82-.11,3.62-.52,5.31-1.2.75,8.07,4.04,15.88,9.83,21.63.44.43.89.84,1.35,1.25,1.12,2.04,2.58,3.9,4.24,5.59-8.54,3.16-17.91,5.2-26.9,3.15-.26-.51-.51-1.04-.72-1.58ZM325.52,776.72c2,1.87,2.88,4.78,3.07,7.47-2-.6-4.11-1.11-6.24-1.28.42-1.92,1.11-3.78,2-5.52.38-.23.77-.46,1.17-.67ZM373.34,792.33c3.34,4.64,5.65,10.03,6.82,15.67-.97-.23-1.94-.44-2.91-.63-1.33-3.35-3.25-6.49-5.61-9.26-.41-.48-.83-.94-1.27-1.39.9-1.52,1.9-2.99,2.97-4.39ZM339.13,857.48c-.32-.65-.63-1.31-.92-1.98,5.4.49,10.92-.22,15.99-2.1-3.09,2.2-6.35,4.2-9.74,5.96-1.8-.55-3.58-1.17-5.33-1.88ZM342.36,860.43c-.4.19-.81.37-1.21.56-.27-.41-.53-.83-.79-1.26.66.25,1.33.48,2,.7ZM321.94,788.58c-.12-1.42-.05-2.86.15-4.27,2.2.15,4.4.7,6.53,1.68-.03,1.12-.16,2.22-.38,3.3-1.92.85-3.76,1.86-5.5,3.03-.41-1.21-.7-2.46-.81-3.74ZM351.81,792.6c-2.91-.7-5.93-.96-8.93-.83-1.82-.45-3.7-.69-5.6-.72-.68-.87-1.43-1.69-2.24-2.45,5.44-1.38,11.22-1.57,16.77-.43.2,1.46.19,2.96,0,4.43ZM377.79,816.44c.04.72.04,1.44.02,2.15-1.11.65-2.28,1.22-3.49,1.7-.24-2.44-.72-4.86-1.44-7.19-.25-.8-.53-1.59-.84-2.37,2.26,1.53,4.15,3.5,5.75,5.7ZM311.15,820.77c.53-.2,1.02-.44,1.48-.73-.46.48-.95.92-1.47,1.33,0-.2-.01-.4-.01-.59ZM348.67,795.82c.67.41,1.29.86,1.89,1.34-.91,2.07-2.27,3.92-4.06,5.33-1.63,1.28-3.41,2.03-5.23,2.34.58-3.86-.31-7.73-2.21-11.11,1.17-.19,2.35-.31,3.54-.37,2.13.52,4.18,1.33,6.06,2.48ZM356.27,804.5c-.91.88-1.43,1.62-1.84,2.42-.51.15-1.02.31-1.52.49-5.02.96-10.01,2.51-14.67,4.68.78-1.06,1.44-2.2,1.95-3.4.33-.78.58-1.57.78-2.37,4.57-.71,8.62-3.62,10.74-8.16,1.94,1.81,3.45,3.97,4.56,6.35ZM368.59,839.86c-.26.43-.53.84-.8,1.25-2.54-5.76-3.89-12-4.05-18.28,3.04.62,6.18.34,9.16-.51.24,6.14-1.16,12.34-4.31,17.54ZM336.81,851.67c-.24-.78-.46-1.56-.65-2.35,2.27-1.23,4.49-2.57,6.6-4.07,7.31-5.17,13.58-12.17,16.14-20.9.29-1.01.54-2.03.74-3.07.77.44,1.58.83,2.43,1.11.06,4.42.67,8.83,1.87,13.09.69,2.43,1.57,4.8,2.64,7.09-1.66,1.83-3.42,3.56-5.26,5.2-2.09,1.54-4.39,2.8-6.82,3.78-5.81,1.56-11.96,1.7-17.7.12ZM339.78,804.99c-4.85.24-9.85-2.36-13.16-6.07-.08-.09-.15-.18-.22-.27,3.37-2.23,7.19-3.81,11.17-4.65,1.99,3.29,2.94,7.11,2.22,10.99ZM334.06,814.26c-.74.43-1.46.87-2.18,1.33-3.66,1.72-7.79,1.23-11.04-1-1.38-.95-2.55-2.09-3.54-3.38.03-.43.04-.85.03-1.28,2.95-3.17,5.74-6.46,8.06-10.1,2.26,2.57,5.13,4.6,8.3,5.75,1.91.7,3.85.97,5.73.88-.91,3.05-2.8,5.87-5.37,7.79ZM315.86,811.78c-.08.98-.33,1.91-.71,2.84.09-.94.37-1.9.71-2.84ZM314.31,820.26c.95-1.14,1.73-2.41,2.29-3.83.09-.23-.01-.53-.18-.69.17-.89.42-1.7.6-2.53,1.09,1.22,2.35,2.29,3.8,3.15,2.32,1.37,4.99,1.95,7.62,1.69-5.21,4.09-9.86,9.68-11.27,16.18-1.96-4.41-2.98-9.23-2.86-13.98ZM320.23,830.28c3.89-8.2,11.93-13.72,20.02-17.26,2.1-.92,4.27-1.71,6.46-2.39-4.61,3.23-8.16,7.86-10.35,13.22-3.07,7.5-3.76,16.34-2.04,24.59-.86.45-1.73.88-2.61,1.3-1.64-.8-3.22-1.76-4.72-2.9-3.5-2.66-6.4-6.13-8.54-10.02.19-2.25.8-4.47,1.78-6.54ZM358.55,816.47c-.03.71-.09,1.41-.17,2.1-2.64-2.45-4.19-6.33-3.11-9.84.81-.21,1.59-.34,2.37-.43.72,2.64,1.02,5.41.91,8.16ZM353.72,808.91c-.48,2.03-.27,4.23.54,6.23.84,2.08,2.19,3.81,3.88,5.14-1.25,7.23-5.11,13.68-10.46,18.81-3.54,3.4-7.6,6.2-11.9,8.57-1.77-8.85-.67-18.37,3.4-26.08,3.02-5.72,7.96-10.29,13.93-12.54.2-.04.4-.09.61-.13ZM334.69,850.09c.08.34.17.67.26,1-.43-.15-.85-.3-1.27-.47.34-.17.67-.36,1.01-.53ZM359.89,819.73c.55-3.85.41-7.84-.55-11.59,1.53-.14,3.06-.24,4.59-.27-1.17,4.22-1.81,8.58-1.88,12.96-.74-.29-1.46-.66-2.16-1.11ZM364.43,806.13c-1.89-.26-3.81-.27-5.71-.06-.15-.42-.31-.83-.47-1.23,1.49-1,3.33-1.55,5.16-1.65.71-.04,1.38-.01,2.04.05-.37.95-.7,1.91-1.01,2.89ZM327.52,796.1c.32-.65.63-1.32.92-2.03,2.57-.89,5.31-1.37,8.04-1.41-3.13.73-6.16,1.87-8.96,3.44ZM325.16,797.05c-.26-.38-.51-.76-.75-1.16.47-.27.95-.52,1.45-.76.14-.07.29-.13.43-.19-.36.72-.74,1.42-1.13,2.11ZM324.17,798.3c-1.05.78-2.07,1.6-3.02,2.51-1.71,1.65-3.18,3.49-4.39,5.48-.19-.6-.41-1.18-.69-1.72-.07-.13-.15-.25-.22-.38,1.88-2.95,4.31-5.53,7.25-7.48.33.55.69,1.08,1.07,1.6ZM315.75,808.07c-.06.13-.13.25-.19.38-.35-.69-.67-1.4-.94-2.14.11-.21.21-.42.32-.62.35.76.63,1.56.81,2.38ZM314.8,810.15c-.94,1.06-1.83,1.98-2.72,2.89.42-1.69.98-3.34,1.68-4.93.31.7.65,1.39,1.04,2.04ZM311.5,815.99c.34-.35.67-.69,1.01-1.04.25.09.49.2.73.32-.18.9-.33,1.82-.42,2.74-.5.45-1.04.84-1.63,1.15.05-1.06.15-2.12.31-3.17ZM312.66,821.94c.13,5.33,1.59,10.57,4.11,15.23-.04.73-.06,1.47-.01,2.22-3.26-5.13-5.12-10.66-5.52-16.34.5-.34.97-.72,1.43-1.11ZM318.46,839.98c2.92,4.37,6.83,8.07,11.43,10.62-.58.26-1.16.51-1.75.76-3.59-2.58-6.69-5.54-9.28-8.9-.2-.82-.32-1.64-.4-2.47ZM330.47,852.15c.43-.19.85-.4,1.27-.6,1.22.57,2.49,1.06,3.8,1.47.06.18.12.37.18.55-1.83-.31-3.64-.75-5.38-1.35.04-.02.09-.04.13-.06ZM337.43,853.53c.76.18,1.52.33,2.29.46-.73-.04-1.46-.09-2.18-.17-.04-.09-.07-.19-.1-.29ZM374.44,821.83c.91-.33,1.79-.69,2.65-1.11.21-.1.4-.21.61-.32-.34,3.4-1.3,6.72-2.74,9.83-.6,1.3-1.29,2.57-2.02,3.81,1.24-3.93,1.73-8.09,1.51-12.21ZM372.81,820.83c-3,.95-6.15,1.26-9.08.55.02-4.52.63-9.04,1.85-13.4,1.46.31,2.88.79,4.23,1.44,1.66,3.56,2.67,7.46,2.99,11.41ZM366.11,806.25c.21-.65.44-1.3.67-1.94.48.64.92,1.31,1.34,2-.67-.03-1.34-.05-2.01-.06ZM368.36,803.9c1.69.61,3.19,1.58,4.5,2.79-.96-.11-1.93-.2-2.9-.27-.49-.86-1.03-1.7-1.6-2.52ZM357.63,803.46c-.51-1.04-1.08-2.04-1.75-3-1.02-1.47-2.21-2.75-3.52-3.88.24-.67.43-1.36.58-2.05,2.71.81,5.29,2.03,7.64,3.68,1.47,1.04,2.81,2.21,4.03,3.5-2.43-.09-4.93.44-6.98,1.74ZM351.14,795.61c-1.11-.82-2.29-1.54-3.52-2.14,1.32.14,2.63.37,3.92.68-.11.49-.24.98-.39,1.46ZM335.42,791.08c-.21.01-.41.01-.62.03-1.95.15-3.85.52-5.68,1.07.19-.58.36-1.17.51-1.76,1.21-.52,2.46-.96,3.73-1.35.73.63,1.42,1.3,2.05,2.02ZM330.02,788.55c.1-.57.17-1.14.22-1.72.56.33,1.11.68,1.64,1.06-.63.21-1.25.42-1.86.66ZM327.74,791.28c-.16.52-.34,1.03-.53,1.53-1.23.47-2.42,1.05-3.56,1.69-.11-.21-.21-.43-.31-.64,1.4-.97,2.87-1.83,4.4-2.58ZM322.34,795.31c-2.91,1.89-5.45,4.36-7.47,7.32,1.92-3.11,4.39-5.71,7.22-7.86.08.18.16.36.25.53ZM312.93,805.94c-.94,1.88-1.68,3.85-2.24,5.88.3-1.14.66-2.26,1.07-3.37.34-.89.72-1.75,1.13-2.59,0,.03.02.05.03.08ZM308.07,817.18c-.74.78-1.46,1.56-2.18,2.36-1.48-.53-2.71-1.52-3.7-2.74,1.7-1.54,3.98-2.39,6.3-2.48-.17.95-.31,1.9-.41,2.86ZM307.86,821.33c0,.65.02,1.3.05,1.95-1.27.55-2.62.92-4,1.12.86-1.09,1.76-2.15,2.69-3.2.41.07.83.11,1.26.12ZM309.64,824.01c.12,1.4.32,2.79.61,4.16,1.17,5.53,3.74,10.66,7.17,15.13-4.57-5.16-7.23-12.11-7.81-19.28,0,0,.02,0,.02-.01ZM336.36,855.3c.16.4.33.8.5,1.2-.24-.11-.47-.21-.71-.32-.94-.45-1.86-.93-2.77-1.43.98.22,1.98.41,2.98.55ZM367.38,844.22c.13.25.25.5.39.75-1.06.83-2.17,1.59-3.31,2.3,1.05-.95,2.03-1.97,2.93-3.05ZM368.54,842.74c5.32-6.19,9.5-13.21,10.57-21.07.1-.73.16-1.46.2-2.19.11-.07.21-.13.32-.2.24.41.45.81.66,1.2.14.47.28.94.41,1.41-.93,7.05-3.76,13.79-8.71,19.2-.9.98-1.87,1.91-2.88,2.78-.2-.37-.38-.75-.57-1.13ZM377.44,813.41c-1.84-2.12-4.04-3.91-6.52-5.21,1.19,0,2.43.15,3.66.33,1.05,1.29,1.96,2.75,2.74,4.27.04.2.08.4.11.61ZM375.24,807.02c-2.02-2.3-4.51-4.07-7.62-4.86.59-1.39,1.24-2.75,1.97-4.07,1.39,1.49,2.65,3.1,3.74,4.84.83,1.32,1.55,2.7,2.18,4.13-.09-.01-.18-.03-.27-.04ZM366.28,801.25c-1.74-1.96-3.73-3.69-5.97-5.11-2.2-1.39-4.59-2.44-7.07-3.16.2-1.49.23-2.99.07-4.47,5.72,1.44,10.95,4.34,15.14,8.4-.79,1.41-1.51,2.86-2.16,4.34ZM351.19,786.49c-5.82-1.04-11.89-.71-17.58.87-1.21-.93-2.23-1.57-3.29-2.13.03-3.39-.85-6.68-3.2-9.25.9-.37,1.83-.68,2.8-.9,7.49-1.76,16.55.94,20.3,8.05.57,1.08.99,2.23,1.28,3.43-.1-.02-.21-.04-.31-.06ZM320.78,782.84c-.83,0-1.65.05-2.48.15,1.04-1.4,2.23-2.68,3.55-3.79-.46,1.18-.82,2.4-1.07,3.64ZM320.53,784.27c-.18,1.32-.24,2.66-.15,4.01.12,1.69.49,3.35,1.07,4.94-2.99,2.2-5.62,4.88-7.73,8.02-.1-.11-.22-.21-.32-.32-.3-2.76-.14-5.57.45-8.17.64-2.86,1.79-5.64,3.35-8.13,1.1-.22,2.22-.33,3.34-.35ZM311.89,795.35c-.16,1.35-.2,2.74-.13,4.14-2.79-2.1-6.29-3.33-9.78-3.42,1.25-2.19,2.82-4.18,4.59-5.86,2.49-2.36,5.43-4.09,8.56-5.06-1.72,3.16-2.82,6.68-3.24,10.2ZM305.91,798.13c2.28.67,4.36,1.89,6.04,3.47.09.66.21,1.31.34,1.96-.12.22-.25.43-.36.66-1.43,2.73-2.48,5.66-3.16,8.68-2.26.03-4.51.69-6.38,1.97-.36.25-.7.52-1.01.81-.71-1.1-1.25-2.31-1.64-3.49-1.6-4.86-.76-10.1,1.49-14.68,1.58-.04,3.18.17,4.69.62ZM297.52,805.85c-.24,3.39.74,7.67,2.85,10.88-1.7,2.08-2.41,4.74-2.17,7.41-.15-.04-.31-.07-.46-.11-7.25-2.11-10.24-10.24-8.31-17.11.94-3.35,3.05-6.34,6.15-8,1.27-.68,2.64-1.09,4.04-1.28-1.16,2.61-1.91,5.39-2.11,8.22ZM300.7,818.58c.16-.25.33-.49.51-.72,1.02,1.24,2.24,2.23,3.66,2.84-1.1,1.26-2.16,2.55-3.17,3.87-.72,0-1.43-.06-2.14-.17-.27-2,.05-4.06,1.14-5.83ZM300.32,825.94c.12,0,.23,0,.35.02-.18.25-.36.51-.53.76-.1-.28-.2-.56-.28-.84.15.02.3.05.46.06ZM324.66,852.2c-.52-.51-1-1.05-1.48-1.61.94.59,1.92,1.12,2.91,1.6-.34.14-.68.27-1.02.4-.14-.13-.28-.26-.42-.4ZM327.91,853.26c3.14,2.19,6.51,4.02,10.03,5.51.5.97,1.05,1.92,1.64,2.84-4.71-2-9.26-4.45-13.11-7.75.48-.2.96-.4,1.44-.6ZM366.37,862.56c-6.59-.11-13.23-.86-19.62-2.54,4.32-2.35,8.43-5.1,12.26-8.2,3.43-1.34,6.66-3.17,9.56-5.42.28.48.57.96.87,1.43.58.91,2.03.07,1.45-.85-.34-.54-.66-1.1-.98-1.66,2.97-2.53,5.53-5.51,7.52-8.89,2-3.4,3.41-7.09,4.26-10.9,2.06,8.09,3.2,16.62,1.74,24.76-.74,4.14-2.29,8.21-4.6,11.75-4.16.49-8.38.58-12.47.51ZM380.6,816.71c-.53-1.46-1.14-2.92-1.84-4.33-.23-1.11-.52-2.2-.87-3.27.87.18,1.73.37,2.59.59.36,2.2.56,4.43.57,6.66-.15.12-.3.24-.45.35ZM294.28,855.78c-4.18-1.3-8.13-3.51-11.17-6.68-3.08-3.21-5.02-7.3-5.78-11.67-1.6-9.05,1.49-18.58,5.69-26.51,4.47-8.46,10.36-16.21,17.17-22.93,3.37-3.32,6.99-6.42,10.82-9.19,3.51-2.54,8.34-5.4,12.67-3.35-.17.29-.34.59-.5.89-2.81,1.79-5.15,4.2-6.96,6.99-2.03.46-4.02,1.22-5.91,2.31-4.2,2.41-7.67,6.14-9.95,10.47-.77.06-1.53.17-2.27.34-7.25,1.72-11.25,9.14-10.59,16.26.59,6.39,4.81,11.55,10.93,12.91.18.82.46,1.64.83,2.42-1.93,2.98-3.56,6.16-4.71,9.63-1.97,5.92-2.38,12.48-.02,18.16-.08-.02-.16-.04-.24-.07ZM328.8,865.43c-7.96,2.06-17.37,2.62-24.81-1.46-2.51-1.38-4.67-3.32-6.28-5.65,5.82,1.01,11.92.54,17.7-.85,3.18-.77,6.3-1.78,9.36-2.95,1.48,1.34,3.08,2.55,4.75,3.63,2.57,1.67,5.29,3.1,8.08,4.36-2.88,1.15-5.81,2.15-8.8,2.92ZM369.48,870.78c-7.19,3.8-15.58,2.51-21.81-2.52-1.12-.9-2.15-1.88-3.12-2.93,3.65,1.35,7.38,2.53,11.16,3.38,5.39,1.2,11.28,1.53,16.69.22-.92.68-1.89,1.3-2.92,1.84ZM395.79,856.79c-3.37,1.99-7.03,3.32-10.82,4.2,4.7-6.38,4.7-15.02,3.15-22.65-.91-4.48-2.27-8.9-3.94-13.15-.53-1.36-1.12-2.71-1.76-4.03.15-1.38.24-2.77.25-4.17,1.73-1.5,3.25-3.21,4.57-5.08,2.53,1.02,4.96,2.25,7.26,3.72,6.9,4.39,13.22,11.32,13.88,19.83.69,8.95-5.14,16.95-12.59,21.34Z"/>
  <path class="cls-10" d="M541.2,879.1c-2.91,9-7.97,17.16-14.16,24.27-13.02,14.96-31.08,25.85-50.18,30.98-18.62,5-38.7,4.24-56.3-3.9-15.85-7.33-29.42-20.2-36.23-36.41-5.64-13.42-6.34-29.41-.35-42.69,1.03-3.71,2.36-7.34,4.02-10.83,3.84-8.02,9.42-15.23,15.94-21.25,2.59-2.38,5.33-4.59,8.21-6.61-.04-10.68.79-21.37,2.42-31.92.14-.87,1.36-.56,1.42.19.44,4.84,1.33,9.63,2.68,14.29,1.08,3.78,2.46,7.46,4.08,11.04,9.31-4.77,19.46-7.92,29.78-9.36,19.16-2.68,39.5.35,56.51,9.76,16.81,9.31,29.72,25.37,33.63,44.35,1.93,9.34,1.48,19.02-1.46,28.1Z"/>
  <path class="cls-12" d="M500.08,861.12c-1.97-1.53-4.48-2.03-6.92-1.77-.85-2.22-1.95-4.35-3.31-6.27.65-.73,1.27-1.49,1.85-2.25,2.23-2.95,3.79-6.56,3.44-10.32-.29-3.03-1.91-5.82-4.64-7.25-4.94-2.58-11.64-.74-15.28,3.26-.54.59-1.02,1.21-1.46,1.85-1.35-1.45-3.05-2.61-4.93-3.37-4.2-1.71-8.81-1.35-12.76.64-4.8-.63-9.74-.45-14.38.49-6.92,1.4-13.73,4.47-18.98,9.24-5.69,5.17-8.57,12.22-8.44,19.89.05,2.73.4,5.49.97,8.23-1.73,2.18-2.48,5.14-1.99,7.93.31,1.8,1.18,3.38,2.51,4.58.34,3.59,1.48,7.01,4.29,9.17,1.8,1.38,4.05,1.96,6.2,1.38,2.68,2.81,5.9,5.04,9.72,6.34,6.77,2.29,14.43,1.58,20.85-1.47,5.32.71,10.79.07,15.71-2.11,4.22-1.87,7.79-4.81,10.61-8.38,1.41.37,2.88.51,4.28.41,6.87-.51,11.8-6.39,14.32-12.33,2.32-5.47,3.78-13.66-1.64-17.88ZM456.49,899.66c-1.63-.25-3.24-.62-4.8-1.13-7.97-2.58-14.43-8.45-17.15-16.05-.03-1.71-.35-3.4-1-4.96,1.2.56,2.52.85,3.93.78,4.77-.26,8.26-4.7,8.67-9.23.46-5.05-3.34-9.24-7.84-10.89,1.86-2.67,4.18-4.99,6.9-6.75-.53,3.21-.52,6.48-.08,9.71.36,2.63,1.02,5.24,2.59,7.43,1.25,1.74,3.11,3.19,5.36,3.04.18-.01.35-.04.52-.07-.11.51-.2,1.03-.28,1.54-.51,3.37-.37,6.97,1.43,9.96,1.52,2.55,4.04,4.28,6.92,4.93,2.52.57,5.14.43,7.62-.25-2.63,4.18-6.06,7.82-10.13,10.43-.85.55-1.74,1.04-2.65,1.49ZM426.67,894.48c-.75-.85-1.45-1.75-2.1-2.71-3.05-4.49-5.21-9.73-6.68-15.03.2-1.44.5-2.85.9-4.24,2.45-1.14,5.51-.94,8.01.29,2.39,1.18,4.05,3.1,5.02,5.37.2,1.45.52,2.87.96,4.26.02.55.01,1.11-.04,1.67-.21,2.4-1.06,4.76-2.37,6.78-.89,1.39-2.15,2.84-3.7,3.6ZM473.88,841.14c.58.95.98,1.96,1.21,3.02-.61-.57-1.23-1.11-1.88-1.63.2-.48.43-.94.67-1.4ZM486.38,859.07c.36.82.67,1.66.94,2.51-1.2.84-2.27,1.88-3.2,3.04-.06-1.79-.28-3.59-.66-5.35.7-.6,1.4-1.22,2.09-1.85.31.56.59,1.11.83,1.65ZM488.55,872.88c-.55-.31-1.14-.58-1.76-.77-1.11-.34-2.24-.41-3.34-.27.31-1.35.53-2.72.63-4.11,1-1.72,2.22-3.26,3.74-4.44.78,3.11,1.01,6.36.73,9.58ZM480.12,879.67c1.24-1.86,2.18-3.88,2.83-5.99.59-.13,1.2-.2,1.83-.17,1.32.06,2.53.53,3.55,1.25-.68,4.65-2.39,9.17-4.97,13.05-1.12-.51-2.07-1.39-2.65-2.66-.77-1.69-.83-3.6-.6-5.48ZM476.64,881.38c.07-2.07,1.01-4.11,2.5-5.59-.33,1.28-.55,2.35-.69,3.43-.54.77-1.15,1.49-1.81,2.17ZM483.08,857.7c-.58-2.15-1.39-4.23-2.42-6.19,1.61,1.25,3.01,2.9,4.12,4.61-.55.54-1.12,1.07-1.7,1.58ZM475.28,847c-.02.27-.05.53-.09.79-.51-.03-1.02-.03-1.54.03-.74.09-1.47.28-2.17.54.05-.23.09-.46.14-.69,1.22-.4,2.44-.62,3.66-.67ZM472.28,853.64c-.42-.59-.88-1.16-1.37-1.71.08-.58.16-1.16.25-1.74.35-.18.7-.34,1.06-.46.9-.32,1.79-.44,2.65-.44-.24.81-.55,1.6-.99,2.34-.44.75-.97,1.43-1.59,2.02ZM469.74,849.23c-.35.22-.69.45-1.01.71-.23-.18-.46-.34-.69-.51.43-.28.87-.55,1.33-.79.17-.09.35-.17.52-.25-.05.28-.1.56-.15.84ZM468.67,852.05c.2.18.38.38.57.57-.15,1.21-.27,2.41-.39,3.58-.05.49.55.93,1,.76.7-.26,1.34-.59,1.95-.98,1.11,1.89,1.91,3.98,2.41,6.13-.87.05-1.76,0-2.67-.22-2.83-.67-5.28-3-4.8-6.11.22-1.4.94-2.69,1.92-3.75ZM473.15,854.96c1.61-1.45,2.76-3.38,3.34-5.5.37.08.73.18,1.09.31,1.16,1.67,2.15,3.49,2.92,5.49.45,1.17.81,2.39,1.1,3.65-1.78,1.38-3.71,2.47-5.76,2.96-.55-2.43-1.43-4.79-2.69-6.91ZM482.36,850.91c-1-.84-2.13-1.58-3.35-2.13-.15-.22-.28-.45-.44-.66-.25-.34-.52-.66-.79-.98,3.31.49,6.44,2.19,8.97,4.82.34.36.67.73.98,1.1-.58.61-1.18,1.25-1.81,1.91-1-1.51-2.17-2.89-3.56-4.06ZM473.78,845.42c-.57.09-1.14.21-1.69.37.14-.49.28-.98.45-1.46.43.35.84.72,1.25,1.1ZM470.34,846.35c-1.36.53-2.66,1.25-3.89,2.1-4.62-2.51-10.21-2.84-15.32-1.47-.69-.65-1.45-1.2-2.28-1.65.43-.88.91-1.73,1.48-2.55,1.52-2.18,3.57-4.09,5.92-5.41,5.43.8,10.66,2.79,15,5.96-.35.99-.65,2-.9,3.03ZM447.1,850.32c.7-.36,1.42-.7,2.16-.99.44-.17.89-.32,1.34-.46.56.58,1.07,1.22,1.52,1.92,2.13,3.27,3.75,7.4,4.31,11.28.02.16.04.34.06.52-.96,2.36-1.87,4.78-2.51,7.26-.63.23-1.39.24-2.33-.08-1.95-.66-3.2-2.79-3.91-4.6-.92-2.34-1.19-4.96-1.29-7.46-.1-2.48.1-4.98.64-7.39ZM456.04,854.88c-.89-2.22-2.04-4.57-3.6-6.5,4.21-.95,8.73-.7,12.58,1.17-.78.65-1.52,1.35-2.2,2.12-2.15,2.4-3.77,5.2-5.12,8.11-.44-1.72-1.06-3.39-1.66-4.9ZM449.15,847.61c-.11.04-.22.08-.33.12-.39.15-.77.33-1.15.51.14-.43.31-.85.47-1.28.35.19.69.41,1.02.65ZM445.65,849.24c-3.63,2.04-6.71,4.98-9.04,8.45-1.82-.4-3.67-.4-5.45-.05.09-.18.18-.36.27-.53,2.23-4.15,5.4-8.91,10.01-10.64,1.83-.69,3.59-.67,5.19-.16-.39.96-.73,1.93-.99,2.93ZM433.14,874.6c-.03-5.15,1.45-10.4,4.14-14.88,2.48.8,4.71,2.38,6.02,4.64,2.09,3.61.92,8.44-2.43,10.89-2.54,1.86-5.41,1.48-7.71-.05,0-.2-.03-.4-.03-.6ZM432.34,859.21c1.07-.13,2.17-.09,3.25.09-2.6,4.47-3.97,9.51-4.05,14.53-.56-.6-1.05-1.26-1.45-1.98-2.14-3.85-1.49-8.26.13-12.18.69-.21,1.4-.37,2.12-.45ZM427.11,868.56c.16,1,.46,2.01.88,2.98-2.62-1.38-5.72-1.84-8.55-.95.45-1.17.98-2.31,1.64-3.39,1.63-2.71,4.03-5.14,6.88-6.6-.87,2.59-1.25,5.3-.84,7.97ZM457.71,884.03c-3.62-3.47-3.36-8.57-2.16-13.26.87-.57,1.56-1.4,2-2.4.75-1.73.9-3.62.71-5.52,1.91-4.68,4.44-9.25,8.37-12.39.3.2.61.4.9.62-.38.42-.74.85-1.05,1.32-1.59,2.44-1.84,5.57-.08,7.99,1.74,2.39,4.8,3.41,7.67,3.29.15,0,.29-.03.43-.05.15.88.27,1.76.34,2.64.49,6.51-1.11,13.28-4.26,19.19-4.21,1.65-9.49,1.82-12.88-1.42ZM476.56,866.97c-.06-1.2-.2-2.4-.41-3.6,2.1-.5,4.02-1.57,5.77-2.87.39,2.24.55,4.55.41,6.83-1.01,1.81-1.78,3.76-2.41,5.74-3.21,1.88-5.48,5.55-5.08,9.32.02.18.06.36.09.54-.61.48-1.25.93-1.94,1.33,2.51-5.39,3.89-11.34,3.57-17.3ZM478.05,882.37c.09-.1.17-.21.26-.31.06,1.26.29,2.5.78,3.65.46,1.08,1.1,1.92,1.83,2.57-1.12-.62-2.12-1.45-2.93-2.53-.53-.7-.87-1.46-1.09-2.24.4-.37.79-.74,1.15-1.14ZM485.01,888.26c2.35-3.71,3.95-7.91,4.71-12.24,2.09,2.4,2.88,6.07,1.41,8.93-.21.4-.07.77.18,1.01-.98.96-2.23,1.72-3.83,2.14-.83.22-1.67.26-2.47.16ZM490.01,873.91c.2-1.82.26-3.66.15-5.47-.13-2-.44-4.04-.97-6.04.88-.5,1.83-.9,2.88-1.15,1.12,3.4,1.72,7.01,2.14,10.47.41,3.35.51,7.42-.69,10.71.24-3.16-1.11-6.43-3.51-8.51ZM491.49,859.65c-.17.04-.34.08-.51.13-.81.24-1.58.56-2.3.95-.51-1.54-1.16-3.03-1.95-4.44.67-.64,1.32-1.3,1.96-1.97,1.16,1.65,2.07,3.45,2.8,5.33ZM476.42,837.49c3.33-3.58,9.76-5.38,14.06-2.48,2.77,1.87,3.58,5.4,2.99,8.54-.59,3.19-2.45,5.89-4.59,8.26-1.88-2.29-4.21-4.18-7.07-5.41-1.63-.7-3.28-1.06-4.93-1.15-.18-2.1-.94-4.02-2.12-5.66.49-.74,1.03-1.45,1.65-2.11ZM461.63,835.56c4.1-.46,8.5,1.07,11.24,4.2-.34.6-.64,1.22-.93,1.85-3.82-2.7-8.23-4.51-12.87-5.48.83-.26,1.68-.48,2.56-.57ZM419.32,852.07c6.62-10.8,21.01-15.63,33.13-15.08.42.02.83.06,1.25.09-2.74,1.98-4.86,4.62-6.34,7.6-.28-.09-.56-.17-.86-.24-5.58-1.26-10.34,2.77-13.48,6.92-1.56,2.06-3.06,4.42-4.18,6.93-2,.73-3.87,1.88-5.49,3.32-3.03,2.71-4.98,6.23-6.15,10.02-.16.11-.31.22-.46.34-1.31-6.74-1.1-13.92,2.57-19.91ZM415.66,875.37c.13.53.25,1.07.4,1.59-.04.29-.09.58-.12.87-.2,1.84-.36,3.93-.32,6.03-1.63-2.45-1.46-5.95.03-8.49ZM424.55,895c-2.62,0-4.78-2.07-5.8-4.34-1.1-2.44-1.22-5.22-1.23-7.86,0-.45,0-.9.02-1.35.86,2.34,1.84,4.61,2.93,6.78,1.21,2.41,2.66,4.7,4.36,6.75-.09,0-.18.03-.27.03ZM440.65,902.24c-4.96-.74-9.27-3.03-12.71-6.42,2.15-1.23,3.77-3.41,4.84-5.59.65-1.31,1.13-2.74,1.42-4.21,1.14,2.34,2.63,4.54,4.53,6.5,4.04,4.16,9.35,7,15.01,8.32-4.16,1.53-8.7,2.06-13.1,1.4ZM481.28,890.62c-3.61,4.25-8.4,7.35-13.84,8.66-2.61.63-5.31.85-7.99.7,5.14-3.14,9.27-7.83,12.18-13.08,1.34-.58,2.62-1.32,3.79-2.19,1.06,2.64,3.36,4.57,6.05,5.65-.07.08-.13.17-.19.25ZM492.81,887.69c-1.02.65-2.15,1.13-3.33,1.45,1.62-.7,3.1-1.8,4.16-3.2,2.2-2.91,2.72-6.8,2.61-10.35-.12-3.94-.77-7.98-1.7-11.8-.23-.93-.49-1.86-.79-2.78,2.56-.16,5.12.7,6.7,2.89,1.74,2.42,1.88,5.66,1.46,8.5-.86,5.79-4.06,12.1-9.09,15.3Z"/>
  <path class="cls-9" d="M404.2,192.94c-4.6-.55-9.23-1.01-13.85-1.41-1.35,4.78-2.69,9.55-4.04,14.33-.26.9-1.66.52-1.4-.38.05-.2.11-.4.16-.59-.15-.06-.3-.18-.37-.38-1.72-4.56-3.38-9.15-5-13.75-4.68-.28-9.36-.5-14.06-.64-.78-.03-1.08-1.06-.4-1.48,3.8-2.27,7.52-4.69,11.16-7.22-1.35-3.82-2.68-7.64-4.04-11.45-.2-.55.53-1.13,1.01-.78,3.33,2.38,6.65,4.77,9.97,7.15,4.48-3.41,8.81-7.02,12.95-10.84.52-.47,1.41,0,1.21.7-1.59,5.63-3.18,11.26-4.77,16.89,3.95,2.84,7.89,5.67,11.84,8.5.51.37.42,1.45-.37,1.36Z"/>
  <path class="cls-9" d="M454.46,135.61c-4.63-.47-9.22-1.07-13.87-1.31-1.63-.08-3.26-.13-4.89-.15-2.31,7.57-4.84,15.08-7.55,22.52.14.5-.05.76-.31.86-.33.9-1.69.53-1.37-.32.11-.28.21-.57.31-.86-1.98-7.24-3.93-14.49-5.87-21.75-7.27.59-14.49,1.7-21.61,3.32-.93.21-1.29-.92-.61-1.45,3.57-2.69,7.1-5.45,10.58-8.26,2.74-2.21,5.45-4.45,8.13-6.71-1.61-6.02-3.22-12.05-4.86-18.06-.18-.66.66-1.16,1.15-.67,2.78,2.82,5.9,5.23,9.2,7.41,1.44.95,2.9,1.87,4.39,2.77,5.67-5.08,11.21-10.29,16.57-15.69.49-.5,1.25.02,1.12.65-.92,4.5-1.92,8.99-3,13.46-.74,3.01-1.51,6.01-2.32,9,5.94,3.81,11.46,8.14,15.44,14.13.29.44-.09,1.16-.64,1.11Z"/>
  <path class="cls-9" d="M514.9,120.91c-4.51-.81-9.02-1.63-13.53-2.44-2.59,3.8-5.03,7.72-7.29,11.74-.02.23-.03.45-.05.68-.06.96-1.55.97-1.49,0,.02-.22.03-.44.04-.65-.03-.12-.02-.25.02-.37.24-4.29.37-8.6.4-12.9-4.2-.76-8.41-1.52-12.61-2.27-.87-.16-.66-1.31,0-1.57,4.16-1.63,8.33-3.24,12.49-4.85-.15-4.74-.44-9.48-.88-14.2-.06-.68.94-1.07,1.36-.56,3.12,3.65,6.25,7.3,9.37,10.95,3.89-1.5,7.76-3,11.65-4.51.72-.28,1.16.73.71,1.22-2.64,2.87-5.14,5.84-7.54,8.9,2.71,3.17,5.42,6.34,8.13,9.51.54.63.02,1.49-.78,1.35Z"/>
  <path class="cls-4" d="M678.26,805.38c-1.03-6.33-4.89-11.91-11.24-13.83-.42-1.87-.99-3.71-1.74-5.5-3.21-7.67-9.83-13.8-17.59-16.72-5.77-2.17-11.91-2.24-17.5-.22-1.04-.32-2.1-.61-3.16-.86-.2-.94-.43-1.87-.7-2.8-2.65-8.83-8.93-16.1-18-18.54-8.91-2.41-18.56-.33-26.9,3.15-3.35,1.4-6.61,3.07-9.76,4.93-4.81,1.4-9.06,4.44-12.14,8.5-1.02.82-2.02,1.66-3,2.51-4.41,3.82-8.53,8.01-12.28,12.52-.1-.71-.23-1.42-.4-2.13-.62-2.51-1.8-5.14-4.07-6.57-2.54-1.61-5.75-1.11-8.09.63-2.83,2.11-4.6,5.39-6.13,8.5-1.62,3.29-2.92,6.74-3.89,10.29-3.9,14.29-2.44,30.03,4.23,43.27.85,1.69,1.79,3.34,2.81,4.93.43.66.64,1.24,1.47,1.29,1.03.07,2.11-.04,3.14-.07,1.83-.07,3.66-.19,5.49-.35,1.39,5.71,4.58,10.75,9.31,14.41,5.21,4.03,11.82,6.24,18.41,6.26,4.93.01,9.78-1.3,14.14-3.54,4.48,2.91,9.36,5.2,14.45,6.83,17.08,5.46,36.32,3.83,52.33-4.18,15.53-7.78,29.28-22.26,31.69-40.03.55-4.06.37-8.58-.88-12.67ZM677,810.82c-.38,4.97-2.28,9.97-5.57,13.74-4.14,4.74-9.72,7.96-15.53,10.23-1.23.48-2.48.92-3.74,1.33.09-.27.06-.59-.16-.81-.32-.32-.64-.65-.96-.97,2.8-1.98,5.19-4.56,7.25-7.28,2.91-3.86,5.23-8.15,6.89-12.69,2.19-5.98,3.16-12.5,2.48-18.83,4.98,1.72,7.95,6.3,9.31,11.4.11,1.3.12,2.6.03,3.88ZM638.73,839.67c-1.02-.68-1.9-1.51-2.63-2.45,3.86,1.21,8,.76,11.65-.94,1.17.06,2.1.2,3.04.28-3.96,1.23-8.01,2.19-12.06,3.11ZM629.92,821.41c.06-.19.14-.38.21-.57.18-.34.36-.69.54-1.03.29,1.45.75,2.84,1.36,4.15-.06.31-.14.61-.19.92-.46,2.85-.29,5.86.6,8.64-.84-.72-1.56-1.56-2.11-2.54-1.65-2.97-1.43-6.43-.4-9.56ZM542.47,799.08c.29,3.01.99,6,2.2,8.73-.66,1.3-1.27,2.61-1.85,3.9-3.22,7.14-5.48,15.11-4.63,23.01-4.92-4.34-7.58-10.42-8.3-16.62-1.54-13.11,5.24-25.44,13.04-35.53-.04,1.82-.22,3.64-.36,5.46-.28,3.67-.46,7.37-.1,11.04ZM554.42,790.24c-.03-3.37,2.07-6.33,4.41-8.57.58-.55,1.18-1.08,1.82-1.58,2.14-.04,4.51.88,5.94,2.13.51.44.92.93,1.28,1.45-1.3,1.5-2.48,3.09-3.52,4.75-.64.67-1.22,1.41-1.72,2.18-2.17.46-4.26,1.34-6.1,2.54-.4.26-.8.54-1.18.82-.6-1.16-.91-2.49-.92-3.72ZM559.99,765.07c4.1-3.34,8.45-6.36,13.01-9.05,2.36-.52,4.78-.62,7.18-.31-1.57,2.74-2.48,5.88-2.56,8.9-.21,8.66,5.18,16.43,11.91,21.41,2.7,2,5.71,3.62,8.89,4.75-2.6,2.31-4.72,5.22-6.28,8.19-.2.38-.4.78-.58,1.17-.81-1-1.79-1.88-2.89-2.61-.04-1.19.01-2.37.17-3.55.09-.66-.79-.85-1.2-.5-.84.73-1.6,1.54-2.27,2.41-.43-.15-.87-.29-1.31-.39,1.67-4.81,1.52-10.23-.89-14.8-1.37-2.6-3.54-4.75-6.28-5.86-3.6-1.46-7.6-.95-11.11.51-1.93.81-4.01,1.98-5.92,3.43-1.49.2-2.86.82-3.84,1.98-.71-5.48.85-11.13,3.98-15.69ZM600.59,770.87c-2.54-8.12-9.77-14.26-17.99-16.14.51-.65,1.07-1.28,1.69-1.86,4.27-3.97,10.69-5.12,15.16-.79,4.15,4.02,5.25,10.38,5.76,15.88.03.35.05.69.08,1.04-1.6.52-3.17,1.14-4.69,1.87ZM590.88,759.97c4.12,2.95,7.25,7.21,8.55,12.13.13.49.67.65,1.08.44,1.58-.79,3.21-1.45,4.88-2,.31,5.52-.03,11.07-.98,16.51-1.66.63-3.21,1.53-4.63,2.61-9.64-3.09-18.45-11.01-20.35-21.06-.83-4.39-.06-8.94,2.29-12.63,3.24.65,6.38,2.01,9.16,4ZM630.3,770.69c3.03.99,5.95,2.32,8.66,4,2.91,1.8,5.53,4.01,7.83,6.53-6.37,2.78-13.04,5.63-19.89,7.58.92-5.59,1.4-11.26.75-16.84.33-.18.65-.38,1-.55.54-.27,1.09-.5,1.65-.72ZM626.36,780.68c-.18,2.87-.57,5.72-1.06,8.55-1.78.47-3.58.87-5.38,1.19-1.71-1.75-3.78-3.04-6.04-3.75.65-1.08,1.31-2.16,2.01-3.21,2.77-4.13,6.14-7.97,10.33-10.66.26,2.62.29,5.26.13,7.88ZM597.73,832.65c-2.18-1.64-4.01-3.78-5.36-6.21-.86-1.55-1.49-3.17-1.93-4.85.6-.74,1.18-1.49,1.74-2.24,1.22-1.65,2.36-3.37,3.44-5.12,1.37,1.08,2.88,1.98,4.49,2.64.07,5.39-.68,10.75-2.38,15.78ZM568.17,834.37c-.78-1.83-1.35-3.72-1.78-5.65,5.09-4.03,9.12-10.04,10.86-16.5,2.55-4.11,5-8.66,5.35-13.48.35-.62.67-1.26.95-1.92.33.08.65.17.98.28-3.9,6.02-4.12,14.34-.05,20.38.13.19.34.36.59.34,1.11-.1,2.16-.42,3.11-.88.1,1.47.31,2.93.64,4.36-5.26,6.39-11.8,12.27-19.29,15.81-.5-.89-.96-1.81-1.35-2.73ZM559.55,818.78c1.23,0,2.47-.18,3.69-.55.2.27.42.53.66.77-.06,3.02.15,6.02.72,8.96-.8.61-1.64,1.18-2.51,1.72-1.25-3.51-2.11-7.18-2.57-10.89ZM560.4,801.85c.31,2.45,1,4.9,1.82,7.27-.61,2.38-.75,5.34.23,7.7-.99.28-2.01.42-3.06.42-.48-5.16-.17-10.38,1.01-15.39ZM565.39,779.74c-.93-.45-1.96-.77-3-.92,1.71-1.15,3.57-2.09,5.51-2.69,3.12-.97,6.6-1.02,9.52.6,2.23,1.24,3.86,3.28,4.88,5.59,1.81,4.1,1.76,8.75.26,12.9-.76-4.24-3.23-8.4-7.35-9.94-1-.38-2-.54-2.98-.55-.4-.98-.82-1.95-1.26-2.92-.21-.47-.9-.49-1.23-.16-.32.31-.62.64-.92.96-.82-1.16-1.94-2.15-3.43-2.87ZM573.71,814.89c-1.33,1.87-3.2,3.99-5.65,4.14-1.08.06-1.93-.22-2.61-.72,0-.32,0-.64.02-.97,3.6-1.8,6.44-4.99,8.16-8.63.97-.77,1.92-1.58,2.83-2.42-.08,1.97-.4,3.92-.92,5.82-.59.95-1.19,1.88-1.84,2.78ZM563.28,811.98c.28.73.57,1.45.86,2.16,0,.8-.05,1.45-.1,2.1-.65-1.28-.83-2.88-.76-4.26ZM565.7,789.14c1.01-1,2.18-1.8,3.48-2.31.24,1.19.29,2.46.2,3.75-.91-.21-1.85-.33-2.78-.36-.53-.02-1.06,0-1.59.04.22-.38.45-.75.68-1.12ZM571.2,786.32c.72,1.83,1.36,3.73,1.85,5.67-.47-.27-.96-.5-1.43-.7-.29-.12-.59-.23-.9-.33.09-1.53.02-3.06-.29-4.51.4-.09.58-.11.76-.13ZM581.05,798.41c-.88,1.5-1.91,2.88-3.05,4.17-.23-1.9-.72-3.78-1.48-5.59,1.47-.41,2.99-.61,4.53-.53.05.65.04,1.31,0,1.96ZM570.56,792.62c.39.15.77.31,1.14.51.9.47,1.4.92,1.93,1.77.13.56.19,1.03.25,1.5-.43.18-.86.37-1.28.59-1.24.64-2.47,1.45-3.63,2.38.43-1.47.85-2.94,1.18-4.44.17-.76.3-1.54.41-2.33ZM565.65,814.77c.01-.16.04-.31.05-.46,1.54-1.01,3.09-2.04,4.62-3.12-1.3,1.72-2.91,3.2-4.72,4.27.02-.23.03-.46.05-.69ZM565.94,812.32c.36-2.63.9-5.24,1.56-7.81.2-.79.43-1.58.66-2.36.45-.45.91-.89,1.38-1.3,1.34-1.17,2.86-2.18,4.48-2.93.21,3.29-.2,6.56-1.56,9.65-2.18,1.85-4.36,3.33-6.52,4.75ZM564.62,811.25c-.28-.72-.56-1.45-.82-2.19.47-1.52,1.21-2.94,2.13-4.26-.52,2.12-.97,4.27-1.31,6.44ZM575.6,799.29c.33,1.09.58,2.2.72,3.32.07.53.11,1.07.13,1.6-.56.55-1.13,1.1-1.72,1.62.63-2.13.89-4.33.87-6.55ZM575.94,795.69c-.2-.41-.42-.81-.65-1.21-.06-.1-.12-.21-.18-.31-.47-2.6-1.23-5.16-2.13-7.57,3.57.11,6.41,3.31,7.52,6.85.17.54.3,1.09.39,1.64-1.66-.05-3.33.16-4.95.61ZM564.28,793.96c-.3.83-.91,1.55-1.67,2.08.56-.69,1.11-1.39,1.67-2.08ZM561.79,798.08c2.58-.92,4.61-3.41,4.05-6.23,1.14-.03,2.27.09,3.37.35-.4,2.71-1.24,5.4-1.9,7.6-.15.49-.29,1-.43,1.5-1.59,1.63-2.93,3.49-3.82,5.49-.87-2.85-1.44-5.78-1.25-8.7ZM578.16,804.63c.8-.84,1.56-1.72,2.27-2.63-.55,1.99-1.4,3.92-2.37,5.74.1-1.03.13-2.07.1-3.1ZM570.05,783.59c.19.42.37.85.55,1.28-.2.04-.39.07-.59.12-.11-.32-.24-.64-.39-.95.14-.15.28-.3.43-.45ZM565.42,820.07c2.98,1.48,5.87-.29,8.08-2.63-1.83,3.63-4.39,6.8-7.49,9.42-.38-2.24-.56-4.51-.58-6.79ZM609.55,791.23c-.29,0-.58-.02-.88-.03-.98-1-1.95-1.99-2.93-2.99,1.87-.59,3.83-.79,5.73-.56-.66,1.18-1.3,2.38-1.92,3.58ZM613.13,787.96c1.6.43,3.14,1.18,4.53,2.33.16.13.32.28.47.42-2.26.33-4.53.52-6.81.54.58-1.11,1.19-2.2,1.81-3.29ZM617.59,811.56c-.82.67-1.8,1.24-2.84,1.62-1.1-6.03-3.24-11.96-5.66-17.63.19-.39.39-.78.59-1.17,3.87,3.93,7.74,7.86,11.61,11.78-.83,2.05-1.98,3.98-3.7,5.39ZM608.22,797.42c2.18,5.21,4.07,10.65,5.06,16.17-1.32.24-2.68.15-3.91-.43-5.31-2.5-3.54-9.74-1.88-13.99.23-.59.48-1.16.74-1.74ZM608.29,793.71c-.16-.36-.32-.72-.48-1.08.34.2.53.4.72.59-.08.16-.16.32-.24.48ZM603.68,790.63c-.68-.12-1.36-.27-2.04-.44.11-.07.22-.15.33-.22.67-.43,1.38-.8,2.1-1.12-.12.6-.25,1.19-.39,1.79ZM601.56,791.72c.59.14,1.18.26,1.77.37-.93,3.77-2.15,7.47-3.65,11.05-.3-1.12-.63-2.24-.99-3.35-.29-.88-1.68-.5-1.39.38.55,1.69,1.03,3.42,1.42,5.16-1.06,2.32-2.25,4.59-3.54,6.79-.57-.53-1.1-1.1-1.6-1.7.17-.53.3-1.06.39-1.61.43-2.62-.15-5.12-1.42-7.25,1.72-3.92,4.22-7.57,7.54-10.25.49.14.98.28,1.47.4ZM592.76,806.36c.06.9-.02,1.82-.22,2.72-.62-.89-1.18-1.82-1.66-2.8.09-.31.17-.61.26-.92.23-.74.48-1.48.76-2.22.47.99.78,2.06.85,3.21ZM592.07,810.66c-.54,1.38-1.37,2.66-2.43,3.66.06-2.05.32-4.11.76-6.11.5.86,1.06,1.68,1.66,2.45ZM589.95,804.08c-.56-1.53-.95-3.12-1.15-4.73.8.63,1.52,1.36,2.12,2.16-.36.84-.68,1.69-.98,2.56ZM587.25,796.71c-.17-.09-.34-.18-.52-.26.17-.21.35-.42.54-.63-.01.3-.02.6-.02.89ZM587.31,798.35c.2,2.7.9,5.34,2.01,7.77-.83,3.04-1.27,6.21-1.22,9.34-.82.47-1.72.8-2.7.94-3.58-5.7-3.25-13.3.46-18.79.49.22.98.46,1.45.73ZM589.64,816.04c1.46-1.07,2.62-2.55,3.4-4.23.46.51.95,1.01,1.46,1.47-1.37,2.23-2.86,4.4-4.46,6.47-.22-1.22-.35-2.46-.39-3.71ZM596.92,813.57c-.21-.15-.4-.31-.6-.47,1.04-1.75,2-3.55,2.9-5.38.46,2.53.75,5.08.86,7.64-1.1-.48-2.16-1.07-3.15-1.79ZM601.38,811.74c-.26-2.13-.64-4.22-1.12-6.3,1.89-4.23,3.41-8.62,4.51-13.12.43.06.85.12,1.28.16.45,1,.91,2.01,1.35,3.03-1.51,3.17-2.81,6.46-3.1,10-.3,3.67.95,7.54,4.55,9.1,1.49.65,3.1.76,4.67.49-.26.44-.58.57-.91.67-3.58,1.22-7.4,1.29-10.9.2-.06-1.42-.17-2.83-.34-4.24ZM622.32,803.15c-.14.49-.29.99-.46,1.48-1.95-1.99-3.9-3.97-5.85-5.96-1.87-1.9-3.73-3.81-5.6-5.71,2.46-.25,4.79-.41,7.08-.71.63-.08,1.26-.18,1.88-.28,1.97,2.26,3.3,5.14,3.72,8.13-.24,1.02-.5,2.04-.78,3.05ZM621.65,792.5c-.2-.28-.4-.56-.61-.82,1.33-.26,2.66-.55,3.98-.88-.11.57-.21,1.13-.32,1.69-.29,1.45-.58,2.91-.88,4.36-.51-1.54-1.24-3.02-2.17-4.35ZM623.96,772.42c-4.94,3.62-8.61,8.56-11.7,13.84-1.8-.33-3.7-.32-5.62.11-.23.05-.45.12-.67.18.89-5.43,1.17-10.95.84-16.43,6.13-1.74,12.67-1.91,18.93-.63.1.53.2,1.06.27,1.59-.7.41-1.39.85-2.05,1.34ZM560.06,793.09c.48-.2.98-.38,1.48-.53-.62,1.42-.95,2.66-1.14,3.92-.14.17-.27.34-.41.51-.37.02-.73,0-1.08-.07-1.08-.22-1.98-.82-2.67-1.61,1.18-.88,2.45-1.65,3.82-2.21ZM558.88,798.39l-1.02,1.27c-.58.73.44,1.76,1.03,1.03.11-.14.22-.27.33-.41-1.44,5.45-1.89,11.19-1.41,16.85-.64-.09-1.29-.21-1.94-.42-4.44-1.41-7.51-4.81-9.44-8.86,1.19-2.19,2.5-4.29,3.91-6.28,1.38-1.95,2.98-3.81,4.81-5.38.98,1.13,2.26,1.96,3.74,2.19ZM549.66,814.81c2.37,2.13,5.27,3.51,8.3,3.87.34,2.99.94,5.94,1.78,8.81.3,1.01.63,2.01.98,3-6.19,3.46-13.16,5.18-20.18,5.99-.15-.1-.3-.19-.45-.29-.57-3.3-.56-6.74-.04-10.12.87-5.65,2.82-11.29,5.47-16.51,1.07,1.94,2.43,3.73,4.14,5.26ZM544.83,837.52c5.72-.96,11.41-2.67,16.51-5.48.96,2.4,2.07,4.73,3.38,6.95-2.93.93-5.98,1.48-9.13,1.54-4.35.08-8.79-.79-12.71-2.72.65-.09,1.3-.18,1.95-.29ZM562.7,831.24c.79-.48,1.56-.99,2.32-1.52.66,2.69,1.62,5.32,2.99,7.83-.51.45-1.14.69-1.77.92-1.37-2.29-2.56-4.72-3.54-7.23ZM568.83,838.95c3.52,5.7,9.07,10.37,15.42,12.3-1.14.83-2.34,1.59-3.58,2.27-5.38-3.63-10.07-8.22-13.66-13.81.61-.24,1.21-.49,1.81-.76ZM570.23,838.3c7.28-3.55,13.86-9.19,19.03-15.29,1.39,4.43,4.16,8.46,7.92,11.16-2.1,5.49-5.37,10.53-9.97,14.7-.47.43-.97.84-1.46,1.24-6.37-1.57-11.97-6.18-15.51-11.81ZM598.27,836.15c.14-.33.27-.67.41-1.01.81.48,1.66.9,2.55,1.25,2.92,1.14,5.98,1.35,8.96.87-3.41,6.44-9.01,11.73-16.29,13.1-2.05.39-4.07.42-6.04.15,4.5-3.92,8.08-8.86,10.41-14.36ZM607.43,835.96c-2.98.03-5.77-.84-8.21-2.31,1.82-5.19,2.61-10.69,2.54-16.19,2.3.69,4.79.93,7.42.59,1.55-.2,3.09-.59,4.57-1.16.41,3.72.36,7.47-.35,11.2-.48,2.51-1.28,5.04-2.38,7.45-1.17.26-2.38.4-3.6.41ZM614.39,830.7c1.26-4.79,1.41-9.63.83-14.44,3.36-1.6,6.25-4.16,7.94-7.51.08-.15.14-.31.21-.47,2.33,2.36,4.64,4.73,6.97,7.1-.02.4-.04.8-.03,1.2-.67,1.31-1.27,2.63-1.75,3.98-1.24,2.28-2.65,4.46-4.32,6.46-2.95,3.54-6.9,6.55-11.34,8,.59-1.42,1.09-2.87,1.47-4.32ZM653.31,830.46c-1.04,1.01-2.17,1.94-3.37,2.75-2.22-2.26-4.45-4.52-6.67-6.78.82.31,1.67.55,2.55.7,8.46,1.38,15.63-6.34,16.04-14.41.34-6.7-4.39-11.73-10.29-13.56,3.73-2.66,8.17-4.67,12.81-4.3.59.05,1.16.13,1.72.25,1.57,12.64-3.69,26.52-12.79,35.36ZM647.74,834.52c-5.93-1.41-11.39-5.25-14.1-10.69.3-1.31.72-2.58,1.24-3.83,1.92,1.96,3.85,3.91,5.77,5.87,2.66,2.72,5.32,5.44,7.98,8.16-.29.17-.59.33-.89.49ZM632.28,820.08c-.21-.92-.34-1.86-.39-2.81.67.36,1.24.94,1.81,1.52-.39.88-.73,1.77-1.03,2.68-.15-.46-.28-.92-.39-1.4ZM660.13,809.65c1.49,7.04-3.85,15.39-11.21,16.12-5.61.56-10.65-3.3-12.85-8.3.96-1.83,2.08-3.59,3.23-5.26,3.04-4.4,6.51-8.54,10.71-11.89,4.79,1.05,9.05,4.27,10.12,9.32ZM634.36,817.37c-.57-.58-1.14-1.16-1.71-1.74.29-.49.59-.97.9-1.44.16,1.06.44,2.11.83,3.13,0,.02-.02.04-.03.06ZM660.59,793.47c-4.06.65-7.77,2.72-11.01,5.21-1-.18-2.01-.27-3.03-.26,3.17-2.67,6.78-4.76,10.92-5.7,2.73-.61,5.58-.64,8.24,0,.05.26.09.53.14.79-1.72-.3-3.49-.33-5.25-.04ZM647.95,800c-3.68,3.12-6.77,6.83-9.55,10.76-1.07,1.51-2.1,3.08-3.03,4.71-.29-1.08-.45-2.2-.46-3.31,1.96-2.82,3.99-5.61,6.2-8.24,1.13-1.34,2.32-2.64,3.59-3.86,1.07-.13,2.16-.16,3.24-.07ZM640.65,802.12c-1.82,2.07-3.55,4.27-5.19,6.53.04-.12.07-.23.11-.35.33-.92-1.11-1.29-1.45-.4-.63,1.63-1.26,3.26-1.92,4.89,1.03-5.38,4.43-10.28,9.76-12.08-.44.46-.88.93-1.29,1.41ZM633.16,827.47c.01-.42.04-.84.08-1.25,2.77,4.36,7.23,7.63,12.25,9.27-2.75.97-5.71,1.22-8.71.35-.71-.2-1.39-.47-2.05-.8-1.14-2.31-1.64-4.98-1.57-7.56ZM672.74,796.7c-.15-.13-.29-.26-.45-.38-1.46-1.13-3.11-1.92-4.83-2.43-.03-.23-.07-.45-.1-.68,2.01.72,3.86,1.87,5.39,3.49ZM644.78,770.02c5.4,1.47,10.31,4.62,14.05,8.77,3.19,3.53,5.34,7.79,6.5,12.35-7.95-1.56-15.45,2.21-21.26,7.49-7.41,1.21-12.52,7.58-13.56,14.83-2.18-2.22-4.36-4.45-6.55-6.67.68-2.09.86-4.29.62-6.46.16-.75.32-1.49.48-2.23.55-2.54,1.09-5.12,1.56-7.72,7.49-2.05,14.7-5.15,21.8-8.25.47-.21.43-.85.15-1.17-4.31-5-9.88-8.71-16-11.02,3.97-1.07,8.18-1,12.21.09ZM609.81,748.94c5.93,2.1,10.51,6.59,13.25,12.2,1.06,2.17,1.83,4.45,2.37,6.78-4.8-.91-9.75-1.02-14.58-.25-1.39.22-2.77.53-4.12.9-.1-1.19-.23-2.38-.39-3.56-.95-7.04-4.27-16.2-12.24-17.18,5.28-.85,10.64-.69,15.7,1.11ZM585.08,750.22c-1.59,1.12-2.97,2.56-4.09,4.19-.27-.04-.54-.1-.82-.13-1.32-.16-2.62-.19-3.9-.11,2.78-1.48,5.74-2.84,8.81-3.95ZM556.98,767.62c-2.33,4.74-3.15,10.13-2.02,15.31.05.24.19.37.36.44-1.81,2.57-2.8,5.54-2.18,8.72.18.95.55,1.9,1.05,2.77-3.56,2.99-6.31,6.97-8.56,11.13-.87-2.31-1.4-4.76-1.62-7.11-.41-4.45-.04-8.93.33-13.37.13-1.61.19-3.23.11-4.83,3.8-4.7,7.99-9.06,12.53-13.05ZM530.44,837.09c-6.62-10.14-9.75-22.28-9.25-34.36.25-6.07,1.42-12.1,3.52-17.81,1.07-2.93,2.4-5.77,3.97-8.47,1.42-2.43,3.43-5.22,6.33-5.92,5.38-1.3,7.43,5.04,7.83,9.14.02.17.03.35.04.52-2.23,2.79-4.31,5.7-6.22,8.71-5.34,8.45-9.33,18.34-8.35,28.5.72,7.55,4.09,14.72,10,19.29-.67.06-1.34.11-2.01.16-1.95.13-3.9.19-5.85.22ZM566.37,857.3c-7.33-.05-14.73-2.98-19.89-8.24-3.03-3.09-4.96-6.84-5.97-10.85.67.41,1.36.79,2.09,1.13,7.72,3.63,15.58,3.43,22.91.92,1.95,3.09,4.23,5.98,6.86,8.56,2.08,2.03,4.33,3.86,6.7,5.53-3.96,1.9-8.29,2.99-12.72,2.96ZM615.53,863.82c-11.55-.07-23.42-3.13-33.25-9.27,1.12-.65,2.21-1.37,3.25-2.14.27-.2.53-.43.8-.63,2.58.52,5.27.58,7.99.07,8.09-1.53,14.27-7.72,17.8-15,3.11-.81,6.08-2.33,8.62-4.28,2.74-2.1,4.98-4.66,6.87-7.48-.07,1.04-.04,2.09.14,3.14.59,3.49,2.82,6.25,5.8,7.91.15.28.29.57.46.84.94,1.51,2.47,3.51,4.18,4.21.83.34,2.18-.28,3.03-.48,1.16-.27,2.32-.55,3.48-.84,9.06-2.27,18.38-5.36,25.41-11.79,3.86-3.53,6.55-8.11,7.76-13.11-.37,9.4-4.85,18.58-10.76,25.72-12.5,15.11-32.12,23.25-51.55,23.13Z"/>
</svg>