<?xml version="1.0" encoding="UTF-8"?>
<svg xmlns="http://www.w3.org/2000/svg" xmlns:xlink="http://www.w3.org/1999/xlink" viewBox="0 0 1000 1000">
  <defs>
    <style>
      .cls-1 {
        fill: #cacaca;
      }

      .cls-2 {
        fill: #9c649b;
      }

      .cls-3 {
        fill: #2c3030;
      }

      .cls-4 {
        fill: #e3f5fd;
      }

      .cls-5 {
        fill: #2a2a4f;
      }

      .cls-6 {
        fill: #637dca;
      }

      .cls-7 {
        fill: #151f51;
      }

      .cls-8 {
        fill: #fbfbfb;
      }

      .cls-9 {
        mix-blend-mode: color-burn;
      }

      .cls-9, .cls-10 {
        fill: #ffc7c7;
      }

      .cls-11 {
        isolation: isolate;
      }

      .cls-12 {
        fill: #162d44;
      }

      .cls-13 {
        fill: #00bbd5;
      }

      .cls-14 {
        fill: #212121;
      }

      .cls-15 {
        fill: #00dbfb;
      }

      .cls-16 {
        fill: #daf1ff;
      }

      .cls-17 {
        fill: #c6e2eb;
      }

      .cls-18 {
        fill: #c069a9;
      }

      .cls-19 {
        fill: #102235;
      }

      .cls-20 {
        fill: url(#_Áåçûìÿííûé_ãðàäèåíò_121);
      }

      .cls-21 {
        fill: url(#_Áåçûìÿííûé_ãðàäèåíò_121-2);
      }

      .cls-22 {
        fill: #44c2d9;
      }

      .cls-23 {
        fill: #fa9265;
      }

      .cls-24 {
        fill: #ebf7fd;
      }

      .cls-25 {
        fill: #3f59a6;
      }
    </style>
    <linearGradient id="_Áåçûìÿííûé_ãðàäèåíò_121" data-name="Áåçûìÿííûé ãðàäèåíò 121" x1="151.24" y1="427.79" x2="54.59" y2="431.86" gradientUnits="userSpaceOnUse">
      <stop offset="0" stop-color="#84cdff"/>
      <stop offset="1" stop-color="#56c2ff"/>
    </linearGradient>
    <linearGradient id="_Áåçûìÿííûé_ãðàäèåíò_121-2" data-name="Áåçûìÿííûé ãðàäèåíò 121" x1="-869.4" y1="427.79" x2="-966.05" y2="431.86" gradientTransform="translate(-564.05) rotate(-180) scale(1 -1)" xlink:href="#_Áåçûìÿííûé_ãðàäèåíò_121"/>
  </defs>
  <g class="cls-11">
    <g id="_Ñëîé_2" data-name="Ñëîé 2">
      <g>
        <g>
          <path class="cls-12" d="M861.78,555.26c2.87-.76,36.72-4.77,48.17,4.4,11.45,9.17,32.08,49.04,32.08,52.04s-20.06,38.53-20.06,38.53c0,0-11.85,2.87-16.43,0,0,0-14.9,17.01-44.71,19.3-29.81,2.29-51.97-25.91-51.97-25.91,0,0-3.18,6.47-8.09,4.72-4.91-1.74-7.51-40.92,2.68-63.65,10.18-22.73,55.47-28.66,58.33-29.42Z"/>
          <path class="cls-12" d="M488.05,555.26c2.87-.76,36.72-4.77,48.17,4.4,11.45,9.17,32.08,49.04,32.08,52.04s-20.06,38.53-20.06,38.53c0,0-11.85,2.87-16.43,0,0,0-14.9,17.01-44.71,19.3-29.81,2.29-51.97-25.91-51.97-25.91,0,0-3.18,6.47-8.09,4.72-4.91-1.74-7.51-40.92,2.68-63.65,10.18-22.73,55.47-28.66,58.33-29.42Z"/>
          <path class="cls-15" d="M345.94,655.81c-.52-.02-.99-.05-1.42-.06.44.02.91.03,1.42.06Z"/>
          <path class="cls-25" d="M344.49,652.04l1.55-1.66c2.96-2.55,5.5-5.23,5.5-5.23,0,0-.34-.1-.7-.83-.41-.85-.84-2.56-.73-5.95.18-6.31-1.34-12.21-.57-12.79.07-.06.16-.1.25-.15.91-.42,2.65-.52,1.27-3.11-.63-1.18-1.17-1.75-1.57-2.32-.58-.8-.92-1.6-.92-4.18,0-.3,0-.63.01-.97.08-4.72.92-13.53,8.21-18.51,7.83-5.35,3.63-4.59,8.79-7.65,5.16-3.05,19.29-5.53,38.21-19.72,18.92-14.19,23.79-14.48,39.84-17.06,16.05-2.58,61.62-8.31,83.11-8.6,21.49-.29,16.34-3.26,22.35-3.49,6.02-.24,4.87-.53,7.45-2.53,2.58-2.01,11.75.57,11.75.57,0,0,74.71-42.61,85.79-47.58,11.09-4.96,28.28-9.17,70.7-6.88,42.42,2.29,103.55,20.26,129.16,28.28,25.6,8.02,51.2,19.87,56.17,19.1.45-.07.92-.18,1.41-.33,4.91-1.52,11.7-6.9,18.74-9.5,4.43-1.64,6.64-2.06,8.94-2.28h.01c1.71-.17,3.47-.22,6.24-.58,0,0,4.01,2.87,8.02-2.58,4.01-5.45,17.48-6.02,28.09-6.02s12.04,2.58,8.88,6.59c-2.71,3.44-5.62,6.67-10.2,8.06h-.01s-.02,0-.05.01c-.73.24-1.51.4-2.35.53-6.02.86-9.17,8.88-5.45,10.32,1.67.64,3.18.07,4.38-.47,1.47-.65,2.48-1.26,2.79.47.46,2.53-1.11,4.51-.55,5.63.13.28.39.5.84.68,2.29.86,4.59,2.87,4.01,3.73-.57.86-4.59,6.31-10.32,7.16-2.48.37-3.19,1.55-2.67,3.05.69,1.99,3.51,4.57,7.26,6.69,6.59,3.73,21.78,20.35,21.78,26.08,0,1.11-.02,2.92-.06,5.14-.17,9.17-.69,25.13-1.38,25.82-.86.86-4.59.86-3.73,3.15.86,2.29,5.16.86,5.16,5.45,0,2.99-.13,6.72-1.24,9.34-.61,1.4-1.48,2.49-2.77,2.98-3.73,1.43-72.22,11.46-73.94,10.32-.32-.22-.42-1.23-.44-2.87v-.03c-.01-4.42.65-13.39-.58-23.76-.02-.18-.05-.37-.07-.56-.05-.3-.08-.61-.13-.92-.25-1.81-.55-3.67-.93-5.54-.81-4.01-1.97-8.13-3.59-12.17-3.4-8.54-8.8-16.7-16.16-23.28-.01,0-.01-.01-.02-.01-8.87-7.97-20.59-13.61-35.08-14.81-3.74-.32-7.67-.33-11.79-.01-.53.03-1.04.08-1.55.14-.5.06-1.01.13-1.51.18-14.44,1.96-25.06,9.48-32.43,18.11-.05.05-.08.09-.13.14-2.81,3.3-5.14,6.75-7.04,10.11-.05.09-.1.18-.15.26-3.69,6.61-5.71,12.86-6.29,16.82-.31,2.11-.52,4.6-.64,7.27-.03.7-.06,1.4-.08,2.12-.09,2.99-.11,6.14-.1,9.18.02,8.88.25,16.88-.52,17.54-.06.05-.58.1-1.55.16h-.05c-.31.02-.65.05-1.04.06-9.01.46-40.1,1.13-77.47,1.8-.3.01-.61.01-.91.01-1.75.03-3.51.07-5.26.09-24.75.42-51.79.84-76.76,1.18-1.78.03-3.54.05-5.32.07-1.62.03-3.23.05-4.85.06-36.44.46-66.88.72-76.56.55-.68-.01-1.26-.02-1.73-.03,0,0-.01,0-.02-.01-.89-.02-1.39-.07-1.46-.11-.39-.29-.48-1.57-.45-3.62h0c.08-6.04,1.2-18.77-1.08-32.87-.08-.47-.16-.95-.25-1.43,0-.02-.01-.05-.01-.08-1.34-7.14-3.99-14.46-8.24-21.07-5.65-8.79-14.15-16.34-26.17-20.58-.05-.02-.1-.03-.15-.05-2.33-.84-4.79-1.52-7.39-2.08-12.31-2.61-23.98-1.97-34.14,1.04-6.28,1.86-11.99,4.62-16.91,8.07-2.19,1.54-4.23,3.22-6.09,5.01-1.98,1.91-3.77,3.97-5.34,6.12-6.28,8.64-9.46,15.85-11.02,22.03-.48,1.89-.8,3.68-1.02,5.39-.4,3.08-.45,5.89-.39,8.51.07,3.02.18,7.05.38,11.18,0,.08.01.17.01.25.16,3.16.36,6.36.64,9.18.01.11.02.22.03.33.01.16.02.33.05.49.02.17.03.25.03.25,0,.03.01.07.01.1.36,3.27.83,5.9,1.43,7.19-.37.52-.96.86-1.66.88-11.58.46-23.18.71-34.78.75h-1.36c-7.03-.09-14.32-.22-21.21-.39-1.04-.02-2.07-.05-3.1-.07-1.88-.03-3.71-.08-5.5-.13-.31-.01-.61-.02-.92-.02-.81-.02-1.6-.05-2.4-.07-2.35-.06-4.57-.11-6.65-.17-.72-.02-1.42-.05-2.1-.06-1.7-.05-3.26-.09-4.67-.14-.1,0-.2-.01-.3-.01-1.03-.05-2.05-.09-3.08-.15-1.67-.08-2.57-1.89-1.81-3.24.08-.16.18-.32.32-.46Z"/>
          <path class="cls-19" d="M916.23,542.46c17.2.86,30.38,6.59,45.86,4.01,9.11-1.52,14.25-4.04,16.93-5.84.13.28.39.5.84.68,2.29.86,4.59,2.87,4.01,3.73-.57.86-4.59,6.31-10.32,7.16-2.48.37-3.19,1.55-2.67,3.05-9.6.13-26.48-1.74-33.44-4.48-8.02-3.15-29.81-4.01-47.29-4.87-17.48-.86-39.55-1.15-42.7-3.11-3.15-1.96,51.59-1.19,68.78-.33Z"/>
          <path class="cls-19" d="M344.49,652.04l1.55-1.66,4.22-4.53c.39-.41.6-.96.58-1.52v-.09l-1.05-18.8-.3-5.42-.09-1.65c-.06-1.08.69-2.04,1.74-2.27l43.31-9.06c3.15-.66,6.29-1.32,9.45-1.98,7.15-1.5,14.41-3.03,21.24-5.55,3.49-1.27,6.86-2.81,10.04-4.72,4.94-2.96,9.31-6.74,13.7-10.49,2.01-1.71,4.01-3.4,6.09-5.01,1.16-.91,2.34-1.78,3.54-2.6,14.89-10.21,34.32-13.53,51.75-8.82,14.52,3.93,27.44,13.38,35.8,25.86,1.17,1.75,3.9,1.09,4.04-1.01.24-3.95,1.03-7.88,2.38-11.6.34-.96.72-1.91,1.15-2.85.22-.47.58-.86,1.04-1.09,9.17-4.54,19.87-4.76,30.14-4.87,39.31-.44,78.63-.88,117.95-1.32,4.49-.05,9.03-.09,13.44.79,2.89.57,5.7,1.56,8.58,2.18,22.4,4.88,55.86-12.67,65.71,17.61,2.38,7.34,2.96,15.17,5.4,22.49.88,2.63,3.22,5.56,5.56,5.78.93.08,1.67.72,1.91,1.57.07.21.09.42.09.65l-.19,8.53-.34,15.6c-.03,1.02-.76,1.88-1.72,2.1h-.05c-.13.03-.25.05-.38.05-.22.01-.45.01-.67.01-25.82.7-51.65,1.3-77.47,1.8-.3.01-.61.01-.91.01-1.75.03-3.51.07-5.26.09-25.59.5-51.18.89-76.76,1.18-1.78.03-3.54.05-5.32.07-1.62.03-3.23.05-4.85.06-25.52.29-51.04.47-76.56.55-.42.01-.84.01-1.26.01-.16,0-.31-.01-.47-.05,0,0-.01,0-.02-.01-1.02-.22-1.75-1.16-1.71-2.25.03-.66.07-1.34.09-2.01.52-11.33.69-22.86-1.62-33.78,0-.02-.01-.05-.01-.08-.86-4.05-2.06-8.01-3.71-11.85-5.82-13.49-17.3-24.19-30.85-29.84-5.95-2.5-12.3-4.01-18.74-4.38-7.74-.44-15.5.78-22.79,3.35-12.61,4.45-23.85,12.98-31.24,24.15-4.51,6.81-7.56,14.48-9.14,22.47-1.91,9.58-1.71,19.61.64,29.12.01.1.03.19.07.3h0c.07.3.14.58.22.87h-.16c.36,3.28.83,5.92,1.43,7.2-.37.52-.96.86-1.66.88-11.58.46-23.18.71-34.78.75h-1.36c-7.03-.09-14.32-.22-21.21-.39-1.04-.02-2.07-.05-3.1-.07-1.88-.03-3.71-.08-5.5-.13-.31-.01-.61-.02-.92-.02-.81-.02-1.6-.05-2.4-.07-2.35-.06-4.57-.11-6.65-.17-.72-.02-1.42-.05-2.1-.06-1.7-.05-3.26-.09-4.67-.14-.1,0-.2-.01-.3-.01-1.03-.05-2.05-.09-3.08-.15-1.67-.08-2.57-1.89-1.81-3.24.08-.16.18-.32.32-.46Z"/>
          <path class="cls-7" d="M895.6,572.46c22.16,10.32,25.99,30.18,41.65,22.31,15.67-7.88,21.4-1.67,46.72-.15,7.92.48,12.85-.24,15.9-1.46-.17,9.17-.69,25.13-1.38,25.82-.86.86-4.59.86-3.73,3.15.86,2.29,5.16.86,5.16,5.45s-.29,10.89-4.01,12.32c-3.73,1.43-72.22,11.46-73.94,10.32-1.72-1.15,2.87-24.36-5.73-45.86-7.53-18.84-24.75-35.91-51.27-38.11,7.77-1.31,17.62.15,30.63,6.2Z"/>
          <path class="cls-4" d="M847.32,520.62c21.08,7.69,9.11,12.47-15.92,14.76-25.03,2.29-63.34,3.06-64.2,2.48-.86-.57,8.31-34.68,8.31-34.68,1.57-5.92,50.73,9.74,71.81,17.43Z"/>
          <path class="cls-4" d="M690.96,495.18c32.39-2.59,69.45.65,71.27,3.33l-12.23,39.55s-.76,1.33-39.36,2.58c-38.6,1.25-111.68,4.77-107.38,0,4.3-4.77,55.31-42.87,87.7-45.46Z"/>
          <path class="cls-4" d="M657.72,494.23c-1.15,2.66-72.8,48.57-77.1,48.83-4.3.26-12.32-5.19-12.32-5.19,0,0,45.12-26.99,82.6-46.02,0,0,7.96-.28,6.82,2.38Z"/>
          <path class="cls-19" d="M622.13,526.34s-3.77,5.42-4.72,7.14c-.96,1.72,3.06,2.1,4.01,1.53.96-.57.57-4.01,2.29-6.5,1.72-2.48,10.06-9.71,16.43-9.87,6.37-.16,11.66,1.08,11.85,10.25.19,9.17-8.98,12.42-16.62,12.42s-19.87.76-22.3-1.91c-2.43-2.68,1.03-7.42,1.03-7.42l8.04-5.64Z"/>
          <path class="cls-12" d="M850.12,566.57c-14.44,1.96-25.06,9.48-32.43,18.11,9.08-10.86,20.41-16.55,32.43-18.11Z"/>
          <path class="cls-12" d="M549.62,647.31l251.11-3.68s-4.17-24.3,9.64-48.44c-3.69,6.61-.36,12.21-.95,16.17-.31,2.11-4.46,6.38-4.59,9.05-.55,12.09-1,26.77-2.1,27.71-1.34,1.15-251.44,4.96-252.98,3.82-1.52-1.15,1.54-17.57-1.52-36.49-1.24-7.61-3.96-15.5-8.51-22.58,16.57,23.87,9.89,54.44,9.89,54.44Z"/>
          <path class="cls-12" d="M513.39,572.22c.06.02.11.05.17.07-2.37-.85-4.88-1.56-7.54-2.12-26.94-5.73-49.88,5.39-61.53,21.44-6.28,8.64-10.41,14.66-11.97,20.84,3.55-21.75,34.11-59.61,80.87-40.23Z"/>
          <path class="cls-12" d="M431.5,637.77c.17,3.47.4,6.99.72,10.01-.13-.93-.55-4.37-.72-10.01Z"/>
          <path class="cls-12" d="M344.57,652.04l82.56-3.68h.01l3.53-.16h.01l1.58-.07c.36,3.27.83,5.9,1.43,7.19-.37.52-.96.86-1.66.88-11.58.46-23.18.71-34.78.75-7.5-.09-15.28-.23-22.57-.39-1.04-.02-2.07-.05-3.1-.07-1.88-.03-3.71-.08-5.5-.13-.31-.01-.61-.02-.92-.02-.81-.02-1.6-.05-2.4-.07-2.35-.06-4.57-.11-6.65-.17-.72-.02-1.42-.05-2.1-.06-1.7-.06-3.26-.1-4.67-.14-.1,0-.2-.01-.3-.01-1.03-.05-2.05-.09-3.08-.15-1.67-.08-2.57-1.89-1.81-3.24l.4-.46Z"/>
          <circle class="cls-4" cx="861.4" cy="619.08" r="35.35" transform="translate(112.33 1370.18) rotate(-80.78)"/>
          <circle class="cls-12" cx="861.4" cy="619.08" r="6.88"/>
          <circle class="cls-4" cx="485.98" cy="619.08" r="35.35"/>
          <circle class="cls-12" cx="485.98" cy="619.08" r="6.88"/>
        </g>
        <g>
          <path class="cls-18" d="M208.76,638.27c.1-.31.24-.63.39-.95,3.44-7.45,55.6-42.99,84.83-49.3,22.41-4.84,45.71-6.95,68.58-8,18.74-.86,33.86,2.87,49.46-.15,6.6-1.27,13.28-3.76,20.35-8.32,25.97-16.74,56.9-33.76,87.46-39.7,41.27-8.02,147.89-6.88,209.79,6.88,61.91,13.76,73.37,37.83,98.59,38.98,25.22,1.15,32.1,12.61,34.39,34.39.33,3.15.36,5.92.18,8.4-1.07,14.66-9.01,19.31-.18,34.01,10.32,17.2,8.02,32.1-30.95,37.83-33.7,4.95-51.12,5.63-52.24,2.01,3.54-7.18,5.53-15.25,5.53-23.79,0-29.76-24.12-53.88-53.88-53.88s-53.88,24.12-53.88,53.88c0,9.22,2.32,17.88,6.39,25.47-4.2.38-6.67.61-6.67.61,0,0-8.6,4.87-16.62,0-8.02-4.87-265.77,0-265.77,0,0,0-17.59,6.4-16.05-1.24.28-1.36-2.96-2.14-8.47-2.5,3.11-6.8,4.84-14.38,4.84-22.34,0-29.76-24.12-53.88-53.88-53.88s-53.88,24.12-53.88,53.88c0,10.23,2.84,19.78,7.78,27.91-3.27.36-5.26.6-5.55.68-2.24.64-11.98-3.37-11.98-3.37,0,0-40.7,5.73-42.99-4.01-2.29-9.74,1.72-7.45,0-25.79-1.64-17.54-8.01-20.93-5.55-27.71Z"/>
          <circle class="cls-12" cx="320.93" cy="669.41" r="53.88" transform="translate(-235.07 177.51) rotate(-22.89)"/>
          <circle class="cls-12" cx="730.19" cy="669.41" r="53.88" transform="translate(-187.22 295.71) rotate(-20.35)"/>
          <circle class="cls-4" cx="320.93" cy="669.22" r="35.35"/>
          <path class="cls-12" d="M320.93,662.34c3.8,0,6.88,3.08,6.88,6.88s-3.08,6.88-6.88,6.88-6.88-3.08-6.88-6.88,3.08-6.88,6.88-6.88Z"/>
          <circle class="cls-4" cx="730.19" cy="669.22" r="35.35" transform="translate(-201.6 333.37) rotate(-22.68)"/>
          <path class="cls-12" d="M730.19,662.34c3.8,0,6.88,3.08,6.88,6.88s-3.08,6.88-6.88,6.88-6.88-3.08-6.88-6.88,3.08-6.88,6.88-6.88Z"/>
          <path class="cls-4" d="M507.79,542.74c22.64-8.6,60.47-8.31,66.2-6.59,5.73,1.72-12.9,45.57-12.9,45.57-2.37,5.75-121.23,8.31-126.68,5.73-5.45-2.58,50.73-36.11,73.37-44.71Z"/>
          <path class="cls-4" d="M605.81,535.18s54.26,1.64,58.08,5.07c3.82,3.44,2.29,34.77-2.68,37.83-4.97,3.06-74.33,5.92-76.33,4.2-2.01-1.72,4.01-37.83,5.73-42.99,1.72-5.16,15.19-4.12,15.19-4.12Z"/>
          <path class="cls-4" d="M671.15,542.16s36.68,4.2,44.33,10.7c7.64,6.5-12.99,18.72-29.42,22.55-16.43,3.82-21.4,1.53-17.96-2.68,3.44-4.2,3.06-30.57,3.06-30.57Z"/>
          <path class="cls-4" d="M822.39,577s8.48.87,18.71,2.59c10.23,1.72,14.51,9.56,14.51,9.56,0,0-.26,4.98-9.82,7.65-9.55,2.67-51.21.38-55.03-3.82-3.82-4.2,31.62-15.99,31.62-15.99Z"/>
          <path class="cls-4" d="M282.24,597.19c1.16,5.16-6.31,11.75-27.8,21.78-21.49,10.03-25.76,1.9-25.76,1.9,28.98-20.45,49.84-27.83,49.84-27.83,0,0,2.55-1.02,3.71,4.15Z"/>
          <path class="cls-2" d="M208.76,638.27c17.52-2.98,59.04-9.53,58.28-4.39-.95,6.5,32.67-31.32,71.65-25.4,38.98,5.92,52.73,66.67,63.43,60.75,10.71-5.92-3.05-26.55,4.59-40.31,7.65-13.76,93.25-1.44,119.23-4.93,25.99-3.48,21.87-.33,49.16,0,27.27.34,90.18-33.67,91.96-8.45,1.8,25.22-3.67,1.65,63.13-9.32,66.8-10.97,33.82,39.2,77.38,31.71,25.04-4.3,42.5-13.42,55.21-17.43-1.07,14.66-9.01,19.31-.18,34.01,10.32,17.2,8.02,32.1-30.95,37.83-33.7,4.95-51.12,5.63-52.24,2.01,3.54-7.18,5.53-15.25,5.53-23.79,0-29.76-24.12-53.88-53.88-53.88s-53.88,24.12-53.88,53.88c0,9.22,2.32,17.88,6.39,25.47-4.2.38-6.67.61-6.67.61,0,0-8.6,4.87-16.62,0-8.02-4.87-265.77,0-265.77,0,0,0-17.59,6.4-16.05-1.24.28-1.36-2.96-2.14-8.47-2.5,3.11-6.8,4.84-14.38,4.84-22.34,0-29.76-24.12-53.88-53.88-53.88s-53.88,24.12-53.88,53.88c0,10.23,2.84,19.78,7.78,27.91-3.27.36-5.26.6-5.55.68-2.24.64-11.98-3.37-11.98-3.37,0,0-40.7,5.73-42.99-4.01-2.29-9.74,1.72-7.45,0-25.79-1.64-17.54-8.01-20.93-5.55-27.71Z"/>
        </g>
        <g>
          <path class="cls-12" d="M650.1,648.62c3-.8,38.44-5,50.43,4.6,11.98,9.6,33.59,51.35,33.59,54.48s-21,40.34-21,40.34c0,0-12.4,3-17.2,0,0,0-15.6,17.8-46.81,20.2-31.21,2.4-54.41-27.12-54.41-27.12,0,0-3.33,6.77-8.47,4.94-5.14-1.83-7.86-42.84,2.8-66.64,10.66-23.8,58.07-30.01,61.08-30.8Z"/>
          <path class="cls-12" d="M258.81,648.62c3-.8,38.44-5,50.43,4.6,11.98,9.6,33.59,51.35,33.59,54.48s-21,40.34-21,40.34c0,0-12.4,3-17.2,0,0,0-15.6,17.8-46.81,20.2-31.21,2.4-54.41-27.12-54.41-27.12,0,0-3.33,6.77-8.47,4.94-5.14-1.83-7.86-42.84,2.8-66.64,10.66-23.8,58.07-30.01,61.08-30.8Z"/>
          <path class="cls-15" d="M110.03,753.91c-.54-.02-1.03-.05-1.49-.06.46.02.95.04,1.49.06Z"/>
          <path class="cls-15" d="M108.5,749.96l1.62-1.74c3.1-2.66,5.76-5.47,5.76-5.47,0,0-.36-.11-.73-.86-.43-.89-.88-2.68-.77-6.23.19-6.6-1.4-12.78-.6-13.4.07-.06.17-.11.26-.16.95-.44,2.77-.54,1.33-3.25-.66-1.24-1.22-1.84-1.64-2.42-.61-.84-.96-1.68-.96-4.38,0-.31,0-.66.01-1.02.08-4.95.96-14.16,8.59-19.38,8.2-5.61,3.8-4.8,9.21-8.01,5.4-3.19,20.2-5.79,40.01-20.64,19.8-14.86,24.91-15.16,41.71-17.86,16.8-2.7,64.51-8.7,87.02-9,22.51-.3,17.1-3.41,23.41-3.65,6.3-.25,5.1-.55,7.8-2.65,2.7-2.1,12.3.6,12.3.6,0,0,78.22-44.61,89.82-49.81,11.61-5.2,29.61-9.6,74.02-7.2,44.41,2.4,108.42,21.21,135.24,29.61,26.8,8.4,53.6,20.8,58.81,20,.47-.07.96-.19,1.48-.35,5.14-1.6,12.25-7.23,19.62-9.95,4.63-1.72,6.95-2.16,9.36-2.39h.01c1.79-.18,3.64-.23,6.53-.61,0,0,4.2,3,8.4-2.7,4.2-5.7,18.3-6.3,29.41-6.3s12.6,2.7,9.3,6.9c-2.83,3.6-5.88,6.99-10.68,8.44h-.01s-.02,0-.05.01c-.77.25-1.58.42-2.46.55-6.3.9-9.6,9.3-5.7,10.8,1.75.67,3.32.07,4.59-.49,1.54-.68,2.59-1.32,2.92.49.48,2.65-1.16,4.72-.58,5.89.13.29.41.53.88.71,2.4.9,4.8,3,4.2,3.9-.6.9-4.8,6.6-10.8,7.5-2.59.38-3.34,1.62-2.8,3.19.72,2.09,3.67,4.79,7.6,7.01,6.9,3.9,22.81,21.3,22.81,27.31,0,1.16-.02,3.06-.06,5.38-.18,9.6-.72,26.31-1.44,27.03-.9.9-4.8.9-3.9,3.3.9,2.4,5.4.9,5.4,5.7,0,3.13-.13,7.03-1.3,9.78-.64,1.46-1.55,2.6-2.9,3.12-3.9,1.5-75.62,12-77.42,10.8-.34-.23-.44-1.28-.46-3v-.04c-.01-4.63.68-14.02-.61-24.88-.02-.19-.05-.38-.07-.59-.05-.31-.08-.64-.13-.96-.26-1.9-.58-3.84-.97-5.8-.85-4.2-2.06-8.51-3.76-12.75-3.56-8.94-9.22-17.49-16.92-24.38-.01,0-.01-.01-.02-.01-9.29-8.34-21.56-14.25-36.73-15.51-3.91-.34-8.03-.35-12.34-.01-.55.04-1.09.08-1.62.14-.53.06-1.06.13-1.58.19-15.12,2.05-26.24,9.93-33.96,18.96-.05.05-.08.1-.13.14-2.94,3.46-5.38,7.07-7.37,10.59-.05.1-.11.19-.16.28-3.86,6.93-5.98,13.47-6.59,17.61-.32,2.21-.54,4.81-.67,7.61-.04.73-.06,1.46-.08,2.22-.1,3.13-.12,6.43-.11,9.61.02,9.3.26,17.67-.54,18.36-.06.05-.61.11-1.62.17h-.05c-.32.02-.68.05-1.09.06-9.43.48-41.99,1.19-81.11,1.88-.31.01-.64.01-.95.01-1.84.04-3.67.07-5.51.1-25.91.44-54.23.88-80.37,1.24-1.86.04-3.71.05-5.57.07-1.69.04-3.38.05-5.08.06-38.16.48-70.02.76-80.15.58-.71-.01-1.32-.02-1.81-.04,0,0-.01,0-.02-.01-.94-.02-1.45-.07-1.52-.12-.41-.3-.5-1.64-.47-3.79h0c.08-6.33,1.26-19.65-1.13-34.41-.08-.49-.17-1-.26-1.5,0-.02-.01-.05-.01-.08-1.4-7.48-4.18-15.14-8.63-22.06-5.92-9.21-14.81-17.1-27.4-21.54-.05-.02-.11-.04-.16-.05-2.44-.88-5.02-1.6-7.74-2.17-12.89-2.74-25.11-2.06-35.74,1.09-6.58,1.94-12.55,4.84-17.7,8.45-2.29,1.61-4.43,3.37-6.37,5.25-2.08,2-3.95,4.15-5.59,6.41-6.58,9.05-9.9,16.6-11.53,23.07-.5,1.98-.84,3.85-1.07,5.64-.42,3.23-.47,6.17-.41,8.91.07,3.16.19,7.38.4,11.7,0,.08.01.18.01.26.17,3.31.37,6.66.67,9.61.01.12.02.23.04.35.01.17.02.35.05.52.02.18.04.26.04.26,0,.04.01.07.01.11.37,3.42.86,6.18,1.5,7.53-.38.54-1.01.9-1.74.92-12.12.48-24.27.74-36.42.78h-1.43c-7.36-.1-14.99-.23-22.2-.41-1.09-.02-2.17-.05-3.24-.07-1.97-.04-3.89-.08-5.76-.13-.32-.01-.64-.02-.96-.02-.85-.02-1.68-.05-2.51-.07-2.46-.06-4.79-.12-6.96-.18-.76-.02-1.49-.05-2.2-.06-1.78-.05-3.41-.1-4.89-.14-.11,0-.2-.01-.31-.01-1.08-.05-2.15-.1-3.23-.16-1.75-.08-2.69-1.98-1.9-3.4.08-.17.19-.34.34-.48Z"/>
          <path class="cls-13" d="M731.18,610.33h.01c11.13.31,2.63,8.99,4.13,11.09,1.46,2.05,36.99-5.01,38.77-5.35-.77.25-1.58.42-2.46.55-6.3.9-9.6,9.3-5.7,10.8,1.75.67,3.32.07,4.59-.49-3.23,3.11-28.89,10.99-38.19,8.59-9.3-2.4-5.1-4.2-10.2-7.8-5.09-3.59-12.87-4.2-19.92-5.05,5.14-1.6,12.25-7.23,19.62-9.95,4.63-1.72,6.95-2.16,9.36-2.39Z"/>
          <path class="cls-13" d="M707.12,635.22c18,.9,31.81,6.9,48.01,4.2,9.54-1.6,14.92-4.22,17.73-6.11.13.29.41.53.88.71,2.4.9,4.8,3,4.2,3.9-.6.9-4.8,6.6-10.8,7.5-2.59.38-3.34,1.62-2.8,3.19-10.05.13-27.73-1.82-35.01-4.69-8.4-3.3-31.21-4.2-49.51-5.1-18.3-.9-41.41-1.2-44.71-3.25-3.3-2.05,54.01-1.25,72.02-.35Z"/>
          <path class="cls-13" d="M108.5,749.96l1.62-1.74,4.42-4.74c.41-.43.62-1.01.61-1.6v-.1l-1.1-19.68-.31-5.68-.1-1.73c-.06-1.13.72-2.14,1.82-2.38l45.35-9.48c3.3-.7,6.59-1.38,9.89-2.08,7.49-1.57,15.09-3.17,22.24-5.81,3.65-1.33,7.18-2.94,10.51-4.95,5.17-3.1,9.75-7.06,14.34-10.98,2.1-1.79,4.2-3.57,6.37-5.25,1.21-.95,2.45-1.86,3.71-2.72,15.59-10.69,35.94-14.16,54.18-9.23,15.21,4.12,28.73,14.01,37.48,27.08,1.22,1.84,4.08,1.14,4.22-1.06.25-4.14,1.08-8.25,2.5-12.15.36-1.01.76-2,1.2-2.99.23-.49.61-.9,1.09-1.14,9.6-4.75,20.8-4.98,31.56-5.1,41.16-.46,82.33-.92,123.5-1.38,4.71-.05,9.46-.1,14.07.83,3.02.6,5.97,1.63,8.98,2.28,23.45,5.11,58.49-13.26,68.8,18.44,2.5,7.68,3.1,15.88,5.65,23.55.92,2.75,3.37,5.82,5.82,6.05.97.08,1.75.76,2,1.64.07.22.1.44.1.68l-.2,8.93-.36,16.34c-.04,1.07-.79,1.97-1.8,2.2h-.05c-.13.04-.26.05-.4.05-.23.01-.47.01-.7.01-27.03.73-54.07,1.36-81.11,1.88-.31.01-.64.01-.95.01-1.84.04-3.67.07-5.51.1-26.79.53-53.58.94-80.37,1.24-1.86.04-3.71.05-5.57.07-1.69.04-3.38.05-5.08.06-26.72.3-53.44.49-80.15.58-.44.01-.88.01-1.32.01-.17,0-.32-.01-.49-.05,0,0-.01,0-.02-.01-1.07-.23-1.84-1.21-1.79-2.35.04-.7.07-1.4.1-2.1.54-11.86.72-23.93-1.69-35.37,0-.02-.01-.05-.01-.08-.9-4.24-2.16-8.39-3.89-12.41-6.1-14.13-18.11-25.33-32.3-31.24-6.23-2.62-12.88-4.2-19.62-4.59-8.1-.46-16.23.82-23.86,3.5-13.2,4.66-24.97,13.59-32.71,25.29-4.72,7.13-7.91,15.16-9.57,23.53-2,10.03-1.79,20.54.67,30.49.01.11.04.2.07.31h0c.07.31.14.61.23.91h-.17c.37,3.43.86,6.19,1.5,7.54-.38.54-1.01.9-1.74.92-12.12.48-24.27.74-36.42.78h-1.43c-7.36-.1-14.99-.23-22.2-.41-1.09-.02-2.17-.05-3.24-.07-1.97-.04-3.89-.08-5.76-.13-.32-.01-.64-.02-.96-.02-.85-.02-1.68-.05-2.51-.07-2.46-.06-4.79-.12-6.96-.18-.76-.02-1.49-.05-2.2-.06-1.78-.05-3.41-.1-4.89-.14-.11,0-.2-.01-.31-.01-1.08-.05-2.15-.1-3.23-.16-1.75-.08-2.69-1.98-1.9-3.4.08-.17.19-.34.34-.48Z"/>
          <path class="cls-13" d="M799.24,684.37l-.1-4.14s.95,1.97.1,4.14Z"/>
          <path class="cls-13" d="M685.51,666.63c23.2,10.8,27.21,31.6,43.61,23.36,16.41-8.25,22.41-1.75,48.91-.16,8.29.5,13.45-.25,16.65-1.52-.18,9.6-.72,26.31-1.44,27.03-.9.9-4.8.9-3.9,3.3.9,2.4,5.4.9,5.4,5.7s-.3,11.4-4.2,12.9c-3.9,1.5-75.62,12-77.42,10.8-1.8-1.2,3-25.51-6-48.01-7.89-19.72-25.91-37.59-53.68-39.9,8.14-1.37,18.45.16,32.07,6.49Z"/>
          <path class="cls-4" d="M634.96,612.36c22.07,8.05,9.54,13.06-16.67,15.46-26.21,2.4-66.32,3.2-67.22,2.6-.9-.6,8.7-36.31,8.7-36.31,1.65-6.2,53.11,10.2,75.18,18.25Z"/>
          <path class="cls-4" d="M471.26,585.72c33.91-2.71,72.72.68,74.62,3.49l-12.8,41.4s-.8,1.39-41.21,2.7c-40.41,1.31-116.93,4.99-112.43,0,4.5-4.99,57.91-44.89,91.82-47.59Z"/>
          <path class="cls-4" d="M436.45,584.73c-1.2,2.79-76.22,50.86-80.72,51.13-4.5.27-12.9-5.43-12.9-5.43,0,0,47.24-28.25,86.48-48.19,0,0,8.34-.29,7.14,2.49Z"/>
          <path class="cls-13" d="M399.19,618.35s-3.95,5.67-4.95,7.47c-1,1.8,3.2,2.2,4.2,1.6,1-.6.6-4.2,2.4-6.8,1.8-2.6,10.53-10.16,17.2-10.33,6.67-.17,12.2,1.13,12.4,10.73.2,9.6-9.4,13-17.4,13s-20.8.8-23.35-2c-2.54-2.8,1.07-7.77,1.07-7.77l8.41-5.91Z"/>
          <path class="cls-12" d="M793.44,734.13c-.64,1.46-1.55,2.6-2.9,3.12-3.9,1.5-75.62,12-77.42,10.8-.34-.23-.44-1.28-.46-3l80.77-10.93h.01Z"/>
          <path class="cls-12" d="M712.66,745.01c-.01-4.63.68-14.02-.61-24.88,1.68,13.34.68,24.15.61,24.88Z"/>
          <path class="cls-12" d="M710.87,712.78c-.85-4.2-2.06-8.51-3.76-12.75-3.56-8.94-9.22-17.49-16.92-24.38,12.23,8.82,18.02,23.51,20.68,37.12Z"/>
          <path class="cls-12" d="M637.9,660.46c-15.12,2.05-26.24,9.93-33.96,18.96,9.51-11.37,21.36-17.33,33.96-18.96Z"/>
          <path class="cls-12" d="M323.28,745l262.91-3.85s-4.37-25.45,10.09-50.71c-3.86,6.93-.38,12.79-.99,16.93-.32,2.21-4.67,6.68-4.8,9.48-.58,12.66-1.05,28.03-2.2,29.01-1.4,1.2-263.26,5.2-264.86,4-1.6-1.2,1.61-18.4-1.6-38.2-1.3-7.97-4.14-16.23-8.91-23.65,17.34,24.99,10.36,57,10.36,57Z"/>
          <path class="cls-12" d="M285.34,666.38c.06.02.12.05.18.07-2.48-.89-5.11-1.63-7.9-2.22-28.21-6-52.22,5.65-64.42,22.45-6.58,9.05-10.9,15.35-12.53,21.82,3.72-22.77,35.71-62.41,84.67-42.12Z"/>
          <path class="cls-12" d="M199.6,735.01c.18,3.64.42,7.32.76,10.48-.13-.97-.58-4.57-.76-10.48Z"/>
          <path class="cls-12" d="M108.59,749.96l86.44-3.85h.01l3.7-.17h.01l1.66-.07c.37,3.42.86,6.18,1.5,7.53-.38.54-1.01.9-1.74.92-12.12.48-24.27.74-36.42.78-7.85-.1-16-.24-23.63-.41-1.09-.02-2.17-.05-3.24-.07-1.97-.04-3.89-.08-5.76-.13-.32-.01-.64-.02-.96-.02-.85-.02-1.68-.05-2.51-.07-2.46-.06-4.79-.12-6.96-.18-.76-.02-1.49-.05-2.2-.06-1.78-.06-3.41-.11-4.89-.14-.11,0-.2-.01-.31-.01-1.08-.05-2.15-.1-3.23-.16-1.75-.08-2.69-1.98-1.9-3.4l.42-.48Z"/>
          <circle class="cls-4" cx="649.7" cy="715.44" r="37.01" transform="translate(-242.01 1088.02) rotate(-70.43)"/>
          <path class="cls-12" d="M649.7,708.24c3.98,0,7.2,3.22,7.2,7.2s-3.22,7.2-7.2,7.2-7.2-3.22-7.2-7.2,3.22-7.2,7.2-7.2Z"/>
          <circle class="cls-4" cx="256.64" cy="715.44" r="37.01" transform="translate(-502.55 678.76) rotate(-67.5)"/>
          <path class="cls-12" d="M256.64,708.24c3.98,0,7.2,3.22,7.2,7.2s-3.22,7.2-7.2,7.2-7.2-3.22-7.2-7.2,3.22-7.2,7.2-7.2Z"/>
        </g>
      </g>
      <g>
        <g>
          <polygon class="cls-14" points="147.22 482.99 169.13 652.05 169.45 654.52 169.43 655.2 165.58 805.16 133.02 805.58 124.79 655.77 125.09 658.92 87.01 492.38 147.22 482.99"/>
          <rect class="cls-10" x="94.94" y="328" width="16.65" height="29.23"/>
          <path class="cls-9" d="M111.59,345.53v-17.53h-16.65v7.33c5.99,6.25,13.57,9.22,13.57,9.22h0c1.01.36,2.04.69,3.08.98Z"/>
          <path class="cls-3" d="M53.62,485.42l.11,22.37.05.02s1.85,94.68,8.82,143.68c.46,3.22.39,6.48-.27,9.66-1.61,7.64-4.32,26.23-3.34,61.76,1.37,49.43,4.42,81.47,4.42,81.47l24.32.85,13.58-158.85,13.32-158.86-61.01-2.1Z"/>
          <path class="cls-10" d="M129.66,287.64c-2.77-5.18-16.38-11.76-26.56-7.55-10.18,4.21-14.55,12.3-17.02,24-1.3,6.17.8,13.67,3.07,19.39,4.76,10.36,17.14,15.21,17.14,15.21h0c4.33,1.55,9.06,2.56,12.98,1.74,8.84-7.29,11.47-19.7,12.24-25.44.5-6.43.53-11.66.53-12.69,0,0,.4-9.48-2.37-14.66Z"/>
          <path class="cls-9" d="M132.03,302.3l.02-8.99-35.83-3.88.28,21.12s4.28-13.13,13.23-11.09c14.91,3.4,22.31,2.84,22.31,2.84Z"/>
          <path class="cls-5" d="M94.08,324.34c.14-1.61.56-3.17,1.06-4.71.94-2.94.15-8.35,3.79-16.66,6.29-14.35,24.25.86,37.65-4.75,13.4-5.61,2.36-17.91-4.48-16.62-6.84,1.29-5.57-4.21-12.38-5.18-5.96-.85-11.78-2.37-22.87,4.96-11.09,7.34-10.16,12.09-10.16,12.09,0,0-13.1,16.37,4.91,38.44.66.81,2.06.43,2.15-.58l.33-6.99Z"/>
          <path class="cls-10" d="M97.11,312.76s-1.18-6.99-5.11-5.48c-3.93,1.51-2.75,16.62,2.55,16.19,5.3-.43,2.55-10.71,2.55-10.71Z"/>
          <path class="cls-5" d="M84.38,313.11v5.5s1.27,4.21.58,5.61c-.69,1.4,2.43,1.08,2.77-1.73.35-2.81-3.35-9.39-3.35-9.39Z"/>
          <path class="cls-10" d="M74.71,374.56l-32.32,106.56-13.69-11.42,69.49-29.37c3.51-1.48,7.55.16,9.03,3.66,1.41,3.33-.03,7.16-3.18,8.8l-66.98,34.71c-4.73,2.45-10.56.6-13.01-4.13-1.09-2.1-1.33-4.43-.84-6.57l.16-.73,24.71-108.57c1.69-7.42,9.07-12.07,16.49-10.38,7.42,1.69,12.07,9.07,10.38,16.49-.07.31-.16.64-.25.94Z"/>
          <path class="cls-20" d="M149.01,507.82l5.77-118.39c.67-19.53-7.47-35.67-32.95-37.61l-19.42-1.9s-35.38,1.83-42.09,3.48c-6.71,1.66-12.7,8.19-14.13,30.89,0,.11,0,.2,0,.31-.17,1.58-.27,3.18-.22,4.83l7.8,118.39h95.23Z"/>
          <path class="cls-10" d="M99.4,440.1s2.71-8.4,12.55-10.93c9.84-2.53-6.44,6.5-8.65,14.74-2.2,8.24-3.9-3.8-3.9-3.8Z"/>
          <path class="cls-10" d="M101.24,456.36s9.35,2.65,27.99,1.06c0,0,5.01-.88,4.61-2.82-.4-1.94-11.02-2.65-14.43-2.47-3.41.18,15.03,1.94,19.44-1.76,4.41-3.7-19.64-3.99-23.05-3.32-3.41.67,24.45,2.97,26.86-2.15,2.41-5.12-13.65-2.85-22.45-4.45-8.8-1.6,18.44,1.71,18.04-3.45-.4-5.16-6.82-1.45-24.65-2.69-17.84-1.24-12.35,22.05-12.35,22.05Z"/>
          <path class="cls-10" d="M105.19,457.11s-7.44-.61-10.88-1.92c-3.43-1.31,1.4-17.71,10.18-21.03,8.78-3.33.7,22.96.7,22.96Z"/>
          <path class="cls-16" d="M93.93,437.76l-12.07,5.1c1.35,7.2,3.45,18.13,4.89,25.62l12.65-5.87-5.47-24.85Z"/>
          <path class="cls-17" d="M112.99,347.81c-1.53.51-3.52.94-6.12,1.23-7.75.85-11.35-1.42-13.03-3.66l.29,1.91s-7.7,2.2,4.39,7.37c12.08,5.17,16.79-1.32,16.79-1.32l-1.15-2.66-1.17-2.87Z"/>
          <path class="cls-16" d="M94.57,343.17s-2.59,2.26,12.3,5.86l-6.66,11.69s-7.64-4.65-11.79-9.99l6.15-7.56Z"/>
          <path class="cls-16" d="M106.53,348.95s3.75-.19,5.53-3.42l8.66,6.17s-1.09,4.03-5.04,9.02l-9.16-11.77Z"/>
          <g>
            <path class="cls-10" d="M161.3,818.2c-1.6-9.17-.69-21.48-.69-21.48,0,0-12.73-30.16-20.92,0-2,7.36-1.58,15.67-2.55,21.48h24.16Z"/>
            <path class="cls-14" d="M194.27,833.25c-5.31.28-14.55-1.7-24.82-8.07-3-1.86-5-5.08-6.33-8.68h0s0,0,0,0h-27.79c-3.03,18.01-1.99,28.22-1.99,28.22h14.1l.46-6.37,1.82,6.37h54.57s1.91-12.11-10-11.47Z"/>
          </g>
          <g>
            <path class="cls-10" d="M87.63,818.2c-1.6-9.17-.68-21.48-.68-21.48,0,0-12.73-30.16-20.92,0-2,7.36-1.58,15.67-2.55,21.48h24.16Z"/>
            <path class="cls-14" d="M120.6,833.25c-5.31.28-14.55-1.7-24.82-8.07-3-1.86-5-5.08-6.33-8.68h0s-27.79,0-27.79,0c-3.03,18.01-2,28.22-2,28.22h14.1l.46-6.37,1.82,6.37h54.57s1.91-12.11-10-11.47Z"/>
          </g>
          <polygon class="cls-18" points="147.22 482.99 169.13 652.05 169.45 654.52 169.43 655.2 165.58 805.16 133.02 805.58 124.79 655.77 125.09 658.92 87.01 492.38 147.22 482.99"/>
          <rect class="cls-23" x="94.94" y="328" width="16.65" height="29.23"/>
          <path class="cls-9" d="M111.59,345.53v-17.53h-16.65v7.33c5.99,6.25,13.57,9.22,13.57,9.22h0c1.01.36,2.04.69,3.08.98Z"/>
          <path class="cls-10" d="M191.64,486.99s9.67,1.43,18.82,0c9.16-1.43,38.67,9.98,30.02,15.21-8.65,5.23-31.54,7.2-53.93-4.96-22.39-12.16,5.09-10.26,5.09-10.26Z"/>
          <path class="cls-18" d="M53.62,485.42l.11,22.37.05.02s1.85,94.68,8.82,143.68c.46,3.22.39,6.48-.27,9.66-1.61,7.64-4.32,26.23-3.34,61.76,1.37,49.43,4.42,81.47,4.42,81.47l24.32.85,13.58-158.85,13.32-158.86-61.01-2.1Z"/>
          <path class="cls-23" d="M129.66,287.64c-2.77-5.18-16.38-11.76-26.56-7.55-10.18,4.21-14.55,12.3-17.02,24-1.3,6.17.8,13.67,3.07,19.39,4.76,10.36,17.14,15.21,17.14,15.21h0c4.33,1.55,9.06,2.56,12.98,1.74,8.84-7.29,11.47-19.7,12.24-25.44.5-6.43.53-11.66.53-12.69,0,0,.4-9.48-2.37-14.66Z"/>
          <path class="cls-9" d="M132.03,302.3l.02-8.99-35.83-3.88.28,21.12s4.28-13.13,13.23-11.09c14.91,3.4,22.31,2.84,22.31,2.84Z"/>
          <path class="cls-5" d="M94.08,324.34c.14-1.61.56-3.17,1.06-4.71.94-2.94.15-8.35,3.79-16.66,6.29-14.35,24.25.86,37.65-4.75,13.4-5.61,2.36-17.91-4.48-16.62-6.84,1.29-5.57-4.21-12.38-5.18-5.96-.85-11.78-2.37-22.87,4.96-11.09,7.34-10.16,12.09-10.16,12.09,0,0-13.1,16.37,4.91,38.44.66.81,2.06.43,2.15-.58l.33-6.99Z"/>
          <path class="cls-23" d="M97.11,312.76s-1.18-6.99-5.11-5.48c-3.93,1.51-2.75,16.62,2.55,16.19,5.3-.43,2.55-10.71,2.55-10.71Z"/>
          <path class="cls-5" d="M84.38,313.11v5.5s1.27,4.21.58,5.61c-.69,1.4,2.43,1.08,2.77-1.73.35-2.81-3.35-9.39-3.35-9.39Z"/>
          <path class="cls-10" d="M74.71,374.56l-32.32,106.56-13.69-11.42,69.49-29.37c3.51-1.48,7.55.16,9.03,3.66,1.41,3.33-.03,7.16-3.18,8.8l-66.98,34.71c-4.73,2.45-10.56.6-13.01-4.13-1.09-2.1-1.33-4.43-.84-6.57l.16-.73,24.71-108.57c1.69-7.42,9.07-12.07,16.49-10.38,7.42,1.69,12.07,9.07,10.38,16.49-.07.31-.16.64-.25.94Z"/>
          <path class="cls-24" d="M145.56,455.69l4.58-40.5h0s3.78-33.44.95-45.65c-2.45-10.58-11.47-13.63-13.85-14.26-2.41-.61-4.85-.97-7.2-1.15-10.09-.78-6.76,6.95-7.6,16.38l-9.83,110.5-.07.83c-.26,2.98.56,6.06,2.55,8.68,4.5,5.91,13.28,7.3,19.61,3.1l66.71,12.63,4.32-22.66-60.18-27.89Z"/>
          <path class="cls-22" d="M149.01,507.82l5.77-118.39c.67-19.53-7.47-35.67-32.95-37.61l-19.42-1.9s-35.38,1.83-42.09,3.48c-6.71,1.66-12.7,8.19-14.13,30.89,0,.11,0,.2,0,.31-.17,1.58-.27,3.18-.22,4.83l7.8,118.39h95.23Z"/>
          <path class="cls-10" d="M99.4,440.1s2.71-8.4,12.55-10.93c9.84-2.53-6.44,6.5-8.65,14.74-2.2,8.24-3.9-3.8-3.9-3.8Z"/>
          <g>
            <rect class="cls-8" x="110.62" y="384.28" width="75.81" height="106.95"/>
            <rect class="cls-1" x="157.24" y="389.23" width="24.42" height="7.61"/>
            <rect class="cls-1" x="157.24" y="398.41" width="24.42" height="1.28"/>
            <rect class="cls-1" x="157.24" y="400.63" width="24.42" height="1.28"/>
            <rect class="cls-1" x="166.35" y="461.8" width="15.31" height="1.28"/>
            <rect class="cls-1" x="148.52" y="461.8" width="10.03" height="1.28"/>
            <rect class="cls-1" x="166.35" y="464.46" width="15.31" height="1.28"/>
            <rect class="cls-1" x="136.31" y="410.78" width="24.42" height="1.28"/>
            <rect class="cls-1" x="115.56" y="417.4" width="65.93" height="1.28"/>
            <rect class="cls-1" x="115.56" y="420.32" width="65.93" height="1.28"/>
            <rect class="cls-1" x="115.56" y="423.24" width="65.93" height="1.28"/>
            <rect class="cls-1" x="115.56" y="426.16" width="65.93" height="1.28"/>
            <rect class="cls-1" x="115.56" y="429.08" width="65.93" height="1.28"/>
            <rect class="cls-1" x="115.56" y="432" width="65.93" height="1.28"/>
            <rect class="cls-1" x="115.56" y="434.92" width="65.93" height="1.28"/>
            <rect class="cls-1" x="115.56" y="437.84" width="65.93" height="1.28"/>
            <rect class="cls-1" x="115.56" y="440.76" width="65.93" height="1.28"/>
            <rect class="cls-1" x="115.56" y="443.68" width="65.93" height="1.28"/>
            <rect class="cls-1" x="115.56" y="446.6" width="65.93" height="1.28"/>
            <rect class="cls-1" x="115.56" y="449.52" width="65.93" height="1.28"/>
          </g>
          <path class="cls-10" d="M101.24,456.36s9.35,2.65,27.99,1.06c0,0,5.01-.88,4.61-2.82-.4-1.94-11.02-2.65-14.43-2.47-3.41.18,15.03,1.94,19.44-1.76,4.41-3.7-19.64-3.99-23.05-3.32-3.41.67,24.45,2.97,26.86-2.15,2.41-5.12-13.65-2.85-22.45-4.45-8.8-1.6,18.44,1.71,18.04-3.45-.4-5.16-6.82-1.45-24.65-2.69-17.84-1.24-12.35,22.05-12.35,22.05Z"/>
          <path class="cls-10" d="M105.19,457.11s-7.44-.61-10.88-1.92c-3.43-1.31,1.4-17.71,10.18-21.03,8.78-3.33.7,22.96.7,22.96Z"/>
          <path class="cls-24" d="M93.93,437.76l-38.8,16.38,16.95-63.77c.11-.36.22-.77.3-1.14,2.1-9.25,2.87-33.56-7.04-35.52-1.01-.2-2.02-.3-3.01-.34-14.95.51-20.42,24.48-24.89,40.85l-18.38,81.17-.18.81c-.66,2.92-.26,6.07,1.37,8.91,3.67,6.39,12.2,8.8,19.04,5.37l60.12-27.89-5.47-24.85Z"/>
          <path class="cls-16" d="M93.93,437.76l-12.07,5.1c1.35,7.2,3.45,18.13,4.89,25.62l12.65-5.87-5.47-24.85Z"/>
          <path class="cls-17" d="M112.99,347.81c-1.53.51-3.52.94-6.12,1.23-7.75.85-11.35-1.42-13.03-3.66l.29,1.91s-7.7,2.2,4.39,7.37c12.08,5.17,16.79-1.32,16.79-1.32l-1.15-2.66-1.17-2.87Z"/>
          <path class="cls-16" d="M94.57,343.17s-2.59,2.26,12.3,5.86l-6.66,11.69s-7.64-4.65-11.79-9.99l6.15-7.56Z"/>
          <path class="cls-16" d="M106.53,348.95s3.75-.19,5.53-3.42l8.66,6.17s-1.09,4.03-5.04,9.02l-9.16-11.77Z"/>
        </g>
        <g>
          <polygon class="cls-14" points="309.37 482.99 287.46 652.05 287.14 654.52 287.16 655.2 291.01 805.16 323.57 805.58 331.8 655.77 331.5 658.92 369.58 492.38 309.37 482.99"/>
          <rect class="cls-10" x="345" y="328" width="16.65" height="29.23"/>
          <path class="cls-9" d="M345,345.53v-17.53h16.65v7.33c-5.99,6.25-13.57,9.22-13.57,9.22h0c-1.01.36-2.04.69-3.08.98Z"/>
          <path class="cls-10" d="M326.93,287.64c2.77-5.18,16.38-11.76,26.56-7.55,10.18,4.21,14.55,12.3,17.02,24,1.3,6.17-.8,13.67-3.07,19.39-4.76,10.36-17.14,15.21-17.14,15.21h0c-4.33,1.55-9.06,2.56-12.98,1.74-8.84-7.29-11.47-19.7-12.24-25.44-.5-6.43-.53-11.66-.53-12.69,0,0-.4-9.48,2.38-14.66Z"/>
          <path class="cls-9" d="M324.56,302.3l-.02-8.99,35.83-3.88-.28,21.12s-4.28-13.13-13.23-11.09c-14.91,3.4-22.31,2.84-22.31,2.84Z"/>
          <path class="cls-10" d="M359.48,312.76s1.18-6.99,5.11-5.48c3.93,1.51,2.75,16.62-2.55,16.19-5.3-.43-2.55-10.71-2.55-10.71Z"/>
          <path class="cls-5" d="M372.21,313.11v5.5s-1.27,4.21-.58,5.61c.69,1.4-2.42,1.08-2.77-1.73-.35-2.81,3.35-9.39,3.35-9.39Z"/>
          <path class="cls-21" d="M307.58,507.82l-5.77-118.39c-.67-19.53,7.47-35.67,32.95-37.61l19.42-1.9s35.38,1.83,42.09,3.48c6.71,1.66,12.7,8.19,14.13,30.89,0,.11,0,.2,0,.31.17,1.58.27,3.18.22,4.83l-7.8,118.39h-95.23Z"/>
          <g>
            <path class="cls-10" d="M295.29,818.2c1.6-9.17.68-21.48.68-21.48,0,0,12.73-30.16,20.92,0,2,7.36,1.58,15.67,2.55,21.48h-24.16Z"/>
            <path class="cls-7" d="M262.33,833.25c5.31.28,14.55-1.7,24.82-8.07,3-1.86,5-5.08,6.33-8.68h0s27.79,0,27.79,0c3.03,18.01,1.99,28.22,1.99,28.22h-14.1l-.45-6.37-1.82,6.37h-54.57s-1.91-12.11,10-11.47Z"/>
          </g>
          <g>
            <path class="cls-10" d="M397.04,817.66c1-9.25-.7-21.48-.7-21.48,0,0,10.76-30.83,20.88-1.18,2.47,7.23,2.59,15.56,3.94,21.3l-22.3,1.26-1.82.1Z"/>
            <path class="cls-7" d="M365.11,834.55c5.31-.02,14.41-2.52,24.25-9.46,2.88-2.03,4.66-5.35,5.76-9.02h0s0,0,0,0l27.74-1.57c4.19,17.81,3.82,28.06,3.82,28.06l-14.07.8-.87-6.34-1.4,6.46-54.47,3.08s-2.69-11.98,9.24-12.02Z"/>
          </g>
          <polygon class="cls-2" points="309.37 482.99 287.46 652.05 287.14 654.52 287.16 655.2 291.01 805.16 323.57 805.58 331.8 655.77 331.5 658.92 369.58 492.38 309.37 482.99"/>
          <rect class="cls-23" x="345" y="328" width="16.65" height="29.23"/>
          <path class="cls-9" d="M345,345.53v-17.53h16.65v7.33c-5.99,6.25-13.57,9.22-13.57,9.22h0c-1.01.36-2.04.69-3.08.98Z"/>
          <path class="cls-10" d="M256.08,488.31s-9.67,1.43-18.82,0c-9.16-1.43-38.67,9.98-30.02,15.21,8.65,5.23,31.54,7.2,53.93-4.96,22.39-12.16-5.09-10.26-5.09-10.26Z"/>
          <path class="cls-2" d="M398.56,483.58l1.34,22.34-.05.02s15.18,94.61,11.4,143.91c-.25,3.24.02,6.49.9,9.63,2.1,7.54,6.01,25.94,7.32,61.46,1.83,49.42.85,81.58.85,81.58l-24.22,2.22-29.28-157.8-32.66-157.82,64.4-5.54Z"/>
          <path class="cls-23" d="M326.93,287.64c2.77-5.18,16.38-11.76,26.56-7.55,10.18,4.21,14.55,12.3,17.02,24,1.3,6.17-.8,13.67-3.07,19.39-4.76,10.36-17.14,15.21-17.14,15.21h0c-4.33,1.55-9.06,2.56-12.98,1.74-8.84-7.29-11.47-19.7-12.24-25.44-.5-6.43-.53-11.66-.53-12.69,0,0-.4-9.48,2.38-14.66Z"/>
          <path class="cls-9" d="M324.56,302.3l-.02-8.99,35.83-3.88-.28,21.12s-4.28-13.13-13.23-11.09c-14.91,3.4-22.31,2.84-22.31,2.84Z"/>
          <path class="cls-5" d="M362.51,324.34c-.14-1.61-.56-3.17-1.06-4.71-.94-2.94-.15-8.35-3.79-16.66-6.29-14.35-13.89-2.71-27.29-8.32-13.4-5.61-7.75-8.84-.91-7.54,6.84,1.29,2.39-7.39,9.21-8.36,5.95-.85,9.98-4.7,21.07,2.64,11.09,7.34,10.16,12.09,10.16,12.09,0,0,13.1,16.37-4.91,38.44-.66.81-2.06.43-2.15-.58l-.33-6.99Z"/>
          <path class="cls-23" d="M359.48,312.76s1.18-6.99,5.11-5.48c3.93,1.51,2.75,16.62-2.55,16.19-5.3-.43-2.55-10.71-2.55-10.71Z"/>
          <path class="cls-5" d="M372.21,313.11v5.5s-1.27,4.21-.58,5.61c.69,1.4-2.42,1.08-2.77-1.73-.35-2.81,3.35-9.39,3.35-9.39Z"/>
          <path class="cls-6" d="M311.06,455.53l-5.89-40.35h0s-4.86-33.32-2.43-45.61c2.11-10.64,11.02-13.94,13.38-14.64,2.39-.68,4.82-1.11,7.16-1.36,10.06-1.07,6.98,6.76,8.12,16.15l13.41,110.17.1.82c.36,2.97-.36,6.07-2.27,8.75-4.31,6.04-13.04,7.67-19.5,3.65l-82.77,14.1-5.06-22.53,75.74-29.17Z"/>
          <path class="cls-25" d="M302.12,519.71l-.31-130.29c-.67-19.53,7.47-35.67,32.95-37.61l19.42-1.9s35.38,1.83,42.09,3.48c6.71,1.66,12.7,8.19,14.13,30.89,0,.11,0,.2,0,.31.17,1.58.27,3.18.22,4.83l-5.98,130.29h-102.51Z"/>
          <path class="cls-10" d="M402.84,369.01c2.87,8.83,5.53,17.72,8.19,26.61,2.61,8.9,5.2,17.81,7.69,26.74,2.55,8.92,4.93,17.88,7.39,26.82l7.11,26.9.03.1c.21.79.31,1.64.3,2.42l-.23,23.51c-.17,7.84-.25,15.67-.52,23.51-.2,7.84-.51,15.67-.84,23.51-.38,7.84-.75,15.67-1.36,23.51-.29,3.8-3.61,6.65-7.41,6.36-3.44-.26-6.1-3.01-6.36-6.36-.6-7.84-.97-15.67-1.36-23.51-.33-7.84-.64-15.67-.84-23.51-.27-7.84-.35-15.67-.52-23.51l-.23-23.51.33,2.52-7.15-26.89c-2.29-8.99-4.67-17.95-6.87-26.96-2.26-8.99-4.42-18.02-6.57-27.04-2.09-9.04-4.19-18.08-6.07-27.17-.88-4.29,1.87-8.48,6.16-9.36,3.99-.83,7.91,1.52,9.14,5.31Z"/>
          <path class="cls-10" d="M416.15,567.53c-2.17,1.81-6.7,9.35-7.35,16.21-.53,5.64,3.53,5.48,4.7-3.47.42-1.86,1.49-1.33,1.59-.14,1.35,16.65-4.11,25.52.62,25.84,4.73.32,3.03-24.91,4.61-16.71,1.58,8.21-1.97,23.04,2.69,20.74,1.35-.67,2.1-3.34,2.48-6.71.56,2.87,1.36,4.49,2.49,3.09,1.42-1.76,1.9-5.87,1.98-9.77.41,2.65,1.01,4.88,1.84,5.04,1.78.35,2.53-4.34,2.53-4.34.76-10.89.06-18.37-.58-22.45h0s-1.42-7.2-2.66-10.39c-1.12-2.88-10.38-3.72-14.93,3.04Z"/>
          <path class="cls-6" d="M386.67,352.19s13.49-.9,20.92,8.53c9.01,11.44,23.34,88.99,23.34,88.99,0,0,4.24,21.71,5.15,31.81.91,10.1-2.73,84.59-2.73,84.59,0,0-10.1,1.4-21.22-1.7,0,0,3.64-77.32,1.52-87.24-2.12-9.91-37.59-99.59-26.98-124.99Z"/>
          <path class="cls-23" d="M340.6,351.24s-3.86,17.65,8.64,20.94c12.51,3.29,16.48-21.61,16.48-21.61,0,0-11.82-2.01-25.12.66Z"/>
          <path class="cls-5" d="M326.19,320.81s1.98-.14,5.62,0c3.64.14,8.83.12,10.65-.06,3.39-.35,13.66-1.4,17.05-12.64,3.38-11.24.59,2.43.59,2.43,0,0-.7,11.97-.54,15.22.15,3.26.28,7.42-2.1,8.95-2.37,1.54-14.58,8.18-20.49,6.76-5.91-1.42-10.93-17.56-10.77-20.67Z"/>
          <path class="cls-5" d="M371.03,295.2c-6.95-14.15-15.86-18.44-22.22-19.51-3.46-.58-7.01-.12-10.29,1.03-3.24,1.14-9.43,2.89-13.98,1.64-6.45-1.77-12.13,4.39-9.86,6.83,2.27,2.44-2.5,6.16-.51,9.35,1.99,3.19,6.56,6.16,12.18,4.04,5.61-2.12,3.91.9,8.23.72,4.32-.19,11.17.08,14.85-2.6,3.42-2.49-4.09-14-5.19-15.64l3.5.82s35.46,38.09,23.3,13.33Z"/>
        </g>
      </g>
    </g>
  </g>
</svg>