<?xml version="1.0" encoding="UTF-8"?>
<svg id="_Ñëîé_2" data-name="Ñëîé 2" xmlns="http://www.w3.org/2000/svg" viewBox="0 0 1000 1000">
  <defs>
    <style>
      .cls-1 {
        fill: none;
        stroke: #3a4284;
        stroke-linecap: round;
        stroke-linejoin: round;
        stroke-width: 27.58px;
      }
    </style>
  </defs>
  <g id="education_3" data-name="education 3">
    <g id="g_225" data-name="g 225">
      <g id="g_226" data-name="g 226">
        <g id="g_227" data-name="g 227">
          <g id="g_228" data-name="g 228">
            <path id="path_173" data-name="path 173" class="cls-1" d="M106.52,370.47v-161.6"/>
          </g>
          <g id="g_229" data-name="g 229">
            <path id="path_174" data-name="path 174" class="cls-1" d="M806.81,693.66H196.29c-29.74,0-53.83-24.11-53.83-53.86v-107.73c0-29.75,24.09-53.86,53.83-53.86h610.52v215.46Z"/>
          </g>
          <g id="g_230" data-name="g 230">
            <path id="path_175" data-name="path 175" class="cls-1" d="M806.81,585.93H250.17"/>
          </g>
          <g id="g_231" data-name="g 231">
            <path id="path_176" data-name="path 176" class="cls-1" d="M806.81,478.2h53.83"/>
          </g>
          <g id="g_232" data-name="g 232">
            <path id="path_177" data-name="path 177" class="cls-1" d="M268.14,245.6v232.61h466.83v-232.61"/>
          </g>
          <g id="g_233" data-name="g 233">
            <path id="path_178" data-name="path 178" class="cls-1" d="M501.55,119.1L106.52,208.87l395.03,89.78,395.03-89.78-395.03-89.78Z"/>
          </g>
          <g id="g_234" data-name="g 234">
            <path id="path_179" data-name="path 179" class="cls-1" d="M880.4,909.13H122.7c-29.74,0-53.87-24.12-53.87-53.87v-107.73c0-29.75,24.13-53.87,53.87-53.87h757.7v215.47Z"/>
          </g>
          <g id="g_235" data-name="g 235">
            <path id="path_180" data-name="path 180" class="cls-1" d="M880.4,801.4H176.57"/>
          </g>
          <g id="g_236" data-name="g 236">
            <path id="path_181" data-name="path 181" class="cls-1" d="M880.4,693.66h53.87"/>
          </g>
          <g id="g_237" data-name="g 237">
            <path id="path_182" data-name="path 182" class="cls-1" d="M880.4,909.13h53.87"/>
          </g>
        </g>
      </g>
    </g>
  </g>
</svg>