<?xml version="1.0" encoding="UTF-8"?>
<svg id="Layer_1" data-name="Layer 1" xmlns="http://www.w3.org/2000/svg" viewBox="0 0 1000 1000">
  <defs>
    <style>
      .cls-1 {
        opacity: .6;
      }

      .cls-2 {
        fill: #24131f;
      }

      .cls-3 {
        fill: #c0a969;
      }

      .cls-4 {
        fill: #b47e6b;
      }

      .cls-5 {
        fill: #989898;
      }

      .cls-6 {
        fill: #4f4f51;
      }

      .cls-7 {
        fill: #a56b59;
      }

      .cls-8 {
        fill: #bfbbbb;
      }

      .cls-9 {
        fill: #fff;
      }

      .cls-10 {
        fill: #eae4e4;
      }

      .cls-11 {
        fill: #e55b27;
      }

      .cls-12 {
        fill: #5472a6;
      }

      .cls-13 {
        fill: #242424;
      }

      .cls-14 {
        fill: #f79467;
      }

      .cls-15 {
        fill: #3a2232;
      }

      .cls-16 {
        fill: #f18161;
      }

      .cls-17 {
        fill: #f08d61;
      }

      .cls-18 {
        fill: #d8d6d6;
      }

      .cls-19 {
        fill: #010101;
      }

      .cls-20 {
        fill: #ffd593;
      }

      .cls-21 {
        fill: #f3ddb7;
      }
    </style>
  </defs>
  <g>
    <path class="cls-5" d="M706.3,797.2c-80.48,0-145.72-1.17-145.72-2.61s65.24-2.61,145.72-2.61,145.72,1.17,145.72,2.61-65.24,2.61-145.72,2.61Z"/>
    <path class="cls-5" d="M724.12,794.59c0,9.84-7.98,17.82-17.82,17.82s-17.82-7.98-17.82-17.82,7.98-17.82,17.82-17.82,17.82,7.98,17.82,17.82Z"/>
    <path class="cls-5" d="M708.91,794.59c0,80.48-1.17,145.72-2.61,145.72s-2.61-65.24-2.61-145.72,1.17-145.72,2.61-145.72,2.61,65.24,2.61,145.72Z"/>
    <path class="cls-5" d="M708.14,796.43c-56.91,56.91-103.87,102.21-104.88,101.2-1.02-1.02,44.29-47.98,101.2-104.89,56.91-56.91,103.87-102.22,104.88-101.2,1.02,1.02-44.29,47.98-101.2,104.89Z"/>
    <path class="cls-5" d="M704.46,796.43c-56.91-56.91-102.22-103.87-101.2-104.89,1.02-1.02,47.98,44.29,104.88,101.2,56.91,56.91,102.22,103.87,101.2,104.89s-47.98-44.29-104.88-101.2Z"/>
    <path class="cls-5" d="M713.42,794.59c0,3.93-3.19,7.12-7.12,7.12s-7.12-3.19-7.12-7.12,3.19-7.12,7.12-7.12,7.12,3.19,7.12,7.12Z"/>
    <path class="cls-5" d="M706.82,942.23c-84.78,0-153.75-68.97-153.75-153.75s68.97-153.75,153.75-153.75,153.75,68.97,153.75,153.75-68.97,153.75-153.75,153.75ZM706.82,656.22c-72.93,0-132.26,59.33-132.26,132.26s59.33,132.26,132.26,132.26,132.26-59.33,132.26-132.26-59.33-132.26-132.26-132.26Z"/>
  </g>
  <rect class="cls-7" x="758.81" y="743.63" width="42.43" height="180.47"/>
  <path class="cls-14" d="M833.58,711.66c5.55,4.1,19.2,24.08,16.36,32.7-8.91,27.09-14.1,36.86-17.69,51.83-6.95,29.02-15.85,50.95-21.25,80.96-.99,5.67-2.01,11.68-2.97,18.2-.76,4.89-11.96,3.28-12.39,2.03-1.25-3.49-3.54-8.66-5.89-13.61-1.97-4.15-3.99-8.17-5.47-10.93-4.03-7.51-8.19-15.04-10.18-23.42-2.17-9.11-2.49-19.25-1.86-28.56,1.93-28.6,2.48-55.71,23.43-79.81,7.27-8.36,4.3-19.45,13.92-18.56,17.5,1.6,6.19-23.98,23.98-10.83Z"/>
  <path class="cls-14" d="M857.21,747.57c-1.5-7.78-5.16-15.06-12.5-21.51-4.46,3.12-7.94,8.77-12.64,14.17-20.96,24.09-29.02,49.96-30.95,78.56-.63,9.31-.3,19.45,1.86,28.56,1.99,8.38,6.15,15.91,10.18,23.42,1.47,2.76,3.5,6.78,5.47,10.93,2.35,4.95,4.64,10.12,5.89,13.61.42,1.25,11.63,2.86,12.39-2.03.96-6.52,1.98-12.53,2.97-18.2,4.56-26.22,8.72-52.52,12.55-78.86,2.4-16.5,7.69-33.53,4.78-48.66Z"/>
  <path class="cls-16" d="M812.31,870.28c-.12,0-.23-.01-.36-.04-.86-.2-1.41-1.06-1.22-1.93l10.83-47.96c.2-.87,1.04-1.4,1.93-1.22.86.2,1.41,1.06,1.22,1.93l-10.83,47.96c-.17.75-.83,1.25-1.57,1.25Z"/>
  <path class="cls-14" d="M735.35,547.68c-4.64-5.41-11.99-15.94-13.92-20.11-2.75-5.84-5.97-12.68-10.18-19.85-3.39-5.76-7.39-11.73-12.29-17.66-.3-.39-.56-.69-.77-.99-10.01-12.16-19.81-24.06-24.45-33.17-4.17-8.21-5.24-18.56-3.14-27.37,3.91-16.54,19.04-27.67,45.81-9.24,10.48,7.22,18.43,28.27,24.58,40.48.52.95.95,1.89,1.42,2.84,2.75,5.46,5.03,10.83,6.92,15.55.77,1.93,1.72,4.25,2.84,6.79,7.61,18.13,21.49,49.76,24.19,61.96,2.79,12.63-34.12,8.81-40.99.77Z"/>
  <path class="cls-3" d="M752.15,484.95c-9.97,7.35-21.61,15.98-22.22,16.84l-18.69,5.93-4,1.29-9.07-19.94-27.59-60.54c3.91-16.54,19.04-27.67,45.81-9.24,10.48,7.22,18.43,28.27,24.58,40.48.52.95.95,1.89,1.42,2.84,2.75,5.46,5.03,10.83,6.92,15.55.77,1.93,1.72,4.25,2.84,6.79Z"/>
  <polygon class="cls-13" points="724.52 444.04 732.25 597.19 685.85 588.68 704.41 420.06 724.52 444.04"/>
  <path class="cls-21" d="M732.22,354.52c-8.1-7.56-21.18-8.89-30.44-2.48-2.84,1.97-4.82,4.88-7.62,6.9-2.81,2.03-5.57,3.54-7.39,6.62-3.44,5.82-2.73,13.18-.27,19.25-1.96,3.15-3.47,6.58-3.6,10.34-.16,4.38,1.88,8.67,5.26,11.44,5.36,4.39,8.43,9.28,13.48,5.31,1.46,7.45,11.82,8.54,19.76,8.99,8.37.48,15.64-5.81,17.54-13.62,5.75,2.78,13.32.67,17.38-4.31,5.41-6.64,3.92-16.03-.08-23.03,4.06-2.82,7.36-6.98,7.94-12.02.64-5.56-1.81-10.5-6.62-13.32-7.44-4.36-18.43-6.04-25.34-.08Z"/>
  <path class="cls-21" d="M675.1,373.94c4.65-10.06,1.82-22.89-7.16-29.69-2.76-2.09-6.15-3.05-8.94-5.08-2.8-2.04-5.11-4.18-8.6-4.95-6.6-1.45-13.38,1.53-18.37,5.77-3.61-.87-7.34-1.24-10.95-.19-4.21,1.22-7.65,4.5-9.22,8.58-2.5,6.46.24,13.26,5.59,16.82-6.62,3.71-10.82,11.55-8.77,19.23,2.16,8.1,10.41,13.03,18.43,12.4-.84,6.33,3.53,12.86,9.53,15.16,8,3.07,16.96,2.13,22.37-3.86,3.95,2.98,8.42,1.37,13.38.35,5.48-1.13,9.41-5,10.58-10.46,1.81-8.43-.03-19.4-7.85-24.1Z"/>
  <rect class="cls-7" x="541.21" y="507.37" width="50.24" height="263.41"/>
  <path class="cls-13" d="M809.81,695.57c-48.93-32.25-92.5-63.76-145.95-85.68-17.76-13.31-40.75-19.61-62.32-11.49-24.2,9.11-38.41,33.75-39.71,58.93-.93,18.14,5.26,32.85,14.86,47.91,15.03,23.59,37.41,28.2,63.52,30.76,27.73,2.72,55.64,3.77,83.49,3.01,17.27-.47,36.21-1.92,54.12-.97,13.34.71,34.84,9.96,43.06-5.03,8.65-15.79,1.99-28.84-11.07-37.45Z"/>
  <path class="cls-3" d="M758.11,637.84c-.35.96-1.01,1.92-2.08,2.9-10.38,9.51-34.71,10.21-47.85,11.66-18.89,2.09-38.41,2.36-57.27-.18-18.06-2.44-35.51-8.26-53.64-10.36-12.49-1.45-24.59-4.73-36.31-9.16-2.34-12.36,12.36-66.53,15.9-82.13,5.41-23.87,11.89-47.31,19.31-70.62,5.92-18.5,4.52-38.66,16.37-54.17,8.4-11,23.57-15,36.57-17.3,15.9-2.81,31.45-2.94,47.1,1.58,6.95,2.05,15,4.13,20.67,9.04,1.11.94,2.13,2,3.03,3.2,1.62,2.13,2.81,4.52,3.75,7.08,1.88,4.69,3.03,9.76,5.07,14.11.68,1.45,1.36,2.9,2,4.39,2.34,5.2,4.48,10.61,5.5,16.03.85,4.31,1.02,8.65.13,12.96-2.09,9.8-9.29,17.6-15.51,25.49-5.58,7.07-10.74,15.04-11.34,24.04-.55,8.13-4.36,29.3-1.21,36.8,11.14,26.5,23.2,38.67,46.56,63.34,3.61,3.82,4.43,8.13,3.28,11.34Z"/>
  <path class="cls-13" d="M863.1,806.54c-.04,10.05-.39,20.2-1.16,29.91l-6.7-1.16-7.09-1.25-1.37-.26-7.09-1.2-11.86-2.06-8.12-1.42-.69-.13-8.16-1.42-15.73-2.71-1.46-.26-7.35-1.29-1.46-.26-12.59-2.19-5.54-15.34-2.88-7.95-.47-1.25-2.92-8.16-4.21-11.73-1.85-5.03-1.07-3.01-1.8-5.03s-7.13-19.72-7.13-19.72l-19.77-.99-5.28-.26-7.05-.34-4.3-.21-43.06-2.11-6.88-.34-3.18-.17-6.92-.34-35.49-1.76-6.96-.34-2.75-.13-6.79-.34-18.65-.9-8.25-2.06s3.91-13.97,12.42-32.87c1.16-2.58,2.41-5.29,3.78-8.04,1.25-2.62,2.58-5.2,3.95-7.78,6.19-11.73,13.88-24.24,23.25-35.97,1.8-2.28,3.65-4.47,5.59-6.62.13-.13.26-.3.39-.43,1.98-2.23,4.04-4.43,6.14-6.57,12.98-13.06,28.45-23.93,46.67-29.82,3.57-1.2,7.26-2.15,11.09-2.88,4.38-.86,8.68-1.42,13.15-1.68,11.95-.69,24.75.73,38.59,4.77,0,0,3.35,1.8,9.02,5.2.99.56,2.06,1.2,3.22,1.89,2.49,1.5,5.33,3.22,8.38,5.16.6.39,1.2.77,1.85,1.16,6.62,4.21,14.35,9.37,22.52,15.25,2.15,1.5,4.34,3.09,6.53,4.73.86.6,1.68,1.25,2.54,1.89,1.93,1.46,3.78,2.88,5.67,4.34,7.61,5.93,15.34,12.42,22.65,19.21,1.85,1.72,3.65,3.48,5.46,5.24.39.39.73.73,1.12,1.12,1.8,1.76,3.52,3.61,5.29,5.46,9.45,10.03,17.71,20.68,23.62,31.6,3.95,7.3,6.21,15.38,7.06,23.64.17,1.68.36,3.54.55,5.56.17,1.59.3,3.22.47,4.98.13,1.12.22,2.28.34,3.48.13,1.59.26,3.31.39,5.03.82,10.18,1.63,22.34,2.06,35.24.09,2.92.17,5.8.21,8.77,0,1.07.04,2.11.04,3.18.04,2.96.04,5.97.04,8.98Z"/>
  <g class="cls-1">
    <path class="cls-21" d="M863.01,794.37c-33-6.27-66.95-5.67-99.65,1.93l-2.92-8.16c33.6-7.86,68.45-8.72,102.35-2.54.09,2.92.17,5.8.21,8.77Z"/>
  </g>
  <g class="cls-1">
    <path class="cls-21" d="M860.35,745.35c-36.61.9-71.85,12.98-105.96,26.04l-1.07-3.01-1.8-5.03c34.81-13.36,70.69-25.44,108.03-26.47.17,1.59.3,3.22.47,4.98.13,1.12.22,2.28.34,3.48Z"/>
  </g>
  <g class="cls-1">
    <path class="cls-21" d="M788.11,640.71c-26.17,5.5-51.01,16.89-72.23,33.26-23.2,17.92-40.95,41.59-57.84,65.4l-3.18-.17-6.92-.34c18.48-26.25,37.73-52.38,63.38-72.15,20.07-15.51,43.27-26.47,67.72-32.61,2.15,1.5,4.34,3.09,6.53,4.73.86.6,1.68,1.25,2.54,1.89Z"/>
  </g>
  <g class="cls-1">
    <path class="cls-21" d="M754.68,617.68c-33.65,3.14-63.64,21.57-87.7,44.56-12.89,12.33-24.49,26-35.62,39.96-8.81,11.09-18.65,22.17-25.87,34.55l-2.75-.13-6.79-.34c7.56-14.44,19.04-27.2,29.01-39.79,11.9-14.95,24.32-29.52,38.37-42.54,22.47-20.84,49.54-37.68,79.75-43.31.99.56,2.06,1.2,3.22,1.89,2.49,1.5,5.33,3.22,8.38,5.16Z"/>
  </g>
  <g class="cls-1">
    <path class="cls-21" d="M795.12,824.84l-1.46-.26-7.35-1.29c-1.93-17.4-4.68-34.68-8.34-51.82-2.23-10.61-4.73-21.18-7.65-31.63-2.32-8.25-5.11-17.27-11.56-23.29-7.18-6.79-18.48-7.82-27.84-9.24-10.48-1.59-21.06-2.49-31.63-3.09-38.2-2.15-77.22-.6-114.04-11.82,1.25-2.62,2.58-5.2,3.95-7.78,20.71,6.06,42.28,8.21,63.81,9.2,21.7,1.03,43.49,1.12,65.14,3.27,18.43,1.85,41.51,3.01,52.29,20.37,4.98,7.95,7.39,17.14,9.71,26.13,2.88,11,5.41,22.04,7.61,33.17,3.14,15.9,5.59,31.97,7.35,48.08Z"/>
  </g>
  <g class="cls-1">
    <path class="cls-21" d="M827.82,830.51l-8.12-1.42-.69-.13c-2.15-20.15-5.24-40.18-9.28-60.03-4.17-20.54-8.38-43.14-21.57-60.07-11.56-14.78-29.26-22.86-46.58-28.88-21.1-7.35-42.75-13.32-64.15-19.85-19.77-6.06-39.58-12.07-59.38-18.09.13-.13.26-.3.39-.43,1.98-2.23,4.04-4.43,6.14-6.57,22.56,6.92,45.12,13.79,67.68,20.67,21.1,6.45,42.75,11.99,63.17,20.32,17.96,7.35,34.68,18.22,44.73,35.24,11.09,18.69,15.04,40.99,19.16,62.01,3.7,18.95,6.49,38.03,8.51,57.24Z"/>
  </g>
  <g class="cls-1">
    <path class="cls-21" d="M855.23,835.28l-7.09-1.25-1.37-.26c2.96-20.32,4.08-40.95-.04-61.19-8.04-39.58-34.2-73.09-63.98-99.17-30.77-26.94-66.04-48.68-100.25-71.12,4.21-.82,8.51-1.37,12.98-1.63,17.32,11.39,34.55,22.69,51.52,34.46,34.72,24.11,68.32,51.82,89.76,88.86,10.05,17.32,17.23,36.22,19.94,56.16,2.49,18.35,1.25,36.87-1.46,55.13Z"/>
  </g>
  <g>
    <path class="cls-14" d="M866.68,908.78c-.28.43-.9.57-1.43.55-4.22-.24-8.39-.48-12.61-.72-9.45-.53-18.85-1.06-28.29-1.59l-1.49-.07c-.95-2.9-1.41-4.94-1.43-6.79.05-2.5.91-4.52,2.69-7.52,7.78,1.55,11.94-1.55,12.12-1.5,4.85,1.06,8.46,2.2,11.89,3.67,1.95.84,3.85,1.81,5.88,2.95,2.07,1.15,14.59,7.88,12.68,11Z"/>
    <path class="cls-2" d="M866.68,908.78c-.28.43-.9.57-1.43.55-4.22-.24-8.39-.48-12.61-.72-9.45-.53-18.85-1.06-28.29-1.59l-1.49-.07c-.95-2.9-1.41-4.94-1.43-6.79,0,0,19.04,5.55,26.69-5.34,1.95.84,3.85,1.81,5.88,2.95,2.07,1.15,14.59,7.88,12.68,11Z"/>
  </g>
  <path class="cls-14" d="M811,877.15c-.99,5.67-2.01,11.68-2.97,18.2-.76,4.89-11.96,3.28-12.39,2.03-1.25-3.49-3.54-8.66-5.89-13.61l21.25-6.62Z"/>
  <g>
    <path class="cls-14" d="M837.81,910.84c-.28.43-.9.57-1.43.55-4.22-.24-8.39-.48-12.61-.72-9.45-.53-18.85-1.06-28.29-1.59l-1.49-.07c-.95-2.9-1.41-4.94-1.43-6.79.05-2.5.91-4.53,2.69-7.52,7.78,1.55,11.94-1.55,12.12-1.5,4.85,1.06,8.46,2.2,11.89,3.67,1.95.84,3.85,1.81,5.88,2.95,2.07,1.15,14.6,7.88,12.68,11Z"/>
    <path class="cls-15" d="M837.81,910.84c-.28.43-.9.57-1.43.55-4.22-.24-8.39-.48-12.61-.72-9.45-.53-18.85-1.06-28.29-1.59l-1.49-.07c-.95-2.9-1.41-4.94-1.43-6.79,0,0,19.04,5.55,26.69-5.34,1.95.84,3.85,1.81,5.88,2.95,2.07,1.15,14.6,7.88,12.68,11Z"/>
  </g>
  <path class="cls-14" d="M309.98,372.55c1.8-40.21,30.53-43.01,37.86-7.92,4.19,20.06,19.7,63.01,29.44,83.07,1.97,4.07,5.35,10.14,6.82,14.33,4.34,12.33-9.16,19.05-20.38,13.14-15.52-8.17-27.03-32.95-34.98-47.56-8.22-15.1-19.54-37.62-18.76-55.05Z"/>
  <path class="cls-14" d="M227.16,765.93c-4.11-16.28-12.5-10.9-28.14-10.28-3.46.14-1.76-16.8-16.16,8.52-7.97,14.02-20.94,26.08-30.67,38.91-14.32,18.89-27.34,38.17-29.65,62.41-1.12,11.76-.26,24.77,3.15,36.14,1.94,6.46,4.92,19.25,6.09,25.84.42,2.39,9.14,8.09,10.81,3.52,13.96-38.19,26.9-62.43,41.68-94,6.42-13.7,16.8-27.21,25.34-39.92,4.58-6.83,19.34-24.07,17.55-31.14Z"/>
  <path class="cls-14" d="M370.78,758.97c-9.91-13.56-15.67-5.43-29.94,1-3.15,1.42-7.93-14.92-11.8,13.95-2.14,15.98-9.65,32.03-13.86,47.57-6.2,22.88-11.06,45.64-4.12,68.98,3.37,11.33,9.03,23.07,16.46,32.33,4.22,5.26,11.77,16.01,15.32,21.68,1.28,2.05,11.5,4.08,11.34-.78-1.36-40.64,1.56-67.96,3.45-102.77.82-15.11,5.39-31.52,8.54-46.51,1.69-8.05,8.92-29.56,4.61-35.45Z"/>
  <path class="cls-13" d="M154.24,590.64c-2.29,25.46-4.36,81.15,10.28,152.22,1.77,8.61.29,17.6-4.23,25.13-18.12,30.22-62.34,112.06-36.38,152.13l24.91,9.23s65.66-129.39,81.73-159.34c1.09-2.04,1.88-4.21,2.35-6.48l42.9-209.16-103.53-22.16-11.98,31.94c-3.2,8.53-5.24,17.41-6.05,26.48Z"/>
  <path class="cls-13" d="M241.93,618.87s6.46,58.48,62.08,142.1c4.89,7.34,6.9,16.24,5.53,24.96-5.48,34.82-15.83,127.25,23.24,154.68l26.56-.77s12.43-144.57,16.11-178.35c.25-2.3.17-4.6-.25-6.88l-38.55-210-101.06,26.81,6.35,47.47Z"/>
  <path class="cls-3" d="M348.96,423.42c3.01-3.74,6.02-7.52,7.73-11.95,5.33-13.84.95-28.96-4.55-41.98-7-16.54-14.61-32.49-29.78-41.29-2.71-1.63-5.63-2.96-8.85-4.08-8.34-2.79-17.06-5.07-25.87-4.68-8.04.34-15.21,3.44-21.4,8.04-5.2,3.87-9.71,8.77-13.54,14.01-7,9.58-12.76,21.61-14.48,33.34-2.84,19.21-2.62,38.93-7.91,57.71-5.67,20.07-19.85,36.91-31.54,53.8-12.59,18.22-25.18,36.44-37.81,54.66,10.31,7.86,21.36,14.78,32.91,20.75,11.56,6.02,23.68,11,36.05,15.17,1.98.52,3.91,1.07,5.84,1.55,14.31,3.7,28.66,7.56,43.27,9.75,4.51.69,9.07,1.33,13.62,1.93,19.64,1.8,39.49,1.55,59.04-1.07,1.42-7.65-3.95-55.65-9.2-73.09-5.33-18-9.28-29.74-12.63-48.43-2.84-16.2,6.06-27.97,15.47-39.66,1.25-1.46,2.41-2.96,3.61-4.47Z"/>
  <path class="cls-17" d="M761.95,340.97c3.52,4.15,1.66,11.51-4.16,16.43-5.81,4.92-13.37,5.55-16.89,1.4-3.52-4.15-1.66-11.51,4.16-16.43,5.81-4.92,13.37-5.55,16.89-1.4Z"/>
  <path class="cls-21" d="M740.9,288.97c-3.42-2.52-7.27-4.52-11.21-6.11-17.58-7.08-38.06-6.57-55.27,1.36-15.03,6.93-33.12,22.89-36.48,40.03-3.53,18,5.77,39.71,18.34,52.18,5.66,5.61,13.16,10.34,21.08,9.48,1.61-.17,3.23-.59,4.58-1.5,1.98-1.33,3.15-3.55,4.33-5.62,10.78-19.01,28.46-33.21,47.22-44.42,7-4.18,14.68-8.52,17.97-15.98,3.14-7.11,1.36-15.73-3.15-22.05-2.04-2.86-4.57-5.3-7.4-7.39Z"/>
  <path class="cls-14" d="M754.63,370.39c-.92,3.18-2.2,6.23-3.81,8.99-6.09,10.29-16.22,16.77-26.59,19.59-17.53,4.79-37.65-1.31-47.26-18.34-8.4-14.92-8.08-36.6-4.84-53.93,3.54-18.98,14.83-29.51,30.87-32.68,10.56-2.05,21.92-1.76,30.92,4.41,8.96,6.12,14.71,18.04,14.59,30.33-.02,2.64-.3,5.33.01,7.89.12.93.29,1.86.62,2.73.79,2.13,2.02,3.74,3.07,5.45.74,1.26,1.38,2.62,1.94,4.02,2.46,6.57,2.44,14.37.49,21.54Z"/>
  <path class="cls-21" d="M683.91,304.38c-.12.21.27.69,1.11,1.27.88.62,2.27,1.47,4.06,2.43,11.66,6.33,40.41,18.37,59.42,20.69,1.28.16-.06-8.19-.73-11.93-.2-.98-.35-1.63-.39-1.75-.73-2.06-1.67-4.12-2.76-6.08-4.78-8.42-12.73-15.38-22.13-17.04-14.02-2.47-30.73-1.36-38.57,12.4Z"/>
  <path class="cls-21" d="M669.98,340.68s32.17-22.18,35.3-41.84c.11-.72-5.32-2.02-5.77-2.1-17.86-3.3-33.06,20.05-29.58,35.99.15.67.13,7.88.04,7.95Z"/>
  <path class="cls-14" d="M677,356.89c-3.07,4.49-10.66,4.64-16.94.33-6.28-4.3-8.88-11.43-5.81-15.92,3.07-4.49,10.66-4.64,16.94-.33,6.28,4.3,8.89,11.43,5.81,15.92Z"/>
  <path class="cls-9" d="M648.16,498.82c5.58,1.93,11.22,3.4,16.84,4.69,5.64,1.2,11.31,2.09,17,2.41,5.7.44,11.37-.02,17-.87,5.66-.87,11.07-2.8,16.58-5.01-4.67,3.56-10,6.66-15.88,8.12-5.82,1.56-11.92,2.23-17.94,1.84-12-.83-23.78-4.53-33.61-11.18Z"/>
  <path class="cls-19" d="M707.79,350.05c-.07,2.66.87,4.84,2.1,4.87,1.23.03,2.28-2.1,2.35-4.76.07-2.66-.87-4.84-2.1-4.87-1.23-.03-2.28,2.1-2.35,4.76Z"/>
  <path class="cls-19" d="M739.25,347.18c.67,2.58,2.18,4.41,3.37,4.1,1.19-.31,1.61-2.65.94-5.22-.67-2.57-2.18-4.41-3.37-4.1-1.19.31-1.61,2.65-.94,5.22Z"/>
  <path class="cls-11" d="M726.69,367.01c1.83,1.84,4.88,2.81,7.7,1.62,1.43-.66,2.5-1.88,2.91-3.31.45-1.38.22-3.11-.89-3.96.2,1.32-.18,2.37-.75,3.23-.61.84-1.36,1.55-2.21,1.9-1.83.86-4.13.72-6.75.51Z"/>
  <path class="cls-9" d="M730.06,377.07c-1.86-.3-3.61-.4-5.32-.61-1.7-.23-3.37-.42-4.95-.85-1.6-.37-3.11-.93-4.6-1.62-1.49-.73-2.83-1.72-4.36-2.84.53,1.78,1.61,3.47,3.11,4.71,1.5,1.25,3.32,2.07,5.18,2.55,3.75.85,7.66.38,10.95-1.34Z"/>
  <path class="cls-14" d="M750.78,576.93c3.77,7.56,6.98,15.42,9.89,23.31,2.33,6.31,4.26,12.77,5.51,19.38.4,2.14,1.47,21.51,1.87,21.66,0,0,16.75,6,16.88-2.18,0-.45.44-8.7.75-10.79.56-3.82,1.05-7.65,1.45-11.48,3.66-34.72-4.58-68.79-25.43-96.97-3.8-5.14-10.15-14.81-17.39-15.25-3.72-.22-9.7,3.92-12.23,6.66-4.65,5.03-8.85,10.52-7.54,16.69,1.75,8.27,10.73,24.03,15.44,30.68,4.1,5.79,7.65,11.94,10.82,18.3Z"/>
  <path class="cls-20" d="M264.7,182.71c-.23-.13-.44-.17-.65-.21-9.64-9.97-24.49-13.19-37.96-12.06-14.17,1.19-28.75,8.76-31.83,23.76-1.04,5.05-.54,13.09,3.84,16.69-7.44,7.61-6.43,19.62-5.17,29.51.87,6.82,1.2,13.51-.4,20.26-.79,3.35-1.93,6.61-3.46,9.69-1.35,2.72-2.99,6.27-5.97,7.51-1.89.79-2.17,3.5.03,4.15,8.66,2.56,18.64,2.95,26.63-1.88,6.23-3.78,10.69-10.66,10.64-18,14.56-.68,24.79-13.77,25.84-27.84.14-1.88.05-3.73-.02-5.61-.04-1.23-.1-2.26.74-3.28.54-.66,1.34-1.11,1.94-1.7,2.37-2.33,3.3-5.56,3.69-8.78.41-3.35.23-6.96,1.49-10.15,1.44-3.65,5.15-5.03,8.22-7,4.8-3.08,9-11.37,2.41-15.07Z"/>
  <path class="cls-20" d="M349.75,184.5c-17.14-17.58-50.04-12.99-70.98-6.28-17.65,5.66-31.43,16.93-37.11,34.88-4.93,15.58-5.17,32.68-.34,48.32,2.34,7.58,7.39,17.78,16.03,19.5,4.4.88,9.02-.93,12.4-3.87,6.04-5.25,7.96-12.84,11.5-19.67,3.75-7.24,9.68-12.86,16.57-17.13,12.48-7.74,23.62-5.13,36.92-11.22,4.88-2.23,14.35.63,18.09-3.29,5.58-5.85,7.2-26.09,3.48-33.28-1.39-2.69-4.57-5.91-6.57-7.96Z"/>
  <path class="cls-14" d="M383.58,956.63c-.26.43-.86.6-1.37.6-4.13-.04-8.21-.07-12.33-.11-9.24-.07-18.43-.15-27.67-.22h-1.46c-1.04-2.79-1.55-4.77-1.64-6.57-.05-2.45.72-4.47,2.35-7.48,7.65,1.15,11.6-2.08,11.77-2.04,4.77.81,8.34,1.75,11.73,3.03,1.93.73,3.83,1.58,5.85,2.61,2.06,1.03,14.53,7.03,12.78,10.17Z"/>
  <path class="cls-13" d="M383.57,956.63c-.26.43-.86.6-1.37.6-4.12-.04-8.21-.09-12.33-.13-9.24-.04-18.43-.13-27.67-.21h-1.46c-.21-.56-.39-1.07-.56-1.59-.64-1.98-.99-3.52-1.07-4.98,0,0,18.78,4.55,25.87-6.45,1.93.73,3.82,1.55,5.84,2.58,1.8.9,11.52,5.59,12.76,8.85.21.47.21.95,0,1.33Z"/>
  <path class="cls-14" d="M386.16,464.25c21.31,12.17,42.79,22.97,67.33,28.13,0,0,1.41,15.41-5.53,20.58-18.33-1.44-36.97-5.63-54.31-9.76-16.61-3.95-30.18-14.81-43.29-25.3-3.38-2.7-6.52-4.61-5.74-9.31.64-3.84,3.44-7.41,6.22-9.97,3.9-3.6,9.15-6.66,14.62-5.38,2.98.69,5.67,2.27,8.31,3.82,4.14,2.43,8.26,4.84,12.39,7.2Z"/>
  <path class="cls-17" d="M365.59,238.19c3.82,5.07,1.16,13.52-5.94,18.87-7.1,5.35-15.96,5.58-19.78.51-3.82-5.07-1.16-13.52,5.94-18.87,7.1-5.35,15.96-5.58,19.78-.51Z"/>
  <path class="cls-14" d="M355.1,271.99c-1.29,3.64-2.98,7.11-5.04,10.22-7.79,11.59-20.02,18.47-32.3,21.07-20.76,4.41-43.8-4.03-53.86-24.51-8.8-17.95-6.99-43.2-2.06-63.18,5.39-21.88,19.25-33.42,38.16-36.05,12.44-1.69,25.67-.59,35.75,7.19,10.04,7.73,15.95,22.01,14.98,36.33-.27,4.18-1.11,8.54.04,12.42.7,2.42,2.06,4.44,3.21,6.56.78,1.51,1.44,3.15,1.99,4.81,2.43,7.82,1.89,16.91-.86,25.14Z"/>
  <path class="cls-19" d="M342.76,242.99c.37,2.89-.41,5.37-1.75,5.54-1.33.17-2.71-2.03-3.08-4.92-.37-2.89.41-5.36,1.75-5.54,1.33-.17,2.72,2.03,3.08,4.92Z"/>
  <path class="cls-19" d="M307.06,244.21c-.87,2.78-2.62,4.7-3.91,4.29-1.28-.4-1.61-2.98-.74-5.76.88-2.78,2.62-4.7,3.91-4.29,1.28.4,1.61,2.98.74,5.76Z"/>
  <path class="cls-11" d="M322.79,259.83c2.37.37,4.41.68,6.07.21.77-.18,1.47-.64,2.07-1.2.56-.59.98-1.33.89-2.36.98.74,1.11,2.09.63,3.11-.44,1.06-1.48,1.89-2.81,2.26-2.63.63-5.33-.41-6.85-2.02Z"/>
  <path class="cls-14" d="M307.88,315.78c2.79,6.19,5.37,12.42,7.73,18.73-1.16,6.32-6.45,11.26-12.93,11.73-6.7.52-15.25-.3-22.47-5.67-4.34-3.22-6.45-8.77-5.24-14.09l7.73-34.98,37.43,5.84-2.36,19.64c-.73-1.68-1.46-3.39-2.23-5.07-2.28-5.03-9.93-1.16-7.65,3.87Z"/>
  <path class="cls-14" d="M266.67,251.12c-3.88,5.03-12.73,4.7-19.77-.74-7.04-5.44-9.6-13.92-5.71-18.94,3.88-5.03,12.73-4.7,19.77.74,7.04,5.43,9.6,13.92,5.71,18.94Z"/>
  <path class="cls-20" d="M352.55,226.11s-26.52-18.55-27.17-30.49c0,0-27.71,38.24-68.29,34.66,0,0-4.16-61.33,59.56-56,0,0,46.6,12.83,35.9,51.84Z"/>
  <path class="cls-14" d="M165,954.01c-.4.3-1.02.24-1.5.04-3.81-1.58-7.58-3.14-11.39-4.72-8.54-3.53-17.04-7.04-25.58-10.57l-1.36-.55c.09-2.98.34-5,.94-6.71.87-2.29,2.35-3.87,4.98-6.05,6.66,3.93,11.53,2.42,11.68,2.52,4.12,2.54,7.08,4.75,9.74,7.21,1.52,1.4,2.95,2.9,4.44,4.61,1.53,1.73,10.84,11.96,8.04,14.21Z"/>
  <path class="cls-13" d="M165,954c-.4.3-1.02.24-1.5.04-3.81-1.58-7.58-3.15-11.39-4.74-8.55-3.5-17.04-7.02-25.58-10.56l-1.35-.55c.01-.6.04-1.14.08-1.68.14-2.07.4-3.64.87-5.02,0,0,15.71,11.26,26.4,3.71,1.52,1.4,2.97,2.87,4.45,4.58,1.34,1.51,8.59,9.49,8.52,12.99.02.52-.16.96-.5,1.23Z"/>
  <rect class="cls-10" x="309.07" y="498.07" width="54.75" height="35.65" transform="translate(-15.04 10.13) rotate(-1.69)"/>
  <path class="cls-18" d="M349.46,498.09c-.7,5.94-6.52,10.13-12.99,9.37-6.47-.77-11.14-6.2-10.44-12.14.7-5.94,6.52-10.13,12.99-9.37,6.47.77,11.14,6.2,10.44,12.14Z"/>
  <rect class="cls-4" x="512.27" y="507.37" width="30.49" height="263.41"/>
  <rect class="cls-4" x="444.46" y="507.37" width="97.37" height="15.65"/>
  <path class="cls-9" d="M304.08,273.64c3.06,3.75,6.54,5.1,10.53,5.47,1.97.3,4.07.21,6.23.22,2.18-.06,4.4-.2,6.85-.03-1.88,1.52-4.01,2.62-6.3,3.33-1.14.4-2.35.52-3.55.76-1.24.02-2.46.17-3.73-.02-2.49-.3-5.11-1.18-7.05-3-1.93-1.76-3.2-4.27-2.99-6.73Z"/>
  <path class="cls-14" d="M458.56,492.84c5.54.95,10.43,3.6,16.02,4.42,1.43.21,6.4.06,6.12,2.76-.52,4.88-4.28,5.64-8.08,5.56-2.36-.05-4.8-.17-7.09.47-1.96.55-3.74,1.58-5.51,2.61-.78.45-3.9,2.94-4.75,2.37-.28-.19-.43-.55-.55-.89-1.83-4.91-9.09-12.46-8.26-17.77,3.09-1.16,9.95.09,12.1.46Z"/>
  <path class="cls-14" d="M474.3,522.8c-2.32-3.3-4.89-6.52-7.87-8.91,0,0-3.99,4.92-3.99,4.92-.14.17,1.53,2.58,1.65,2.77,1.28,2.05,2.6,4.69,4.57,6.17,1.61,1.21,3.81.94,5.04-.67.91-1.21,1.03-2.82.61-4.27Z"/>
  <path class="cls-14" d="M467.73,523.83c-2.32-3.3-4.89-6.52-7.87-8.92,0,0-3.99,4.92-3.99,4.92-.14.17,1.53,2.58,1.65,2.77,1.28,2.05,2.6,4.69,4.57,6.17,1.61,1.21,3.81.94,5.04-.67.91-1.21,1.03-2.82.61-4.27Z"/>
  <path class="cls-14" d="M481.83,522.15c0-.16-.02-.32-.04-.47-.21-1.52-1.23-2.98-1.95-4.3-1.08-2.01-2.28-3.97-3.67-5.78,0,0-6.19,3.23-6.2,3.23-.69.38,1.83,5.73,2.06,6.28.99,2.31,2.54,6.16,5.51,6.26,2.76.09,4.4-2.69,4.29-5.2Z"/>
  <path class="cls-14" d="M487.74,518.79c-.79-1.95-2.64-3.64-3.88-5.33-1.02-1.38-3.1-3.99-4.53-4.86-.95.98-.34,2.21-1.18,3.29-.23.29-2.08,2.21-1.98,2.55.94,3.28,2.3,6.79,4.28,9.59.42.59.9,1.15,1.51,1.53,3.2,1.94,6.59-1.88,6.25-4.99-.07-.6-.23-1.2-.47-1.78Z"/>
  <path class="cls-14" d="M453.41,493.31c9.59,3.46,22.19,10.29,27.56,16.88.36.44,5.94,11.9-18.55,16.03-.36.06-4.93-2.07-7.25-3.19-3.7-1.79-10.14-1.8-13.54-4.24-2.86-2.05-5.51-4.8-6.62-8.26-2.07-6.49-1.24-13.72,4.64-17.01,4.1-2.3,9.86-1.61,13.76-.21Z"/>
  <path class="cls-14" d="M309.59,359.23c-20.92-1.54-36.95-23-43.34-31.76,6.19-4.6,13.36-7.69,21.4-8.04,8.81-.39,17.53,1.89,25.87,4.68,3.22,1.12,6.14,2.45,8.85,4.08,3.14,7.76,3.74,13.75,3.16,18.28-1.01,7.94-7.96,13.34-15.94,12.75Z"/>
  <path class="cls-14" d="M317.77,316.98l-2.02,16.67c-.04.3-.09.6-.13.86-2.36-6.32-4.94-12.55-7.73-18.73-2.28-5.03,5.37-8.9,7.65-3.87.77,1.68,1.5,3.39,2.23,5.07Z"/>
  <path class="cls-13" d="M341.53,491.05c-.77,5.5-9.02,3.31-8.34-2.11,6.66-52.25.86-105.28-17.58-154.43.04-.26.09-.56.13-.86l2.02-16.67c23.5,54.49,32.1,115.25,23.76,174.07Z"/>
  <path class="cls-14" d="M373.53,476.66c22.8,9.09,45.58,16.79,70.59,18.47,0,0,3.54,15.06-2.6,21.15-18.35,1.13-37.69,1.51-55.14-2.1-13.78-2.85-34.92-11.69-49.36-20.25-3.72-2.21-4.13-2.43-4.01-7.19.1-3.89,2.37-7.81,4.77-10.74,3.36-4.11,8.13-7.87,13.72-7.37,3.05.27,5.93,1.45,8.76,2.62,4.44,1.83,8.85,3.64,13.27,5.4Z"/>
  <path class="cls-16" d="M348.88,461.06c6.57,4.5,13.4,8.52,20.42,12.1,7.09,3.44,14.28,6.58,21.93,8.36,7.73,2.01,15.28,4.34,22.95,6.42,7.65,1.94,15.3,4.55,22.93,5.82l-.39.07c2.33-.88,4.67-1.43,7.07-1.77,2.39-.36,4.82-.39,7.19-.06-4.76.09-9.45,1.3-13.58,3.32-.12.06-.27.08-.4.07-8.13-.89-15.81-2.72-23.55-4.67-7.7-1.97-15.45-3.93-23.01-6.23-7.8-2.05-15.31-5.27-22.2-9.36-6.93-4.03-13.47-8.69-19.36-14.07Z"/>
  <path class="cls-13" d="M336.54,481.96c-10.39-29.94-5.27-62.92-16.68-92.6-10.27-26.71-32.27-46.97-42.39-73.96-.77-2.06-8.87,4.9-7.48,9.54,8.41,28.07,31.58,40.63,41.89,67.62,11.21,29.34,5.99,62.08,16.38,91.71,1.82,5.19,10.1,2.93,8.28-2.31Z"/>
  <path class="cls-14" d="M343.2,496.64c-16.72-5.29-44.22-36.31-54.66-49.29-.73-.9-1.46-1.85-2.23-2.79-10.48-13.32-23.81-31.93-26-48.08-5.33-39.88,28.02-47.35,41.47-14.14,5.89,14.52,17.1,40.35,28.92,58.95,3.65,5.76,7.35,10.79,10.96,14.61,9.28,9.8,22.17,15.98,28.36,20.11,10.87,7.26-14.74,24.45-26.81,20.63Z"/>
  <path class="cls-3" d="M323.09,424.96c-12.96,7.67-25.72,15.98-36.78,19.59-10.48-13.32-23.81-31.93-26-48.08-5.33-39.88,28.02-47.35,41.47-14.14,5.89,14.52,9.5,24.02,21.31,42.63Z"/>
  <path class="cls-12" d="M322.19,425.8c-.58,0-1.15-.32-1.43-.87-11.21-21.65-28.31-53.54-28.48-53.87-.42-.78-.13-1.76.66-2.18.79-.42,1.76-.13,2.18.66.17.32,17.28,32.23,28.5,53.9.41.79.1,1.77-.69,2.17-.24.12-.49.18-.74.18Z"/>
  <path class="cls-12" d="M286.31,446.17c-.55,0-1.08-.28-1.38-.78l-31.54-52.34c-.46-.76-.21-1.75.55-2.21.76-.46,1.75-.21,2.21.55l31.54,52.34c.46.76.21,1.75-.55,2.21-.26.15-.55.23-.83.23Z"/>
  <rect class="cls-4" x="762.16" y="907.6" width="107.51" height="16.5"/>
  <g class="cls-1">
    <path class="cls-21" d="M823.01,670.62c-.13.09-.26.13-.43.21-38.59,17.19-73.65,41.55-103.26,71.54l-7.05-.34-4.3-.21c30.77-32.61,67.68-58.91,108.46-77.56,1.85,1.72,3.65,3.48,5.46,5.24.39.39.73.73,1.12,1.12Z"/>
  </g>
  <path class="cls-13" d="M697.96,408.98s30.94,45.38,11.86,168.61c0,0,3.09,18.56,24.24,27.84,0,0,18.61-129.92-9.22-179.21-1.97-3.49-4.89-6.31-8.33-8.36-5.17-3.08-13.27-7.58-18.54-8.9Z"/>
  <path class="cls-14" d="M700.95,424.68l12.72-32.68-27.96-13.02-15.62,32.2c-2.91,5.99-1.98,12.96,2.28,16.63,4.23,3.64,10.34,7.01,17.88,6.03,4.57-.6,8.77-4.19,10.7-9.15Z"/>
  <path class="cls-14" d="M698.61,452.94s-31.71-22.43-39.45-47.57c0,0,22.3-5.12,37.76,1.35.44.18.87.38,1.3.58,15.47,7.35.39,45.63.39,45.63Z"/>
  <path class="cls-13" d="M668.64,403.82s43.86,153.33-35.78,207.6c-8.32,5.67-18.45,8.07-28.44,6.85l-45.67-5.61s.26-218.31,109.9-208.83Z"/>
  <path class="cls-14" d="M654.71,449.35c2.43,10.21,2.66,26.18,2.89,42.36.24,17.27.52,34.9,3.59,46.16,1.19,4.41,14.09,22.58,15.63,28.89,2.5,10.26-24.44,21.55-35.58,14.95-15.44-9.12-24.41-50.55-29.7-66.43-1.61-4.85-3.36-10.4-4.83-16.33-3.65-14.04-6.02-30.12-2.43-43.35,12.99-48.14,44.3-31.96,50.43-6.25Z"/>
  <path class="cls-3" d="M656.2,443.53c2.43,10.21,6.74,30.73,1.4,48.18l-50.88,7.25c-3.65-14.04-7.99-30.85-4.4-44.09,12.99-48.14,47.76-37.05,53.88-11.34Z"/>
  <path class="cls-6" d="M863.1,806.54c0-3.01,0-6.02-.04-8.98-4.77-1.38-9.63-2.58-14.52-3.52-1.16-13.58-3.78-26.98-8.21-40.13-.13-.39-.26-.77-.39-1.12,4.77-.69,9.58-1.33,14.39-1.8,2.11-.21,4.25-.43,6.4-.6-.21-3.01-.47-5.84-.73-8.51-1.59.09-3.18.26-4.77.39-6.14.56-12.25,1.37-18.35,2.32-7.78-19.42-19.08-37.51-33.26-52.85-.73-.77-1.55-1.55-2.28-2.32,8.59-5.11,17.57-9.84,26.94-13.32-2.11-2.23-4.21-4.43-6.4-6.57-4.43,1.72-8.72,3.7-12.89,5.84-4.73,2.45-9.32,5.07-13.92,7.78-10.01-9.58-20.93-18.13-32.23-26.21,10.06-4.68,20.37-8.68,30.94-11.86-2.75-2.15-5.5-4.25-8.21-6.23-10.48,3.44-20.75,7.65-30.68,12.46-3.18-2.19-6.36-4.38-9.54-6.53-7.61-5.16-15.25-10.27-22.9-15.43,9.02-3.78,18.43-6.75,27.97-9.11,2.02-.52,4.08-.95,6.1-1.38-3.78-2.41-7.26-4.51-10.23-6.32-11.04,2.79-21.87,6.36-32.27,11.17-10.57-7.13-21.14-14.27-31.71-21.36-3.82.73-7.52,1.68-11.09,2.88,11.34,7.61,22.69,15.21,33.99,22.86-.64.34-1.29.64-1.93,1.03-13.32,7.43-25.22,17.14-36.31,27.63-16.16-5.03-32.36-10.06-48.56-15.13-2.06,2.28-4.04,4.64-5.97,7.05,15.94,4.9,31.88,9.75,47.83,14.65-10.57,10.66-20.67,21.87-30.08,33.6-14.95-1.55-29.95-3.09-44.9-4.64-1.38,2.79-2.66,5.54-3.82,8.16,14.18,1.46,28.32,2.96,42.45,4.43-.21.3-.47.6-.69.9-7.43,9.88-14.39,20.15-20.5,30.85l9.71.47c6.45-10.87,13.75-21.18,21.57-31.15,14.22,1.46,28.45,2.96,42.71,4.43-1.63,1.8-3.27,3.57-4.81,5.46-6.19,7.43-11.9,15.25-17.06,23.38l10.05.52c6.75-10.01,14.31-19.42,22.52-28.23,7.52.77,15.04,1.59,22.56,2.36,11.09,1.16,22.22,2.19,33.3,3.48-8.21,5.84-16.24,11.9-23.89,18.43-2.41,2.06-4.81,4.17-7.13,6.27l12.33.6c9.67-8.21,19.98-15.81,30.38-23.03,1.63.69,3.09,1.59,4.34,2.92,3.27,3.52,4.38,9.07,5.72,13.54,2.49,8.25,4.73,16.59,6.88,24.97-6.27,2.23-12.46,4.64-18.61,7.35l2.92,8.04c1.42-.6,2.79-1.16,4.13-1.72,4.51-1.89,9.11-3.65,13.71-5.37,1.98,8.12,3.74,16.29,5.41,24.49-5.24.99-10.48,2.23-15.64,3.74l2.88,7.95c4.77-1.33,9.58-2.49,14.44-3.39.13.52.21,1.03.34,1.55,1.2,6.45,2.36,12.89,3.35,19.38l8.81,1.55c-1.2-7.99-2.62-15.94-4.12-23.89,6.06-.82,12.16-1.29,18.26-1.5,0,.17,0,.3.04.43,1.29,9.28,2.28,18.61,3.01,27.93l8.85,1.55c-.73-10.01-1.72-20.02-3.05-29.95,7.95.17,15.9.95,23.81,2.19.39,6.79.43,13.62,0,20.54-.21,3.57-.47,7.13-.77,10.7l8.47,1.46c.3-3.05.52-6.06.73-9.07.47-7.39.52-14.74.22-22.04,4.73.99,9.41,2.19,14.01,3.61ZM787.51,687.77c-4.3,2.71-8.59,5.46-12.81,8.25-6.06-4.56-12.72-8.21-19.77-11.13-8.42-3.52-17.19-6.23-25.91-8.9,8.04-5.46,16.46-10.36,25.09-14.82,11.64,8.21,22.99,16.84,33.39,26.6ZM701.14,640.41c3.95-2.54,7.99-4.81,12.16-6.92,5.63,3.82,11.26,7.61,16.89,11.39,5.37,3.61,10.74,7.18,16.07,10.83-9.58,5.11-18.82,10.79-27.67,17.1-13.02-4.08-26.04-8.12-39.1-12.16-1.03-.34-2.02-.64-3.05-.95,7.69-7.09,15.86-13.66,24.71-19.29ZM683.96,702.5c-10.06-1.03-20.07-2.06-30.12-3.14-4.47-.43-8.94-.9-13.36-1.37,6.27-7.61,12.85-14.95,19.64-22.13,3.09-3.27,6.23-6.53,9.45-9.67,13.62,4.17,27.2,8.42,40.74,12.76-9.28,7.22-18.13,15.08-26.34,23.55ZM753.7,710.07c-7.82-2.15-16.76-2.06-24.36-2.84-11.43-1.2-22.86-2.36-34.29-3.57,7.91-7.73,16.33-14.91,25.22-21.53,6.06,1.93,12.12,3.87,18.13,5.84,9.97,3.27,19.98,7.09,28.7,13.06-1.76,1.2-3.52,2.36-5.29,3.52-2.71,1.8-5.41,3.65-8.12,5.5ZM780.04,758.19c-1.8-6.92-3.65-13.79-5.67-20.67-2.41-8.34-4.47-17.83-11.6-23.25,3.74-2.58,7.56-5.07,11.34-7.56,6.45,6.19,11.3,13.79,15.08,22.04,3.57,7.73,6.45,15.77,8.94,23.93-6.1,1.68-12.12,3.52-18.09,5.5ZM787.94,792.4c-1.76-8.68-3.74-17.32-5.84-25.91,6.02-2.06,12.16-3.87,18.3-5.54,2.54,9.84,4.51,19.85,6.1,29.82-6.19.21-12.42.73-18.56,1.63ZM806.38,750.55c-1.98-6.57-4.25-13.11-6.83-19.51-4.17-10.31-9.58-20.41-17.32-28.45-.26-.26-.56-.52-.82-.77,4.13-2.66,8.29-5.24,12.46-7.82,14.78,15.21,26.17,32.91,34.03,52.04-7.22,1.29-14.39,2.79-21.53,4.51ZM815.36,790.59c-1.68-10.74-3.82-21.36-6.62-31.84,7.35-1.8,14.78-3.35,22.26-4.6,4.34,12.33,7.31,25.22,8.72,38.42-8.08-1.2-16.2-1.89-24.36-1.98Z"/>
  <rect class="cls-4" x="512.27" y="736.87" width="264.71" height="61.29"/>
  <rect class="cls-4" x="758.81" y="743.63" width="17.53" height="180.47"/>
  <g>
    <ellipse class="cls-8" cx="608.33" cy="810.06" rx="145.72" ry="2.61"/>
    <path class="cls-8" d="M626.15,810.06c0,9.84-7.98,17.82-17.82,17.82s-17.82-7.98-17.82-17.82,7.98-17.82,17.82-17.82,17.82,7.98,17.82,17.82Z"/>
    <path class="cls-8" d="M610.94,810.06c0,80.48-1.17,145.72-2.61,145.72s-2.61-65.24-2.61-145.72,1.17-145.72,2.61-145.72,2.61,65.24,2.61,145.72Z"/>
    <path class="cls-8" d="M610.17,811.9c-56.91,56.91-103.87,102.21-104.88,101.2-1.02-1.02,44.29-47.98,101.2-104.89,56.91-56.91,103.87-102.22,104.89-101.2,1.02,1.02-44.29,47.98-101.2,104.89Z"/>
    <path class="cls-8" d="M606.49,811.9c-56.91-56.91-102.22-103.87-101.2-104.89,1.02-1.02,47.98,44.29,104.88,101.2,56.91,56.91,102.22,103.87,101.2,104.89-1.02,1.02-47.98-44.29-104.89-101.2Z"/>
    <path class="cls-5" d="M615.45,810.06c0,3.93-3.19,7.12-7.12,7.12s-7.12-3.19-7.12-7.12,3.19-7.12,7.12-7.12,7.12,3.19,7.12,7.12Z"/>
    <path class="cls-8" d="M608.33,962.34c-84.78,0-153.75-68.97-153.75-153.75s68.97-153.75,153.75-153.75,153.75,68.97,153.75,153.75-68.97,153.75-153.75,153.75ZM608.33,676.33c-72.93,0-132.26,59.33-132.26,132.26s59.33,132.26,132.26,132.26,132.26-59.33,132.26-132.26-59.33-132.26-132.26-132.26Z"/>
  </g>
  <g>
    <path class="cls-14" d="M758.03,626.12c-2.89,4.11-4.35,8.72-7.34,12.79-.76,1.04-3.95,4.18-2.16,5.47,3.24,2.33,6.03.31,8.35-2.19,1.44-1.56,2.89-3.2,4.7-4.33,1.55-.97,3.27-1.56,4.99-2.14.76-.26,4.19-.92,4.37-1.78.06-.29-.07-.58-.19-.84-1.79-3.87-1.98-11.04-5.67-13.4-2.42,1.31-5.93,4.84-7.05,6.43Z"/>
    <path class="cls-16" d="M754.36,633.18c4.46,2.31,7.88,5.72,12.42,7.95,1.16.57,5.44,1.88,4.44,3.85-1.79,3.56-5.21,3.06-8.42,1.91-2-.71-4.04-1.5-6.17-1.67-1.82-.14-3.62.13-5.41.41-.79.12-4.14,1.12-4.7.44-.19-.23-.21-.54-.22-.84-.2-4.26-2.88-10.28-.7-14.08,2.24-.17,7.03,1.12,8.76,2.02Z"/>
    <path class="cls-14" d="M774.41,651.13c1.4.64,2.01,2.28,1.38,3.68-.13.29-.33.53-.54.75-1.12,2.13-2.53,3.85-4.02,5.33-.17.17-.33.38-.5.54-1.51,1.48-3.09,2.63-4.53,3.53-3.77,2.98-5.23,2.68-5.23,2.68-1.87-.53-.83-3.53,2.16-6.98,1.14-1.33,2.43-2.65,3.68-3.9.15-.18.29-.36.47-.5,2.04-2.07,2.92-2.81,3.3-3.09.04-.22.06-.45.15-.67.64-1.4,2.28-2.01,3.68-1.38Z"/>
    <path class="cls-14" d="M772.33,653.83c-.97,2.02-2.91,4.65-4.53,6.59-.35.69-.73,1.05-1.16,1.33-1.9,1.98-3.74,3.41-5.48,4.5-4.19,3.48-5.51,2.56-5.51,2.56-2.31-1.54-1.11-3.33,2.14-7.31,1.43-1.76,3.01-3.6,4.55-5.22,3.06-3.36,5.36-5.34,5.36-5.34l4.62,2.9Z"/>
    <path class="cls-14" d="M768.89,652.16c-1.41,2.38-3.49,5.04-5.36,7-.35.36-.65.7-.93.97-2.5,2.41-5.12,4.25-7.47,5.63-4.06,2.9-5.55,2.47-5.55,2.47-2.47-.82-1.98-2.93,1.53-6.94,1.88-2.17,4.17-4.49,6.35-6.63,4.15-4.1,7.32-6.85,7.32-6.85l4.12,4.36Z"/>
    <path class="cls-14" d="M759.33,657.03c1.95-1.95,3.82-4.22,5.38-6.97l-2.96-5.39s-4.13,3.16-7.8,7.25c-1.96,2.07-3.66,4.21-5.24,6.07-3.56,4.13-3.85,6.72-1.69,7.2,0,0,1.51.35,5.54-2.67,1.86-1.19,3.88-2.66,5.88-4.54.16-.15.31-.35.47-.5.07-.06.16-.09.23-.15.09-.09.12-.21.2-.3Z"/>
    <path class="cls-14" d="M762.23,623.17c-.85,1.7-1.15,3.52-1.04,5.3-3.33,4.58,1.65,11.42-5.27,21.54-.27.4,14.44,5.04,19.21,5.52.32.03,5.38-9.18,6.52-11.05,1.81-2.98,3.45-6.32,4.71-9.58,1.06-2.74,1.61-5.82.67-8.6-1.26-3.69-4.85-5.74-8.58-6.33-.65-.57-1.36-1.08-2.17-1.49-5.18-2.58-11.47-.48-14.05,4.69Z"/>
    <path class="cls-14" d="M767.81,649.76c.69-1.37,2.35-1.93,3.73-1.25,1.37.69,1.93,2.35,1.25,3.73-.69,1.37-2.35,1.93-3.73,1.25-1.37-.69-1.93-2.35-1.25-3.73Z"/>
    <path class="cls-14" d="M762.53,647.36c.74-1.49,2.55-2.09,4.04-1.35,1.49.74,2.09,2.55,1.35,4.04-.74,1.49-2.55,2.09-4.04,1.35-1.49-.74-2.09-2.55-1.35-4.04Z"/>
    <path class="cls-14" d="M751.4,662.93c-.94,1.21-.73,2.96.48,3.9.25.2.54.31.82.41,1.98,1.37,4.02,2.25,6.03,2.87.23.07.46.19.69.25,2.02.61,3.95.91,5.65,1.04,4.72.9,5.88-.04,5.88-.04,1.42-1.34-.89-3.51-5.14-5.19-1.63-.65-3.37-1.23-5.07-1.76-.21-.09-.42-.18-.65-.22-2.77-.89-3.89-1.14-4.35-1.22-.14-.18-.26-.37-.45-.52-1.21-.94-2.96-.73-3.9.48Z"/>
    <path class="cls-14" d="M754.49,664.36c1.8,1.34,4.73,2.78,7.06,3.75.63.45,1.13.59,1.64.64,2.6.87,4.89,1.3,6.94,1.46,5.33,1.15,6.07-.28,6.07-.28,1.33-2.43-.55-3.46-5.28-5.49-2.08-.9-4.33-1.8-6.45-2.53-4.27-1.57-7.22-2.26-7.22-2.26l-2.75,4.71Z"/>
    <path class="cls-14" d="M756.77,661.29c2.35,1.46,5.42,2.85,7.98,3.73.48.16.9.32,1.27.43,3.33.98,6.5,1.4,9.23,1.54,4.94.69,6.06-.38,6.06-.38,1.81-1.87.4-3.51-4.56-5.45-2.67-1.05-5.77-2.05-8.69-2.95-5.58-1.72-9.66-2.69-9.66-2.69l-1.64,5.77Z"/>
    <path class="cls-14" d="M767.49,661.19c-2.63-.83-5.34-1.97-7.99-3.69l.14-6.15s5.12.89,10.27,2.83c2.7.93,5.19,2.04,7.45,2.96,5.07,2.01,6.52,4.18,4.82,5.6,0,0-1.18,1.01-6.15.19-2.2-.2-4.67-.57-7.31-1.31-.21-.06-.43-.17-.64-.23-.09-.02-.18,0-.27-.03-.12-.04-.2-.13-.31-.18Z"/>
    <path class="cls-14" d="M749.18,632.62c1.47.93,2.79,2.15,3.92,3.44,3.08,3.5,4.33,8.03,7.18,11.61,1.89,2.37,4.32,4.29,6.99,5.71.43.23-10.48,11.15-14.49,13.77-.27.18-9.02-5.65-10.89-6.79-4.36-2.64-9.38-5.54-11.85-10.19-2.56-4.82-.51-10.77,3.03-14.56,2.45-2.62,5.94-4.43,9.52-4.76,2.41-.22,4.63.53,6.59,1.77Z"/>
    <path class="cls-14" d="M755.12,657.78c-1.24-.9-2.98-.62-3.88.62-.9,1.24-.62,2.98.62,3.88,1.24.9,2.98.62,3.88-.62.9-1.24.62-2.98-.62-3.88Z"/>
    <path class="cls-14" d="M758.69,653.21c-1.35-.98-3.23-.68-4.2.67-.98,1.35-.68,3.23.67,4.2,1.35.98,3.23.68,4.2-.67.98-1.35.68-3.23-.67-4.2Z"/>
    <path class="cls-16" d="M774.93,656.2c-1.75-.15-3.51-.4-5.21-.95-1.7-.53-3.32-1.33-4.84-2.27-1.49-1-2.85-2.22-3.96-3.62-1.16-1.37-1.9-3.03-2.51-4.68.97,1.48,1.92,2.92,3.13,4.14,1.18,1.23,2.45,2.38,3.92,3.26,2.83,1.94,6.11,3.06,9.46,4.12Z"/>
    <path class="cls-16" d="M745.81,662.89c1.39.33,2.57,1.02,3.77,1.67,1.13.76,2.28,1.5,3.21,2.59-1.4-.33-2.57-1.02-3.77-1.67-1.13-.76-2.28-1.5-3.21-2.59Z"/>
  </g>
  <path class="cls-14" d="M694.71,594.33c5.33,6.55,11.16,12.72,17.15,18.63,4.79,4.73,9.87,9.15,15.38,13.02,1.78,1.25,18.99,10.22,18.95,10.64,0,0-1.46,17.73-8.96,14.47-.41-.18-8.1-3.19-10.14-3.77-3.71-1.06-7.4-2.2-11.06-3.42-33.13-11.01-60.76-32.58-77.81-63.21-3.11-5.59-9.3-15.36-6.7-22.14,1.33-3.48,7.58-7.22,11.12-8.39,6.5-2.16,21.1.28,26.17,4.01,6.81,5.01,9.6,15.71,13.71,22.73,3.58,6.12,7.71,11.9,12.19,17.41Z"/>
</svg>