<?xml version="1.0" encoding="UTF-8"?>
<svg id="_Ñëîé_2" data-name="Ñëîé 2" xmlns="http://www.w3.org/2000/svg" viewBox="0 0 1000 1000">
  <defs>
    <style>
      .cls-1 {
        fill: #43c4db;
      }
    </style>
  </defs>
  <path class="cls-1" d="M723.22,742.49c18.79-48.17,25.76-100.52,21.47-151.97,83.26-97.11,135.15-218.32,150.38-345.68,5.51-46.04,6.31-92.64,2.19-138.83-.35-3.88-2.83-6.37-6.72-6.72-174.13-15.99-352.85,44.71-475.86,170.22-5.2,5.3-10.28,10.71-15.27,16.22-82.97,12.49-160.07,53.95-214.79,117.82-26.58,31.03-47.63,66.43-62.28,104.56-8.62,22.42-32.06,79.18,10.63,81.63,19.89,1.14,39.15-9.96,58.53-13.12,21.15-3.45,42.7-2.25,63.5,2.54-.84,4.52-1.64,9.05-2.37,13.59-.45,2.78-1.18,5.71-1.3,8.53-.32,7.99,7.15,14.54,11.88,20.66,2.28,2.95,4.62,5.84,6.94,8.76-17.05,15.64-31.7,33.51-43.52,53.46-1.08,1.83-1.32,4.84,0,6.64.98,1.34,1.99,2.66,2.99,4-18.15,7.15-37.9,17.14-49.08,32.56-9.96,13.73-9.39,36.55,9.19,42.65,7.92,2.6,16.39,1.08,24.32-.6,5.36-1.14,10.53-2.51,16.06-1.68,12.56,1.89,9.17,10.96,2.78,17.46-16.73,17.03-37.44,30.87-52.2,49.76-9.42,12.06-15.17,28.72-4.93,42.21,10.62,13.99,31.92,14.43,46.64,7.44,9.85-4.67,17.62-12.93,24.48-21.19,7.54-9.07,17.18-26.29,29.52-29.08,20.14-4.55,5.21,22.21,3.31,29.58-1.89,7.35-1.97,15.79,3.17,21.9,14.58,17.32,36.26-3.39,45.4-15.44,12.25-16.16,19.45-35.29,21.62-55.24,1.73,1.29,3.44,2.58,5.18,3.85,1.79,1.31,4.82,1.1,6.64,0,20.15-12.2,38.15-27.16,53.86-44.63,5.68,4.42,11.4,8.78,17.19,13.06.65.74,1.46,1.31,2.41,1.65,2.04,1.01,3.97.64,5.48-.48,16.76-5.14,33.32-10.99,49.64-17.48,2.6,20.88,1.42,42.08-4.13,62.46-5.36,19.68-16.98,36.54-22.97,55.9-4.86,15.71-3.89,33.49,10.23,44.15,14.96,11.3,36.14,7.93,52.62,2.21,89.43-31,163.02-105.78,197.15-193.32ZM734.78,118.66c21.82,70.26,74.34,125.15,143.41,150.41-2.26,14.27-5,28.45-8.19,42.54-86.18-29.17-153.24-96.74-182.15-182.99,15.51-3.94,31.17-7.28,46.94-9.95ZM884.29,112.24c3.88,48.86,2.34,98.15-4.59,146.68-64.74-24.15-114-76-134.86-141.85,46.05-7,92.9-8.62,139.45-4.83ZM165.92,568.86c-11.43,3.57-39.53,16.43-44.59-1.78-2.21-7.97,2.21-18.92,4.35-26.49,2.78-9.83,6-19.54,9.67-29.07,27.6-71.72,80.05-133.33,146.8-171.43,32.17-18.36,67.07-31.06,103.28-38.31-63.3,75.44-107.69,167.79-127.81,264.16-30.22-6.85-62-6.35-91.7,2.92ZM271.68,611.06c-1.67-2.17-3.05-4.93-5.09-6.7-2.16-1.87-1.89.64-2.14-.38-.23-.97.45-2.61.53-3.61.62-7.74,2.01-15.58,3.7-23.37.41-.91.62-1.9.65-2.89.44-1.94.89-3.88,1.35-5.82,6.86,7.89,14.68,14.8,23.54,20.71,2.7,1.8,5.18-2.59,2.49-4.39-9.41-6.27-17.57-13.7-24.57-22.34.66-2.71,1.33-5.41,1.97-8.08,1.39-5.75,2.87-11.48,4.42-17.19,8.12,7.82,16.23,15.64,24.35,23.47,2.33,2.25,5.91-1.31,3.57-3.57-8.79-8.47-17.58-16.95-26.37-25.42,2.33-8.25,4.82-16.46,7.49-24.61,15.09,14.66,31.2,28.13,48.29,40.46,2.63,1.89,5.1-2.5,2.49-4.39-17.42-12.56-33.72-26.38-49.01-41.41,2.15-6.37,4.39-12.7,6.74-19,8.28,6.8,15.92,14.26,22.97,22.39,2.13,2.45,5.68-1.12,3.57-3.57-7.54-8.69-15.74-16.54-24.65-23.73,3.02-7.87,6.17-15.68,9.51-23.4,24.51,17.31,47.86,36.11,70,56.4,2.39,2.19,5.96-1.37,3.57-3.57-22.6-20.7-46.45-39.87-71.49-57.51,59.49-134.05,167.81-242.34,305.12-297.25,20.73-8.29,41.91-15.32,63.39-21.17,30.04,89.89,99.75,160.05,189.59,190.28-2.45,10.06-5.14,20.05-8.07,29.99-12.5-11.97-24.99-23.94-37.49-35.9-2.34-2.24-5.91,1.32-3.57,3.57,12.7,12.16,25.39,24.31,38.09,36.47.48.46,1.02.63,1.55.66-2.26,7.45-4.61,14.87-7.13,22.23-25.1-15.99-46.8-36.23-64.47-60.31-1.9-2.59-6.3-.12-4.39,2.49,18.4,25.08,40.91,46.14,67.12,62.7-1.59,4.5-3.18,9-4.86,13.47-1.7,4.5-3.46,8.97-5.26,13.42-13.18-14.33-27.23-27.67-42.26-40.07-2.48-2.05-6.07,1.5-3.57,3.57,15.57,12.85,30.1,26.7,43.69,41.62-2.82,6.77-5.72,13.5-8.77,20.15-12.91-10.75-26.23-20.94-40.03-30.54-2.66-1.85-5.14,2.54-2.49,4.39,13.91,9.67,27.32,19.97,40.31,30.84-3.27,6.97-6.65,13.88-10.18,20.71-7.39-6.98-14.79-13.97-22.18-20.95-2.35-2.22-5.93,1.33-3.57,3.57,7.77,7.34,15.53,14.67,23.3,22.01-56.96,107.97-145.48,197.54-252.7,257.15-38.8,21.57-79.7,39.32-122.11,52.45-36.58-27.17-70.96-57.23-102.73-89.89-15.72-16.16-30.79-32.95-45.17-50.32-6.49-7.84-12.84-15.78-19.04-23.85ZM320.74,857.91c-4.63,6.96-11.16,16.12-19.22,19.52-8.57,3.61-10.14-5.45-8.4-11.63,1.11-3.94,3.23-7.57,4.69-11.39,4.91-12.85,3.67-28.86-11.9-33.11-17.58-4.8-31.12,11.02-40.88,23.08-11.9,14.71-28.09,37.63-50.36,30.07-23.4-7.94-3.7-32.17,6.61-41.95,14.71-13.95,32.45-26.54,45.22-42.31,7.99-9.87,9.36-23.99-2.38-31.65-6.85-4.46-15.62-5.13-23.54-4.15-8.08,1-20.8,6.98-28.43,2.07-16.12-10.37,6.22-28.92,14.69-34.55,9.8-6.51,20.31-11.79,31.26-16.03,28.99,37.02,62.12,70.34,99.02,99.46-.55,18.75-5.92,36.83-16.38,52.56ZM396.53,774.89c-12.14-9.73-23.13-20.54-33.05-32.58-2.06-2.5-5.61,1.08-3.57,3.57,9.9,12.01,20.87,22.81,32.98,32.52-1.76,1.67-3.56,3.3-5.37,4.91-23.8-14.88-44.67-33.3-62.41-55.09-2.05-2.51-5.6,1.07-3.57,3.57,17.66,21.68,38.46,40.04,62.03,54.98-3.57,3.02-7.24,5.91-11,8.71-17.61-12.22-33.37-26.47-47.36-42.81-2.11-2.47-5.66,1.11-3.57,3.57,13.78,16.11,29.35,30.21,46.6,42.38-3.13,2.21-6.32,4.34-9.58,6.39-42.69-31.56-80.82-69.07-113.1-111.21-.29-.48-.62-.93-1.01-1.32-1.34-1.76-2.66-3.54-3.98-5.32,10.58-17.07,23.32-32.36,38.01-46,11.65,14.21,23.74,28.07,36.28,41.49,28.01,29.96,58.2,57.72,90.16,83.35-2.77,3.04-5.61,6-8.51,8.88ZM490.21,926.76c-23.25-5.45-16.29-30.57-9.14-46.13,8.64-18.82,17.42-36.5,21.17-57.13,3.48-19.15,3.54-38.46.86-57.64,76.47-32.31,147.09-79.17,206.1-137.27,7.89-7.77,15.52-15.75,22.95-23.9,3.32,81.09-22.61,161.68-75.68,223.87-28.86,33.82-64.35,61.74-104.21,81.48-17.69,8.76-41.56,21.53-62.04,16.73Z"/>
  <path class="cls-1" d="M496.46,514.94c28.02,26.52,63.17,50.2,101.73,57.17,63.19,11.43,120.3-33.94,144.26-90.08,20.86-48.88,18.25-108.28-11.84-152.63-38.93-54.68-111.52-79.85-175.84-59.19-61.3,19.7-113.44,82.44-109.52,148.86,2.21,37.51,24.61,70.7,51.2,95.87ZM532.1,290.95c63.62-35.42,147.66-15.69,189.75,43.43,26.93,39.69,29.82,89.14,15,133.97-14.61,44.19-54.55,86.75-101.59,94.55-35.93,5.96-71.65-9.9-100.58-29.9-31.43-21.73-61-50.88-73.92-87.61-21-59.72,19.59-125.62,71.34-154.43Z"/>
  <path class="cls-1" d="M528.1,486.44c19.33,18.28,43.37,34.55,69.75,40.06,46.02,9.61,87.98-22.29,105.83-63.35,15.25-35.08,13.28-77.67-8.17-109.62-28.39-39.48-80.76-57.7-127.3-41.97-42.92,14.5-79.08,58.37-76.92,105.03,1.27,27.36,17.44,51.52,36.81,69.84ZM554.37,328.69c44.38-24.95,102.79-11.31,132.37,29.82,18.6,27.7,20.8,61.63,10.62,92.9-10.15,31.16-38.47,61.47-71.79,66.3-24.58,3.56-48.58-7.13-68.43-20.73-21.31-14.59-41.47-34.18-50.94-58.66-16.26-42.02,11.33-88.92,48.18-109.64Z"/>
  <path class="cls-1" d="M711.54,148.29c4.59,4.59,11.73-2.53,7.13-7.13s-11.73,2.53-7.13,7.13Z"/>
  <path class="cls-1" d="M736.18,188.33c4.59,4.59,11.73-2.53,7.13-7.13-4.59-4.59-11.73,2.53-7.13,7.13Z"/>
  <path class="cls-1" d="M771.6,229.91c4.59,4.59,11.73-2.53,7.13-7.13-4.59-4.59-11.73,2.53-7.13,7.13Z"/>
  <path class="cls-1" d="M805.48,259.17c4.59,4.59,11.73-2.53,7.13-7.13-4.59-4.59-11.73,2.53-7.13,7.13Z"/>
  <path class="cls-1" d="M846.28,283.01c4.59,4.59,11.73-2.53,7.13-7.13s-11.73,2.53-7.13,7.13Z"/>
  <path class="cls-1" d="M712.22,357.63c4.59,4.59,11.73-2.53,7.13-7.13-4.59-4.59-11.73,2.53-7.13,7.13Z"/>
  <path class="cls-1" d="M726.18,397.78c4.59,4.59,11.73-2.53,7.13-7.13s-11.73,2.53-7.13,7.13Z"/>
  <path class="cls-1" d="M718.33,451.01c4.59,4.59,11.73-2.53,7.13-7.13-4.59-4.59-11.73,2.53-7.13,7.13Z"/>
  <path class="cls-1" d="M692.15,506.86c4.59,4.59,11.73-2.53,7.13-7.13-4.59-4.59-11.73,2.53-7.13,7.13Z"/>
  <path class="cls-1" d="M637.17,544.39c4.59,4.59,11.73-2.53,7.13-7.13-4.59-4.59-11.73,2.53-7.13,7.13Z"/>
  <path class="cls-1" d="M583.21,533.77c-4.59-4.59-11.73,2.53-7.13,7.13,4.59,4.59,11.73-2.53,7.13-7.13Z"/>
  <path class="cls-1" d="M518.63,497.12c-4.59-4.59-11.73,2.53-7.13,7.13,4.59,4.59,11.73-2.53,7.13-7.13Z"/>
  <path class="cls-1" d="M477.61,433.41c-4.59-4.59-11.73,2.53-7.13,7.13,4.59,4.59,11.73-2.53,7.13-7.13Z"/>
  <path class="cls-1" d="M477.61,377.55c-4.59-4.59-11.73,2.53-7.13,7.13,4.59,4.59,11.73-2.53,7.13-7.13Z"/>
  <path class="cls-1" d="M504.66,329.55c-4.59-4.59-11.73,2.53-7.13,7.13,4.59,4.59,11.73-2.53,7.13-7.13Z"/>
  <path class="cls-1" d="M559.64,295.52c-4.59-4.59-11.73,2.53-7.13,7.13s11.73-2.53,7.13-7.13Z"/>
  <path class="cls-1" d="M624.08,295.67c4.59,4.59,11.73-2.53,7.13-7.13-4.59-4.59-11.73,2.53-7.13,7.13Z"/>
  <path class="cls-1" d="M677.55,320.74c4.59,4.59,11.73-2.53,7.13-7.13-4.59-4.59-11.73,2.53-7.13,7.13Z"/>
  <path class="cls-1" d="M583.09,365.69c21.17.49,42.35.98,63.52,1.48,3.25.08,3.25-4.97,0-5.04-21.17-.49-42.35-.99-63.52-1.48-3.25-.08-3.25,4.97,0,5.04Z"/>
  <path class="cls-1" d="M528.02,411.74c49.2-4.02,98.51-6.35,147.87-6.97,3.25-.04,3.25-5.08,0-5.04-49.36.63-98.67,2.95-147.87,6.97-3.22.26-3.24,5.31,0,5.04Z"/>
  <path class="cls-1" d="M571.55,465.77c27.2-8.38,55.12-12.92,83.58-13.53,3.24-.07,3.25-5.11,0-5.04-28.88.62-57.25,5.19-84.86,13.69-3.1.95-1.83,5.84,1.28,4.88Z"/>
  <path class="cls-1" d="M701.25,688.31c-18.23,77.94-64.62,147.36-129.84,193.81-2.62,1.87-.15,6.27,2.49,4.39,66.32-47.25,113.67-117.6,132.22-196.92.74-3.15-4.14-4.45-4.88-1.28Z"/>
  <path class="cls-1" d="M645.6,754.05c-12.8,36.65-36.41,68.1-68.05,90.61-2.62,1.87-.15,6.27,2.49,4.39,32.82-23.34,57.15-55.69,70.44-93.71,1.07-3.06-3.81-4.33-4.88-1.28Z"/>
  <path class="cls-1" d="M302.45,352.14c2.83-1.6.34-5.98-2.49-4.39-62.29,35.2-110.34,91.34-135.71,158.21-1.15,3.03,3.74,4.29,4.88,1.28,24.88-65.57,72.28-120.61,133.32-155.1Z"/>
  <path class="cls-1" d="M280.56,396.12c2.76-1.71.27-6.1-2.49-4.39-31.89,19.75-57.8,46.89-75.98,79.69-1.57,2.83,2.81,5.34,4.39,2.49,17.76-32.04,42.94-58.51,74.09-77.8Z"/>
  <path class="cls-1" d="M773.48,139.38c28.63-8.88,58.22-12.09,88.08-9.58,3.24.27,3.22-4.77,0-5.04-30.28-2.55-60.35.74-89.36,9.74-3.1.96-1.82,5.84,1.28,4.88Z"/>
  <path class="cls-1" d="M840.77,142.31c-12.57-1.8-24.9.64-35.7,7.39-2.75,1.72-.27,6.11,2.49,4.39,9.61-6,20.69-8.5,31.93-6.89,3.17.45,4.5-4.42,1.28-4.88Z"/>
</svg>