<?xml version="1.0" encoding="UTF-8"?>
<svg id="Layer_1" data-name="Layer 1" xmlns="http://www.w3.org/2000/svg" viewBox="0 0 1000 1000">
  <defs>
    <style>
      .cls-1 {
        fill: #43c4db;
      }
    </style>
  </defs>
  <path class="cls-1" d="M372.98,357.19l.24-.39c18.96,16.11,85.16,32.67,128.24,32.67,74.44,0,123.24-31.16,125.28-32.49,3-1.94,4.76-5.31,4.68-8.88-.75-28.81-11.49-56.87-30.26-79-15.49-18.25-36.19-31.53-59.88-38.38-14.56-4.23-29.95-5.97-45.8-5.26-17.83.83-35.23,4.92-51.69,12.13l-3.22,1.39c-9.06,3.92-19.34,8.36-27.58,15.4-9.08,7.76-17.05,16.77-23.67,26.77-6.63,9.97-11.82,20.78-15.45,32.15-1.83,5.76-3.25,11.64-4.23,17.46l-.18.96c-2.35,12.68-3.9,21.05,3.5,25.48ZM389.7,335.44l.23-1.29c.82-4.87,2.01-9.79,3.54-14.62,3.04-9.54,7.41-18.63,12.99-27.02,5.58-8.42,12.27-15.99,19.9-22.51,5.88-5.02,14.27-8.64,22.38-12.15l3.31-1.44c14.15-6.19,29.09-9.7,44.39-10.41,13.61-.65,26.73.87,39.12,4.46,19.79,5.74,37.06,16.78,49.92,31.94,14.44,17.01,23.22,38.2,25.06,60.21-5.35,2.89-14.85,7.56-27.7,12.16-5.23-20.34-14.34-39.84-26.64-56.83-2-2.77-5.86-3.4-8.61-1.38-2.76,2-3.38,5.86-1.38,8.61,11.56,15.97,19.88,34.38,24.69,53.53-18.58,5.57-42.2,10.2-69.43,10.2-30.77,0-57.57-5.88-77.83-12.37,1.68-16.94,5.8-33.48,12.56-49.2,1.35-3.13-.1-6.76-3.22-8.11-3.12-1.35-6.76.09-8.11,3.22-6.88,15.98-11.21,32.75-13.21,49.92-10.49-3.94-18.42-7.7-23.11-10.11.23-1.62.59-3.82,1.15-6.82ZM433.74,182.22c7,8.99,17.05,16.52,29.84,22.39,13.37,6.12,26.93,9.21,39.84,9.21,9.14,0,17.95-1.56,26.12-4.68,20.59-7.88,37.07-26.47,43.03-48.53,7.15-26.53-1.62-56.86-21.83-75.47-20.69-19.09-48.62-25.68-73.18-17.45-17.67,1.77-32.28,10.28-43.41,25.33-10.51,14.17-15.72,32.96-14.29,51.54,1.1,14.39,5.9,27.41,13.88,37.66ZM450.67,105.26c7.84-10.59,17.62-16.21,29.88-17.19.91-.07,1.8-.26,2.66-.57,5.25-1.89,10.68-2.81,16.12-2.81,13.15,0,26.4,5.37,37.47,15.57,14.72,13.57,21.11,35.68,15.9,55-4.27,15.82-15.96,29.1-30.52,34.67-14.28,5.49-32.52,4-50.05-4.02-9.76-4.47-17.22-9.97-22.18-16.33-5.49-7.04-8.81-16.23-9.61-26.59-1.05-13.72,2.71-27.47,10.31-37.72ZM536.17,689.65h0c-12.81-3.71-26.38-5.21-40.21-4.62-15.64.73-30.91,4.31-45.38,10.64l-2.77,1.21c-7.96,3.44-17,7.34-24.31,13.59-7.99,6.84-15,14.75-20.81,23.52-5.83,8.8-10.39,18.3-13.57,28.25-1.6,5.03-2.85,10.19-3.86,16.15-2.06,11.13-3.53,19.16,3.71,23.58,1.93,1.16,48.11,28.2,112.24,28.2s107.74-27.26,109.52-28.42c3-1.94,4.77-5.31,4.68-8.88-.66-25.34-10.11-50.01-26.6-69.45-13.62-16.05-31.82-27.73-52.65-33.76ZM572.12,797.16c-4.62-17.28-12.26-33.87-22.72-48.31-1.99-2.77-5.86-3.4-8.61-1.38-2.76,2-3.38,5.86-1.38,8.61,9.71,13.42,16.77,28.86,20.98,44.93-15.92,4.7-36.04,8.57-59.18,8.57-26.39,0-49.3-4.94-66.67-10.45,1.53-14.23,5.05-28.12,10.74-41.33,1.35-3.13-.1-6.76-3.22-8.11-3.13-1.37-6.76.09-8.11,3.22-5.8,13.47-9.55,27.57-11.38,42.04-7.89-3.02-14-5.88-17.94-7.89.2-1.28.47-2.89.85-4.96l.2-1.11c.71-4.21,1.74-8.43,3.04-12.52,2.6-8.15,6.33-15.93,11.11-23.14,4.76-7.18,10.49-13.66,17.04-19.26,4.95-4.23,12.15-7.34,19.1-10.35l2.85-1.24c12.15-5.32,24.97-8.33,38.08-8.93,11.56-.55,22.89.74,33.54,3.82,16.93,4.9,31.69,14.35,42.69,27.3,12.16,14.33,19.63,32.12,21.36,50.65-4.6,2.44-12.24,6.13-22.38,9.81ZM480.15,548.05c-15.66,1.61-28.61,9.17-38.49,22.52-9.32,12.56-13.94,29.2-12.68,45.66.98,12.76,5.25,24.32,12.34,33.43,6.2,7.97,15.09,14.64,26.42,19.84,11.79,5.4,23.75,8.12,35.15,8.12,8.1,0,15.92-1.37,23.17-4.15,18.29-7,32.92-23.5,38.19-43.07,6.34-23.5-1.43-50.38-19.34-66.88-18.3-16.87-42.97-22.75-64.76-15.48ZM530.97,578.65c12.43,11.46,17.83,30.11,13.42,46.42-3.59,13.33-13.42,24.52-25.67,29.21-12.07,4.61-27.54,3.35-42.41-3.46-8.3-3.81-14.61-8.44-18.76-13.78-4.6-5.92-7.39-13.66-8.07-22.38-.88-11.59,2.28-23.19,8.69-31.84,6.67-8.98,14.6-13.56,24.98-14.39.91-.07,1.8-.26,2.66-.57,4.4-1.58,8.97-2.36,13.54-2.36,11.08,0,22.27,4.54,31.61,13.16ZM837.53,701.64c-13.19-15.54-30.81-26.84-50.95-32.67-12.39-3.58-25.52-5.09-38.88-4.47-15.14.71-29.9,4.17-43.88,10.29l-2.72,1.18c-7.69,3.33-16.41,7.09-23.48,13.14-7.71,6.59-14.49,14.24-20.14,22.76-5.62,8.46-10.04,17.65-13.13,27.33-1.54,4.81-2.75,9.8-3.61,14.9l-.15.84c-1.99,10.82-3.42,18.64,3.78,22.98,1.86,1.12,46.49,27.24,108.41,27.24s104.08-26.34,105.8-27.47c3-1.94,4.77-5.31,4.68-8.88-.64-24.52-9.78-48.38-25.73-67.18ZM821.25,772.55c-4.48-16.55-11.81-32.42-21.84-46.27-2-2.76-5.86-3.4-8.61-1.38-2.76,2-3.38,5.86-1.38,8.61,9.28,12.82,16.05,27.56,20.1,42.9-15.28,4.5-34.58,8.19-56.75,8.19-25.33,0-47.32-4.73-64.03-10.01,1.5-13.6,4.87-26.86,10.3-39.45,1.35-3.13-.1-6.76-3.22-8.1-3.12-1.36-6.76.09-8.1,3.22-5.54,12.85-9.15,26.32-10.94,40.14-7.28-2.8-12.98-5.45-16.72-7.34.19-1.16.43-2.6.76-4.39l.21-1.17c.69-4.09,1.68-8.14,2.92-12.03,2.51-7.86,6.11-15.34,10.67-22.21,4.6-6.92,10.11-13.15,16.37-18.5,4.72-4.03,11.62-7.01,18.28-9.9l2.8-1.22c11.66-5.11,23.97-7.99,36.57-8.58,11.17-.55,21.99.72,32.21,3.68,16.25,4.7,30.43,13.76,40.99,26.21,11.62,13.69,18.77,30.67,20.48,48.38-4.4,2.33-11.6,5.78-21.07,9.23ZM695.06,554.28c-9.04,12.19-13.52,28.33-12.29,44.29.95,12.38,5.08,23.6,11.97,32.43,6.02,7.74,14.64,14.2,25.61,19.24,11.41,5.23,23.01,7.87,34.05,7.87,7.86,0,15.44-1.34,22.48-4.03,17.73-6.79,31.92-22.79,37.03-41.76,6.14-22.78-1.38-48.84-18.75-64.85-17.74-16.35-41.68-22.05-62.76-15.02-15.2,1.57-27.76,8.92-37.34,21.84ZM738.06,552.24c4.2-1.51,8.55-2.25,12.93-2.25,10.59,0,21.3,4.35,30.24,12.59,11.88,10.96,17.04,28.79,12.83,44.38-3.43,12.74-12.83,23.43-24.53,27.91-11.54,4.43-26.35,3.2-40.62-3.33-7.94-3.64-13.98-8.07-17.95-13.17-4.33-5.56-7.06-13.14-7.7-21.37-.85-11.09,2.18-22.19,8.31-30.46,6.35-8.57,13.92-12.93,23.82-13.72.91-.07,1.8-.27,2.66-.57ZM285.84,668.97c-12.38-3.57-25.46-5.07-38.89-4.47-15.14.71-29.91,4.17-43.88,10.29l-2.71,1.18c-7.69,3.33-16.41,7.09-23.48,13.14-7.71,6.59-14.49,14.24-20.15,22.77-5.62,8.47-10.04,17.67-13.13,27.34-1.55,4.88-2.75,9.87-3.73,15.58-2.02,10.91-3.49,18.79,3.67,23.08,1.84,1.12,45.85,27.29,108.48,27.29s104.08-26.34,105.8-27.47c3-1.94,4.77-5.31,4.68-8.88-.64-24.52-9.77-48.37-25.73-67.18-13.19-15.54-30.81-26.84-50.95-32.67ZM320.51,772.56c-4.48-16.55-11.81-32.43-21.84-46.27-1.99-2.76-5.86-3.4-8.61-1.38-2.76,2-3.38,5.86-1.38,8.61,9.28,12.83,16.05,27.56,20.1,42.9-15.29,4.5-34.58,8.19-56.75,8.19-25.2,0-47.25-4.77-64.02-10.08,1.5-13.56,4.87-26.79,10.29-39.39,1.35-3.13-.1-6.76-3.22-8.1-3.13-1.36-6.76.09-8.11,3.22-5.53,12.84-9.14,26.29-10.93,40.08-7.28-2.79-12.99-5.43-16.72-7.31.19-1.17.44-2.64.78-4.47l.19-1.08c.67-4.02,1.65-8.06,2.91-12.01,2.51-7.84,6.1-15.32,10.67-22.21,4.6-6.92,10.11-13.15,16.37-18.5,4.72-4.03,11.62-7.01,18.28-9.9l2.8-1.22c11.49-5.04,24.15-8,36.57-8.58,11.17-.55,22,.72,32.22,3.68,16.24,4.7,30.42,13.76,40.99,26.21,11.62,13.7,18.78,30.68,20.48,48.38-4.41,2.33-11.6,5.78-21.08,9.24ZM194,631c6.02,7.73,14.64,14.2,25.61,19.23,11.42,5.24,23.01,7.88,34.05,7.88,7.86,0,15.44-1.34,22.48-4.03,17.72-6.79,31.92-22.79,37.04-41.76,6.14-22.79-1.4-48.86-18.76-64.85-17.74-16.35-41.66-22.05-62.76-15.02-15.2,1.57-27.75,8.92-37.34,21.84-9.04,12.19-13.52,28.33-12.29,44.29.95,12.38,5.09,23.6,11.97,32.43ZM210.83,566.53c6.35-8.57,13.92-12.93,23.82-13.72.91-.07,1.8-.27,2.66-.57,4.2-1.51,8.56-2.25,12.93-2.25,10.6,0,21.3,4.35,30.25,12.59,11.87,10.95,17.03,28.78,12.83,44.37-3.44,12.74-12.84,23.44-24.53,27.92-11.55,4.41-26.35,3.2-40.61-3.33-7.94-3.64-13.99-8.07-17.95-13.17-4.33-5.56-7.06-13.14-7.7-21.37-.85-11.09,2.18-22.19,8.31-30.46ZM240.09,500.27v-22.06c0-21.87,17.79-39.67,39.66-39.67h209.46v-28.32c0-5.68,4.6-10.28,10.28-10.28s10.28,4.6,10.28,10.28v28.32h195.67c21.87,0,39.67,17.79,39.67,39.67v22.06c0,5.68-4.6,10.28-10.28,10.28s-10.28-4.6-10.28-10.28v-22.06c0-10.53-8.57-19.1-19.1-19.1h-195.67v52.76c0,5.68-4.6,10.28-10.28,10.28s-10.28-4.6-10.28-10.28v-52.76h-209.46c-10.53,0-19.09,8.57-19.09,19.1v22.06c0,5.68-4.6,10.28-10.28,10.28s-10.28-4.6-10.28-10.28Z"/>
</svg>