<?xml version="1.0" encoding="UTF-8"?>
<svg id="Layer_1" data-name="Layer 1" xmlns="http://www.w3.org/2000/svg" viewBox="0 0 1000 1000">
  <defs>
    <style>
      .cls-1, .cls-2 {
        fill: #383938;
      }

      .cls-3 {
        fill: #763122;
      }

      .cls-4 {
        fill: #c0a969;
      }

      .cls-5 {
        fill: #c98c53;
      }

      .cls-6, .cls-7, .cls-8, .cls-2 {
        opacity: .5;
      }

      .cls-6, .cls-9 {
        fill: #1a1a1a;
      }

      .cls-7 {
        fill: #474d7c;
      }

      .cls-10 {
        fill: #ea866b;
      }

      .cls-11 {
        fill: #284a31;
      }

      .cls-12 {
        fill: #fff;
      }

      .cls-13 {
        fill: #f3f3f3;
      }

      .cls-8, .cls-14 {
        fill: #dadfe2;
      }

      .cls-15 {
        fill: #ad4625;
      }

      .cls-16 {
        fill: #5f73b7;
      }

      .cls-17 {
        fill: #d7a36f;
      }

      .cls-18 {
        fill: #d87257;
      }

      .cls-19 {
        fill: #ea956c;
      }

      .cls-20 {
        fill: #45c4db;
      }

      .cls-21 {
        fill: #953e20;
      }

      .cls-22 {
        fill: #4b3434;
      }

      .cls-23 {
        fill: #3b7350;
      }

      .cls-24 {
        fill: #776883;
      }

      .cls-25 {
        fill: #272760;
      }

      .cls-26 {
        fill: #bb542a;
      }
    </style>
  </defs>
  <g>
    <g>
      <path class="cls-24" d="M352.3,932.42s-15.72-1.16-16.67,5.02c-.94,6.18,35.22,4.64,35.22,4.64,0,0,109.97-.39,111.86-5.02s.04-6.95-18.24-6.57c-18.24.39-112.18,1.93-112.18,1.93Z"/>
      <g>
        <g>
          <path class="cls-20" d="M370.07,889.22s4.2.18,6.09,5.17c1.89,4.99,4.05,17.79,3.22,21.93-.83,4.14-27.3-.51-27.3-.51l-1.62-11.3,19.61-15.3Z"/>
          <path class="cls-9" d="M377.97,917.63s2.13-.61,3.38,2.95c1.28,3.63,1.67,9.17-.29,12.63-1.26,2.23-5.01,1.68-7.34,1.94-3.24.36-6.48.76-9.71,1.2-2.26.31-4.41.52-5.99,2.24-.74.79-1.32,1.72-2.01,2.56-2.53,3.07-5.84,5.2-9.51,6.71-9.29,3.81-21.96,4.67-34.53,3.43-12.58-1.24-13.01-7.58-12.92-9.68.09-2.1,1.79-9.05,6.7-8.83,4.9.21,72.23-15.14,72.23-15.14Z"/>
          <path class="cls-26" d="M363.49,857.38s3.77,20.99,5.95,27.27,1.59,14.7-2.55,20.37c-4.14,5.66-10.43,7.14-10.43,7.14l-15.6-13.83s4.82-7.07,4.05-12.67c-.77-5.6-11.61-30.7-11.61-30.7l30.18,2.42Z"/>
          <path class="cls-4" d="M372.87,897.41s-2.55,10.42-16.1,15.45c0,0,3.83-7.55-2.81-16.26-6.64-8.71-12.43-4.74-16.11-.69-3.68,4.05-11.99,17.73-17.07,21.72-5.08,3.99-10.02,4.48-12.97,7.86-2.95,3.38-5.26,8.19-3.95,10.36,1.31,2.16,8.16,5.97,29.33,3.37,21.16-2.6,17.93-9.05,21.53-11,3.59-1.95,22.72-6.04,24.3-10.18,1.58-4.14-.47-21.77-6.13-20.61Z"/>
          <path class="cls-1" d="M314.08,921.06c.3-.14.59-.19.8-.05.49.32.08,1.26-.02,1.67-.56,2.15,2.69,2.89,4.21,3.36,1.87.58,3.81,1.12,5.76,1.24,4.19.25,7.57-1.64,11.08-3.64,5.93-3.39,12.11-6.7,18.6-8.86.77-.26,1.07.87.47,1.25-4.82,3.07-9.11,5.69-14.09,8.51-4.03,2.28-8.21,6.03-12.96,6.48-4.16.4-12.46-1.83-16-4.14-.59-.38-1.13-.89-1.43-1.53-.6-1.26.49-2.42,1.48-3.3.23-.2,1.65-.78,2.11-.99Z"/>
        </g>
        <g>
          <path class="cls-20" d="M453.09,901.12s-2.12-1.38-3.47,2.85c-1.35,4.22-.87,14.16-.87,14.16l8.23,1.98,4.65-8.57-8.55-10.41Z"/>
          <path class="cls-9" d="M495.39,926.68s2.95,3.76,3.7,7.5c.75,3.74,1.5,7.48-.56,11.25-2.06,3.78-10.42,7.63-24.44,7.81-14.02.18-22.86-5.79-24.31-9.52s.24-6.92-.48-8.16c-.72-1.24-2.82-1.21-2.84-3.09-.02-1.87-1.6-17.61,3.32-17.04,4.92.56,45.62,11.25,45.62,11.25Z"/>
          <path class="cls-26" d="M442.68,854.27s5.09,13.96,5.91,23.76c.83,9.81,1.56,12.6,3.01,16.09,1.45,3.49-1.28,9.83-.52,14.03.75,4.2,2.89,6.97,2.89,6.97,0,0,.89-.71.94-.74,4.34-3.45,8.69-6.9,13.03-10.36,2.01-1.6,4.03-3.2,6.04-4.8.44-.35.95-.66,1.38-1.02.79-.68.71-1.72.82-2.7.3-2.79.53-5.59.45-8.39-.05-1.74-.14-3.59-.59-5.28-.46-1.76-1.26-3.47-1.89-5.18-1.58-4.27-3-8.81-3.28-13.38-.02-.31-.03-.63-.04-.94-.08-6.31-1.18-37.85-2.78-53.25-1.6-15.41-25.37,45.2-25.37,45.2Z"/>
          <path class="cls-4" d="M452.88,911.72s.69-1.16,1.33-5.77c.64-4.61,5.46-11.57,16.68-11.72,11.22-.14,14.14,9.02,14.89,13.04s5.04,10.29,7.18,13.14c2.14,2.85,4.29,6.27,2.93,9.74-1.36,3.47-7.64,5.85-20.97,5.44-13.33-.41-21.08-3.18-22.51-6.04-1.03-2.04-.09-4.25-.38-6.36-.3-2.2-1.29-3.94-2.95-5.43-.21-.19-.43-.38-.52-.65-.07-.21-.05-.43-.03-.65.09-.94.12-9.28,1.51-8.74,1.41.56,2.86,3.99,2.86,3.99Z"/>
          <path class="cls-1" d="M459.48,919.17c1.11,1.47,1.68,3.48,3.73,3.8.95.15,1.92-.02,2.87-.17,6.61-1.06,13.36-1.27,20.02-.62.41.04.91.05,1.15-.29.13-.17.15-.4.16-.61.13-2.5-1.06-4.98-1.43-7.46-.11-.75,1.12-.95,1.61-.7.84.43,1.28,2.24,1.6,3.07.82,2.12,1.39,4.33,1.69,6.58.22,1.62.02,2.84-1.7,3.39-2.61.83-5.54-.11-8.19-.22-2.86-.12-5.74-.2-8.61-.09-2.99.12-5.91.86-8.86.97-4.2.16-4.93-4.35-6.38-6.55-.79-1.19,1.44-2.27,2.33-1.09Z"/>
        </g>
        <path class="cls-4" d="M275.16,636.93c11.44,76.39,35.83,171.33,40.37,197.92,4.54,26.59,5.31,31.48,5.31,31.48,0,0,34.44,6.57,58.04-12.66,0,0-3.14-26.6-11.98-60.15-8.84-33.54-16.54-88.14-18.94-111.24-2.4-23.11-4.86-107.22-4.86-106.51s15.94,40.47,31.26,87.95c15.33,47.48,28.03,109.03,31.72,123.7,3.69,14.68,12.82,71.36,14.23,71.34,1.4-.02,37.31,11.45,62.99-9.21,0,0-21.55-95.79-26.7-114.65-5.15-18.87-10.85-26.51-12.34-33.5-1.49-6.99-18.46-173.14-30.24-217.16-11.78-44.02-37.83-91.21-37.83-91.21l-90.02,24.23s-30.81,87.32-11,219.67Z"/>
        <path class="cls-22" d="M309.03,464.02c.49-2.3,3.94-1.36,3.51.92-1.74,9.26.31,18.48,5.37,26.14-.02-.25-.04-.5-.06-.76-.92-11.88-.87-24.33,1.47-36.06.36-1.82,3.46-1.49,3.3.4-1,11.71-1.87,23.2-.96,34.96.93,12.04,3.62,23.5,6.7,35.13.63,2.37-2.83,3.33-3.63,1.05-3.09-8.74-4.96-18.08-6.08-27.38-8.73-9.04-12.21-22.18-9.61-34.41Z"/>
        <path class="cls-25" d="M329.79,590.6c0-1.01,1.57-1.04,1.58-.02.73,69.42,12.57,138.36,26.6,206.17,3.99,19.29,8.17,38.53,12.35,57.78.36,1.67-2.19,2.42-2.56.74-14.79-68.02-29.67-136.35-35.55-205.83-1.66-19.59-2.36-39.18-2.41-58.84Z"/>
        <path class="cls-12" d="M330.21,535.43c8.55,18.98,19.83,58.94,26.84,77.98.81,2.21-8.09-5.1-8.61-7.45-3.78-17.02-15.79-51.79-21-70.06-.62-2.18,1.81-2.58,2.76-.47Z"/>
      </g>
    </g>
    <path class="cls-9" d="M375.75,192.05c.51.1,5.3,2.6,4.12,8.71-1.18,6.1-5.08,6.32-5.08,6.32,0,0,5.56,4.85,2.18,14.22-3.39,9.37-24,9.61-28.36-3.36-4.36-12.97,27.14-25.88,27.14-25.88Z"/>
    <g>
      <g>
        <path class="cls-1" d="M269.59,388.56s-21.44,167.53-9.97,189.47c11.47,21.94,91.74,21.94,104.71,18.95,12.96-2.99,78.28-14.46,82.27-23.93,3.99-9.47-27.42-118.67-34.4-138.11s-15.96-64.82-15.96-64.82l-126.64,18.45Z"/>
        <path class="cls-9" d="M402.05,487.38c-1.92-19.08-8.51-37.44-9.12-56.68-.03-.94-.59-1.53-1.27-1.78-.31-.44-.82-.75-1.53-.74-34.39.56-68.79,1.31-103.17,2.58-2.03.07-2.04,3.2,0,3.16,34.02-.61,68.04-1.31,102.07-1.77.7,14.91,4.76,29.33,7.42,43.96.71,3.89,1.31,7.79,1.69,11.72.18,1.82.31,3.65.38,5.48.07,1.75.71,4.59-.92,5.57-1.59.95-4.02,1.31-5.81,1.83-1.95.57-3.91,1.09-5.88,1.57-3.79.93-7.62,1.71-11.47,2.35-15.89,2.64-32.12,2.86-48.15,1.61-8.21-.64-16.38-1.66-24.51-2.96-4.15-.66-8.29-1.38-12.43-2.15-1.72-.32-4.49-.34-5.66-1.7-1.24-1.43-1.13-4.27-1.36-6.05-2.31-18.3-2.91-36.96-1.15-55.33.15-1.52-2.22-1.5-2.37,0-1.77,17.79-2.1,35.6-.21,53.4.33,3.14.1,7.83,2.25,10.41,2.33,2.8,7.54,2.83,10.86,3.45,8.58,1.62,17.23,2.94,25.91,3.91,17.35,1.95,34.92,2.34,52.26.03,8.38-1.11,16.68-2.82,24.77-5.29,2.88-.87,7.17-1.42,7.82-4.94.67-3.66-.03-7.99-.4-11.66Z"/>
        <path class="cls-9" d="M266.95,410.47l45.52-4.46-34.68-18.65-8.2,1.19s-1.09,8.5-2.64,21.91Z"/>
      </g>
      <g>
        <path class="cls-13" d="M367.31,238.98s13.96,6.48,26.43,8.48c12.46,1.99,27.42,14.46,29.92,25.93,2.49,11.47.5,21.94,2.49,25.93s3.99,9.47,3.49,14.96c-.5,5.48-.5,8.97-.5,11.47s1.02,3.74.51,8.35-13.48,10.1-13.48,10.1l-148.58,22.44-29.61-18.48s-3.84-3.4-3.32-9.67c.52-6.26,4.51-16.23,4.51-20.72s-1-10.97,0-18.45c1-7.48,4.99-16.45,4.99-18.95s5.98-27.42,16.45-35.4c10.47-7.98,20.94-8.97,29.42-7.98,8.48,1,16.45-3.99,21.44-3.49,4.99.5,55.84,5.48,55.84,5.48Z"/>
        <path class="cls-14" d="M278.06,281.02c.29-.2.52-.52.57-.94.44-3.3.14-6.46-.44-9.71-.2-1.1-2.08-.86-1.97.27.13,1.36.16,2.73.15,4.1-.12-.4-.23-.8-.34-1.19-.45-1.48-2.61-.86-2.3.63,1.87,8.94,3.22,17.85,4.33,26.91.25,2.06,3.48,2.15,3.3,0-.54-6.71-1.69-13.47-3.3-20.07Z"/>
        <path class="cls-14" d="M394.77,279.52c-.19-1.43-2.37-1.54-2.32,0,.13,3.93-.97,7.82-2.71,11.31-1.39,2.78-3.26,5.76-2.84,8.99.2,1.56,2.48,2.18,2.95.4.94-3.54,2.59-6.57,3.88-9.97,1.36-3.56,1.52-6.99,1.04-10.73Z"/>
        <path class="cls-8" d="M423.53,272.97c-5.5-2.63-11.87-.18-16.18,3.59-5.37,4.7-9.01,11.08-11.95,17.46-.28.62.57,1.15.93.54,2.92-5,6.48-10.19,10.54-14.34,4.3-4.4,9.6-6.89,15.68-4.93,1.35.43,2.29-1.69.98-2.32Z"/>
        <path class="cls-8" d="M276.1,293.4c-1.61-7.65-5.01-15.53-9.66-21.82-3.5-4.73-9.9-12.5-16.44-8.62-.4.24-.14.95.33.78,3.95-1.4,7.4,1.83,9.9,4.46,2.25,2.37,4.21,4.97,5.91,7.77,3.47,5.69,5.4,11.84,7.39,18.14.52,1.64,2.92.97,2.57-.71Z"/>
      </g>
      <g>
        <path class="cls-1" d="M275.07,318.26s-.5-14.96,4.49-27.42c4.99-12.46,16.95-35.9,19.94-43.88,2.99-7.98,8.97-15.46,13.46-16.95,4.49-1.5,15.65-3.04,15.65-3.04l34.76,8.4s6.43.63,8.93,6.61,8.48,36.9,10.97,42.38c2.49,5.48,4.99,14.46,4.99,14.46,0,0-2.99,8.97-2.49,15.46.5,6.48-4.99,26.43-4.99,26.43l-73.79,1.5-24.93-8.97-6.98-14.96Z"/>
        <path class="cls-13" d="M355.1,227.76s6.98,2.49,8.97,4.99c1.99,2.49,0,5.98,1,8.97,1,2.99,6.48,17.45,8.48,32.41,1.99,14.96,1,29.42,0,30.91-1,1.5-22.94,11.47-39.39,7.98-16.45-3.49-40.39-13.96-41.38-16.95-1-2.99,1.99-24.93,4.49-29.42,2.49-4.49,4.99-7.48,4.99-7.48,0,0-2.49-6.98-.5-7.98,1.99-1,6.48-1,6.48-1,0,0,7.48-13.96,7.98-15.96.5-1.99,0-5.48,3.99-8.48,3.99-2.99,23.43-1,23.43-1l11.47,2.99Z"/>
        <path class="cls-9" d="M325.93,225.02s-9.97.5-5.98,6.98c3.99,6.48,28.42,7.48,28.42,7.48l11.37-.87s4.09-1.62,3.59-4.61c-.5-2.99-10.47-5.98-10.47-5.98l-26.92-2.99Z"/>
        <path class="cls-10" d="M356.84,216.54s-1.99,6.48-.5,12.96c1.5,6.48,4.49,8.48,4.49,8.48,0,0-1.99,1.99-5.48,3.49-3.49,1.5-6.98,9.97-6.98,9.97,0,0-12.46,1-12.96,0-.5-1-1-5.98-3.49-8.48-2.49-2.49-10.47-6.98-11.97-10.97,0,0,3.49-.5,4.49-3.49,1-2.99.5-13.46.5-13.46l31.91,1.5Z"/>
        <path class="cls-14" d="M334.26,250.1c-2.55-.03-5.1-.03-7.64-.03.4-.46.45-1.24-.23-1.64-1.84-1.09-3.55-2.26-5.05-3.79-1.52-1.55-3.87-4.07-4.03-6.35-.06-.91-1.29-.88-1.39,0-.31,2.62,1.43,4.85,3.04,6.76,1.67,1.97,3.7,3.72,5.93,5.03-4.2.01-8.4.04-12.6.05-3.65,0-12.09-.77-11.95,4.71.08,3.18,1.91,5.97,1.98,9.21.08,3.69-.44,7.49-1,11.13-1.12,7.31-2.87,14.52-4.22,21.79-.17.92,1.12,1.3,1.42.39,2.01-6.13,3.72-12.27,4.88-18.63,1.02-5.58,2.47-12.26,1.27-17.88-.29-1.36-.86-2.63-1.22-3.97-.55-2.05-.11-3.2,2.05-3.61,2.84-.55,5.88-.3,8.76-.29,6.67,0,13.35.08,20.02,0,1.83-.02,1.84-2.83,0-2.85Z"/>
        <path class="cls-14" d="M363.48,244.84c-1.12,2.09-2.62,4.16-4.78,5.28-2.27,1.19-4.76,1.09-7.2,1.61-1.32.28-.94,2.2.31,2.26,2.8.14,6.05-.5,8.42-2.05,2.27-1.48,3.54-3.88,4.76-6.22.52-1-.98-1.88-1.51-.88Z"/>
        <path class="cls-9" d="M315.73,262.37c-.31-1.92-2.67-3.98-4.64-2.88-.88.49-1.41,1.48-1.41,2.47,0,.32.06.63.15.92-.33,1.56.78,3.17,2.5,3.34,2.14.21,3.74-1.81,3.41-3.85Z"/>
        <path class="cls-9" d="M362.1,262.37c-.31-1.92-2.67-3.98-4.64-2.88-.88.49-1.41,1.48-1.41,2.47,0,.32.06.63.15.92-.33,1.56.78,3.17,2.5,3.34,2.14.21,3.74-1.81,3.41-3.85Z"/>
        <path class="cls-18" d="M355.89,226.61c-.48-5.38.95-10.06.95-10.06l-31.91-1.5s.2,4.21.09,8.06c2.04,3.43,7.06,9.89,15.86,9.89,7.4,0,12.32-3.63,15-6.39Z"/>
      </g>
      <g>
        <g>
          <path class="cls-26" d="M252.64,301.3s0-4.49,2.99-4.49,1.5,3.49,9.47,8.97c7.98,5.48,10.41,7.63,13.93,13.04s-5.45,6.41-5.45,6.41l-20.94-23.43v-.5Z"/>
          <path class="cls-17" d="M261.61,314.77s-36.4-75.29-35.9-81.77,2.99-10.97.5-19.45c-2.49-8.48-7.48-18.95-14.46-21.94-6.98-2.99-14.46.5-16.95,8.48-2.49,7.98,7.98,26.43,11.47,29.42s9.22,4.24,11.72,8.23,28.92,70.3,28.92,70.3c0,0,7.48,24.43,13.96,27.42,6.48,2.99,9.97-1.99.75-20.69Z"/>
          <path class="cls-26" d="M264.6,307.79s-12.96-7.98-16.45-5.98c-3.49,1.99-5.48,5.48-4.99,7.48.5,1.99,2.49,2.99,3.99,2.99s3.49-1.99,5.48-1c1.99,1,5.98,3.49,4.99,3.49s-7.98-1.5-9.97,0c-1.99,1.5-2.99,5.98-1,7.48,1.99,1.5,12.46,2.49,10.97,2.99-1.5.5-7.88.86-8.18,1.68s.94,3.3.94,3.3c0,0,8.23,13.97,10.72,15.46,2.49,1.5,27.42,9.97,27.42,9.97l8.48-22.44s-12.22-4.74-14.71-9.22-4.99-7.98-10.47-11.97c-5.48-3.99-7.23-4.24-7.23-4.24Z"/>
          <path class="cls-15" d="M266.65,312.11c-.8-1.12-2.98-.49-2.41,1.01,1.9,4.98-1.71,9.23-1.29,14.22.11,1.33.66,2.64.33,3.97-.24.97-.84,1.85-1.17,2.8-.7,2.04-.82,4.45-.18,6.51.35,1.12,2.22,1.31,2.46,0,.2-1.1.15-2.16.24-3.26.12-1.59.7-2.7,1.33-4.1,1.2-2.67-.1-4.58-.07-7.3.05-4.55,3.83-9.53.75-13.84Z"/>
          <path class="cls-21" d="M271.9,311.68c-2.14-2.04-4.62-3.28-7.24-4.6-2.52-1.28-4.64-3.38-7.26-4.39-1.22-.47-2.08,1.55-.9,2.13,2.45,1.2,4.55,3.01,6.99,4.26,2.49,1.27,5.11,2.3,7.41,3.9.77.53,1.66-.65.99-1.28Z"/>
        </g>
        <g>
          <path class="cls-26" d="M376.04,334.46s1.99-8.48,2.99-12.96c1-4.49,2.99-7.48,5.98-8.97,2.99-1.5,9.97-6.98,12.96-9.97s4.99-1.99,4.99-1.99c0,0-10.47,13.46-9.97,13.96s6.98,0,10.97.5c3.99.5,7.48,1.99,7.98,3.49.5,1.5-1.99,3.49-1.99,3.49,0,0,2.49,0,1.99,2.49-.5,2.49-3.99,3.99-3.99,3.99l-11.77,4.51-3.19,2.96-16.95-1.5Z"/>
          <path class="cls-14" d="M411.01,293.09c-5.53,4.08-11.54,9.18-14.73,15.4-.32.62.45,1.25.97.75,2.39-2.32,4.47-4.94,6.88-7.25,2.55-2.44,5.28-4.65,8.18-6.65,1.38-.95.02-3.24-1.32-2.25Z"/>
          <path class="cls-21" d="M407.03,327.05c-2.35-2.39-5.55-2.01-8.53-1.21-3.88,1.04-7.47,2.21-10.87,4.38-.96.61-.12,2.06.89,1.52,2.53-1.34,5.41-2.16,8.18-2.87,2.66-.69,6.1-2.03,8.43.08,1.28,1.15,3.12-.66,1.9-1.9Z"/>
        </g>
        <path class="cls-13" d="M242.66,320.75s7.98,7.98,11.47,14.96,7.98,9.47,10.97,10.97c2.99,1.5,18.95,6.48,22.94,7.98,0,0,3.49-20.94,8.97-22.44,5.48-1.5,44.87,1.99,50.36,2.99,5.48,1,18.95,2.99,20.94,2.49,1.99-.5,3.49-4.99,9.47-4.49,5.98.5,14.46,2.49,14.46,2.49,0,0,1.5-2.99,6.48-3.99,4.99-1,23.43-6.98,23.43-6.98,0,0,6.48-.5,7.48,4.99,1,5.48-1.99,14.46-3.49,16.95-1.5,2.49-3.99,2.99-3.99,6.48s2.49,7.48-.5,15.46-4.49,15.46-19.45,18.95c-14.96,3.49-35.9-.5-35.9-.5,0,0-1,22.44-5.48,25.93-4.49,3.49-43.88-4.99-49.36-5.98-5.48-1-38.89-14.46-43.88-15.46-4.99-1-24.43-8.48-28.92-19.45-4.49-10.97,1.5-17.45,1-19.94s-5.48-6.48-4.99-11.47c.5-4.99,5.98-18.95,5.98-18.95l1.99-1Z"/>
        <path class="cls-14" d="M265.71,346.49c-1.64-.92-3.44-1.69-5.28-2.36.08-.28.05-.58-.17-.87-5.29-6.99-8.59-14.87-15.47-20.59-.75-.62-1.69.32-1.07,1.07,2.84,3.39,5.66,6.91,7.99,10.67,1.76,2.85,3.27,5.87,5.25,8.57-1.39-.42-2.77-.8-4.12-1.14-.97-.25-1.31,1.13-.41,1.48,4.16,1.62,8.28,3.6,12.5,5.02,1.09.37,1.77-1.29.78-1.85Z"/>
        <path class="cls-9" d="M328.44,386.03c-1.07,5.24-1.81,10.43-3.54,15.53-.87,2.58-1.92,5.06-3.09,7.48,1.36.26,2.8.54,4.29.81,1.01-2.22,1.89-4.49,2.65-6.78,1.72-5.23,3.16-11.05,3-16.59-.03-.87-.69-1.44-1.42-1.61.94-.11,1.87-1.04,1.62-2.14-2.01-8.86-4.93-17.23-4.88-26.45.02-4.36.8-8.54,2.98-12.36,2.03-3.55,4.91-6.32,7.39-9.53.08-.1.14-.2.19-.31-1.7-.17-3.55-.34-5.48-.5-5.73,5.9-9.35,13.46-9.43,21.8-.09,9.58,2.28,19.91,6.16,28.65.2.45.52.71.87.81-.61.05-1.17.42-1.33,1.2Z"/>
        <path class="cls-14" d="M366.32,386.07c-16.39-1.28-34.53-3.41-50.97-3.56-3.95-.04-7.92.05-11.87-.12-2.23-.09-4.43-.29-6.64-.62-1.83-.27-4.15-.36-5.88-1.01-1.3-.49-1.15-.25-1.38-2.05-.12-.94-.22-1.88-.32-2.82-.18-1.88-.31-3.77-.38-5.65-.16-4.09.03-8.17.08-12.26.02-1.49-2.43-1.91-2.68-.36-.67,4.18-.79,8.4-.69,12.62.05,2.2.17,4.4.36,6.59.14,1.67.05,3.82.77,5.38.66,1.42,1.89,1.69,3.28,1.99,2.09.46,4.19.88,6.3,1.19,4.35.65,8.71.78,13.1.8,18.46.08,37.96,1.77,56.41,2.36,2.24.07,2.68-2.32.5-2.49Z"/>
        <path class="cls-14" d="M417.07,325.92c-4.72.34-9.31,1.55-13.8,2.97-3.65,1.16-7.49,2.54-10.27,5.28-.19.18-.29.38-.35.57-.8-.25-1.62-.48-2.45-.64-1.43-.28-1.97,1.68-.6,2.17,4.77,1.73,9.81,4.16,14.99,3.64,1.14-.11,1.19-1.79,0-1.81-3.37-.07-6.36-1.33-9.4-2.47,6.35-4.79,14.63-5.93,22.11-8.1.86-.25.73-1.67-.22-1.61Z"/>
      </g>
      <path class="cls-5" d="M220.27,205.47c-2.86-5.62-8.01-13.3-15.47-11.37-6.74,1.75-8.41,9.91-5.36,15.51.68,1.24,1.73-.19,1.34-1.55-1.23-4.28-.27-10.55,5.81-10.69,5.14-.12,8.27,5.63,10.31,9.53,2.17,4.17,5.27,10.31,3.59,15.08-1.64,4.68-8.6,6.94-11.23,2.53-1.17-1.97-3.29-1.42-2.26.6,2.98,5.88,11.01,6.06,15.07,1.28,5.13-6.03,1.28-14.87-1.8-20.94Z"/>
      <path class="cls-9" d="M315.03,297.71c-1.29-.52-2.48.28-3.17,1.36-.38.11-.69.38-.78.84-.29,1.49-.07,3.2,1.41,3.97,1.58.83,3.33-.03,3.77-1.73.38-1.44.43-3.77-1.24-4.44Z"/>
      <path class="cls-9" d="M364.11,302.35c-.79-.79-1.97-.85-2.89-.39-.23-.02-.47.03-.73.17-1.38.75-2.71,2.24-1.81,3.9.81,1.5,2.87,1.46,4.16.63,1.29-.83,2.64-2.94,1.28-4.31Z"/>
    </g>
    <g>
      <polygon class="cls-9" points="380.06 175.19 381.13 146.03 340.29 116.92 302.9 144.63 298.75 165.35 307.04 178.29 380.06 175.19"/>
      <path class="cls-10" d="M309.11,191.76s6.15,29.8,31.3,32.51c25.15,2.71,33.95-28.36,33.95-28.36,0,0,13.46-4.14,13.98-13.46.52-9.32-5.18-12.95-10.88-9.84,0,0-.52-9.32-3.63-12.43s-8.8-1.55-13.98-9.32-19.16-18.13-29.52-15.54c-10.36,2.59-7.77,8.8-11.91,14.5s-8.55,19.42-8.55,19.42c0,0-4.66-6.73-10.88-1.04-6.21,5.7-1.04,24.34,10.1,23.56Z"/>
      <path class="cls-9" d="M326.3,167.84c-2.46-1.39-5.81.01-6.35,2.83-.29,1.51.27,3.03,1.53,3.93,1.2.85,2.54.87,3.85.28.03-.02.06-.04.09-.06.23-.07.46-.15.67-.26,2.55-1.35,2.76-5.28.2-6.73Z"/>
      <path class="cls-9" d="M362.84,168.38c-2.53-.23-4.74,2.29-3.6,4.69.16,1.33,1.13,2.6,2.43,3,2.04.64,4.36-.73,4.79-2.82.48-2.35-1.24-4.66-3.62-4.88Z"/>
      <path class="cls-9" d="M369.24,162.93c-3.23-3.65-7.66-6.72-12.48-7.75-3.04-.65-4.13,3.53-1.27,4.6,4.01,1.5,7.5,3.28,10.62,6.28,2.07,1.99,5.01-1.01,3.13-3.13Z"/>
      <path class="cls-9" d="M329.73,146.66c-4.61,1.36-9.1,4.1-11.82,8.14-1.26,1.86,1.43,3.61,2.95,2.28,3.09-2.69,6.12-4.78,10.12-5.9,2.91-.81,1.66-5.38-1.25-4.53Z"/>
      <path class="cls-15" d="M343.25,185.43c-.28-.1-.54-.37-.8-.52-.34-.19-.7-.37-1.05-.53-.8-.35-1.57-.6-2.44-.7-1.36-.15-1.87,1.98-.69,2.56.71.35,1.44.55,2.22.67.36.06.72.09,1.09.12.38.04.86-.05,1.22.03,1.09.25,1.49-1.28.46-1.65Z"/>
      <path class="cls-12" d="M329.57,196.16s19.68,0,21.23.52c1.55.52-6.21,8.29-10.88,7.77-4.66-.52-10.36-8.29-10.36-8.29Z"/>
      <path class="cls-9" d="M318.61,148.51s-5.61,10.37-4.58,20.21c1.04,9.84,7.25,15.02,7.25,25.38s-4.14,21.75-18.64,20.2c0,0,13.46-6.21,10.88-19.68-2.59-13.46-6.73-22.27-4.14-31.59,2.59-9.32,9.24-14.51,9.24-14.51Z"/>
      <g>
        <path class="cls-13" d="M307.56,167.94s2.59-22.79,21.75-30.04c19.16-7.25,48.83-.33,49.79,34.27l5.1.94s4.66,3.63,10.88-2.07c6.21-5.7,3.63-10.36,5.18-12.43,1.55-2.07,11.39-7.25,10.36-16.57-1.04-9.32-4.66-8.8-3.11-12.95,1.55-4.14,4.14-16.05-10.88-33.14-15.02-17.09-36.77-14.5-38.84-16.57-2.07-2.07-3.63-3.63-7.25-3.63s-9.32,2.07-9.32,2.07c0,0-10.88-6.73-21.75-1.04-10.88,5.7-19.16,19.68-18.64,23.3.52,3.63-12.43,3.11-18.64,14.5-6.21,11.39-2.59,20.72,0,24.86,2.59,4.14,6.21,6.73,5.7,9.84-.52,3.11-2.07,7.25,1.55,14.5,3.63,7.25,13.46,7.25,13.46,7.25l4.66-3.11Z"/>
        <path class="cls-14" d="M397.99,135.48c-3.04,1.59-6.3,3.03-9.6,3.98-3.02.87-6.12.88-9.14,1.51-.35-.84-.7-1.68-1.09-2.5-3.94-8.47-10.33-16.99-18.77-21.38-3.52-1.84-7.37-2.93-11.3-3.34.22-3.34.59-6.61,1.41-9.89.27-1.1-1.27-1.48-1.66-.46-1.24,3.24-2.07,6.7-2.19,10.18-4.36-.14-8.76.52-12.87,1.93-8.55,2.94-15.6,9.1-20.55,16.59-.1.15-.19.3-.29.45-.03,0-.06,0-.09.01-6.31,1.41-12.27-.18-18.1-2.73-.89-.39-1.66.81-.78,1.34,5.07,3.09,11.04,5.52,17.03,4.64-4.55,8.34-7.1,18.44-5.12,27.68.23,1.07,2.06.86,1.94-.26-1.84-17.05,7.95-36.28,23.73-43.6,7.98-3.7,17.76-4.27,25.87-.65,7.89,3.52,13.88,10.92,17.87,18.39,4.75,8.9,6.74,18.79,6.58,28.82-.03,1.77,2.64,1.75,2.73,0,.39-7.62-.78-15.35-3.34-22.56,3.07.17,6.51-.74,9.26-1.7,3.53-1.22,6.5-2.93,9.27-5.4.6-.53-.16-1.41-.82-1.07Z"/>
        <path class="cls-8" d="M394.97,147.34c-.51-.39-1.13.45-.68.88.33.32-1.95.46-1.87.46-.82.01-1.66-.04-2.47-.18-1.5-.25-2.9-.79-4.24-1.49-1.13-.59-2.13,1.12-1,1.71,2.76,1.45,5.85,2.09,8.95,1.6,1.96-.31,3.18-1.56,1.31-2.99Z"/>
        <path class="cls-8" d="M343.83,84.05c-.16-.68-.91-.84-1.46-.6-3.92,1.73-4.3,7.96-4.49,11.64-.27,5.23.8,10.33,2.98,15.08.34.74,1.64.21,1.33-.56-1.6-3.92-2.51-8.06-2.53-12.3-.01-2.85.1-8.79,2.5-11.28.11.86.17,1.72.19,2.6.03,1.25,1.84,1.23,1.93,0,.11-1.58-.09-3.05-.45-4.59Z"/>
        <path class="cls-8" d="M333.19,112.43c-1.33-1.85-2.5-3.83-3.28-5.98-.88-2.43-.59-4.61.11-7.05.35-1.22-1.56-1.75-1.9-.52-.7,2.46-1.14,4.76-.37,7.25.81,2.61,2.24,5.05,3.86,7.23.69.94,2.28.04,1.59-.93Z"/>
        <path class="cls-8" d="M307.56,127.07c-4.03-1.01-7.07-3.19-10.17-5.9-1.27-1.11-2.69-2.23-3.56-3.7-.89-.85-.88-1.58.04-2.19.24.16.47.31.71.47,1.08.41,2.21,1.8,3.06,2.57.92.84,2.2-.44,1.37-1.37-1.34-1.49-4.57-4.87-6.93-4.03-2.23.79-.74,4.16.09,5.52,1.54,2.54,4.35,4.54,6.68,6.3,2.53,1.9,5.31,3.49,8.51,3.8.85.08,1.01-1.27.2-1.47Z"/>
        <path class="cls-8" d="M302.02,154.59c-2.85,1.62-5.17,2.65-8.51,2.77-.85.03-.8,1.18,0,1.28,3.2.41,7.09-.56,9.43-2.86.62-.61-.17-1.61-.92-1.19Z"/>
        <path class="cls-26" d="M387.44,175.92c-1.65-3.97-5.24-5.33-8.98-3.79.63,3.35,5.53,4.13,8.98,3.79Z"/>
        <path class="cls-26" d="M302.69,172.52c3.11-.32,4.78-2.15,5.86-4.73-1.81-1.6-5.32-3.46-9.54.41-.96.88-1.64,2.07-2.08,3.44,1.78.81,3.82,1.08,5.76.88Z"/>
      </g>
    </g>
  </g>
  <g>
    <g>
      <path class="cls-24" d="M564.39,928.26s-20.33-1.5-21.55,6.49c-1.22,7.99,45.54,5.99,45.54,5.99,0,0,142.2-.5,144.64-6.49s.05-8.99-23.58-8.49c-23.58.5-145.05,2.5-145.05,2.5Z"/>
      <g>
        <path class="cls-19" d="M546.09,842.55c0,.43.87,28.66-1.3,39.51-2.17,10.86-12.16,28.22-12.16,28.22l33,5.64,10.51-21.95s-5.73-23.64-1.82-38.4c3.91-14.76-28.22-13.03-28.22-13.03Z"/>
        <path class="cls-25" d="M514.58,930.41s-10.61,12.87-5.4,21.56c5.21,8.68,26.92,10.42,39.95,5.64,13.03-4.78,16.5-10.42,16.93-13.89s-3.91-8.68-1.3-9.99c2.61-1.3,3.04.43,9.12-1.74,6.08-2.17,9.99-6.95,10.86-9.99.87-3.04-2.17-15.63-8.25-17.37s-61.9,25.77-61.9,25.77Z"/>
        <path class="cls-4" d="M563.02,905.51c.43.07,4.78-3.47,6.08-7.38,1.3-3.91,5.64-10.86,5.64-10.86,0,0,4.34,14.33,3.04,18.67s-7.38,7.38-9.12,9.55c-1.74,2.17-3.91,7.82-5.21,12.59-1.3,4.78-6.95,13.46-24.32,15.2-17.37,1.74-25.18-3.04-25.62-9.12-.43-6.08,7.38-12.59,7.38-12.59,0,0,5.21-8.25,8.68-15.2,3.47-6.95,6.08-13.46,11.29-15.2,5.21-1.74,19.54-2.17,21.71,1.3,2.17,3.47-2.17,12.59.43,13.03Z"/>
        <path class="cls-12" d="M563.46,908.11c-3.41,2.35-6.35,8.33-8.85,11.51-2.78,3.53-6.43,6.71-11.12,6.54-4.97-.18-9.94-.58-14.91-.85-1.45-.08-6.48.59-6.8-1.14-.37-2.01,1.39-4.33,2.17-6.08.53-1.17.28-2.72-.87-1.74-3.04,2.61-7.3,9-2.6,11.9,2.27,1.4,5.54,1.16,8.1,1.38,3.31.28,6.63.53,9.95.8,3.08.25,6.47.91,9.5.04,2.56-.74,4.82-2.45,6.79-4.18,2.07-1.81,2.85-3.26,4.3-5.6.79-1.27,1.47-3.03,2.17-4.34.69-1.31,2.72-3.95,3.47-5.21,1.11-1.84.58-4.34-1.3-3.04Z"/>
      </g>
      <g>
        <path class="cls-19" d="M670.02,846.38s-.43,23.45-1.74,27.79-4.52,12.46-4.52,12.46l44.29,26.92,8.68-13.89s-10.42-13.03-12.16-21.71c-1.74-8.68-.87-35.61-.87-35.61l-33.69,4.04Z"/>
        <path class="cls-25" d="M656.72,898.68s-14.23,18.78-8.15,25.73c6.08,6.95,32.13,5.64,34.74,4.34,2.61-1.3,11.29,1.3,13.46,3.47,2.17,2.17,11.29,12.59,40.82,13.46,29.53.87,35.17-4.34,36.47-10.42,1.3-6.08-9.21-14.19-9.21-14.19l-108.12-22.4Z"/>
        <path class="cls-4" d="M655.95,899.23s6.08-26.49,11.29-25.18c5.21,1.3,11.29,15.2,23.01,21.28,11.72,6.08,13.89,6.51,15.2,5.64,1.3-.87-6.51-7.82-4.78-11.72,1.74-3.91,7.82-9.12,13.03-7.38,5.21,1.74,18.24,17.8,22.58,20.41,4.34,2.61,23.88,9.12,26.92,14.76,0,0,7.38,3.91,5.64,9.12s-19.54,7.38-35.61,3.47c-16.07-3.91-28.22-7.82-39.08-13.46-10.86-5.64-37.34-11.29-38.21-16.93Z"/>
        <path class="cls-12" d="M765.31,916.72c-.54-1.48-2.03-2.8-3.63-3.69-.31-.17-4.39-1.76-4.49-1.08-.05.35.33.6.64.77,1.31.76,2.21,2.05,3.06,3.31.2.29.41.65.28.98-.71,1.8-3.68,1.84-5.25,2.09-2.28.35-4.61.42-6.9.23-4.76-.39-8.94-2.21-13.2-4.21-8.42-3.94-17.19-7.45-26.3-9.43-1.96-.43-2.6,2.22-.81,2.94,5.33,2.16,10.74,4.14,16.08,6.29,5.03,2.03,9.9,4.44,14.94,6.41,4.93,1.93,10.33,2.71,15.61,2.19,2.93-.29,6.48-.73,8.74-2.81,1.47-1.35,1.7-2.74,1.24-4.01Z"/>
      </g>
      <g>
        <path class="cls-4" d="M581.63,363.15s-18.34,95.83-30.59,238.38c-12.25,142.56-19.2,254.89-17.56,257.35,1.63,2.45,14.7,13.48,33.9,10.21,19.2-3.27,25.73-8.58,25.73-8.58,0,0,5.31-78.85,22.47-156.86,17.16-78.02,31.04-148.68,32.68-146.64,1.63,2.04,9.8,227.12,10.21,245.09.41,17.97,0,55.14,2.04,58.41,2.04,3.27,21.24,12.25,35.54,11.85,14.3-.41,25.24-9.84,25.24-12.29s3.68-106.4,4.17-175.62c.37-52.77,2.86-160.94-2.45-214.45-5.31-53.51-17.56-132.75-17.56-132.75l-123.81,25.89Z"/>
        <path class="cls-23" d="M661.73,495.74c-.03-1.93-3.34-1.39-3.84.53-1.33,5.09-1.73,10.52-2.53,15.72-.81,5.26-1.71,10.5-2.61,15.75-1.82,10.5-4.05,20.9-6.23,31.33-.61,2.91,3.48,1.69,4.18-1.24,2.51-10.47,4.75-18.65,6.55-29.26.89-5.25,1.66-10.53,2.37-15.81.71-5.25,2.19-11.7,2.1-17.01Z"/>
        <path class="cls-23" d="M675.37,401.14c-.31-1.86-3.33-1.3-3.24.53.49,10.04,1.45,20.13.67,30.18-.37,4.83-1.15,9.67-2.58,14.3-1.16,3.77-3.15,7.49-6.76,9.13.28-5.4.35-10.81.26-16.27-.11-6.65-.35-13.3-.54-19.95-.09-3.18-.17-6.36-.21-9.54-.05-3.34.27-6.77-.53-10.03-.47-1.91-3.24-1.64-3.7.11-.82,3.1-.48,6.43-.43,9.62.05,3.18.14,6.36.24,9.54.21,6.5.47,13.01.61,19.51.28,12.98.44,26.28-1.57,39.14-.34,2.17,2.96,3.01,3.34.82,1.03-5.89,1.74-11.76,2.19-17.66.07-.01.14-.03.21-.04,10.59-2.76,12.88-15.95,13.87-25.18,1.23-11.45.03-22.92-1.84-34.22Z"/>
        <path class="cls-7" d="M715.27,854.5c-8.89,3.84-17.95,6.15-27.71,5.61-5.7-.32-11.09-1.62-16.29-3.56-.92-39.13-2.23-85.61-3.81-124.72-1.58-39.17-3.49-78.33-5.77-117.47-1.28-22.06-2.29-44.21-4.41-66.21-.12-1.28-2.09-1.33-2.04,0,.72,19.64,2.25,39.27,3.37,58.89,1.11,19.64,2.15,39.28,3.1,58.92,1.9,39.16,3.56,85.69,4.76,124.87.66,21.49,1.26,42.99,1.76,64.49-2.42-1.03-4.79-2.18-7.14-3.43-1.13-.6-1.98.95-.99,1.69,15.6,11.54,39.75,12.77,56.73,3.59,1.8-.97.22-3.45-1.57-2.68Z"/>
        <path class="cls-7" d="M589.43,850.42c-4.2,2.4-8.29,4.29-13.07,5.27-4.67.96-9.48,1.19-14.24.99-9.47-.39-18.82-2.89-26.59-8.47-.99-.71-2.24.9-1.31,1.69,7.66,6.54,17.67,9.09,27.56,9.63,9.6.52,21.22-.49,29.17-6.52,1.5-1.14.21-3.59-1.52-2.6Z"/>
      </g>
      <path class="cls-11" d="M568.12,448.45l44.98-52.49-37.64-2.56c-2.56,13.49-4.4,32.21-7.34,55.04Z"/>
      <path class="cls-11" d="M718.29,428.87c-.99-7.85-2.02-15.71-3.04-23.34l-12.74,8.69,15.78,14.66Z"/>
    </g>
    <g>
      <path class="cls-14" d="M706.36,319.75s-3.49,12.46-3.99,15.46c0,0,1.99,2.99,2.49,5.48s-3.49,6.98-3.49,6.98l-33.9,12.96-87.25-9.47s-12.46-17.95-12.96-29.92,138.61-9.97,138.61-9.97l.5,8.48Z"/>
      <g>
        <path class="cls-9" d="M570.8,368.61c-2.41,1.98-4.77,4.01-7.03,6.16-1.44,1.37-3.94,3.06-3.99,5.26-.05,2.04,2.07,3.61,3.44,4.85,1.25,1.14,3.02,3.26,4.92,2.7,1.13-.33,1.86-1.87,1.18-2.88.11-.22.19-.46.22-.74.12-1.25.27-2.5.45-3.74.28-1.27.45-2.56.61-3.86.12-.92-.48-1.53-1.24-1.77,1.29-1.19,2.59-2.36,3.92-3.51,1.71-1.49-.76-3.87-2.47-2.47Z"/>
        <path class="cls-9" d="M577.4,352.35c-3.11-1.47-6.82-3.03-10.34-2.54-3.94.55-5.05,3.84-5.72,7.3-.4,2.11-.74,4.25-.88,6.4-.1,1.6-.29,3.49.92,4.75,1.15,1.2,2.95,1.16,4.51,1.23,2.42.11,4.81-.11,7.19-.49,1.17-.19,1.55-1.13,1.38-2.04.31-.23.58-.56.75-1.02,1.26-3.44,2.03-6.95,2.45-10.58.01-.1,0-.19,0-.28.71-.77.84-2.2-.28-2.73Z"/>
        <path class="cls-1" d="M702.88,345.18s-18.15,5.98-37.33,3.49c-19.18-2.49-71.4-2.63-78.73-2.31-7.34.32-11.48,1.32-11.48,4.31s1.56,7.98,1.04,9.47c-.52,1.5-10.89,12.96-19.18,54.35-8.3,41.38-6.22,94.73-12.44,125.65-6.22,30.91-13.48,70.3-10.37,75.79,3.11,5.48,49.26,13.96,75.18,11.97,25.92-1.99,47.7-2.99,58.07-2.99s63.77-5.98,68.44-12.46c4.67-6.48-5.18-150.08-12.44-195.45-7.26-45.37-18.67-71.8-20.74-71.8Z"/>
        <path class="cls-9" d="M732.99,473.92c-.74-6.63-1.48-13.26-2.22-19.89-.73-6.54-1.33-13.1-2.2-19.62-.32-2.4-.86-4.72-2.27-6.73-1.57-2.24-3.82-3.83-5.95-5.5-4.85-3.8-9.64-7.69-14.57-11.4-2.17-1.63-4.5-3.12-7.17-3.77-2.93-.72-5.99-.55-8.97-.47-13.21.37-26.42.96-39.62,1.78-7.24.45-14.5.86-21.71,1.57-6.44.63-11.06,4.66-16.61,7.59-11.94,6.3-25.27,9.74-38.76,10.17-1.48.05-2.09,1.42-1.84,2.53,0,.04-.02.08-.02.12-1.21,18.01-1.25,36.07-.52,54.1.03.77.57,1.73,1.42,1.86,51.12,7.8,103.4,6.86,154.2-2.79,2.13-.4,5.14-.43,6.57-2.33,1.45-1.94.49-5.08.25-7.23ZM728.9,478.94c-.83.63-3.69.72-4.72.91-1.42.27-2.84.53-4.26.78-3,.53-6,1.04-9.01,1.51-6.16.97-12.34,1.8-18.54,2.51-12.11,1.38-24.27,2.27-36.45,2.68-27.25.91-54.59-.64-81.57-4.58-.7-17.06-.66-34.13-.22-51.2,10.43-.46,20.76-2.6,30.46-6.48,4.97-1.99,9.78-4.36,14.34-7.17,2.42-1.49,4.66-3.24,7.51-3.8,2.9-.57,5.97-.59,8.92-.82,12.37-.93,24.75-1.66,37.15-2.19,6.2-.26,12.39-.5,18.59-.64,3-.07,6.01-.13,8.77,1.21,2.61,1.26,4.85,3.26,7.12,5.03,4.61,3.61,9.44,7.05,13.86,10.9,4.64,4.04,4.21,10.57,4.84,16.25.68,6.15,1.37,12.29,2.05,18.44.34,3.07.68,6.15,1.03,9.22.16,1.46.32,2.91.49,4.37.07.63.18,1.3.22,1.94.06,1.13.07.65-.57,1.14Z"/>
        <path class="cls-6" d="M629.33,418.61c-.18-1.67-2.78-1.73-2.66,0,1.23,19.08,2.23,38.18,3.44,57.26.12,1.97,3.15,2.01,3.1,0-.43-19.07-1.88-38.29-3.88-57.26Z"/>
        <path class="cls-6" d="M705.93,446.93c-.58-8.97-1.17-18.01-2.43-26.92-.23-1.64-2.99-1.25-2.89.39.52,9.01,1.43,18.01,1.97,27.02.54,9.02.83,18.05,1.15,27.09.08,2.2,3.46,2.21,3.43,0-.13-9.2-.64-18.4-1.23-27.58Z"/>
        <path class="cls-9" d="M701.82,351.83c-7.72,2.26-15.22,4.02-23.3,4.38-7.86.34-15.78.29-23.64.09-8.23-.21-16.31-1.23-24.47-2.19-7.94-.94-15.93-1.18-23.91-.73-8.95.5-18.22,1.57-26.82,4.16-1.49.45-.83,2.48.63,2.27,8.27-1.17,16.41-2.65,24.77-3.11,7.98-.45,15.96-.21,23.9.71,8.16.95,16.25,2.1,24.47,2.39,7.88.28,15.81.31,23.69.07,8.59-.26,17.59-1.44,25.61-4.69,2.01-.82,1.28-3.99-.92-3.35Z"/>
      </g>
      <g>
        <path class="cls-13" d="M664.87,157.69s2.56,4.25,3.08,7.87.52,6.11,1.02,7.11c.5,1,17.95,8.48,31.91,12.46,13.96,3.99,24.93,20.44,26.43,25.93,1.5,5.48,1.99,8.97,2.99,9.97s4.49,2.49,5.48,5.48c1,2.99.5,4.49,1,5.98s6.98,11.47,7.98,15.96c1,4.49,7.48,12.46,7.48,12.46l-21.94,26.92-147.09,17.95-41-81.39s2.11-17.34,12.08-29.8c9.97-12.46,29.92-21.44,34.4-23.43,4.49-1.99,11.97-4.99,12.96-5.98s5.2-15.19,6.59-16.57,21.83,2.11,21.83,2.11l34.8,6.96Z"/>
        <path class="cls-16" d="M661.24,190.37s-33.41-1.5-33.9,0c-.5,1.5,6.48,26.92,12.46,42.38,5.98,15.46,7.48,48.86,7.48,48.86l2.99.5s.5-26.43-2.99-39.39c-3.49-12.96-18.45-49.86-16.95-50.86,1.5-1,33.41,1.99,30.91-1.5Z"/>
        <path class="cls-14" d="M638.21,185.52c-5.73-3.47-12.05-5.78-18.09-8.64-5.66-2.68-11.23-6.03-15.91-10.23-.42-.37-1.17.12-.82.63,7.58,11.08,22.32,14.17,33.49,20.51,1.48.84,2.77-1.39,1.33-2.27Z"/>
        <path class="cls-14" d="M669.45,173.89c-.13-1.57-2.51-1.63-2.49,0,.07,5.37-.5,10.21-4.29,14.33-.73.8.37,1.89,1.18,1.18,4.33-3.78,6.08-9.9,5.6-15.51Z"/>
        <path class="cls-14" d="M713.43,245.51c-.52-10-2.64-20.35-.22-30.26.43-1.74-2.14-2.44-2.67-.74-2.9,9.26-1.94,18.64-1.24,28.16.36,4.93.54,9.93-.21,14.84-.75,4.89-2.36,9.43-4.39,13.92-1,2.23,2.15,4.2,3.35,1.96,4.59-8.54,5.88-18.32,5.38-27.88Z"/>
        <path class="cls-8" d="M727.29,214.36c-.26-1.3-2.23-.96-2.26.31-.12,5.47-.81,10.43-2.75,15.58-1.75,4.66-4.02,9.26-6.55,13.54-.55.94.82,1.69,1.43.84,3.16-4.43,5.74-9.06,7.71-14.15,1.93-4.98,3.5-10.77,2.42-16.12Z"/>
        <path class="cls-16" d="M640.39,198.77s-.03-.05-.05-.08c-.74-1.12-2.11-1.95-3.4-1.96-1.48,0-2.69,1.39-2.28,2.86.09.33.27.66.5.97.29.89.84,1.7,1.69,2.13,1.12.57,2.57.41,3.4-.58.9-1.08.78-2.32.14-3.34Z"/>
        <path class="cls-16" d="M674.45,199.42c-.38-1.72-2.36-2.94-4-1.99-.19.11-.37.24-.52.39-.37.12-.66.41-.79.82-.3.91-.3,1.98.25,2.81.09.14.2.26.31.38.02.02.03.04.04.05.02.02.04.03.05.04.02.02.03.03.05.04.04.04.09.08.14.11.44.34.98.53,1.55.59,1.82.17,3.31-1.42,2.92-3.23Z"/>
        <path class="cls-16" d="M658.87,255.39c-1.91-1.33-4.5-.2-4.52,2.21-.01,1.37.78,2.29,1.85,2.76.18.22.39.43.63.6.92.66,2.16.67,3.03-.08,1.9-1.62.75-4.29-.98-5.5Z"/>
        <path class="cls-16" d="M693.23,257.2c-.33-1.82-2.29-3.24-4.12-2.6-1.57.55-2.15,2.53-1.24,3.77.18,1.11.78,2.09,2.03,2.37,2.11.47,3.68-1.6,3.33-3.54Z"/>
      </g>
      <g>
        <path class="cls-16" d="M657,150.73s6.98,2.99,9.97,10.97c2.99,7.98-5.48,12.46-6.48,16.95s1.5,12.46,1,12.46-2.38,0-2.38,0l-14.57.5-3.49-.5s5.48-10.97,2.49-15.96c-2.99-4.99-33.9-17.95-35.4-22.44-1.5-4.49,1.99-6.48,4.99-6.48s43.88,4.49,43.88,4.49Z"/>
        <path class="cls-9" d="M618.61,146.24s-7.48-1-8.97,1.99,5.18,6.38,5.18,6.38l21.75,5.09,25.67,12.18s3.25-2.21,3.25-8.19-9.97-12.46-9.97-12.46l-36.9-4.99Z"/>
        <path class="cls-26" d="M617.61,138.76s1.5,11.97-3.49,15.46c0,0,21.94,12.46,27.42,15.96,5.48,3.49,5.98,6.98,5.98,9.47s-2.99,11.97-2.99,11.97l14.96-.5s-2.99-8.97-1-12.96c1.99-3.99,4.49-6.98,4.49-6.98,0,0-4.99-2.49-5.48-8.97-.5-6.48.5-15.96.5-15.96l-40.39-7.48Z"/>
        <path class="cls-21" d="M657.36,157.42c.04-5.55.63-11.17.63-11.17l-35.75-6.62-4.54.1c.12,1.47.25,4.41-.17,7.35,1.2,1.6,8.98,14.3,21.52,16.62,8.24,1.53,14.61-2.74,18.31-6.28Z"/>
      </g>
      <g>
        <path class="cls-1" d="M600.33,90.07s-9.55-.96-10.98-7.16c-1.43-6.21.96-9.07.96-9.07,0,0-12.89-6.21-6.68-22.92,6.21-16.71,21.01-15.76,21.01-15.76,0,0-1.43-7.64,6.21-10.03,7.64-2.39,10.98-.48,11.94-1.43s3.82-12.89,28.17-11.46c24.35,1.43,38.68,21.49,40.11,32.47,1.43,10.98-1.43,14.8-.96,16.23.48,1.43,4.3,3.82,4.3,9.55s-11.94,14.32-11.94,14.32c0,0,0,3.34-2.39,5.25-2.39,1.91-21.01,5.73-21.01,5.73l-58.73-5.73Z"/>
        <path class="cls-26" d="M603.68,89.59s1.91-14.32,15.76-22.92c13.85-8.59,33.42-7.16,42.02.96,8.6,8.12,11.94,20.05,12.41,22.44.48,2.39,2.86,13.37-.96,33.42-3.82,20.05-17.19,30.56-35.81,29.6-18.62-.96-27.69-14.8-30.56-31.99-2.87-17.19-2.87-31.51-2.87-31.51Z"/>
        <path class="cls-3" d="M673.87,90.07c-.39-1.94-2.67-10.18-8.11-17.55-.65,1.84-1.23,4.29-.72,6.33.95,3.82,6.21,6.68,6.68,17.19.48,10.5-7.64,20.05-8.59,20.05s-4.3-1.91-11.94-2.86c-7.64-.95-16.71.96-23.87,3.34-7.16,2.39-13.37,1.91-16.71-5.25-3.34-7.16-4.3-23.4-3.34-25.31.95-1.91,2.86-4.3,4.77-7.64,1.26-2.21,1.27-5.05,1.13-6.72-8.19,8.23-9.49,17.94-9.49,17.94,0,0,0,14.32,2.87,31.51,2.86,17.19,11.94,31.04,30.56,31.99,18.62.95,31.99-9.55,35.81-29.6,3.82-20.05,1.43-31.04.96-33.42Z"/>
        <path class="cls-9" d="M623.96,93.25c-.63-2.12-3.23-3.46-5.29-2.51-1.32.61-1.97,2.18-1.82,3.53-.17.93-.03,1.88.68,2.6.76.77,1.99,1.15,3.05,1.12,2.33-.05,4.04-2.54,3.38-4.74Z"/>
        <path class="cls-9" d="M657.05,90.05c-1.05.07-1.97.52-2.46,1.5-.25.51-.35,1.04-.29,1.55-.02.09-.04.18-.04.28-.11,1.88,1.6,3.49,3.45,3.41,1.93-.08,3.44-1.81,3.44-3.71,0-2.22-2.18-3.16-4.1-3.03Z"/>
        <path class="cls-3" d="M662.95,80.52c-3.36-2.85-7.2-5.04-11.44-6.28-2.3-.68-3.22,2.81-.98,3.57,3.76,1.27,7.18,3.01,10.38,5.36,1.53,1.13,3.5-1.41,2.04-2.65Z"/>
        <path class="cls-3" d="M626.19,73.59c-2.2.49-4.16,1.95-5.92,3.3-1.81,1.38-3.67,2.74-5.41,4.21-1.52,1.29.42,3.22,1.96,2.54,1.95-.85,3.59-2.35,5.29-3.61,1.74-1.29,3.55-2.19,5.45-3.2,1.84-.97.54-3.67-1.37-3.25Z"/>
        <path class="cls-15" d="M642.98,108.24c-.67-.43-1.37-.62-2.14-.78-.91-.19-1.72-.3-2.47.34-.52.43-.36,1.18,0,1.64.52.66,1.47.66,2.25.65.76-.01,1.45-.05,2.17-.32.66-.25.83-1.11.2-1.51Z"/>
        <path class="cls-9" d="M648.02,120.35c-2.37,1.59-4.96,2.64-7.77,3.18-2.86.55-5.51-.15-8.33.01-1.32.08-2.02,1.93-.71,2.63,2.74,1.45,6.55,1.04,9.47.37,3.24-.75,6.1-2.39,8.6-4.55.89-.77-.28-2.3-1.27-1.64Z"/>
        <path class="cls-26" d="M605.11,90.07s-7.16-3.82-9.07,3.34c-1.91,7.16,4.77,17.67,10.03,20.05,0,0-1.43-16.23-.95-23.4Z"/>
        <path class="cls-26" d="M672.91,89.59s1.91,10.98.48,23.4c0,0,10.5-8.59,9.07-18.14-1.43-9.55-6.68-7.64-9.55-5.25Z"/>
        <path class="cls-9" d="M686.47,70.14c-2.4.41-4.88.58-7.31.73-1.03.06-2.29.27-3.3-.06-.21-.07-.41-.16-.61-.26-2.74-10.89-10.05-20.96-19.33-26.58-.74-.45-1.49-.85-2.25-1.2,2.06-1,3.85-2.77,5.15-4.52.58-.78-.71-1.76-1.34-1.04-1.81,2.06-3.89,3.01-6.3,4.15-.16.08-.28.18-.37.29-.5-.16-1-.31-1.51-.44,1.87-1.9,3.3-4.55,4.15-6.62,1.63-4,1.87-8.25.8-12.42-.26-1-1.73-.57-1.53.42.74,3.66.33,7.54-1.13,10.98-.72,1.68-1.67,3.27-2.86,4.66-.78.91-1.69,1.63-2.58,2.38-1.03-.13-2.08-.22-3.14-.25-4.99-.15-10.19.09-15.01,1.49-6.79,1.97-12.71,6.23-17.2,11.63-.12-.01-.25,0-.4.03-1.87.48-3.68.42-5.52-.16-1.23-.39-1.71,1.48-.53,1.91,1.48.54,3,.76,4.53.71-1.19,1.68-2.23,3.45-3.16,5.28-.24-.25-.59-.4-1.02-.32-3.35.6-6.72.36-9.87-.64.92-.56.7-2.29-.66-2.36-1.85-.09-3.66-.29-5.47-.66-1.45-.3-2.22,1.52-1,2.36,5.06,3.48,11.14,4.71,17.13,3.49-3.03,6.81-4.36,14.42-4.09,21.81.04,1.03,1.5,1.01,1.59,0,1.38-15.84,7.41-32.81,23.28-39.34,4.09-1.69,8.45-2.24,12.85-2.39,2.17-.07,4.36-.1,6.51.09.22.18.52.26.85.16.05-.01.1-.04.15-.05,2.2.28,4.35.81,6.4,1.81,6.66,3.24,12.12,9.05,15.77,15.41,1.74,3.03,2.98,6.13,3.84,9.31-.03.17,0,.36.13.54.01.02.02.03.03.05,1.13,4.45,1.53,9.06,1.48,13.86-.01,1.35,2.22,1.74,2.43.33.59-3.89.46-7.87-.28-11.79,3.46.78,7.94-.75,11.08-1.34.95-.18.54-1.61-.4-1.45Z"/>
        <path class="cls-2" d="M625.77,29.47c.56.72,1.11,1.45,1.67,2.17.64.83,1.79-.33,1.15-1.15-.97-1.25-4.54-6.59-5.92-2.62-1.3,3.75,2.03,7.93,4.19,10.58.56.69,1.5-.29.97-.97-1.57-2.02-3.19-4.16-3.64-6.75-.13-.77-.32-1.27.26-1.87.71-.73.75-.08,1.3.62Z"/>
        <path class="cls-2" d="M687.21,42.8c-.87-1.49-3.94-.1-5.1.16-1.14.26-.65,1.96.48,1.74.39-.08,1.98-.58,2.52-.55-.02.04-.04.07-.06.12-.25.44-.55.86-.87,1.25-.92,1.12-2.07,2.06-3.33,2.78-3.09,1.78-6.66,2.13-10.15,1.81-1.04-.09-1.02,1.51,0,1.61,5.25.53,10.85-.61,14.52-4.67.8-.88,2.76-2.93,1.99-4.26Z"/>
        <path class="cls-2" d="M681.45,55.2c-2.46.38-4.91.41-7.37.09-.88-.12-1.1,1.43-.21,1.56,2.7.38,5.32.37,8.01-.12,1.01-.19.57-1.68-.42-1.53Z"/>
        <path class="cls-2" d="M598.22,69.45c-1.16.53-2.38.82-3.64.98-1.03.13-1.1,1.72,0,1.67,1.57-.07,3.07-.52,4.49-1.19.99-.46.13-1.91-.85-1.46Z"/>
      </g>
      <g>
        <path class="cls-21" d="M684.42,322.74s18.45-18.95,28.42-22.44c9.97-3.49-25.93-5.48-25.93-5.48l-19.94,6.48,17.45,21.44Z"/>
        <g>
          <path class="cls-26" d="M694.89,278.87s12.46-10.97,20.44-19.45c7.98-8.48,14.96-15.96,18.95-16.45s13.96,4.49,15.46,5.98,1,3.49,1,3.49c0,0,4.49,2.49,5.48,4.99,1,2.49,0,3.49,1.5,3.99,1.5.5,3.99,1.5,3.99,2.99s-.5,2.49-.5,2.49c0,0,1.99,1.5,1.99,2.99s-5.98,9.97-5.98,9.97l-47.37,4.49-14.96-5.48Z"/>
          <path class="cls-15" d="M740.59,277.18c-.19-1.36-.59-2.93-1.03-4.23-.4-1.16-1.06-1.7-1.75-2.63-.87-1.18-.69-2.68-1.65-3.81-1.07-1.26-2.09-1.23-2.35-3.05-.4-2.79-1.6-3.35-3.51-5.22-1.15-1.13-1.18-2.55-2.07-3.79-.7-.98-1.62-1.52-2.7-1.97-.68-.28-1.15.86-.5,1.19,1.93.97,1.57,2.77,2.26,4.46.38.92,1.04,1.59,1.77,2.24,1.29,1.15,1.96,1.58,2.19,3.44.13,1.03.22,1.89.89,2.73.85,1.06,1.84,1.47,2.31,2.92.36,1.09.47,1.67,1.25,2.57.97,1.11,1.34,1.84,1.67,3.29.26,1.18.45,2.12,1.33,2.98.88.85,2.03-.04,1.88-1.1Z"/>
          <path class="cls-13" d="M685.08,280.2s13.8-3.32,18.78-5.32c4.99-1.99,15.96.5,18.45,1,2.49.5,5.48-2.49,9.47-2.49s12.46,1.99,14.46.5c1.99-1.5,5.98-3.99,10.97-4.49,4.99-.5,7.98-1,10.47.5s-1,3.99,0,6.98c1,2.99,3.99,6.48,3.99,9.47s0,1,1.5,7.98c1.5,6.98,2.49,20.44-8.48,26.43-10.97,5.98-7.48,1.5-11.97,4.99-4.49,3.49-15.96,5.98-22.44,2.49-6.48-3.49-21.18-1.37-21.18-1.37l-24.03-46.66Z"/>
          <path class="cls-14" d="M764.69,278.87c-2.9-2.62-5.5-5.38-9.27-6.51-1.83-.55-3.79-.81-5.7-.65-2.14.18-4.33,1.62-6.41.76-1.05-.43-1.75,1.29-.77,1.83,1.25.69,2.29,1.05,3.71.76,2.43-.5,4.3-1.1,6.84-.57,4.27.89,7.4,3.66,10.86,6.09,1.28.9,1.89-.66.74-1.71Z"/>
          <path class="cls-16" d="M725.39,326.71c1.54.26,2.98.63,4.19,1.17,6.07-8.41,4.49-21.91.74-30.69-2.45-5.73-6.2-10.62-10.73-14.88-3.41-3.21-7.29-6.51-11.76-8.17-1.51.08-2.88.3-3.97.73-.22.09-.46.18-.71.27.1.08.22.15.37.2,5.2,1.92,9.34,5.32,13.24,9.18,4.01,3.96,7.48,8.42,9.71,13.63,2.12,4.96,3.24,10.35,3.07,15.75-.16,4.88-1.58,8.88-4.16,12.8Z"/>
          <path class="cls-21" d="M750.35,252.16c-1.28-1-2.77-1.71-4.17-2.52-1.21-.7-2.32-1.15-3.74-.85-1.04.22-2.04.69-3.02,1.2-.13-.12-.28-.22-.47-.3-2-.79-3.71-.77-5.25.85-1.2,1.26-2.89,2.94-2.53,4.78.18.9,1.25,1.16,1.97.8,2.63-1.31,5.25-2.65,7.88-3.96,1.43-.71,2.81-1.3,4.45-.83,1.42.41,2.62.73,3.78,1.6.93.69,2.03-.06,1.11-.78Z"/>
          <path class="cls-21" d="M759.64,264.96c-3.48-.33-6.64-2.1-10.13-2.42-3.46-.32-6.68,1-9.76,2.43-.87.4-.24,1.94.66,1.57,3.65-1.47,6.84-2.22,10.71-1.11,2.86.82,5.52,1.97,8.51,2.3,1.75.19,1.76-2.59,0-2.76Z"/>
        </g>
        <g>
          <path class="cls-13" d="M678.44,307.79s4.99,5.98,7.48,16.45,1.99,10.97.5,11.97c-1.5,1-64.32,20.44-89.75,12.96-25.43-7.48-40.39-46.37-41.88-51.36-1.5-4.99-1-12.96-2.99-14.96-1.99-1.99-8.48-5.98-9.97-17.95-1.5-11.97-2.49-39.39,3.99-53.85,6.48-14.46,46.87-4.99,52.35,6.98,5.48,11.97,6.23,27.67,9.22,34.15,2.99,6.48,6.98,11.97,6.98,15.46s-.96,5.98,1.26,8.47c2.23,2.5,5.22,4.99,5.22,4.99l55.84,21.44,1.75,5.24Z"/>
          <path class="cls-14" d="M618.52,278.64c-1.48-2.11-2.38-4.46-2.31-7.06.07-2.37.88-4.52.42-6.91-.96-4.89-5.56-7.68-7.05-12.27-.8-2.46-.92-5.16-1.35-7.69-.45-2.64-.96-5.28-1.55-7.89-1.26-5.57-2.97-10.96-4.98-16.3-.6-1.58-3.07-.98-2.58.71,1.55,5.46,2.87,11.01,3.99,16.57.56,2.79,1.06,5.59,1.48,8.4.4,2.7.55,5.52,1.53,8.09,1.64,4.3,6.89,7.64,6.76,12.5-.06,2.45-.81,4.6-.46,7.1.35,2.47,1.3,4.7,2.79,6.69,1.45,1.93,4.75.11,3.31-1.93Z"/>
          <path class="cls-8" d="M603.75,244.84c-.92-3.74-3.03-7.35-4.88-10.69-1.72-3.1-3.63-6.1-5.92-8.81-4.47-5.3-10.22-9.51-16.62-12.16-6.56-2.72-14.2-3.8-21.01-1.27-5.33,1.98-10.72,6.34-12.01,12.13-.18.82.98,1.39,1.41.59,2.82-5.22,6.81-9.08,12.67-10.69,6.82-1.88,14.24-.22,20.43,2.91,5.46,2.76,10.31,6.72,14.08,11.54,4.15,5.3,6.69,11.4,9.54,17.42.63,1.33,2.65.37,2.32-.98Z"/>
          <path class="cls-16" d="M671.25,340.84c1.39-5.84.63-12.49-.56-18.01-2.03-9.38-6.49-17.62-12.78-24.8-1.03-1.17-2.67.52-1.7,1.7,5.28,6.39,8.93,14.38,10.65,22.46,1.26,5.91,2.26,13.73-.04,19.82,1.54-.4,3.02-.79,4.43-1.18Z"/>
        </g>
        <g>
          <path class="cls-9" d="M686.91,309.78c0,.5,8.97,17.45,20.44,17.45s4.6-12.96,4.6-12.96l-18.56-16.45-6.48,11.97Z"/>
          <path class="cls-26" d="M713.34,317.76s-40.88-10.47-49.36-11.97c-8.48-1.5-24.93,2.49-29.92,2.49s-10.47-1.99-14.46.5c-3.99,2.49-16.95,9.47-19.45,8.97-2.49-.5-4.49-3.49-1.99-5.48,2.49-1.99,17.95-10.47,17.95-10.47,0,0-8.48,1-13.96,4.99s-12.46,7.48-15.46,6.48c-2.99-1-2.99-4.99-2.99-4.99,0,0-4.49.5-4.99-2.99-.5-3.49,12.96-14.46,16.45-16.45,0,0-13.46,5.98-16.45,5.48-2.99-.5-3.49-4.49,5.48-8.97,8.97-4.49,12.96-6.48,17.45-7.48,4.49-1,19.94-2.49,22.94-1.5,2.99,1,32.41,4.49,40.88,4.49s19.94-1,22.44-.5c2.49.5,19.45,16.95,25.43,37.39Z"/>
          <path class="cls-15" d="M628.82,301.89c-.37-1.52.36-3.14-.29-4.61-.27-.61-.57-.65-.91-1.19-.69-1.11-.84-1.92-.75-3.25.08-1.13.29-1.9-.22-2.99-.67-1.41-2.21-2.29-2.35-3.97-.11-1.31.45-2.51.16-3.85-.48-2.28-2.21-4.1-4.46-4.68-.77-.2-1.32.96-.56,1.32,1.4.68,2.58,1.66,3.06,3.21.42,1.37-.13,2.63-.13,4,0,2.16,1.75,2.91,2.48,4.69.83,2.03-1.04,3.93.41,5.89.27.36.74.63.98,1,1.22,1.89.35,1.96.44,3.24.09,1.26.97,2.93.58,4.11-.39,1.18,1.4,1.63,1.83.51.51-1.32.04-2.12-.28-3.42Z"/>
          <path class="cls-21" d="M614.55,281.31c-6.93-.45-14.36,2.52-20.03,6.3-1.45.96-.12,3.29,1.37,2.35,6-3.76,12.1-5.26,18.92-6.74,1.13-.24.79-1.85-.26-1.92Z"/>
        </g>
      </g>
    </g>
  </g>
</svg>