<?xml version="1.0" encoding="UTF-8"?>
<svg id="Layer_1" data-name="Layer 1" xmlns="http://www.w3.org/2000/svg" viewBox="0 0 1000 1000">
  <defs>
    <style>
      .cls-1 {
        fill: #9c649b;
      }
    </style>
  </defs>
  <path class="cls-1" d="M639.16,703c-2.82,0-5.31-2.02-5.81-4.89l-68.7-396.53c-.55-3.21,1.6-6.26,4.81-6.82,3.15-.5,6.26,1.59,6.82,4.81l68.7,396.53c.55,3.21-1.6,6.26-4.81,6.82-.34.05-.68.08-1.01.08Z"/>
  <path class="cls-1" d="M362.32,736.52c-.11,0-.22,0-.33,0-5.42-.18-9.68-4.72-9.5-10.15,2.12-65.32,32.07-100.14,56.82-117.84,30.56-21.86,71.57-29.49,104.48-19.43,26.28,8.07,50.66,25.43,70.49,50.21,16.14,20.16,29.27,44.86,38,71.44,1.7,5.16-1.11,10.72-6.28,12.41-5.16,1.72-10.72-1.12-12.41-6.28-8.01-24.36-19.99-46.94-34.67-65.28-17.36-21.69-38.42-36.8-60.9-43.7-27.24-8.34-61.52-1.81-87.27,16.62-21.14,15.13-46.75,45.19-48.61,102.49-.17,5.32-4.54,9.51-9.82,9.51Z"/>
  <path class="cls-1" d="M463.54,601.73c-23.11,0-45.45-7.54-64.82-22.39-32.33-24.79-50.16-65.72-44.36-101.86,5.07-31.63,27.03-55.8,61.84-68.07,54.88-23.9,106.37,7.74,128.92,51.47,20.91,40.55,19.49,98.46-33.02,129.77-.33.2-.67.38-1.01.53-15.74,7.06-31.82,10.55-47.55,10.55ZM454.75,420.77c-9.87,0-20.27,2.09-30.99,6.81-.23.1-.47.19-.72.28-28.28,9.88-45.32,28.11-49.27,52.74-4.68,29.21,10.15,62.62,36.91,83.13,15.59,11.96,48.21,29.06,91.82,9.74,41.35-25,42.45-69.98,25.13-103.57-13.66-26.5-40.43-49.13-72.89-49.13ZM419.8,418.57h.08-.08Z"/>
  <path class="cls-1" d="M480.86,644.45h-.09c-7.65-.03-15.15-3.22-22.93-9.75-8.92-7.5-16.11-17.1-20.78-27.77-2.18-4.97.08-10.77,5.06-12.95,4.97-2.22,10.78.08,12.95,5.06,3.47,7.91,8.8,15.04,15.43,20.61,4.06,3.4,7.31,5.13,10.37,5.14,3.69,0,7.94-3.31,10.36-8.06,2.93-5.78,3.71-13.24,4.46-20.46.55-5.4,5.34-9.4,10.8-8.77,5.4.55,9.33,5.39,8.77,10.8-.88,8.58-1.89,18.31-6.48,27.35-5.82,11.44-16.76,18.82-27.9,18.82Z"/>
  <path class="cls-1" d="M463.47,735.87c-.46,0-.93-.03-1.4-.1-5.38-.76-9.12-5.75-8.35-11.12l13.17-92.44c.77-5.38,5.75-9.16,11.12-8.35,5.38.76,9.12,5.75,8.35,11.12l-13.17,92.44c-.7,4.91-4.9,8.45-9.72,8.45Z"/>
  <path class="cls-1" d="M526.72,730.17c-3.97,0-7.71-2.42-9.2-6.35l-34.32-90.63c-1.92-5.08.64-10.76,5.72-12.68,5.06-1.95,10.75.63,12.68,5.72l34.32,90.63c1.92,5.08-.64,10.76-5.72,12.68-1.14.44-2.32.64-3.48.64Z"/>
  <path class="cls-1" d="M499.73,496c-41.99,0-83.67-10.83-120.46-31.68-4.73-2.68-6.39-8.68-3.71-13.41,2.68-4.73,8.69-6.4,13.41-3.71,44.57,25.26,96.97,34.52,147.49,26.09,5.42-.79,10.43,2.73,11.32,8.08.89,5.36-2.73,10.43-8.08,11.33-13.25,2.21-26.63,3.3-39.97,3.3Z"/>
  <path class="cls-1" d="M675.99,811.91c-2.07,0-4.16-.65-5.94-2-4.33-3.29-5.17-9.45-1.89-13.78,5.29-6.96,6.58-18.77,3.84-35.09l-86.06-512.82c-3.54-21.55-6.49-35.17-22.01-43.15-12.62-6.48-32.5-4.43-50.03-2.62-5.71.59-11.16,1.15-16.12,1.41l-122.36,6.53c-10.59.57-21.21,1.06-31.83,1.54-20.71.95-42.13,1.94-63.05,3.51-15.04,1.13-24.47,7.05-28.03,17.61-1.74,5.15-7.32,7.91-12.46,6.18-5.15-1.74-7.91-7.31-6.18-12.46,6.15-18.23,22.2-29.21,45.19-30.93,21.21-1.6,42.77-2.59,63.62-3.55,10.57-.48,21.14-.98,31.69-1.54l122.36-6.53c4.66-.25,9.77-.78,15.14-1.34,20.27-2.11,43.23-4.48,61.06,4.69,25.11,12.92,29,36.57,32.42,57.45l14.04,83.77,72,428.99c3.73,22.19,1.25,38.62-7.56,50.24-1.94,2.55-4.87,3.89-7.84,3.89Z"/>
  <path class="cls-1" d="M668.32,217.19c-.49,0-.99-.04-1.49-.11l-35.77-5.44c-5.37-.82-9.07-5.83-8.24-11.2.81-5.37,5.87-9.05,11.19-8.24l35.77,5.44c5.37.81,9.07,5.83,8.24,11.19-.74,4.87-4.93,8.36-9.7,8.36Z"/>
  <path class="cls-1" d="M602.03,173.46c-1.58,0-3.19-.38-4.68-1.19-4.78-2.59-6.55-8.56-3.96-13.33,6.34-11.69,15.44-21.91,26.32-29.55,4.46-3.13,10.59-2.05,13.7,2.39,3.13,4.44,2.05,10.58-2.39,13.7-8.41,5.91-15.44,13.81-20.34,22.83-1.78,3.29-5.16,5.15-8.65,5.15Z"/>
  <path class="cls-1" d="M563.25,155.96c-.21,0-.43,0-.65-.02-5.42-.35-9.53-5.03-9.17-10.45l2.67-40.75c.35-5.42,4.97-9.55,10.46-9.17,5.42.35,9.53,5.03,9.17,10.46l-2.67,40.73c-.34,5.2-4.66,9.2-9.8,9.2Z"/>
  <path class="cls-1" d="M339.96,820.58c-2.99,0-5.94-1.35-7.87-3.93-5.06-6.73-8.35-14.47-9.78-23l-62.95-375.07c-3.05-18.16-6.39-36.36-9.74-54.58-6.63-36.1-13.48-73.44-17.94-110.41-1.19-9.97-.46-18.99,2.18-26.83,1.73-5.14,7.28-7.92,12.46-6.18,5.15,1.74,7.91,7.31,6.18,12.46-1.7,5.04-2.14,11.16-1.29,18.2,4.38,36.37,11.18,73.39,17.76,109.21,3.37,18.31,6.73,36.6,9.79,54.87l62.95,375.08c.91,5.39,2.97,10.25,6.11,14.44,3.27,4.34,2.39,10.51-1.95,13.77-1.77,1.33-3.84,1.97-5.9,1.97Z"/>
  <path class="cls-1" d="M299.24,865.34c-2.99,0-5.95-1.36-7.88-3.93-5.06-6.75-8.35-14.48-9.77-22.99l-62.94-375.08c-3.04-18.1-6.37-36.23-9.7-54.38-6.65-36.17-13.52-73.57-17.98-110.61l-.14-1.14c-1.15-9.43-2.45-20.11,3.75-28.42,13.52-18.13,50.04-57.1,51.59-58.75,3.72-3.96,9.95-4.15,13.91-.45,3.96,3.72,4.16,9.94.45,13.91-.38.39-37.31,39.81-50.17,57.05-1.49,2-.58,9.39,0,14.28l.15,1.18c4.39,36.44,11.2,73.53,17.79,109.4,3.36,18.25,6.71,36.48,9.76,54.68l62.94,375.08c.91,5.38,2.96,10.24,6.12,14.44,3.26,4.35,2.38,10.51-1.97,13.77-1.77,1.33-3.84,1.97-5.89,1.97Z"/>
  <path class="cls-1" d="M350.71,884.12c-4.24,0-8.47-.04-12.69-.11-18.82-.32-36.27-8.77-46.65-22.61-3.26-4.34-2.38-10.51,1.97-13.77,4.34-3.27,10.5-2.37,13.77,1.97,6.77,9.02,18.45,14.53,31.26,14.74,44.03.74,89.72-2.74,133.85-6.12,22.04-1.68,44.83-3.43,67.1-4.62,7.81-.41,15.74-.61,23.71-.81,15.43-.38,31.38-.78,46.27-2.87,8.8-1.25,13.65-5.42,19.26-10.26,4.14-3.56,9.05-8.52,13.98-13.83-12.77,1.24-25.73,1.56-38.35,1.87-7.78.19-15.51.38-23.12.78-22.04,1.18-44.7,2.91-66.62,4.59-44.58,3.4-90.67,6.92-135.71,6.18-18.82-.32-36.25-8.77-46.65-22.6-3.26-4.35-2.38-10.51,1.96-13.78,4.36-3.27,10.51-2.39,13.78,1.96,6.77,9.02,18.45,14.54,31.25,14.75,44.03.73,89.74-2.74,133.86-6.12,22.04-1.68,44.82-3.43,67.08-4.62,7.79-.41,15.71-.61,23.68-.81,15.44-.38,31.39-.78,46.3-2.89,7.9-1.11,13.58-3.73,17.3-7.98.64-.78,1-1.23,1.03-1.27,3.37-4.18,9.47-4.89,13.72-1.59,4.23,3.31,5.03,9.41,1.78,13.7-.47.61-.95,1.21-1.44,1.79-5.45,6.69-26.65,32.4-40.68,44.47-6.93,5.97-15.15,13.05-29.66,15.11-16.03,2.27-32.55,2.67-48.54,3.07-7.78.19-15.53.38-23.15.78-22.04,1.18-44.71,2.91-66.64,4.59-40.39,3.1-82.04,6.28-123,6.28Z"/>
  <path class="cls-1" d="M331.42,746.46c-5.19,0-9.54-4.06-9.81-9.31-.29-5.42,3.87-10.06,9.3-10.34l339.44-18.11c5.34-.28,10.06,3.87,10.34,9.3.29,5.42-3.87,10.06-9.3,10.34l-339.44,18.11c-.18,0-.35.01-.53.01Z"/>
  <path class="cls-1" d="M256.2,298.25c-5.19,0-9.54-4.06-9.81-9.31-.29-5.42,3.87-10.06,9.3-10.34l339.44-18.11c5.37-.18,10.06,3.86,10.34,9.3.29,5.42-3.87,10.06-9.3,10.34l-339.44,18.11c-.18,0-.35.01-.53.01Z"/>
  <path class="cls-1" d="M517.86,800.34c-9.8,0-18.73-4.75-24.21-12.97-5.45-8.18-6.42-18.06-2.55-25.78,2.17-4.32,7.85-11.68,21.57-12.41h0c18.07-.98,30.13,13.17,30.97,26.8.69,11.22-6.36,23.08-23.66,24.28-.71.05-1.42.08-2.12.08ZM513.3,760.97c-4.07.22-9.4,1.42-11.65,5.92-1.95,3.88-1.23,9.35,1.83,13.94,1.68,2.52,6.54,8.28,15.69,7.67,8.49-.59,13.12-4.89,12.69-11.79-.49-8.02-8.08-16.42-18.56-15.74h0Z"/>
  <path class="cls-1" d="M598.82,866.61c-1.05,0-2.12-.28-3.09-.88-2.77-1.71-3.63-5.35-1.93-8.12,8.01-12.99,17.04-25.52,26.86-37.24,2.1-2.49,5.82-2.82,8.31-.74,2.5,2.09,2.83,5.82.74,8.31-9.46,11.29-18.16,23.36-25.86,35.86-1.11,1.81-3.05,2.8-5.03,2.8Z"/>
  <path class="cls-1" d="M574.86,863.27c-1.48,0-2.97-.55-4.11-1.67-2.34-2.27-2.39-6.01-.12-8.34,9.7-9.98,18.25-21.13,25.39-33.13,1.67-2.8,5.29-3.71,8.09-2.05,2.8,1.67,3.72,5.29,2.05,8.09-7.61,12.79-16.73,24.68-27.07,35.31-1.16,1.19-2.7,1.79-4.23,1.79Z"/>
  <path class="cls-1" d="M548.18,867.56c-1.08,0-2.17-.29-3.14-.91-2.76-1.74-3.58-5.39-1.84-8.14l25.16-39.91c1.74-2.75,5.39-3.58,8.14-1.84,2.75,1.74,3.58,5.39,1.84,8.14l-25.16,39.91c-1.12,1.77-3.04,2.75-5,2.75Z"/>
  <path class="cls-1" d="M516.43,866.05c-.98,0-1.97-.25-2.88-.76-2.84-1.59-3.85-5.19-2.26-8.03l19.12-34.01c1.6-2.84,5.19-3.83,8.04-2.26,2.84,1.6,3.85,5.19,2.26,8.04l-19.12,34.01c-1.08,1.93-3.09,3.01-5.16,3.01Z"/>
  <path class="cls-1" d="M486.89,870.26c-1.07,0-2.16-.29-3.13-.91-2.76-1.74-3.59-5.38-1.85-8.14l22.67-36.03c1.74-2.75,5.36-3.6,8.14-1.85,2.76,1.74,3.59,5.38,1.85,8.14l-22.67,36.03c-1.12,1.78-3.03,2.76-5,2.76Z"/>
  <path class="cls-1" d="M455.59,871.12c-1.1,0-2.21-.31-3.2-.94-2.74-1.77-3.51-5.43-1.74-8.17l22.05-34.03c1.78-2.73,5.42-3.52,8.16-1.74,2.74,1.77,3.51,5.42,1.74,8.16l-22.04,34.03c-1.13,1.74-3.03,2.69-4.96,2.69Z"/>
  <path class="cls-1" d="M420.9,877.21c-1.09,0-2.2-.31-3.19-.94-2.74-1.77-3.53-5.42-1.77-8.16l25.19-39.09c1.77-2.74,5.41-3.53,8.16-1.77,2.74,1.77,3.53,5.42,1.77,8.16l-25.19,39.09c-1.13,1.75-3.03,2.7-4.97,2.7Z"/>
  <path class="cls-1" d="M393.42,877.27c-1.09,0-2.21-.31-3.19-.94-2.74-1.77-3.53-5.42-1.76-8.15l22.2-34.4c1.75-2.74,5.42-3.53,8.15-1.76,2.74,1.77,3.53,5.42,1.76,8.15l-22.2,34.4c-1.13,1.75-3.03,2.7-4.96,2.7Z"/>
  <path class="cls-1" d="M357.23,878.09c-1.15,0-2.31-.34-3.33-1.04-2.69-1.85-3.37-5.52-1.52-8.21l26.85-39.02c1.85-2.69,5.52-3.37,8.21-1.52,2.69,1.85,3.37,5.52,1.52,8.21l-26.85,39.02c-1.14,1.67-2.99,2.56-4.87,2.56Z"/>
  <path class="cls-1" d="M326.17,877.02c-1.1,0-2.21-.31-3.2-.95-2.73-1.77-3.51-5.43-1.74-8.16l31.47-48.45c1.77-2.74,5.42-3.52,8.16-1.74,2.74,1.77,3.51,5.43,1.74,8.16l-31.47,48.45c-1.13,1.74-3.02,2.69-4.96,2.69Z"/>
  <path class="cls-1" d="M302.41,863.21c-1.14,0-2.29-.33-3.3-1.01-2.7-1.83-3.4-5.5-1.58-8.2l36.67-54.12c1.83-2.7,5.49-3.4,8.2-1.58,2.7,1.83,3.4,5.5,1.58,8.2l-36.67,54.12c-1.14,1.68-3,2.59-4.89,2.59Z"/>
  <path class="cls-1" d="M292.67,831.2c-1.1,0-2.2-.31-3.2-.94-2.74-1.77-3.52-5.42-1.75-8.16l33.05-51.12c1.77-2.73,5.42-3.52,8.16-1.75,2.74,1.77,3.52,5.42,1.75,8.16l-33.05,51.12c-1.13,1.74-3.03,2.7-4.96,2.7Z"/>
  <path class="cls-1" d="M285.53,785.28c-1.23,0-2.47-.38-3.53-1.18-2.6-1.95-3.13-5.65-1.18-8.26l35.65-47.53c1.95-2.61,5.65-3.15,8.26-1.18,2.61,1.95,3.14,5.65,1.18,8.26l-35.65,47.53c-1.15,1.54-2.93,2.36-4.73,2.36Z"/>
  <path class="cls-1" d="M281.26,743.56c-1.25,0-2.5-.39-3.57-1.21-2.59-1.97-3.1-5.67-1.12-8.27l32.78-43.15c1.97-2.59,5.68-3.1,8.27-1.14,2.6,1.97,3.1,5.68,1.14,8.27l-32.79,43.17c-1.16,1.53-2.92,2.33-4.7,2.33Z"/>
  <path class="cls-1" d="M274.7,710.82c-1.37,0-2.73-.47-3.85-1.43-2.47-2.13-2.75-5.85-.62-8.32l32.93-38.22c2.14-2.49,5.86-2.74,8.32-.62,2.47,2.13,2.75,5.85.62,8.32l-32.93,38.22c-1.17,1.36-2.82,2.05-4.47,2.05Z"/>
  <path class="cls-1" d="M266.93,674.1c-1.1,0-2.21-.31-3.2-.95-2.73-1.77-3.52-5.42-1.75-8.16l29.67-45.89c1.77-2.74,5.42-3.51,8.16-1.75,2.73,1.77,3.52,5.42,1.75,8.16l-29.67,45.89c-1.13,1.74-3.03,2.7-4.96,2.7Z"/>
  <path class="cls-1" d="M263.46,634.28c-1.36,0-2.72-.46-3.83-1.41-2.47-2.11-2.77-5.84-.65-8.32,12.61-14.77,23.96-30.76,33.77-47.56,1.63-2.82,5.23-3.77,8.07-2.12,2.81,1.64,3.76,5.25,2.12,8.07-10.15,17.4-21.92,33.98-34.98,49.28-1.17,1.37-2.82,2.07-4.49,2.07Z"/>
  <path class="cls-1" d="M255.45,597.85c-1.21,0-2.42-.37-3.47-1.13-2.63-1.92-3.21-5.62-1.3-8.24l32.69-44.84c1.93-2.65,5.62-3.21,8.24-1.3,2.64,1.92,3.21,5.62,1.3,8.24l-32.69,44.84c-1.16,1.59-2.96,2.43-4.78,2.43Z"/>
  <path class="cls-1" d="M251.53,559.31c-1.39,0-2.79-.49-3.91-1.48-2.44-2.16-2.67-5.89-.51-8.33,10.46-11.81,19.09-25.06,25.68-39.37,1.38-2.96,4.89-4.25,7.83-2.9,2.96,1.37,4.26,4.87,2.9,7.83-7.07,15.37-16.35,29.59-27.57,42.26-1.17,1.32-2.79,1.99-4.42,1.99Z"/>
  <path class="cls-1" d="M238.92,518.98c-1.24,0-2.49-.39-3.55-1.19-2.6-1.97-3.11-5.67-1.15-8.27l32.29-42.71c1.96-2.6,5.67-3.11,8.27-1.15,2.6,1.97,3.11,5.67,1.15,8.27l-32.29,42.71c-1.16,1.54-2.93,2.34-4.72,2.34Z"/>
  <path class="cls-1" d="M237.83,475.53c-1.1,0-2.21-.31-3.2-.95-2.74-1.77-3.52-5.42-1.75-8.16,9.61-14.87,18.33-30.53,25.89-46.53,1.39-2.95,4.92-4.2,7.85-2.81,2.95,1.39,4.21,4.91,2.81,7.85-7.78,16.47-16.75,32.59-26.65,47.9-1.13,1.74-3.03,2.7-4.96,2.7Z"/>
  <path class="cls-1" d="M228.42,434.42c-1.12,0-2.26-.32-3.26-.99-2.71-1.8-3.45-5.46-1.64-8.18l28.22-42.46c1.81-2.72,5.46-3.47,8.18-1.65,2.71,1.81,3.45,5.47,1.65,8.18l-28.24,42.46c-1.13,1.71-3,2.64-4.92,2.64Z"/>
  <path class="cls-1" d="M216.4,396.36c-1.38,0-2.77-.48-3.89-1.47-2.45-2.14-2.7-5.87-.55-8.32,13.41-15.3,24.45-32.48,32.82-51.06,1.34-2.97,4.85-4.28,7.8-2.95,2.97,1.34,4.3,4.83,2.96,7.8-8.85,19.65-20.53,37.81-34.71,53.98-1.16,1.33-2.8,2.01-4.43,2.01Z"/>
  <path class="cls-1" d="M209.36,356.28c-.75,0-1.51-.15-2.24-.44-2.59-1.07-4.07-3.8-3.56-6.55l.35-1.88c.34-1.94,1.58-3.48,3.22-4.28,10.29-15.26,20.63-30.47,31.04-45.65,1.83-2.68,5.51-3.38,8.2-1.53,2.69,1.84,3.37,5.51,1.53,8.2-11.28,16.47-22.5,32.98-33.65,49.53-1.12,1.67-2.98,2.6-4.89,2.6Z"/>
  <path class="cls-1" d="M207.88,316.37c-1.01,0-2.04-.26-2.97-.81-2.82-1.64-3.76-5.25-2.12-8.07,8.22-14.08,18.11-27.17,29.37-38.91,2.25-2.35,5.99-2.44,8.34-.17,2.35,2.26,2.43,5.99.17,8.34-10.63,11.07-19.94,23.41-27.7,36.68-1.1,1.88-3.07,2.93-5.1,2.93Z"/>
</svg>