<?xml version="1.0" encoding="UTF-8"?>
<svg id="Layer_1" data-name="Layer 1" xmlns="http://www.w3.org/2000/svg" viewBox="0 0 1000 1000">
  <defs>
    <style>
      .cls-1 {
        fill: #9c649b;
      }

      .cls-2 {
        fill: #d4dcff;
      }

      .cls-3 {
        fill: #fff;
      }

      .cls-4 {
        fill: #43c4db;
      }

      .cls-5 {
        fill: #c069a9;
      }

      .cls-6 {
        fill: #ff940a;
      }

      .cls-7 {
        fill: #070a3d;
      }

      .cls-8 {
        fill: #fa9265;
      }

      .cls-9 {
        fill: #d37d58;
      }
    </style>
  </defs>
  <path class="cls-9" d="M386.62,148.39c-.52-.23-1.02-.17-1.59-.17-.54,0-1.09,0-1.63-.01-1.23-.02-2.45-.05-3.68-.11-2.4-.1-4.8-.31-7.2-.43-.46-.02-.58.74-.11.82,2.38.4,4.77.58,7.17.7,1.18.06,2.36.1,3.54.12.64.01,1.27.01,1.91.01.55,0,1.08.06,1.59-.18.28-.13.29-.63,0-.76Z"/>
  <path class="cls-9" d="M357.88,136.63c-2.21-2.96-6.24-3.93-9.75-4.03-2.07-.06-4.29.29-5.91,1.68-.67.58-1.22,1.32-1.55,2.13-.13.06-.25.16-.29.33-.98,3.9,2.24,7.11,5.53,8.56,3.45,1.52,8,2.6,11.26.08,2.8-2.16,2.71-6.07.71-8.74ZM356.66,143.95c-2.45,2.34-6.25,1.54-9.1.52-2.52-.91-5-2.59-5.85-5.07.07-.13.1-.28.06-.46-.29-1.4.37-2.77,1.45-3.65,1.24-1.01,2.94-1.26,4.49-1.25,2.91.02,6.29.63,8.43,2.76,1.88,1.86,2.59,5.15.51,7.14Z"/>
  <path class="cls-9" d="M381.18,124.16c-6.44-2.02-13.26-2.07-19.9-1.17-3.29.45-6.56,1.1-9.78,1.93-2.85.73-5.77,1.75-7.97,3.78-2.21,2.03-3.67,5.17-2.8,8.17.19.65,1.11.37,1-.28-.46-2.64.79-5.22,2.73-6.97,2.15-1.94,5.06-2.83,7.8-3.51,5.94-1.48,12.07-2.5,18.21-2.33,3.52.1,7,.62,10.36,1.68.83.26,1.18-1.04.36-1.3Z"/>
  <path class="cls-9" d="M497.3,917.89c-.89-1.36-2.01-2.57-3.3-3.57-2.4-1.86-5.74-3.36-8.84-2.73-1.61.33-2.97,1.44-3.33,3.08-.41,1.83.32,3.54,1.2,5.11.2.35.27.47.34.59,2.09,2.63,4.98,4.27,7.91,4.92,2.69.6,7.38.79,7.58-3,.08-1.57-.71-3.13-1.55-4.41ZM495.63,924.2c-1.29.28-2.74.11-4.01-.16-2.75-.58-5.03-2.01-7.01-3.91.02-.14.02-.28-.07-.44-.72-1.29-1.55-2.69-1.43-4.24.11-1.35,1.04-2.23,2.32-2.51,2.44-.55,5.18.65,7.16,2.01,2.09,1.43,4.16,3.7,4.81,6.21.39,1.51-.2,2.71-1.76,3.05Z"/>
  <g>
    <path class="cls-7" d="M554.8,304.45c-.02-.73-1.14-.73-1.13,0,.09,5.23-1.06,12.07-6.69,14.16-2.19.81-4.93.53-6.69-1.09-.92-.85-1.99-2.61-.78-3.68,1.54-1.37,2.39,1.46,2.83,2.4.21.45.97.23.93-.25-.1-1.28-.65-2.7-1.82-3.37-1.04-.6-2.3-.33-3.05.59-1.79,2.17.26,5.02,2.27,6.15,4.7,2.65,10.03-.39,12.29-4.75,1.62-3.11,1.92-6.7,1.84-10.15Z"/>
    <path class="cls-7" d="M934.02,367.33c-1.68,3.86-4.6,7.15-7.68,9.96-4.11,3.74-8.58,7.17-12.86,10.7-8.84,7.31-17.68,14.63-26.51,21.93-7.85,6.49-15.78,13-24.73,17.92-8.86,4.88-18.56,7.7-28.56,9.01-10.43,1.36-21.01,1.19-31.5.59-11.19-.63-22.34-1.69-33.48-2.81-22.29-2.23-44.61-4.78-67.04-4.88-11.11-.05-22.27.5-33.29,2.04-10.73,1.49-21.18,4.09-31.55,7.22-19.66,5.92-40.17,13.51-61.05,10.49-8.99-1.29-17.72-4.65-24.86-10.33-7.37-5.83-12.1-13.91-14.63-22.88-2.69-9.52-3.36-19.69-3.29-29.54.06-10.06,1.15-20.11,3.1-29.97,7.99-40.51,29.84-76.57,56.01-107.91,13.52-16.19,28.24-31.33,43.21-46.16,2.54-2.51,5.09-4.99,7.63-7.49-.03-8.97.64-17.95,1.99-26.82.62-4.06,1.13-8.35,2.58-12.22.73-1.94,1.78-3.8,3.3-5.14.13-.53.27-1.05.4-1.58-.19.08-.39.15-.59.23-.51.19-.87-.67-.37-.9.28-.12.55-.23.82-.36.29-.13.55-.32.83-.45.35-.14.64.13.73.44,0-.21.12-.41.38-.46,9.35-1.91,18.83-.6,27.73,2.64,18.79,6.87,33.21,20.99,49.24,32.38,4.01,2.85,8.14,5.52,12.46,7.86,4.27,2.31,8.76,4,13.23,5.83,3.68,1.49,7.42,3.24,10.17,6.19,3.11,3.35,3.72,7.73,5.61,11.72,3.55,7.41,11.78,7.52,18.93,7.17,6.74-.33,14.27-1.38,20.54,1.82,6.4,3.28,8.51,10.46,11.51,16.46,1.55,3.13,3.51,6.27,6.74,7.88,4.13,2.06,8.97.96,13.34.63,3.64-.27,7.46-.1,10.45,2.26,2.54,2,3.78,5.04,4.56,8.09,1.72,6.67,1.67,15.78,9.63,18.18,6.99,2.12,14.59-1.06,21.51,1.4,7.97,2.82,7.42,11.27,7.56,18.24.1,4.49,1,8.5,4.51,11.55,2.87,2.49,6.41,4.05,9.38,6.4,2.85,2.24,4.77,5.11,5.24,8.74.48,3.7-.36,7.43-.94,11.09-.63,3.88-1.24,8.38,1.2,11.79,2.37,3.29,6.63,4.29,10.23,5.63,3.08,1.13,6.18,2.59,7.96,5.5,1.9,3.09,1.58,6.72.19,9.92Z"/>
    <path class="cls-8" d="M838.22,346.91c-4.27,8.09-8.95,15.93-14.14,23.47-.99,1.44-1.99,2.85-3.01,4.26-8.45,11.64-18.1,22.42-29.09,31.71-3.74,3.17-7.64,6.17-11.67,8.95-9.52,6.59-19.82,12.02-30.73,16.01-5.72,2.09-11.59,3.77-17.55,5-10.31,2.14-20.88,2.92-31.38,2.08-14.79-1.19-29.16-5.74-41.89-13.4-12.18-7.32-22.79-17.42-30.16-29.63-1.68-2.78-3.17-5.65-4.45-8.6-4.24-9.64-6.38-20.09-6.28-30.69.05-4.97.56-9.95,1.54-14.82.41.14.81.28,1.2.44,16.11,5.84,30.5,12.47,43.15,19.28,26.38-13.77,55.06-23.05,84.18-28.89-.27-.08-.54-.17-.81-.23-.72-.2-.41-1.32.31-1.13,8.32,2.31,16.42,5.31,24.23,8.96-.22-1.97-.33-3.04-.33-3.04,0,0,26.54-3.28,65.76,9.88.37.13.74.26,1.12.39Z"/>
    <path class="cls-1" d="M873.05,657.6c-7.54,17.46-17.96,33.78-31.34,47.34-2.97,3.01-6.1,5.87-9.35,8.56-10.87,9.05-23.16,16.28-36.27,21.7-35.02,14.47-57.73,62.03-95.06,58.83-19.55-1.68-56.22-50.08-73.94-59-16.93-8.53-29.65-22.92-39.18-39.05-10.29-17.42-17.68-36.73-23.78-55.96-6.62-20.83-11.28-42.3-13.37-64.07-2.79-28.92-.82-58.42,6.74-86.45,3.15-11.73,7.29-23.22,12.47-34.28,12.59-26.89,31.36-49.93,54.16-68.45,1.28,2.95,2.77,5.82,4.45,8.6,7.37,12.2,17.99,22.31,30.16,29.63,12.73,7.65,27.1,12.2,41.89,13.4,10.5.85,21.08.06,31.38-2.08,5.96-1.23,11.83-2.91,17.55-5,10.91-3.99,21.2-9.42,30.73-16.01,4.03-2.78,7.92-5.78,11.67-8.95,10.99-9.29,20.64-20.07,29.09-31.71,11.55,11.47,21.65,24.42,30.07,38.27,21.73,35.66,32.74,76.93,36.79,118.23,4.17,42.38,2.22,86.9-14.88,126.46Z"/>
    <path class="cls-1" d="M732.04,436.31l-1.87,61.39s-75.27-3.27-172.65-8.2c-167.74-8.53-401.05-22.01-428-32.36-42.57-16.36-38.44-24.89-44.84-51.11-6.41-26.2,10.26-65.79,105.96-70.21,95.72-4.42,269.83-29.3,378.49-8.32,18.28,3.54,35.04,8.28,50.28,13.76-.97,4.87-1.49,9.85-1.54,14.82-.1,10.6,2.04,21.05,6.28,30.69,1.28,2.95,2.77,5.82,4.45,8.6,7.37,12.2,17.99,22.31,30.16,29.63,12.73,7.65,27.1,12.2,41.89,13.4,10.5.85,21.08.06,31.38-2.08Z"/>
    <path class="cls-7" d="M637.67,167.81c-11.42,27.8-33.29,49.47-50.68,73.47-8.67,11.99-16.58,24.78-21.47,38.8-1.19,3.42-2.21,6.91-3.01,10.45-.78,3.49-1.05,7.08-1.87,10.54-.42,1.77-1.18,3.5-2.44,4.74.78.37,1.13,1.53.15,1.99-2.88,1.33-6.02.92-8.44-1.15-.23-.14-.38-.22-.54-.36-2.47-2.41-4.74-4.99-6.87-7.73-16.78-21.63-22.87-50.66-15.67-77.12,3.51-12.92,9.93-25.01,18.65-35.16,9.19-10.7,39.08-32.67,51.86-38.47,13.15-5.99,20.52-6.89,34.94-6.86,5.24.01,11.23,1.86,15.5,6,4.64,4.5-7.97,15.59-10.13,20.87Z"/>
    <polygon class="cls-8" points="778.99 339.23 719.25 413.8 689.37 388.51 658.05 362.01 676.78 341.11 719.25 293.72 778.99 339.23"/>
    <path class="cls-9" d="M725.39,306.25c-.14,1.42-.29,2.85-.45,4.27-1.24,11.31-2.92,22.6-6.14,33.52-2.85,9.7-6.95,19.13-12.65,27.5-2.79,4.09-5.96,7.97-9.54,11.4-2.19,2.1-4.6,4.05-7.24,5.58l-31.32-26.5,18.73-20.9c4.91-3.81,9.85-7.58,14.82-11.31,10.88-8.18,21.87-16.2,33.02-24,.3-.21.79.06.77.44Z"/>
    <path class="cls-7" d="M741.32,298.76c-.18.72-.38,1.45-.59,2.18-3.6-.42-7.19-.96-10.74-1.58-3.88-.68-7.74-1.47-11.58-2.4-.05,5.32-.12,10.64-.18,15.95-.03,2.35.09,5.44-2.87,5.94-2.63.45-4.35-1.76-5.51-3.77-3.41-5.92-6.33-12.13-8.85-18.47-.71-1.79-1.4-3.6-2.05-5.44-19.24-6.87-37.33-16.86-53.38-29.6-22.42-17.82-40.75-40.77-53-66.66-.26.1-.51.22-.77.33-16.45,7.19-31.68,17.81-41.92,32.77-4.87,7.11-8.6,15.04-10.59,23.43-1,4.23-1.55,8.56-1.59,12.91-.03,2.69.23,5.35.55,7.99-.32-1.2-.62-2.41-.9-3.61-.68-2.91-1.23-5.81-1.65-8.72-7.69-53.02,26.4-103.98,79.52-116.34,56.03-13.04,112.01,21.82,125.05,77.85,5.5,23.64,7.68,51.64,1.04,77.24Z"/>
    <path class="cls-8" d="M735.34,300.22c-9.59,34.16-29.95,64.36-85.19,72.76-55.65,8.46-97.89-45.79-111.89-100.62-.32-2.67-.58-5.32-.55-8.01.04-4.35.59-8.68,1.59-12.91,1.99-8.4,5.72-16.32,10.59-23.43,10.24-14.96,25.47-25.57,41.92-32.77.26-.12.51-.23.77-.33,12.24,25.89,30.57,48.84,53,66.66,16.05,12.74,34.14,22.73,53.38,29.6.65,1.83,1.35,3.64,2.05,5.44,2.51,6.35,5.44,12.55,8.85,18.47,1.17,2.01,2.88,4.22,5.51,3.77,2.96-.5,2.85-3.59,2.87-5.94.06-5.31.13-10.63.18-15.95,3.83.92,7.69,1.72,11.58,2.4,3.55.62,1.75.44,5.35.86Z"/>
    <polygon class="cls-8" points="562.98 306.34 560.41 365.3 597.36 351.32 562.98 306.34"/>
    <path class="cls-2" d="M771.9,518.69c-.63,8.55-1.41,17.09-2.12,25.61-1.42,17.16-2.83,34.34-4.27,51.53l-8.46,102.35c-2.82,34.09-5.67,68.2-8.45,102.35-1.24,14.9-1.38,31.19-7.17,44.85-8.41,19.86-23.29,18.86-39.43,18.59-57.34-1.06-114.69-1.78-172.05-2.68-55.23-.85-110.46-1.72-165.7-2.58-27.52-.45-55.05-.87-82.57-1.32l-41.55-.65c-6.83-.1-13.68-.22-20.51-.33-5.47-.08-10.96-.19-16.36-1.51-9.69-2.38-17.19-9.68-20.23-21.08-3.14-11.86-1.73-24.77-.74-36.92,2.63-32.77,5.26-65.53,7.88-98.27,2.65-33,5.28-66.02,7.91-99,.4-4.97.76-10,1.09-15.06.37-5.36.71-10.76,1.06-16.17,27.43.09,54.94-7.59,77.94-22.57,6.03-3.92,11.7-8.33,17.02-13.14,12.52-11.37,22.97-25.01,30.8-40.03,6.49.06,12.99.14,19.47.22,108.5,1.19,217.02,2.04,325.52,2.52,33.45.15,66.89.27,100.34.33.11.6.22,1.2.31,1.81,1.03,6.97.77,14.14.24,21.15Z"/>
    <path class="cls-4" d="M292.66,577.39c-1.23,3.46-3.67,6.35-6.61,8.49-6.4,4.65-15.77,5.87-22.31.85-2.78-2.13-4.76-5.2-5.18-8.72-.21-1.65-.05-3.35.44-4.92-.05-.24-.09-.49-.12-.74-.15-2.18.88-4.41,2.15-6.13,2.59-3.55,6.64-5.69,10.91-6.49,7.22-1.33,17.1-.17,20.4,7.42,1.4,3.21,1.49,6.95.32,10.24Z"/>
    <path class="cls-4" d="M235.09,559.03c-1.19,8.69-2.37,17.38-3.58,26.06-2.14,15.4-4.29,30.78-6.45,46.16-.54,3.82-1.06,7.63-1.6,11.45-.09.69-.19,1.37-.29,2.06-.41.45-.82.9-1.21,1.36.09-.69.18-1.37.28-2.06,1.81-12.99,3.61-25.98,5.44-38.97,2.18-15.43,4.36-30.87,6.56-46.3.08-.55.91-.31.85.24Z"/>
    <path class="cls-4" d="M367.39,527.15c-1.85,14.4-3.68,28.79-5.53,43.19-.73,5.7-1.46,11.4-2.2,17.1-.05.38-.09.77-.14,1.15-.33-.09-.67-.17-1-.26.05-.4.1-.78.15-1.17,2.56-19.87,5.14-39.75,7.72-59.61-6.05.44-12.1.91-18.16,1.31-21.97,1.46-44.03,2.4-66.06,2.4-.55,0-.59-.85-.04-.86,6.26-.12,12.51-.22,18.77-.38,22.01-.58,44.07-1.51,66.02-3.45.32-.03.51.28.47.58Z"/>
    <path class="cls-4" d="M771.35,495.73c-33.45-.06-66.89-.18-100.34-.33-108.5-.49-217.02-1.33-325.52-2.52-6.49-.08-12.99-.15-19.47-.22,4.24-8.08,7.7-16.56,10.33-25.29,6.04.08,12.06.14,18.1.21,47.76.5,95.53.79,143.29,1.18,64.25,0,128.45.87,192.69,1.82,18.11.27,36.19-.38,54.29-.38,13.17-.1,23.43,9.33,26.5,24.86.05.23.09.46.13.69Z"/>
    <path class="cls-7" d="M621.3,331.49c-1.78,1.31-3.95.88-5.78-.06-2.33-1.2-4.91-2.96-6.27-5.32-1.91-2.35-2.96-5.32-1.21-8.1,2.14-3.38,6.69-3.73,9.88-1.73,3.27,2.05,5.36,6.27,5.56,10.06.12,1.96-.59,3.96-2.19,5.15Z"/>
    <path class="cls-7" d="M631.61,313.21c-3.43-3.09-8.98-4.07-13.45-3.99-4.67.09-9.74,1.39-13.46,4.33-1.04.82.29,2.37,1.37,1.78,3.9-2.14,7.77-3.61,12.28-3.67,2.1-.02,4.2.23,6.23.75,2.15.55,4.07,1.55,6.13,2.33.86.32,1.55-.94.89-1.53Z"/>
    <path class="cls-7" d="M561.55,317.87c-1.17,0-2.37-1.19-3.18-1.92-3.37-3.05-5.72-8.04-5.17-12.64.13-.63.41-.92.79-.97.49-.15,1.04.01,1.26.51.94.6,1.74,1.4,2.49,2.22.92,1,1.76,2.1,2.49,3.26,1.27,2.04,2.22,4.28,2.77,6.62.28,1.18.21,2.94-1.45,2.94Z"/>
    <path class="cls-7" d="M559.65,302.73c-.44-.81-.92-1.61-1.42-2.38-1.09-1.66-2.32-3.24-3.67-4.7-2.66-2.88-5.81-5.32-9.26-7.18-1.29-.69-2.44,1.27-1.15,1.96,3.29,1.78,6.25,4.08,8.79,6.84,1.24,1.35,2.37,2.81,3.37,4.35.5.78.97,1.57,1.41,2.39.45.85.8,1.78,1.58,2.37.62.47,1.36-.18,1.41-.81.07-.97-.61-2.01-1.06-2.84Z"/>
    <path class="cls-7" d="M652.07,295.59c-.21-.13-.42-.24-.64-.37-.13.04-.27.08-.44.06-9.2-.26-18.41-.55-27.61-.82-4.01-.13-8.04-.26-12.05-.37-2.09-.06-4.19-.08-6.27-.19-1.33-.08-2.67-.32-3.53-1.45-1.77-2.3.31-5.21,2.13-6.72,2.4-2,5.28-3.37,8.32-4.1,7.1-1.72,14.45.01,21.18,2.42,7.05,2.51,13.58,5.87,19.84,9.95.99.64.08,2.22-.94,1.59Z"/>
    <path class="cls-7" d="M559.47,284.66c-1,1.74-3.18,1.94-4.9,1.28-1.96-.77-3.82-1.97-5.59-3.09-1.79-1.14-3.51-2.36-5.19-3.67-1.68-1.31-3.31-2.7-4.86-4.19-1.41-1.35-3.36-2.9-4.19-4.69-.18-.38-.1-.82.11-1.14-.24-.9.09-1.49.65-1.64,4.46-1.24,9.41.4,13.14,2.9,3.58,2.4,6.42,5.65,9.09,8.99,1.15,1.45,2.85,3.31,1.73,5.26Z"/>
    <path class="cls-9" d="M629.2,345c-1.99,1.8-3.81,3.73-5.92,5.39-2.23,1.76-4.62,3.34-7.11,4.72-2.4,1.34-4.91,2.51-7.48,3.48-2.71,1.02-6.02,2.31-8.83.99-1.02-.48-1.92,1.01-.89,1.53,2.69,1.37,5.59.95,8.36.05,2.94-.96,5.79-2.2,8.5-3.68,2.63-1.44,5.14-3.1,7.5-4.95,2.45-1.92,5.01-4.03,6.93-6.5.57-.73-.32-1.7-1.04-1.04Z"/>
    <path class="cls-8" d="M758.33,288.69c-1.18,7.42-4.19,14.6-8.75,20.58-11.47,15.05-30.87,11.9-34.8-7.16-3.77-18.3,6.04-42.73,26.59-45.34,7.37-.93,12.64,4.12,15.19,10.56,2.64,6.66,2.88,14.35,1.76,21.36Z"/>
    <path class="cls-9" d="M744.58,271.96c-5.86,1.25-11.53,4.14-16.25,7.78-4.42,3.4-9.08,8-9.08,13.98,0,5.06,4.33,9.98,9.72,8.57,5.17-1.36,6.12-8.14,3.32-12.04-1.58-2.2-4.24-3.73-7.01-3.26-.21.04-.41.1-.61.16,1.92-2.56,4.6-4.67,7.13-6.42,4.16-2.88,8.67-4.75,13.51-6.14,1.69-.49.98-2.99-.72-2.63ZM726.17,289.66c1.8-.01,3.32,1.35,4.11,2.86,1.53,2.92.16,7.66-3.81,6.96-3.15-.55-4.36-3.39-4.24-6.22.13-.13.24-.29.27-.51.25-1.8,1.86-3.08,3.68-3.09Z"/>
    <path class="cls-7" d="M706.36,280.39c-20.28,5.53-41.73,1.52-59.38-9.67-17.05-10.81-29.95-27.14-39.42-44.76-5.97-11.09-10.51-22.85-14.15-34.9-.34-1.13-2.04-.66-1.77.49,5.01,21.26,15.31,41.82,29.12,58.73,13.1,16.03,30.54,28.83,51.01,33.31,11.56,2.53,23.83,2.48,35.01-1.64.96-.35.59-1.83-.43-1.55Z"/>
    <path class="cls-9" d="M745.53,312.83c-.84.62-1.57,1.36-2.43,1.96-.85.6-1.75,1.14-2.69,1.6-1.89.94-3.95,1.58-6.04,1.88-2.25.32-4.57.22-6.79-.25-1.04-.22-2.06-.51-3.06-.88-1.06-.4-2.06-1.07-3.15-1.37-.46-.13-.8.46-.46.79.76.77,1.91,1.2,2.9,1.6,1.11.45,2.26.82,3.43,1.07,2.34.5,4.75.61,7.12.3,2.2-.29,4.33-.93,6.33-1.88,1.02-.48,2-1.05,2.93-1.7.91-.63,1.92-1.33,2.62-2.19.39-.48-.14-1.38-.72-.94Z"/>
    <path class="cls-9" d="M563.49,328.07c.17-2.3.15-4.63.13-6.92-.02-2.75-.13-5.5-.34-8.24-.4-5.44-1.18-10.85-2.31-16.18-.65-3.09-1.44-6.15-2.34-9.17-.2-.68-1.27-.4-1.07.3,2.96,10.5,4.63,21.33,4.82,32.23.05,3.11-.15,6.21-.17,9.31,0,.67.97.79,1.15.16.1-.37.19-.73.25-1.11.03-.16-.04-.28-.12-.38Z"/>
    <path class="cls-9" d="M651.64,326.22c-.14.02-.3.03-.43.08-.14.05-.28.11-.41.18-.24.12-.46.28-.68.46-.4.32-.74.72-1.01,1.16-.12.21-.05.51.17.63.23.12.49.05.63-.16,1.54-1.37,1.74-1.48,1.94-1.59.15-.09.24-.29.18-.45-.05-.15-.21-.32-.39-.3Z"/>
    <path class="cls-7" d="M602.84,189.12c-6.31,7.35-13.59,13.73-20.92,20.02-12.32,10.58-25.23,21.47-32.59,36.28-7.88,15.9-6.79,34.1-4.47,51.17.08.6-.82.86-.91.26-.4-2.64-.74-5.29-1.05-7.95-1.11-.77-1.92-1.44-2.68-2.15-6.17-5.88-9.86-14.06-11.01-22.45-1.24-8.97.54-18.05,4.26-26.25,3.95-8.7,10-16.31,17.04-22.73,7.24-6.59,15.47-12,23.93-16.87,8.67-4.99,17.9-9.37,27.96-10.42.59-.05.76.72.45,1.09Z"/>
    <path class="cls-1" d="M259.25,227.34c-.33.51-.67,1.03-.99,1.55-.49.77-.97,1.55-1.46,2.33-16.37,26.45-28.86,55.14-38.43,84.7-4.76,14.65-8.81,29.54-12.32,44.55-3.4,14.59-5.68,29.48-9.61,43.93-3.59,13.2-9.23,26.04-19.29,35.57-8.87,8.42-20.33,14.08-32.37,16.22-11.92,2.12-24.24.71-35.23-4.45-10.93-5.14-20.23-13.64-26.59-23.9-7-11.29-9.91-24.33-8.82-37.55,1.29-15.77,7.32-30.64,13.46-45.05,12.45-29.19,26.48-57.82,42.51-85.21,14.76-25.25,31.56-49.49,51.76-70.72,5.05-5.31,10.32-10.41,15.79-15.27.44-.4.88-.78,1.33-1.18,11.22.17,22.6,2.44,32.41,8.06,4.72,2.72,8.97,6.23,12.43,10.45,3.54,4.31,6.26,9.2,8.44,14.33,2.22,5.18,3.91,10.56,5.45,15.99.53,1.87,1.04,3.76,1.53,5.64Z"/>
    <path class="cls-8" d="M334.67,124.11c-6.81-.55-13.65-.63-20.49-.27-7,.37-13.95,1.24-20.81,2.55,2.06,7.76,2.56,15.05,1.97,22.29-2.38,29.79-20.61,54.2-36.1,78.66-.49-1.88-1-3.77-1.53-5.64-1.54-5.42-3.23-10.81-5.45-15.99-2.18-5.13-4.9-10.03-8.44-14.33-3.46-4.22-7.72-7.73-12.43-10.45-9.81-5.63-21.19-7.9-32.39-8.06,15.75-13.77,33.25-25.52,52.35-34.25,25.96-11.88,54.73-18.2,83.3-15.54.64.06.65,1.08,0,1.03Z"/>
    <g>
      <path class="cls-7" d="M354.5,389.55c-4.41-16.64-11.72-32.68-21.82-46.91-9.55-13.45-21.63-25.1-35.78-34.19-13.63-8.74-28.93-15.1-44.85-18.96-15.95-3.87-32.56-5.31-48.97-4.17-16.47,1.13-32.66,4.92-47.89,10.97-15.04,5.99-29.09,14.08-41.78,23.81-12.88,9.87-24.34,21.41-34.05,34.15-4.69,6.15-8.96,12.6-12.79,19.28-.14.26-.1.5.03.68-2.63,4.49-5.03,9.11-7.1,13.86-6.29,14.28-10.06,29.55-11.26,45-1.19,15.43.22,31.09,4.38,46.05,4.1,14.76,10.95,28.75,19.98,41.34,8.92,12.42,19.91,23.49,32.36,32.75,12.46,9.29,26.36,16.81,41.15,22.16,2.96,1.08,5.96,2.05,8.99,2.94,12.31,3.63,25.09,5.72,37.98,6.17.14,0,.28.01.42.01,1.9.06,3.78.09,5.68.08,14.59-.05,29.18-2.12,43.19-5.96,15.93-4.38,31.18-11.05,45.02-19.73,13.92-8.73,26.46-19.5,36.8-31.96,8.63-10.4,15.76-21.9,21.29-34.05,1.17-2.55,2.26-5.14,3.28-7.76,2.23-5.74,4.13-11.6,5.68-17.55,1.09-4.2,2.01-8.46,2.74-12.76.99-5.69,1.67-11.44,2.01-17.19.14-2.32.23-4.64.28-6.96.21-13.83-1.44-27.7-4.99-41.11ZM342.21,430.44c-.01.79-.04,1.59-.06,2.38-.42,11.72-2.42,23.33-5.79,34.54-.26.83-.51,1.67-.79,2.5-2.5,7.85-5.7,15.49-9.54,22.79-7.83,15.02-18.28,28.66-30.8,40.03-5.32,4.81-11,9.22-17.02,13.14-23,14.99-50.51,22.66-77.94,22.57-14.92-.04-29.82-2.37-43.96-7.1-2.45-.79-4.88-1.69-7.29-2.65-59.94-23.91-102.5-96.96-75.25-160.01.17-.37.32-.74.47-1.13,15.41-36.24,45.38-67.66,81.56-83.57,17.09-7.52,35.59-11.79,54.26-12.31,35.21-.97,71.25,11.36,96.21,36.23,24.1,24.01,36.59,58.55,35.96,92.58Z"/>
      <path class="cls-5" d="M342.21,430.44c-.01.79-.04,1.59-.06,2.38-.42,11.72-2.42,23.33-5.79,34.54-.26.83-.51,1.67-.79,2.5-2.5,7.85-5.7,15.49-9.54,22.79-7.83,15.02-18.28,28.66-30.8,40.03-5.32,4.81-11,9.22-17.02,13.14-23,14.99-50.51,22.66-77.94,22.57-14.92-.04-29.82-2.37-43.96-7.1-2.45-.79-4.88-1.69-7.29-2.65-59.94-23.91-102.5-96.96-75.25-160.01.17-.37.32-.74.47-1.13,15.41-36.24,45.38-67.66,81.56-83.57,17.09-7.52,35.59-11.79,54.26-12.31,35.21-.97,71.25,11.36,96.21,36.23,24.1,24.01,36.59,58.55,35.96,92.58Z"/>
    </g>
    <path class="cls-8" d="M371.68,130.03c-4.02-9.51-16.38-8.97-24.96-9.17-11.11-.26-22.25.06-33.3,1.33-10.92,1.26-21.75,3.41-32.2,6.88-5.17,1.72-10.23,3.74-15.13,6.11-4.5,2.18-9.31,4.82-11.26,9.72-1.12,1.15-2.12,2.32-3.03,3.56-2.99,4.1-4.63,8.96-5.13,13.97-1.1,11.02,3.23,21.57,8.12,31.21,2.26,4.44,4.63,8.93,8.06,12.6,3.32,3.55,7.6,5.95,12.37,6.91,10.25,2.06,20.37-2,28.7-7.76.47-.32.92-.67,1.4-1.01,8.78-3.44,16.92-8.41,23.97-14.69,6.96-6.19,13.15-13.76,17.24-22.19,6.14-2.59,11.93-5.96,16.72-10.54,3.64-3.49,6.59-7.73,8.27-12.5,1.6-4.59,2.09-9.9.15-14.46Z"/>
    <path class="cls-8" d="M314,187.87c-4.65,10.01-12.32,18.51-21.35,23.33-2.32,1.24-4.79,2.29-7.27,2.39-2.39.08-4.51-.96-5.9-2.97-2.34-3.42-2.15-7.88-1.35-12.22-.07-.37-.12-.75-.13-1.14-.26-6.17,4.54-10.92,7.12-16.13,2.87-5.79,4.37-12.22,7.53-17.87,2.42-4.33,5.92-8.36,10.32-9.76,4.49-1.43,8.87.56,11.71,4,6.4,7.75,3.68,20.97-.68,30.37Z"/>
    <path class="cls-9" d="M317.97,169.45c.77-4.39.13-10.13-3.72-12.98-8.18-6.04-15.94,7.73-14.07,14.77,1.09,4.1,4.73,8.73,9.45,8.2,4.77-.54,7.6-5.75,8.34-9.99ZM310.61,177.72c-3.94,1.46-7.44-2.42-8.7-5.75-2.13-5.6,3.3-18.95,10.82-14.74,3.63,2.03,4.32,6.97,3.97,10.73-.35,3.8-2.23,8.34-6.09,9.77Z"/>
    <path class="cls-7" d="M402.2,100.33c-.88,3.86-3.01,7.32-5.08,10.64l-7.33,11.72c-9.77,15.63-19.52,31.27-29.29,46.89-9.77,15.63-19.52,31.27-29.29,46.89-9.77,15.63-19.54,31.27-29.3,46.89l-24.7,39.55-.62.99c-2.22-.94-4.46-1.79-6.72-2.59-4.58-1.62-9.24-2.99-13.97-4.09.2-.33.41-.68.6-1.01,1.41-2.35,2.81-4.69,4.2-7.04,9.08-15.24,17.93-30.6,26.56-46.09,8.64-15.49,17.04-31.11,25.19-46.85,7.92-15.28,15.52-30.73,23.13-46.16,6.77-13.74,13.86-27.46,23.15-39.69,4.54-5.99,9.6-11.61,15.29-16.54,5.18-4.47,11.65-8.72,18.83-7.41,2.95.54,5.81,2,7.65,4.41,2.09,2.72,2.44,6.22,1.69,9.49Z"/>
    <path class="cls-8" d="M388.81,130.37c-2.41-3.28-6.35-4.79-10.19-5.68-4.49-1.05-9.14-1.47-13.74-1.29-4.63.21-9.22.99-13.6,2.41-3.35,1.08-7.49,2.51-8.92,6.06-.17.41-.28.82-.35,1.22-.36.73-.64,1.5-.86,2.26-.4,1.32-.56,2.74-.31,4.11.53,2.82,2.91,4.47,5.45,5.41,2.82,1.04,5.88,1.22,8.87,1.35,1.54.06,3.08.13,4.62.2.29.07.57.16.86.22-2.87-.14-5.74-.15-8.62-.01-5.68.26-11.36,1.05-16.9,2.37-2.76.65-5.47,1.44-8.14,2.35-2.44.85-4.86,1.88-6.83,3.59-1.74,1.53-3.06,3.68-3.35,6.01-.26,2.27.64,4.45,2.19,6.09.24.26.49.49.74.72-3.85.96-7.65,2.35-10.73,4.81-3.53,2.78-5.54,7.05-4.73,11.56.35,1.95,1.33,3.83,2.9,5.08-.69.46-1.51.86-2.31,1.32-4.37,2.5-8.23,6.38-9.46,11.41-.58,2.32-.6,4.86.31,7.09.97,2.36,2.92,4.01,5.31,4.87,2.65.95,5.59.88,8.37.83,3.6-.09,7.22-.15,10.83-.24,6.63-.13,13.31-.12,19.9-1.05,6.09-.87,12.31-2.68,17.29-6.44,4.55-3.45,7.91-8.72,7.51-14.61-.03-.51-.1-1-.19-1.5,2.17-1.28,4.02-3.04,5.7-4.94,2.45-2.74,4.7-5.67,6.76-8.73,4.18-6.18,7.49-12.94,9.88-20.01,1.33-3.95,2.36-8,3.06-12.13.38-1.14.71-2.32.88-3.53.6-3.78.12-8.01-2.22-11.18Z"/>
    <path class="cls-8" d="M720.13,899.66c-.31-.25-.64-.5-.96-.75-.92-9.05-1.93-18.26-5.51-26.7-2.88-6.81-7.67-13.14-14.2-16.79-6.41-3.59-13.84-3.59-21.08-3.34-1.74-4.37-4.11-8.44-7.6-11.79-4.02-3.85-9.11-6.33-14.33-8.13-5.54-1.91-11.31-3.24-16.99-4.65-11.63-2.9-23.35-5.64-34.65-9.71-5.62-2.02-11.12-4.38-16.36-7.23-2.58-1.39-5.11-2.93-7.55-4.57-2.47-1.67-4.9-3.44-7.55-4.84-4.67-2.43-10.37-3.41-14.64.34-3.46,3.02-4.81,8.11-4.24,12.56,1.42,11.18,11.73,18.24,21.06,22.75,4.23,2.05,8.58,3.87,12.73,6.06-9.44,1.76-19.01,2.69-28.62,2.79-2.65.02-5.29-.03-7.94-.14-1.88-.34-3.73-.74-5.59-1.14-7.11-1.58-14.14-3.55-21.04-5.93-3.52-1.22-7-2.6-10.47-3.95-3.27-1.28-6.72-2.43-10.27-2.4-3.07.02-6.2.91-8.5,3.01-1.91,1.74-3.02,4.18-3.4,6.72-.08.53-.09,1.05-.11,1.57-3.87-1.33-7.97-1.57-12.13.23-3.96,1.71-6.78,5.23-7.02,9.63-.27,4.95,2.52,9.49,6.11,12.7,1.41,1.27,2.94,2.4,4.54,3.44-2.32-.7-4.73-.99-7.19-.42-3.71.86-6.67,3.62-7.03,7.52-.38,4.2,2.11,8.19,4.59,11.35,5.09,6.5,11.4,11.74,18.41,15.89-2.07.02-4.1.3-6.04,1.14-2.76,1.19-5.31,3.49-5.95,6.53-1.57,7.31,6.78,12.12,12.42,14.3,3.57,1.38,7.33,2.22,11.07,2.93,4.12.78,8.25,1.47,12.39,2.11,5.61.86,11.32,1.52,17.02,1.72,4.9.64,9.82,1.17,14.75,1.57,14.33,1.19,28.75,1.41,43.1.67,14.23-.72,28.43-2.4,42.46-4.98,14.09-2.58,28-6.11,41.62-10.54,13.56-4.4,26.82-9.72,39.66-15.91,1.63-.78,3.26-1.58,4.87-2.4.41-.2.55-.92.16-1.24Z"/>
    <path class="cls-9" d="M336.4,162.71c-1.25-3.47-5.28-3.79-8.43-3.71-2.17.05-4.45.21-6.55.77-1.51.4-3.19,1.25-3.58,2.89-.87,3.27,1.54,6.25,4.14,7.44,3.23,1.49,7.51,1.96,10.78.36,2.84-1.39,4.78-4.61,3.64-7.75ZM332.91,168.8c-2.58,1.69-5.96,1.48-8.81.66-2.9-.84-5.61-3.11-5.09-6.28.53-1.13,1.43-1.67,2.58-2.01,1.5-.44,3.11-.58,4.66-.69,2.51-.18,6.3-.57,8.18,1.54,1.93,2.16.64,5.37-1.51,6.78Z"/>
    <path class="cls-9" d="M328.32,179.7c-.93-1.97-2.87-3.07-4.92-3.54-2.33-.54-4.89-.65-7.27-.44-2.58.23-5.19,1.04-7.34,2.51-1.78,1.22-3.45,2.91-3.73,5.13-.25,1.94.67,4.1,1.9,5.58.3.36,3.27,2.43,3.27,2.45,2.16.91,4.56,1.06,6.87.82,2.36-.25,4.74-.81,6.83-1.95,3.7-2.01,6.36-6.42,4.39-10.56ZM324.42,188.28c-1.66,1.22-3.67,1.88-5.67,2.27-1.93.38-3.98.53-5.93.17-2.08-.38-4.01-1.36-5.22-3.14-.93-1.37-1.33-3.03-1-4.64,1.48-2.99,4.46-4.85,7.75-5.51,2.09-.42,4.25-.4,6.37-.22,1.8.16,3.83.45,5.24,1.69,3.1,2.71,1.28,7.3-1.54,9.38Z"/>
    <path class="cls-9" d="M318.93,204.13c-2.17-3.66-7.03-4.99-11.04-4.74-2.45.16-4.87.88-6.97,2.16-.96.59-2.1,1.53-2.76,2.64-2.75,3.72-.12,8.18,3.4,9.79,2.13.97,4.47,1.18,6.78,1.06,2.35-.12,4.86-.35,7.05-1.27,1.77-.75,3.38-2.05,4.12-3.86.78-1.88.44-4.06-.58-5.78ZM318.52,208.11c-.03.31-.1.62-.2.92-.76,2.27-3.24,3.47-5.57,4.03-2.29.55-4.68.71-7.03.48-1.54-.15-3.09-.48-4.43-1.24-1.89-1.07-2.89-3.11-2.57-5.28.48-3.31,3.94-5.24,6.91-5.91,2.49-.56,5.15-.41,7.56.43,1.59.55,3.11,1.43,4.14,2.75.84,1.07,1.32,2.47,1.18,3.81Z"/>
    <path class="cls-9" d="M366.14,189.06c-13.82,2.5-27.77,3.61-41.81,2.93-3.92-.19-7.83-.55-11.74-.86-.46-.04-.57.73-.11.81,6.97,1.09,14.1,1.4,21.15,1.41,7.03,0,14.06-.43,21.03-1.28,3.95-.48,7.9-1.05,11.8-1.83.77-.15.44-1.31-.32-1.17Z"/>
    <path class="cls-9" d="M381.05,171.16c-7.65,1.29-15.38,2.09-23.13,2.38-7.35.27-14.88.32-22.18-.67-4.02-.55-7.84-1.63-11.54-3.28-.57-.25-1.07.53-.5.86,6.17,3.54,13.84,4.06,20.79,4.34,7.91.32,15.84.1,23.72-.65,4.41-.42,8.81-1,13.18-1.74.81-.14.47-1.37-.34-1.23Z"/>
    <path class="cls-9" d="M373.35,147.47c-9.98-1.89-20.2-2.32-30.28-1.04-4.51.58-9.02,1.4-13.31,2.95-3.93,1.43-8.06,3.48-10.85,6.68-1.41,1.61-2.47,3.61-2.42,5.8.06,2.39,1.36,4.67,2.86,6.46.37.44.99-.12.76-.59-.93-1.89-2.27-3.68-2.31-5.88-.03-2.01,1.06-3.81,2.4-5.23,2.77-2.93,6.67-4.83,10.43-6.14,4.01-1.4,8.23-2.19,12.43-2.73,4.69-.6,9.43-.85,14.16-.72,5.29.14,10.55.72,15.74,1.8.9.19,1.28-1.21.38-1.38Z"/>
    <path class="cls-9" d="M319.44,167.36c-4.67,1.32-9.56,2.97-12.92,6.66-2.86,3.14-4.3,7.53-2.59,11.59.54,1.28,1.4,2.47,2.51,3.32-4.12,1.62-7.66,4.63-9.98,8.4-2.45,3.96-3.4,9.4-.37,13.34,1.42,1.85,3.65,3.15,6.02,3.12.69,0,.68-1.01,0-1.07-2.58-.2-4.8-1.82-5.88-4.15-1.16-2.49-.95-5.42,0-7.94,1.87-4.89,6.35-9.01,11.26-10.73.49-.09.7,0,.93.07.58.18.97-.71.42-.99-2.12-1.08-3.55-2.87-4.1-5.19-.56-2.35.03-4.76,1.27-6.79,2.96-4.86,8.63-6.8,13.8-8.3.86-.25.5-1.59-.37-1.35Z"/>
    <path class="cls-9" d="M314.57,157.06c-1.43-3.16-5.2-4.96-8.53-5.08-3.71-.13-6.91,1.94-9.27,4.66-1.27,1.46-2.36,3.08-3.38,4.72-1.23,1.97-2.46,3.95-3.58,5.99-2.24,4.09-3.59,8.49-5.13,12.87-.9,2.54-1.91,5.04-3.05,7.49-.54,1.16-1.1,2.3-1.69,3.44-.63,1.22-1.39,2.39-1.93,3.65-.29.68.54,1.17.99.58,1.34-1.77,2.29-3.95,3.25-5.94.92-1.91,1.77-3.85,2.55-5.82,1.63-4.13,2.77-8.46,4.59-12.52,1.72-3.81,3.97-7.48,6.31-10.93,2.01-2.97,4.62-5.98,8.3-6.74,1.83-.38,3.75-.11,5.46.61,1.82.77,3.19,2.06,4.41,3.58.34.42.89-.12.7-.54Z"/>
    <path class="cls-9" d="M283.53,162.23c-.77-2.43-1.7-4.84-2.97-7.05-.63-1.1-1.35-2.16-2.16-3.14-.73-.89-1.64-2.12-2.7-2.63-.44-.21-1.02.24-.72.72.62.95,1.64,1.68,2.38,2.56.81.97,1.52,2.02,2.15,3.11,1.27,2.21,2.17,4.61,2.93,7.03,1.61,5.14,2.47,10.39,3.04,15.73.06.59.96.62.95,0-.11-5.52-1.23-11.07-2.89-16.33Z"/>
    <path class="cls-4" d="M342.21,430.44c-.01.79-.04,1.59-.06,2.38-.42,11.72-2.42,23.33-5.79,34.54-.26.83-.51,1.67-.79,2.5-43.8-.5-87.58-1.06-131.38-1.64-12.09-.15-24.16-.31-36.25-.49,1.37-4.88,3.23-9.49,5.83-13.59,8.58-13.41,21.04-20.92,34.87-23.4,13.46-2.38,27.18-1.65,40.74-1.51,15.11.17,30.31.29,45.46.56,15.81.24,31.6.46,47.39.64Z"/>
    <path class="cls-4" d="M312.7,513.61c-.26.35-.53.68-.78,1.01-5.03,6.5-10.61,12.55-16.7,18.06-5.32,4.81-11,9.22-17.02,13.14-20.61,13.42-44.83,20.99-69.38,22.34-.36.03-.72.04-1.08.05.41-2.24.79-4.5,1.17-6.76,2.69-16.24,4.54-32.61,5.42-49.05.01-.27.22-.53.51-.51,9.05.36,18.1.63,27.16.87,16.09.44,32.18.69,48.28.79,7.47.05,14.95.06,22.42.04Z"/>
    <path class="cls-2" d="M335.56,469.86c-2.5,7.85-5.7,15.49-9.54,22.79-3.85,7.36-8.29,14.38-13.32,20.96-7.47.03-14.95.01-22.42-.04-16.1-.1-32.19-.36-48.28-.79-9.06-.24-18.11-.51-27.16-.87-.29-.01-.5.24-.51.51-.88,16.43-2.73,32.8-5.42,49.05-.37,2.26-.76,4.51-1.17,6.76-2.49.13-4.99.19-7.49.18-14.92-.04-29.82-2.37-43.96-7.1.44-5.97.91-11.93,1.42-17.87,1.36-15.72,3.01-31.38,5.27-46.96,1.21-8.45,2.1-17.54,4.22-26.02.22-.91.46-1.83.72-2.72,12.09.18,24.16.33,36.25.49,43.8.58,87.58,1.14,131.38,1.64Z"/>
    <g>
      <path class="cls-8" d="M687.62,858.13c-3.82-7.03-8.6-13.55-14.28-19.19-3.45-3.41-7.19-6.37-11.2-8.95-10.15,6.23-20.77,11.67-31.92,15.97-6.88,2.65-13.95,4.85-21.13,6.51-.65.15-.53,1.22.14,1.05-.18.28-.41.13-.67.1-.26-.01-.5.06-.73.21-.33.22-.6.63-.68,1.04-.04.26.01.51.15.73.17.24.45.37.74.38.14,0,.29,0,.44-.03-.09,11.82,8.19,21.27,11.77,32.05.26.79.49,1.6.69,2.41-.4,3.68-.79,7.37-1.19,11.08-.58,5.5-2.23,13.18,2.05,17.73,1.99,2.12,4.82,2.77,7.63,2.9,3.67.21,7.37.06,11.05-.06,20.01-.63,39.86-3.74,59.24-8.73,0-.77.01-1.53.01-2.28.03-18.28-3.29-36.75-12.11-52.92Z"/>
      <path class="cls-1" d="M955.26,738.69c-5.6,13.36-14.93,24.91-24.69,35.46-10.27,11.11-21.59,21.23-33.39,30.68-12.02,9.61-24.54,18.59-37.16,27.38-13.15,9.17-26.48,18.11-40.09,26.61-27.07,16.93-55.38,32.12-85.29,43.41-10.97,4.14-22.18,7.77-33.55,10.74-.46.12-.91.24-1.37.36,0-.77.01-1.53.01-2.28.03-18.28-3.29-36.75-12.11-52.92-3.82-7.03-8.6-13.55-14.28-19.19-3.45-3.41-7.19-6.37-11.2-8.95.44-.26.86-.53,1.28-.79,14.93-9.31,28.86-20.33,41.98-31.97,23.57-20.9,44.96-44.09,68.29-65.21,22.81-20.67,47.82-39.47,76.5-51.12,13.87-5.63,28.54-9.51,43.48-10.77,12.38-1.04,25.11-.26,36.86,4.08,11.29,4.17,21.19,11.92,26.05,23.15,5.68,13.17,4.1,28.37-1.32,41.34Z"/>
    </g>
    <path class="cls-1" d="M960.16,717.68c-4.9,25.56-39.1,60.39-88.09,51.28-17.13-3.19-29.95-26.01-39.7-55.46-18.16-54.76-25.75-132.4-30.95-149.07-4.64-14.9-14.04-89.32-21.1-149.13,4.03-2.78,7.92-5.78,11.67-8.95,10.99-9.29,20.64-20.07,29.09-31.71,1.03-1.41,2.03-2.82,3.01-4.26,5.19-7.54,9.87-15.38,14.14-23.47,16.46,5.61,35.1,14.13,54.92,26.95,99.16,64.19,71.9,318.26,67.02,343.82Z"/>
    <path class="cls-9" d="M724.9,419.77c-1.05-2.73-3.02-5.03-5.1-7.03-2.39-2.29-5-4.35-7.52-6.47-5.53-4.65-11.04-9.32-16.59-13.93-3.19-2.65-6.4-5.28-9.61-7.89-.53-.43-1.3.3-.77.77,5.4,4.71,10.85,9.36,16.33,13.97,5.3,4.46,10.73,8.81,15.9,13.42,2.51,2.23,4.64,4.65,6.09,7.7.34.71,1.58.21,1.29-.54Z"/>
    <path class="cls-9" d="M672.56,368.08c-13.56,3.9-27.76,5.41-41.84,4.48-4.01-.26-7.97-.82-11.96-1.27-.59-.07-.71.9-.14,1.03,3.48.78,7.05,1.17,10.6,1.46,3.55.29,7.12.42,10.68.39,7.09-.06,14.17-.74,21.14-2.02,4-.74,7.95-1.7,11.85-2.85.78-.23.45-1.45-.34-1.23Z"/>
    <path class="cls-9" d="M725.14,319.01c-.38.63-.49,1.41-.69,2.11-.19.67-.38,1.33-.58,2-.43,1.42-.9,2.83-1.4,4.23-1.02,2.84-2.16,5.65-3.39,8.42-.25.55.54,1.05.83.49,1.38-2.69,2.59-5.45,3.64-8.3.51-1.4.99-2.8,1.44-4.22.24-.76.46-1.52.68-2.28.2-.7.5-1.44.47-2.18-.02-.53-.72-.73-1-.27Z"/>
    <path class="cls-9" d="M575.07,870.66c-11.49,2.32-23.32,2.38-34.82.08-11.45-2.29-22.44-6.79-32.16-13.26-5.45-3.63-10.51-7.9-15.04-12.64-.46-.48-1.17.24-.73.73,7.98,8.83,17.98,15.73,28.87,20.5,10.81,4.73,22.52,7.38,34.32,7.65,6.66.15,13.36-.44,19.86-1.92.74-.17.43-1.28-.31-1.13Z"/>
    <path class="cls-9" d="M560.84,892.46c-2.87-.31-5.8-.19-8.68-.36-2.94-.18-5.87-.46-8.78-.84-5.83-.75-11.6-1.9-17.28-3.41-11.29-3-22.16-7.47-32.3-13.25-5.69-3.24-11.18-6.89-16.37-10.89-.43-.33-1,.41-.58.75,9.21,7.43,19.43,13.49,30.31,18.13,10.83,4.62,22.25,7.86,33.91,9.56,3.23.47,6.48.83,9.74,1.06,1.62.12,3.25.2,4.88.26,1.71.06,3.45.16,5.16-.04.62-.07.62-.9,0-.97Z"/>
    <path class="cls-9" d="M553.47,916.84c-9.93-.43-19.78-1.56-29.5-3.66-9.37-2.03-18.81-4.7-27.53-8.74-6.43-2.97-12.53-6.92-17.35-12.12,1.73.42,3.46-.43,4.46-1.94,1.26-1.92,1.16-4.55.78-6.72-.74-4.17-3.5-8.69-7.56-10.34-1.93-.78-4.22-.7-5.67.96-1.47,1.67-1.57,4-1,6.06,0,.27-.02.39.03.53.51,1.41,1.15,2.75,1.89,4.04.34.63.69,1.24,1.05,1.84,1.2,1.99,2.59,3.86,4.12,5.61,3.06,3.51,6.69,6.5,10.61,9,8.84,5.64,19.06,8.93,29.15,11.54,10.61,2.73,21.48,4.43,32.42,5.04,1.37.08,2.75.14,4.12.17.8.02.8-1.21,0-1.25ZM471.33,876.74c.58-2.17,2.54-2.98,4.6-2.29,1.97.65,3.59,2.27,4.76,3.94,1.33,1.9,2.2,4.13,2.45,6.44.24,2.16.07,5.47-2.49,6.21-1.29.37-2.45-.48-3.34-1.32-.82-.78-1.56-1.64-2.26-2.52-.82-1.25-1.6-2.54-2.25-3.88-.96-1.97-2.08-4.34-1.48-6.57Z"/>
    <path class="cls-9" d="M487.44,857.02c-1.21-1.42-2.65-2.63-4.18-3.68-1.53-1.06-3.2-2.1-4.95-2.76-1.48-.56-3.24-.62-4.43.59-.97.99-1.28,2.48-1.28,3.83,0,3.67,1.79,7.53,4.77,9.7.46.33.96-.38.59-.77-1.93-1.99-3.33-4.27-3.84-7.02-.43-2.36-.1-6.18,3.29-5.18,1.4.41,2.72,1.27,3.95,2.03,1.27.79,2.49,1.68,3.59,2.7,2.07,1.93,3.76,4.37,4.35,7.17.31,1.46.28,3.23-.7,4.45-.82,1.02-2.33,1.56-3.52.88-.8-.46-1.52.78-.72,1.24,1.27.73,2.78.62,4.04-.09,1.39-.79,2.19-2.24,2.42-3.79.5-3.37-1.25-6.8-3.37-9.29Z"/>
    <path class="cls-9" d="M509.7,844.29c-1.61-2.59-3.74-5.05-6.57-6.32-2.64-1.18-6-1.35-8.45.37-2.13,1.5-3.93,5-2.26,7.44.28.41.83.14.76-.32-.31-2.14.1-4.18,1.8-5.65,1.91-1.65,4.75-1.65,7.01-.81,2.34.87,4.21,2.72,5.63,4.71,1.48,2.08,2.95,4.56,2.92,7.2-.03,2.64-2.13,5.56-5.07,4.58-.88-.3-1.26,1.1-.38,1.39,2.82.94,5.61-1,6.5-3.66,1.04-3.09-.26-6.3-1.89-8.92Z"/>
    <path class="cls-9" d="M582.45,809.38c-1.12-1.86-2.58-3.58-4.21-5.01-3.8-3.33-8.97-5.13-13.97-3.78-.3.08-.44.3-.47.54-3.23,1.81-2.72,6.51-1.27,9.35,2.02,3.95,6.01,6.3,10.05,7.75,2.16.77,4.53,1.41,6.83.86,1.89-.45,3.55-1.72,4.16-3.61.67-2.08-.03-4.31-1.11-6.11ZM580.24,817.35c-1.79.91-3.88.62-5.73.08-3.59-1.04-7.22-2.78-9.6-5.75-1.23-1.54-2.17-3.5-2.22-5.5-.04-1.65.54-3.52,2.12-4.28,3.81-.96,7.7.04,10.84,2.18,1.52,1.04,2.86,2.34,4.03,3.76,1.19,1.45,2.37,3.13,2.7,5.01.32,1.87-.43,3.62-2.14,4.5Z"/>
    <path class="cls-7" d="M869.7,663.4c-16.74,9.99-32.96,20.93-48.78,32.32-15.79,11.37-31.16,23.33-46.04,35.87-8.39,7.07-16.69,14.29-24.66,21.83-.41.39.2.99.62.62,14.58-12.98,29.32-25.74,44.67-37.81,15.3-12.03,31.06-23.48,47.23-34.31,9.04-6.06,18.25-11.86,27.48-17.62.56-.35.05-1.24-.52-.9Z"/>
    <path class="cls-7" d="M821.77,671.92c-.81-5.57-1.64-11.14-2.49-16.7-1.71-11.13-3.51-22.24-5.41-33.34-1.9-11.1-3.91-22.18-6.01-33.24-2.11-11.11-4.32-22.21-6.63-33.29-2.29-11.02-4.63-22.04-7.22-32.99-.32-1.36-.63-2.71-.95-4.07-.14-.59-1.03-.34-.9.25,2.44,10.99,4.8,22.01,7.09,33.03s4.49,22.07,6.59,33.13c2.09,11.01,4.1,22.03,6.01,33.07,1.92,11.09,3.75,22.2,5.49,33.33,1.74,11.12,3.38,22.26,4.92,33.42.19,1.38.41,2.75.65,4.12.11.62,1.18.49,1.11-.15-.57-5.54-1.45-11.05-2.24-16.57Z"/>
    <path class="cls-7" d="M865.96,626.57c-11.25,17.19-22.21,34.56-33.26,51.87-1.55,2.42-3.09,4.85-4.63,7.27-1.6,2.51-3.27,4.99-4.75,7.57-.3.52.46.94.8.46,3.01-4.25,5.7-8.75,8.51-13.13,2.76-4.3,5.51-8.6,8.26-12.91,5.51-8.61,11.01-17.21,16.51-25.82,3.15-4.94,6.31-9.86,9.42-14.82.34-.54-.51-1.03-.85-.5Z"/>
    <path class="cls-6" d="M272.75,409.53c-1.01.52-1.97,1.05-2.98,1.59-5.77,3-11.48,6.06-17.11,9.25-12.2,6.89-24.08,14.23-35.77,21.93.77,2.67,1.55,5.36,2.36,8.03,4.67,15.49,9.91,30.78,15.58,45.9.39,1.03.77,2.07,1.18,3.1-.81-.6-1.63-1.22-2.42-1.84-15.31-11.67-30.55-23.44-45.71-35.33-16.76,11.89-33.34,24.04-50.18,35.83-.81.58-1.65,1.16-2.48,1.72.41-.95.81-1.9,1.24-2.85,3.83-8.89,7.69-17.77,11.52-26.66,4.24-9.83,8.5-19.65,12.74-29.48-12.27-9.76-24.53-19.55-36.63-29.54-.62-.5-1.26-1.03-1.88-1.55.89.04,1.76.04,2.65.06,9.39.15,18.8.29,28.19.37,6.97.08,13.92.12,20.87.16,3.87-9,7.76-17.98,11.63-26.99,2.07-4.82,4.14-9.62,6.21-14.42,1.96-4.55,4.03-9.2,4.2-14.25.04-.93,1.47-1.22,1.61-.23,1.84,11.71,3.89,23.4,6.27,35.02,1.43,6.99,2.98,13.96,4.63,20.89,7.94-.04,15.89-.08,23.83-.15,12.22-.12,24.43-.27,36.67-.48,1.01-.02,1.99-.04,2.96-.06.27,0,.54,0,.81-.02Z"/>
    <path class="cls-3" d="M273.96,372.05c-6.88-.17-10.41,6.82-12.54,12.31-.26.68-1.23.42-1.1-.31.97-5.26-2.05-10.77-6.92-12.88-.56.14-.9-.68-.41-.9,6.32-2.82,11.65-7.22,14.95-13.4.35-.64,1.29-.06.97.58-2.59,5.12-.21,11.46,5.2,13.47.58.22.53,1.14-.15,1.13Z"/>
    <path class="cls-3" d="M164.08,387.93c-4.4.65-8.11,4.08-9.18,8.36-.05.58-.14,1.15-.28,1.7-.15.58-1.11.46-1.06-.14.05-.54.14-1.06.27-1.59.21-1.79-.03-3.61-.65-5.33-.78-2.09-2.13-3.74-3.83-5.13-.19.06-.38.14-.59.19-.63.18-.87-.77-.27-.97.32-.41.63-.65.99-.44,4.58-1.7,8.5-4.69,11.17-8.78.36-.54,1.19-.05.87.5-1.17,1.96-1.91,4.37-1.31,6.64.49,1.9,1.94,3.6,3.88,4.02.46.1.49.88,0,.96Z"/>
    <path class="cls-3" d="M123.88,467.81c-6.77,2.61-11.86,8.78-13.18,15.91-.17.69-1.17.4-1.05-.28,1.5-5.76-2.08-11.58-7.86-12.87-.71-.17-.41-1.27.31-1.1.33-.03.44-.1.58-.14,6.28-1.54,11.06-6.5,14.25-11.97.22-.5.47-.97.79-1.42.35-.47,1.09-.06.79.47-.18.32-.37.65-.55.97-.9,1.86-.97,4.09.01,5.95,1.12,2.13,3.38,3.47,5.77,3.49.6,0,.64.81.13,1Z"/>
    <path class="cls-3" d="M297.3,434.19c-8.44,3.08-15.06,10.24-17.2,19-.14.56-1.08.45-1.03-.13.68-7.54-3.6-15.24-10.51-18.43-.65-.31-.08-1.32.58-.99.26.13.49.27.73.41.05-.1.14-.18.28-.22,7.08-2.03,13.41-6.83,17.06-13.24.28-.72.62-1.41,1.05-2.04.35-.5,1.08-.08.82.47-.28.59-.59,1.17-.91,1.74-1.03,2.59-.92,5.6.5,8.04,1.68,2.87,5.15,4.82,8.5,4.45.58-.06.59.77.13.94Z"/>
    <path class="cls-3" d="M234,332.44c-5.46,1.09-9.82,5.88-10.69,11.32-.15.65-1.08.36-.97-.26.97-4.36-.45-9.14-3.72-12.18-.83.17-1.08-.64-.51-.79.18-.35.62-.59.95-.31,3.85-1.24,7.18-3.6,9.38-6.94.36-.85.81-1.65,1.32-2.37.35-.49,1.03-.08.79.46-.36.78-.78,1.54-1.26,2.28-.59,1.46-.86,3.05-.41,4.58.6,2.03,2.69,3.72,4.86,3.28.6-.14.86.78.26.92Z"/>
    <path class="cls-3" d="M748.85,489.79c-2.63,1.32-5.83.76-7.81-1.45-.95-1.08-1.65-2.55-1.56-4.01.08-1.27.81-2.49,2.01-2.94,1.08-1.5,2.49-2.7,4.38-2.97,2.77-.4,5.54,1.5,6.23,4.18.74,2.82-.67,5.88-3.26,7.19Z"/>
    <path class="cls-3" d="M729.66,483.18c.62,2.86-.73,5.87-3.35,7.23-2.5,1.31-5.69.68-7.42-1.58-1.1-1.45-1.31-3.41-.69-5.08-.03-2.86,2.4-5.36,5.32-5.44,2.94-.08,5.52,2,6.14,4.86Z"/>
    <path class="cls-7" d="M914.21,303.58c-.36-.72-1.43-.09-1.07.63,2.17,4.35-.66,10.04-5.53,10.64-2.36.29-4.87-.5-6.51-2.26-1.31-1.41-1.98-3.29-2.16-5.18-.39-4.07.8-8.13,1.32-12.14.48-3.72.46-7.73-2.08-10.75-3.08-3.66-8.27-3.8-12.65-3.26-4.63.58-9.3,2.04-13.97.87-2.16-.54-4.09-1.71-5.23-3.67-1.1-1.9-1.18-4.14-.97-6.27.43-4.36,2.15-8.7,1.39-13.12-.73-4.25-4.14-6.99-8.25-7.76-4.51-.84-8.91.2-13.28,1.22-4.63,1.08-10.34,2.24-14.57-.64-4.42-3-4.68-9.06-6.07-13.73-2.65-8.9-8.97-18.03-19.06-18.57-6.01-.32-11.69,2.15-17.64,2.46-2.57.14-5.27-.07-7.65-1.14-2.29-1.04-3.99-2.82-5.19-5-2.24-4.1-2.86-8.93-5.44-12.88-2.56-3.91-6.84-6.04-11.27-7.09-8.87-2.1-19.46-.25-27.1-6.22-1.7-1.33-3.04-3.02-3.84-5.03-.21-.54-1.1-.32-.89.25,3.35,9.09,14.54,10.21,22.82,10.87,4.94.4,10.22.91,14.59,3.44,2.1,1.21,3.83,2.95,5.05,5.05,1.23,2.12,1.98,4.48,2.76,6.79,1.53,4.5,3.48,9,8.12,11.01,4.96,2.15,10.54,1.1,15.61.02,3.19-.68,6.43-1.4,9.71-1.28,2.69.1,5.28.86,7.59,2.25,4.2,2.55,7.11,6.8,9.05,11.23,1.02,2.33,1.72,4.77,2.3,7.25.58,2.51,1.13,5.08,2.33,7.39,2.39,4.6,7.1,6.26,12.05,5.98,4.99-.28,9.68-2.21,14.65-2.57,4.23-.31,9.32.37,11.51,4.52,2.18,4.13.29,9.23-.37,13.51-.65,4.21-.37,8.74,3.41,11.43,3.76,2.67,8.97,2.2,13.26,1.47,4.56-.77,10.1-2.12,14.35.46,3.87,2.34,4.19,6.87,3.71,10.93-.48,4.11-1.73,8.22-1.42,12.39.31,4.2,2.72,7.97,7.03,8.91,4.56,1,9.01-1.59,10.24-6.13.58-2.15.35-4.32-.64-6.3Z"/>
    <path class="cls-7" d="M691.31,289.76c-1.59-2.19-3.69-4.13-6.13-5.33-.55-.27-1,.48-.48.82,1.92,1.27,3.69,2.7,5.13,4.52,1.38,1.74,2.63,4,2.19,6.3-.47,2.47-2.51,3.36-4.79,3.65-1.1.14-2.45.26-3.35-.53-.88-.76-.63-1.75.28-2.31.39-.24.22-.82-.23-.84-.84-.05-1.47.64-1.7,1.4-.28.92.05,1.87.73,2.52,1.6,1.56,4.4,1.17,6.35.59,2.1-.63,3.58-2.21,3.93-4.39.37-2.31-.58-4.56-1.92-6.39Z"/>
    <path class="cls-4" d="M359.51,588.59c-2.52,19.59-5.04,39.19-7.56,58.79-1.23,9.55-2.44,19.1-3.65,28.65-.04.31-.08.63-.12.95-.37-.01-.74-.03-1.13-.04-20.7-.78-41.41-1.65-62.11-2.2-22.29-.6-44.65-.36-66.72,3.17-.4.06-.65-.22-.6-.6,1.19-8.69,2.41-17.37,3.63-26.06.24-1.71.47-3.41.72-5.12.39-.46.79-.91,1.21-1.36,3.76-4.19,7.68-8.24,11.74-12.13,5.1-4.87,11.33-11.2,19.01-10.64,4.35.32,8.33,2.96,11.59,5.69,3.26,2.72,6.02,5.97,8.22,9.6.24.41.86.32,1-.13,5-16.18,15.9-30.47,30.23-39.51,15.36-9.68,35.07-13.6,52.87-9.49.23.05.46.12.69.17.33.09.67.17,1,.26Z"/>
    <path class="cls-4" d="M359.66,587.44c-.05.38-.09.77-.14,1.15-.33-.09-.67-.17-1-.26-.23-.05-.46-.12-.69-.17-17.79-4.11-37.51-.19-52.87,9.49-14.33,9.04-25.23,23.33-30.23,39.51-.14.45-.76.54-1,.13-2.19-3.63-4.96-6.88-8.22-9.6-3.26-2.73-7.24-5.37-11.59-5.69-7.68-.56-13.91,5.77-19.01,10.64-4.06,3.88-7.99,7.93-11.74,12.13-.41.45-.82.9-1.21,1.36.09-.69.18-1.37.28-2.06.4-.45.81-.91,1.22-1.36,4.58-5.05,9.4-9.86,14.46-14.37,2.78-2.47,5.79-4.82,9.27-6.24,3.46-1.42,7.19-1.59,10.73-.3s6.73,3.62,9.51,6.13c2.55,2.31,4.74,4.97,6.6,7.86,2.94-8.99,7.59-17.36,13.7-24.59,12-14.2,29.19-23.23,47.66-25.25,4.76-.53,9.56-.59,14.33-.17,2.99.27,6.01.68,8.93,1.4.33.08.67.17.99.27Z"/>
    <path class="cls-4" d="M709.56,544.85c-41.63-1.16-83.27-2.04-124.9-3.04-41.42-1-82.84-2-124.26-3.02-23.36-.57-46.73-1.28-70.1-1.64-.57,0-.57.87,0,.89,41.62,1.36,83.27,2.02,124.9,3.02,41.42.99,82.84,1.99,124.26,2.98,23.36.56,46.73,1.18,70.09,1.65.55.01.54-.83,0-.85Z"/>
    <path class="cls-4" d="M443.81,557c-7.77-.29-15.58-.18-23.36-.26-7.79-.07-15.57-.14-23.36-.2-4.37-.03-8.75-.09-13.12-.07-.61,0-.61.93,0,.94,15.57.32,31.14.28,46.71.38,4.37.03,8.75.14,13.12.05.54-.01.54-.82,0-.84Z"/>
    <path class="cls-4" d="M709.56,561.13c-32.15-.74-64.32-1.07-96.47-1.61-31.99-.53-63.99-1.06-95.98-1.57-18.05-.29-36.09-.57-54.14-.79-.55,0-.55.85,0,.86,32.15.64,64.31,1.11,96.47,1.61,31.99.5,63.99,1,95.98,1.51,18.05.29,36.09.65,54.14.81.53,0,.53-.81,0-.82Z"/>
    <path class="cls-4" d="M713.37,579.91c-42.95-1.15-85.92-1.87-128.88-2.77-42.74-.9-85.48-1.81-128.22-2.69-24.11-.5-48.22-1.05-72.33-1.42-.54,0-.54.83,0,.84,42.95,1.14,85.92,1.86,128.88,2.74,42.74.87,85.48,1.75,128.22,2.63,24.11.5,48.22,1.05,72.33,1.41.47,0,.47-.72,0-.74Z"/>
    <path class="cls-4" d="M242.71,697.02c-1.4.88-3.13.54-4.28-.58-1.11-1.09-1.68-2.91-.91-4.33.79-1.6,2.62-2.23,4.22-1.96,1.53.27,2.69,1.44,2.87,2.97.17,1.51-.64,3.09-1.9,3.9Z"/>
    <path class="cls-4" d="M230.77,691.98c.38,1.85-.6,3.6-2.33,4.33-1.7.73-3.7.37-4.86-1.14-1.08-1.41-1.23-3.5-.24-5,.18-.27.5-.24.69-.08.72-.83,1.79-1.4,2.91-1.42,1.88-.04,3.47,1.53,3.83,3.31Z"/>
    <path class="cls-4" d="M333.88,692.52c-1.32,2.13-3.4,3.94-5.87,4.55-2.48.62-5.13-.33-6.57-2.47-.16-.24-.3-.48-.41-.74,2.54-1.33,4.94-2.92,7.1-4.82.24-.21.2-.6,0-.82-2.63-2.92-7.95-.85-8.67,2.78-.16.79-.11,1.58.08,2.33-1.95.96-3.98,1.78-6.04,2.45-2.5.82-5.53,1.59-8.02.33-.8-.41-1.64-1.13-2.2-1.99,1.85-1.07,3.59-2.33,5.15-3.8.18-.17.21-.47.09-.68-1.04-1.8-3.39-1.88-5.05-.92-1.83,1.05-2.32,3.12-1.66,4.98-2.26,1.2-4.69,2.08-7.2,2.61-2.45.51-4.97.68-7.46.5-2.38-.18-5.49-.56-6.89-2.78,1.39-1.05,2.72-2.18,3.87-3.47.15-.16.22-.45.08-.64-1.3-1.85-4.29-1.38-5.26.58-.5,1.03-.48,2.07-.13,3.03-2.35,1.38-4.98,2.28-7.71,2.51-2,.17-4.66.15-6.04-1.58-.23-.29-.38-.66-.46-1.07.93-.9,1.69-1.97,2.2-3.19.13-.32-.2-.67-.51-.67-1.57.02-2.59,1.34-2.78,2.82-.03.23-.04.46-.03.68-2.32,1.96-5.66,2.74-8.59,1.79-.56-.18-.78.67-.24.87,3.1,1.13,6.52.39,9.06-1.54.36.95,1.11,1.72,2.09,2.22,1.81.91,3.97.91,5.93.67,2.2-.27,4.34-.9,6.34-1.88.42-.2.82-.44,1.23-.67.66,1.03,1.68,1.88,2.75,2.35,2.73,1.2,6.1,1.28,9.04,1.07,3.02-.22,6-.92,8.79-2.07.82-.34,1.62-.72,2.41-1.13,3.52,5.82,11.94,2.33,16.65.19.33-.15.65-.33.98-.49.45.97,1.13,1.85,1.97,2.52,1.89,1.53,4.36,1.99,6.69,1.32,2.69-.78,4.82-2.82,6.09-5.28.27-.52-.48-.96-.79-.46ZM280.34,690.4c.69-.62,1.94-.84,2.68-.22-.97,1.04-2.06,1.96-3.24,2.75-.24-.9-.16-1.89.57-2.54ZM302.99,690.7c.81-1.34,3.13-2.05,4.28-.83-1.38,1.25-2.88,2.35-4.48,3.29-.28-.81-.28-1.66.2-2.46ZM322.19,688.94c1.34-.98,3.28-1.3,4.64-.31-1.89,1.6-3.95,2.97-6.13,4.13-.25-1.42.19-2.86,1.5-3.82Z"/>
    <path class="cls-4" d="M339.04,711.83c-16.12,1.22-32.26,2.18-48.41,2.87-16.15.69-32.31,1.13-48.48,1.3-9.14.1-18.29.15-27.44.14-.62,0-.62.95,0,.96,16.17.22,32.33.09,48.49-.32,16.16-.4,32.32-1.08,48.45-2.02,9.13-.53,18.26-1.14,27.38-1.83.71-.05.71-1.16,0-1.11Z"/>
    <path class="cls-4" d="M335.15,728.38c-5.65.06-11.31.34-16.95.52-5.7.18-11.41.36-17.11.54-11.36.35-22.71.7-34.07,1.07-6.4.21-12.8.42-19.2.67-.63.02-.68,1-.04.98,11.36-.27,22.71-.64,34.07-1,11.36-.35,22.71-.71,34.07-1.06,6.39-.2,12.81-.28,19.19-.61.69-.04.76-1.1.05-1.1Z"/>
    <path class="cls-4" d="M331.36,741.47c-.82-.11-1.64-.2-2.46-.28-.31-.03-.5.21-.54.48-6.6.43-13.22.69-19.82,1.02-7.55.38-15.11.74-22.66,1.09-15.16.7-30.33,1.36-45.5,1.97-8.52.34-17.03.67-25.55,1.01-.77.03-.77,1.22,0,1.2,15.17-.49,30.34-1.12,45.51-1.78,15.17-.66,30.33-1.39,45.49-2.17,8.51-.44,17.02-1.02,25.53-1.32.8-.03.75-1.11,0-1.21Z"/>
    <path class="cls-4" d="M248.16,760.77c-2.85-.05-5.72.12-8.57.19-2.91.07-5.82.14-8.73.21-5.77.14-11.53.28-17.3.42-.73.02-.74,1.16,0,1.14l17.3-.43c2.86-.07,5.71-.14,8.57-.21,2.9-.07,5.83-.03,8.73-.23.7-.05.72-1.09,0-1.11Z"/>
    <path class="cls-4" d="M330.09,757.01c-8.8.71-17.66.97-26.47,1.41-8.83.44-17.65.9-26.47,1.36-5,.26-10,.52-14.99.83-.58.04-.59.94,0,.92,17.66-.71,35.3-1.78,52.95-2.68,4.99-.25,9.99-.59,14.99-.7.73-.02.72-1.19,0-1.13Z"/>
    <path class="cls-4" d="M706.11,613.02c-41.78-1.63-83.56-3.01-125.35-4.49-44.41-1.56-88.81-3.13-133.22-4.69-21.75-.76-43.52-1.53-65.28-2.26-.36-.01-.73-.03-1.09-.04-.05.3-.09.59-.14.87-.59,3.81-1.11,7.61-1.69,11.42-.81,5.38-1.63,10.76-2.42,16.14-1.28,8.47-2.55,16.96-3.81,25.45-.1.6-.19,1.2-.27,1.81-.27,1.73-.53,3.45-.78,5.18-.46,3.05-.92,6.11-1.37,9.18-.09.55-.17,1.11-.26,1.67-.05.32-.1.65-.15.97.37.01.74.03,1.11.03,50.07.78,100.13,1.53,150.19,2.58,55,1.15,109.96,2.53,164.95,4.13,3.49.1,6.97.21,10.46.32.33,0,.67.01,1,.03l.14-1.12,1.38-10.38c1.04-7.82,2.09-15.65,3.11-23.47.06-.41.12-.81.17-1.22.91-6.85,1.82-13.7,2.73-20.55.47-3.55.95-7.11,1.41-10.67.04-.28.08-.56.12-.85-.32-.01-.64-.03-.95-.04ZM701.94,644.1l-.19,1.47-.17,1.23-4.45,33.37c-27.77-.81-55.55-1.51-83.31-2.23-54.98-1.41-109.96-2.6-164.96-3.53-25.78-.42-51.56-.85-77.33-1.14.03-.21.06-.4.09-.6.41-2.74.82-5.49,1.23-8.23.44-2.88.87-5.78,1.31-8.67.08-.58.17-1.14.26-1.72.28-1.91.58-3.83.86-5.74,1.62-10.82,3.23-21.63,4.85-32.43.67-4.47,1.4-8.95,2.03-13.42,41.37,1.53,82.76,2.97,124.14,4.44,44.41,1.56,88.81,3.14,133.22,4.69,22.16.78,44.32,1.59,66.48,2.28-1.36,10.08-2.7,20.15-4.05,30.23Z"/>
    <path class="cls-4" d="M702.8,645.12c-.05.41-.1.81-.17,1.22-.35.15-.71.31-1.05.46-9.41,4.2-18.33,9.69-28.72,11.19-5.24.76-10.78.59-15.74-1.47-2.32-.96-4.46-2.33-6.28-4.08-2.35-2.23-4.1-4.99-6.4-7.27-9.45-9.42-24.11-3.76-34.33,1.09-10.77,5.12-23.1,10.65-34.5,4.03-9.1-5.31-14.7-15.45-24.63-19.49-6.67-2.72-14.11-1.89-20.91-.15-6.4,1.63-12.58,4.04-18.66,6.58-11.97,5.03-23.91,10.79-36.89,12.6-14.14,1.96-28.2-1.23-42.03-3.82-11.97-2.24-24.07-3.88-36.16-1.5-8.32,1.64-16.37,5.19-22.16,11.27-.47.47-.91.96-1.32,1.46.08-.6.17-1.21.27-1.81.2-.26.42-.49.65-.73.22-.23.44-.45.65-.64,7.04-6.95,16.96-10.22,26.59-11.37,12.49-1.49,24.78.91,37.01,3.24,14.46,2.76,28.96,5.01,43.48,1.4,12.92-3.23,24.75-9.52,37.16-14.19,11.45-4.29,25.23-8.37,36.48-1.41,9,5.56,14.81,15.97,25.1,19.5,13.36,4.58,25.92-5.36,37.91-9.63,5.27-1.87,11.04-3.13,16.65-2.33,2.59.37,5.14,1.23,7.36,2.65,2.63,1.68,4.56,4.08,6.53,6.47,4.02,4.91,8.9,8.01,15.29,8.72,5.83.64,11.77-.45,17.28-2.32,7.08-2.42,13.65-6.2,20.49-9.22.35-.15.7-.31,1.05-.45Z"/>
    <path class="cls-4" d="M240.74,732.8c-.92-.16-1.89-.08-2.82-.08-1.01,0-2.01,0-3.02,0-2.07,0-4.13-.03-6.2-.06-4.08-.05-8.15-.2-12.23-.27-.65-.01-.64.96,0,1,4.07.29,8.15.37,12.23.43,2.01.03,4.02.03,6.04.02,1.01,0,2.01-.02,3.02-.03.98-.01,2.01.05,2.98-.15.42-.09.44-.79,0-.86Z"/>
    <path class="cls-4" d="M725.69,715.28c-22.9-.97-45.83-1.43-68.74-1.99-22.92-.56-45.83-1.05-68.75-1.47-45.6-.84-91.21-1.41-136.82-1.75-25.72-.19-51.46-.51-77.19-.24-.61,0-.6.94.01.95,22.92.25,45.85.13,68.77.27,22.92.14,45.84.35,68.76.63,45.61.56,91.21,1.39,136.81,2.48,25.72.62,51.44,1.53,77.16,2,.57.01.55-.86-.01-.88Z"/>
    <path class="cls-4" d="M509.35,727.78c-17.92.12-35.85.42-53.77.44-17.82.03-35.63.1-53.45.19-10.03.05-20.06.11-30.09.2-.66,0-.66,1.03,0,1.03,17.92-.06,35.85-.23,53.77-.35,17.82-.12,35.63-.31,53.45-.34,10.03-.01,20.06-.07,30.09-.13.67,0,.67-1.04,0-1.04Z"/>
    <path class="cls-4" d="M721.58,733.18c-6.36-.31-12.75-.25-19.11-.34-6.37-.09-12.74-.19-19.11-.29-12.74-.21-25.48-.41-38.22-.62-25.35-.42-50.7-.84-76.05-1.26-14.3-.23-28.6-.5-42.9-.64-.61,0-.62.94,0,.95,25.48.58,50.96.88,76.44,1.29,25.35.4,50.7.82,76.05,1.23,7.15.12,14.3.24,21.45.37,7.14.13,14.31.45,21.45.33.66-.01.66-.99,0-1.03Z"/>
    <path class="cls-4" d="M721.65,746.12c-46.14-.03-92.28.15-138.42.03-45.9-.12-91.81-.4-137.71-.8-25.89-.23-51.79-.54-77.68-.77-.61,0-.62.94,0,.95,46.13.76,92.27,1.08,138.41,1.35,45.9.27,91.81.39,137.71.37,25.89-.01,51.79-.01,77.68-.24.57,0,.58-.89,0-.89Z"/>
  </g>
  <path class="cls-6" d="M527.4,171.84c-6.26-6.27-12.51-12.56-18.84-18.76-.36-.35-.9.19-.55.55,6.21,6.33,12.49,12.58,18.76,18.84.4.4,1.03-.22.63-.63Z"/>
  <path class="cls-6" d="M515.87,195.75c-12.11,1.66-24.42-.27-35.58-5.15-.45-.2-.84.45-.39.67,8.69,4.16,18.45,6.15,28.07,5.96,2.72-.05,5.43-.29,8.12-.68.53-.08.3-.87-.22-.8Z"/>
  <path class="cls-6" d="M508.1,222.79c-5.7,1.55-11.4,3.1-17.1,4.67-2.82.78-5.65,1.56-8.47,2.33-2.85.78-5.85,1.39-8.6,2.47-.5.2-.31.9.22.81,2.92-.48,5.8-1.5,8.65-2.29,2.82-.78,5.64-1.56,8.47-2.34,5.7-1.57,11.39-3.16,17.08-4.75.58-.16.33-1.06-.25-.9Z"/>
</svg>