<?xml version="1.0" encoding="UTF-8"?>
<svg xmlns="http://www.w3.org/2000/svg" viewBox="0 0 3600 2000">
  <defs>
    <style>
      .cls-1 {
        fill: #472a6a;
      }

      .cls-2 {
        fill: #5c407b;
      }

      .cls-3 {
        fill: #9c649b;
      }

      .cls-4 {
        fill: #fe875e;
      }

      .cls-5 {
        fill: #fff;
      }

      .cls-6 {
        fill: #865585;
      }

      .cls-7 {
        fill: #f2f2f2;
      }

      .cls-8 {
        fill: #43c4db;
      }

      .cls-9 {
        fill: #c069a9;
      }

      .cls-10 {
        fill: #e1dde7;
      }

      .cls-11 {
        fill: #f8a492;
      }

      .cls-12 {
        fill: #efefef;
      }

      .cls-13 {
        fill: #13375b;
      }

      .cls-14 {
        fill: #ea94ad;
      }

      .cls-15 {
        fill: #e4c4ff;
      }

      .cls-16 {
        fill: #ffb3c5;
      }

      .cls-17 {
        fill: #34bed1;
      }
    </style>
  </defs>
  <g id="_Ñëîé_2" data-name="Ñëîé 2">
    <rect class="cls-9" y="4.3" width="3600" height="2000"/>
    <path class="cls-3" d="M0,1677.57c304.9,0,630.88,208.54,664,326.73H0v-326.73Z"/>
    <path class="cls-3" d="M1754,2000c-30-820,862-750,677.93-1261.07C2274.62,302.14,1413,506,1277,0h2323v2000h-1846Z"/>
    <path class="cls-8" d="M3600,0h-491.46c-33.89,53.34-53.54,116.62-53.54,184.5,0,190.26,154.24,344.5,344.5,344.5,74.8,0,144.02-23.85,200.5-64.34V0Z"/>
    <path class="cls-8" d="M3374.91,240.5h-242c-1.93,0-3.5-1.57-3.5-3.5s1.57-3.5,3.5-3.5h242c1.93,0,3.5,1.57,3.5,3.5s-1.57,3.5-3.5,3.5Z"/>
  </g>
  <g id="Layer_1" data-name="Layer 1">
    <g>
      <path class="cls-10" d="M2286.93,612.31c-.29,0-.58-.13-.77-.38-.32-.42-.25-1.03.17-1.35.12-.1,12.63-9.51,29.92-1.13.48.23.68.81.45,1.29-.23.48-.81.68-1.29.45-16.18-7.85-27.43.56-27.9.92-.18.13-.38.2-.59.2Z"/>
      <path class="cls-15" d="M2560.32,1616.82c-355.41-185.73-476.6-378.21-515.18-508.9h228.28c-1.3,20.51-7.38,40.63-17.7,58.42-5.07,8.36-7.77,18.05-7.77,27.95,0,29.85,24.28,54.13,54.13,54.13s54.13-24.28,54.13-54.13c0-9.9-2.7-19.59-7.81-28.02-10.28-17.73-16.36-37.84-17.66-58.35h229.56v212.67l4.21-.38c20.36-1.82,40.47-8.19,58.15-18.44,7.28-4.41,15.59-6.73,24.08-6.73,25.58,0,46.4,20.82,46.4,46.4s-20.81,46.4-46.4,46.4c-8.49,0-16.79-2.31-24.01-6.69-17.75-10.29-37.86-16.67-58.22-18.49l-4.21-.38v254.53Z"/>
      <g>
        <path class="cls-8" d="M2568.05,1370.82c17.97,2.17,35.02,7.87,50.75,16.99,8.36,5.07,18.05,7.77,27.95,7.77,29.85,0,54.13-24.28,54.13-54.13s-24.28-54.13-54.13-54.13c-9.91,0-19.59,2.7-28.02,7.81-15.66,9.08-32.71,14.78-50.68,16.95v-204.15h270.31l.12-3.74c.88-26.43-5.67-52.49-18.93-75.35-4.41-7.28-6.72-15.59-6.72-24.07,0-25.58,20.81-46.4,46.4-46.4s46.4,20.81,46.4,46.4c0,8.49-2.31,16.79-6.69,24.01-13.3,22.94-19.84,48.99-18.96,75.42l.12,3.74h203.12c-38.58,130.69-159.76,323.17-515.17,508.9v-246.01Z"/>
        <path class="cls-8" d="M2567.09,1618.42v-248.69l1.08.13c18.09,2.18,35.29,7.94,51.12,17.11,8.25,5,17.74,7.64,27.47,7.64,29.32,0,53.17-23.85,53.17-53.17s-23.85-53.17-53.17-53.17c-9.73,0-19.24,2.65-27.52,7.67-15.8,9.16-32.97,14.9-51.07,17.08l-1.08.13v-206.2h270.34l.09-2.8c.87-26.25-5.63-52.12-18.8-74.84-4.48-7.4-6.85-15.89-6.85-24.56,0-26.12,21.25-47.36,47.36-47.36s47.37,21.25,47.37,47.36c0,8.66-2.36,17.14-6.83,24.51-13.18,22.74-19.7,48.64-18.82,74.89l.09,2.8h203.48l-.37,1.24c-38.21,129.46-158.69,322.94-515.65,509.48l-1.41.74ZM2569.02,1371.91v243.31c354.12-185.4,474.46-377.41,512.91-506.34h-202.76l-.16-4.67c-.89-26.61,5.72-52.86,19.09-75.94,4.29-7.08,6.56-15.21,6.56-23.52,0-25.05-20.38-45.43-45.43-45.43s-45.43,20.38-45.43,45.43c0,8.31,2.28,16.46,6.58,23.57,13.36,23.04,19.95,49.28,19.07,75.89l-.16,4.67h-270.27v202.09c17.43-2.24,33.99-7.86,49.23-16.69,8.56-5.19,18.43-7.94,28.51-7.94,30.38,0,55.1,24.72,55.1,55.1s-24.72,55.1-55.1,55.1c-10.08,0-19.92-2.73-28.45-7.91-15.27-8.85-31.85-14.48-49.28-16.72Z"/>
      </g>
      <path class="cls-6" d="M2302.09,1240.69c-25.58,0-46.4-20.82-46.4-46.4,0-8.49,2.31-16.79,6.69-24.01,11.66-20.11,18.2-42.94,18.96-66.1l.13-3.99h-238.54c-10.04-36.4-15.13-73.01-15.13-108.84,0-83.26,26.36-161.13,74.21-219.24,49.28-59.85,117.49-92.81,192.04-92.81,91.42,0,159.06,38.11,199.7,70.07,40.19,31.61,62.66,63.62,66.56,69.39v98.35c-16.35-2.54-31.9-8.04-46.28-16.37-8.36-5.07-18.05-7.77-27.95-7.77-29.85,0-54.13,24.28-54.13,54.13s24.28,54.13,54.13,54.13c9.9,0,19.59-2.7,28.02-7.81,14.31-8.3,29.86-13.8,46.21-16.33v123.1h-237.61l.13,3.99c.76,23.16,7.31,46,18.93,66.04,4.41,7.28,6.73,15.59,6.73,24.07,0,25.58-20.81,46.4-46.4,46.4Z"/>
      <g>
        <g>
          <path class="cls-16" d="M2295.34,658.72c-10.91,1.76-10.27,3.54-11.67,3.73-1.66.22-21.36-9.64-21.36-9.64,0,0-58.27-28.68-61.35-30.34l-42.06-52.76-32.41,14.91s47.3,56.09,50.29,58.56c2.99,2.47,86.54,31.68,93.8,34.5,0,0,7.32,6.68,12.07,10.71,4.74,4.03,11.08,5.63,12.59,6.55.22.14,5.45,2.89,12.84,4.49,6.37,1.38,1.06-2.93,1.06-2.93,0,0-11.26-4.74-10.71-5.6.43-.66,6.41,2.31,13.44,3.91,1.81.41,3.59.81,5.23,1.17,4.31.93,6.21-1.53,1.87-3.24-1.53-.61-4.1-1.55-6.03-1.95-2.09-.44-3.84-1.53-5.54-2.17-3.36-1.27-5.82-2.16-5.69-2.27.17-.15-.3-.89,1.63-.51,2.32.45,7.01,2.54,10.49,2.93,1.97.22,6.06.95,6.06.95,0,0,7.23.69,7.28-.32.11-2.21-4.34-3.44-7.08-3.38-1.72-.88-6.05-1.51-6.05-1.51,0,0-8.38-3.3-7.9-4.54.19-.49,5.27.27,10.66.63,5.69.39,9.82.39,10.12-.71.48-1.74-4.05-2.41-4.05-2.41,0,0-4-.58-5.3-.88-1.53-.35-6.04-1.75-6.04-1.75,0,0-15.42-5.65-14.86-6.78.56-1.13,3.1-3.51,4.19-3.5,1.09,0,3.03,1.09,4.12,1.09,1.09,0,3.43-.2,3.59-1.57.16-1.36-5.87-4.19-5.87-4.19,0,0-4.21-1.67-7.36-1.16Z"/>
          <path class="cls-10" d="M2188.16,602.39s-10.49,9.5-14.86,12.63c-3.63,2.6-21.31,11.09-21.31,11.09,0,0-17.59-26.85-25.28-40.32-9.33-16.34-15.79-40.64-13.59-41.3,6.19-1.85,14.71-2.98,22.57.62,27.21,12.45,52.46,57.27,52.46,57.27Z"/>
          <path class="cls-4" d="M2285.15,672.76c4.67.73,9.44-.15,11.51-4.41.47,5.05-7.22,7.56-11.51,4.41Z"/>
        </g>
        <path class="cls-16" d="M2016.42,1011.94s-1.16,20.56-1.17,20.6c-.43,2.61-2.11,9.06-2.11,11.43,0,8.92,39.67-7.57,30.78-11.52-.8-.36-5.02-3.06-5.28-6.1-.41-4.68-1.44-14.13-1.44-14.13l-20.77-.29Z"/>
        <path class="cls-2" d="M2043.82,1032.38s-9.31,2.73-14.08,3.41c-4.77.68-11.06-5.06-14.43-3.51-3.71,1.71-3.57,17.07-3.57,17.07,0,0,49.94,4.37,63.99-.15,5.56-1.79-12.86-10.47-31.9-16.82Z"/>
        <path class="cls-16" d="M1952.67,1010.7s-1.16,20.56-1.17,20.6c-.43,2.61-2.11,9.06-2.11,11.43,0,8.92,39.67-7.57,30.78-11.52-.8-.36-6.27-5.08-6.53-8.12-.41-4.68-.19-12.11-.19-12.11l-20.77-.29Z"/>
        <path class="cls-2" d="M1980.06,1031.14s-9.31,2.73-14.08,3.41c-4.77.68-11.06-5.06-14.43-3.51-3.71,1.71-3.86,17.07-3.86,17.07,0,0,49.59,2.03,64.28-.15,5.78-.86-12.86-10.47-31.9-16.82Z"/>
        <path class="cls-1" d="M1961.65,686.38s-6.72,34.68-3.98,60.98c2.74,26.3,2.95,119.72,2.95,119.72l-10.45,149.48,24.81.58s29.41-149.41,28.87-145.57c-.55,3.84,9.86-105.2,9.86-105.2l-35.07-83.28-16.99,3.29Z"/>
        <path class="cls-2" d="M1971.06,663.98s-30.45,31.99-19.13,66.92c4.55,14.03,46.99,148.1,47.54,159.05.55,10.96,14.35,132.08,14.35,132.08l28.84-.87,6.24-134.66-8.24-181.44-17.51-30.6-52.1-10.49Z"/>
        <path class="cls-7" d="M2155.95,560.24c-9.97-11.09-31.68-27.25-31.68-27.25,0,0-12.93-11.01-18.2-12.83-7.76-2.67-21.05-9.78-40.27,19.26-13.75,20.79-100.55,128.42-114.8,132.04l93.04,44.38c2.55-21.2,48.53-61.25,55.15-68.72,14.79-16.7,66.19-76.39,56.75-86.89Z"/>
        <g>
          <path class="cls-16" d="M2151.62,514.78l-28.98,16.92s-.82,24.67,8.66,31.08c7.95,5.38,14-7.53,14-7.53,0,0,10.78-14.89,18.96-19.53,8.19-4.64-12.64-20.94-12.64-20.94Z"/>
          <path class="cls-14" d="M2146.75,525.64c1.09,5.15,3.61,12.59,7.52,18.72,3.19-3.44,6.78-6.82,9.98-8.64,3.78-2.14,1.37-6.76-2.31-11.12-5.2-5.4-10.33-9.81-10.33-9.81l-5.57,3.25c-.36,2.11.34,5.89.71,7.61Z"/>
          <path class="cls-16" d="M2166.71,472.38c-.49-.6-24.31,28.97-21.37,42.84,2.94,13.87,17.34,26.53,27.35,23.05,11.07-3.85,31.66-38.66,24.28-55.57-7.38-16.9-30.25-10.32-30.25-10.32Z"/>
          <path class="cls-6" d="M2192.8,463.05c-10.39-5.76-27.33-7.41-39.99-.81-15.56,8.13-19.11,28.57-14.24,41.04,4.87,12.47-.71,19.52-.71,19.52l8.26-4.81s4.82-7.51,5.45-13.49c.63-5.98,9.38-4.92,13.65-7.64,3.29-2.09,7.49-8.88,12.81-12.4,0,0,13.4-1.64,19.99,2.05,11.24,6.29,9.64-15.22-5.24-23.47Z"/>
        </g>
        <path class="cls-16" d="M2238.81,702.27c-11.38-1.37-11.36-.46-12.82-.67-1.72-.25-19.42-15.44-19.42-15.44,0,0-52.44-44.41-55.19-46.91l-28.77-63.58-37.99,5.64s35.41,74.74,37.88,77.99c2.48,3.25,80.27,48.6,86.97,53.4,0,0,5.92,8.57,9.82,13.84,3.9,5.27,9.93,8.62,11.26,9.94.2.2,4.86,4.36,11.95,8.01,6.11,3.15,1.71-2.55,1.71-2.55,0,0-10.31-7.8-9.57-8.48.57-.52,5.96,4.06,12.69,7.61,1.73.91,3.44,1.81,5.02,2.62,4.14,2.13,6.59.27,2.6-2.63-1.41-1.02-3.79-2.67-5.65-3.6-2.01-1.02-3.54-2.58-5.1-3.68-3.1-2.19-5.22-3.62-5.06-3.7.21-.1-.28-1.08,1.58-.16,2.24,1.1,6.51,4.46,9.93,5.82,1.94.78,5.9,2.64,5.9,2.64,0,0,5.84.75,6.06.41,1.19-1.82-2.28-3.24-5.05-3.96-1.54-1.34-5.76-3.18-5.76-3.18,0,0-7.73-5.59-6.97-6.65.29-.41,4.84,2.69,10.41,4.77,6.38,2.38,9.44,1.09,10.01.07.87-1.56-3.03-2.52-3.03-2.52,0,0-5.35-1.3-6.6-1.96-1.47-.77-18.55-13.68-17.74-14.63.81-.95,3.44-.96,4.53-.64,1.09.31,3.03,1.1,4.12,1.41,1.09.31,3.01-.95,3.47-2.24.46-1.28-3.63-3.61-3.63-3.61,0,0-4.28-2.99-7.57-3.38Z"/>
        <path class="cls-10" d="M2090.66,612.21s10.93-3.47,17.94-6.67c4.69-2.14,25.17-12.3,25.17-12.3,0,0-8.83-37.14-14.8-50.49-21.9-49-46.8-15.21-50.17-7.33-7.55,17.62,21.86,76.79,21.86,76.79Z"/>
      </g>
      <path class="cls-7" d="M2887.64,1100.19c-.13-23.69,6.05-46.94,17.96-67.48,5.07-8.36,7.77-18.05,7.77-27.95,0-29.85-24.28-54.13-54.13-54.13s-54.13,24.28-54.13,54.13c0,9.9,2.7,19.59,7.8,28.02,11.87,20.47,18.05,43.73,17.92,67.42h-262.77v-131.9l-4.34.53c-18.98,2.32-37.01,8.36-53.55,17.96-7.28,4.41-15.58,6.72-24.07,6.72-25.58,0-46.4-20.81-46.4-46.4s20.81-46.4,46.4-46.4c8.49,0,16.79,2.31,24.01,6.69,16.61,9.63,34.63,15.67,53.62,18l4.34.53v-107.16c3.89-5.77,26.37-37.78,66.56-69.39,40.64-31.97,108.28-70.07,199.7-70.07,74.56,0,142.76,32.96,192.05,92.81,47.85,58.12,74.21,135.98,74.21,219.24,0,35.83-5.09,72.43-15.13,108.84h-197.8Z"/>
      <g>
        <path class="cls-7" d="M3087.11,1271.81h-78.74c-3.9,0-7.06-3.16-7.06-7.06h0c0-3.9,3.16-7.06,7.06-7.06h78.74c3.9,0,7.06,3.16,7.06,7.06h0c0,3.9-3.16,7.06-7.06,7.06Z"/>
        <path class="cls-10" d="M3094.84,1282.96h-94.21c-3.9,0-7.06-3.16-7.06-7.06h0c0-3.9,3.16-7.06,7.06-7.06h94.21c3.9,0,7.06,3.16,7.06,7.06h0c0,3.9-3.16,7.06-7.06,7.06Z"/>
        <g>
          <path class="cls-16" d="M2818.6,1752.95s-7.25,7.17-7.42,9.8c-.17,2.63-.64,30.83,2.32,33.47,2.96,2.63,11.66,4.5,8.86,7.46-2.11,2.24-18.37,1.76-29.14,1.16-3.15-.18-7.09-25.61-8.33-29.35-1.81-5.43-8.33-17.25-6.68-21.03.8-1.84,6.76-6.05,12.16-9.58,5.68-3.72,11.12-12,11.12-12l17.12,20.08Z"/>
          <path class="cls-16" d="M2915.62,1770.57s-6.49,18.58-6.5,18.63c-.48,2.95-2.38,10.22-2.38,12.9,0,10.06,44.74-8.53,34.71-12.99-.91-.4-3.75-3.62-4.05-7.05-.46-5.27,3.77-11.89,3.77-11.89l-25.55.4Z"/>
          <g>
            <path class="cls-9" d="M2977.36,1417.73l16.2,41.95s10.57,100.11,4.42,160.03c-2.57,25.06-58.29,159.22-58.29,159.22l-27.67-3.95,37.07-158.87-13.64-60.76-19.3-120.09,61.23-17.53Z"/>
            <path class="cls-6" d="M2901.05,1419.92l-13.9,46.71-21.14,140.98-71.47,131.88s10.75,16.5,22.29,19.1l101.45-133.29,54.98-166.86-1.93-37.07-70.28-1.44Z"/>
          </g>
          <path class="cls-11" d="M3114.38,1342.16c-8.32,3.77-7.47,5.33-8.55,5.78-1.27.53-18.79-5.04-18.79-5.04,0,0-51.7-15.99-54.47-16.98l-43.45-41.95-22.86,20.36s48.24,44.1,51.09,45.87c2.85,1.77,74.71,13.41,81.01,14.69,0,0,7.09,4.92,11.62,7.83,4.53,2.91,9.86,3.21,11.24,3.79.2.09,4.88,1.69,11.04,1.79,5.32.08.28-2.99.28-2.99,0,0-9.84-2.33-9.57-3.25.21-.71,5.53.95,11.41,1.12,1.51.04,3,.08,4.38.1,3.6.05,4.63-2.64.87-3.44-1.33-.28-3.55-.68-5.16-.69-1.74,0-3.34-.71-4.81-.99-2.91-.56-5.03-.93-4.95-1.06.11-.17-.41-.78,1.2-.8,1.93-.02,6.05,1.06,8.88.76,1.61-.17,4.98-.27,4.98-.27,0,0,5.46-.9,5.49-1.29.18-2.12-3.88-2.85-6.04-2.27-1.53-.5-5.09-.27-5.09-.27,0,0-7.28-1.52-7.13-2.78.12-1.04,18.1-1.53,18.16-3.67.05-1.75-5.37-1.9-5.37-1.9,0,0-3.28.22-4.38.19-1.28-.04-5.12-.5-5.12-.5,0,0-13.31-2.39-13.09-3.58.23-1.18,1.79-3.93,2.65-4.13.86-.2,2.61.45,3.48.25.87-.2,1.84-1.38,1.71-2.7-.13-1.32-4.63-2.31-4.63-2.31,0,0-3.66-.77-6.06.32Z"/>
          <path class="cls-10" d="M3004.74,1294.62l-21.75,29.54s-19.22-23.04-27.86-34.61c-10.49-14.04-21.98-33.47-20.28-34.52,4.8-2.96,10.76-6.09,17.77-4.27,24.26,6.31,52.12,43.86,52.12,43.86Z"/>
          <path class="cls-1" d="M2790.71,1744.69s15.28,46.78,21.82,49.08c1.74.61,11.51,3.09,13.08,6.83.04.09.07.21.1.33.51,2.37-1.48,4.55-3.9,4.55h-31.04s-4.41-21.02-6.15-30.25c0,0-9.22-22.57-8.2-24.62,1.02-2.05,14.28-5.92,14.28-5.92Z"/>
          <path class="cls-1" d="M2904.19,1805.41l4.99-16.4s10.89,4.61,16.27,3.84c5.38-.77,15.88-3.84,15.88-3.84,21.47,7.16,39.06,10.64,35.86,16.4h-73.01Z"/>
          <path class="cls-4" d="M3107.74,1356.47c3.99-.11,7.16-1.86,9.48-5.73-.85,5.39-5.97,7.63-9.48,5.73Z"/>
          <path class="cls-7" d="M2906.61,1249.87s-25.96,2.74-34.64,5.78c-7.25,2.54-17.07,26.24-17.07,26.24,0,0,39.33,113.71,37.79,134.04-1.55,20.33-5.92,50.44-5.92,50.44,0,0,77.46,4.89,106.8-6.69,0,0-9.27-46.06-9.27-58.16s-5.2-132.99-8.91-139.32c-3.7-6.33-11.17-9.94-25.32-13.02-14.15-3.09-43.47.7-43.47.7Z"/>
          <path class="cls-16" d="M2911.77,1216.03l-5.17,33.84s15.54,17.92,26.81,14.43c9.45-2.93,6.97-16.21,6.97-16.21,0,0-5.15-19.15-3.61-28.72,1.54-9.58-25-3.33-25-3.33Z"/>
          <path class="cls-14" d="M2936.78,1219.36c1.54-9.58-25-3.33-25-3.33l-.43,2.81c.78,1.88,1.73,3.49,2.88,4.72,5.93,6.34,15.2,10.15,23.21,10.43-.8-5.17-1.3-10.7-.66-14.63Z"/>
          <g>
            <path class="cls-16" d="M2907.42,1168.17c-.75-.27-6.01,38.53,3.97,49.21,9.99,10.68,29.45,14.17,36.43,5.76,7.72-9.3,7.33-51.01-8.2-61.99-15.53-10.98-32.21,7.02-32.21,7.02Z"/>
            <path class="cls-1" d="M2933.72,1140.39c-12,2.43-19.78,9.72-22.64,12.83-5.45.64-12.86,3.63-20.51,16.22-9.41,15.47-2.46,32.61,8.49,41.02,10.95,8.41,10.8,18.1,10.8,18.1l1.73-5c1.28-3.81,1.8-7.84,1.37-11.84-.26-2.39-.77-4.98-1.77-7.11-2.63-5.62,5.66-9.35,7.98-14.02,1.79-3.6,1.87-11.83,4.7-17.78l3.37-4.54s7.77-6.01,15.37-4.31c7.6,1.69,6.51-26.68-8.89-23.56Z"/>
            <path class="cls-16" d="M2918.66,1197.48c.08,4.74-2.09,8.61-4.84,8.66-2.75.05-5.05-3.75-5.13-8.49-.08-4.73,2.09-8.61,4.84-8.66,2.75-.05,5.05,3.75,5.13,8.49Z"/>
          </g>
          <rect class="cls-9" x="2953.77" y="1278.5" width="156.34" height="135.62" transform="translate(6063.88 2692.61) rotate(180)"/>
          <rect class="cls-6" x="3051.06" y="1278.5" width="135.62" height="135.62" transform="translate(6237.73 2692.61) rotate(180)"/>
          <path class="cls-16" d="M3048.4,1411.24c-7.98-2.31-99.41-25.74-102.85-28-3.44-2.26-59.91-55.02-59.91-55.02l32.34-17.11,50.55,49.79c3.45,1.45,68.2,26.07,68.2,26.07,0,0,19.79,8.07,21.51,7.74,1.46-.28,2.69-1.59,13.97-4.1,3.26-.73,7.89.65,7.89.65,0,0,5.68,1.73,5.67,3.11,0,1.37-1.43,2.42-2.58,2.48-1.14.07-3.32-.88-4.47-.81-1.15.07-3.54,2.62-3.99,3.79-.27.71,15.74,12.41,16.53,14.01.37.37,19.57-.94,18.78.29,0,1.97-2.29,1.4-2.3,1.68-.29,5.26-27.5,9.17-29.36,8.64-3.11-.88-29.98-13.2-29.98-13.2Z"/>
          <path class="cls-10" d="M2903.05,1352.51l37.05-24.26s-42.91-65.08-57.56-71.8c-10.09-4.63-22.64,2.35-27.56,19.46-5.34,18.57,48.07,76.59,48.07,76.59Z"/>
        </g>
        <path class="cls-7" d="M3173.13,1309.15l-6.28,6.02v-35.19c0-3.65-2.96-6.61-6.61-6.61h-54.95c-3.65,0-6.61,2.96-6.61,6.61v40.9l-6.77-11.73-23.2,6.77s18.62,35.44,29.97,41.22c15.18,7.73,52.89,7.56,68.16,0,9.29-4.6,25.14-32.97,25.14-32.97l-18.85-15.01Z"/>
        <path class="cls-10" d="M3152.22,1361.36c-1.08-12.17-9.27-21.64-19.21-21.64s-18.2,9.53-19.23,21.77c11.9,1.89,26.61,1.83,38.44-.13Z"/>
      </g>
      <g>
        <path class="cls-6" d="M2824.97,373.16c-5.6,9.52-15.6,9.13-26.34,11.8-7.21,1.79-11.64,13.65-10.95,22.61,1.75,22.71-16.05,18.86-30.37,28.26-34.3,22.52-12.17,81.27,25.31,85.07,7.51.76,16.06-.46,22.71-4.2,5.33-3,9.12-6.83,15.16-8.97,12.64-4.47,26.71-6.03,36.8-15.74,14.45-13.9,2.48-20.69,6.21-30.81,3.73-10.11,19.8-5.05,22.85-26.01,3.31-22.68-.32-42.22-8.68-53.49-13.84-18.63-38.15-19.9-47.02-14.25-2.64,1.68-4.47,3.65-5.69,5.72Z"/>
        <path class="cls-14" d="M2982.43,415.71c-1.33-2.82-13.2,5.52-15.83,3.93-2.63-1.59,10.63-14.96,9.28-17.29-2.49-4.3-15.42,13.75-16.69,11.84-1.27-1.91,11.15-21.18,6.71-22.24-4.43-1.06-10.79,21.33-13.07,19.89-2.27-1.44,7.79-20.29,3.49-24.13-2.29-2.05-13.11,34.39-17.03,35.91-3.92,1.51-8.34-14.4-12.03-13.77-3.69.63,12.11,29.27,11.34,31.5-.77,2.23-15.24,48.99-23.79,63.11-5.14-2.46-10.15-4.93-14.92-7.34-1.92,10.85-2.13,22.26-4.65,32.91,16.57,7.28,31.36,12.57,36.17,10.8,14.66-5.4,21.89-76.54,24.24-89.82,2.36-13.29,8.62-15.89,12.19-22.87,3.57-6.98,15.92-9.6,14.59-12.42Z"/>
        <path class="cls-10" d="M2859.88,475.63l-24.53,24.74s32.41,17.57,59.9,29.65c2.52-10.64,2.73-22.06,4.65-32.91-22.71-11.47-40.01-21.49-40.01-21.49Z"/>
        <path class="cls-16" d="M3012.9,750.43c10.76,12.7,18.56,25.92,19.42,27.56.41.79.57,5.31.97,6.14,16.74,11.02,34.49,7.96,49.05,3.42-9.59-4.15-22.94-8.96-24.19-10.96-1.99-3.2-11.13-14.79-20.54-35.62-7.5,7.47-14.58,6.61-24.71,9.47Z"/>
        <path class="cls-6" d="M3032.49,778.6c-1.46,6.69-.88,20.26.45,20.55,1.59.36,57.8,8.66,65,1.44,4.33-4.34-3.84-7.68-15.6-13.05-14.56,4.54-49.31-4.42-49.85-8.95Z"/>
        <path class="cls-16" d="M3017.67,801.14c10.76,12.7,18.56,25.92,19.42,27.56.41.79.57,5.31.97,6.14,16.75,11.02,34.49,7.96,49.05,3.42-9.59-4.15-22.94-8.96-24.19-10.96-1.99-3.2-11.12-14.79-20.54-35.62-7.5,7.47-14.58,6.61-24.71,9.47Z"/>
        <path class="cls-6" d="M3037.26,829.31c-1.46,6.68-.88,20.26.45,20.55,1.59.36,57.8,8.66,65,1.44,4.33-4.34-3.84-7.68-15.6-13.05-14.56,4.54-49.31-4.42-49.85-8.95Z"/>
        <path class="cls-17" d="M3045.15,749.84l-29.23,10.13-157.38-130.56s38.4-.49,107.23,6.54c20.58,2.1,79.38,113.89,79.38,113.89Z"/>
        <path class="cls-8" d="M2799.46,618.57s-4.2,11.04-4.73,17.06c-1.71,19.47,8.35,44.21,19.19,47.99,11.12,3.88,79.42,22.94,120.56,17.14l89.17,118.86,29.73-13.05-69.64-122.3s-13.42-21.06-24.46-26.01c-11.04-4.95-100.74-28.86-100.74-28.86l-13.88-20.19-45.2,9.36Z"/>
        <path class="cls-7" d="M2871.97,495.35c-4.93-9.12-10.01-16.35-10.01-16.35-5.11-9.12-18.32-13.73-18.32-13.73,0,0-4.42.09-9.49.34-.32.84-.64,1.45-.96,1.69-1.91,1.44-12.83-.42-19.89,4.39-23.65,20.35-17.11,118.96-15.25,150.11l57.47,2.11s5.49-68.45,20.13-85.67c10.19-11.99,3.63-29.37-3.68-42.89Z"/>
        <path class="cls-16" d="M2839.5,431.9s-3.96,28.38-6.73,35.27c-2.77,6.9,15.21,21.64,30.16,26.12,14.95,4.48-4.57-15.23-3.95-22.6.62-7.37,3.34-42.27,3.34-42.27l-22.82,3.49Z"/>
        <path class="cls-14" d="M2861.57,438.43c.44-5.77.76-10.01.76-10.01l-22.82,3.49s-.58,3.33-1.21,8.05c9.25,5.39,17.57,3.69,23.28-1.52Z"/>
        <path class="cls-16" d="M2846.65,380.07s-9,2.03-14.55,10.54c-5.56,8.51-9.37,33.55,8.93,45.23,18.3,11.69,32.52-4.85,32.76-20.97.24-16.13-3.21-37.65-27.14-34.8Z"/>
        <path class="cls-16" d="M2877.98,409.83c-1.56,3.89-4.66,6.31-6.92,5.39-2.26-.91-2.82-4.81-1.26-8.7,1.56-3.89,4.66-6.31,6.92-5.39,2.26.91,2.83,4.81,1.26,8.7Z"/>
        <path class="cls-16" d="M2831.81,413.03c1.33,4.19.11,8.32-2.71,9.22-2.82.9-6.19-1.77-7.52-5.96-1.33-4.19-.11-8.32,2.71-9.22,2.83-.9,6.19,1.77,7.51,5.96Z"/>
        <g>
          <path class="cls-2" d="M2907.59,506.12s6.15.17,7.9,0c10.09-.97,5.9,13.94,5.9,13.94,0,0-4.93-4.83-6.9-4.83s-4.72.54-4.72.54l-2.18-9.65Z"/>
          <path class="cls-9" d="M2941.76,605.71s4.15,6.46,8.82,3.55c4.66-2.9,12.72-8.53,14.22-4.29,1.51,4.24,1.2,7.77-.42,8.61-1.63.85-13.68,7.4-20.19,7.84-6.52.44-11.94-5.74-11.94-5.74l9.52-9.97Z"/>
          <path class="cls-6" d="M2951.5,620.32c-.21-5.11-1.22-10.77-4.01-15.59-7.14-12.34-37.27-45.61-41.75-48.19-4.46-2.6-1.25-12.61-1.25-12.61l-17.87-9.65-9.3-5.03s-21.1,32.2-22.71,35.24c-1.62,3.04,1.25,12.99-.89,19.12-2.09,6.12.08,39.35-2.94,43.01-2.36,2.36-4.57,2.7-5.3,4.12-.34.65-.75,1.72.11,2.83,2.42,3.11,14.79.5,14.79.5.09-.19,5.18-7.35,4.39-11.61-.8-4.12,1.73-28.92,3.44-28.92,1.5,0,8.63,11.02,11.47,13.12v.02c.32.23.57.36.78.36,2.05,0,15.25,2.9,18.15,5.81.78.78,1.08,2.87,1.1,5.49.04,1.75-.06,3.72-.21,5.73-.28,3.68-.8,7.46-1.16,9.95,3.13.03,6.28.03,9.42.01,2.58-4.66,8.03-7.87,14.33-7.87,5.94,0,11.11,2.85,13.86,7.07,5.27-.28,7.31,2.29,11.83,1.86.25-1.58,3.8-12.76,3.73-14.78Z"/>
          <path class="cls-9" d="M2909.39,507.56c-1.98-1.9-4.77-2.73-7.48-2.3-1.47.23-3.61.37-6.53.1-6.56-.6-13.29-.06-17.52,4.17-4.23,4.23-4.77,19.32,0,26.41,4.77,7.09,18.24,8.88,19.43,12.1,1.19,3.22,12.87,4.77,14.54.83,0,0,1.26.85,3.1.33,4.37-1.24,5.96-5.58,4.42-10.23-1.55-4.65-8.11-14.19-6.92-22.77.55-3.99-1.1-6.79-3.04-8.65Z"/>
          <path class="cls-2" d="M2906.64,536.61c-.76.78-.78,2.03-.07,2.85,1.4,1.62,3.8,4.23,5.53,5.22,2.59,1.49,5.06-4.81,5.06-7.63s-5.95-5.13-10.52-.44Z"/>
          <path class="cls-9" d="M2903.97,581.85c-.06-1.37-1.22-2.43-2.59-2.35-.01,0-.03,0-.05,0-6.95.42-11.74,6.76-10.83,13.66.05.37.05.71-.02,1.01-.26,1.22-2.32,5.31-4.52,9.49,4.17,1.04,8.33,2.08,12.5,3.13,3.06-5.3,6.09-10.23,6.09-10.23l-.59-14.71Z"/>
          <path class="cls-9" d="M2880.23,614.2s-4.73,14.17-6.08,19.59c3.81,2.2,6.13-2.11,14.78.27.23-1.7,3.28-12.21,3.28-14.79,0-1.26,3.84-7.17,6.9-12.39.23-.39.03-.89-.41-1.01-3.79-1.05-8.59-2.99-12.37-4.04-.48-.13-.98.08-1.21.52-2.6,5.14-4.9,11.85-4.9,11.85Z"/>
          <path class="cls-9" d="M2870.65,632.4c.94-2.02,3.69-4.4,7.75-4.4s10.54,6.06,10.54,6.06c0,0-1.92,1.88-7.22,1.88s-12.9.41-11.07-3.53Z"/>
          <path class="cls-9" d="M2894.52,631.55c.94-2.02,3.69-4.4,7.75-4.4,1.52,0,3.38.85,5.12,1.92,2.77,1.7,1.61,5.99-1.64,6.02h-.16c-5.29,0-12.9.41-11.07-3.53Z"/>
          <path class="cls-9" d="M2932.59,631.55c1.13-2.02,4.44-4.4,9.33-4.4,1.83,0,4.07.85,6.16,1.92,3.33,1.7,1.93,5.99-1.97,6.02h-.19c-6.37,0-15.52.41-13.32-3.53Z"/>
          <path class="cls-2" d="M2891.77,510.67c-1.92-1.92-.72-4.18.32-5.5-5.45-.12-10.72.84-14.24,4.36-4.23,4.23-4.77,19.32,0,26.41,4.28,6.36,15.58,8.46,18.7,11.15,3.23-5.51-1.72-10.14-2.88-12.73-1.16-2.59,5.81-9.12,6.62-14.31.8-5.19-5.6-6.47-8.52-9.39Z"/>
          <path class="cls-9" d="M2882.59,506.52s-4.23,1.46-9.54-.42c-5.31-1.88-10.58,7.6-10.58,7.6,0,0,4.92,10.64,8.85,13.23,3.93,2.59,11.27-20.41,11.27-20.41Z"/>
        </g>
        <path class="cls-16" d="M2950.02,597.04c0-2.36-7.23-9.17-10.7-8.07-3.37,1.07-17.05,9.65-17.05,9.65l-60.49-14.22s-15.27-34.81-16.76-64.71c-12.62,1.71-21.21,4.84-32.18,10.95,5.29,28.6,18.15,74.96,32.36,83.66,5.98,3.66,77.36-4.38,77.36-4.38,0,0,14.84,2.08,18.53,1.06,15.14-4.18,8.92-9.17,8.92-13.93Z"/>
        <path class="cls-10" d="M2845.4,487.73c-1.87-9.03-4.06-18.09-13.81-20.95-6.05-1.77-12.83-.08-17.67,3.88-5.75,4.71-7.36,12.27-7.33,19.42.06,16.24,1.17,33.09,4.12,49.08,10.97-6.11,26.94-5.41,39.56-7.12,1.18-14.45-2.43-32.56-4.87-44.32Z"/>
      </g>
      <path class="cls-2" d="M2355.09,436.9c-6.4,33.99-26.83,105.46-60.15,104.34-1.62-46.63-3.91-86.69-7.11-99.35-.73-2.63-1.62-5.16-2.64-7.61,20.75,1.8,33.22-29.83,38-52.12-4.25,14.14-13.9,36.8-26.53,44.37-7.17,4.32-12.43,2.14-14.43,1.54-12.04-22.43-34.8-37.44-45.79-50.8-8.69-10.69-3.12-53.42-.97-66.98-3.05,15.73-6.32,38.77-4.95,54.83,1.7,18.12,11.05,19.26,32.46,43.6,17.15,19.19,23.14,29.54,23.74,103.09-1.31.27-2.97.54-4.74.61-17.56.32-33.7-16.73-42.64-31.65,7.06,13.57,19.59,28.93,34.28,33.59,2.69.83,5.5,1.33,8.35,1.45,1.56.03,3.25-.09,4.77-.28.38,6.45,2.35,132.81.61,214.44,5.18.06,4.24-2.36,9.32-1.96-.2-22.11.93-104.8-1.42-177.36,38.86-1.57,55.17-73.46,59.83-113.76Z"/>
      <g>
        <path class="cls-17" d="M2212.59,325.35c7.92,6.35,19.73,4.79,19.73,4.79l-28.69-23s1.04,11.86,8.96,18.22Z"/>
        <path class="cls-8" d="M2203.63,307.13l28.69,23s-1.04-11.86-8.96-18.22c-7.92-6.35-19.73-4.79-19.73-4.79Z"/>
      </g>
      <g>
        <path class="cls-17" d="M2345.87,535.85c10.15-.38,18.05-9.29,18.05-9.29l-36.75,1.39s8.55,8.29,18.7,7.91Z"/>
        <path class="cls-8" d="M2327.17,527.94l36.75-1.39s-8.55-8.29-18.7-7.91c-10.15.38-18.05,9.29-18.05,9.29Z"/>
      </g>
      <g>
        <path class="cls-17" d="M2356.51,498.88c6.94-4.48,8.76-13.99,8.76-13.99l-25.12,16.22s9.42,2.25,16.36-2.23Z"/>
        <path class="cls-8" d="M2340.16,501.11l25.12-16.22s-9.42-2.25-16.36,2.23c-6.94,4.48-8.76,13.99-8.76,13.99Z"/>
      </g>
      <g>
        <path class="cls-17" d="M2320.61,497.49c2.86,7.75,11.74,11.6,11.74,11.6l-10.36-28.05s-4.24,8.7-1.38,16.45Z"/>
        <path class="cls-8" d="M2321.99,481.05l10.36,28.05s4.25-8.7,1.38-16.45c-2.86-7.75-11.74-11.6-11.74-11.6Z"/>
      </g>
      <g>
        <path class="cls-17" d="M2239.17,346.67c-6.2,4.32-7.57,13.08-7.57,13.08l22.47-15.65s-8.69-1.75-14.9,2.57Z"/>
        <path class="cls-8" d="M2254.07,344.11l-22.47,15.65s8.69,1.75,14.9-2.57c6.2-4.32,7.57-13.08,7.57-13.08Z"/>
      </g>
      <g>
        <path class="cls-17" d="M2324.99,409.36c-7.54-.59-14.15,5.32-14.15,5.32l27.3,2.13s-5.61-6.86-13.15-7.45Z"/>
        <path class="cls-8" d="M2338.14,416.81l-27.3-2.13s5.61,6.86,13.15,7.45c7.54.59,14.15-5.32,14.15-5.32Z"/>
      </g>
      <g>
        <path class="cls-17" d="M2244.35,495.29c-7.54-.59-14.15,5.32-14.15,5.32l27.3,2.13s-5.61-6.86-13.15-7.45Z"/>
        <path class="cls-8" d="M2257.5,502.74l-27.3-2.13s5.61,6.86,13.15,7.45c7.54.59,14.15-5.32,14.15-5.32Z"/>
      </g>
      <g>
        <path class="cls-17" d="M2258.52,487.66c-2.75-7.04-10.95-10.42-10.95-10.42l9.96,25.5s3.74-8.04.99-15.08Z"/>
        <path class="cls-8" d="M2257.53,502.74l-9.96-25.5s-3.74,8.04-.99,15.08c2.75,7.04,10.95,10.42,10.95,10.42Z"/>
      </g>
      <g>
        <path class="cls-17" d="M2312.41,399.69c-1.69-4.52-6.89-6.76-6.89-6.76l6.11,16.39s2.47-5.1.78-9.62Z"/>
        <path class="cls-8" d="M2311.64,409.32l-6.11-16.39s-2.47,5.1-.78,9.62c1.69,4.52,6.89,6.76,6.89,6.76Z"/>
      </g>
      <g>
        <path class="cls-17" d="M2221.81,363.16c-7.07-2.69-15.07,1.12-15.07,1.12l25.59,9.74s-3.45-8.17-10.51-10.86Z"/>
        <path class="cls-8" d="M2232.32,374.02l-25.59-9.74s3.45,8.17,10.51,10.86c7.07,2.69,15.07-1.12,15.07-1.12Z"/>
      </g>
      <path class="cls-8" d="M2311.85,728.29h3.99v-156.58c0-1.1-.89-2-2-2h0c-1.1,0-2,.89-2,2v156.58Z"/>
      <path class="cls-9" d="M2265.38,733.91s18.36-22.08,33.14-15.79c14.78,6.29,17.2-5.07,24.93-1.32,7.73,3.74,17.4,13.18,17.4,13.18l-75.48,3.93Z"/>
      <path class="cls-7" d="M2300.84,615.95c-4.21,0-9.08-.96-14.36-3.75-.47-.25-.65-.83-.4-1.31.25-.47.83-.65,1.31-.4,15.9,8.38,27.37-.54,27.85-.92.42-.33,1.02-.27,1.36.15.33.42.27,1.02-.15,1.36-.09.07-6.21,4.87-15.61,4.87Z"/>
      <path class="cls-7" d="M2287.58,612.43l-1.72-1.02c-1.3-.76-12.67-7.62-13.05-12.9-.09-1.25.42-2.36,1.47-3.21,1.89-1.52,3.72-1.94,5.46-1.25,5.45,2.16,7.37,14.94,7.57,16.39l.28,1.98ZM2278.08,595.68c-.8,0-1.66.38-2.61,1.14-.56.45-.79.94-.75,1.56.22,3.07,6.43,7.73,10.3,10.25-.85-4.38-2.86-11.52-6.02-12.77-.3-.12-.61-.18-.93-.18Z"/>
      <path class="cls-7" d="M2275.41,624.13c-.69,0-1.64-.26-2.37-1.47-.59-.99-.7-2.08-.3-3.16,1.55-4.21,10.64-7.37,11.67-7.72l2.37-.8-1.21,2.18c-1.01,1.82-6.25,10.89-10.11,10.95h-.05ZM2282.46,614.61c-3.06,1.3-7.12,3.44-7.91,5.56-.19.53-.15,1,.15,1.49.32.54.59.52.72.53,1.66-.03,4.73-3.92,7.04-7.59Z"/>
      <path class="cls-7" d="M2288.43,611c0,.91-.74,1.66-1.66,1.66s-1.66-.74-1.66-1.66.74-1.66,1.66-1.66,1.66.74,1.66,1.66Z"/>
      <polygon class="cls-5" points="1713.24 1276.71 1719.08 1281.69 1726.17 1278.41 1732.32 1284.45 1738.81 1278.62 1746.06 1285.15 1752.7 1280.52 1760.7 1285.65 1758.77 1288.69 1752.78 1284.86 1745.78 1289.74 1738.81 1283.47 1732.22 1289.39 1725.43 1282.72 1718.5 1285.92 1713.09 1281.31 1708.97 1284.37 1706.84 1281.47 1713.24 1276.71"/>
      <polygon class="cls-5" points="2474.15 355.92 2450.5 350.46 2444.24 367.31 2420.71 362.73 2412.18 378.1 2394.08 376.93 2393.99 384.19 2418.21 385.76 2426.3 371.2 2450.77 375.96 2456.92 359.39 2478.36 364.34 2474.15 355.92"/>
      <path class="cls-7" d="M3173.22,796.32l8.54-14.42-7.04-15.21c-.8-1.73.73-3.63,2.59-3.22l16.36,3.66,12.29-11.4c1.4-1.3,3.68-.43,3.86,1.47l1.57,16.69,14.64,8.17c1.67.93,1.54,3.37-.21,4.13l-15.38,6.65-3.25,16.44c-.37,1.87-2.72,2.51-3.99,1.08l-11.08-12.58-16.64,2c-1.9.23-3.23-1.82-2.26-3.46Z"/>
      <g>
        <path class="cls-7" d="M1739.39,1138.77s2.64-7.47,11.5-10.13c7.9-2.38,15.23,2.26,17.43,9.58,2.55,8.47-1.86,20.71-18.51,35.21-21.89-2.91-32.32-10.69-34.87-19.16-2.2-7.31,1.36-15.23,9.26-17.61,8.86-2.66,15.19,2.1,15.19,2.1Z"/>
        <path class="cls-7" d="M1675.08,1161.76c8.05-1.06,14.47-2.32,20.71-3.87,2.06-.51,5.78-.78,6.77-2.9.52-1.1.36-2.25-.7-2.98-1.94-1.34-4.88.1-6.95.61-6.33,1.55-13.56,3.01-20.96,4.07-1.39.2-2.26,1.8-1.97,3.09.33,1.47,1.7,2.15,3.1,1.97h0Z"/>
        <path class="cls-7" d="M1784.72,1152.07c3.04-.69,6.07-1.44,9.1-2.18,2.9-.71,6.45-1.04,8.95-2.7,1.85-1.22,1.38-3.96-.94-4.2-3-.31-6.25,1.02-9.16,1.73-3.03.75-6.06,1.49-9.07,2.29-3.22.85-2.14,5.81,1.13,5.06h0Z"/>
        <path class="cls-7" d="M1712.69,1194.61c2.25-7.3,6.4-10.4,9.35-13.7,1.57-1.77-.15-4.31-2.38-3.38-6.11,2.54-10.11,9.54-11.91,15.59-.94,3.18,3.96,4.68,4.94,1.5h0Z"/>
        <path class="cls-7" d="M1751.5,1202.12c-.88-3.1-1.15-6.27-.7-9.47.27-1.96,2.67-7.82-1.11-7.89-3.56-.07-4.03,5.88-4.27,8.4-.32,3.38.04,6.84,1,10.1.94,3.2,6,2.1,5.08-1.13h0Z"/>
        <path class="cls-7" d="M1772.57,1176.83c1.98.82,3.96,1.63,5.94,2.45,1.98.81,4.02,2.2,6.13,1.21,1.19-.56,1.37-1.93.95-3.02-.75-1.98-3.73-2.55-5.54-3.28-1.98-.8-3.97-1.61-5.95-2.41-1.32-.53-2.9.49-3.29,1.76-.44,1.47.44,2.74,1.76,3.29h0Z"/>
        <path class="cls-7" d="M1714.06,1125.24c-10.18-13.93-10.07-14.03-11.68-14.99-1.65-.98-3.87.49-3.41,2.42.45,1.91.41,1.59,11.18,16.2.86,1.16,2.8,1.04,3.77.14,1.16-1.08,1-2.6.14-3.77h0Z"/>
        <path class="cls-7" d="M1741.66,1118.38c.39-2.82.47-5.64.25-8.47-.2-2.63-.16-6.7-2.95-7.89-.6-.26-1.54-.02-1.97.46-1.8,1.98-.52,5.33-.34,7.76.2,2.65.11,5.32-.15,7.97-.14,1.39,1.15,2.63,2.48,2.68,1.51.06,2.49-1.1,2.68-2.48h0Z"/>
        <path class="cls-7" d="M1781.3,1111.48c.17-1.29-1.05-2.18-2.16-2.33-2.29-.32-4.54,2.37-6.04,3.83-1.75,1.7-3.32,3.56-4.78,5.52-.84,1.13-.28,2.89.85,3.59,1.31.81,2.7.26,3.58-.85,5.76-7.2,8.14-6.57,8.55-9.75Z"/>
      </g>
      <path class="cls-8" d="M3250.43,948.78c-2.52,19.9,18.2,35.69,36.63,34.44,20.37-1.38,37.65-18.08,40.63-38.1,3.22-21.67-9.8-39-29.94-40.59-19.61-1.55-32.15,15.91-26.49,33.52,4.06,12.63,15.59,17.33,21.39,13.85,4.52-2.72,4.25-9.56-1.23-10.77-2.2-.48-4.46.74-5.63,2.43-4.8-1.9-9.36-10.63-6.26-20.06,3.96-12.04,19.18-12.73,28.64-7.11,12.04,7.15,13.93,22.54,9.51,34.81-4.64,12.88-17.28,23.03-31.05,24-15.6,1.11-29.33-10.85-30.57-26.39-.29-3.67-5.18-3.58-5.63-.02Z"/>
      <path class="cls-8" d="M1794.34,1348.82c-1.29,10.19,9.32,18.28,18.76,17.64,10.43-.71,19.28-9.26,20.81-19.51,1.65-11.1-5.02-19.97-15.33-20.79-10.04-.79-16.47,8.15-13.57,17.17,2.08,6.46,7.98,8.88,10.96,7.09,2.32-1.39,2.18-4.9-.63-5.52-1.12-.25-2.28.38-2.88,1.24-2.46-.97-4.79-5.45-3.21-10.27,2.03-6.17,9.82-6.52,14.67-3.64,6.16,3.66,7.13,11.55,4.87,17.83-2.37,6.6-8.85,11.79-15.9,12.29-7.99.57-15.02-5.56-15.66-13.52-.15-1.88-2.65-1.83-2.88,0Z"/>
      <path class="cls-8" d="M1832.54,1004.57l-.15-19.08-15.8-10.69c-1.8-1.22-1.42-3.97.64-4.66l18.1-6.04,5.28-18.33c.6-2.09,3.34-2.58,4.63-.83l11.34,15.35,19.07-.64c2.17-.07,3.48,2.38,2.22,4.14l-11.09,15.53,6.5,17.94c.74,2.04-1.18,4.05-3.26,3.39l-18.19-5.75-15.05,11.73c-1.71,1.34-4.22.13-4.23-2.05Z"/>
      <g>
        <path class="cls-5" d="M3158.41,1095.77c-.61-8.78,6.02-16.4,14.8-17.01,8.78-.61,16.4,6.02,17.01,14.8.61,8.78-6.02,16.4-14.8,17.01-8.78.61-16.4-6.02-17.01-14.8Z"/>
        <path class="cls-5" d="M3185.45,1140.79c-.95-4.63-1.53-9.58-3.11-14.03-1.36-3.83-7.34-2.66-7.04,1.45.37,5.04,1.95,10.15,3,15.09.43,2,3.07,2.93,4.83,2.31,2.14-.75,2.73-2.82,2.31-4.82h0Z"/>
        <path class="cls-5" d="M3212.77,1121.04c-5.29-3.12-9.89-6.98-14.76-10.66-3.81-2.88-7.92,2.07-4.78,5.49,4.5,4.91,10.41,8.75,16.11,12.11,1.81,1.06,4.31.02,5.19-1.75.99-2,.05-4.13-1.75-5.19h0Z"/>
        <path class="cls-5" d="M3202.76,1092.5c-1.2.96-1.43,2.34-.7,3.68,1.79,3.24,6.32,3.08,9.54,2.97,3.36-.12,6.72-.8,9.9-1.88,4.7-1.6,2.15-8.89-2.56-7.28-9.22,3.15-12.71-.27-16.18,2.52Z"/>
        <path class="cls-5" d="M3197.68,1061.5c-4.64,6.79-8.43,9.08-7.84,12.82.35,2.18,2.07,3.23,4.18,2.75,2.49-.57,3.85-3.21,5.34-5.06,1.43-1.78,2.84-3.56,4.12-5.46,1.16-1.72,1.33-3.94-.38-5.42-1.43-1.24-4.25-1.35-5.42.38h0Z"/>
        <path class="cls-5" d="M3179.61,1060.33c-1.48-4.11-1.81-5.61-3.73-7.52-1.67-1.66-5.2-.6-5.44,1.85-.27,2.86.33,3.92,1.89,8.24.71,1.96,2.94,3.06,4.92,2.36,1.96-.69,3.07-2.96,2.36-4.92h0Z"/>
        <path class="cls-5" d="M3160.08,1070.28c-6.69-5.08-8.05-6.51-10.68-6.24-1.54.16-3.27,1.64-2.93,3.37.63,3.21,2.49,4.08,8.64,8.57,1.65,1.2,3.92,1.27,5.34-.37,1.27-1.46,1.26-4.1-.37-5.34h0Z"/>
        <path class="cls-5" d="M3133.21,1093.57c-2.63,1.4-1.57,5.96,1.28,6.33,2.74.36,3.79-.08,17.07-2.51,2.05-.37,3.74-1.87,3.58-4.12-.13-1.91-2.05-3.96-4.12-3.58-13.79,2.49-15.17,2.48-17.82,3.88Z"/>
        <path class="cls-5" d="M3154.02,1115.3c-7.28,7.04-8.34,5.8-11.22,10.11-1.31,1.97.85,5.11,3.14,4.69,2.94-.54,3.73-1.03,7.55-4.07,2.22-1.76,4.35-3.65,6.39-5.62,1.51-1.46,1.11-4.2-.38-5.49-1.7-1.48-3.98-1.09-5.49.38h0Z"/>
      </g>
      <path class="cls-8" d="M1932.1,1793.64h15.59v-827.95c0-4.31-3.49-7.8-7.8-7.8h0c-4.31,0-7.8,3.49-7.8,7.8v827.95Z"/>
      <path class="cls-8" d="M2037.42,1793.64h15.59v-841.97c0-4.31-3.49-7.8-7.79-7.8h0c-4.31,0-7.8,3.49-7.8,7.8v841.97Z"/>
      <rect class="cls-8" x="1943.18" y="1047.64" width="107.31" height="9.34"/>
      <rect class="cls-8" x="1943.18" y="1172.84" width="107.31" height="9.35"/>
      <rect class="cls-8" x="1943.18" y="1298.04" width="107.31" height="9.34"/>
      <rect class="cls-8" x="1943.18" y="1423.24" width="107.31" height="9.35"/>
      <g>
        <path class="cls-13" d="M1973.12,1502.7h-67.7c-5.59,0-10.12,4.53-10.12,10.12v38h11.32v-36.03h66.5v-12.09Z"/>
        <path class="cls-16" d="M1986.06,1477.04l-20.98-22.14s-22.46,12.35-48.64,24.16c-7.2-12.53-18.95-53.74-19.58-55.71-.63-1.97,13.76-26.73,10.54-27.35-3.22-.62-7.4,13.22-10.8,11.82-3.4-1.4-12.15-33.51-14.2-31.76-3.83,3.28,4.6,19.97,2.58,21.19-2.02,1.22-7.14-18.5-11.05-17.66-3.9.84,6.59,17.95,5.44,19.6-1.15,1.64-12.11-14.41-14.38-10.69-1.23,2.02,10.11,13.98,7.78,15.32-2.33,1.34-12.55-6.2-13.78-3.76-1.22,2.44,9.54,4.98,12.52,11.16,2.99,6.18,8.42,8.58,10.22,20.26,1.8,11.66,6.73,74.08,19.45,79.09,11.11,4.38,84.88-33.51,84.88-33.51Z"/>
        <g>
          <path class="cls-16" d="M2179.61,1764.77c1.66-11.77,1.53-33.51.68-56.43,10.27-.52,18.96-1.17,29.22-1.85-4.27,29.28-7.15,59.44-7.15,59.44l.7,5.79.38,17.15-58.12.43s12.25-5.43,29.38-16.16c1.27-.79,4.19-3.32,4.9-8.37Z"/>
          <path class="cls-6" d="M2205.01,1792.55l-61.28.73c-2.22-.2-2.76-1.99-1.99-3.1,1.58-2.28,8.58-3.95,16.45-7.58,13.8,1.44,42.67-7.99,44.84-11.16,1.26,6.35,3.21,20.84,1.98,21.11Z"/>
        </g>
        <g>
          <path class="cls-16" d="M2283.74,1752.64c-4.8-10.88-16.36-29.28-29.16-48.32,8.45-5.85,16.83-11.82,25.19-17.8,11.8,27.14,23.92,55.11,23.92,55.11l3.65,4.55,9.36,14.38-49.16,31s7.55-11.07,16.45-29.22c.66-1.34,1.8-5.03-.25-9.69Z"/>
          <path class="cls-6" d="M2319.25,1764.15l-50.98,31.62c-1.99,1-3.4-.24-3.32-1.58.15-2.77,5.21-7.88,9.99-15.11,12.48-6.05,31.93-29.42,32.11-33.26,4.41,4.73,13.12,17.46,12.21,18.34Z"/>
        </g>
        <path class="cls-1" d="M2259.83,1273.99c4.54-22.16-9.71-44.13-29.7-52.38.13-12.61-3.95-28.58-12.56-37.22-16.99-17.03-49.4-23-61.89-1.29-16.5,9.33-29.48,29.55-24.56,47.96-15.99,16.56-9.92,46.52,13.4,60.67-.37,18.58,9.45,37.05,25.7,44.99,3.9,1.91,10,4.56,10.77,5.39-1.02-.96,12.04,35.38,52.58,18.75,41.37-16.97,53.21-64.75,26.25-86.88Z"/>
        <path class="cls-1" d="M2178.54,1748.14c5.03-27.92-12.45-97.13-23.11-127.56-11.09-31.65-18.14-165.59-18.14-165.59l12.57-14.7,51.32-3.07s-21.83,67.08-21.83,90.13,10.62,82.55,23.1,113.51c11.51,28.56,6.73,88.45,3.24,108.14-9.28,1.5-18.08.96-27.14-.87Z"/>
        <path class="cls-2" d="M2214.14,1443.45c2.35,2.35,16.14,18.68,16.14,30.1s-25.99,114.16-19.75,120.39c6.24,6.23,29.31,21.82,44.04,43.54,12.4,18.3,40.86,71.21,46.29,83.8-10.72,7.46-20.03,10.86-30.77,14.46-1.72-9.37-85.76-102.01-95.36-121.38-9.6-19.37-14.8-107.93-19.65-119.7-4.85-11.76-17.79-41.64-17.79-41.64l76.86-9.56Z"/>
        <path class="cls-16" d="M2139.28,1367.73s-31.68,36.16-66.74,49.76c-5.48,2.13-10.19,6.29-10.19,6.29,0,3.69,6.58,1.02,6.58,1.02,0,0-2.2,3.59-1.05,7.97,1.15,4.38,8.8,1.47,12.96,1.47,1.9,0,11.68-10.94,24.88-17.37,15.62-7.61,34.05-15.06,36.31-17.3,4.16-4.15-1.51-33.16-2.74-31.83Z"/>
        <path class="cls-6" d="M2203.72,1265.98s-31.88-3.23-48.52,7.38c-16.64,10.61-27.26,48.43-27.26,64.58s11.99,101.02,7.38,117.16c0,0,52.69-2.31,70.71-2.31s21.72-6.92,21.72-6.92c0,0-37.43-36.9-37.43-53.04s13.4-126.85,13.4-126.85Z"/>
        <g>
          <path class="cls-2" d="M1768.35,1700.84v55.3h5.98v-50.27h39.64v17.26c-15.32,1.64-27.3,15.8-27.3,33.02,0,18.32,13.56,33.18,30.29,33.18s30.29-14.85,30.29-33.18c0-17.22-11.97-31.37-27.3-33.02v-17.26h8.23v-6.55h-8.23v-19.91h8.23v-6.55h-8.23v-22.15h108.44v-9.83h-59.92v-56.3c0-15.04,13.83-31.86,32.33-31.86h51.52v-9.83h-51.52c-22,0-41.3,19.48-41.3,41.69v56.3h-39.55v-31.58h-5.98v63.56h-20.07c-14.09,0-25.55,12.56-25.55,27.99ZM1813.98,1699.31h-39.59c.72-11.11,9.2-19.91,19.52-19.91h20.07v19.91Z"/>
          <path class="cls-14" d="M1791.84,1709.52s1.21,21.32,1.21,21.37c.44,2.71,2.19,9.39,2.19,11.86,0,9.24-41.14-7.85-31.92-11.95.83-.37,5.58-5.49,6.78-8.42,2.12-5.21,3.05-15.42,3.05-15.42l18.68,2.55Z"/>
          <path class="cls-17" d="M1763.43,1730.71s9.66,2.83,14.6,3.53c4.95.71,11.47-5.24,14.97-3.64,3.85,1.77,4.07,18.03,4.07,18.03,0,0-51.7,1.72-66.73-.48-6-.88,13.34-10.86,33.08-17.44Z"/>
          <path class="cls-2" d="M1997.77,1663.98h11.36v-216.49c0-7.3,7.15-13.25,15.94-13.25h102.22c2.73,0,4.94-2.11,4.94-4.72h0c0-2.61-2.21-4.72-4.94-4.72h-102.22c-15.06,0-27.3,10.18-27.3,22.69v216.49Z"/>
          <g>
            <ellipse class="cls-2" cx="1944.5" cy="1687.75" rx="68.57" ry="69.19"/>
            <path class="cls-2" d="M1860.99,1687.75c0,46.53,37.38,84.25,83.5,84.25s83.5-37.72,83.5-84.25-37.39-84.25-83.5-84.25-83.5,37.72-83.5,84.25ZM1868.91,1687.75c0-42.12,33.84-76.27,75.59-76.27s75.59,34.15,75.59,76.27-33.84,76.27-75.59,76.27-75.59-34.15-75.59-76.27Z"/>
          </g>
          <rect class="cls-2" x="1999.32" y="1461.77" width="33.55" height="129.98" transform="translate(4032.19 3053.53) rotate(180)"/>
          <path class="cls-15" d="M1889.26,1672.85h-28.38c-15.3,0-27.74,12.56-27.74,27.99v55.3h6.5v-55.3c0-11.82,9.53-21.44,21.25-21.44h28.38v-6.55Z"/>
          <rect class="cls-2" x="1789.29" y="1600.12" width="88.23" height="15.14" transform="translate(3666.82 3215.37) rotate(180)"/>
          <rect class="cls-15" x="1836.39" y="1699.31" width="52.4" height="6.55"/>
          <rect class="cls-15" x="1885.91" y="1640.87" width="120.98" height="9.83"/>
          <rect class="cls-2" x="1875.36" y="1599.89" width="157.51" height="15.37" transform="translate(3908.23 3215.14) rotate(180)"/>
          <path class="cls-15" d="M2028,1675.56h9.74v-216.49c0-7.3,6.13-13.25,13.67-13.25h91.88v-9.44h-91.88c-12.91,0-23.41,10.18-23.41,22.69v216.49Z"/>
          <path class="cls-2" d="M1849.35,1756.14c0,18.32,16.37,33.18,36.56,33.18s36.56-14.85,36.56-33.18-16.37-33.18-36.56-33.18-36.56,14.85-36.56,33.18Z"/>
          <path class="cls-15" d="M1863.65,1756.14c0,11.16,9.97,20.2,22.26,20.2s22.26-9.05,22.26-20.2-9.97-20.2-22.26-20.2-22.26,9.04-22.26,20.2Z"/>
          <path class="cls-9" d="M1796.75,1542.88c10.57-10.57,157.92-5.48,157.92-5.48,0,0-124.83,30.46-132.12,34.43-7.29,3.98-34.41,138.04-34.45,139.79-7.53-1.79-12.09-.44-19.75-2.01,1.23-23.3,11.36-149.71,28.4-166.74Z"/>
          <path class="cls-16" d="M1811.11,1710.17s1.21,21.32,1.21,21.37c.44,2.71,2.19,9.39,2.19,11.86,0,9.25-41.14-7.85-31.92-11.94.83-.37,6.5-5.27,6.78-8.42.42-4.85.2-12.56.2-12.56l21.54-.3Z"/>
          <path class="cls-8" d="M1782.7,1731.36s9.66,2.83,14.6,3.53c4.95.71,11.47-5.25,14.97-3.64,3.85,1.77,4.07,18.02,4.07,18.02,0,0-51.7,1.72-66.73-.48-6-.88,13.34-10.86,33.08-17.44Z"/>
          <path class="cls-6" d="M1977.64,1567.66s-1.27,33.45-12.4,33.85c-11.13.4-82.58,2-122.81-1.62l-27.07,119.66-31.79-3.06s9.58-79.92,12.98-110.31c3.35-29.9,13.01-54.99,29.91-55.6,16.91-.61,128.05-17.8,128.05-17.8l23.14,34.89Z"/>
          <path class="cls-7" d="M2007.61,1411.51s18.04,4.58,15.59,39.81c-2.45,35.23-21.93,141.82-57.96,150.19-36.03,8.37-59.5-67.51-59.5-67.51,0,0,22.73-7.47,32.2-42.74,6.56-24.43,24.14-79.57,28.54-82.22,10.93-6.59,41.13,2.47,41.13,2.47Z"/>
          <path class="cls-15" d="M1932.1,1648.44h9.74v-63.87c0-15.04,15.01-31.86,35.09-31.86h55.93v-9.83h-55.93c-23.88,0-44.84,19.48-44.84,41.69v63.87Z"/>
          <ellipse class="cls-15" cx="2032.87" cy="1696.88" rx="78.76" ry="79.46"/>
          <path class="cls-15" d="M1936.97,1696.88c0,53.44,42.94,96.76,95.9,96.76s95.9-43.32,95.9-96.76-42.94-96.76-95.9-96.76-95.9,43.32-95.9,96.76ZM1946.06,1696.88c0-48.38,38.87-87.59,86.81-87.59s86.81,39.22,86.81,87.59-38.87,87.59-86.81,87.59-86.81-39.22-86.81-87.59Z"/>
          <ellipse class="cls-2" cx="2032.87" cy="1696.88" rx="64.95" ry="65.53"/>
          <path class="cls-2" d="M2018.25,1696.88c0,8.14,6.54,14.75,14.61,14.75s14.61-6.6,14.61-14.75-6.54-14.75-14.61-14.75-14.61,6.6-14.61,14.75Z"/>
          <rect class="cls-2" x="1743.18" y="1749.04" width="99.16" height="17.18" transform="translate(3585.51 3515.25) rotate(180)"/>
          <rect class="cls-2" x="1786.05" y="1749.04" width="56.29" height="17.18" transform="translate(3628.38 3515.25) rotate(180)"/>
          <rect class="cls-15" x="1882.66" y="1615.07" width="6.5" height="151.14"/>
          <path class="cls-2" d="M1882.06,1758.07c0,2.23,1.79,4.05,4.01,4.05s4.01-1.81,4.01-4.05-1.79-4.04-4.01-4.04-4.01,1.81-4.01,4.04Z"/>
          <g>
            <path class="cls-1" d="M1996.72,1317.19s12.64-8.54,17.98,6.42c-.04-.12,4.46-.07,5.07.13,2.6.88,5.11,3.58,7.43,5.07,8.25,5.28,12.06,15.55,12.5,24.97.54,11.44-4.18,19.8-11.7,28.06-2.22,2.44-4.58,4.81-7.49,6.37-3.5,1.88-6.27.39-9.56,1.18-2.77.67-3.75,3.6-7.01,2.54-4.58-1.48-9.39-7.22-15.07-6.37-5.67.85-18.77-4.26-18.81-4.27-16.83-6.56-5.47-39.13-2.24-50.69,3.03-10.87,18.49-17.35,28.9-13.41Z"/>
            <path class="cls-16" d="M1981.52,1391.19l-4.37,11.93-2.36,6.67s-.16,11.93,2.62,15.02c4.79,5.32,24.48-14.4,24.48-14.4l6.24-37.52-26.61,18.3Z"/>
            <path class="cls-14" d="M2006.1,1385.05c-7.49,11.61-20.39,16.92-29,18.18l4.41-12.04,26.61-18.3-2.02,12.16Z"/>
            <path class="cls-16" d="M2003.01,1334.36c-10.03-6.13-23.19-1.48-27.31,9.34-1.79,4.7-3.8,10.67-5.39,17.33-3.84,16.01,1.02,33.5,8.33,35.11,7.3,1.61,29.78-4.34,35.55-27.01,3.56-13.99-.65-28.35-11.17-34.78Z"/>
            <path class="cls-16" d="M2008.4,1369.76c-.78,3.55.93,6.94,3.83,7.58,2.9.64,5.89-1.71,6.67-5.26.78-3.55-.93-6.94-3.83-7.58-2.9-.64-5.89,1.72-6.67,5.26Z"/>
            <path class="cls-1" d="M1985.85,1376.4s9.62,3.14,10.41,6.68c.79,3.53-.39,8.64-5.11,12.57-4.71,3.93-14.79,1.5-17.54-.66-2.75-2.16-4.84-11.32-2.09-16.43,2.75-5.11,14.34-2.16,14.34-2.16Z"/>
            <path class="cls-16" d="M1988.99,1383.8s-.06,3.94-1.37,4.65c-1.28.69-2.89,1.26-4.39,1.41-2.42.23-4.61-.8-5.88-2.67-.13-.18-.24-.37-.34-.57-.98-1.96-1.18-5.43-1.18-5.43,0,0,4.06-.98,6.42-.59,2.36.39,6.74,3.21,6.74,3.21Z"/>
          </g>
        </g>
        <path class="cls-16" d="M2093.05,1429.73c3.81-3.81,21.49-9.69,34.89-19.37,5.93-4.28,17.32-9.92,28.4-16.05,8.1,4.49,15.42,10.12,20.89,16.86-20.06,9.22-41.83,18.49-45.14,21.8-6.24,6.23-17.1,20.3-19.64,20.3s-21.83-5.65-24.72-8.53c-2.89-2.88,1.5-11.19,5.31-14.99Z"/>
        <path class="cls-9" d="M2156.34,1394.3c13.98-7.73,27.48-16.25,28.89-23.85,2.54-13.61-9.01-72.42-2.54-83.72,6.47-11.3,21.03-20.76,21.03-20.76,2.31,0,10.63,5.07,12.94,15.22,2.31,10.15-1.85,101.48-4.16,109.78-1.08,3.9-16.9,19.42-34.66,27.58-5.47-6.74-13.4-19.77-21.5-24.26Z"/>
        <path class="cls-16" d="M2012.3,1517.47l-55.75,14.61s-16.39,11.82-23.76,14.17c-7.37,2.34-16.38,10.47-14.61,12.96,1.77,2.49,11.03-5.97,12.53-5.72,1.5.26-5.44,10.28-6.57,16.85-1.13,6.57-3.38,12.95.38,12.43,3.77-.52,6.5-15.31,6.5-15.31,0,0,5.79-11.18,6.73-9.86.93,1.32-3.87,9-3.87,9,0,0-1.14,8.3-1.64,11.22-.37,2.18,1.63,8.72,3.34,6.31,1.01-1.41.53-6.81,1.7-9.89,2.39-6.32,6.3-11.33,6.3-11.33,0,0-4.19,18.92-1.56,19.38,2.63.45,5.36-15.23,5.36-15.23,0,0,6.43-13.06,9.24-14.22,2.81-1.16,10.53-6.14,16.5-8.21,5.97-2.07,30.65,4.75,41.65,4.9,11.01.15,28.87-6.67,30.36-15.3.45-2.64-1.19-5.55-3.7-8.33-7.28-8.07-18.61-11.18-29.13-8.42Z"/>
        <path class="cls-10" d="M2007.61,1411.51s16.87-3,32.13,24.46c15.27,27.47,5.38,98.25,5.38,98.25l-32.83-16.75-4.69-105.96Z"/>
        <path class="cls-16" d="M2082.72,1435.22c-1.98,0-12.37.65-14-.98-1.63-1.63,5.37-5.8,6.08-5.09.71.71,3.68-.85,4.66.14.99.99,3.96-.14,4.81.7.85.84.42,5.22-1.55,5.22Z"/>
        <path class="cls-16" d="M2187.16,1237.52s-3.55,19.52-2.84,27.22c.71,7.7-2.71,32.51-18.04,32.59-15.33.08-4.91-25.76-3.47-33.31,1.44-7.54,3.79-36.69,3.79-36.69l20.56,10.18Z"/>
        <path class="cls-14" d="M2165.65,1238.39c.24-6.39,1.39-11.47,1.39-11.47l20.12,10.6s-.73,3.99-1.45,9.08c-9,1.92-16.15-2.29-20.05-8.21Z"/>
        <path class="cls-16" d="M2187.6,1180.82s8.64,3.08,13.34,12.47c4.7,9.39,6.25,35.69-12.7,45.79-18.95,10.1-31.45-8.53-30.28-25.22,1.18-16.69,6.43-38.57,29.64-33.04Z"/>
        <path class="cls-16" d="M2152.33,1209.21c-.5,4.33,1.03,8.02,3.42,8.25,2.39.23,4.73-3.1,5.23-7.43.5-4.33-1.03-8.02-3.42-8.25-2.39-.23-4.73,3.1-5.23,7.43Z"/>
        <path class="cls-16" d="M2199.27,1216.49c-1.67,4.19-.84,8.59,1.85,9.82,2.69,1.23,6.22-1.16,7.89-5.35,1.67-4.19.84-8.59-1.85-9.82-2.69-1.23-6.22,1.16-7.89,5.35Z"/>
      </g>
      <g>
        <polygon class="cls-17" points="3058.73 526.05 3095.72 576.82 3120.21 550.03 3058.73 526.05"/>
        <polygon class="cls-8" points="3123.53 536 3120.21 550.03 3058.73 526.05 3123.53 536"/>
        <polygon class="cls-8" points="3120.21 555.39 3058.73 526.05 3115.87 576.82 3120.21 555.39"/>
        <path class="cls-15" d="M3157.55,616.23c-.45-.04-11.26-1.16-24.95-9.68-13.75-8.56-18.9-23.5-18.9-25.9,0-.92.74-1.66,1.66-1.66s1.64.73,1.66,1.63c.15,1.6,4.54,15.15,17.33,23.12,12.98,8.08,23.41,9.19,23.52,9.2.91.09,1.58.9,1.49,1.81-.09.91-.9,1.58-1.81,1.49ZM3117.02,580.63v.02-.02Z"/>
        <path class="cls-15" d="M3224.75,631.25c-19.17-3.84-37.5-10.92-54.49-21.03-14-8.33-25.28-21.03-39.56-28.08-.82-.41-1.16-1.4-.75-2.22.41-.82,1.4-1.16,2.22-.75,14.78,7.3,25.97,19.98,39.79,28.2,16.67,9.92,34.65,16.86,53.45,20.63,6.91,1.38,15.09,1.89,24.33,1.51.92-.04,1.69.67,1.73,1.59.04.91-.67,1.69-1.59,1.73-8.2.34-17.04.05-25.12-1.57Z"/>
      </g>
      <g>
        <path class="cls-16" d="M2485.42,1152.27s-40.69-72.62-50.59-88.06c-9.9-15.44-35.69-76.78-36.61-79.2-.92-2.42,17.76-31.45,13.59-32.44-4.17-.99-8.78,15.31-13.23,13.36-4.45-1.95-17.44-41.19-19.98-39.24-4.74,3.64,7.01,24.34,4.48,25.64-2.53,1.3-10.19-22.77-15.15-22.06-4.97.71,9.44,22.07,8.06,23.95-1.39,1.89-16.35-18.24-19.05-13.95-1.47,2.33,13.75,17.57,10.83,18.99-2.92,1.43-16.47-8.41-17.9-5.57-1.43,2.84,12.52,6.72,16.7,14.37,4.17,7.65,11.28,10.95,14.23,25.11,2.95,14.16,7.36,65.4,22.49,90.97,15.12,25.56,48.38,82.15,48.38,82.15l33.77-14.03Z"/>
        <path class="cls-14" d="M2665.76,1502.71s-3.31-4.13-4.31-5.59c-1.17-1.71-4.26-7.1-4.26-7.1,0,0-9.91-19.29-8.42-19.91,1.49-.62,5.03,1.74,6.06,2.72,1.03.97,2.33,2.02,3.36,3,1.03.97,2.6,1.02,3.91-.18,1.3-1.19-1.95-5.98-3.41-7.4-4.54-4.45-19.05-13.91-20.55-14.98-1.77-1.26-12.79-37.89-17.57-50.13,0,0,0,0,0,0-7.22-20.28-13.62-41.49-14.38-43.64l-4.55-92.08-34.4-11.46s3.61,102.26,4.37,107.36c.36,2.42,20.73,48.13,20.75,48.13,11.45,21.88,21.59,41.12,23.44,44.87,0,0,2.5,12.71,3.61,20.89,1.11,8.18,5.42,15.27,6.09,17.52.1.33,1.97,8.21,7.65,16.36,4.89,7.03,3.48-1.93,3.48-1.93,0,0-6.72-14.69-5.47-15.04.96-.27,4.16,7.98,9.49,15.82,1.37,2.02,2.73,4,3.99,5.81,3.32,4.75,7.2,4.03,4.52-1.52-.94-1.96-2.59-5.17-4.1-7.29-1.62-2.29-2.37-4.93-3.44-7.06-2.12-4.24-3.72-7.31-3.5-7.3.29,0,.46-1.14,1.98.95,1.83,2.52,4.53,8.74,7.51,12.23,1.69,1.98,4.96,6.33,4.96,6.33,0,0,6.08,6.46,6.54,6.2,2.45-1.39-.58-7.28-3.22-9.66-.9-2.39-4.48-6.87-4.48-6.87,0,0-5.2-10.71-3.69-11.49,1.24-.64,18.63,22.54,20.99,20.97,1.93-1.28-2.99-8.5-2.99-8.5Z"/>
        <path class="cls-1" d="M2604.23,1143.98c.83-20.09-2.12-39.92-11.11-58.62-7.73-16.09-26.86-25.22-44.31-25.24-55.4-.07-62.44,73.12-97.71,101.36-10.77,8.63-22.82,15.65-33.02,24.96-37.65,34.35-20.69,97.95,13.88,128.07,23.99,20.9,61.7,32.78,91.26,16.44,15.43-8.53,27.15-22.7,35.5-38.24,11.85-22.05,19.48-47.48,27.91-70.98,8.97-25.01,16.48-51.04,17.59-77.74Z"/>
        <path class="cls-16" d="M2431.06,1790.63s-3.9,27.02-10.62,35.74c-2.25,2.93-6.37,6.63-9.07,11.92-4.21,8.23-1.88,20.49,1.22,27.24,1.59,3.47-.11,3.46,3.52,4.57,10.74,3.31,22.17-2.26,26.74-12.53,2.56-5.73,4.8-13.38,5.25-23.02,1.15-24.53,8.79-37,8.79-37l-25.82-6.91Z"/>
        <path class="cls-16" d="M2548.53,1802.99s2.41,30.47.45,40.37c-1.05,5.3-6.88,16.22-4.2,21.21,2.68,4.99,5.73,6.24,5.73,6.24l69.34,1.11c3.78.06,1.28-2.36-1.76-4.6-4.98-3.66-9.01-6.08-24.93-13.76-1.04-.5-4.82-2.9-6.18-3.73-3.46-2.11-6.93-5.42-9.92-8.74-4.98-5.53-5.41-32.36-5.41-32.36l-23.11-5.72Z"/>
        <path class="cls-1" d="M2602.72,1398.02s8.73,49.47,3,81.89c-5.73,32.43-33.25,333.02-33.25,333.02l-30.58,1.72s-6.41-125.56-5.26-143.02c1.15-17.46,10.22-46.68,10.22-46.68l-3.04-101.38,38.59-133.18,20.33,7.63Z"/>
        <path class="cls-2" d="M2512.85,1387.62s-24.08,36.17-29.81,66.1c-5.73,29.94,4.21,121.93-6.82,161.16-5.97,21.23-28.6,54.03-32.04,81.47-3.44,27.44-16.93,99.32-16.93,99.32l30.57,6.05,71.04-179.51,55.72-162.25,14.27-83.56-86,11.23Z"/>
        <path class="cls-7" d="M2532.34,1181.82s-31.88-2.03-44.49,11.69c-12.61,13.72,27.98,122.25,30.27,139.71,2.29,17.46-11.69,63.89-11.69,63.89,0,0,74.89,15.04,96.3.9,0,0,2.29-125.56,0-138.04-2.29-12.47-21.4-63.2-25.99-68.19-4.59-4.99-44.4-9.98-44.4-9.98Z"/>
        <path class="cls-16" d="M2542.95,1139.3s-.16.94-.46,2.53c-1.42,7.65-6.9,33.03-10.59,40-4.47,8.43,15.3,35.32,34.32,32.04,5.67-.98-4.79-24.71-4.28-27.22.96-4.81,2.27-11.38,3.6-18.1.75-3.8,1.52-7.65,2.23-11.27,2.03-10.28,3.7-18.69,3.7-18.69l-28.51.71Z"/>
        <path class="cls-14" d="M2542.49,1141.83c.3-1.59.46-2.53.46-2.53l28.51-.71s-1.66,8.41-3.7,18.69c-.71,3.6-1.47,7.43-2.22,11.2-4.4-.65-9-2.78-13.61-6.81-5.03-4.39-8.32-9.67-10.31-15.3.35-1.8.64-3.35.86-4.54Z"/>
        <path class="cls-16" d="M2562.14,1074.63s-13.44-1.55-21.86,9.32c-8.42,10.87-17.5,44.5,3.42,62.78,20.92,18.28,41.6-2.41,44.67-24.35,3.07-21.94,4.26-48.54-26.23-47.75Z"/>
        <path class="cls-16" d="M2594.56,1122.05c-2.5,4.85-6.69,7.53-9.37,5.99-2.67-1.54-2.82-6.71-.32-11.55,2.5-4.85,6.69-7.53,9.36-5.99,2.68,1.53,2.82,6.71.32,11.55Z"/>
        <path class="cls-1" d="M2563.65,1071.03s-17.95,31.97-30.8,33.45c-12.84,1.48-14.53,18.47-14.53,18.47,0,0,4.59-39.15,17.31-46.7,12.72-7.55,28.02-5.22,28.02-5.22Z"/>
        <path class="cls-6" d="M2444.92,1852.16c-16.66,3.03-27.74-6.69-33.51-13.97-4.23,8.25-6.3,20.56-3.19,27.33,2.74,5.97,10.76,5.8,17.07,6.03,6.67.25,11.84-3.45,15.15-9.25,1.55-2.71,3.14-6.08,4.48-10.14Z"/>
        <path class="cls-6" d="M2586.96,1849.81c-18.34,4.7-31.89,1.5-39.48-1.55-1.96,5.53-4.55,12.47-3.17,16.47,1.69,4.9,4.08,6.01,6.2,6.06,16.75.44,61.36,1.04,74.13,1.2,1.78.02,2.77-2.06,1.62-3.42-3.17-3.78-37.93-17.93-39.3-18.77Z"/>
        <path class="cls-16" d="M2536.22,1112.52c1.04,5.68-1.06,10.89-4.69,11.63-3.64.75-7.43-3.25-8.47-8.93-1.04-5.68,1.06-10.89,4.69-11.63,3.63-.75,7.43,3.25,8.47,8.93Z"/>
        <path class="cls-7" d="M2474.16,1128.73s45.01,48.3,51.7,67.76c6.69,19.47-6.52,47.31-24.77,48.53-18.25,1.22-58.86-85.73-58.86-85.73l31.93-30.57Z"/>
      </g>
      <g>
        <path class="cls-8" d="M2525.27,518.11l-50.83,11.07c-12.19,2.65-24.23-5.08-26.88-17.27l-4.74-21.75c-2.65-12.19,5.08-24.23,17.27-26.88l50.82-11.07c12.19-2.65,24.23,5.08,26.88,17.27l4.74,21.75c2.66,12.19-5.08,24.22-17.27,26.88Z"/>
        <polygon class="cls-8" points="2448.03 500.08 2426.26 535.27 2459.67 520.89 2448.03 500.08"/>
        <path class="cls-5" d="M2472.63,490.27l8.47-2.07s8.92-10.43,8.6-13.33c-.31-2.9-3.42-8.5-1.92-9.62,1.49-1.13,4.88-2.52,7.95.73,2.23,2.35,3.13,12.59,4.27,13.03.72.28,5.62-.78,9.2-1.61,2.35-.54,4.8.26,6.37,2.09h0c1.06,1.24,1.11,3.05.12,4.35l-1.54,2.01,1.94,1.65c1.45,1.23,1.63,3.39.41,4.84l-1.24,1.48,1.29.94c1.66,1.21,1.91,3.59.52,5.11l-1.12,1.23.28.32c1.18,1.34,1.13,3.37-.1,4.66l-1.14,1.19-22.57,5.51c-2.11.52-4.31.6-6.46.23l-8.26.63c-.89.07-1.69-.53-1.89-1.39l-4.53-19.83c-.22-.96.37-1.91,1.33-2.15Z"/>
      </g>
      <g>
        <path class="cls-7" d="M2684.38,260.46c45.53,8.48,78.22,38.03,73.01,65.99-2.6,13.98-14.19,24.93-30.81,31.31l10.8,44.68-32.92-39.3c-12.02,1.5-25.28,1.14-38.94-1.4-45.53-8.48-78.22-38.03-73.01-65.99,5.21-27.97,46.34-43.77,91.87-35.29Z"/>
        <g>
          <path class="cls-8" d="M2705.23,321.92c-6.99,14.55-24.45,20.68-38.99,13.69-14.55-6.99-20.67-24.45-13.69-39,6.99-14.55,24.45-20.68,38.99-13.69,14.55,6.99,20.68,24.45,13.69,39Z"/>
          <path class="cls-12" d="M2662.81,306.67c-3.74,7.78-.46,17.12,7.32,20.85,7.78,3.74,17.11.46,20.85-7.32l-28.17-13.53Z"/>
        </g>
      </g>
      <polygon class="cls-7" points="3308.54 1079.96 3298.47 1080.99 3295.04 1064.96 3280.13 1064.64 3275.6 1053.07 3269.74 1055.36 3275.8 1070.84 3289.93 1071.15 3293.5 1087.81 3308.66 1086.28 3308.54 1079.96"/>
      <polygon class="cls-5" points="3226.2 882.94 3202.64 872.62 3197.29 888.89 3189.49 886.32 3197.66 861.48 3221.09 871.74 3227.06 852.49 3248.62 861.47 3257.48 842.54 3264.91 846.02 3252.72 872.07 3232.23 863.53 3226.2 882.94"/>
    </g>
  </g>
</svg>