<?xml version="1.0" encoding="UTF-8"?>
<svg id="Layer_1" data-name="Layer 1" xmlns="http://www.w3.org/2000/svg" viewBox="0 0 1000 1000">
  <defs>
    <style>
      .cls-1 {
        fill: #fff;
      }

      .cls-2 {
        fill: #43c4db;
      }

      .cls-3 {
        fill: #ff940a;
      }

      .cls-4 {
        fill: #fbb370;
      }

      .cls-5 {
        fill: #111445;
      }

      .cls-6 {
        fill: #070a3d;
      }

      .cls-7 {
        fill: #fed770;
      }

      .cls-8 {
        fill: #fa9265;
      }

      .cls-9 {
        fill: #c885b6;
      }

      .cls-10 {
        fill: #3f59a6;
      }

      .cls-11 {
        fill: #d37d58;
      }
    </style>
  </defs>
  <path class="cls-9" d="M952.73,785.14c.03,3.76-.18,7.61-1.7,11.11-.8,1.86-2.07,3.69-3.61,5.1-.9.82-1.91,1.51-2.97,1.97-1.66.13-3.31.26-4.96.38-60.86,4.67-121.72,9.12-182.61,13.43-8.51.6-17.04,1.2-25.55,1.8-13.37.94-26.73,1.86-40.09,2.79-96.63,6.71-193.3,13.06-289.98,19.06-48.03,2.97-96.06,5.9-144.11,8.67-24.02,1.39-48.03,2.75-72.06,4.11-12.16.69-24.33,1.37-36.5,2.05-8.58.48-17.73,1.53-26.06-1.16-19.01-6.13-16.59-30.42-17.6-46.33-1.49-23.73-2.98-47.48-4.47-71.21-3.05-48.41-6.09-96.83-9.13-145.24-5.78-91.94-11.7-183.87-17.3-275.81-.03-.46-.05-.94-.07-1.4,70.33-.7,140.63-1.7,210.95-3.03,218.04-4.12,436.03-11.31,653.87-21.51.06.52.12,1.03.19,1.57.64,5.57,1.07,12.38,1.38,20.65.73,19.01,1.05,38.07,1.55,57.1,1,38.3,1.97,76.6,2.96,114.91,1,38.3,1.98,76.6,3,114.91,1,38.3,2.02,76.6,3.02,114.89.51,19.07,1,38.13,1.5,57.2.14,4.65.32,9.31.36,13.97Z"/>
  <g>
    <path class="cls-2" d="M489.36,421.43c8.38-.33,16.76-.54,25.14-.61,2.32-.02,4.65-.03,6.97-.03,2.28,0,4.77.3,7.01-.18,1.03-.22,1.01-1.83,0-2.07-1.93-.44-4.04-.23-6.01-.24-2.16,0-4.32,0-6.47.01-4.15.03-8.3.09-12.45.18-8.38.19-16.76.51-25.13.98-2.4.13-4.81.3-7.21.47-2.31.16-4.68.26-6.96.74-1.08.23-.76,1.78.25,1.84,4.1.26,8.33-.3,12.42-.51,4.14-.21,8.29-.42,12.44-.59Z"/>
    <path class="cls-11" d="M640.9,414.21c1.48-.09,1.49-2.4,0-2.31-26.17,1.57-52.34,3.15-78.52,4.72-7.39.44-14.81.78-22.18,1.48-1.26.12-1.31,2.03,0,2,13.13-.33,26.27-1.43,39.38-2.21,13.04-.78,26.09-1.56,39.13-2.35,7.4-.44,14.79-.89,22.18-1.33Z"/>
    <path class="cls-2" d="M565.37,428.23c-7.79.35-15.58.64-23.38.86-15.76.45-31.52.63-47.28.55-8.96-.05-17.92-.33-26.88-.23-1.33.02-1.31,1.97,0,2.05,7.95.47,15.93.47,23.89.54,7.8.07,15.6.05,23.39-.02,15.76-.15,31.52-.56,47.27-1.23,8.94-.38,17.92-.68,26.84-1.43,1.47-.12,1.51-2.38,0-2.32-7.96.31-15.9.89-23.86,1.25Z"/>
    <path class="cls-2" d="M512.85,494.61c13.35-.88,26.7-1.72,40.05-2.63,3.65-.25,7.3-.5,10.94-.74,3.81-.26,7.65-.39,11.44-.86,1.17-.14,1.25-1.89,0-1.88-6.62.05-13.29.75-19.9,1.17-6.72.42-13.43.87-20.15,1.31-13.35.87-26.7,1.74-40.05,2.63-7.47.5-14.94.96-22.39,1.67-1.08.1-1.12,1.76,0,1.72,13.36-.47,26.71-1.51,40.05-2.39Z"/>
    <path class="cls-2" d="M513.95,527.47c-1.54-.27-3.17,0-4.73.1-1.58.1-3.16.21-4.73.31-3.24.21-6.48.43-9.72.64-6.47.43-12.98.7-19.43,1.39-1.21.13-1.27,1.96,0,1.93,6.48-.16,12.96-.74,19.43-1.17,3.16-.21,6.31-.42,9.47-.62,1.66-.11,3.32-.22,4.98-.33,1.54-.1,3.25-.02,4.73-.49.8-.25.95-1.6,0-1.77Z"/>
    <path class="cls-2" d="M603.07,522.06c-2.55-.05-5.14.29-7.69.47l-7.69.54c-5.04.35-10.09.7-15.13,1.05-10.17.71-20.34,1.4-30.5,2.13-5.79.42-11.59.75-17.36,1.34-1.17.12-1.22,1.91,0,1.87,10.26-.38,20.51-1.29,30.75-2,10.25-.71,20.5-1.42,30.75-2.13,2.81-.19,5.62-.39,8.43-.58,2.89-.2,5.84-.23,8.7-.69,1.16-.19.83-1.97-.27-1.99Z"/>
    <path class="cls-2" d="M550.86,373.72c29.14-.93,58.28-1.87,87.42-2.8,8.16-.26,16.32-.51,24.48-.8,8.32-.29,16.67-.48,24.98-1.06.96-.07.99-1.51,0-1.52-14.64-.09-29.32.67-43.96,1.14l-43.96,1.42-87.42,2.82c-16.49.53-32.97,1.06-49.45,1.7-1.15.04-1.16,1.83,0,1.8,29.31-.75,58.61-1.77,87.92-2.71Z"/>
    <path class="cls-2" d="M637.97,405.28c16.33-1.12,32.65-2.34,48.96-3.65,1.19-.1,1.2-1.97,0-1.87-28.98,2.34-57.99,4.37-87.01,6.07-29.11,1.71-58.23,3.11-87.37,4.2-16.35.61-32.71,1.11-49.07,1.63-1,.03-1.01,1.58,0,1.56,29.07-.5,58.13-1.61,87.17-2.94,29.13-1.34,58.24-3.02,87.33-5.01Z"/>
    <path class="cls-2" d="M648.72,438.18c16.81-1.82,33.63-3.71,50.34-6.33.78-.12.61-1.49-.19-1.4-15.09,1.72-30.14,3.68-45.23,5.35-15.1,1.67-30.22,3.16-45.35,4.47-30.1,2.6-60.27,4.48-90.46,5.66-17,.66-34,.98-51,1.38-1.03.02-1.03,1.6,0,1.6,30.36,0,60.77-1.32,91.08-3.13,30.33-1.81,60.61-4.35,90.82-7.61Z"/>
    <path class="cls-2" d="M699.93,473.21c-14.95.36-29.89,1.24-44.82,2.03-14.77.78-29.54,1.58-44.31,2.42-29.7,1.69-59.4,3.51-89.09,5.45-8.29.54-16.58,1.1-24.88,1.66-8.45.57-16.95.96-25.37,1.9-1.04.12-1.1,1.71,0,1.67,7.47-.22,14.93-.9,22.38-1.41,7.46-.51,14.92-1.01,22.39-1.5,14.76-.97,29.52-1.92,44.29-2.83,29.69-1.83,59.4-3.53,89.11-5.1,16.76-.89,33.55-1.56,50.3-2.77.97-.07,1-1.56,0-1.53Z"/>
    <path class="cls-2" d="M675.22,509.93c-26.33.72-52.64,2.37-78.94,3.7-26.31,1.33-52.63,2.66-78.94,4.01-14.82.76-29.66,1.34-44.47,2.32-1.19.08-1.21,1.91,0,1.87,13.16-.46,26.32-1.27,39.47-1.92,13.16-.65,26.31-1.3,39.47-1.96,26.31-1.33,52.63-2.62,78.94-3.99,14.82-.77,29.66-1.44,44.47-2.53.95-.07.97-1.52,0-1.49Z"/>
    <path class="cls-2" d="M528.49,381.01c-5.23-.05-10.47-.06-15.7-.02-10.39.07-20.77.3-31.15.69-2.91.11-5.81.24-8.72.39-2.88.14-5.84.14-8.68.68-.96.18-.65,1.54.22,1.61,2.55.2,5.16-.07,7.72-.18,2.57-.11,5.15-.21,7.72-.31,5.23-.21,10.46-.37,15.7-.5,10.3-.24,20.6-.33,30.91-.25,5.89.04,11.81.39,17.7.25,1.33-.03,1.3-1.95,0-2.05-5.2-.39-10.49-.26-15.7-.31Z"/>
    <path class="cls-2" d="M637.09,376.54c-16.87.63-33.74,1.33-50.6,2.15-9.56.46-19.11.94-28.66,1.64-1.14.08-1.17,1.84,0,1.8,16.95-.59,33.89-1.57,50.84-2.3,16.87-.73,33.74-1.3,50.61-1.92,9.56-.36,19.12-.63,28.68-.85,1.37-.03,1.37-2.17,0-2.13-16.96.51-33.92.97-50.87,1.6Z"/>
  </g>
  <path class="cls-2" d="M450.65,382.74c-1.09-5.14-1.37-10.42-.92-15.65.05-.53-.5-1.04-1.01-1.01-4.9.25-9.79.5-14.69.75-.48-.62-1.66-.41-1.75.58-.26,3.1-.18,6.24,0,9.34.09,1.51.19,3.02.37,4.52.14,1.16.36,2.34,1.12,3.27,1.67,2.07,4.52,1.45,6.8,1.07,3.13-.53,6.26-1.09,9.38-1.65.55-.1.8-.74.7-1.23ZM435.2,382.83c-.47-.93-.46-2.13-.55-3.14-.11-1.32-.2-2.65-.26-3.97-.11-2.27-.11-4.54-.13-6.81,4.46-.25,8.92-.5,13.39-.75-.29,4.7.02,9.39.87,14.02-2.43.38-4.87.76-7.3,1.17-1.61.27-5.03,1.44-6.02-.52Z"/>
  <path class="cls-2" d="M436.27,424.04c-1.14-5.18-1.82-10.72-1.32-16.02.02-.27.14-.47.3-.6-.63-.49-.46-1.72.56-1.73,4.64-.09,9.31.08,13.95.12.49.01,1,.44.97.97-.34,5.2-.22,10.42.4,15.59.07.57-.5.92-.97.98-4.31.48-8.62.95-12.94,1.41-.41.04-.86-.34-.95-.72Z"/>
  <path class="cls-2" d="M454.15,458.57c-.58.91-1.65,1.18-2.65,1.3-1.38.15-2.77.23-4.15.33-2.86.21-5.73.42-8.6.63-.6.05-.99-.51-1.03-1.03-.47-5.23-.97-10.47-1.33-15.7-.03-.4.15-.64.4-.78-.1-.6.22-1.31,1-1.35,5.1-.28,10.19-.6,15.28-.91.58-.03,1.02.51,1.04,1.04.1,2.89.21,5.78.31,8.67.05,1.5.11,3.01.16,4.51.04,1.09.2,2.31-.42,3.28Z"/>
  <path class="cls-2" d="M455.62,491.96c-.04-3.19-.08-6.39-.12-9.58-.02-1.25.02-2.71-1.1-3.53-1.1-.8-2.65-.49-3.91-.42-3.67.2-7.37.27-11.03.6-1.02.09-1.27,1.3-.7,1.84-.32.12-.57.39-.53.79.59,5.3,1.3,10.63,2.03,15.91.09.62.81.81,1.31.74,3.22-.44,6.44-.86,9.65-1.34,1.22-.18,2.64-.25,3.57-1.16,1.04-1.01.84-2.54.83-3.85ZM453.44,494.3c-.39.48-1.44.46-1.98.53-3.1.39-6.19.83-9.28,1.27-.69-4.89-1.39-9.8-2.2-14.67-.02-.12-.06-.23-.13-.31,3.37-.09,6.74-.39,10.11-.58.87-.05,1.78-.19,2.65-.13.8.05.8.58.82,1.29.05,1.74.05,3.48.07,5.22.02,1.74.05,3.48.07,5.22,0,.52.23,1.7-.14,2.16Z"/>
  <path class="cls-2" d="M457.09,529.69c.02.44-.34.93-.78,1.02-3.07.67-6.14,1.31-9.23,1.97-1.2.25-2.49.61-3.7.21-1.09-.36-1.79-1.33-2.03-2.42-.28-1.31-.16-2.71-.18-4.03-.01-1.55-.02-3.1-.03-4.65-.01-3.09-.08-6.2.08-9.3.02-.33.18-.55.38-.69.13-.38.45-.68.97-.68,4.29-.05,8.6-.1,12.9-.15.59-.01,1.04.49,1.06,1.07.19,5.88.36,11.77.56,17.65Z"/>
  <path class="cls-2" d="M428.01,731.17c-.55,3.99-1.73,7.55-3.41,10.69-6.42,11.98-20.16,17.82-34.06,17.8-2.81-17.92-18.02-33.11-35.82-36.93-1.19-.26-2.4-.46-3.6-.62,1.34-13.15,10.23-24.62,22.6-29.93,14.67-6.3,33.5-1.21,44.4,10.08,7.32,7.59,11.34,18.48,9.9,28.93Z"/>
  <path class="cls-2" d="M390.53,759.65c-18.56-.02-37.4-10.47-39.44-30.62-.23-2.35-.23-4.66.01-6.93,1.21.16,2.41.36,3.6.62,17.8,3.82,33.01,19.01,35.82,36.93Z"/>
  <path class="cls-1" d="M390.82,769.28c-.88,8.92-4.76,16.83-10.53,23.06-6.73,7.26-16.02,12.24-26.1,13.85-9.8,1.57-19.84-.04-28.56-4.8-8.24-4.51-15.13-11.61-19.17-20.11-4.26-9.02-5.12-19.42-2.73-29.09,5.15-20.77,26.84-32.72,47.38-30.08-.24,2.27-.25,4.58-.01,6.93,2.04,20.16,20.88,30.6,39.44,30.62.49,3.14.6,6.37.28,9.63Z"/>
  <path class="cls-1" d="M777.15,425.75c-12.2-3.54-24.37-7.22-36.61-10.61,9.15-10.9,18.64-21.52,27.93-32.3,2.75-3.19,5.5-6.38,8.25-9.57.58-.67-.14-1.61-.94-1.22-14.32,7-28.65,13.99-42.97,20.99-3.8,1.85-7.6,3.71-11.39,5.56-3.52-12.29-8.41-24.17-14.56-35.39-.4-.73-1.42-.34-1.47.4-.92,14.35-1.84,28.7-2.75,43.04-.26,4.12-.49,8.24-.73,12.36-.05.93,1.38.92,1.45,0,1.01-14.34,1.9-28.69,2.82-43.04.2-3.18.4-6.35.61-9.53,5.63,10.66,10.12,21.87,13.39,33.48.15.52.7.69,1.15.47,14.32-7,28.64-14,42.97-21,2.95-1.44,5.9-2.88,8.85-4.33-8.72,10.12-17.43,20.26-26.13,30.41-2.74,3.2-5.47,6.4-8.27,9.55-.36.41-.22,1.04.32,1.21,11.66,3.58,23.41,6.89,35.12,10.29-13.72,4.16-27.45,8.31-41.18,12.48-1.02.31-.59,1.92.44,1.6,14.57-4.44,29.13-8.91,43.7-13.35.74-.22.75-1.29,0-1.51Z"/>
  <path class="cls-1" d="M431.45,628.3c-.61.03-1.2.08-1.81.11-5.97.37-11.95.75-17.92,1.12-1.11.08-2.2.14-3.3.22-2.8.17-5.59.35-8.39.52-1.02.07-2.04.12-3.04.18-48.62,3.04-97.26,6.08-145.87,9.13-28.94,1.82-57.88,3.64-86.82,5.45-.91.07-1.82.12-2.73.17-8.81.55-17.61,1.11-26.4,1.66-.93.07-1.85.12-2.77.17-2.45.16-4.89.31-7.34.47-.57.03-1.15.08-1.72.11-.03-.48-.05-.95-.09-1.43-.72-11.4-1.44-22.81-2.16-34.2-2.94-46.57-5.87-93.12-8.81-139.69-2.76-43.94-5.56-87.91-8.27-131.85-.03-.46-.07-.91-.09-1.37.53-.04,1.06-.08,1.6-.11,17.61-1.16,35.22-2.24,52.84-3.24,45.93-2.58,91.9-4.55,137.89-5.99,36.73-1.14,73.48-2.06,110.24-2.39.5-.01,1-.01,1.51-.02.02.51.04,1.02.08,1.52,1.03,19.12,2.13,38.25,3.34,57.36,3.14,50.01,6.88,100,11.2,149.93,2.62,30.25,5.59,60.44,8.68,90.64.05.51.11,1.03.15,1.55Z"/>
  <path class="cls-8" d="M392.5,468.26c-6.86-5.2-13.69-10.44-20.53-15.66-1.39-1.07-3.21-2.15-3.99-3.79-.97-2.02.22-4.39,1.05-6.25,1.75-3.94,3.51-7.87,5.25-11.81,1.98-4.46,3.94-8.92,5.91-13.38.31-.7-.49-1.44-1.11-.86-9.43,8.91-18.84,17.82-28.25,26.75-.6.57.3,1.46.9.9,8.62-8.08,17.22-16.18,25.82-24.28-3.23,7.34-6.45,14.68-9.64,22.02-.78,1.8-1.79,3.71-1.63,5.73.14,1.69,1.11,3.01,2.35,4.1,3.27,2.85,6.91,5.36,10.35,8.01,3.47,2.67,6.93,5.34,10.4,8.01-6.5-.97-13-1.93-19.51-2.86-.65-.09-1.35.54-.92,1.2,3.19,4.97,6.39,9.94,9.58,14.91-7.71-4.09-15.41-8.19-23.11-12.3-.85-.45-1.6.84-.75,1.29,8.59,4.59,17.18,9.19,25.76,13.79.66.36,1.52-.38,1.08-1.08-3.4-5.33-6.8-10.66-10.2-15.98,6.87.99,13.74,1.96,20.62,2.91.86.12,1.29-.85.58-1.38Z"/>
  <path class="cls-4" d="M360.15,447.95c4.73,39.31-5.28,84.58-51.77,88.56-41.64,3.57-92.71-28.51-98.16-67.73-5.45-39.22,8.8-82,66.35-86.17,58.78-4.26,78.07,19.63,83.58,65.34Z"/>
  <path class="cls-6" d="M551.57,525.01c-4.68,15.51-20.73,23.19-28.59,36.72-3.91,6.73-5.42,14.44-2.48,21.83,2.54,6.37,7.55,11.96,8.79,18.81,1.36,7.54-4.63,12.35-10.29,15.99-6.49,4.18-12.78,8.48-17.13,15.01-4.3,6.45-6.22,14.95-3.54,22.42,1.32,3.68,3.73,6.69,6.46,9.43,2.72,2.74,5.76,5.27,7.88,8.53,4.02,6.16,4.81,14.13,2.42,21.05-1.2,3.46-3.31,6.95-6.35,9.07-2.87,2.01-6.82,2.53-9.06-.66-.89-1.27-1.47-2.72-.74-4.19.6-1.2-1.06-2.19-1.81-1.06-1.88,2.87-.82,6.44,1.68,8.54,2.95,2.48,6.83,2.39,10.14.64,6.78-3.58,10.1-12.15,10.37-19.43.14-3.8-.51-7.66-1.95-11.18-1.48-3.62-3.76-6.64-6.5-9.41-2.88-2.91-6.14-5.58-8.3-9.11-2.2-3.61-2.89-7.89-2.42-12.06.94-8.48,6.7-15.47,13.32-20.42,5.74-4.3,13.28-7.32,17.01-13.8,3.87-6.72.96-13.82-2.5-19.99-1.8-3.21-3.79-6.37-5.04-9.85-1.38-3.84-1.53-7.85-.46-11.79,4.49-16.49,22.44-24.03,29.34-39.11.8-1.74,1.39-3.54,1.78-5.42.28-1.33-1.64-1.88-2.04-.56Z"/>
  <path class="cls-6" d="M656,682.91c-.26,5.58-1.21,11.18-3.33,16.37-1.89,4.62-4.59,8.82-7.91,12.55-6.74,7.58-15.57,13.07-24.46,17.76-10.73,5.66-21.84,10.57-33.17,14.86-5.72,2.16-11.51,4.14-17.35,5.96-5.82,1.8-11.71,3.51-17.79,4.17-5.82.62-11.66.02-17.13-2.13-5.16-2.03-9.82-5.05-14.27-8.31-8.79-6.45-19.01-13.41-22.55-24.27-1.56-4.81-1.38-9.87.66-14.51,1.72-3.93,4.5-7.29,7.23-10.56,2.75-3.3,5.62-6.6,7.5-10.5,2.05-4.26,2.11-8.87.92-13.38-2.48-9.34-8.81-17.88-7.73-27.93.91-8.34,6.12-15.19,11.19-21.54,5.14-6.42,10.99-13.04,12.81-21.3,1.26-5.72.09-11.58-.89-17.25-.96-5.63-1.68-11.26-.53-16.92,2.19-10.78,9.45-19.44,15.02-28.61,4.95-8.16,9.37-18.77,6.24-28.26-.11-.14-.14-.29-.15-.47-.27-.75-.57-1.51-.94-2.24-.56-1.12,1.09-2.1,1.68-.99.14.27.26.55.39.83.12-.35.15-.47.22-.57.22-.42.72-.55,1.15-.43.24-.1.51-.12.81-.03,5.64,1.48,11.17,3.33,16.61,5.47,11.22,4.42,21.98,9.92,32.71,15.44,9.4,4.85,19.12,9.83,26.51,17.58,7.52,7.9,11.15,18.18,13.15,28.73,2.25,11.86,3.43,23.97,5.02,35.94,1.71,12.9,3.42,25.8,5.14,38.7,1.56,11.82,3.82,23.87,3.25,35.84Z"/>
  <path class="cls-2" d="M780.15,693.8c-2.33,1.4-4.64,2.82-6.95,4.24-6.81,4.21-13.58,8.52-20.28,12.91-29.51,19.36-57.88,40.44-84.93,63.11-.51.42-1.07.4-1.58,0-9.76-7.76-19.31-15.79-28.61-24.1-8.28-7.38-16.36-14.97-24.25-22.76-7.61-7.53-15.27-15.13-22.18-23.29-5.44-6.45-10.38-13.56-13.2-21.55.67-.26,1.34-.51,2.03-.75.28-.11.57-.21.86-.3.93-.35,1.86-.68,2.8-1.01,9.92,6.93,21.53,11.7,33.12,14.88,11.38,3.12,23.07,5.07,34.76,6.55,11.04,1.4,22.16,2.25,33.27,2.56,22.51.63,45.06-.94,67.27-4.67,9.36-1.56,18.66-3.5,27.88-5.82Z"/>
  <path class="cls-1" d="M796.95,683.86c-5.63,3.25-11.25,6.55-16.8,9.93-9.22,2.32-18.52,4.26-27.88,5.82-22.21,3.73-44.76,5.3-67.27,4.67-11.12-.3-22.23-1.16-33.27-2.56-11.69-1.48-23.38-3.43-34.76-6.55-11.59-3.17-23.2-7.94-33.12-14.88,4.95-1.74,9.95-3.37,14.98-4.86,10.92-3.25,22.03-5.94,33.25-8.02.33-.07.66-.13,1-.18,3.48-.64,6.97-1.21,10.47-1.73,24.91-3.71,50.26-4.44,75.28-1.86.25.02.51.05.76.08.64.05,1.28.13,1.92.21,11.17,1.25,22.29,3.17,33.25,5.8,13.68,3.27,26.93,7.69,39.73,13.1.82.35,1.65.69,2.47,1.05Z"/>
  <path class="cls-2" d="M941.84,803.52c-.8.06-1.57.13-2.35.18-.15,0-.31.02-.45.03-31.12,2.38-62.25,4.72-93.37,7-.79.06-1.6.11-2.39.18-11.04.8-22.08,1.61-33.12,2.4-.77.05-1.55.1-2.31.17-38.87,2.81-77.74,5.54-116.61,8.23-42.69,2.96-85.39,5.85-128.09,8.68-.71.05-1.43.09-2.15.14-12.02.8-24.04,1.59-36.06,2.37-.62.04-1.24.09-1.86.12-5.24.34-10.46.68-15.7,1.01-.77.06-1.53.11-2.3.15-13.19.86-26.4,1.7-39.59,2.54-10.57.67-21.13,1.34-31.69,2.01-10.85.68-21.7,1.36-32.54,2.03-3.54.22-7.1.44-10.64.66-.94.06-1.87.11-2.82.18,22.28-34.03,48.83-65.35,79.46-92.14,8.15-7.13,16.6-13.93,25.31-20.36.7-.52,1.41-1.04,2.11-1.54,25.71-18.7,53.72-34.13,83.49-45.24,2.82,7.99,7.76,15.11,13.2,21.55,6.91,8.17,14.58,15.76,22.18,23.3,7.88,7.79,15.97,15.38,24.24,22.76,9.31,8.32,18.86,16.34,28.62,24.1.51.39,1.07.42,1.58,0,27.06-22.67,55.42-43.75,84.94-63.12,14.42-9.46,29.1-18.48,44.03-27.08,29.54,12.82,56.65,30.88,81.14,52.08.53.46,1.05.91,1.58,1.37,3.68,3.22,7.3,6.52,10.87,9.87,18.52,17.47,35.41,36.47,51.3,56.33Z"/>
  <path class="cls-7" d="M465.54,836.38c-.02.12-.04.34-.07.46-10.57.67-21.12,1.24-31.68,1.91-3.01-5.14-2.87-12.09-.99-17.55,1.31-3.82,3.6-7.34,7.02-9.58,1.43-.93,3.2-1.72,5.02-2.1-.48-.12-.97-.23-1.47-.33-.97-.18-.72-1.72.22-1.69,9.48.3,16.4,8.43,19.55,16.67.76,1.98,1.35,4.03,1.81,6.1.44,1.99.8,4.07.57,6.11Z"/>
  <path class="cls-6" d="M563.14,830.41c-.71.05-1.43.09-2.15.14-4.92-5.32-9.74-10.72-14.47-16.2-10.76-12.45-21.06-25.29-30.8-38.54-.57-.78.73-1.51,1.3-.76,5.6,7.43,11.3,14.78,17.18,21.99,9.3,11.42,18.93,22.56,28.94,33.37Z"/>
  <path class="cls-1" d="M718.95,670.59c-.4,3.73-1.19,7.71-1.55,11.44-14.16,3.66-24.37,6.7-38.53,10.35-1.25-1.9-4.6-4.56-5.81-6.48-1.6,2.63-4.86,5.75-6.47,8.39-5.9,1.52-9.77,4.24-15.68,5.74-.62.17-1.22.33-1.84.48-.1-.59-.2-1.17-.28-1.76-1.13-7.15-2.26-14.3-3.38-21.45-.63-3.93-1.25-7.87-1.86-11.8-1.32-8.39-2.64-16.76-3.95-25.15-.12-.74-.22-1.37-.31-1.99,15.81-.59,31.58-1.94,47.25-4.1,8.02-1.1,16.01-2.42,23.95-3.92.17.64.34,1.29.49,1.94,2.63,10.44,5.24,20.9,7.85,31.35.05.2.1.4.15.6.57,2.31-.61,4.05-.03,6.36Z"/>
  <path class="cls-7" d="M710.49,630.34c-7.95,1.51-15.94,2.82-23.96,3.92-15.67,2.16-31.44,3.51-47.25,4.09-1.74-11.15-3.51-22.29-5.26-33.43-.72-4.6-1.44-9.21-2.15-13.81-.25-1.58-.49-3.16-.73-4.74-.44-2.83-.87-5.67-1.3-8.5-.1-.6-.19-1.19-.28-1.79.52-.03,1.06-.07,1.57-.13.33-.02.65-.04.98-.08,4.98-.43,9.97-1,14.93-1.67,6.22-.85,12.42-1.89,18.58-3.1,5.49-1.08,10.95-2.31,16.38-3.68,2.52-.64,5.04-1.31,7.55-2.01,1.19,2.46,2.39,4.91,3.63,7.34,1.76,3.49,3.57,6.93,5.44,10.37l2.6,10.33c3.1,12.29,6.2,24.59,9.27,36.88Z"/>
  <path class="cls-3" d="M677.54,576.23c-3.18,5.62-6.55,11.22-10.69,16.19-6.43,7.73-15.56,14.13-26.03,13.77-2.33-.09-4.63-.5-6.82-1.26-.72-4.6-1.44-9.21-2.15-13.81-.25-1.58-.49-3.16-.73-4.74.63-.07,1.25-.15,1.87-.24,14.78-2.07,29.64-5.66,43.49-11.28.8-.33,1.42.73,1.06,1.37Z"/>
  <path class="cls-1" d="M572.54,522.7c-1.93,1.9-14.01,11.13-16.5,12.43-2.31-6.21-4.02-12.82-5.29-19.63,1.41,0,3.86-.18,8.31-.92,8.75-1.44,15.25-2.67,16.99-.36,1.72,2.3-1.58,6.59-3.51,8.48Z"/>
  <path class="cls-6" d="M875.86,726.34c-4.94,11.67-16.37,18.8-28.54,20.98-13.68,2.45-27.37-1.13-39.63-7.22-12.34-6.13-23.72-14.44-34.27-23.27-20.54-17.22-37.93-37.93-52.83-60.15-15.04-22.42-27.61-46.4-38.84-70.92-6-13.09-12.42-26.69-11.83-41.43.51-12.92,5.72-25.3,13.62-35.43,15.3-19.59,39.51-28.45,63.67-30.34.22-2,.43-4.01.66-6.01.02-2.23-.18-4.46-.55-6.66-.04-.22,0-.39.07-.54-3.11-5.11-4.84-10.82-3.77-17.16.18-1.06,2.03-.81,1.89.26-.7,5.66,1.08,11.08,3.99,15.85.72-.23,1.66.17,1.6,1.08-.02.4-.05.79-.09,1.19.11.16.22.31.34.48,8.03,10.9,21,17.18,28.01,28.96,6.71,11.29,5.86,24.91,8.74,37.32,1.38,5.93,3.72,11.47,7.78,16.07,3.6,4.06,7.95,7.37,12.24,10.65,8.14,6.21,17.12,13.12,18.6,23.98.99,7.29-1.67,14.75.02,21.96,1.09,4.68,4.18,8.34,7.9,11.25,7.48,5.83,16.98,8.95,23.58,15.94,3.41,3.61,5.48,8.09,5.79,13.07.36,5.85-1.47,11.6-3.04,17.16-1.52,5.35-3.25,11.22-1.84,16.79,1.57,6.23,7.09,9.77,11.41,14.03,8.57,8.45,9.92,21.28,5.34,32.12Z"/>
  <path class="cls-6" d="M760.95,490.41c3.47,31.03-31.37,43.12-47.51,63.25-.5.63-1.01,1.25-1.52,1.85-5.32-1.79-10.52-3.91-15.56-6.33-15.05-7.19-28.76-17.07-40.54-28.86-11.93-11.95-21.94-25.77-30-40.6-8.12-14.93-14.41-30.9-18.85-47.3-2.98-10.99-5.12-22.65-4.89-34.18.73-.36,1.47-.69,2.21-1.02,11.75-5.22,24.77-8.13,38.45-8.13,52.37,0,109.43,22.92,118.21,101.31Z"/>
  <path class="cls-6" d="M666.99,394.95c-10.14-4.16-21.23-6-32.14-6.52-10.97-.52-22.03.52-32.72,3.02-10.61,2.48-20.92,6.43-30.43,11.73-3.38,1.89-6.75,3.95-9.97,6.22-3.82,1.91-7.56,3.97-11.18,6.27-5.22,3.32-10.38,7.1-13.89,12.29-1.61,2.4-2.8,5.11-3.2,7.98-.47,3.38.3,6.61,1.19,9.85.69,2.51,1.5,5.36,1.2,8.04-2.34,1.35-4.82,2.53-6.77,4.34-.13.13-.26.25-.38.38-.75.75-1.41,1.55-2,2.43-2.17,4.38-1.61,9.91.68,14.17,2.64,4.94,7.33,8.44,11.93,11.41,4.85,3.12,10.58,5.94,16.52,5.06,5.38-.79,9.43-4.63,12.65-8.76,3.92-5.03,7.48-10.36,11.19-15.55,15.94-22.35,31.86-44.72,47.84-67.05,1.98-2.78,3.97-5.57,5.96-8.35.09-.12.14-.25.18-.37,8.47.28,16.94,1.44,25.27,3.46,2.52.6,5.01,1.3,7.49,1.99,1.36.39,1.81-1.56.58-2.07ZM546.63,423.94c-3,4.27-5.12,9.18-5.61,14.41-.27,2.95.44,5.86.22,8.79-.15,2.05-1.11,3.61-2.59,4.86-.28-5.61-3.55-10.99-2.27-16.69,1.4-6.24,6.58-11.04,11.59-14.61.97-.7,1.96-1.36,2.95-2.02-1.55,1.67-2.99,3.41-4.29,5.26Z"/>
  <path class="cls-7" d="M693.17,572.75c-11.72,8.23-25.79,14.2-42.21,16.86-6.05.96-12.42,1.48-19.1,1.51-3.2.01-6.46-.09-9.8-.31-34.43-2.32-55.67-25.23-66.15-55.59,2.63-1.38,14.71-10.61,16.64-12.5,1.93-1.9,5.23-6.19,3.51-8.48-1.73-2.31-8.23-1.08-16.99.36-4.45.74-6.9.92-8.31.92-.51-2.71-.94-5.46-1.31-8.22-9.63-4.78-19.25-9.57-28.87-14.34-.72-.36-.81-1.37-.2-1.95,4.25-4.01,8.69-7.69,13.12-11.39,5.63-4.7,11.26-9.47,16.39-14.94,6.08-29.41,25.76-53.85,52.2-66.41-.24,11.53,1.91,23.2,4.89,34.18,4.44,16.4,10.74,32.37,18.85,47.3,3.55,6.52,7.48,12.86,11.79,18.93,5.46,7.7,11.54,14.98,18.21,21.67,6.58,6.59,13.76,12.57,21.44,17.83,3.87,9.19,7.92,18.29,12.27,27.26,1.19,2.46,2.39,4.91,3.63,7.34Z"/>
  <path class="cls-6" d="M579.21,459.04c-.11,2.08-.85,4.1-2.16,5.73-1.29,1.6-3.34,2.9-5.47,2.28-.18-.06-.34-.14-.49-.21-1.1-.38-2.02-1.22-2.49-2.48-.76-2.04-.51-4.59.06-6.65.55-2,1.57-4.25,3.36-5.42,1.8-1.17,4.02-.55,5.37.99,1.37,1.56,1.93,3.7,1.82,5.76Z"/>
  <path class="cls-6" d="M594.92,455.24c-2.89-2.96-6.7-4.98-10.8-5.57-2.09-.3-4.18-.25-6.25.14-1.09.21-2.16.52-3.19.92-.95.38-2.13.79-2.78,1.62-.35.45-.2,1.4.54,1.31.93-.11,1.72-.6,2.59-.94.92-.36,1.87-.64,2.83-.85,1.9-.4,3.91-.48,5.83-.2,3.72.53,7.14,2.34,9.76,5.02.93.95,2.39-.51,1.46-1.46Z"/>
  <path class="cls-3" d="M576.62,471.76c-.39-.25-.87-.36-1.32-.46-.44-.1-.89-.18-1.34-.26-.92-.17-1.84-.34-2.77-.44-.4-.04-.76.35-.81.71-.05.4.19.79.59.9.86.24,1.73.4,2.61.58.43.09.86.17,1.29.24.53.09,1.04.16,1.57.06.65-.12.66-1.01.17-1.32Z"/>
  <path class="cls-6" d="M603.26,442.22c-6.95-1.14-14.03-1.32-21.02-.47-3.11.37-6.19.98-9.21,1.76-2.16.55-5.09,1.18-6.33-1.3-1.11-2.22,1.09-3.82,2.8-4.73,2.15-1.15,4.45-2.05,6.81-2.65,9.55-2.47,19.98-.63,27.79,5.43.92.55.35,2.17-.85,1.97Z"/>
  <path class="cls-3" d="M576.11,512.72c-1.24-.76-2.82-.85-4.24-.75-2.11.15-4.23.51-6.33.78-5.2.66-10.58,1.04-15.7,2.19-1,.23-.78,1.82.24,1.79,5.06-.15,10.17-1.07,15.19-1.7,2.34-.29,4.74-.76,7.1-.83,1.66-.04,3.9.43,3.04,2.63-.75,1.93-2.67,3.55-4.08,5-1.59,1.62-3.26,3.17-5.01,4.62-3.42,2.85-7.13,5.32-11.01,7.49-1.26.71-.14,2.61,1.13,1.94,7.11-3.76,13.52-8.89,18.83-14.92,1.94-2.2,4.26-6.13.82-8.24Z"/>
  <path class="cls-5" d="M938.77,289.94c-217.85,10.2-435.83,17.39-653.87,21.51-70.31,1.33-140.63,2.34-210.96,3.03-.26-4.11-.51-8.22-.76-12.33-.01-.14.02-.27.07-.38-.14-1.37-.01-2.78.41-4.23,2.76-9.47,13.13-11.22,21.66-11.54,14.37-.53,28.75-.75,43.13-1.13,28.82-.74,57.64-1.48,86.47-2.23,57.64-1.48,115.29-2.97,172.94-4.45,57.64-1.48,115.29-2.98,172.94-4.46,57.65-1.48,115.29-2.97,172.94-4.46,33.39-.86,66.78-1.78,100.19-2.63,27.66-.7,50.01-.68,73.85-.07,13.06.34,18.51,3.93,21.01,23.37Z"/>
  <path class="cls-7" d="M695.65,510.04c-2.9,5.73-7.55,10.62-14.14,13.01-12.61,4.57-25.24-1.16-29.73-11.15-5.59-12.44-.19-27.58,12.93-35.51,4.75-2.87,10.74-4.75,16.59-3.98,10.12,1.34,15.79,8.12,17.45,15.93,1.36,6.43.45,14.68-3.1,21.69Z"/>
  <path class="cls-3" d="M687.62,482.88c-2.81-1.19-6.17-.59-8.96.37-2.76.95-5.5,2.25-7.93,3.88-4.55,3.05-8.41,8.05-7.87,13.82.48,5.19,4.82,9.85,10.33,9.05,5.08-.73,8.1-6.61,5.2-11-1.81-2.74-6.96-5.87-10.87-5.41,1.29-1.81,3.02-3.35,4.83-4.53,4.23-2.76,9.57-5.23,14.68-4,1.46.35,1.9-1.63.6-2.18ZM675.87,499.66c2.7,3.21.15,7.89-3.94,7.82-4.33-.07-6.78-4.33-6.53-8.27.06-.9.24-1.77.53-2.6,2.87-2.11,7.96.7,9.94,3.04Z"/>
  <path class="cls-3" d="M611,498.53c-.65.16-1.28.62-1.8,1.02-.56.43-1.09.88-1.58,1.38-.5.51-1,1.06-1.25,1.75-.26.72-.1,1.54.42,2.11.29.32.88.32,1.18,0,.33-.36.29-.81,0-1.18.41-.94.5-1.04.59-1.14.19-.21.39-.41.6-.61.2-.19.4-.37.6-.54.11-.09.22-.18.33-.27.65-.49.76-.58.88-.66.26-.18.54-.36.77-.59.53-.55,0-1.44-.74-1.27Z"/>
  <path class="cls-6" d="M808.65,731.45c.12,11.95-6.44,23.23-16.33,29.77-10.82,7.15-25.15,7.82-37.01,2.94-5.85-2.42-11.48-7.49-18.13-7.19-5.93.26-10.83,4.54-16.36,6.22-5.22,1.57-10.46.39-14.49-3.26-3.95-3.58-6.39-8.78-7.62-13.89-1.51-6.28-1.29-12.84-2.47-19.18-.6-3.14-1.5-6.26-3.09-9.06-1.47-2.58-3.47-4.77-5.63-6.77-4.19-3.89-9.05-7.09-12.78-11.45-3.93-4.59-5.88-10.12-6.22-16.12-.69-12.48,4.67-25.2.56-37.48-3.51-10.53-12.11-18.37-17.82-27.66-2.84-4.62-4.96-9.64-5.48-15.06-.64-6.62,1.15-13.17,2.76-19.51,1.65-6.41,3.37-13.17,2-19.81-1.29-6.22-4.94-11.56-8.17-16.9-3.49-5.77-6.14-11.63-7.04-18.36-.96-7.17-.37-14.41.04-21.59.27-4.68.39-9.66-.1-14.53-.12-.57-.18-1.17-.2-1.76-.92-6.84-3.21-13.34-8.28-18.32-.82-.81.4-2,1.25-1.26,4.15,3.69,6.75,8.56,8.21,13.87.04.15.08.3.12.46.62-1.07,1.46-2.04,2.55-2.83,2.13-1.56,4.89-2.22,7.5-1.82,2.99.44,5.41,2.39,7.31,4.65,2.24,2.64,4.2,5.55,6.25,8.32,2.41,3.25,4.81,6.51,7.22,9.76,4.69,6.35,9.38,12.7,14.07,19.05,4.46,6.03,9.19,11.96,13.25,18.29,3.41,5.33,5.59,10.98,7.19,17.07,1.38,5.2,2.49,10.67,5.16,15.41,1.22,2.19,2.81,4.18,4.83,5.68,2.38,1.76,5.19,2.68,7.96,3.57,5.47,1.77,10.74,3.88,13.13,9.53,2.42,5.71,1.73,12.29,2.78,18.3,1.15,6.56,3.33,12.9,6.21,18.9,5.89,12.24,14.39,22.96,23.38,33.06,9.2,10.34,18.93,20.25,27.25,31.33,8.13,10.81,16.08,23.66,16.21,37.64Z"/>
  <path class="cls-6" d="M697.55,571.03c-.34,1.03-1.66,1.48-2.46.65-7.52-7.74-14.02-16.44-19.71-25.58-10.27-16.5-17.93-34.43-25.33-52.34-3.28-7.94-8.69-18.6-1.58-26.13,2.62-2.78,6.61-3.82,10.07-1.96,2.51,1.37,4.27,3.94,4.19,6.66.57,1.8,1,3.68,1.54,5.44.85,2.71,1.72,5.4,2.64,8.08,3.39,9.84,7.41,19.46,12.02,28.79,1.94,3.92,4.01,7.78,6.14,11.59.91,1.35,1.81,2.71,2.7,4.07,1.89,2.93,3.72,6,5.34,9.21.38.66.73,1.34,1.01,2.04,4.34,9.31,6.71,19.46,3.43,29.48Z"/>
  <path class="cls-6" d="M650.62,509.35c-.17,3.61-2.86,7.43-6.74,7.55-3.79.12-5.68-3.35-7-6.34-1.34-3.04-3.08-5.44-5.71-7.51-5.05-3.99-11.45-6.37-15.47-11.58-5.06-6.58-2.36-14.36-2.07-21.86.08-1.99-.05-4-.74-5.89-.72-1.97-2.09-3.58-3.6-5.01-3.03-2.89-6.15-5.43-8.53-8.95-10.21-15.14-6.78-35.8,1.54-50.95.62-1.14,2.6-.34,2.11.89-.55,1.34-1.09,2.69-1.64,4.03,1,2.12,2,4.24,3,6.36,8.92,18.98,17.79,37.99,26.68,56.98,4.43,9.45,8.86,18.91,13.29,28.36,1.98,4.25,5.09,9.06,4.85,13.92Z"/>
  <path class="cls-6" d="M872.25,657.94c1.08-4.17.96-8.62-.17-12.77-1.12-4.08-3.23-7.92-6.15-10.99-3.35-3.52-7.66-5.57-12.23-7.05-4.92-1.59-10.08-2.65-14.5-5.46-4.24-2.7-6.67-6.81-6.67-11.86,0-4.84,1.57-9.53,2.39-14.26.83-4.76.89-9.5-1.03-14.02-3.71-8.71-12.36-13.92-20.07-18.68-7.95-4.9-16.63-10.74-18.33-20.63-.98-5.67.1-11.48-.16-17.19-.22-4.77-1.13-9.52-2.7-14.03-3.16-9.07-8.82-17.31-16.39-23.25-6.71-5.26-15.64-8.57-20.68-15.73-1.18-1.68-2-3.51-2.46-5.5-.29-1.24-2.13-.71-1.89.52,1.7,8.69,9.8,13.53,16.69,17.95,3.96,2.54,7.74,5.21,11.03,8.6,3.41,3.52,6.25,7.56,8.47,11.92,2.21,4.36,3.76,9.05,4.58,13.87.92,5.41.44,10.77.34,16.22-.1,5.41.63,10.74,3.56,15.4,2.47,3.93,5.97,7.05,9.69,9.76,7.65,5.57,16.79,9.41,22.81,16.98,2.99,3.75,4.54,8.17,4.32,12.98-.24,5.03-1.9,9.85-2.61,14.82-.67,4.66-.45,9.55,2.34,13.53,2.75,3.93,7.07,6.29,11.48,7.9,5.11,1.87,10.63,2.75,15.41,5.47,3.81,2.16,6.75,5.53,8.65,9.45,1.89,3.88,2.67,8.32,2.18,12.61-.57,4.98-3.25,9.2-5.94,13.31-2.63,4.01-5.37,8.15-6.03,13.01-.52,3.83.03,8.1,2.49,11.2,1.15,1.46,2.64,2.42,4.4,3.01,1.28.43,2.2-1.66.93-2.21-3.66-1.59-5.2-5.41-5.26-9.21-.07-4.69,2.14-8.68,4.6-12.53,2.67-4.16,5.67-8.27,6.93-13.14Z"/>
  <path class="cls-6" d="M875.29,680.37c-.3-.99-2.02-.86-1.89.26.4,3.47-1.7,7.2-5,8.47-3.39,1.3-6.76-.63-8.4-3.64-.91-1.67-1.24-3.65-.69-5.49.36-1.21-1.45-1.67-1.87-.52-1.52,4.21.58,9.01,4.33,11.27,4.19,2.54,9.33.87,12.1-2.94,1.58-2.18,2.19-4.82,1.42-7.41Z"/>
  <path class="cls-6" d="M695.33,714.35c-3.31-3.94-8.55-4.71-12.99-6.74-8.17-3.72-14.59-11.3-16.64-20.07-1.06-4.52-.72-9.1.79-13.48,1.84-5.35,4.96-10.14,6.87-15.46,1.78-4.95,2.53-10.54.4-15.51-1.68-3.91-4.88-6.77-8.34-9.11-3.62-2.45-7.58-4.39-11.1-7-3.9-2.88-7.01-6.79-9.1-11.16-4.4-9.19-3.57-20.16,1.88-28.72,2.75-4.33,7.37-7.29,9.71-11.87,1.09-2.13,1.67-4.58,1.19-6.95-.47-2.32-2.01-4.09-3.9-5.43-1.91-1.36-4.11-2.26-6.1-3.49-1.98-1.22-3.83-2.65-5.52-4.25-3.48-3.29-6.28-7.24-8.23-11.61-4.09-9.2-3.72-19.87.44-28.98,1.03-2.26,2.24-4.4,3.71-6.4.92-1.26-1.15-2.4-2.07-1.21-5.96,7.72-8.69,17.64-7.5,27.34,1.12,9.1,5.68,17.64,12.54,23.71,1.72,1.52,3.57,2.9,5.54,4.08,1.94,1.17,4.1,2.03,5.91,3.39,4.69,3.53,1.7,8.98-1.49,12.35-3.49,3.69-6.77,7.18-8.88,11.88-1.95,4.33-3.01,9.06-2.97,13.81.07,9.37,4.46,18.65,11.67,24.64,3.36,2.79,7.23,4.81,10.93,7.11,3.38,2.1,6.79,4.54,8.69,8.15,2.55,4.83,1.42,10.53-.44,15.39-1.93,5.05-4.86,9.66-6.58,14.8-2.85,8.49-1.13,17.65,3.86,24.99,2.43,3.58,5.53,6.67,9.12,9.08,1.77,1.18,3.65,2.16,5.62,2.96,2.41.98,4.97,1.64,7.29,2.83,3.96,2.02,6.31,5.83,6.18,10.31-.11,3.96-3.21,9.43-7.88,8.64-2.02-.34-3.87-2.39-3.4-4.5.31-1.41-1.7-1.96-2.16-.59-1.47,4.45,3.05,8.36,7.3,7.79,4.48-.61,7.78-4.74,8.6-9,.79-4.11-.26-8.49-2.96-11.71Z"/>
  <path class="cls-6" d="M637.9,507.99c-5.26-1.99-11.18-.15-16.41-2.27-4.16-1.69-7.5-5.4-8.98-9.61-.74-2.1-1.07-4.31-.86-6.53.25-2.58,1.27-5.06,2.19-7.46,1.78-4.67,3.37-9.67.85-14.4-2.12-3.99-6.31-6.33-9.87-8.84-8.1-5.73-11.7-15.13-11.65-24.85.06-13.06,6.63-24.8,12.29-36.17.61-1.21-1.14-2.26-1.83-1.07-5.86,10.04-11.48,20.76-12.93,32.45-1.16,9.32.78,19.44,6.84,26.82,3.04,3.7,7.18,5.87,10.86,8.81,1.73,1.38,3.4,3,4.22,5.1.95,2.42.59,5-.14,7.43-1.45,4.85-4.09,9.38-3.76,14.6.28,4.48,2.25,8.75,5.31,12.01,1.74,1.84,3.85,3.34,6.18,4.32,2.8,1.19,5.8,1.41,8.81,1.49,3.08.08,6.46-.05,9.22,1.53,2.32,1.32,4.63,3.77,3.94,6.64-.31,1.29,1.49,1.73,1.95.54,1.79-4.65-2.11-8.95-6.23-10.51Z"/>
  <path class="cls-6" d="M507.37,834.05c-.77.05-1.53.11-2.3.15-1.33-11.2-2.67-22.42-4-33.62-1.87-15.74-3.74-31.5-5.6-47.25-.95-8.07-1.95-16.13-2.91-24.2.7-.52,1.41-1.04,2.11-1.54,1.25,10.37,2.43,20.75,3.67,31.12,3.02,25.11,6.02,50.23,9.02,75.34Z"/>
  <path class="cls-6" d="M879.67,737.32c-1.14,2.09-2.25,4.18-3.37,6.28-7.82,14.79-15.06,29.88-21.69,45.24-3.12,7.24-6.11,14.54-8.95,21.9-.79.05-1.59.11-2.39.17,3.73-9.65,7.7-19.21,11.9-28.66,6.79-15.29,14.18-30.29,22.19-44.98.24-.44.49-.89.74-1.33.53.46,1.05.91,1.58,1.38Z"/>
  <path class="cls-6" d="M690.97,389.06c-2.2.09-4.3,1.13-5.75,2.75-.88-2.69-2.61-5.14-5.01-6.6-.96-.59-1.99.38-1.79,1.38.48,2.37.89,4.66,1.82,6.91.92,2.24,2.07,4.39,3.62,6.26.47.57,1.22.22,1.46-.33.27-.01.54-.12.77-.37,1.14-1.25,2.11-2.62,3.11-3.98.98-1.34,1.96-2.67,2.91-4.03.57-.82-.19-2.03-1.14-1.99ZM681.43,389.81c1.08,1.5,1.75,3.25,1.9,5.15-.35-.74-.69-1.5-.97-2.28-.33-.92-.66-1.89-.93-2.88Z"/>
  <g>
    <path class="cls-1" d="M920.68,277.41c-.51-1.61-1.56-3.02-2.99-3.93-1.47-.94-3.32-1.19-5.02-.85-1.97.4-3.53,1.79-4.28,3.64-.12.29-.21.61-.27.93-.09.18-.18.36-.25.54-.56,1.61-.38,3.4.38,4.91,1.56,3.07,5.42,4.38,8.54,3.07,3.19-1.34,4.95-4.99,3.89-8.31Z"/>
    <path class="cls-1" d="M895.06,273.48c-1.47-.94-3.32-1.19-5.02-.85-1.97.4-3.53,1.79-4.28,3.64-.12.29-.21.61-.27.93-.09.18-.18.36-.25.54-.56,1.61-.38,3.4.38,4.91,1.56,3.07,5.42,4.38,8.54,3.07,3.19-1.34,4.95-4.99,3.89-8.31-.51-1.61-1.56-3.02-2.99-3.93Z"/>
  </g>
  <g>
    <path class="cls-1" d="M283.74,452.75c-1.98-1.6-4.84-1.75-6.77.02-1.84,1.7-2.48,5.29-.39,7.06.13.11.28.16.43.17.27.3.56.58.89.81,1.08.74,2.35,1,3.63.71,1.21-.27,2.31-1.06,3.02-2.06.74-1.05,1.17-2.35.97-3.64-.19-1.2-.84-2.3-1.79-3.07Z"/>
    <path class="cls-1" d="M334.03,454.91c2.79-.19,5.61,2.21,5.09,5.44-.31,1.96-1.97,3.62-3.92,3.92-1.95.3-4.03-.78-4.92-2.55-.89-1.77-.52-4.1.88-5.49.84-.84,1.85-1.25,2.87-1.32Z"/>
    <path class="cls-1" d="M324.72,493.28c-4.63-1.06-9.25-2.13-13.88-3.19-2.27-.52-4.54-1.04-6.81-1.57-2.34-.54-4.71-1.23-7.1-1.48-1.28-.14-1.61,1.5-.42,1.93.1.04.2.06.3.1-.02.15,0,.31.04.48,1.82,6.09,6.91,11.36,13.33,12.41,5.96.98,12.25-1.78,15.3-7.03.38-.65-.07-1.49-.77-1.65ZM310.3,499.64c-5.14-1-9.19-5.03-10.95-9.85,1.31.32,2.64.59,3.94.89,2.36.54,4.71,1.09,7.07,1.63,4.08.94,8.16,1.88,12.23,2.82-2.84,3.61-7.77,5.38-12.29,4.51Z"/>
  </g>
  <path class="cls-8" d="M309.88,568.34c-2.82,3.35-6.06,6.38-9.47,9.01-11.68,8.98-26.52,13.51-41.22,11.95-7.47-.79-14.72-2.97-21.39-6.41-3.29-1.71-6.39-3.73-9.3-6.02-.46-.36-.91-.73-1.38-1.11,1.14-.35,2.28-.69,3.41-1.03.36.28.73.55,1.09.82,3.24,2.32,6.72,4.32,10.37,5.95,12.85,5.75,27.6,6.5,40.88,1.78,6.47-2.3,12.54-5.81,17.76-10.26,1.91-1.63,3.67-3.36,5.31-5.2,1.31.15,2.62.33,3.93.52Z"/>
  <path class="cls-10" d="M412.49,629.53c-1.11.08-2.2.14-3.3.22-2.8.17-5.59.35-8.39.52-1.02.07-2.04.12-3.04.18-48.62,3.04-97.26,6.08-145.87,9.13-28.94,1.82-57.88,3.64-86.82,5.45-.91.07-1.82.12-2.73.17-8.81.55-17.61,1.11-26.4,1.66-.93.07-1.85.12-2.77.17,7.93-18.11,22.64-32.8,38.64-44.12,16.74-11.86,35.69-20.98,55.34-27.16.47.38.92.75,1.38,1.11,2.9,2.3,6,4.31,9.3,6.02,6.66,3.45,13.92,5.62,21.39,6.41,14.7,1.56,29.54-2.97,41.22-11.95,3.41-2.63,6.65-5.67,9.47-9.01,2.86.41,5.7.9,8.54,1.46,22.26,4.44,43.61,13.82,61.9,27.28,9.04,6.64,17.36,14.25,24.64,22.78,2.64,3.11,5.17,6.33,7.53,9.66Z"/>
  <path class="cls-4" d="M305.95,567.82c-1.64,1.84-3.4,3.58-5.31,5.2-5.22,4.45-11.29,7.96-17.76,10.26-13.28,4.72-28.03,3.98-40.88-1.78-3.65-1.63-7.13-3.63-10.37-5.95-.37-.27-.74-.54-1.09-.82,3.52-1.04,7.05-1.99,10.61-2.84,21.15-5.07,43.21-6.68,64.8-4.07Z"/>
  <path class="cls-7" d="M505.77,100.84c-.36-8.12-1.39-16.62-5.31-23.87-1.92-3.53-4.57-6.6-7.87-8.92-3.86-2.71-8.47-4.13-13.1-4.79-4.88-.69-9.79-.68-14.7-.67-5.81.01-11.63.07-17.43.15-22.98.33-45.95,1.18-68.89,2.56-22.95,1.38-45.85,3.27-68.7,5.69-10.96,1.16-21.98,2.23-32.87,3.91-9.12,1.4-18.39,4.12-24.83,11.13-11.31,12.32-10.64,31.21-9.43,46.76,1.21,15.58,3.23,34.31,16.09,45.02,7.24,6.02,16.5,8.01,25.72,8.06,3.41.02,6.83-.15,10.24-.44,1.5,10.5,2.3,21.07,2.23,31.76,0,1.21,1.77,1.77,2.35.64,5.71-11.07,10.44-22.68,14.05-34.62.72-.09,1.43-.17,2.14-.26,23.03-2.73,46.07-5.43,69.07-8.36,5.58-.72,11.15-1.43,16.72-2.2,1.37-.18,1.05-2.55-.33-2.42-22.24,2.21-44.44,4.89-66.64,7.52-6.66.79-13.32,1.59-19.98,2.37-.9.11-1.81.22-2.71.33-.33,1.13-.66,2.25-1.01,3.37-1.84,5.97-3.97,11.86-6.36,17.64-1.5,3.63-3.12,7.19-4.82,10.72-.15-8.92-.81-17.87-2.07-26.73-.15-1.09-.31-2.18-.5-3.26-.88.1-1.76.18-2.63.27-6.98.66-14.05.88-20.86-.73-8.16-1.93-14.86-6.79-19.16-13.99-4.05-6.8-5.9-14.73-7.05-22.5-1.17-7.93-1.79-16.06-1.86-24.07-.08-7.95.54-16.13,3.51-23.6,3.07-7.69,9-13.47,16.77-16.35,4.36-1.61,8.95-2.48,13.52-3.13,5.23-.76,10.5-1.33,15.75-1.94,22.03-2.56,44.11-4.63,66.23-6.21,22.11-1.58,44.27-2.68,66.44-3.28,11.08-.3,22.17-.49,33.26-.54,9.31-.05,19.94-.94,28.35,3.84,6.98,3.98,10.42,11.36,12.01,18.95,1.65,7.82,1.63,15.96,1.54,23.91-.16,15.1-1.3,32.38-10.91,44.81-2.2,2.84-4.86,5.36-7.84,7.36-1.68,1.13-.11,3.86,1.58,2.72,13.91-9.32,18.42-26.06,19.82-41.86.73-8.2.81-16.51.44-24.72Z"/>
  <path class="cls-2" d="M856.76,260.3c-2.93,11.15-7.92,21.81-15.09,30.49-6.57,7.96-14.96,14.27-25.28,17.77-17.67,5.99-36.49,5.49-55.04,5.63-4.16,12.35-8.32,24.71-12.48,37.06-.29.9-1.9,1.13-2.06,0-1.74-12.12-3.48-24.26-5.2-36.39-31.12,1.76-62.23,3.51-93.35,5.27-45.25,2.56-92.96,8.86-138.21,5.21-11.74-.1-23.49-.41-35.21-1.04-10.14-.54-20.37-1.07-30.38-2.86-8.82-1.57-17.62-4.19-25.13-9.22-7.58-5.06-12.99-12.47-16.36-20.9-3.55-8.91-5.09-18.46-6.5-27.9-1.69-11.42-3-22.89-3.95-34.39-.79-9.64-1.31-19.3-1.57-28.95-2.34-13.45-3.36-27.02.18-40.5,2.15-8.18,6.07-15.88,12.06-21.93,6.45-6.49,14.94-10.33,23.68-12.62,9.7-2.54,19.83-3.4,29.79-4.23,11.39-.93,22.82-1.46,34.24-1.69,23.27-.48,46.56.21,69.84.8,47.51,1.22,95.02,2.49,142.49,4.69,23.58,1.11,47.15,2.43,70.69,4.08,18.85,1.34,38.87,2.29,55.88,11.37,18.02,9.6,26.77,27.78,29.65,47.28,3.47,23.43,3.34,49.98-2.71,72.96Z"/>
  <path class="cls-1" d="M803.41,214.37c-5.76,5.76-14.09,10.65-22.34,7.2-2.88-1.21-5.24-3.49-6.14-6.43,2.05-3.42,3.53-7.21,4.44-11.07.22-.91-.69-1.62-1.52-1.2-3.57,1.8-5.46,5.67-5.45,9.59,0,.8.09,1.57.24,2.33-3.87,6.09-9.65,10.82-17.14,11.57-8.45.84-17.35-3.92-18.84-12.05,3.99-4.92,6.96-10.54,9.88-16.14.4-.76-.23-1.63-1.08-1.45-7.65,1.66-11.66,9.71-10.85,17.06-3.53,4.18-7.78,7.6-13.23,9.28-5.23,1.62-11.24,1.54-15.89-1.64-2.53-1.73-4.46-4.22-7.25-5.58-2.22-1.08-4.67-1.39-7.11-1.07-4,.54-7.66,2.52-10.96,4.95.33-1.64.27-3.37-.22-4.99-1.41-4.63-6.01-7.2-10.61-7.59-5.63-.49-10.81,2.34-14.94,5.92-4.72,4.09-8.58,9.2-11.89,14.46-.14.22-.27.44-.4.66.72-3.21,1.19-6.48,1.39-9.77.5-8.17-.72-17.91-8.15-22.82-7.4-4.89-17.35-2.72-24.78.91-7.75,3.79-14.42,9.66-19.44,16.66-1.35,1.89-2.57,3.86-3.66,5.89-.12-.81-.27-1.62-.47-2.43-1.8-7.18-6.79-13.44-14.03-15.58-15.45-4.57-28.45,7.88-35.04,20.68-1.11-4.36-2.93-8.55-5.46-12.33-.34-.51-.94-.59-1.41-.2-.79.66-1.58,1.32-2.37,1.98-.09-4.21-3.86-7.76-7.92-8.86-6.15-1.67-12.04,2.43-16.41,6.29-3.29,2.9-6.74,6.01-9.93,9.38-1.85-4.91-4.82-9.34-9.13-12.8-3.27-2.63-7.27-4.37-11.51-4.36-4.6.01-8.85,2.03-12.34,4.92-7.47,6.18-12.04,15.92-13.87,25.29-2.14,10.94-.76,22.38,4.34,32.32.42.81,1.62.12,1.23-.7-7.91-16.43-6.21-37.97,5.88-52.02,3.01-3.5,6.83-6.56,11.4-7.64,4.12-.97,8.34-.03,11.88,2.22,5.19,3.3,8.66,8.6,10.62,14.38-5.43,6.06-9.85,12.96-10.98,20.99-.92,6.62.46,13.53,5.02,18.58.41.45,1.09.29,1.41-.16,7.39-10.55,10.67-26.14,6.74-38.97,1.81-1.93,3.7-3.79,5.61-5.61,4.08-3.89,8.4-8.55,13.98-10.18,3.08-.9,6.15-.53,8.81,1.33,2.45,1.72,4.06,4.53,3.1,7.52-.29.91.84,1.44,1.49.89,1.12-.93,2.24-1.87,3.35-2.8,2.55,4.06,4.29,8.54,5.2,13.19-3.95,8.87-5.64,18.63-4.89,28.31.07.85,1.18,1.29,1.67.48,5.21-8.59,6.89-18.98,5.09-28.74,2.34-5.12,5.47-9.84,9.42-13.82,5.24-5.3,12.18-8.95,19.78-8.61,7.63.34,13.81,5.1,16.59,12.13,1.04,2.62,1.54,5.32,1.63,8.03-2.64,5.79-4.24,12.03-4.63,18.41-.05.87,1.28,1.28,1.68.48,2.87-5.72,4.91-12.11,4.78-18.52,4.23-9.07,11.06-16.93,19.61-22.19,6.84-4.21,15.83-7.54,23.83-4.77,8.4,2.91,10.66,12.16,10.56,20.13-.08,6.63-1.34,13.21-3.61,19.42-2.03,3.85-3.89,7.78-5.73,11.72-.49,1.06.94,1.99,1.59.96,2.36-3.76,4.31-7.76,5.83-11.92,2.94-5.56,6.22-10.92,10.28-15.73,3.42-4.06,7.45-8.15,12.49-10.12,4.36-1.7,9.89-1.55,13.45,1.84,2.72,2.59,3.28,7.22,1.17,10.22-.81.69-1.59,1.39-2.35,2.08-.79.72.19,1.98,1.11,1.48,1.05-.57,1.92-1.36,2.59-2.27,3.93-3.35,8.56-6.52,13.68-6.85,6.49-.42,9.63,5.7,15.03,8.03,9.94,4.28,20.93-.92,27.78-8.36.47,1.74,1.23,3.4,2.31,4.86,3.4,4.59,8.96,7.02,14.56,7.39,6.08.4,11.9-1.74,16.55-5.63,1.92-1.61,3.59-3.47,5.03-5.5,1.04,2.21,2.76,4.08,4.95,5.38,9.29,5.54,19.68,0,26.47-6.79.98-.98-.52-2.53-1.51-1.55ZM494.68,227.68c1.11,10.29-1.48,20.77-7.17,29.39-6.78-8.5-4.22-20.74,1.34-29.23,1.41-2.15,3.01-4.17,4.7-6.09.53,1.96.91,3.96,1.13,5.93ZM533.39,249.45c-.14-7.33,1.11-14.84,3.75-21.78.82,7.41-.42,15.03-3.75,21.78ZM583.92,234.18c.39-1.98.9-3.93,1.53-5.85-.35,1.98-.87,3.94-1.53,5.85ZM736.64,209.39c.72-4.25,3.19-8.21,7.06-10.02-2.14,4.09-4.47,8.3-7.27,12.08.02-.67.09-1.35.21-2.06ZM776.44,206.69c-.51,1.55-1.13,3.09-1.86,4.59.19-1.69.81-3.29,1.86-4.59Z"/>
  <path class="cls-4" d="M605.18,295.3c-2.39,8.96-5.53,17.95-9.45,26.65-3.78,8.4-8.75,16.75-16.52,23.83-8.1,7.36-18.89,12.66-31.37,16.05-12.82,3.48-26.62,4.95-40.26,6.05-16.33,1.32-32.71,2.29-49.12,3.04-16.21.74-32.51,1.32-48.77,1.42-4.81.03-9.67-.02-14.51-.21-10.35,7.47-21.82,13.4-33.9,17.54-.9.31-1.55-.94-.91-1.57,5.42-5.34,10.03-11.48,13.64-18.15-1.97-.37-3.92-.77-5.85-1.24-11.92-2.92-22.04-8.14-29.42-15.17-6.93-6.61-11.21-14.39-14.05-22.25-2.95-8.11-4.44-16.45-5.53-24.76-1.27-9.65-2.68-19.6.28-29.17,11.13-36.09,96.45-34.88,136.88-36.99,16-.83,32.05-1.2,48.09-1.09,14.5.1,29.14.35,43.52,1.66,12.04,1.1,24.24,3.06,34.82,7.28,10.84,4.32,18.91,11.09,22.42,19.36,3.8,9,2.46,18.64.03,27.73Z"/>
  <path class="cls-2" d="M144.44,663.94c-.5-3.03-2.75-5.66-5.69-6.59-4.06-1.27-9.5,1.14-10.78,5.36-.94,3.12.06,6.57,2.47,8.75,2.67,2.42,6.44,2.92,9.6,1.16,3.08-1.71,4.98-5.17,4.4-8.69ZM139.6,669.87c-2.02,1.55-4.63,1.7-6.75.28-2.92-1.95-3.55-5.72-1.6-8.59,1.31-1.93,3.52-2.89,5.87-2.35,1.9.43,3.54,1.86,4.28,3.66,1.04,2.54.36,5.33-1.8,6.99Z"/>
  <path class="cls-2" d="M167.05,671.95c-3.2,1.32-7.23.65-9.47-2.11-8.16-10.06,12.29-18.22,14.46-6.7.71,3.73-1.56,7.38-5,8.81Z"/>
  <path class="cls-2" d="M390.27,644.89c-7.87,4.78-17.37-.72-25.46-1.91-4.26-.63-8.76-.4-12.42,2.11-3.02,2.07-5.09,5.17-7.96,7.41-2.79,2.18-5.98,2.45-9.12.85-3.09-1.57-5.66-3.97-8.65-5.7-2.8-1.61-5.9-2.46-9.11-1.76-2.84.62-5.31,2.33-7.5,4.18-2.3,1.94-4.38,4.14-6.62,6.15-2.09,1.87-4.42,3.71-7.18,4.42-3.64.94-6.92-.76-9.88-2.75-3.51-2.38-6.83-4.82-11.13-5.52-4.19-.68-8.55-.02-12.28,2.03-3.45,1.89-6.09,4.99-9.63,6.75-1.64.81-3.46,1.14-5.25.64-1.68-.47-3.14-1.52-4.49-2.59-2.78-2.2-5.49-4.76-9.17-5.2-4.69-.57-8.91,2.3-12.52,4.9-3.43,2.47-8.06,5.73-12.5,4.06-3.71-1.39-5.87-5.33-9.9-6.16-4.37-.9-8.52,1.59-11.24,4.83-1.41,1.68-2.55,3.56-3.69,5.43-.64,1.05.98,1.97,1.63.95,2.39-3.7,5.15-7.92,9.74-8.99,4.5-1.05,7.12,2.64,10.42,4.9,3.76,2.57,8.09,1.97,11.97,0,4.21-2.14,7.62-5.85,12.22-7.24,2-.6,4.06-.58,5.97.31,1.59.74,2.96,1.87,4.3,2.97,2.71,2.22,5.64,4.59,9.36,4.44,3.91-.16,7.02-2.8,9.94-5.12,3.3-2.62,6.77-4.59,11.09-4.8,2.17-.1,4.33.2,6.38.92,1.96.69,3.71,1.84,5.41,3.01,3.26,2.25,6.61,4.75,10.74,4.87,6.09.18,10.7-4.73,14.73-8.62,3.98-3.84,8.8-8.28,14.75-6.13,6.18,2.24,10.76,9.45,18.05,8.01,3.56-.71,6.11-3.57,8.49-6.08,1.23-1.3,2.49-2.63,3.99-3.62,1.84-1.22,3.98-1.82,6.18-1.94,8.84-.46,16.86,5.2,25.78,3.98,2.03-.28,3.95-.99,5.66-2.12,1.14-.76.11-2.58-1.09-1.86Z"/>
  <path class="cls-8" d="M661.24,680.35c-1.31-1.63-2.91-2.94-4.5-4.29-1.58-1.35-3.17-2.69-4.75-4.04-1.54-1.31-3.08-2.61-4.62-3.91-1.55-1.31-3.06-2.89-4.97-3.65-.73-.29-1.34.67-.98,1.28,1.02,1.73,2.84,2.95,4.34,4.24,1.58,1.35,3.16,2.71,4.74,4.05,1.54,1.31,3.07,2.61,4.61,3.92,1.62,1.37,3.19,2.76,5.04,3.81.93.53,1.69-.64,1.08-1.4Z"/>
  <path class="cls-8" d="M647.37,676.51c-.89-.74-1.92-1.33-2.87-1.98-.98-.66-2.02-1.24-3.03-1.86-2.03-1.23-4.06-2.44-6.1-3.65-.83-.49-1.57.78-.75,1.29,1.97,1.24,3.95,2.48,5.93,3.7.98.6,1.94,1.22,2.93,1.79,1.01.58,2.05,1.24,3.12,1.7.59.25,1.38-.49.77-1Z"/>
  <path class="cls-8" d="M345.55,605.53c-1.16,10.83-2.28,21.69-3.17,32.55-.09,1.1,1.65,1.11,1.72,0,1.12-10.83,2.01-21.7,2.87-32.55.07-.92-1.33-.9-1.42,0Z"/>
  <path class="cls-2" d="M282.76,808.46c-1.06-10.75-2.09-21.49-3.1-32.25-1.41-15.04-2.76-30.09-4.08-45.14-.07-.84-.15-1.69-.21-2.54-.28-3.12-.54-6.23-.81-9.35-.61-7.1-1.21-14.2-1.8-21.3-.06-.64-.11-1.28-.16-1.92-.53.04-1.07.09-1.61.15-9.33.84-18.65,1.77-27.98,2.67-26.56,2.57-53.12,5.12-79.67,7.73-11.26,1.11-22.56,2.11-33.82,3.3l-1.91.21c.07.57.13,1.12.2,1.69.11,1.02.22,2.03.33,3.06.43,4.24.86,8.48,1.27,12.73.82,8.49,1.58,16.98,2.28,25.49,1.39,17,2.52,34.03,3.38,51.06.21,4.25.41,8.49.58,12.74.03.47.04.95.06,1.42.7-.03,1.41-.06,2.11-.09,23.67-1,47.32-2.17,70.97-3.49,24.12-1.34,48.23-2.86,72.33-4.52l1.78-.13c-.05-.5-.1-1-.15-1.49ZM131.68,730.45c-.47-4.81-.95-9.62-1.49-14.43-.17-1.49-.32-2.99-.48-4.49,9.66-.85,19.3-1.84,28.94-2.75,13.21-1.24,26.41-2.51,39.62-3.78,24.28-2.34,48.56-4.84,72.86-6.99.81,10.54,1.67,21.08,2.56,31.62-8.66,6.01-15.66,14.42-19.98,24.03-1.12,2.48-2.04,5.03-2.8,7.64-1.33-4.03-2.98-7.96-5.73-11.23-3.53-4.21-8.76-6.41-14.21-6.55-11.43-.28-20.53,8.15-25.46,17.79-2.94,5.74-4.68,11.97-6.19,18.21-2.33-2.46-6.67-2.76-9.54-.76-2.65,1.86-3.96,4.54-4.58,7.48-1.24-5.36-2.64-10.68-4.53-15.85-2.26-6.17-5.2-14.3-11.91-16.86-7.21-2.76-14.32,2.16-18.69,7.54-4.68,5.75-8.29,12.44-10.72,19.43-1.3,3.74-2.26,7.6-2.84,11.51-.21-3.45-.42-6.91-.64-10.36-1.12-17.09-2.51-34.17-4.2-51.22Z"/>
  <path class="cls-7" d="M481.83,100.54c-3.4-.26-6.92.23-10.32.43-1.61.09-3.23.2-4.84.3-.51-2.8-.94-5.52-1.35-8.24-.09-.57-.17-1.13-.26-1.7-.56.07-1.11.12-1.67.17-.27.03-.54.06-.81.09-2.63.25-5.28.41-7.92.58-.49.03-.98.06-1.46.09.04.58.09,1.16.15,1.73.58,6.46,1.17,12.93,1.78,19.4l.03.33c-4.64,1.83-9.95,3.46-14.37.4-.52-.37-1-.81-1.41-1.3,2.19-2.62,3.79-5.66,4.69-8.94.11-.41-.14-.94-.58-1.03-2.75-.53-5.23,1.12-6.4,3.57-1.03,2.13-.89,4.39.18,6.34-2.07,2.22-4.59,4-7.44,4.97-2.9,1-6.86,1.14-8.82-1.66-.68-.95-1.1-2.22-1.07-3.43.66-1.12,1.27-2.27,1.88-3.4.37-.69-.4-1.59-1.12-1.12-1.49.97-2.21,2.4-2.36,3.94-2.56,4.16-5.96,8.06-11.18,8.01-2.47-.03-4.73-1.25-5.63-3.57,1.16-2.09,1.9-4.39,2.14-6.8.07-.64-.71-.95-1.2-.7-2.64,1.41-3.41,4.56-2.7,7.3-1.24,2-2.92,3.73-4.93,4.98-2.08,1.29-4.41,2.03-6.8,2.25-.37-2.78-.73-5.56-1.07-8.34-.82-6.69-1.66-13.38-2.49-20.07-.07-.55-.14-1.09-.2-1.63-.52.07-1.02.15-1.54.24-3.01.47-6.03.94-9.04,1.42-2.45.4-4.92.78-7.38,1.18-.79.13-1.59.23-2.39.34-.49.07-.99.14-1.48.21.06.56.13,1.12.2,1.69,1.75,14.44,3.18,28.92,4.27,43.42.09,1.1.16,2.2.24,3.3-.95.12-1.91.28-2.84.4-1.79.23-3.57.46-5.35.7-.82.11-1.66.22-2.48.33-.63-3.23-1.23-6.46-1.79-9.7-1.26-7.29-2.46-14.58-3.39-21.93-.05-.4-.1-.79-.15-1.18-.08-.58-.15-1.15-.21-1.73-.46.09-.93.18-1.38.27-8.61,1.68-17.26,3.11-25.94,4.34-.36-1.49-.74-2.97-1.08-4.45-.28-1.21-.57-2.42-.86-3.63-.13-.58-.27-1.16-.41-1.74-.42.02-.84.03-1.24.05-.11,0-.23,0-.34.02-1.5.06-2.99.21-4.47.42-1.49.21-2.97.52-4.43.91-.52.14-1.02.27-1.53.44.1.54.2,1.09.29,1.63,1.87,10.57,3.73,21.13,5.6,31.69.67,3.77,1.4,7.54,2.04,11.32-7.66.89-15.31,1.17-23,1.12-2.06-11-4.11-22.02-6.19-33.02-.39-2.09-.79-4.18-1.18-6.27-.11-.58-.22-1.16-.33-1.73-.57.03-1.13.09-1.71.15-1.47.15-2.94.34-4.39.47-.52.04-1.02.09-1.54.15-.63.05-1.25.11-1.87.18,0,.36.03.73.05,1.09,0,.16.02.32.03.48.21,3.33.54,6.66,1,9.97.53,3.89,1.25,7.73,2.17,11.54-.22.03-.44.07-.65.09-1.56.21-3.12.4-4.68.61-1.54.2-3.06.4-4.6.61-.83.11-1.67.22-2.51.34-.76.11-1.52.09-2.07.68-.34.37-.28.94.15,1.2.68.43,1.42.22,2.18.14.84-.09,1.68-.2,2.52-.3,1.56-.18,3.12-.38,4.68-.57,1.56-.2,3.12-.4,4.68-.58.27-.03.54-.06.82-.09.57-.06,1.15-.1,1.73-.16-.18-.76-.35-1.5-.52-2.26-.83-3.76-1.52-7.55-2.05-11.35-.46-3.33-.79-6.67-.99-10.03.54-.04,1.09-.09,1.63-.14,1.5-.13,3.03-.21,4.55-.33,2.4,13.04,4.83,26.09,7.26,39.12.02.11.04.23.06.34.1.48.18.97.27,1.45.63.03,1.23.05,1.85.07,7.96.26,15.96-.37,23.81-1.49.45-.06.64-.61.57-.99-2.67-14.19-5.05-28.45-7.6-42.66-.08-.43-.16-.85-.23-1.28,1.39-.37,2.8-.66,4.22-.88,1.57-.24,3.17-.38,4.76-.42.29,1.36.6,2.72.91,4.08.32,1.42.62,2.84.93,4.27.1.5.21,1,.33,1.51.59-.06,1.18-.14,1.77-.21,8.64-1.06,17.24-2.47,25.78-4.15,1.26,10.84,2.88,21.64,4.89,32.36.03.14.05.27.08.41.1.54.21,1.09.3,1.64.58-.08,1.18-.15,1.76-.22l2.58-.34c1.78-.22,3.56-.45,5.35-.68.84-.11,1.7-.2,2.56-.31.5-.06,1-.14,1.49-.23-.03-.55-.07-1.11-.11-1.67-.91-13.36-2.17-26.7-3.71-39.99-.27-2.28-.54-4.56-.82-6.84.45-.08.91-.16,1.36-.22,2.18-.34,4.36-.69,6.54-1.03,3.64-.57,7.27-1.14,10.91-1.71.8,6.68,1.61,13.36,2.42,20.03.34,2.73.65,5.46.96,8.2.07.53.13,1.06.19,1.59.58.02,1.16,0,1.73-.05,2.66-.21,5.27-1.05,7.56-2.51,1.86-1.19,3.45-2.73,4.7-4.5.32.57.71,1.09,1.18,1.54,4.13,3.91,10.74,1.71,14.3-1.79.99-.97,1.85-2.04,2.63-3.18.62,2.01,2.07,3.84,3.98,4.64,5.5,2.31,11.71-1.2,15.62-5.23,2.12,2.35,5.21,3.45,8.15,3.48,3.16.04,6.12-.99,8.95-2.27.55-.25,1.1-.51,1.64-.77-.04-.46-.09-.93-.14-1.39-.64-6.5-1.3-12.88-1.97-19.27,2.66-.18,5.31-.42,7.95-.66.28-.03.57-.05.85-.08.41,2.69.87,5.37,1.34,8.04.12.68.21,1.19.31,1.71.55-.03,1.11-.06,1.66-.09,1.59-.09,3.18-.17,4.76-.27,3.4-.19,6.94-.13,10.28-.78.76-.14.51-1.2-.17-1.25ZM438.27,108.11c.5-1.79,2.01-3.55,3.91-3.67-.79,2.45-2.05,4.83-3.68,6.92-.42-1-.55-2.11-.22-3.24Z"/>
  <path class="cls-1" d="M565.83,299.9c-6.97,1.05-13.93,2.11-20.9,3.17-.84.13-1.69.26-2.53.39-.95.15-1.3.14-1.85.94-.95,1.38-1.86,2.78-2.79,4.17-1.55,2.32-3.1,4.63-4.65,6.95-.97-3.99-.98-8.12,0-12.14.12-.49-.15-1.04-.66-1.17-8.94-2.33-18.74-.49-26.37,4.68-1.87,1.27-3.62,2.72-5.18,4.36-1.62,1.7-2.9,3.69-4.5,5.41-1.38,1.47-3.62,3.58-5.78,2.38-2.13-1.17-2.39-4.56-2.73-6.69-.22-1.37-.36-2.75-.47-4.13.38-1.19.69-2.36.93-3.45.96-4.32,1.09-8.74.45-13.12-.14-.94-1.59-.84-1.8,0-1.32,5.31-1.84,10.82-1.48,16.28-.36,1.06-.76,2.1-1.23,3.11-1.86,4-6.64,10.63-11.82,7.51-1.08-.65-2.14-1.83-2.57-3.12.49-1.12.75-2.34.71-3.6-.02-.72-1.06-1.33-1.59-.66-.95,1.21-1.25,2.58-1.06,3.93-1.81,3.51-6.43,5.72-10.07,3.64-3.51-2.01-4.55-7.07-2.6-10.48.4-.5.79-1.01,1.18-1.51.82-1.06-.57-2.02-1.31-1.33-.63.59-1.14,1.26-1.55,1.98-5.22,6.5-12.06,12.95-20.96,12.15-2.5-.22-4.8-1.17-6.63-2.71.75-.8,1.47-1.63,2.15-2.49,2.18-2.73,4.4-6.52,3.37-10.17-.44-1.57-1.64-2.81-3.21-3.27-1.98-.57-4.05.33-5.48,1.68-2.94,2.76-3.12,7.27-1.63,10.81.53,1.27,1.27,2.41,2.15,3.43-.68.67-1.37,1.32-2.09,1.95-1.77,1.54-3.67,2.94-5.67,4.17-1.97,1.22-4.15,2.41-6.51,2.58-4.38.32-6.46-3.53-7.12-7.3-.78-4.45.31-9.13-1.32-13.46-.37-.97-.89-2.29-1.7-2.98-.44-.38-1.01-.3-1.56-.3-.71-.01-1.42-.02-2.14-.03-3.13-.04-6.27-.09-9.4-.13-.52,0-1.01.46-.99.99.28,7.85.55,15.69.83,23.54-7.61-.05-15.21.96-22.54,3-1.32-9.33-2.64-18.66-4.04-27.98-.14-.92-1.75-.71-1.63.22,1.27,9.75,2.62,19.48,3.96,29.22.07.51.73.8,1.18.67,7.84-2.26,15.94-3.33,24.09-3.17.52.01,1-.46.98-.98-.27-7.84-.54-15.67-.81-23.51,3.62.05,7.24.11,10.86.16,2.63,3.7,1.71,8.72,2.03,12.97.28,3.68,1.39,7.91,4.75,9.96,4.2,2.56,9.16.09,12.82-2.29,2.64-1.72,5.11-3.71,7.35-5.94,1.52,1.31,3.34,2.28,5.34,2.79,5.11,1.31,10.65-.12,15.03-2.89,2.8-1.77,5.2-4.02,7.39-6.46-.09,2.22.54,4.48,1.83,6.28,3.08,4.3,8.85,4.37,12.79,1.19.64-.51,1.2-1.11,1.69-1.76.18.31.39.62.62.91,1.81,2.28,4.62,3.34,7.47,2.66,4.27-1.03,7.17-4.73,9.08-8.85.52,4.09,1.72,9.78,6.62,9.14,2.4-.31,4.34-2.24,5.84-3.99,1.59-1.85,2.95-3.84,4.71-5.54,3.48-3.35,7.79-5.81,12.41-7.22,5.04-1.54,10.42-1.8,15.56-.64-.96,4.7-.72,9.56.78,14.14.26.79,1.27.9,1.72.23,2.86-4.28,5.72-8.56,8.58-12.84,8.06-1.23,16.11-2.48,24.17-3.72,1.16-.18.66-1.93-.49-1.76ZM425.34,303.11c1.56-.82,3.57-.47,4.26,1.28.57,1.44.16,3.17-.35,4.56-.68,1.86-1.87,3.41-3.13,4.91-.47.56-.96,1.1-1.46,1.64-.6-.72-1.13-1.51-1.54-2.39-1.57-3.31-1.39-8.1,2.23-10.01Z"/>
  <path class="cls-7" d="M426.72,827.62c-4.27,5.41-10.72,9.51-15.03,14.89-4.68,5.85-7.33,12.47-10.23,18.94-1.44,3.2-2.94,6.39-4.74,9.48-1.76,3.01-3.74,6.05-6.83,8.39-2.75,2.07-6.51,3.54-10.39,2.74-3.87-.8-6.51-3.61-7.45-6.52-.36-1.14-.52-2.31-.56-3.49-2.62,3.95-6.81,8.72-12.67,7.3-2.82-.69-5.85-2.6-6.75-4.67-.54-1.23-.78-2.33-.96-3.62-.67,1.33-.21,2.27-1.4,3.37-4.69,4.33-12.58,2.46-15.95-1.97-2.05-2.69-2.31-5.98-2.07-9.02.24-3.04.83-6.09,1.46-9.08,1.27-5.96,3.12-11.85,5.76-17.54,2.58-5.51,5.89-10.84,10.16-15.69,4.26-4.82,9.43-9.42,15.73-12.68,5.81-3.01,13.18-4.86,20.06-3.11,1.47.38,2.87.88,4.17,1.52.56-.16,1.14-.29,1.72-.4,4.52-.85,9.44-.33,13.13,1.74,2.84-1.52,5.99-2.58,9.53-2.77,5.31-.28,11.12,2.09,13.19,5.85,5.8,4.15,3.89,11.59.12,16.35Z"/>
  <path class="cls-7" d="M457.07,819.22c.21,3.07-1.75,5.97-4.24,8.26-2.73,2.51-6.35,4.29-9.64,6.31-3.01,1.84-5.7,3.98-7.94,6.4-4.45,4.8-7.31,10.32-9.43,15.97-.28.74-.52,1.49-.77,2.22.07.2.03.4-.13.61-.75,2-1.33,3.84-1.87,5.68-.85,2.98-1.45,6.32-4.3,8.61-.63.52-1.37.95-2.18,1.29-1.43.89-3.14,1.48-5.03,1.53-2.86.08-5.57-1.17-7.34-2.85-4.34-4.14-2.95-10.15-2.13-15.01.51-3.02-.17-4.37.61-7.36.1-.76.59-3.22.72-3.97,1.08-6.88,3.45-9.79,6.3-16.36,2.51-5.84,10.58-16.51,16.88-20.41,5.66-3.5,9.29-4.53,16.46-2.92,4.52,1.02,8.4,3.3,10.63,6.37,2.02,1.44,3.27,3.53,3.42,5.64Z"/>
  <path class="cls-3" d="M426.53,809.36c-12.96,10.07-21.97,25.01-25.07,41.11-.89,4.61-1.29,9.25-1.05,13.93.05.97,1.5.98,1.52,0,.32-16.14,5.72-31.87,16.24-44.23,2.94-3.45,6.22-6.59,9.81-9.37,1.03-.8-.42-2.24-1.44-1.44Z"/>
  <path class="cls-3" d="M402.85,805.16c-15.38,13.14-26.11,31.88-30.31,51.62-1.21,5.67-1.82,11.37-1.83,17.17,0,.98,1.46.97,1.52,0,1.06-20.01,8.02-39.56,20.55-55.27,3.48-4.36,7.36-8.35,11.54-12.05,1-.89-.46-2.32-1.47-1.47Z"/>
  <path class="cls-3" d="M385.12,804.2c-9.31,5.08-17.22,12.77-23.11,21.54-5.9,8.77-9.93,18.94-11.42,29.42-.84,5.93-.93,11.88-.01,17.8.13.81,1.51.63,1.44-.19-.9-10.38.32-20.8,3.88-30.6,3.51-9.67,9.16-18.59,16.48-25.83,4.12-4.08,8.75-7.5,13.76-10.4,1.12-.64.12-2.34-1.01-1.73Z"/>
  <path class="cls-3" d="M413.54,856.61c-.71-1.64-1.94-3.07-3.65-3.69-1.79-.65-3.87-.3-5.47.69-3.07,1.91-3.98,5.33-4.01,8.76-.17,2.27-.4,4.47.36,6.65.61,1.75,1.72,3.28,3.35,4.2,1.65.93,3.64,1.08,5.31.13,1.76-1,2.85-2.87,3.62-4.67,1.58-3.68,2.12-8.31.49-12.07ZM411.71,866.02c-.7,2.48-2.51,6.8-5.83,5.7-2.3-.76-3.28-2.92-3.74-5.22.13-3.35-.1-7.08,2.19-9.81,1.9-2.27,5.32-2.53,6.89.21,1.52,2.66,1.29,6.27.49,9.11Z"/>
  <path class="cls-3" d="M385.64,862.65c-2.42-3.68-7.04-4.75-10.65-2.07-4.15,3.08-4.56,8.14-4.21,12.89-.05,1.45.11,2.89.68,4.3.77,1.9,2.23,3.47,4.23,4.07,4.34,1.3,8.35-1.92,10.01-5.7,1.77-4.03,2.48-9.62-.06-13.48ZM384.46,873.02c-.82,3.18-2.85,6.62-6.49,6.88-4.89.36-5.36-5.26-5.42-8.83.16-2.63.63-5.12,2.08-7.07,1.96-2.64,5.54-3.86,8.15-1.37,2.78,2.65,2.56,6.95,1.67,10.38Z"/>
  <path class="cls-3" d="M362.57,866.25c-.19-1.98-.59-4.05-1.75-5.72-1.05-1.51-2.68-2.65-4.55-2.77-1.8-.11-3.51.83-4.63,2.19-2.17,2.64-1.95,5.96-1.31,9.19-.1,3.6.42,7.9,4.18,9.48,1.63.69,3.61.59,5.03-.53,1.6-1.26,2.2-3.52,2.62-5.42.46-2.1.63-4.29.42-6.43ZM360.35,869.92c-.14,1.64-.5,3.32-1.11,4.85-.55,1.4-1.58,2.35-3.16,2.09-1.83-.3-2.83-1.7-3.4-3.38.28-3.28-1.14-6.59-.38-9.86.63-2.72,3.5-4.91,5.95-2.66,2.29,2.1,2.35,6.09,2.1,8.95Z"/>
  <path class="cls-3" d="M345.82,858.46c-.27-3.67-2.28-7.96-6.63-7.57-2.19.2-4.16,1.5-5.33,3.34-.86,1.35-1.26,2.86-1.43,4.42-.87,3.67-1.81,7.57-.13,11.05.86,1.78,2.6,3.21,4.56,3.58,2,.38,3.86-.48,5.16-1.99,2.88-3.38,4.12-8.47,3.8-12.83ZM341.04,868.63c-.77,1.26-1.92,2.61-3.56,2.39-1.46-.2-2.67-1.34-3.23-2.65-1.47-3.43.2-7.14.47-10.7.6-1.97,1.75-3.72,3.84-4.3,3.26-.91,4.72,2.42,4.91,5.1.25,3.52-.59,7.15-2.43,10.17Z"/>
  <path class="cls-7" d="M751.26,808.7c.47,1.65-.19,3.62-1.59,4.99-2.09,2.06-5.27,2.22-7.95,3.04-5.6,1.72-10.04,5.95-13.34,10.57-3.4,4.77-5.78,10.09-8.72,15.13-2.46,4.19-6.8,8.73-12.3,7.27-5.2-1.38-6.84-7.25-6.14-11.87.44-2.95,1.56-5.78,2.59-8.57.63-1.68,1.29-3.37,1.99-5.03-.15.13-.32.27-.47.4-4.24,3.75-7.95,8.03-10.81,12.88-1.37,2.33-2.67,4.86-4.8,6.63-2.06,1.71-4.6,2.42-7.27,1.95-4.37-.78-7.2-4.14-8.27-8.06-3.15,3.69-7.64,6.9-12.75,5.46-5.02-1.42-7.3-6.78-7.02-11.52.18-3.07,1.3-6.03,2.58-8.81.8-1.78,1.69-3.52,2.64-5.23-4.25,1.79-8.38,3.89-12.32,6.3-2.79,1.71-5.49,3.55-8.08,5.54-2.6,1.99-4.99,4.29-7.78,6.02-2.53,1.57-5.62,2.71-8.6,1.82-2.67-.8-4.53-2.98-5.4-5.56-2.05-6.08,2.05-11.81,5.87-16.14,7.61-8.64,17.74-14.93,28.7-18.35,5.52-1.73,11.26-2.71,17.04-2.9,3.34-.12,6.79.02,10.15.52,1.77-1.32,3.63-2.53,5.58-3.58,4.79-2.57,10.16-4.05,15.65-3.48,3.67.38,7.35,1.67,10.15,3.99,9.7-2.84,20.81-.92,27.58,6.6,6.03.66,11.72,3.65,14.62,9.11.53.98-.92,1.82-1.52.87Z"/>
  <path class="cls-7" d="M756.88,817.13c-8.51.6-17.04,1.2-25.55,1.8-1.23-1.09-2.17-2.5-2.82-4.01-.64-1.48-.96-3.03-1.16-4.62-.22-1.77-.46-3.77-.13-5.53.08-.43.36-.66.69-.75-.06-.45-.12-.91-.18-1.37-.12-1-.23-1.99-.35-3-.3-.82-.64-1.61-1.07-2.38-.56-1.03-1.4-2.04-1.72-3.18-2.88-.64-5.79-1.14-8.62-1.95-.97-.27-.8-1.83.24-1.78,4.15.21,8.39,1.17,12.41,2.22,6.75,1.77,13.27,4.54,18.62,9.1,4.7,4,8.37,9.34,9.65,15.42Z"/>
  <path class="cls-3" d="M738.62,795.55c-15.76,5.71-28.55,17.83-34.94,33.34-1.83,4.43-3.06,9.02-3.58,13.79-.09.79,1.23.96,1.39.19,1.66-8.02,4.48-15.73,8.99-22.6,4.39-6.69,10.17-12.43,16.89-16.77,3.75-2.42,7.77-4.41,11.98-5.9,1.45-.51.58-2.62-.71-2.05Z"/>
  <path class="cls-3" d="M726.41,791.32c-2.37-1.13-5.22-1.42-7.82-1.38-2.65.04-5.31.51-7.83,1.3-5.03,1.59-9.57,4.38-13.77,7.51-8.11,6.05-15.44,13.52-19.75,22.8-1.23,2.65-2.23,5.41-2.9,8.26-.66,2.78-1.19,5.8-.82,8.66.09.73,1.32,1.11,1.45.2.36-2.45.52-4.91,1.04-7.34.53-2.43,1.29-4.82,2.25-7.12,1.89-4.48,4.54-8.63,7.66-12.35,3.09-3.67,6.62-6.95,10.39-9.91,3.87-3.04,8.04-5.9,12.62-7.76,2.58-1.05,5.31-1.79,8.1-2.02,1.38-.11,2.78-.11,4.17.03,1.53.16,2.97.59,4.46.94,1.04.24,1.82-1.3.76-1.81Z"/>
  <path class="cls-3" d="M700.51,787.42c-4.78-.6-9.92.56-14.4,2.16-4.54,1.62-8.79,3.96-12.6,6.9-7.95,6.14-13.56,14.78-16.59,24.32-1.72,5.43-2.57,10.99-2.47,16.68.02.88,1.3.87,1.36,0,.62-9.65,3.13-19.26,8.31-27.49,5-7.95,12.35-14.36,21.12-17.84,2.38-.94,4.83-1.66,7.34-2.17,2.62-.53,5.29-.67,7.94-.92,1.07-.1,1.04-1.51,0-1.64Z"/>
  <path class="cls-3" d="M627.61,815.52c-1.6-.79-3.53-.67-5.07.21-1.72.99-2.62,2.61-3.24,4.4-1.01,1.52-1.78,3.21-2.22,5.06-.37,1.54-.61,3.28.09,4.76.77,1.66,2.58,2.21,4.27,1.69,1.63-.5,3.09-1.67,4.28-2.86,1.21-1.21,2.23-2.64,2.97-4.19,1.33-2.81,2.45-7.34-1.07-9.07ZM626.94,823.46c-1.09,2.36-2.88,4.49-5.15,5.79-.94.54-2.37.98-2.86-.33-.4-1.07-.1-2.34.17-3.39.75-2.98,2.43-5.93,4.72-7.99.83-.49,1.54-.58,2.3-.38,2.83.75,1.69,4.43.82,6.31Z"/>
  <path class="cls-3" d="M664.71,826.02c-.51-1.34-1.33-2.69-2.65-3.36-1.3-.66-2.82-.46-3.97.4-1.42,1.07-2.2,2.79-2.69,4.45-.54,1.8-.73,3.63-.64,5.48-1.04,3.13-.84,7.64,2.75,8.74,3.61,1.1,6.1-2.53,7.12-5.42,1.14-3.2,1.3-7.08.08-10.29ZM663.3,833.6c-.42,2.25-1.44,5.65-3.99,6.28-1.37.33-2.48-.54-2.99-1.77-.46-1.11-.41-2.33-.36-3.53.12-.11.21-.27.22-.49.14-2.64.66-5.68,1.99-8.01.47-.83,1.23-1.83,2.29-1.8,1.02.03,1.7,1.02,2.11,1.84,1.1,2.2,1.17,5.1.73,7.48Z"/>
  <path class="cls-3" d="M687.51,828.2c-.15-1.88-.79-3.83-2.28-5.08-1.39-1.17-3.24-1.46-4.98-1.05-1.98.46-3.65,1.8-4.65,3.54-.64,1.1-1,2.26-1.22,3.45-1.51,3.34-2.35,7.31-.9,10.71.76,1.79,2.35,3.19,4.36,3.26,2.11.07,3.94-1.24,5.19-2.82,2.58-3.25,4.83-7.76,4.48-12.01ZM682.58,837.12c-.84,1.36-1.82,2.89-3.36,3.53-1.5.63-2.94-.01-3.69-1.41-.88-1.63-.77-3.75-.58-5.54.04-.36.1-.71.15-1.07.1-.07.18-.18.21-.33.52-2.76,1.47-6.2,4.11-7.66,1.09-.6,2.49-.9,3.68-.39,1.34.57,1.99,2.04,2.22,3.39.58,3.35-1.03,6.72-2.74,9.49Z"/>
  <path class="cls-3" d="M712.75,831.54c-.8-1.64-2.41-2.67-4.24-2.65-1.81.02-3.43.99-4.66,2.24-2.52,2.56-3.9,6.3-3.48,9.87-.25.88-.37,1.78-.22,2.74.24,1.46,1.09,2.9,2.45,3.56,3.59,1.73,6.84-2.57,8.38-5.23,1.69-2.93,3.36-7.25,1.78-10.53ZM710.07,839.63c-.58,1.26-1.3,2.47-2.16,3.56-.81,1.02-1.83,2.19-3.15,2.51-1.45.35-2.47-.8-2.78-2.11-.07-.31-.1-.64-.11-.96.16-.13.26-.32.25-.57-.03-.44-.03-.88-.03-1.32.16-.7.39-1.39.61-2.02.11-.31-.06-.58-.31-.74.28-1.28.74-2.52,1.45-3.67,1.17-1.89,4.2-4.93,6.5-2.82,2.15,1.97.73,5.92-.28,8.12Z"/>
</svg>